<?xml version="1.0" encoding="UTF-8"?>
<svg id="Calque_2" data-name="Calque 2" xmlns="http://www.w3.org/2000/svg" xmlns:xlink="http://www.w3.org/1999/xlink" viewBox="0 0 106.91 45.08">
  <defs>
    <style>
      .cls-1 {
        fill: #d11c1f;
      }

      .cls-1, .cls-2, .cls-3 {
        stroke-width: 0px;
      }

      .cls-2 {
        fill: #000;
      }

      .cls-3 {
        fill: #aeb5bd;
      }

      .cls-4 {
        stroke: #e6c35a;
      }

      .cls-4, .cls-5, .cls-6 {
        fill: none;
        stroke-miterlimit: 10;
      }

      .cls-5 {
        stroke: #000;
        stroke-width: .75px;
      }

      .cls-6 {
        stroke: #1d1d1b;
        stroke-width: .15px;
      }

      .cls-7 {
        clip-path: url(#clippath);
      }

      .cls-8 {
        letter-spacing: -.05em;
      }

      .cls-9 {
        fill: #e4201b;
        font-family: ClearSans, 'Clear Sans';
        font-size: 8px;
      }
    </style>
    <clipPath id="clippath">
      <rect class="cls-4" x="67.59" y="5.01" width="33.44" height="35.07" rx="5.9" ry="5.9"/>
    </clipPath>
  </defs>
  <g id="Linus">
    <path class="cls-5" d="M104.62,19.93c.05-.93.77-1.37,1.76-1.59v-1.53c-1.81-.69-2.28-1.66-1.32-2.64.39-.29.78-.57,1.31-.96v-1.26c-.43-.28-.78-.5-1.13-.73l.03.03c-1.27-.88-.81-2.07,1.11-2.85v-1.5c-1.04-.27-1.83-.74-1.76-1.81.06-.94.79-1.36,1.75-1.58l-.59-1.3c-.31-.59-.59-1.1-1.13-1.54-.23-.18-.62-.31-.94-.3-.31,0-.8.15-.9.34-.36.74-.95,1.16-1.88,1.15-.93,0-1.51-.42-1.86-1.17-.09-.19-.6-.32-.91-.32-.31,0-.8.14-.9.33-.36.74-.94,1.17-1.87,1.16-.92,0-1.52-.42-1.87-1.17-.09-.19-.59-.33-.9-.33-.31,0-.81.14-.9.33-.36.74-.93,1.16-1.87,1.16-.93,0-1.52-.41-1.87-1.16-.09-.19-.59-.33-.9-.33-.31,0-.81.13-.91.32-.36.74-.93,1.16-1.87,1.16-.93,0-1.51-.41-1.88-1.15-.1-.2-.64-.34-.98-.34-.29,0-.73.18-.85.39-.38.69-.93,1.08-1.83,1.09-.9,0-1.45-.38-1.86-1.06-.13-.22-.6-.42-.92-.42-.32,0-.82.17-.95.38-.39.68-.92,1.08-1.83,1.09-.91.01-1.45-.39-1.86-1.06-.14-.22-.6-.41-.92-.42-.32,0-.82.17-.95.39-.39.68-.93,1.09-1.83,1.1-.94,0-1.53-.4-1.88-1.14-.08-.18-.46-.34-.71-.35-.37,0-.85.05-1.09.24-.56.45-.87.95-1.17,1.7l-.59,1.22c1.05.19,1.72.7,1.77,1.64.04.8-.47,1.28-1.76,1.72,0,.49,0,1,0,1.51,1.9.8,2.34,1.96,1.09,2.85l.03-.03c-.36.23-.71.45-1.17.74v1.4c1.29.41,1.87.96,1.81,1.77-.07.9-.68,1.43-1.75,1.6v1.6c.99.26,1.79.73,1.73,1.78-.05.93-.75,1.38-1.76,1.59v1.54c1.81.72,2.27,1.65,1.32,2.65-.4.29-.8.59-1.32.97v1.26c.43.27.78.5,1.14.72l-.03-.03c1.27.9.82,2.08-1.11,2.84v1.51c1.03.25,1.83.72,1.77,1.78-.06.93-.75,1.38-1.76,1.58v1.53c1.83.74,2.28,1.69,1.3,2.67l.03-.03c-.27.38-.36.45-.62,1.21l-.34.96c.48.53.82,1.02,1.37,1.48.2.17.56.29.85.29.33,0,.68-.12.97-.27.24-.13.38-.39.57-.59.02-.01.03-.02.04-.03.42-.2.9-.62,1.25-.55.61.12,1.36.43,1.66.85.33.47.59.63,1.19.63.59,0,.86-.16.99-.63.05-.18.31-.32.47-.48.8-.23,1.61-.55,2.37.09.17.1.41.16.51.29.76,1.03,1.54,1.02,2.28-.03.09-.13.26-.23.39-.35.8-.23,1.61-.55,2.37.09.17.09.4.16.51.29.79,1.04,1.48,1.04,2.26,0,.1-.13.34-.19.51-.28.76-.4,1.51-.54,2.27,0,.17.09.41.15.51.29.79,1.03,1.48,1.03,2.26,0,.1-.13.34-.19.51-.29.76-.38,1.51-.59,2.27,0,.17.1.41.16.51.29.76,1.03,1.56,1.02,2.29-.03.09-.13.25-.23.38-.35.81-.32,1.61-.43,2.38.09.19.12.5.22.54.37.16.57.57.65,1.18.66.61.01.77-.24.99-.65.57-1.03,2.08-1.19,2.95-.36l-.03-.03c.16.12.4.22.45.36.17.53.52.67,1.16.69.66.01.78-.31,1.07-.68.33-.42.89-.7,1.51-1.16v-1.29c-1.81-.76-2.28-1.73-1.28-2.64l-.03.03c.38-.31.76-.61,1.3-1.06v-1.07c-.57-.5-1.03-.91-1.48-1.32-.52-.87-.15-1.77,1.49-2.33v-1.51c-1.91-.79-2.36-1.97-1.09-2.85l-.04.03c.33-.22.65-.44,1.11-.75v-1.25c-.5-.37-.9-.67-1.3-.96l.03.03c-.67-.48-.59-1.08-.28-1.65.3-.54.79-.93,1.59-.82v-1.72c-1.07-.24-1.83-.74-1.78-1.79Z"/>
    <g>
      <g class="cls-7">
        <g>
          <g>
            <path class="cls-6" d="M100.55,11.31c.06.03.12.07.19.09.07.02.13.03.21.03h0v1.31s0,0,0,0"/>
            <path class="cls-6" d="M100.46,11.25s0,0,.02,0"/>
            <path class="cls-6" d="M67.93,8.6c0-1.05.02-2.09-.02-3.13,0-.35.08-.43.43-.43,6.63.02,13.25.02,19.88.02,4.11,0,8.2,0,12.31,0,.13,0,.35-.19.41.1"/>
            <path class="cls-6" d="M96.84,12.75s-.06.03-.09.03"/>
            <path class="cls-6" d="M98.94,10.27c0,.14,0,.28.03.41"/>
            <line class="cls-6" x1="100.94" y1="6.47" x2="100.94" y2="6.59"/>
            <path class="cls-6" d="M100.94,5.17v1.31c-.52-.18-.35-.61-.35-.98,0-.24.08-.37.35-.33Z"/>
            <path class="cls-6" d="M98.94,10.24c-.38-.38-.9-.54-1.35-.82-.34-.21-.59-.05-.85.23-.18-.51-.59-.51-.99-.51-.16,0-.35.03-.44-.11-.12-.17.08-.28.15-.4.31-.49.14-1.1.45-1.6.06-.1.07-.26.2-.31.64-.24,1.26-.69,2-.32.1.05.3.08.34.03.39-.44.78-.19,1.1.03.46.34.94.1,1.41.13v4.85"/>
            <path class="cls-6" d="M100.24,11.04c.11.19.2.4.28.61.13.36.21.75.42,1.09"/>
            <path class="cls-6" d="M99.08,10.35s.05-.04.08-.05"/>
            <path class="cls-6" d="M99,10.21c.23-.18-.15-.39.03-.62.71.55,1.12,1.42,1.92,1.85-.08,0-.15,0-.21-.03-.07-.03-.13-.05-.19-.09-.03,0-.04-.03-.07-.05t-.02,0c-.08-.06-.15-.13-.22-.21"/>
            <path class="cls-6" d="M99.68,10.44s0,0,.02.02c.24.14.4.35.55.58-.06-.06-.12-.13-.18-.19-.12-.13-.24-.27-.37-.4"/>
            <path class="cls-6" d="M99.21,11.19l.03.03s.07.07.11.09"/>
            <path class="cls-6" d="M99.15,11.13s0,0,.02.02"/>
            <path class="cls-6" d="M98.05,15.36c.13-.03.27-.05.41-.06.46.06.69-.15.88-.58.4-.9.3-1.79.05-2.69-.06-.23-.14-.44-.21-.67-.02-.1-.05-.19-.08-.29"/>
            <path class="cls-6" d="M99.02,10.27s.06.02.08.02c.15,0,.05-.23.08-.35.18.15.34.33.49.5-.03-.03-.08-.06-.13-.08-.12-.07-.26-.11-.39-.06-.03,0-.06.03-.08.05,0,0-.02,0-.03.02-.03.02-.04.04-.05.07"/>
            <path class="cls-6" d="M99,10.44c-.02.33.14.6.34.87-.04-.03-.08-.06-.11-.09,0,0-.03-.02-.03-.03-.03-.02-.03-.03-.04-.04,0,0-.02,0-.02-.02-.02-.02-.03-.04-.04-.06"/>
            <path class="cls-6" d="M99.02,10.27c-.02.05-.02.11-.02.16h0c-.08.11-.04.24,0,.36.03.09.07.19.1.28-.08-.12-.13-.24-.14-.39-.03-.13-.03-.27-.03-.41v-.03"/>
            <path class="cls-6" d="M99.02,10.27s-.05-.02-.08-.03c.03,0,.04-.02.06-.03,0,.02.02.04.03.07Z"/>
            <line class="cls-6" x1="90.79" y1="9.7" x2="90.79" y2="9.71"/>
            <polyline class="cls-6" points="91.91 9.99 91.9 9.99 91.89 9.99"/>
            <path class="cls-6" d="M91.24,9.76h.02"/>
            <path class="cls-6" d="M90.33,9.75s.03,0,.03,0"/>
            <path class="cls-6" d="M74.22,14.5s.02-.06.04-.08"/>
            <path class="cls-6" d="M85.8,25.28s.02-.05.03-.08"/>
            <path class="cls-6" d="M97.33,14.8c.04.11.1.21.17.29"/>
            <path class="cls-6" d="M97.82,13.88c0,.1,0,.19-.05.26"/>
            <path class="cls-6" d="M97.67,13.06c-.04-.18-.07-.3-.12-.38"/>
            <path class="cls-6" d="M96.45,16.43s.02,0,.03,0"/>
            <path class="cls-6" d="M97.5,12.62c-.08-.06-.2-.02-.4.11"/>
            <path class="cls-6" d="M97.33,14.8s-.05-.08-.07-.13"/>
            <path class="cls-6" d="M97.15,15.9s.03,0,.03,0c-.02,0-.03.02-.04.03"/>
            <line class="cls-6" x1="95.62" y1="17" x2="95.62" y2="16.99"/>
            <path class="cls-6" d="M67.93,8.95v-.35c.38.58,1.09.6,1.64.88.11.05.2-.07.29-.17.48-.52.5-.52.91.11.46-.06.77.2.97.56.41.77,1.07.95,1.86.88.66-.05,1.29,0,1.61.74.11.27,1.15.39,1.42.23.25-.14.46-.37.76-.43.62-.39,1.22-.48,1.92-.06.34.21.85.15,1.31.2.11.02.26-.05.28-.16.03-.14-.13-.16-.23-.21-.07-.06-.14-.13-.21-.2-.18-.21-.12-.43.02-.63.16-.21.37-.05.51.03.41.23.97-.06,1.31.34.26.24.35.72.87.58.23-.07.47-.12.7-.12.21,0,.43.04.64.12.89.46,1.81.72,2.83.51.36-.02.48-.63.96-.4.35-.02.65.13.96.26.48.23.74.03.7-.5-.01-.14-.03-.3.02-.4.14-.34,0-.46-.3-.54-.12-.03-.41-.08-.17-.34.69-.74,2.87-.28,3.27.7.41.11.66.44.96.7.52.36,1.04.66,1.69.72.37.03.52.51.88.66.16.07.3.14.44.12h.01s.06-.03.09-.05c.01,0,.03,0,.03-.01.05-.04.08-.08.13-.15.12-.16.34-.35.54-.16.17.16.46.35.24.68.06.2.18.41.16.61-.03.24.5.98-.43.58-.11-.05-.21.07-.23.21.05.05.12.1.15.16.14.31.34.56.62.67.12.06.27.09.43.09.27-.05.64.24.8-.2.23-.59.51-1.16.47-1.84-.04-.72-.17-1.42-.42-2.09-.06-.15-.11-.29-.16-.44-.04-.14-.22-.3-.06-.42.16-.13.34.02.47.11.45.35.72.83.85,1.37.07.34.18.64.49.81v17.08"/>
            <line class="cls-6" x1="67.93" y1="29.73" x2="67.93" y2="25.62"/>
            <line class="cls-6" x1="67.93" y1="23.27" x2="67.93" y2="23.15"/>
            <line class="cls-6" x1="67.93" y1="19.48" x2="67.93" y2="19.37"/>
            <line class="cls-6" x1="67.93" y1="18.18" x2="67.93" y2="17.95"/>
            <line class="cls-6" x1="67.93" y1="15.57" x2="67.93" y2="15.45"/>
            <path class="cls-6" d="M71.97,10.56c-.1-.15-.22-.29-.34-.42"/>
            <path class="cls-6" d="M100.67,22.06c-.17.05-.24-.09-.35-.2-.6-.61-.28-1.04.26-1.46-.27.47.1.85.18,1.28.02.14.15.32-.09.38Z"/>
            <path class="cls-6" d="M78.61,13.2s0-.01-.01-.01"/>
            <path class="cls-6" d="M91.01,13.03c.05.03.11.07.18.11"/>
            <path class="cls-6" d="M79.15,11.45c-.11-.06-.22-.11-.34-.13"/>
            <line class="cls-6" x1="71.51" y1="16.79" x2="71.51" y2="16.78"/>
            <path class="cls-6" d="M88.81,29.68s.07-.02.09,0"/>
            <path class="cls-6" d="M86.36,28.74c.08-.04.16-.08.23-.09"/>
            <path class="cls-6" d="M93.98,16.65c.33,0,.48.16.47.51-.01.17-.11.43.12.5.21.06.3-.21.46-.3l.33-.03c.2-.02.09-.28.25-.33h.01s-.01-.01-.01-.01c.01-.17.11-.3.21-.42.11-.12.23-.24.27-.4.02-.05.16-.11.18-.1.43.39.53-.12.75-.27,0-.02-.01-.03,0-.04-.01-.03-.01-.05-.01-.07.11-.25.36-.23.57-.25,0-.13-.05-.24-.11-.34-.05-.11-.11-.19-.16-.29-.03-.04-.04-.09-.06-.14h-.01c-.36-.3-.21-.53.18-.49.16.02.27.01.33-.02.09-.05.09-.14.05-.26.01-.01,0-.02,0-.03-.02-.05-.03-.1-.05-.15-.07-.19-.2-.38-.11-.6,0-.01.01-.02.01-.04.03-.15-.02-.28-.12-.37,0-.01-.01-.02-.01-.03-.02-.02-.03-.02-.05-.04-.02-.03-.05-.04-.09-.06-.12-.08-.21.06-.3.17h0s-.05.06-.05.06c-.47.46-.88.1-1.17-.2-.32-.31-.65-.47-1.06-.52-.41-.05-.68-.23-.92-.5-.07-.06-.14-.11-.22-.15-.32-.26-.63-.54-.99-.78-.14-.17-.31-.32-.47-.44-.02-.01-.03-.02-.04-.02-.05-.03-.11-.07-.17-.1"/>
            <path class="cls-6" d="M91.58,9.85c-.06-.02-.13-.04-.19-.06t-.02-.01s-.07-.01-.11-.02t-.02,0"/>
            <path class="cls-6" d="M90.85,9.71s.04,0,.06.01c.04-.01.08,0,.12,0"/>
            <path class="cls-6" d="M90.58,9.72h-.09s-.09.01-.13.02c-.01-.01-.02-.01-.03.01-.03,0-.08.01-.11.02-.03,0-.07.01-.1.02-.06.03-.11.03-.17.06h-.01s-.06.06-.09.11c-.04.15.13.17.22.23.18.1.21.25.15.44-.04.17-.11.39-.03.51.37.7-.2.65-.56.76-.18.05-.45-.06-.4.26.04.25.14.45.45.45.42,0,.88-.14,1.24.21.09.04.18.06.27.11.16.08.42.17.37.37-.05.25-.32.1-.49.15-.2.04-.41.07-.61.11-.42.48-.92.82-1.59.82-.14.01-.36-.08-.41.11-.07.24.18.26.33.34.05.02.09.05.15.09-.42.63-.93,1.06-1.74,1.01-.21-.01-.47-.01-.66.14-.08.23-.24.27-.46.23-.38-.08-.78-.09-1.14-.24-.49-.21-1.01-.24-1.51-.37-.39.01-.78-.02-1.17.06-.46.1-.65-.36-.96-.58-.48-.43-1.01-.61-1.68-.67-.67-.05-1.08-.54-1.08-1.27-.15-.1-.33-.13-.51-.18-.18-.04-.34-.12-.44-.32-.4-.06-.6-.42-.91-.61-.3,0-.52.08-.61.28,0,.01-.01.01-.01.03-.04.09-.04.2-.03.35.04.34-.15.47-.45.43-.02-.01-.03-.01-.05-.01"/>
            <path class="cls-6" d="M75.19,13.26c-.17.11-.19.33-.15.6s.11.44-.31.43c-.06,0-.11,0-.16.01h-.09s-.05.01-.07.02c-.01.01-.03.02-.05.02-.03.01-.05.03-.07.05-.01,0-.02.01-.02.01-.02.03-.04.06-.04.09-.01.05,0,.1.02.16h0s.01.04.02.06"/>
            <path class="cls-6" d="M74.32,14.84s.01,0,.01.01c.02.02.04.05.06.08.2.28.27.54.3.88.03.35-.04.47-.37.47-.23,0-.41.13-.6.23-.16.15-.42.16-.51.42-.07.18-.25.31-.48.22-.27-.11-.43,0-.55.18h0l-.09.15c.02.11-.02.27.12.3.45.08.54.42.74.77.11.17.26.32.43.45.24.19.51.36.76.54.01,0,.01.01.01.01,0,.01.01.01.01.01.06.04.21.01.27-.04.4-.32.77-.15,1.03.14.15.16.27.35.27.54,0,.15-.09.3-.34.43h0s.01.01.01.01c.32.17.42.58.3.77-.27.37.04.52.16.75"/>
            <path class="cls-6" d="M75.86,22.2c.07-.01.15-.02.22-.02.21,0,.41.06.52.31.02.03.06.08.09.08,1.1-.08,1.66.97,2.63,1.21.59.13,1.16.13,1.74.09.36-.1.7.11,1.06.09.08,0,.16.01.24.01.14-.13.29-.26.43-.39.6-.6,1.29-.56,1.86.1.08.09.17.06.26.06.73.06,1.14.73.91,1.46-.01.03-.01.05-.03.08-.07.16-.2.32-.2.48-.01.18-.2.44.25.53.36.08.49.57.64.89.13.33.38.44.63.53.27.1.3-.23.43-.38.23-.27.44-.6.92-.43.14.04.34-.04.5-.11.58-.21.92-.09,1.22.5.1.19.32.22.43.38"/>
            <path class="cls-6" d="M90.66,27.72c.39.11.94-.2,1.13.42.77-.67,1.7-.97,2.62-1.24.42-.12.75-.16.97-.67.16-.4.47-.72.59-1.2.05-.2.04-.62.27-.73.5-.24.09-.61.21-.91.26-.55-.34-.48-.58-.7.48-.31.27-.76.07-.96-.46-.42-.75-1.03-1.32-1.33-.31-.16-.35-.39-.32-.68.27-.32.35-.86,1.07-.84-.22-.14-.29-.18-.38-.23-.47-.27-.84.09-1.25.23h-.01c-.12-.59-.79-.44-1.08-.8v-.02c.04-.15-.05-.48.15-.42.08.02.15.03.21.03.41,0,.36-.5.61-.69.11-.11.23-.21.34-.32"/>
            <path class="cls-6" d="M98.9,20c-.26.21-.7.26-1.07.2-.36-.07-.06-.31-.06-.47-.04-.09-.08-.18-.12-.27-.26-.31-.11-.68-.16-1.04-.72.18-.99.05-1.16-.7-.09-.35-.45-.25-.61-.46.05-.03.09-.07.13-.1.25-.18.48-.37.53-.71.02,0,.04,0,.07-.01v-.02s.01.01.02.01c.49.24.4-.29.57-.47.03-.01.06-.02.09-.02,0-.01,0-.02.01-.03.06-.32.27-.24.46-.2.04.01.09.02.13.01-.11.27-.27.5-.13.83.06.14.04.37-.21.45h-.01c-.31.23-.27.41-.02.71.44.51,1.09.82,1.44,1.43.14.28.32.66.09.86Z"/>
            <path class="cls-6" d="M97.01,27.25c-.68-.47-.07-.8.04-1.18-.07.37.17.74-.04,1.18Z"/>
            <path class="cls-6" d="M94,16.61s-.02.02-.02.04h-.01s.02-.03.03-.04Z"/>
            <path class="cls-6" d="M92.28,28.99c-.09.27-.16.63-.57.64-.28.01-.44-.13-.43-.42,0-.45.35-.43.74-.48.1,0,.33.04.26.26Z"/>
            <path class="cls-6" d="M90.85,9.71h-.06c-.07,0-.13,0-.21.01.07-.01.14-.02.21-.02.02,0,.04,0,.06.01Z"/>
            <path class="cls-6" d="M91.24,9.76s-.05-.02-.08-.02c-.02-.01-.04-.01-.06-.01h-.01s-.03-.01-.05-.01h.05"/>
            <path class="cls-6" d="M91.78,9.93s.08.04.12.06h-.01s-.02-.01-.03-.01c-.03-.02-.05-.03-.08-.05Z"/>
            <path class="cls-6" d="M91.94,10.01s-.02-.01-.04-.02h.01s.02.01.03.02Z"/>
            <path class="cls-6" d="M90.66,27.72c-.05,0-.08,0-.1-.01.01-.01.04-.02.06-.03.01.02.03.03.04.04Z"/>
            <path class="cls-6" d="M90.53,27.87s-.07-.05-.11-.08"/>
            <path class="cls-6" d="M89.3,29.79c-.03-.06-.06-.13-.08-.19.27-.04.41.05.51.19"/>
            <path class="cls-6" d="M90.53,27.87c-.05-.02-.1-.03-.15-.05l.02-.02s.01-.01.02-.01c-.24-.22-.43-.47-.59-.77-.01,0-.01-.01-.02-.01-.08-.04-.54-.04-.97-.01"/>
            <path class="cls-6" d="M87.73,27.38c-.03.38-.21.65-.53.8"/>
            <path class="cls-6" d="M87.1,28.23h-.01c-.02.05-.03.09-.04.12-.02.13.08.2.22.28.34.19.54.45.37.87-.01.06,0,.13.02.21"/>
            <path class="cls-6" d="M87.84,29.78h.01c.13-.07.23-.16.41-.11.33.09,1.03-.53.89-.78-.12-.21,0-.69-.45-.62-.36.06-.47-.1-.56-.41-.07-.17-.13-.39-.39-.49"/>
            <path class="cls-6" d="M88.37,27.04s.05,0,.08.01c.13.01.27-.01.39-.05-.17.01-.34.02-.47.04h-.07c-.06.01-.11.02-.14.03-.04.01-.06.01-.07.02h-.01s-.07.09-.07.14c-.02.18.54.84.72.85.32.03.78.74.58.99-.2.25-.14.29.12.35.14.04.28.11.41.18.03,0,.04.02.08.03-.08-.68-.01-1.32.6-1.76"/>
            <path class="cls-6" d="M88.58,14.97c.05.07.04.12,0,.18"/>
            <path class="cls-6" d="M88.43,11.55s-.06-.01-.09-.01c-.02,0-.04-.01-.05-.01"/>
            <polyline class="cls-6" points="88.29 11.54 88.29 11.53 88.26 11.53"/>
            <path class="cls-6" d="M88.26,11.53s.02,0,.03,0"/>
            <path class="cls-6" d="M87.73,29.78h-.04s-.01-.05-.02-.07c.02.02.04.05.06.07Z"/>
            <path class="cls-6" d="M87.75,27.36s-.01.01-.02.02v-.03s.02.01.02.01Z"/>
            <path class="cls-6" d="M87.13,15.81s.06,0,.09.01c.05,0,.11,0,.16-.01.01.01.03,0,.05-.01"/>
            <path class="cls-6" d="M85.9,29.14s.03-.07.05-.09c.12-.1.26-.22.41-.3.09-.03.16-.06.23-.1.11-.02.22-.02.32.01.33.11.71.29.56.83-.03.1-.04.2-.04.29"/>
            <path class="cls-6" d="M89.03,29.79c-.03-.05-.07-.09-.12-.11h-.1s-.02.03-.03.05c-.02.02-.03.04-.05.06"/>
            <path class="cls-6" d="M86.03,29.73s.01.01.01.01c.01.02.03.03.04.04"/>
            <path class="cls-6" d="M87.16,28.24s.02-.03.03-.05c-.03.02-.06.04-.09.04h0"/>
            <path class="cls-6" d="M87.16,28.24s-.02.03-.03.03c0,0-.02-.03-.03-.03h.06Z"/>
            <path class="cls-6" d="M86.45,15.98h.01s-.01.02-.01.02"/>
            <path class="cls-6" d="M86.44,16c-.08.11-.18.14-.29.15"/>
            <path class="cls-6" d="M86.03,29.74c-.12-.15-.19-.43-.13-.6,0,.09,0,.19.03.3.03.11.06.21.1.3Z"/>
            <path class="cls-6" d="M84.33,29.77c-.17-.62-.59-1.12-1.12-1.55,0-.06-.01-.13-.01-.19-.01-.61.12-1.16.58-1.66.24-.25.48-.75.33-1.21-.17-.47.09-.55.43-.58.2-.01.38.03.46-.23.04-.13.01-.35.22-.36"/>
            <path class="cls-6" d="M85.5,24.18c.03.07.05.14.09.21.05.09.1.18.13.29.05.15.06.3-.02.47,0,.01-.01.01-.01.01-.08.14-.19.25-.22.39-.02.07-.03.15-.05.23,0,.02-.01.03-.01.05,0,.01,0,.02-.01.02v.11c-.04.25-.01.47.15.5.18.03.3.09.39.18.03.04.07.09.1.14.08.12.12.28.19.41.16.37.38.6.76.67.33.07.01.25.09.34-.43.11-.73.49-1.22.52-.18,0-.21.23-.16.43.05.21.1.41.18.6"/>
            <path class="cls-6" d="M85.5,24.18c-.07-.08-.16-.14-.27-.19.15-.01.22.08.27.19Z"/>
            <path class="cls-6" d="M83.84,25.87c-.07.11-.14.21-.2.3-.17.26-.31.53-.49.85-.19-.24-.35-.55-.74-.21-.01-.38.05-.59.33-.71.13-.06.22-.17.16-.33-.04-.11-.18-.14-.3-.14-.23,0-.47.01-.7.01-.23.01-.39-.08-.44-.3-.05-.24.13-.27.31-.34.17-.06.38-.1.51-.26l.02-.02s.01-.01.01-.01c.14-.13-.09-.34.07-.49.45-.48.95-.84,1.67-.78h.15"/>
            <path class="cls-6" d="M84.4,23.58s.01.07-.01.14c-.03.18.03.25.21.25.16,0,.28.03.23.23,0,.02,0,.04-.01.06-.04.11-.13.15-.27.17-.03,0-.08.01-.11.02h-.01c-.41.06-.79.12-.48.79,0,0,0,.01.01.01"/>
            <path class="cls-6" d="M83.49,15.6h.05c.81-.02,1.52.42,2.3.52.09.01.18.03.25.03.02,0,.03,0,.05-.01.09-.02.19-.07.29-.15h.01v-.02s.03-.04.05-.07c.18-.18.41-.13.62-.1h.01c.1-.01.2-.01.3-.01h.05s.05-.01.06-.01h.01s.01,0,.02-.01c.05,0,.1-.01.14-.02.02,0,.03-.01.05-.01.01,0,.01-.01.02-.01.22-.07.42-.2.59-.38.06-.05.15-.12.2-.19h0c.02-.06.02-.12,0-.19-.04-.04-.1-.08-.19-.11-.16-.08-.16-.28-.13-.42.03-.16.2-.18.33-.17.03,0,.05.01.07.01h.04c.1,0,.2-.01.29-.02.05-.01.09-.02.13-.03.03,0,.05-.01.08-.02.01,0,.04,0,.05-.01.01,0,.01-.01.02-.01.36-.14.67-.39,1.01-.61h.02s.01-.03.02-.04.02-.01.03-.02c.15-.13.31-.16.5-.18.18-.01.38-.01.59-.03-.1-.06-.19-.11-.26-.16-.07-.04-.13-.08-.18-.11-.07-.04-.13-.08-.18-.11-.02-.02-.05-.03-.08-.06-.28-.09-.59-.14-.88-.08-.01,0-.02,0-.03.01-.51.11-.77-.22-.77-.56s-.11-.49-.27-.57c-.05-.02-.1-.04-.15-.05-.02,0-.04-.01-.06-.02-.02,0-.03-.01-.04-.01-.04,0-.07-.01-.1-.02-.03,0-.06-.01-.09-.01h-.06s-.01,0-.01.01t-.01-.02h-.04c-.31,0-.47.37-.78.37-.01.01-.03.01-.05.01,0,.01-.02.01-.04.02-.01,0-.02.01-.04.01-.3.08-.6.12-.89.11h-.02c-.62.01-1.22-.2-1.78-.56h-.04l-.07-.07h-.08c-.31-.01-.64-.07-.92.02-.68.22-1.02-.11-1.31-.57,0,0,0-.01-.01-.01,0-.01-.01-.01-.01-.02"/>
            <path class="cls-6" d="M80.51,10.92c-.01-.12,0-.22.02-.3,0-.01,0-.03.01-.05h0s.01-.02.02-.03v-.02h.01c.09-.08.22-.08.46.03h.01c.3.14.65.22,1,.19.03,0,.05,0,.08-.01.02.04.04.06.06.09"/>
            <path class="cls-6" d="M80.51,10.93h0c.05.04.12.06.2.08h0c.19.05.39.1.37.38-.01.21-.23.4-.42.36-.45-.1-1,0-1.35-.21-.06-.03-.11-.06-.16-.09-.11-.03-.22-.07-.34-.13-.4-.11-.79-.04-1.19.11,0,.01-.01.01-.01.01"/>
            <path class="cls-6" d="M77.19,11.65c-.12.09-.26.17-.38.26"/>
            <path class="cls-6" d="M76.87,12.02c.2.28.51.42.77.63h0s.01.01.02.02l.08.08"/>
            <path class="cls-6" d="M78.04,12.9c.21.05.44.05.55.29h.01s0,.01.01.01h0s.01.01.01.01c.05.13.16.26.17.39.01.08.02.14.04.2.1.33.36.46.62.52.13.03.26.04.38.05.24.01.45.04.66.12.05.01.1.03.15.06.24.1.44.25.63.46"/>
            <path class="cls-6" d="M81.35,15.09c.08.08.17.15.25.21.3.21.63.31,1.02.29.09,0,.18-.01.28-.03.16-.03.32.02.48.03"/>
            <path class="cls-6" d="M84.4,23.58c-.07-.06-.14-.1-.21-.15.11.02.19.04.21.15Z"/>
            <path class="cls-6" d="M83.84,25.87c.07-.2.11-.39.12-.61.08.19-.01.41-.12.61Z"/>
            <path class="cls-6" d="M83.4,15.59s.02,0,.02.01h.07s-.05-.01-.07-.01t-.02-.01"/>
            <path class="cls-6" d="M83.4,15.58h0s-.01.01-.02.01h0s.01-.01.02-.01Z"/>
            <path class="cls-6" d="M82.96,27.59c-.02.05-.06.09-.11.14-.02-.32-.24-.51-.48-.68.01-.02.03-.04.06-.06.11-.12.25-.22.39-.06.17.2.28.43.14.66Z"/>
            <path class="cls-6" d="M82.18,10.82v.02s-.01-.01-.01-.01h0s.01-.01.01-.01Z"/>
            <path class="cls-6" d="M82.16,26.29c-.04.35-.19.68-.18,1.05,0,.05.01.11.02.17-.2.02-.39-.05-.56-.13,0-.01,0-.03.01-.04.09-.37-.1-.69-.22-1.02-.11-.26-.19-.47-.03-.72.17.27.42.4.74.4.22,0,.24.08.22.29Z"/>
            <path class="cls-6" d="M81.32,15.05s.02.02.03.04v-.02"/>
            <path class="cls-6" d="M81.35,15.07s-.03,0-.03-.02-.02-.03-.03-.03c.03.02.04.03.07.05Z"/>
            <path class="cls-6" d="M72.22,28.09c.28.2.5.18.54-.18.04-.25.17-.39.34-.52.16-.12.32-.05.26.11-.2.5.21.91.19,1.4-.01.26-.04.56,0,.85"/>
            <path class="cls-6" d="M75.38,20.67s.01.04.01.07c0,0,0,.01.01.01.04.22.22.44.08.64-.3.42-.12.58.17.71.06.03.13.06.2.09h.01c.05.07.11.11.18.13.05.02.1.04.15.05.05.03.11.06.16.09.04.03.08.07.1.12.04.1.14.16.15.25h0v.03s-.01.05-.03.08c-.55.68-.16.88.46,1.03.09.02.18.08.26.13.75.48,1.63.64,2.42.99.4.16.6.15.68-.04.06-.12.08-.28.08-.53-.01-.11-.09-.26.06-.35.32.04.22.52.56.53-.04-.08-.08-.18-.09-.27-.04-.17.01-.34.24-.38.37-.09.8-.04.89.47,0,.02,0,.03.01.04h0c-.25.31-.55.28-.86.22-.05-.01-.09-.02-.14-.04h-.01c-.06.13.29.45-.04.36-.3-.09-.4-.07-.42.01-.03.09.04.26.03.43-.04.7.22,1.29.64,1.82l.03.03h0v.06c0,.3-.26.19-.41.17-.37-.04-.65.17-.71.46-.08.43-.33.59-.69.7-.07.02-.14.06-.2.1-.09.08-.16.18-.18.31-.05.21-.13.39-.26.55"/>
            <path class="cls-6" d="M73.11,20.95s.01,0,.02.01c.19.04.21.1.27.27.25.71.12,1.34-.31,1.9"/>
            <path class="cls-6" d="M71.67,24.38c.08-.05.21-.07.32-.07.62-.06.84-.43.97-.93"/>
            <path class="cls-6" d="M71.6,24.56c.03.06.1.16.24.27.21.2.36.69.46,1.09.07.28-.12.34-.34.3-.38-.08-.67.06-.88.33-.03.04-.06.09-.09.14.39.26.87.22,1.34.34-.68.53-.71.55-.16,1.01"/>
            <path class="cls-6" d="M80.5,10.92h0s0,0,0,0h0Z"/>
            <path class="cls-6" d="M78.04,12.9c-.1-.04-.19-.08-.29-.14-.01,0-.01-.01-.01-.01"/>
            <path class="cls-6" d="M78.04,12.9c-.11-.02-.21-.05-.29-.14-.01,0-.01-.01-.01-.01"/>
            <path class="cls-6" d="M77.43,11.54s.01-.01.02-.01c.05-.04.1-.07.16-.09-.06.01-.12.05-.18.06"/>
            <path class="cls-6" d="M77.43,11.54v.02s-.02,0-.03,0"/>
            <path class="cls-6" d="M77.41,11.54h.02v-.04s-.03.02-.05.03"/>
            <path class="cls-6" d="M77.41,11.54c-.08.05-.14.08-.22.11.06-.04.13-.08.19-.12.01.01.02.01.03.01Z"/>
            <path class="cls-6" d="M76.93,11.97h0s-.04.04-.06.04c-.02-.03-.04-.06-.06-.1.05.02.09.05.12.06Z"/>
            <path class="cls-6" d="M76.55,23.55c-.05-.04-.06-.09-.02-.17.04-.09.12-.21.25-.4.07-.12.14-.18.2-.22.1-.07.19-.06.28,0,.07.04.15.1.23.18.68.65,1.55,1.02,2.43,1.15.51.07.33.37.36.55v.04c.07.17,0,.23-.1.25-.1.01-.21.01-.31.01-.1-.01-.25,0-.36-.07-.7-.5-1.65-.47-2.34-1.03-.04-.03-.1-.05-.15-.08-.25-.08-.4-.14-.47-.21-.01-.03-.02-.06-.02-.11v-.06"/>
            <path class="cls-6" d="M75.78,12.7c-.08.2-.02.43-.32.38-.63-.12-.62.31-.63.72,0,.15.07.28-.17.33-.8.19-.85.25-.4.89.44.64.01.53-.37.52-.76-.35-1.58-.02-2.36-.15-.21-.04-.6.09-.93.04-.19-.03-.34-.02-.44.25-.15.38-.31.82-.85.85-.63.02-1.04-.2-1.03-.89.01-.24-.19-.2-.34-.2v-6.51c.28.16.55.41.85.45.36.05.75.54,1.06.16.23-.29.41-.37.62-.31.08.06.16.13.25.22.05.04.1.06.15.08.06.01.12.02.18.05.22.15.41.33.58.53.1.16.22.31.34.42.02.02.04.04.04.05.19.26.45.52.78.45.13-.03.24-.03.36-.03.28,0,.57.08.85.05h.29s.05,0,.07.01c.03,0,.07.01.1.03.02,0,.04.01.06.01.01,0,.02.01.03.01,0,0,0,.01.01.01,0,0,.01.01.02.01t.01.01s.02.01.03.01c.02.02.03.03.05.04.01.01.02.01.03.02.02.01.04.04.06.05.01.01.03.03.04.05.06.06.11.15.15.26.07.17.22.4.4.39.11-.01.2-.01.29,0,.05.02.11.04.17.05h0c.16.1.1.32-.05.65Z"/>
            <path class="cls-6" d="M75.53,13.22c-.08.03-.18.04-.29.04h-.05c.08-.04.19-.05.34-.04Z"/>
            <line class="cls-6" x1="73.63" y1="15.62" x2="73.62" y2="15.62"/>
            <path class="cls-6" d="M73.58,15.59s-.03,0-.06-.01c-.12-.01-.26-.01-.39,0h-.1c-.76.03-1.54.19-2.31.05h-.01l-.12-.03c-.17-.05-.21.07-.23.19-.01.07-.01.13-.02.18-.04.14-.02.41.23.37.41-.08.59.25.95.43h.01s-.01.01-.01.01c-.43.16-.81.23-1.12.47.74.52,1.14.51,1.58-.01,0-.02.01-.03.01-.05.01-.03.01-.06.03-.06.54-.19,1.08-.39,1.57-.71,0-.01.02-.01.03-.02.17-.15.36-.27.61-.27h.01c.13,0,.3-.04.28-.21,0-.03-.01-.05-.02-.07-.05-.1-.17-.12-.29-.12-.16,0-.31-.01-.45-.07h.03s-.06-.02-.1-.03"/>
            <path class="cls-6" d="M73.68,15.64s0,0,0,0h0s0,0,0,0Z"/>
            <line class="cls-6" x1="73.59" y1="15.61" x2="73.62" y2="15.61"/>
            <path class="cls-6" d="M73.68,15.64s-.03,0-.04-.01c-.01,0-.01-.01-.01-.01h.01s.02.02.04.02Z"/>
            <path class="cls-6" d="M73.62,15.61h-.03s0-.02-.01-.02c.01.01.03.01.04.02Z"/>
            <path class="cls-6" d="M73.41,20.34h.04c.48.01.86-.17,1.15-.6.19-.29.45-.11.61.01.15.11.41.3.16.56-.12.13-.21.24.01.35h0"/>
            <path class="cls-6" d="M72.98,20.5c-.02-.19.18-.18.31-.16h.11c-.23.02-.36.07-.42.16h0"/>
            <path class="cls-6" d="M73.01,23.32s0-.04.01-.05c.03-.04.05-.09.07-.13-.03.04-.06.08-.1.13"/>
            <path class="cls-6" d="M73.11,20.95c-.09-.03-.11-.13-.11-.24.01.07.06.15.11.24Z"/>
            <path class="cls-6" d="M73.01,23.32s-.04.05-.05.07c.01-.02.01-.05.02-.07h.03Z"/>
            <path class="cls-6" d="M72.99,20.71c-.04-.08-.04-.15-.01-.2.01.06,0,.14.01.2Z"/>
            <path class="cls-6" d="M72.98,23.27s-.01.03-.01.05c0,0-.01,0-.01-.01.01-.02.01-.04.02-.04Z"/>
            <path class="cls-6" d="M72.73,18.63c-.04.28-.3.26-.52.27q-.78.06-1.11-.98c-.35.44-.85.6-1.39.93-.05.03-.1.05-.16.09.02-.04.03-.07.05-.1.21-.67.16-.86-.3-1.33.14-.16.3-.26.48-.33.19-.06.13-.4.4-.36-.11.53.26.95.92,1h.11c.39.01.77.05,1.14.21.29.13.4.34.38.6Z"/>
            <path class="cls-6" d="M72.22,28.09s-.04-.03-.06-.05h.03s.03.03.03.05Z"/>
            <path class="cls-6" d="M71.67,24.38c-.04.06-.06.12-.07.18-.02-.09,0-.15.07-.18Z"/>
            <path class="cls-6" d="M68.5,23.12h.01c.15-.03.31-.05.46-.08.21-.03.32-.13.43-.31.23-.35.37-.84.98-.79.18.02.15-.19.15-.32,0-.39.45-.64.33-1.08.21-.02.31-.09.38-.21h0c.07-.12.09-.28.09-.44l-.04-.04c-.22-.24.08-.55-.12-.86-.27-.44-.41-.55-.87-.23-.3.2-.54.52-1.01.09-.26-.25-.76.06-1.02.39-.11.14-.18.26-.35.25v3.67c.06.01.12.01.18,0"/>
            <path class="cls-6" d="M67.93,24.92v.7c.09,0,.19.02.28,0,.94-.22,1.85-.33,2.44.67.05.08.15.12.22.18.03-.03.04-.06.07-.08.29-.37.7-.47,1.22-.32-.03-.2-.1-.4-.19-.58-.02-.03-.04-.07-.06-.11-.09-.18-.2-.32-.28-.39-.56-.45-.05-.62.08-.88.08-.02.15-.02.24-.02.18,0,.37.02.5-.13.03-.02.06-.05.08-.1.21-.15.17-.42.31-.59.41-.57.54-1.2.34-1.87-.08-.26-.34-.41-.38-.73-.04-.34.02-.49.37-.47.38.02.76.03,1.05-.29-.26-.16-.54-.28-.64-.63-.01-.05-.11-.1-.17-.14-.59-.32-1.7-.02-2.04.57.23.28.1.56-.02.82-.2.47-.58.87-.61,1.42-.02.15-.18.25-.31.21-.39-.12-.58.17-.66.41-.26.7-.82.71-1.43.72-.13,0-.27-.01-.4-.01v.71"/>
            <path class="cls-6" d="M71.06,16.71c-.23.1-.38.29-.61.19-.04-.01-.06-.21,0-.26.17-.21.37-.13.61.07Z"/>
            <path class="cls-6" d="M69.63,16.98h0s-.04.03-.06.04"/>
            <path class="cls-6" d="M69.24,17.26c-.18.19-.41.39.03.54.28.1.24.36.28.58.01.11-.1.19-.23.22-.06.02-.12.02-.17.01-.12-.02-.22-.09-.32-.23-.21-.31-.61-.28-.9-.44v-2.37c.22.69.58,1.22,1.4,1.24.05,0,.1.11.15.17.34-.14.28-.61.76-.82-.18.61-.54.9-1,1.11Z"/>
            <path class="cls-6" d="M68.5,23.12c-.13.01-.25.03-.39.03.13-.04.26-.03.39-.03Z"/>
            <path class="cls-6" d="M67.93,24.92v-.94c.19.18.19.45.36.67.17.23-.17.26-.36.27Z"/>
            <path class="cls-6" d="M68.72,18.63c-.01.16-.15.16-.27.16-.39,0-.29.44-.52.57v-1.19c.18.05.38.09.56.14.14.05.23.17.23.31Z"/>
          </g>
          <polyline class="cls-6" points="97.31 29.81 89.73 29.79 89.3 29.79 89.03 29.79 88.73 29.79 87.85 29.78 87.84 29.78 87.74 29.78 87.73 29.78 87.69 29.78 87.44 29.78 86.08 29.78 85.9 29.78 84.33 29.77"/>
          <line class="cls-6" x1="78.93" y1="29.76" x2="73.56" y2="29.75"/>
        </g>
      </g>
      <rect class="cls-4" x="67.59" y="5.01" width="33.44" height="35.07" rx="5.9" ry="5.9"/>
    </g>
    <rect class="cls-4" x="67.76" y="29.43" width="33.12" height="10.88" rx="5.44" ry="5.44"/>
    <text class="cls-9" transform="translate(71.83 37.6)"><tspan class="cls-8" x="0" y="0">P</tspan><tspan x="4.22" y="0">AM</tspan><tspan class="cls-8" x="15.47" y="0">P</tspan><tspan x="19.69" y="0">A</tspan></text>
    <g>
      <path class="cls-1" d="M84.22,10.38c-.38-.03-.73-.15-1.03-.39-.47-.38-.69-.87-.68-1.47,0-.2.04-.39.11-.58.15-.37.38-.68.72-.88.58-.35,1.18-.37,1.79-.07.06.03.09.08.15.11.13.05.2.16.3.24.04.03.05.1.08.11.07.04.09.11.13.16.12.15.18.32.23.5.26.94-.29,1.92-1.22,2.19-.01,0-.03,0-.04.01-.12.03-.25.07-.38.06-.06,0-.12,0-.18,0Z"/>
      <path class="cls-3" d="M84.22,10.38c.06,0,.12,0,.18,0,.13.01.26-.03.38-.06-.02.15-.02.31-.03.47-.02.3-.01.6-.04.89-.01.18,0,.36-.03.54-.01.07,0,.15,0,.22,0,.23-.01.46-.03.69-.01.23-.02.46-.03.68,0,.08,0,.16,0,.24,0,.02,0,.04.02.06.06.07.03.17-.04.21-.17.1-.35.09-.53.04-.05-.02-.13-.04-.14-.13,0-.03,0-.06.02-.08.04-.03.04.01.05.03,0,0,.02.01.02,0,.01-.02.01-.04,0-.05-.05-.08-.03-.17-.03-.25,0-.1.02-.2.02-.3-.03-.98,0-1.95-.01-2.93,0-.08,0-.15.03-.23,0-.03.02-.05.06-.04.04.01.08.02.11,0Z"/>
    </g>
    <g>
      <path class="cls-2" d="M10.53,32.49c3.45.52,5.63-1.51,7.88-3.55,2.83-2.57,7.71-2.59,10.76.55,1.38,1.42,2.89,2.58,4.93,3,1.94.4,3.54-.28,5.02-1.3,1.08-.74,1.99-1.74,2.98-2.61,2.67-2.35,8.13-1.75,10.19.96,2.8,3.67,7.51,3.94,11.01.87,1.55-1.35,2.97-2.9,5.17-3.18.46-.06.93,0,1.67,0-.34.45-.41.64-.51.66-2.67.32-4.46,2.09-6.3,3.79-2.67,2.47-7.91,2.31-9.89-.19-.76-.96-1.99-1.55-2.98-2.35-2.46-1.98-6.63-1.2-8.36.66-.37.39-.83.7-1.19,1.1-2.99,3.33-8.6,3.44-11.98-.25-1.36-1.48-2.99-2.48-5.09-2.63-2.36-.16-4.16.9-5.74,2.46-1.69,1.66-3.57,2.93-6.03,2.98-.54.01-1.08-.2-1.62-.31.02-.22.05-.44.07-.67Z"/>
      <path class="cls-2" d="M32.17,25.67c-1.1-.81-2.3-1.52-3.28-2.46-1.98-1.88-4.22-3.04-6.92-2.27-1.38.4-2.69,1.33-3.81,2.28-1.72,1.45-3.42,2.76-5.78,2.88-2.1.11-3.99-.37-5.59-1.78-1.83-1.62-3.52-3.47-6.18-3.71-.1,0-.18-.21-.61-.75,1.13.11,1.99-.02,2.59.31,1.36.74,2.65,1.64,3.86,2.61,1.43,1.15,2.83,2.16,4.75,2.44,2.69.39,4.47-1,6.18-2.67,3.74-3.67,7.98-3.76,11.89-.26.9.81,1.9,1.51,2.83,2.29.19.16.28.46.41.7-.11.13-.23.26-.34.39Z"/>
      <path class="cls-2" d="M31.03,17.16c-.59-.26-1.22-.46-1.75-.8-1.55-.98-2.96-2.54-4.63-2.89-1.51-.32-3.34.51-4.92,1.12-.9.35-1.6,1.26-2.36,1.95-3.29,3-7.51,3.15-10.9.24-1.75-1.5-3.31-3.23-5.79-3.48-.09,0-.16-.22-.41-.61.7,0,1.22-.09,1.71.02,2.06.45,3.51,1.84,5.01,3.21,2.97,2.71,6.3,2.74,9.4.19.45-.37.92-.74,1.35-1.14,1.95-1.82,4.17-2.9,6.91-2.39,2.84.53,4.93,2.13,6.35,4.63l.04-.04Z"/>
      <path class="cls-2" d="M27.37,6.57c.39.23.79.43,1.16.69,1.8,1.29,3.25,3.09,5.72,3.32,2.04.19,3.78-.33,5.32-1.61.87-.72,1.66-1.53,2.55-2.21,2.77-2.11,6.54-2.09,9.29.02,1.36,1.04,2.67,2.14,3.99,3.23.16.14.23.39.52.92-.66-.16-1.05-.15-1.31-.33-.8-.56-1.64-1.11-2.31-1.8-3.82-3.92-7.78-3.4-11.41.2-3.36,3.32-7.8,3.47-11.31.33-.85-.76-1.66-1.57-2.48-2.35.09-.13.18-.26.27-.4Z"/>
      <path class="cls-2" d="M9.15,39.78c.39-.05.8-.2,1.15-.12,2.99.66,5.24-.61,7.22-2.67,1.93-2.01,4.28-2.98,7.05-2.48,1.22.22,2.54.65,3.49,1.4,2.2,1.76,4.06,3.99,7.28,3.96-.02.2-.05.41-.07.61-.62.03-1.36.3-1.85.06-1.47-.72-2.95-1.5-4.24-2.49-1.44-1.1-2.71-2.39-4.64-2.65-2.61-.36-4.7.56-6.47,2.43-2,2.12-4.41,3.24-7.38,2.83-.54-.07-1.05-.29-1.58-.43.01-.15.02-.29.03-.44Z"/>
      <path class="cls-2" d="M42.9,21.22c1.84-1.69,4.08-1.84,6.1-1.02,1.83.75,3.46,2.13,5.01,3.43,1.75,1.46,3.82,1.97,5.86,1.61,1.32-.23,2.46-1.49,3.67-2.31,1.37-.92,2.68-1.94,4.11-2.76.59-.33,1.42-.23,2.15-.33.04.15.09.31.13.46-.24.16-.46.42-.71.45-1.86.22-3.23,1.27-4.57,2.47-1.53,1.36-3.07,2.78-5.3,2.86-2.46.08-4.51-.53-6.43-2.39-2.34-2.26-5.18-3.96-8.76-2.49-.36.15-.83.02-1.25.02Z"/>
      <path class="cls-2" d="M35.96,40.58c1.88-1.42,3.6-2.59,5.17-3.94,2.48-2.14,5.24-2.85,8.33-1.78.96.33,1.76,1.14,2.62,1.76,1.67,1.2,3.34,2.41,4.93,3.91-.94-.34-1.99-.53-2.81-1.07-1.22-.8-2.23-1.91-3.4-2.78-2.72-2.02-6.03-1.79-8.64.39-1.45,1.21-3.05,2.24-4.63,3.27-.37.24-.96.16-1.57.25Z"/>
      <path class="cls-2" d="M17.74,7.95c0,1.87-1.64,2.38-2.83,2.87-3.26,1.36-6.27.89-8.87-1.78-1.39-1.43-2.99-2.71-5.14-2.92-.21-.02-.41-.2-.61-.31l.06-.46c.74.07,1.58-.07,2.2.24,1.21.6,2.43,1.3,3.43,2.2,4.15,3.72,6.45,3.87,10.99.57.23-.17.52-.25.79-.37l-.04-.04Z"/>
      <path class="cls-2" d="M57.03,10.88c.46-.08.91-.22,1.37-.23,2.32-.02,4.05-1.17,5.63-2.74,1.37-1.36,2.89-2.49,4.93-2.62.29-.02.59.08.96.49-.3.14-.61.27-.9.43-1.47.81-2.96,1.59-4.39,2.46-1.32.8-2.5,1.91-3.91,2.48-1.09.44-2.44.24-3.67.33,0-.2,0-.39,0-.59Z"/>
      <path class="cls-2" d="M41.57,15.87c-.51-.99.07-1.57.81-2.07,2.48-1.68,6.44-2.12,9.9,1.04.7.64,1.35,1.33,2.03,1.99-.16.17-.32.35-.47.52-.6-.5-1.26-.94-1.78-1.51-2.91-3.26-7.7-3.35-10.5.01,0,0,.01.02.01.02Z"/>
      <path class="cls-2" d="M58.18,40.53c.25-.27.31-.39.38-.4,3.04-.58,5.03-2.8,7.33-4.57,1.11-.85,2.46-1.27,4.17-.87-.35.31-.53.61-.73.62-2.28.18-3.81,1.63-5.32,3.1-1.57,1.52-3.39,2.32-5.84,2.12Z"/>
      <path class="cls-2" d="M.38,27.52c1.46-1.1,7.6,2.34,8.82,5.31-1.99-.41-2.98-1.95-4.36-2.89-1.4-.96-3-1.64-4.46-2.41Z"/>
      <path class="cls-2" d="M30.99,17.21c.52.08,1.06.09,1.55.26,2.66.94,5.02.54,7.2-1.3.4-.34,1.2-.22,1.82-.3,0,0-.01-.02,0,0-1.31.86-2.56,1.86-3.97,2.52-1.68.79-3.52.65-5.24-.03-.51-.2-.88-.78-1.31-1.19,0,0-.04.04-.04.04Z"/>
      <path class="cls-2" d="M42.23,21.88c-2.56,3.94-7.31,5.24-8.52,3.28,3.73,1.06,5.74-2.08,8.52-3.28Z"/>
      <path class="cls-2" d="M63.21,17.12c.15-2.49,4.91-5.26,6.84-4.11-1.27.51-2.52.85-3.6,1.49-1.11.66-2.04,1.62-3.24,2.61Z"/>
      <path class="cls-2" d="M.2,34.69c2.46-.5,5.34,1.02,5.79,3-1.92-.99-3.79-1.96-5.79-3Z"/>
      <path class="cls-2" d="M17.78,7.99c.56-.56,1.03-1.33,1.71-1.65,1.08-.51,2.29-.77,3.46-1.04.28-.06.64.24.94.55-2.12-.04-3.7.95-5.22,2.16-.18.14-.61-.03-.93-.06,0,0,.03.04.03.04Z"/>
      <path class="cls-2" d="M59.28,18.13c1-.42,1.99-.85,3.03-1.29.04,1.28-1.2,1.93-3.03,1.29Z"/>
    </g>
  </g>
</svg>