<?xml version="1.0" encoding="UTF-8"?>
<svg id="Calque_2" data-name="Calque 2" xmlns="http://www.w3.org/2000/svg" viewBox="0 0 106.89 45.04">
  <defs>
    <style>
      .cls-1 {
        stroke: #f3942c;
      }

      .cls-1, .cls-2, .cls-3, .cls-4 {
        fill: none;
        stroke-miterlimit: 10;
      }

      .cls-5 {
        fill: #d11c1f;
      }

      .cls-5, .cls-6, .cls-7 {
        stroke-width: 0px;
      }

      .cls-2 {
        stroke: #1d1d1b;
        stroke-width: .25px;
      }

      .cls-6 {
        fill: #000;
      }

      .cls-7 {
        fill: #aeb5bd;
      }

      .cls-8 {
        letter-spacing: -.02em;
      }

      .cls-3 {
        stroke: #000;
        stroke-width: .75px;
      }

      .cls-9 {
        letter-spacing: -.04em;
      }

      .cls-10 {
        fill: #f3942c;
        font-family: ClearSans, 'Clear Sans';
        font-size: 6.47px;
      }

      .cls-11 {
        letter-spacing: 0em;
      }

      .cls-4 {
        stroke: #e2935b;
      }
    </style>
  </defs>
  <g id="Gladys">
    <rect class="cls-4" x="67.6" y="5" width="33.41" height="35.03" rx="5.54" ry="5.54"/>
    <path class="cls-3" d="M104.61,19.92c.05-.93.77-1.37,1.76-1.58v-1.53c-1.8-.69-2.28-1.66-1.32-2.64.39-.29.78-.57,1.31-.96v-1.26c-.43-.28-.78-.5-1.13-.73l.03.03c-1.27-.88-.81-2.07,1.11-2.85v-1.5c-1.04-.27-1.83-.74-1.76-1.81.06-.94.79-1.35,1.75-1.58l-.59-1.3c-.31-.58-.59-1.1-1.12-1.54-.23-.18-.62-.31-.94-.3-.31,0-.8.15-.9.34-.36.74-.95,1.16-1.88,1.15-.93,0-1.51-.42-1.86-1.17-.09-.19-.6-.32-.91-.32-.31,0-.8.14-.9.33-.36.74-.94,1.17-1.87,1.16-.92,0-1.52-.42-1.87-1.17-.09-.19-.59-.33-.9-.33-.31,0-.81.14-.9.33-.36.74-.93,1.16-1.87,1.16-.93,0-1.52-.41-1.87-1.15-.09-.19-.59-.33-.9-.33-.31,0-.81.13-.9.32-.36.74-.93,1.16-1.86,1.16-.93,0-1.51-.41-1.88-1.14-.1-.2-.64-.34-.98-.34-.29,0-.73.18-.85.39-.38.69-.92,1.08-1.83,1.09-.9,0-1.45-.38-1.85-1.06-.13-.22-.6-.41-.92-.42-.32,0-.82.17-.95.38-.39.68-.92,1.08-1.82,1.09-.91.01-1.45-.38-1.86-1.05-.14-.22-.6-.41-.92-.42-.32,0-.82.17-.95.39-.39.68-.93,1.09-1.83,1.1-.94,0-1.53-.4-1.87-1.14-.08-.17-.46-.34-.71-.35-.37,0-.84.05-1.09.24-.56.45-.87.95-1.17,1.7l-.59,1.22c1.05.19,1.72.7,1.77,1.64.04.8-.47,1.28-1.76,1.72,0,.49,0,1,0,1.51,1.9.8,2.34,1.95,1.09,2.85l.03-.03c-.36.23-.71.45-1.16.74v1.4c1.29.41,1.87.96,1.81,1.76-.07.9-.68,1.42-1.75,1.6v1.6c.99.26,1.79.73,1.73,1.78-.05.93-.74,1.38-1.76,1.59v1.54c1.81.72,2.27,1.65,1.32,2.64-.4.29-.79.59-1.32.97v1.25c.43.27.78.5,1.14.72l-.03-.03c1.27.9.81,2.08-1.11,2.84v1.51c1.03.25,1.83.72,1.76,1.78-.06.93-.75,1.38-1.76,1.58v1.53c1.83.74,2.28,1.68,1.3,2.66l.03-.03c-.27.38-.36.45-.62,1.2l-.34.96c.48.53.82,1.02,1.37,1.48.2.17.56.29.85.29.33,0,.68-.12.97-.27.24-.13.38-.39.57-.59.02-.01.03-.02.04-.03.42-.2.9-.62,1.25-.55.61.12,1.36.43,1.65.85.33.47.59.63,1.19.63.59,0,.85-.16.99-.63.05-.18.31-.32.47-.48.8-.23,1.61-.55,2.37.09.17.1.41.16.51.29.76,1.03,1.54,1.02,2.28-.03.09-.13.26-.23.39-.35.8-.23,1.61-.55,2.37.09.17.09.4.15.51.29.79,1.04,1.48,1.03,2.26,0,.1-.13.34-.19.51-.28.76-.4,1.51-.54,2.27,0,.17.09.41.15.51.29.79,1.03,1.48,1.03,2.26,0,.1-.13.34-.19.51-.29.76-.38,1.51-.59,2.27,0,.17.1.41.16.51.29.76,1.03,1.56,1.02,2.29-.03.09-.13.25-.23.38-.35.81-.32,1.61-.43,2.37.09.19.12.5.22.54.37.16.57.57.65,1.18.66.61.01.77-.24.99-.65.57-1.03,2.08-1.19,2.95-.36l-.03-.03c.15.12.4.22.45.36.17.53.52.67,1.16.68.66.01.78-.31,1.07-.68.33-.42.89-.7,1.51-1.16v-1.29c-1.8-.76-2.27-1.73-1.28-2.64l-.03.03c.38-.31.76-.61,1.3-1.05v-1.06c-.57-.5-1.02-.91-1.48-1.32-.52-.87-.15-1.76,1.49-2.33v-1.51c-1.91-.78-2.36-1.96-1.09-2.84l-.04.03c.33-.22.65-.44,1.11-.75v-1.25c-.5-.37-.9-.67-1.3-.96l.03.03c-.67-.48-.59-1.08-.28-1.65.3-.54.79-.93,1.59-.82v-1.72c-1.07-.24-1.83-.74-1.77-1.79Z"/>
    <g>
      <path class="cls-2" d="M95.09,5.35h0s0,0,0,0h0s0,0,0,0ZM95.09,5.35h0s0,0,0,0h0s0,0,0,0Z"/>
      <path class="cls-2" d="M91.59,5.15s-.02.1-.05.13c-.13.16-.26.32-.39.49-.01-.01-.02-.02-.03-.04.03.07.05.13.08.2-.02.02-.03.04-.05.06-.05-.33-.21.03-.29-.09-.06.18-.12.36-.2.59-.21.12-.25.38-.02.6.11.11.24.19.4.31-.31-.1-.27.21-.45.26.01.02.02.04.03.07.07-.02.14-.03.21-.04-.04.25-.27.34-.44.47-.02.01-.05,0-.08,0-.1-.02-.17,0-.2.11-.03.13-.07.27-.1.4-.07-.08-.14-.14-.2-.21.11-.15.23-.29.34-.44-.3.11-.26-.23-.41-.26-.07.01-.14.02-.23.03.02.17-.11.16-.26.13.05.08.09.15.13.22,0,.02-.02.03-.03.05-.09-.03-.18-.07-.27-.08-.1-.02-.2-.01-.3,0-.07,0-.15.05-.19.03-.1-.07-.18-.16-.26-.25-.04-.04-.08-.09-.12-.11-.07-.03-.15-.05-.22-.07-.02-.17-.04-.31-.04-.46,0-.16-.06-.22-.22-.2-.1.01-.21.05-.3.04-.17-.02-.28.04-.35.18.02.04.02.1.05.11.05.03.12.04.18.03.09,0,.17-.03.26-.05,0,.03.01.06.02.09-.11.03-.23.07-.34.11-.1.04-.19.06-.22.22-.03.2-.04.44-.31.58.05-.11.11-.18.12-.26.01-.08,0-.18-.02-.24.04-.01.09-.02.14-.04,0-.02,0-.04,0-.06-.3.07-.29-.17-.36-.34-.41.15-.8.17-1.16-.1-.05-.03-.08-.08-.12-.12.06-.05.11-.11.17-.14.06-.02.14,0,.21,0,.04,0,.11-.03.12-.06.07-.15,0-.28-.08-.41-.08-.11-.18-.17-.31-.11-.02,0-.06,0-.08,0-.28-.25-.68-.36-.77-.8-.04-.17-.39-.22-.5-.08-.1.13-.2.16-.34.06.06-.09.2-.11.16-.27-.02-.09.06-.21.1-.34-.21.19-.39.36-.57.52-.02-.01-.04-.02-.05-.03.02-.36.05-.72.07-1.08-.03,0-.06,0-.09-.01-.03.13-.07.26-.1.37-.18.24-.46.13-.73.2.11-.12.38-.06.29-.32-.11.02-.22.02-.32.04-.16.04-.33.08-.49.12-.06.02-.16,0-.19.04-.1.16-.25.08-.4.14.08-.06.12-.09.16-.12-.05-.07-.08-.12-.12-.17-.06.05-.12.1-.19.15-.03-.06-.04-.09-.05-.11-.04.06-.1.16-.12.16-.25-.08-.25.13-.31.26-.31-.11-.37-.39-.45-.66,0,0,0-.02.01-.04M73.38,5.02c.08.04.15.08.2.11-.13.06-.22.1-.37.16-.06-.03-.18-.1-.3-.15-.12-.05-.11-.1-.04-.18.04-.05.1-.14.08-.18-.05-.11-.14-.1-.25-.06-.08.03-.18,0-.26.03-.05.01-.08.07-.14.13-.19-.08-.37.01-.55.12-.02,0-.03.02-.05.03-.08.04-.15.09-.23.13.07.09.15.18.22.27.01.01.03.02.06.05-.03.04-.06.07-.12.14v-.15s-.06,0-.06.02c-.05.16-.11.32-.13.48-.02.15.25.31.39.26.13-.05.25-.03.35.09.03.03.07.06.08.07.22-.09.42-.17.63-.26q.02.12-.14.19c-.03.12-.04.2-.06.28-.02.06-.06.12-.07.18-.02.22-.27.36-.45.25-.04-.03-.05-.1-.08-.14-.02-.03-.07-.04-.13-.03.02.04.04.09.07.14-.13.12-.25.27-.43.22-.02-.07-.02-.15-.04-.16-.06-.02-.17-.05-.2-.02-.1.12-.32.14-.28.37,0,.02-.03.05-.04.05-.21.02-.3.2-.43.33-.04.05-.12.06-.16.1-.1.09-.19.41-.11.51.14.18,0,.23-.12.31.03.18.06.36.1.59h.49c0,.16.05.32-.13.42-.03.02-.04.1-.03.13.07.16.03.25-.15.31.14.02.27.04.42.07,0-.07-.02-.11-.02-.15.02,0,.03-.02.05-.03.1.13.2.26.31.41.02-.06.06-.15.11-.26.11.34.31.05.46.11,0,.02,0,.04-.02.05-.26.09-.31.34-.44.54-.16.24-.39.39-.64.52-.2.1-.39.2-.58.32-.06.04-.1.13-.14.15-.13.01-.29-.02-.39.05-.2.13-.42.26-.62.46.21-.01.37-.02.54-.03.03-.07.08-.15.13-.26.03.1.07.18.11.3.15-.13.29-.25.45-.39-.02.09-.04.13-.04.15.16-.06.32-.12.49-.18.02,0,.04-.03.05-.05.06-.17.24-.16.34-.25.16-.13.44-.08.52-.36.03-.09.19-.16.3-.21.11-.05.25-.07.36-.11.07-.03.13-.09.18-.14.06-.05.11-.12.18-.16.29-.15.31-.19.08-.41.12-.1.21-.21.41-.16.07.02.19-.1.27-.18.06-.06.08-.16.12-.24.01.02.03.04.04.06.05-.01.14-.03.14-.04-.03-.17.14-.18.21-.27.07-.08.19-.12.3-.16.11-.04.2-.02.19.13,0,.03,0,.07,0,.12-.03,0-.07.02-.08.01-.13-.16-.26-.03-.38,0-.04.01-.08.05-.1.09-.08.12-.15.25-.25.36-.08.09-.15.16-.04.28-.09.04-.17.08-.26.13.02.17.1.18.23.13.17-.07.34-.13.52-.2.04-.02.07-.04.11-.07.04-.02.08-.07.11-.06.19.06.26-.06.38-.17.08-.08.11-.13.08-.23-.01-.04-.04-.08-.05-.11.15.02.32.05.48.07.03.09.07.19.1.29.28.05.38.16.34.39.07,0,.13.03.2.02.21-.04.35.07.49.2.1.1.18.22.35.15.02,0,.06.04.09.06-.03.03-.07.06-.13.11.08.09.17.2.29.34,0,.22.05.47.36.56-.16.15-.19.36-.08.55.05.09.05.16,0,.26-.05.11-.01.27-.01.4.02,0,.03,0,.05,0,.03-.08.07-.16.1-.25.02,0,.03.01.05.02-.03.11-.06.23-.09.34.02.01.03.02.05.03.06-.06.13-.13.19-.19,0,0,.02.01.02.02-.04.07-.09.14-.13.22.15.04.13.23-.03.39-.03-.03-.07-.06-.13-.11.04.18.08.32.11.46.02,0,.03,0,.04,0v-.23c.08.11.14.18.21.27.05-.13.09-.23.15-.39.02.13.03.2.05.31.08.02.19.03.31.05-.16.11-.18.28-.14.44-.07-.03-.13-.05-.2-.08.05.13.09.22.14.36-.08-.07-.12-.1-.16-.13-.02.01-.03.02-.05.04.06.08.13.16.18.25.04.06.16.09.06.2-.02.02.03.12.06.16.06.06.14.09.2.14.03.03.03.08.05.12-.01,0-.03.02-.04.02-.03-.02-.05-.05-.08-.07-.02,0-.04.01-.05.02.04.12.08.24.12.36-.13.05-.12.22.05.36.04.03.06.08.11.17-.25-.03-.3-.33-.52-.23,0,.11.02.21.03.31,0,.02,0,.05.01.07.14.15.29.29.43.44.07.08.12.16.16.26.07.14.29.28.45.25-.07-.19.03-.42-.2-.57-.07-.05-.05-.22-.07-.36-.04-.02-.12-.06-.19-.1,0-.02.01-.03.02-.05.12.04.23.08.31.1,0,.15-.05.28,0,.38.03.06.17.07.28.11,0,.03-.03.12,0,.15.16.18.08.33-.05.49-.15-.07-.31-.14-.52-.23,0,.18-.03.35-.02.53.02.34-.06.66-.2.97-.07.16-.1.33-.16.5-.04.11-.09.23-.16.32-.14.2-.16.42-.14.65.02.19-.01.38-.15.53-.03.03-.05.11-.03.13.13.17.07.36.07.54,0,.24.13.42.2.62.03.12.07.23.1.35,0,.02.03.04.02.05-.12.24.07.4.14.59.02.06.08.13.06.18-.05.16.02.17.15.22.21.08.41.21.6.34.07.04.1.15.12.23.07.26.13.53.19.79.02.07.04.14.05.2,0,.24.23.34.34.51.09.14.14.26.02.41-.06,0-.12,0-.21,0,.07.21.22.33.39.4.28.11.39.32.32.61-.01.04,0,.1.03.12.19.19.44.33.54.61,0,.02.11.03.12.02.04-.06.1-.16.07-.19-.08-.11-.09-.3-.29-.3,0,0-.01-.09-.01-.14,0-.04.04-.11.03-.11-.15-.11-.14-.27-.16-.42-.01-.08-.1-.14-.13-.22-.07-.14-.13-.28-.19-.42-.03-.07-.06-.14-.1-.2-.09-.15-.19-.3-.27-.46-.1-.22-.08-.46-.02-.69.1.05.19.09.28.14.06.03.09.06.1.15.05.39.2.75.44,1.06.03.04.09.06.14.09-.09.22.14.27.25.38.08.08.13.1.05.21-.07.09-.06.18.07.23.08.03.16.08.23.14.04.04.05.11.05.12.21.29.41.54.58.8.07.12.1.27.11.41,0,.07-.05.15-.09.22-.08.18.04.45.23.52.1.04.19.12.28.18.09.06.17.14.27.18.14.04.27.1.39.19.17.11.36.2.55.28.21.09.45.13.65.23.19.09.35.05.52-.02.2-.09.37-.07.53.09.12.13.26.24.39.36h.04c.01-.06.03-.11.03-.17.02-.21.15-.34.36-.34.08,0,.15-.02.27-.03-.13-.13-.22-.21-.31-.29.04-.08.07-.13.11-.21.3.03.6.04.79-.26.06.05.11.09.16.13.03-.05.06-.08.07-.12.05-.3.07-.6.31-.83.07-.07-.02-.23-.11-.22-.12,0-.24.03-.36.05-.11.02-.23.05-.34.06-.22.01-.3.07-.33.29-.04.21-.1.42-.3.5-.02.08-.04.13-.06.18,0,0-.06-.01-.09-.02.03-.11-.05-.08-.11-.07-.14.03-.29.08-.43.11-.1.02-.21.03-.31,0-.1-.03-.19-.11-.29-.16-.11-.06-.47-.68-.46-.81,0-.04.02-.09,0-.12-.14-.31-.05-.61.02-.91.05-.22.13-.44.19-.66.04-.16.04-.34.11-.48.07-.13.12-.29.34-.31.16-.02.35-.1.37-.34.03.05.06.09.09.13.16-.15.32-.18.51-.09.06.03.16.04.21,0,.11-.09.16,0,.2.06.11.15.32.18.46.06.07.03.14.07.21.1.01-.02.02-.04.03-.06-.06-.04-.11-.08-.18-.13.04-.04.07-.07.1-.1-.02-.03-.05-.06-.08-.11.1-.04.19-.09.27-.1.18,0,.35.01.53.02.2,0,.39,0,.51.21.01.02.11.03.13.01.22-.2.34-.09.44.13.01.03.06.05.07.08.02.07.07.16.05.2-.1.17-.03.32.03.47.03.07.07.14.11.21.07.13.12.26.2.37.03.05.11.1.17.11.04,0,.1-.07.13-.12.12-.22.19-.44.06-.69-.05-.1,0-.25-.05-.36-.12-.29-.13-.59-.1-.89,0-.06.03-.14.08-.18.15-.15.28-.31.5-.36.07-.02.16-.08.2-.14.15-.26.44-.32.64-.51.02-.02.06-.03.08-.02.15.01.22-.04.16-.15.09-.08.17-.15.27-.24-.09-.04-.14-.06-.21-.09.18-.06.15-.19.14-.31-.02-.17-.05-.34-.07-.53.25.11.09.28.13.41.11-.24.42-.4.28-.75.03.03.07.07.11.11.16-.2.36-.37.32-.64.21-.04.42-.08.63-.12,0-.02,0-.04,0-.06h-.36s0-.02,0-.03c.25-.03.5-.07.75-.1,0,0,0,.03,0,.05.02,0,.04.02.05.03.06-.1.13-.21.19-.32,0,0-.02-.01-.03-.03-.02.03-.05.07-.08.11-.05-.08-.09-.15-.12-.2.03-.06.06-.1.07-.15.05-.22.16-.38.38-.44.06-.02.11-.05.16-.08.08-.04.16-.1.24-.11.17-.03.34-.05.55-.08-.06-.07-.08-.1-.12-.14.19-.04.37-.07.55-.11,0,.01.01.03.02.04-.05.03-.11.05-.15.08-.1.08-.22.15-.26.25-.03.07.04.19.08.29.01.03.1.05.12.03.15-.12.3-.25.42-.35.31-.09.61-.18.91-.26-.02-.03-.04-.06-.05-.07.11-.04.23-.08.34-.12.04-.02.07-.05.1-.08-.04-.03-.07-.07-.11-.1-.02-.02-.05-.03-.05-.03,0-.1,0-.19.01-.27-.02,0-.04-.01-.07-.02-.12.16-.25.32-.38.5,0,0-.06-.03-.11-.04-.07-.01-.14,0-.21,0-.11-.02-.19-.07-.29-.14-.11-.08-.17-.15-.16-.27,0-.13.03-.26.05-.39-.08-.01-.18-.03-.28-.05,0-.02,0-.04,0-.06.18.1.3-.04.42-.11.03-.02.04-.13.02-.18-.07-.15-.21-.18-.37-.18-.02,0-.05,0-.07,0-.17.05-.36.08-.52.15-.2.08-.38.2-.57.3.13-.16.28-.3.45-.41.1-.07.25-.06.34-.14.13-.11.23-.27.33-.4.08.02.13.06.18.05.47-.03.92.13,1.39.09.23-.02.4-.09.55-.27.06-.07.16-.13.25-.14.2-.02.37-.08.54-.17.18-.09.21-.24.1-.37.02-.03.05-.07.07-.1.08-.17.06-.28-.11-.35-.1-.04-.17-.07-.19-.18,0-.03-.09-.06-.14-.06-.06,0-.13.01-.19.02,0-.01,0-.03-.01-.04.12-.03.23-.07.35-.1-.05-.08-.09-.14-.14-.21-.13.08-.24.09-.23-.11-.12-.03-.23-.06-.35-.09.11-.12,0-.17-.06-.23-.1-.11-.21-.21-.3-.3.11-.09.19-.16.27-.23-.06-.1-.12-.17-.15-.25-.03-.1-.03-.21-.06-.31,0-.03-.06-.05-.06-.08-.02-.13-.03-.27-.06-.4-.04-.22-.08-.43-.13-.65,0-.05-.03-.09-.05-.13-.04.03-.08.07-.11.11-.1.17-.19.34-.3.5-.16.24-.41.34-.65.45-.07-.11-.12-.22-.2-.32-.11-.15-.14-.48-.08-.66.04-.12.06-.24.15-.34.03-.02,0-.1,0-.19-.06.07-.09.11-.11.14,0-.02,0-.04.01-.06-.15-.07-.3-.14-.45-.21.02-.01.03-.02.05-.03,0-.05,0-.1-.02-.13-.04-.06-.1-.1-.14-.16-.05-.08-.09-.18-.14-.26-.08-.15-.19-.02-.29-.02-.04,0-.08,0-.12-.02-.24-.08-.49-.16-.73-.23-.1.18-.3.34-.07.57-.1.13-.19.25-.29.37.03.04.09.09.09.1-.11.16.19.46-.18.53,0,0-.01.02-.02.03-.07.1-.13.21-.22.28-.13.11-.13.2-.01.31.25.24.17.54.17.83,0,.09,0,.17-.01.26-.04.03-.1.07-.17.11-.13.09-.26.2-.4.27-.16.08-.34.14-.46.19-.02.28-.07.53-.06.78.01.25.02.49-.14.71-.02-.02-.04-.05-.08-.1-.05.08-.1.15-.17.26-.06-.1-.11-.18-.15-.26-.03-.05-.03-.11-.07-.15-.17-.2-.33-.39-.18-.69.1-.21.13-.45.2-.67.03-.1,0-.13-.1-.13-.19-.01-.38-.04-.57-.06-.03,0-.06-.04-.08-.06-.13-.1-.25-.2-.38-.3-.06-.05-.14-.1-.18-.17-.11-.23-.33-.33-.52-.48-.26-.2-.46-.09-.69-.02,0,0-.02,0,0,0,.05-.1.12-.2.13-.3.02-.18-.02-.36,0-.53,0-.1-.04-.13-.12-.13-.06,0-.12.03-.23.05.04-.21.05-.42.11-.6.11-.37.44-.6.65-.91.04-.06.08-.11.12-.17,0,0,.04.02.05.02.17-.12.32-.23.47-.34-.03-.07-.05-.13-.08-.2.16.04.3.16.45.03.16-.15-.02-.26-.06-.41.26.18.34.15.52-.2.13.17.27.19.42.05.17-.15.34-.29.49-.45.03-.03.01-.1.02-.16.15-.12.32-.26.48-.41.02-.02-.02-.1-.04-.15,0-.03-.04-.07-.03-.09.01-.02.06-.04.09-.04.07,0,.14.02.21.03,0,.03-.02.1-.01.1.19.06.13.26.23.36.04.04.1.06.15.09,0-.01.01-.03.02-.04-.07-.1-.14-.21-.21-.33.14.02.26.03.37.05,0-.02.01-.08.03-.09.2-.05.29-.29.51-.3.02,0,.04-.03.06-.06.17-.18.08-.35-.02-.5.03-.07.07-.11.07-.16,0-.06-.02-.12-.04-.19.2.09.44,0,.38-.11-.07-.14.11-.18.07-.26-.04-.08-.13-.14-.2-.21,0,0,0-.01,0-.02.02,0,.04,0,.05,0,0-.05,0-.11-.02-.17,0-.03-.05-.08-.07-.08-.1.02-.17,0-.26-.05-.11-.05-.25-.06-.37-.08-.02.2-.21.36-.06.56-.15.09-.32.12-.39.32-.04.11-.14.21-.21.31-.01,0-.02-.02-.03-.02,0-.08.02-.15.03-.23-.02,0-.04-.01-.07-.02-.04.1-.12.2-.1.28.04.23.06.23-.2.25-.02-.07-.05-.13-.05-.2-.02-.17-.07-.36.15-.46.02-.01.04-.07.03-.1-.03-.18-.07-.36-.11-.54-.02,0-.04,0-.06.01-.12.18-.25.37-.37.55-.01,0-.02-.02-.03-.03.03-.18.06-.36.09-.52.02,0,.07.02.11.02.02,0,.05-.06.04-.08-.01-.04-.04-.1-.08-.11-.13-.06-.27-.1-.41-.15.11-.11.19-.2.28-.3.02,0,.07,0,.13,0,0-.05-.02-.11-.02-.16,0-.19-.11-.39.01-.58.02-.03.03-.08.02-.12-.05-.2-.1-.4-.15-.59.17.03.41-.15.45-.37.02-.13.09-.16.19-.07.13.13.24.08.34-.02M91.08,9.71c.1.14.19.27.28.41-.23,0-.37-.21-.28-.41ZM73.96,5.2c-.11-.1-.3,0-.31-.25.11.02.21.03.32.05,0,.06,0,.11,0,.2ZM77.67,11.39c-.01.22-.02.44-.04.66-.19-.21.03-.43.04-.66ZM77.24,11.97s.05-.05.07-.07c.1.04.2.09.18.23-.02.12-.06.23-.12.34.03-.12.05-.24.07-.34-.07-.05-.13-.11-.2-.16ZM77.65,13.68s0-.1,0-.15c0-.06,0-.12-.03-.17-.09-.15-.09-.22.06-.33-.1.13-.03.24.03.36.01.02.01.06,0,.08-.08.14,0,.14.11.15-.05.02-.11.04-.16.05ZM77.85,13.01c-.03-.06-.07-.12-.1-.18-.08-.13-.21-.13-.47-.05.03-.02.06-.04.09-.07.15-.13.36-.22.35-.48,0-.02.06-.05.09-.08.02.02.04.03.05.05-.06.15-.12.31-.18.45.07.11.14.22.21.33-.01,0-.03.02-.04.03ZM81.66,5.27c.23-.2.49-.24.78-.21-.26.07-.51.14-.78.21Z"/>
      <path class="cls-2" d="M69.57,8.83s0,.07.01.1c0-.03,0-.06-.01-.1h0Z"/>
      <path class="cls-2" d="M98.28,10.26c-.11.07-.21.14-.33.22.02.11-.19.27-.43.27-.01.08-.02.16-.03.24-.02.11-.03.17-.18.08-.18-.11-.25-.26-.24-.44,0-.12-.09-.13-.12-.19-.05-.09-.11-.18-.18-.3-.03.1-.07.19-.11.32-.03,0-.1,0-.14,0,.02.12.02.27.07.41.03.08.11.2.18.21.24.02.16.21.19.33.03.09.02.19.05.28.07.18.03.28-.09.28-.06.08-.13.13-.15.2-.02.05.03.12.04.18,0,.03.03.06.03.08,0,.01-.05.04-.07.03-.03-.02-.07-.04-.08-.07-.04-.17-.12-.31-.31-.36-.02,0-.04,0-.05-.02-.14-.14-.27-.28-.41-.43-.04.06.02.22.08.3.13.17.26.34.38.53.03.05,0,.14-.02.24-.38-.15-.73-.32-.99-.64-.02.07-.03.11-.05.16-.04-.03-.09-.06-.11-.1-.07-.13-.12-.26-.18-.4.04-.02.08-.04.09-.04-.08-.16-.14-.31-.23-.45-.05-.08-.13-.16-.26-.03,0-.08.02-.12.02-.16,0,0-.01,0-.02,0-.17.15-.39-.03-.57.09-.05.03-.19-.01-.26-.06-.19-.14-.18-.3.03-.41.04-.02.08-.07.1-.11.03-.04.04-.08.05-.1.16.06.3.14.46.17.1.02.22-.04.33-.06.06-.01.12-.01.21-.03-.02-.05-.03-.13-.07-.2-.04-.1-.04-.16.06-.23.15-.1.28-.24.43-.35.06-.05.14-.07.23-.12,0-.16.03-.34.02-.52,0-.07-.08-.13-.15-.22,0-.02.02-.09.03-.14-.06.02-.11.03-.16.05-.05.02-.1.05-.16.07-.04-.07-.06-.13-.05-.16,0-.03.02-.05.06-.06.01,0,.03,0,.05,0,.01,0,.03,0,.04,0q-.08-.11-.36-.05c0-.1-.04-.2.13-.18.03,0,.07-.03.11-.05-.02-.03-.04-.07-.07-.1-.05-.07-.11-.12-.15-.19-.02-.03.02-.08.03-.14-.04,0-.09-.02-.17-.03.05-.12.1-.23.13-.29-.13-.11-.23-.2-.34-.29-.01,0-.02.02-.03.03.03.04.07.08.09.13.1.17.03.29-.15.31-.09.01-.17.09-.21.11-.12-.09-.23-.17-.34-.25-.02.01-.07.05-.1.04-.2-.06-.39-.12-.58-.2-.08-.04-.14-.12-.26-.08-.03.01-.1-.04-.11-.07-.08-.2-.25-.18-.41-.19-.14-.19-.19-.39-.1-.64.15.07.3.14.45.21.02-.03.03-.06.05-.09-.11-.06-.22-.14-.33-.19-.23-.1-.25-.15-.13-.35.1-.16.17-.33.29-.48.16-.2.34-.39.53-.58.16-.17.35-.33.6-.32.14,0,.28.04.42.08.1.03.09.09,0,.15-.22.16-.44.31-.64.49-.06.06-.05.19-.06.3-.26.28-.21.63.02.77.1-.08.04-.14,0-.22-.04-.07-.04-.16-.06-.24.07-.05.13-.1.21-.17.01,0,.05.02.13.06-.17-.26-.05-.47.14-.65.23-.22.54-.14.78-.28.07-.04.2.01.33.02-.03.11-.06.19-.07.28,0,.03,0,.07.02.1h0s0,0,0,0h0s0,0,0,0c0,0,0,0,0,.02h0c-.03.15-.06.3-.1.47.1.05.23.12.35.18.28-.19.5-.17.75.11.06.07.08.2.09.3,0,.09-.02.19-.03.26.12.03.3.02.44.1.17.09.22.32.13.46.05,0,.08-.01.13-.02,0,.07,0,.12.01.18.18.02.32.1.41.25.02.03-.01.12-.02.12-.19,0-.15.16-.16.28.05-.08.11-.15.16-.23.12.09.21.31.15.38-.07.09-.16.17-.29.07.08.14.39.06.31.35-.11-.03-.22-.06-.32-.09.03.16-.02.27-.18.29.11.08.2.15.3.22-.01.02-.03.06-.05.12.06-.01.09-.02.13-.03,0,.05-.02.13-.01.13.09.02.19.03.3.05-.02.04-.06.1-.09.15.07.02.14.02.21.05.02,0,.03.07.02.11,0,.03-.04.05-.06.08.04.03.07.07.11.08.08.02.16.02.28.03-.07.06-.1.1-.18.17.29-.09.31.1.41.25Z"/>
      <path class="cls-2" d="M89.32,4.67c-.04.09-.08.19-.11.28-.02.08,0,.16-.03.24-.04.11-.1.22-.14.33-.02.06-.05.13-.05.18,0,.07.05.15.09.21.02.04.08.06.15.11-.03.14.03.28.17.39.14.1.08.23.02.33-.05.09-.18.13-.17.26,0,0-.04.01-.09.03.03-.09.05-.16.07-.25-.1.02-.19,0-.14-.16-.11.08-.23.07-.13.25.11.2-.1.43-.34.4-.06,0-.13-.01-.19-.03-.14-.04-.28-.09-.43-.14.14-.22-.09-.17-.16-.24.02-.06.04-.12.07-.22-.13.08-.21.15-.31.2-.05.03-.11.07-.15.06-.19-.05-.34.03-.49.11-.1.06-.2.05-.32.02-.21-.04-.44-.04-.65-.06,0-.06.01-.11,0-.16-.04-.1-.02-.16.05-.24.12-.13.06-.25-.13-.25-.42,0-.47-.45-.33-.71.02-.05.12-.08.19-.08.31,0,.62.04.9.2.1.06.24.06.4.09-.1-.13-.17-.22-.25-.31-.14-.17-.33-.18-.53-.19-.18-.01-.37-.08-.56-.13,0-.03,0-.07,0-.11,0-.32,0-.31.31-.34.13,0,.26-.04.38-.05,0-.02,0-.04,0-.05-.11,0-.22-.03-.32-.02"/>
      <path class="cls-2" d="M88.41,4.82c-.04.1-.05.23-.07.34.21-.05.2-.22.26-.35"/>
      <path class="cls-2" d="M90.06,4.62c0,.08-.03.17-.04.25,0,.04.03.08.06.12.06.07.15.13.17.21.06.17.08.36.13.53.02.06.07.13.12.16.02.01.11-.04.14-.08.07-.08.12-.15.26-.14.1,0,.25-.06.29-.14.08-.14.18-.28.23-.42"/>
      <path class="cls-2" d="M98.33,19.66s-.03-.08-.05-.13c-.04.02-.08.04-.15.07.04-.16.08-.29.11-.41-.18.15-.32.34-.56.35-.01-.02-.02-.03-.04-.05.07-.06.15-.12.25-.2-.28-.04-.52-.08-.76-.1-.08,0-.16.02-.25.02-.04,0-.08-.03-.13-.05.02-.05.03-.1.06-.13.05-.06.11-.1.2-.17-.08-.02-.12-.02-.19-.04.04-.05.07-.1.11-.11.23-.04.28-.24.38-.4.16-.25.29-.53.59-.66.05-.02.12-.01.18-.02-.03.04-.05.08-.08.12-.12.18-.24.36-.37.55.02,0,.03.02.05.03.03-.05.07-.1.1-.15.08.04.15.08.2.11-.05.06-.09.12-.15.19.12.02.2.03.28.05.06-.05.13-.11.18-.16.29.15.13.33.05.53.1-.05.16-.08.23-.11,0,.01.02.02.03.03-.09.12-.18.24-.27.36,0,0,.02.02.02.03.08-.05.16-.11.25-.16,0,0,.02.02.02.03-.05.06-.09.11-.13.17.01,0,.02.02.03.03.04-.03.07-.05.11-.08.03.25-.09.44-.29.47Z"/>
      <path class="cls-2" d="M92.98,11.11s-.02.11-.05.15c-.08.12-.18.13-.31.05-.05-.03-.12-.04-.2-.07.02-.05.04-.1.05-.14-.05-.04-.1-.08-.15-.12,0-.03,0-.05,0-.08-.05.05-.1.11-.15.16-.02.02-.02.05-.03.06-.13.09-.25.18-.39.26-.05.03-.13.01-.19.02,0-.06,0-.11,0-.17,0-.03.01-.07.02-.12h-.24c-.02-.13,0-.24.16-.27.02,0,.05-.04.06-.06.11-.26.2-.52.32-.78.04-.08.13-.14.19-.21.02,0,.04.02.06.03v.32c.09-.05.17-.07.17.08,0,.02.02.06.03.06.14,0,.15.13.21.21.11.13.23.25.22.45,0,.03.07.06.11.09.03.02.1.04.1.06Z"/>
      <path class="cls-2" d="M90.62,7.19c-.03.2-.05.22-.21.11.02.14.04.26.06.41-.2.21-.39.21-.63,0-.09-.08-.2-.14-.29-.21-.03-.02-.06-.08-.06-.11,0-.04.06-.1.09-.1.25,0,.33-.2.46-.35.04-.05.1-.07.16-.11.08.3.03.32.42.37Z"/>
      <polygon class="cls-2" points="95.09 5.35 95.1 5.35 95.1 5.35 95.09 5.35"/>
      <path class="cls-2" d="M96.08,5.82s-.08.06-.12.05c-.1-.02-.19-.07-.29-.09-.05-.01-.13-.02-.17,0-.11.06-.2.04-.29-.05-.1-.1-.06-.19,0-.29,0-.01,0-.02.01-.05-.04-.02-.07-.03-.11-.05.01-.03.02-.07.04-.1.05-.1.11-.2.14-.26.18.05.34.1.5.15.07.03.15.08.18.14.06.17.09.35.12.53Z"/>
      <path class="cls-2" d="M95.11,9.04c-.15.3-.29.38-.6.31-.06-.28.14-.42.29-.56.05-.05.21-.03.29,0,.12.05.06.15.01.24Z"/>
      <path class="cls-2" d="M92.46,11.64c-.13.25-.35.34-.62.38-.02-.33.16-.45.62-.38Z"/>
      <path class="cls-2" d="M96.25,18.6c-.34,0-.56-.16-.74-.38.2-.11.62.14.74.38Z"/>
      <path class="cls-2" d="M92.24,15.15c-.09.07-.22.11-.35.17-.01-.12-.02-.18-.02-.29.07-.03.19-.07.32-.12.02.08.08.21.05.24Z"/>
      <path class="cls-2" d="M92.96,12.11c-.05.1-.12.2-.19.31-.15-.16-.14-.33.02-.45.04-.03.11-.02.17-.03,0,.05.02.12,0,.16Z"/>
      <path class="cls-2" d="M95.89,19.62c-.05.07-.12.19-.15.18-.11-.04-.21-.11-.31-.18-.05-.04-.09-.09-.15-.16.05-.04.09-.08.15-.14,0,.08.01.12.02.19.15.03.3.06.45.1Z"/>
      <path class="cls-2" d="M94.66,8.05c-.04.2-.22.32-.4.29.06-.21.29-.17.4-.29Z"/>
      <path class="cls-2" d="M91.36,16.63s-.03.03-.04.05c-.12-.02-.23-.04-.35-.06,0-.03,0-.05-.01-.08.09-.03.18-.08.26-.07.06.01.1.11.15.17Z"/>
      <path class="cls-2" d="M95.49,9.17c-.15,0-.29.03-.3-.17.16-.09.28-.03.3.17Z"/>
      <path class="cls-2" d="M93.61,11.54s-.04.09-.06.14c-.08-.06-.16-.12-.25-.18.02-.03.04-.07.06-.1.08.04.17.08.25.13Z"/>
      <path class="cls-2" d="M89.44,7.21c-.08.1-.16.19-.26.32-.06-.24.08-.29.22-.35.02.01.03.02.04.03Z"/>
      <path class="cls-2" d="M96.57,12.98c-.05-.06-.09-.1-.11-.13.05-.08.08-.14.12-.21.08.11.12.21,0,.34Z"/>
      <path class="cls-2" d="M93.91,11.49s-.04.06-.06.09c-.06-.06-.12-.12-.18-.18.02-.02.05-.05.07-.07.06.05.12.1.17.16Z"/>
      <path class="cls-2" d="M77.87,12.2c-.06.15-.12.31-.18.45.07.11.14.22.21.33-.01,0-.03.02-.04.03-.03-.06-.07-.12-.1-.18-.08-.13-.21-.13-.47-.04.03-.02.06-.05.09-.07.15-.13.36-.22.35-.48,0-.02.06-.05.09-.08.02.02.04.03.05.05Z"/>
      <path class="cls-2" d="M82.43,5.06c-.26.07-.51.14-.78.21.23-.2.49-.24.78-.21Z"/>
      <path class="cls-2" d="M91.36,10.12c-.23,0-.37-.21-.28-.41.1.14.19.27.28.41Z"/>
      <path class="cls-2" d="M77.82,13.63c-.06.02-.11.04-.17.06,0-.05,0-.1,0-.15,0-.06,0-.12-.03-.17-.09-.15-.09-.22.06-.33-.1.13-.03.24.04.36.01.02.01.06,0,.08-.08.14,0,.14.11.15Z"/>
      <path class="cls-2" d="M73.65,4.95c.11.02.21.03.32.05,0,.06,0,.11,0,.2-.11-.1-.3,0-.31-.25Z"/>
      <path class="cls-2" d="M77.63,12.05c-.19-.21.03-.43.04-.66-.01.22-.02.44-.04.66Z"/>
      <path class="cls-2" d="M77.45,12.14c-.07-.05-.13-.11-.2-.16.02-.02.05-.05.07-.07.1.04.2.09.18.23-.02.12-.06.23-.12.34.03-.12.05-.24.07-.34Z"/>
      <path class="cls-2" d="M72.84,11.12c-.04.09-.06.16-.07.19-.26.16-.5.31-.77.48.04-.07.07-.11.07-.11-.05-.05-.11-.09-.11-.14,0-.08,0-.19.05-.23.08-.08.18-.18.33-.07.05-.09.02-.31.21-.11.11-.15.19.04.31,0Z"/>
      <path class="cls-2" d="M77.33,15.37s-.02.03-.03.04c-.04-.03-.1-.05-.11-.09-.1-.19-.16-.38-.12-.6.02-.08-.03-.18-.02-.27.02-.16.12-.21.26-.13.06.03.12.05.15.07-.04.16-.05.37-.15.5-.16.19-.04.32.02.48Z"/>
      <path class="cls-2" d="M70.33,6.73c-.11.03-.23.06-.34.08-.02-.11-.03-.22-.08-.33-.01-.03-.1-.04-.15-.06-.05-.02-.12-.02-.13-.04-.02-.03,0-.1.02-.14.05-.07.11-.13.18-.21.02.14.07.24.24.2.02,0,.07.02.08.04.07.15.13.3.19.45Z"/>
      <path class="cls-2" d="M69.94,9.09c-.07,0-.12,0-.17,0-.01,0-.03,0-.04,0,0,0,0,0,0,0-.02,0-.04,0-.05-.02-.03-.02-.05-.03-.07-.06,0-.01-.02-.03-.02-.05,0,0,0-.02,0-.03,0-.03-.01-.06-.01-.1h0c.12-.01.24-.02.39-.03.14.08.06.19-.01.3Z"/>
      <path class="cls-2" d="M73.01,10.98q-.27.09-.38-.06c.1-.04.2-.08.3-.1.02,0,.05.11.08.16Z"/>
      <path class="cls-2" d="M74.88,10.05c.03.13-.19.33-.42.34.16-.13.29-.23.42-.34Z"/>
    </g>
    <line class="cls-2" x1="80.36" y1="4.61" x2="76.23" y2="10.69"/>
    <polyline class="cls-2" points="78.14 15.88 87.9 17.63 90.6 19.4 94.7 18.38"/>
    <polyline class="cls-2" points="79.03 24.22 82.79 25.04 84.93 26.08"/>
    <rect class="cls-1" x="67.6" y="5" width="33.41" height="35.03" rx="5.54" ry="5.54"/>
    <rect class="cls-1" x="67.77" y="29.41" width="33.09" height="10.87" rx="5.29" ry="5.29"/>
    <text class="cls-10" transform="translate(72.25 36.93)"><tspan x="0" y="0">NE</tspan><tspan class="cls-9" x="8.02" y="0">V</tspan><tspan class="cls-11" x="11.6" y="0">A</tspan><tspan class="cls-8" x="15.67" y="0">D</tspan><tspan class="cls-11" x="19.62" y="0">A</tspan></text>
    <g>
      <path class="cls-5" d="M80.4,17.54c-.4-.03-.77-.16-1.09-.41-.49-.4-.73-.92-.72-1.55,0-.21.04-.42.12-.61.16-.39.4-.72.76-.93.61-.37,1.25-.39,1.89-.07.06.03.1.09.16.11.13.05.21.17.32.25.04.03.05.1.09.12.07.04.09.12.14.17.13.16.2.34.25.53.27.99-.31,2.03-1.29,2.32-.01,0-.03,0-.04.01-.13.04-.26.08-.4.06-.06,0-.13,0-.19,0Z"/>
      <path class="cls-7" d="M80.4,17.54c.06,0,.13,0,.19,0,.14.01.27-.03.4-.06-.03.16-.02.33-.03.49-.02.31-.02.63-.04.94-.01.19,0,.38-.03.57-.01.08,0,.15,0,.23,0,.24-.01.49-.03.73-.02.24-.02.48-.03.72,0,.09,0,.17,0,.26,0,.03,0,.05.02.07.06.07.04.17-.04.22-.18.1-.37.1-.56.04-.06-.02-.14-.05-.15-.13,0-.03,0-.06.02-.08.04-.03.04.01.05.03,0,0,.02.01.02,0,.01-.02.01-.04,0-.05-.06-.08-.03-.18-.03-.27,0-.11.03-.21.02-.32-.03-1.03,0-2.06-.01-3.09,0-.08,0-.16.03-.24,0-.03.02-.05.06-.04.04.01.08.02.12,0Z"/>
    </g>
    <g>
      <path class="cls-6" d="M10.53,32.47c3.45.52,5.63-1.51,7.88-3.55,2.83-2.57,7.71-2.59,10.76.55,1.38,1.42,2.89,2.58,4.93,3,1.94.4,3.54-.28,5.02-1.3,1.08-.74,1.99-1.74,2.98-2.61,2.67-2.35,8.13-1.75,10.19.96,2.8,3.67,7.51,3.94,11.01.87,1.55-1.35,2.97-2.9,5.17-3.18.46-.06.93,0,1.67,0-.34.45-.41.64-.51.66-2.67.32-4.46,2.09-6.3,3.79-2.67,2.47-7.91,2.31-9.89-.19-.76-.96-1.99-1.55-2.98-2.35-2.46-1.98-6.63-1.2-8.36.66-.37.39-.83.7-1.19,1.1-2.99,3.33-8.6,3.44-11.98-.25-1.36-1.48-2.99-2.48-5.09-2.63-2.36-.16-4.16.9-5.74,2.46-1.69,1.66-3.57,2.93-6.03,2.98-.54.01-1.08-.2-1.62-.31.02-.22.05-.44.07-.67Z"/>
      <path class="cls-6" d="M32.17,25.65c-1.1-.81-2.3-1.52-3.28-2.46-1.98-1.88-4.22-3.04-6.92-2.27-1.38.4-2.69,1.33-3.81,2.28-1.72,1.45-3.42,2.76-5.78,2.88-2.1.11-3.99-.37-5.59-1.78-1.83-1.62-3.52-3.47-6.18-3.71-.1,0-.18-.21-.61-.75,1.13.11,1.99-.02,2.59.31,1.36.74,2.65,1.64,3.86,2.61,1.43,1.15,2.83,2.16,4.75,2.44,2.69.39,4.47-1,6.18-2.67,3.74-3.67,7.98-3.76,11.89-.26.9.81,1.9,1.51,2.83,2.29.19.16.28.46.41.7-.11.13-.23.26-.34.39Z"/>
      <path class="cls-6" d="M31.03,17.14c-.59-.26-1.22-.46-1.75-.8-1.55-.98-2.96-2.54-4.63-2.89-1.51-.32-3.34.51-4.92,1.12-.9.35-1.6,1.26-2.36,1.95-3.29,3-7.51,3.15-10.9.24-1.75-1.5-3.31-3.23-5.79-3.48-.09,0-.16-.22-.41-.61.7,0,1.22-.09,1.71.02,2.06.45,3.51,1.84,5.01,3.21,2.97,2.71,6.3,2.74,9.4.19.45-.37.92-.74,1.35-1.14,1.95-1.82,4.17-2.9,6.91-2.39,2.84.53,4.93,2.13,6.35,4.63l.04-.04Z"/>
      <path class="cls-6" d="M27.37,6.55c.39.23.79.43,1.16.69,1.8,1.29,3.25,3.09,5.72,3.32,2.04.19,3.78-.33,5.32-1.61.87-.72,1.66-1.53,2.55-2.21,2.77-2.11,6.54-2.09,9.29.02,1.36,1.04,2.67,2.14,3.99,3.23.16.14.23.39.52.92-.66-.16-1.05-.15-1.31-.33-.8-.56-1.64-1.11-2.31-1.8-3.82-3.92-7.78-3.4-11.41.2-3.36,3.32-7.8,3.47-11.31.33-.85-.76-1.66-1.57-2.48-2.35.09-.13.18-.26.27-.4Z"/>
      <path class="cls-6" d="M9.15,39.76c.39-.05.8-.2,1.15-.12,2.99.66,5.24-.61,7.22-2.67,1.93-2.01,4.28-2.98,7.05-2.48,1.22.22,2.54.65,3.49,1.4,2.2,1.76,4.06,3.99,7.28,3.96-.02.2-.05.41-.07.61-.62.03-1.36.3-1.85.06-1.47-.72-2.95-1.5-4.24-2.49-1.44-1.1-2.71-2.39-4.64-2.65-2.61-.36-4.7.56-6.47,2.43-2,2.12-4.41,3.24-7.38,2.83-.54-.07-1.05-.29-1.58-.43.01-.15.02-.29.03-.44Z"/>
      <path class="cls-6" d="M42.9,21.2c1.84-1.69,4.08-1.84,6.1-1.02,1.83.75,3.46,2.13,5.01,3.43,1.75,1.46,3.82,1.97,5.86,1.61,1.32-.23,2.46-1.49,3.67-2.31,1.37-.92,2.68-1.94,4.11-2.76.59-.33,1.42-.23,2.15-.33.04.15.09.31.13.46-.24.16-.46.42-.71.45-1.86.22-3.23,1.27-4.57,2.47-1.53,1.36-3.07,2.78-5.3,2.86-2.46.08-4.51-.53-6.43-2.39-2.34-2.26-5.18-3.96-8.76-2.49-.36.15-.83.02-1.25.02Z"/>
      <path class="cls-6" d="M35.96,40.56c1.88-1.42,3.6-2.59,5.17-3.94,2.48-2.14,5.24-2.85,8.33-1.78.96.33,1.76,1.14,2.62,1.76,1.67,1.2,3.34,2.41,4.93,3.91-.94-.34-1.99-.53-2.81-1.07-1.22-.8-2.23-1.91-3.4-2.78-2.72-2.02-6.03-1.79-8.64.39-1.45,1.21-3.05,2.24-4.63,3.27-.37.24-.96.16-1.57.25Z"/>
      <path class="cls-6" d="M17.74,7.92c0,1.87-1.64,2.38-2.83,2.87-3.26,1.36-6.27.89-8.87-1.78-1.39-1.43-2.99-2.71-5.14-2.92-.21-.02-.41-.2-.61-.31l.06-.46c.74.07,1.58-.07,2.2.24,1.21.6,2.43,1.3,3.43,2.2,4.15,3.72,6.45,3.87,10.99.57.23-.17.52-.25.79-.37l-.04-.04Z"/>
      <path class="cls-6" d="M57.03,10.86c.46-.08.91-.22,1.37-.23,2.32-.02,4.05-1.17,5.63-2.74,1.37-1.36,2.89-2.49,4.93-2.62.29-.02.59.08.96.49-.3.14-.61.27-.9.43-1.47.81-2.96,1.59-4.39,2.46-1.32.8-2.5,1.91-3.91,2.48-1.09.44-2.44.24-3.67.33,0-.2,0-.39,0-.59Z"/>
      <path class="cls-6" d="M41.57,15.85c-.51-.99.07-1.57.81-2.07,2.48-1.68,6.44-2.12,9.9,1.04.7.64,1.35,1.33,2.03,1.99-.16.17-.32.35-.47.52-.6-.5-1.26-.94-1.78-1.51-2.91-3.26-7.7-3.35-10.5.01,0,0,.01.02.01.02Z"/>
      <path class="cls-6" d="M58.18,40.51c.25-.27.31-.39.38-.4,3.04-.58,5.03-2.8,7.33-4.57,1.11-.85,2.46-1.27,4.17-.87-.35.31-.53.61-.73.62-2.28.18-3.81,1.63-5.32,3.1-1.57,1.52-3.39,2.32-5.84,2.12Z"/>
      <path class="cls-6" d="M.38,27.49c1.46-1.1,7.6,2.34,8.82,5.31-1.99-.41-2.98-1.95-4.36-2.89-1.4-.96-3-1.64-4.46-2.41Z"/>
      <path class="cls-6" d="M30.99,17.18c.52.08,1.06.09,1.55.26,2.66.94,5.02.54,7.2-1.3.4-.34,1.2-.22,1.82-.3,0,0-.01-.02,0,0-1.31.86-2.56,1.86-3.97,2.52-1.68.79-3.52.65-5.24-.03-.51-.2-.88-.78-1.31-1.19,0,0-.04.04-.04.04Z"/>
      <path class="cls-6" d="M42.23,21.86c-2.56,3.94-7.31,5.24-8.52,3.28,3.73,1.06,5.74-2.08,8.52-3.28Z"/>
      <path class="cls-6" d="M63.21,17.1c.15-2.49,4.91-5.26,6.84-4.11-1.27.51-2.52.85-3.6,1.49-1.11.66-2.04,1.62-3.24,2.61Z"/>
      <path class="cls-6" d="M.2,34.66c2.46-.5,5.34,1.02,5.79,3-1.92-.99-3.79-1.96-5.79-3Z"/>
      <path class="cls-6" d="M17.78,7.97c.56-.56,1.03-1.33,1.71-1.65,1.08-.51,2.29-.77,3.46-1.04.28-.06.64.24.94.55-2.12-.04-3.7.95-5.22,2.16-.18.14-.61-.03-.93-.06,0,0,.03.04.03.04Z"/>
      <path class="cls-6" d="M59.28,18.11c1-.42,1.99-.85,3.03-1.29.04,1.28-1.2,1.93-3.03,1.29Z"/>
    </g>
  </g>
</svg>