<?xml version="1.0" encoding="UTF-8"?>
<svg id="Calque_2" data-name="Calque 2" xmlns="http://www.w3.org/2000/svg" xmlns:xlink="http://www.w3.org/1999/xlink" viewBox="0 0 105.9 43.07">
  <defs>
    <style>
      .cls-1 {
        fill: #000;
      }

      .cls-1, .cls-2, .cls-3, .cls-4, .cls-5, .cls-6, .cls-7, .cls-8 {
        stroke-width: 0px;
      }

      .cls-9, .cls-10 {
        stroke: #4f82c3;
      }

      .cls-9, .cls-10, .cls-11 {
        stroke-miterlimit: 10;
      }

      .cls-9, .cls-11 {
        fill: none;
      }

      .cls-10 {
        fill: #fcf6de;
      }

      .cls-2, .cls-12 {
        fill: #1f2247;
      }

      .cls-3 {
        fill: #d9dae4;
      }

      .cls-11 {
        stroke: #000;
        stroke-width: .75px;
      }

      .cls-4 {
        fill: #95c676;
      }

      .cls-12 {
        font-family: ClearSans, 'Clear Sans';
        font-size: 6.78px;
      }

      .cls-13 {
        clip-path: url(#clippath);
      }

      .cls-5 {
        fill: #8795cb;
      }

      .cls-6 {
        fill: #020202;
      }

      .cls-7 {
        fill: #badcec;
      }

      .cls-8 {
        fill: #e9ebf6;
      }
    </style>
    <clipPath id="clippath">
      <rect class="cls-9" x="68.34" y="4.8" width="31.92" height="33.48" rx="5.46" ry="5.46"/>
    </clipPath>
  </defs>
  <g id="Tom">
    <g>
      <g class="cls-13">
        <g>
          <path class="cls-6" d="M76.17,54.07h0s-.07-.08-.1-.11l-.1-.1c-.33-.2-.66-.4-.97-.61-.34-.24-.67-.49-.99-.73-.1-.07-.2-.16-.32-.2-.31-.11-.62-.21-.93-.32-.03-.03-.08-.07-.11-.1-.24-.38-.47-.77-.72-1.14-.18-.28-.37-.55-.57-.82-.06-.03-.1-.08-.16-.11-.17-.1-.34-.21-.51-.32-.03-.03-.06-.06-.09-.1v-1.41h0s.06-.07.1-.11v.02c.1-.05.2-.09.31-.12.25.01.61-.36.71.18.07.43.34.53.71.49.1.11.23.21.31.35.17.26.32.54.46.81.11.12.21.26.32.4.06.05.1.1.15.16.32.2.62.42.94.62.2.09.42.18.63.28.17.05.33.09.5.15.03.02.08.06.11.08.07.05.14.09.19.12.16.1.32.2.47.29.09.1.19.19.29.29.12.08.26.16.38.24.03.02.08.06.11.09-.02.16.01.34-.06.47-.26.51-.24,1.14.1,1.56.2.29.41.58.63.89.16-.27.27-.45.37-.64.15-.2.28-.41.42-.62.21-.11.42-.25.63-.36.14-.07.27-.11.4-.16.03-.03.08-.07.11-.1.17-.07.34-.14.52-.21l.31-.2.41-.14c.71.07,1.42.15,2.14.18.21.01.5-.01.62-.14.43-.46.87-.84,1.57-.58.1.05.27-.07.31-.08-.08-.41-.15-.73-.21-1.07.09-.11.18-.24.26-.35.18-.17.35-.35.52-.52.07-.12.18-.23.2-.35.06-.31.07-.6.1-.9.03-.07.07-.14.11-.2.2-.1.41-.2.61-.32.42-.15.12-.49.2-.72.21-.2.41-.41.62-.61h.01c.14-.21.27-.43.41-.63.45-.26.92-.38,1.45-.29-.2.61-.16.68.49.69.32,0,.64.01.96.01v.31c-.4.16-.79.31-1.2.46.01.06.01.12.01.18.29.11.66.15.86.35.19.2.23.57.36.96.2-.08.45-.18.7-.28.85-.41,1.74-.63,2.68-.62.11.14.21.28.32.42.52.27,1.04.55,1.56.82.07.05.12.09.19.11.03.03.06.07.1.1l.1.1h.01s.07.08.09.11h.01l.1.1.1.1h0l.11.11h-.02c.11.07.23.18.34.19.42.05.84.06,1.25.08.55.35,1.16.2,1.75.23.06.05.12.08.17.11.01.01.01.02.02.02h0v-.02h.01c.42.37.81.73,1.45.59.78-.17.92-.1,1.25.53.05.09.16.16.25.21.36.18.73.35,1.1.53h0s.01,0,.02,0c.02.01.03.03.06.05.05.02.08.06.12.08h.01s.06.06.08.09h.01c.33.35.52.35,1.13-.03.27-.17.35-.36.02-.57-.07-.05-.12-.1-.19-.15-.07-.11-.15-.21-.21-.32-.08-.16-.19-.32-.25-.49-.1-.27-.26-.54-.24-.81.03-.49-.07-.88-.45-1.19-.29-.24-.27-.49-.02-.76.23-.25.42-.51.64-.78,0,0,.01,0,.01-.01.57-.31,1.12-.62,1.74-.97-.32-.19-.52-.32-.73-.45.12-.1.23-.2.37-.33-.12-.16-.23-.28-.35-.43h0s-.07-.08-.1-.11c-.17-.33-.31-.71-.8-.6h-.17c-.16-.08-.46-.19-.46-.24.1-.52-.24-.66-.6-.77.01-.17.03-.32.05-.46.16-.14.31-.26.47-.4-.14-.16-.26-.29-.32-.36.23-.38.4-.75.63-1.05.07-.1.33-.16.43-.1.18.12.32.33.46.5l.44.24c.07-.15.17-.29.19-.45.05-.21-.06-.55.05-.63.63-.42,1.3-.8,1.99-1.16.17-.09.43,0,.66-.03.11-.01.21-.1.32-.16.05-.03.07-.06.11-.09.17,0,.33-.01.5-.02.14.1.25.24.38.31.52.23,1.05.43,1.57.63.12.21.26.42.43.68.1-.18.17-.29.24-.41q.92.36,1.31.15c.08-.1.16-.19.24-.29.29-.03.59-.07.87-.1.25.26.26.27.54.08.4-.27.71-.26,1.02.1h.01c.37.19.73.36,1.15.58.09-.15.19-.31.31-.5.12.06.24.12.36.18.45.21.99.14,1.1-.17.16-.44-.06-.82-.57-1.02-.25-.09-.51-.16-.76-.24.09-.14.14-.32.26-.37.33-.17.54-.35.42-.76-.09-.28.03-.41.33-.43.33-.02.64-.09.97-.14,0-.06,0-.11.01-.16-.27-.12-.61-.18-.8-.38-.17-.18-.18-.51-.29-.85.55,0,.95.02,1.34-.01.28-.02.57-.12.86-.19.23-.06.45-.14.69-.19,1.16-.24,2.35-.44,3.51-.72.52-.12,1.01-.36,1.49-.59.55-.27,1.07,0,1.6.03.68.03,1.08.52.86,1.19-.11.31,0,.41.26.38.31-.03.61-.14.95-.23.18.34.38.7.59,1.05.17.28.37.27.55.02.09-.12.15-.28.16-.43.11-1.24.2-2.47.29-3.71.06-.75.11-1.48.17-2.21v-.1c.12-.93.25-1.88.35-2.81h.85v30.3h-60.47v-1.36c.05-.09.08-.18.12-.26.05-.05.07-.08.11-.1v-.02c.15-.27.28-.57.42-.84.1-.03.2-.08.31-.12h0c.25-.17.34-.35.01-.53-.03-.03-.08-.07-.11-.1l-.1-.1s-.07-.07-.1-.11v-.38h0s.07-.08.1-.1.06-.03.09-.05c.25.01.49.02.72.05h0s.01,0,.02,0c.08.07.16.11.24.17.02.01.03.02.06.03h.02c.14.01.28.03.42.06-.03-.2-.08-.38-.12-.59Z"/>
          <path class="cls-5" d="M96.16,46.74s-.08-.07-.11-.11c.18-.19.35-.36.53-.54h.01c.18-.07.34-.14.52-.19,0-.05-.01-.08-.01-.12.06-.02.1-.05.16-.07-.1-.07-.2-.18-.31-.19-.25-.02-.5.01-.89.03.25-.28.4-.44.53-.59l.1-.1c.24-.02.49-.1.7-.06.36.08.52-.06.6-.37.08-.35-.09-.73.12-1.07,0,0-.03-.02-.07-.06v-.41h0c.34-.14.18-.31-.01-.4-.31-.14-.63-.23-.96-.34-.45-.16-.96-.25-1.34-.52-.33-.24-.55-.38-.95-.19-.15.08-.38,0-.58-.01-.18-.09-.37-.18-.55-.28-.2-.35-.47-.66-.79-.89-.2-.15-.47-.19-.72-.28q.02-1.36-1.32-1.32c-.1,0-.23-.02-.31.03-.1.06-.17.17-.25.26-.58-.03-.88-.57-.79-1.14.42-.15.73-.26,1.05-.37.34-.36.02-.52-.24-.69-.12-.08-.26-.16-.38-.24-.08-.12-.15-.28-.26-.37-.49-.41-.77-.87-.72-1.54.05-.63-.46-.93-1.11-.92-.49.01-.98-.2-1.47-.34-.06-.02-.1-.17-.14-.26-.12-.49-.59-.84-.51-1.4.01-.06-.11-.12-.19-.2.03-.17.09-.33.11-.51.02-.15.01-.29.01-.44-.19-.58-.21-1.1.24-1.58.14-.16.12-.44.18-.67l2.08-.78c-.46-.11-.81-.19-1.16-.27-.08-.07-.15-.14-.23-.2-.07-.1-.15-.2-.21-.31h.01c-.1-.15-.2-.31-.33-.49l.26-.19s.05.06.08.08c.08-.06.16-.12.25-.19.63-.24,1.13-.64,1.42-1.27.15-.12.29-.26.44-.38.09-.06.18-.11.27-.18-.02-.02-.06-.06-.08-.09l.15-.08c.7-.26.77-.7.28-1.2h0c-.05-.07-.09-.12-.14-.18-.34-.23-.67-.44-1.01-.67-.19-.23-.05-.31.15-.41.42-.24.44-.45.06-.72-.25-.18-.32-.34-.16-.6.02-.03,0-.09-.01-.16-.11-.08-.23-.15-.29-.2,0-.2.05-.4-.01-.54-.12-.29-.15-.51.18-.69.09-.06.15-.34.09-.47-.08-.24-.26-.44-.41-.64-.14-.21-.27-.42-.42-.63-.02-.09-.06-.18-.08-.27l.44-.51c.17-.08.34-.17.51-.25.18-.08.35-.16.53-.23.85-.31,1.64-.98,2.6-.6.01,0,.02.01.03.01.02.01.03.02.06.03.05.02.1.05.16.08.01.01.03,0,.06,0,.1.01.21.02.33.03.41.14.81.27,1.23.41.42.45.94.67,1.55.69.07.02.15.03.23.05.31.09.61.19.92.29h.01s.06.07.09.1c.14.2.28.42.42.62.03.03.06.06.09.1h.01c.05.11.1.21.15.32-1.16-.23-2.34-.46-3.51-.69-.29-.06-.6-.09-.89-.14-.61-.26-1.21-.53-1.82-.79-.02.02-.05.03-.08.06.24.27.46.55.69.82.49.27.8.88,1.49.72.4.35.58.72.25,1.23-.09.15-.02.38-.02.58,0,.03-.01.08-.01.11.03-.01.06-.01.09-.02v.03c.06,1.25.11,1.31,1.36,1.29.21.47.66.57,1.1.63.15.35.43.21.58.09.17-.15.27-.41.31-.63,0-.08-.27-.26-.43-.28-.64-.09-.94-.38-1.01-1.05.34-.23.69-.19,1.05-.1.14.16.25.4.41.44.41.1.84.12,1.25.18h0s.01-.01.02,0c.23.11.45.28.69.31.09,0,.2-.03.31-.09.02,0,.06,0,.08.01.01-.02.03-.05.05-.08.07-.03.14-.07.19-.1-.17-.23-.34-.44-.52-.66-.03-.03-.07-.07-.1-.11v-.84c.2-.17.42-.35.62-.52.55-.08,1.12-.14,1.5-.66.15-.2,1.2-.1,1.4.06.23.18.49.32.73.47.75-1.34.67-1.85-.25-2.1.51-1.37.53-1.6.12-2.1l.03-.03c.62-.03,1.24-.07,1.86-.09.07.02.14.07.2.1.17.25.34.47.52.72l.1.1c-.07.09-.11.25-.19.27-.36.09-.76.12-1.12.25-.4.14-.45.58-.14.82.14.11.26.23.4.34.01.02.02.03.05.06,0,.01.01.01.02.02,0,.01.01.02.02.03h.01s.05.08.08.11c0,.01.01.01.02.02,0,.01.01.02.02.03h-.01c.05.07.09.19.12.19.51,0,1.03.02,1.53-.06.17-.03.42-.36.41-.53-.06-.61.26-.76.76-.84.18-.03.34-.2.52-.31.09-.08.19-.15.29-.21.14-.07.27-.15.41-.21.62-.23,1.23-.49,1.86-.64.26-.07.58.08.87.09.15.01.42-.06.43-.11.1-.7.72-.54,1.15-.8-.02.33-.05.57-.06.78-.21.07-.42.14-.67.23.41.41,1.62.57,1.88.24.54-.69,1.22-.62,1.97-.54.24.02.51-.16.77-.25l.1-.1c.24-.09.47-.17.69-.28.44-.23.77-.11.99.28-.08.14-.23.36-.2.38.16.14.35.25.54.32.1.02.34-.09.33-.15-.01-.5.34-.43.66-.49.17-.02.34-.2.45-.35.02-.03-.16-.21-.25-.34-.01,0-.01-.01-.01-.01h.02s-.08-.08-.11-.11l-.34-.68h0c.15-.28.02-.46-.25-.51-.26-.05-.52-.03-.77-.05-.09-.09-.2-.18-.28-.28-.14-.17-.26-.34-.4-.51.23-.01.46-.07.68-.02.29.05.57.18.85.28l.2.2c.11.11.23.31.35.32.73.1,1.47.12,2.2.23.41.06.8.17,1.19.32.45.16.88.37,1.31.59.36.18.64.12.9-.2.24-.31.47-.26.62.09.17.4.28.81.47,1.2.17.35.41.67.62.99.27.38.55.77.82,1.14.18.21.35.42.52.62.05.07.09.14.12.2h.01c.12.14.26.27.38.42.18.28.35.55.53.84h-.02.01c.03.06.06.08.09.12.21.69.42,1.37.63,2.05.14.32.28.62.42.94.03.07.07.12.1.2h0c.2.33.42.62.62.94.14.17.28.34.42.52l.2.31c.07.1.14.21.21.32h-.01c.31.59.61,1.16.93,1.75.17.75.34,1.48.51,2.21-.07.61-.17,1.22-.2,1.83-.05.62-.03,1.25-.05,1.88,0,.03-.01.06-.01.09v.05s.01-.02.01-.03c-.06.73-.11,1.47-.17,2.21-.06.12-.16.24-.17.37-.06.75-.06,1.51-.15,2.26-.06.5-.01,1.05-.41,1.55-.1-.17-.16-.27-.21-.36-.17-.27-.32-.54-.5-.78-.32-.41-.58.09-.88.08-.09-.01-.18.01-.32.01.02-.14.05-.24.06-.33.05-.63-.24-1.2-.66-1.27-.44-.07-.89-.17-1.32-.11-.47.07-.9.36-1.38.47-1.31.32-2.64.58-3.96.88-.37.09-.72.27-1.07.41-.53.03-1.06.06-1.58.09-.23.02-.51-.09-.62.11-.05.05-.07.11-.08.19-.06.4.03.75.46.93.09.03.18.1.38.23h-.66c-.36.01-.57.19-.51.55.06.37-.09.57-.42.71-.23.09-.38.27-.08.49.07.08.12.18.23.21.16.09.34.15.53.19.41.09.55.42.41.72-.17.37-.57.29-.85.12-.4-.23-.68-.25-.77.16-.4-.09-.77-.17-1.14-.25h-.01c-.1-.44-.47-.57-.96-.35-.19.08-.38.1-.59.16h-.01c-.35-.37-.61-.17-.89.1h.02c-.08.1-.16.19-.24.29-.66-.14-1.32-.27-1.98-.42-.05-.08-.07-.2-.14-.23-.6-.25-1.21-.47-1.82-.71-.17.01-.33.02-.5.02-.05.03-.07.06-.11.09-.63-.25-1.16.02-1.68.35-.45.29-.93.53-1.37.84-.11.08-.17.32-.18.49s.06.35.1.59c-.21-.02-.36-.03-.51-.06-.15-.17-.28-.37-.46-.5-.1-.06-.36,0-.43.1-.24.31-.41.67-.63,1.05.06.07.18.2.32.36-.17.14-.32.26-.47.4-.31.28-.33.52.1.73.1.06.23.21.23.32-.01.58.28.59.69.42h.17c.26.2.53.41.8.6.03.03.06.07.1.1h0c-.02.27-.06.51-.1.88.06.06.23.2.45.4-.34.17-.63.29-.9.46-.18.12-.31.29-.47.45,0,.01-.01.01-.01.01-.25.19-.51.36-.71.59-.43.46-.37.66.02,1.15.19.25.36.61.34.9-.05.62.21,1.03.67,1.38.07.1.15.2.21.32.07.05.12.1.19.15,0,.28-.09.5-.41.54-.25.02-.5.05-.75.06h-.01s-.06-.06-.08-.09h-.01s-.08-.06-.12-.08c-.02-.01-.03-.03-.06-.05-.01,0-.01-.01-.02-.01,0-.02.01-.03.01-.05-.59-.38-1.18-.76-1.66-1.31-.17-.19-.71-.05-1.08-.06-.15-.01-.31,0-.43-.06-.31-.11-.59-.25-.88-.37h-.01s0,0,0,0c-.01,0-.01-.01-.02-.01-.05-.03-.11-.07-.17-.11-.59-.02-1.2.12-1.75-.23-.12-.1-.25-.27-.37-.28-.4-.03-.8,0-1.2.01-.05-.05-.08-.08-.11-.1h0c-.05-.06-.07-.08-.1-.11l-.1-.1h-.01s-.07-.07-.09-.1h-.01s-.07-.08-.1-.11c-.05-.03-.07-.07-.1-.1-.07-.02-.12-.07-.19-.11-.35-.6-.94-.73-1.56-.82-.1-.14-.2-.28-.32-.42.14-.07.27-.12.38-.21.14-.09.26-.2.37-.32-.09-.41.24-.5.5-.62,0-.14-.01-.25-.01-.38ZM105.58,28.03c-.08-.19-.17-.4-.26-.6.05-.01.15-.06.25-.1-.02-.06-.03-.1-.06-.15-.17.06-.34.12-.5.18.11.19.24.37.36.57-.09.02-.23.05-.36.06,0,.06.01.11.01.17.19-.05.37-.08.55-.12ZM104.56,28.02c-.08-.19-.16-.38-.24-.59.02-.01.12-.06.21-.11-.01-.03-.02-.08-.05-.11-.14.05-.28.09-.42.14.09.19.18.37.28.59-.07.01-.2.03-.33.07.01.05.02.1.03.16.17-.05.33-.09.5-.14ZM102.33,28.04q-.02-.85-.63-.79v.75c.24.02.44.03.63.05Z"/>
          <path class="cls-7" d="M104.17,13.63c-.21-.05-.42-.11-.62-.14-.47-.03-.95-.03-1.42-.06-.12-.01-.25-.03-.37-.05-.03.05-.06.09-.09.15.15.12.31.24.44.37.11.12.28.28.27.42-.05.37-.16.76-.26,1.12-.06.19-.17.35-.28.57.34.19.96-.06.86.6-.06.37-.17.73-.29,1.25-.37-.29-.58-.6-.82-.63-.55-.07-1.19-.37-1.64.29-.1.15-.36.17-.54.26-.21.09-.42.19-.63.29-.2.17-.42.35-.62.52-.34.28-.29.55,0,.84.03.05.07.08.1.11.14.21.26.44.38.66-.02.03-.03.07-.06.1-.05.02-.08.05-.12.07-.33-.08-.67-.15-.99-.21t-.02-.01h0c-.18-.07-.36-.15-.54-.21l-1.12-.41h0c-.52-.44-.71-.42-1.05.11-.2.16-.18.32-.06.55.29.58.82.66,1.37.7q-.09.62-.76.62c-.44-.07-.88-.16-1.1-.63-.07-.05-.12-.11-.2-.15-.2-.08-.88-.71-.97-.9-.05-.08-.11-.16-.17-.24v-.03s-.07-.06-.09-.09c0-.19-.07-.43.02-.58.33-.51.15-.88-.25-1.23-.32-.19-.62-.4-.94-.58-.17-.08-.37-.1-.55-.15-.23-.27-.45-.55-.69-.82.03-.02.06-.03.08-.06.61.26,1.21.53,1.82.79.34.14.68.32,1.03.37,1.31.24,2.62.42,3.93.63.67-.35,1.34-.69,2-1.06.38-.2.46-.51.35-.96-.11-.49-.37-.81-.79-1.05-.53-.31-1.05-.64-1.59-.94-.34-.18-.72-.28-1.07-.46-.59-.29-1.15-.69-1.77-.93-.59-.24-1.24-.33-1.86-.49-.07-.01-.15,0-.21,0-.46.02-.94.07-1.41.08-.1,0-.2-.11-.33-.18.29-.11.52-.2.75-.29-.24-.21-.43-.27-.61-.36-.33-.18-.62-.28-.89.11-.05.08-.32.1-.4.05-.42-.32-.81-.29-1.24.01-.09-.15-.17-.27-.24-.38.35-.16.67-.32.98-.47.1-.05.27-.11.27-.16-.01-.12-.07-.27-.16-.35-.67-.6-1.49-.7-2.38-.72-.02-.46-.35-.55-.76-.53-.38.03-.52.26-.55.66-.02.25-.26.46-.41.7-.05-.02-.08-.05-.12-.07v-.86s-.09-.06-.14-.08c-.47.47-.96.96-1.44,1.45-.03-.05-.08-.08-.11-.12.28-.37.58-.73.84-1.12.1-.12.12-.31.18-.46-.21.02-.43.03-.64.08-.19.06-.4.24-.57.21-.5-.08-.53.19-.52.47-.31.02-.59.05-.87.08h0l-.03-.47c-.14.07-.27.16-.42.21-.18.06-.38.09-.58.15-.14.03-.38.08-.38.14-.01.17.06.34.14.51.03.08.14.12.23.2-.4-.01-.76-.03-1.2-.06.1.27.15.4.19.51-.23-.05-.35-.19-.52-.27-.15-.06-.33-.02-.5-.03.17.37.55.54.2.97-.08-.19-.15-.34-.21-.5-.17.01-.33.01-.44.02-.1-.2-.19-.52-.26-.52-.34.01-.68.11-1.03.19.09.26.14.41.15.46-.24.18-.44.34-.66.51-.41-.44-1.06-.02-1.4.85h.67c.03.11.07.24.09.31-.25.08-.46.15-.66.2-.23-.1-.45-.2-.7-.31.03-.08.12-.21.12-.34-.01-.07-.23-.2-.25-.18-.4.32-.85.6-1.13,1.01-.35.47-.72.84-1.3,1.02-.18.07-.34.23-.51.35.03.06.07.12.1.18.53-.25,1.04-.55,1.59-.75.54-.19,1.12-.26,1.74-.4-.07.26-.11.45-.16.61-.19-.08-.4-.24-.46-.19-.33.23-.75.45-.89.79-.27.59-.68,1.06-1.03,1.58-.23.34-.68.57-.61,1.08.01.06-.25.16-.38.23-.12.06-.36.08-.38.16-.1.47-.16.96-.23,1.44-.4.12-.82.26-1.25.4.21.34.38.62.55.89-.23-.02-.44-.03-.67-.06-.78.32-1.32.86-1.62,1.65-.09-.08-.18-.16-.27-.23-.24-.19-.46-.14-.57.14.03.11.06.23.1.36-.44.15-.88.28-1.31.46-.08.03-.09.21-.14.33l.02.02h.03c-.34.17-.66.38-1.02.49-.35.1-.54.27-.52.57-.2.06-.36.09-.52.14-.37.34-.29.63-.02.8.06.33.09.54.12.75-.28.09-.44.24-.2.53v.73c.17.07.34.14.44.18-.05.07-.09.12-.14.19-.01,0-.01-.01-.01-.01v.02c-.09.1-.17.21-.21.33-.07.23-.06.49-.03.72.01.05.21.15.28.12.16-.07.28-.2.42-.32.12.01.24.03.4.05-.14.24-.21.43-.35.57-.44.41-.45.4.05.73,1.62.93,2,1.04,3.22-.1.03-.03.07-.07.11-.1.03-.05.07-.07.1-.1.14-.14.27-.28.41-.42.57.05.96-.12.96-.77.18.2.34.37.49.54.03.01.05.02.08.02h0c.08.37.15.76.23,1.13h0s.02.07.05.1l.07.07s.05.05.08.05c.15.37.29.76.43,1.14.14.27.27.55.42.82.03.03.06.06.09.1h.01s.07.07.09.1h.01c-.01.34-.01.68-.01,1.01h-.01v.02c-.11.09-.2.18-.32.28-.1-.11-.17-.19-.24-.27-.15.07-.28.11-.4.18-.17.11-.44.21-.47.36-.03.18.12.4.2.6.08.11.17.23.26.35-.18.06-.32.09-.46.12-.01.06-.03.1-.06.15.19.12.47.4.57.34l.33.43c-.24.19-.49.38-.72.57-.1-.21-.2-.42-.31-.63h-.02c-.63,0-.96-.38-1.2-.89h0s-.02-.05-.05-.06c-.03-.08-.07-.16-.08-.16.36.06.71.11,1.06.18.02-.18.14-.44.06-.53-.18-.19-.44-.31-.77-.51.16-.16.37-.37.61-.59.09-.09.28-.17.28-.23-.02-.14-.11-.31-.23-.36-.34-.18-.42-.42-.29-.77.07-.18.18-.35.2-.54.01-.15-.06-.4-.15-.44-.15-.06-.41-.03-.51.08-.27.26-.41.69-.87.71l.03.24s-.07.05-.1.08c-.05-.02-.09-.03-.15-.06-.19-.27-.38-.24-.57,0-.43.57-.47,1.49-.1,2.11.18.52.36,1.03.54,1.55.02.1.06.21.08.32.07.2.14.4.19.57-.15.12-.27.24-.4.35h0c-.2-.05-.41-.08-.61-.11-.57-.23-.79-.16-.98.2-.57.12-1.04.24-1.5.34-.1.23-.21.45-.33.7-.03-.01-.14-.05-.19-.1-.23-.23-.43-.15-.54.08-.23.45-.42.92-.62,1.37-.06.06-.11.11-.16.17-.06.05-.1.09-.15.15-.1.07-.2.14-.31.21-.18.1-.35.19-.53.29-.34.11-.69.21-1.03.33h-1.07c.15-.06.31-.12.45-.2.1-.05.16-.19.23-.29-.1-.07-.2-.16-.33-.19-.08-.03-.19-.01-.35-.01.15-.24.26-.43.38-.61.42-.17.81-.45.68-.92-.08-.26-.49-.45-.79-.58-.15-.06-.38.11-.59.18-.05-.07-.11-.12-.14-.2-.16-.53-.28-1.06-.47-1.57-.1-.26-.31-.55-.53-.67-.46-.2-.61-.54-.71-.97-.14-.62-.92-1.12-1.57-1.04-.02-.03-.06-.08-.09-.11.03-.08.06-.15.08-.24.72-.35.8-1.07,1.03-1.72.11-.33-.05-.47-.33-.49-.52-.01-1.05.03-1.58.06-.1,0-.21-.01-.34-.02.25-.28.46-.52.68-.76.1-.34.6-.64.06-1.14-.21.72-.72.66-1.23.61-.16-.01-.33.07-.5.1-.03.03-.08.07-.11.1s-.08.06-.1.09c-.21.49-.42.96-.63,1.45-.01.01-.12-.01-.19-.02,0-.03-.01-.06-.05-.06-.21-.26-.47-.25-.62.02-.05.08.16.35.29.49.12.1.32.14.47.2-.05.09-.08.16-.1.21-.1.17-.31.35-.28.5.05.21.26.4.4.59-.1.05-.32.12-.51.26-.09.06-.11.21-.16.32.11.01.24.06.34.03.15-.05.26-.14.32-.17.16.19.27.46.42.49.19.02.42-.15.78-.31-.12.32-.19.57-.31.8-.08.15-.11.27-.11.36l-.43.05c-.26-.43-.92-.72-1.38-.57-.28.1-.59.09-.89.11-.15.02-.32-.05-.45,0-.15.06-.33.18-.36.31-.02.11.15.26.23.4.06.09.09.18.14.27-.36.14-.73.27-1.11.4-.21-.06-.43-.11-.66-.17.02.17.05.34.06.5,0,.11-.01.23,0,.34,0,.14.02.26.03.4.11.09.23.2.35.28.27.15.23.33.07.53-.17.23-.31.51-.53.68-.25.19-.38.35-.38.51h-.95V-3.78h81.05v1.13c-.89-.03-1.67.28-2.45.67-.35.17-.76.26-1.15.37-.24.07-.49.14-.73.17-.57.09-1.16.28-1.7.17-.42-.09-.73-.06-1.11.07-.69.24-1.4.42-2.09.63-.43.14-.96.15-1.13.7-.38.07-.84.05-.82.62-.23.01-.44.03-.67.03-.16.01-.38-.07-.45.01-.1.11-.12.33-.11.5.01.15.12.29.14.29-.24.32-.42.54-.59.77-.28.38-.46.82-1.07.89-.58.08-.64.47-.31.88-.06.19-.09.47-.16.49-.61.05-.86.68-1.4.82-.14.03-.28.06-.49.1.24.28.42.51.58.7-.21.17-.45.26-.51.41-.1.29-.26.37-.53.36-.14,0-.32.01-.4.09-.17.18-.4.4-.4.61-.01.14.31.34.52.42.19.08.43.06.51.06.1.32.12.58.25.76.07.09.31.07.46.1.03-.18.07-.37.1-.6.27.17.79.14.5.76-.03.08.18.38.33.42.71.16,1.44.25,2.15.37.07,0,.15.01.21.01.29.02.6.08.89.08l1.73.45c.06.23.07.51.2.68.12.15.4.17.6.25.18.07.38.11.55.2s.29.21.45.34h.01c.11.24.23.46.34.69.03.03.07.08.11.11h-.02s0,.01.01.01c.2.4.02.52-.37.55-.35.01-.8-.02-.62.58q-.61-.02-.53-.51s.02.01.02.02c.12-.25.12-.29-.11-.43-.49-.29-.95-.18-1.59.41l-.1.1c-.44.01-.88.05-1.32.05-.47-.01-.93,0-1.29.36-.43.43-1.13.51-1.68.18.19-.05.37-.07.49-.09.07-.38.14-.7.23-1.15-.37.1-.71.24-1.05.28-.46.07-.54.41-.61.79-.62-.5-2.2-.16-2.96.6-.14.07-.27.15-.41.21-.1.07-.2.14-.29.21-.2.06-.38.15-.59.18-.76.15-.77.14-.81.88-.02.31-.1.5-.45.49-.49-.01-.97-.01-1.47-.01-.01-.01-.02-.02-.02-.03-.01-.01-.02-.01-.02-.02-.03-.03-.06-.07-.08-.1h-.01s-.02-.03-.02-.05c-.01-.01-.02-.01-.02-.02-.02-.02-.03-.03-.05-.06-.14-.11-.26-.23-.4-.34-.11-.38-.08-.66.41-.72.41-.06.81-.17,1.29-.27-.08-.11-.16-.23-.25-.35l-.1-.1c-.18-.25-.35-.47-.52-.72-.07-.03-.14-.08-.2-.1ZM108.78,12.78c.26-.16.18-.28-.05-.4h-.01c-.34-.16-.68-.37-1.04-.46-.45-.11-1.08.28-1.12.68-.05.45.29.68.66.79.2.06.47,0,.68-.09.32-.14.59-.34.88-.52Z"/>
          <path class="cls-3" d="M106.91,15.17c.2-.03.38-.12.59-.18-.18.1-.34.27-.52.31-.5.08-.81.23-.76.84.01.17-.24.5-.41.53-.5.08-1.02.06-1.53.06-.03,0-.08-.12-.12-.19h.01c.5,0,.98,0,1.47.01.35.01.43-.18.45-.49.05-.75.06-.73.81-.88Z"/>
          <path class="cls-8" d="M105.32,27.43c.09.2.18.41.26.6-.18.05-.36.08-.55.12,0-.06-.01-.11-.01-.17.14-.01.27-.03.36-.06-.12-.19-.25-.37-.36-.57.16-.06.33-.12.5-.18.02.05.03.09.06.15-.1.05-.2.09-.25.1Z"/>
          <path class="cls-3" d="M105,14.56c.09.12.17.24.25.35-.47.1-.88.21-1.29.27-.49.07-.52.34-.41.72-.32-.25-.26-.69.14-.82.36-.12.76-.16,1.12-.25.08-.02.12-.18.19-.27Z"/>
          <path class="cls-8" d="M104.32,27.43c.08.2.16.4.24.59-.17.05-.33.09-.5.14-.01-.06-.02-.11-.03-.16.12-.03.26-.06.33-.07-.1-.21-.19-.4-.28-.59.14-.05.28-.09.42-.14.02.03.03.08.05.11-.09.06-.19.1-.21.11Z"/>
          <path class="cls-3" d="M104.17,13.63c-.62.02-1.24.06-1.86.09-.11-.03-.21-.06-.33-.09-.01-.01-.02-.03-.03-.05v.02s.02.01.03.02c.1.05.2.08.29.12.41.5.38.73-.12,2.1.92.25.99.76.25,2.1-.25-.16-.51-.29-.73-.47-.2-.16-1.25-.26-1.4-.06-.38.52-.95.58-1.5.66.21-.1.42-.2.63-.29.18-.09.44-.11.54-.26.45-.67,1.08-.36,1.64-.29.25.03.45.34.82.63.12-.52.24-.88.29-1.25.1-.66-.52-.41-.86-.6.11-.21.23-.37.28-.57.1-.36.21-.75.26-1.12.01-.14-.16-.29-.27-.42-.14-.14-.29-.25-.44-.37.03-.06.06-.1.09-.15.12.01.25.03.37.05.47.02.95.02,1.42.06.2.02.41.09.62.14Z"/>
          <path class="cls-5" d="M102.31,13.73l-.03.03c-.09-.05-.19-.08-.29-.12.11.03.21.06.33.09Z"/>
          <path class="cls-8" d="M101.7,27.25q.61-.06.63.79c-.19-.01-.4-.02-.63-.05v-.75Z"/>
          <path class="cls-5" d="M101.94,13.59s.02.03.03.05c-.01-.01-.02-.01-.03-.02v-.02Z"/>
          <path class="cls-2" d="M93.18,15.51c-.42-.14-.82-.27-1.23-.41-.11-.01-.23-.02-.33-.03-.07-.02-.15-.06-.21-.08-.02-.01-.03-.02-.06-.03-.01,0-.02-.01-.03-.01-.31-.15-.62-.32-.85-.23-.78.28-1.53.68-2.28,1.05-.17.08-.34.17-.51.25-.2.18-.4.34-.6.53h-.01s-.02.06-.03.09c-.16.21-.32.41-.5.62h0c-.17.25-.35.49-.51.72-.01,0-.01.01-.01.01-.18.11-.36.23-.52.37-.21.19-.4.21-.51-.08-.11-.27-.21-.54-.32-.81-.2-.55-.42-1.11-.62-1.66l-.52-.52c-.68-.14-1.37-.27-2.05-.41h-.21c-.57-.17-.85.16-1.05.61-.01,0-.01.01-.01.01-.07.09-.14.2-.2.29h0c-.1.16-.2.28-.32.43-.09.14-.2.27-.31.41-.37.23-.59.53-.52.99s-.1.86-.42,1.19c-.34.07-.68.15-1.02.21l-1.05-.2c-.98-.05-1.49.19-1.75.81-.18.32-.36.61-.53.93h0c-.49.67-1.05.68-1.68.24-.09-.03-.19-.07-.28-.1-.58-.05-1.15-.09-1.72-.12-.25-.01-.5.05-.75.07-.17-.27-.34-.55-.55-.89.43-.14.86-.27,1.25-.4.07-.47.12-.96.23-1.44.02-.08.26-.1.38-.16.14-.07.4-.17.38-.23-.07-.52.38-.75.61-1.08.35-.52.76-.99,1.03-1.58.15-.34.57-.57.89-.79.07-.05.27.11.46.19.05-.16.09-.35.16-.61-.62.14-1.2.2-1.74.4-.55.19-1.06.5-1.59.75-.03-.06-.07-.12-.1-.18.17-.12.33-.28.51-.35.58-.18.95-.54,1.3-1.02.28-.41.73-.69,1.13-1.01.02-.02.24.11.25.18,0,.12-.09.26-.12.34.25.1.47.2.7.31.19-.06.41-.12.66-.2-.02-.07-.06-.19-.09-.31h-.67c.34-.87.99-1.29,1.4-.85.21-.17.42-.33.66-.51-.01-.06-.06-.2-.15-.46.35-.08.69-.18,1.03-.19.07,0,.16.32.26.52.11-.01.27-.01.44-.02.07.16.14.31.21.5.35-.43-.03-.6-.2-.97.17.01.35-.02.5.03.17.08.29.23.52.27-.05-.11-.09-.24-.19-.51.44.02.8.05,1.2.06-.09-.08-.19-.12-.23-.2-.08-.17-.15-.34-.14-.51,0-.06.25-.1.38-.14.19-.06.4-.09.58-.15.15-.06.28-.15.42-.21.01.16.02.32.03.46h0c-.05.08-.08.15-.11.21-.19.03-.4.07-.63.1.16.34.27.58.41.86.09-.38.16-.68.24-.96l.1-.2c.28-.03.57-.06.87-.08-.01-.28.02-.55.52-.47.17.02.37-.16.57-.21.21-.05.43-.06.64-.08-.06.16-.08.34-.18.46-.26.38-.55.75-.84,1.12.03.05.08.08.11.12.47-.49.96-.97,1.44-1.45.05.02.09.06.14.08v.86s.08.05.12.07c.15-.24.38-.45.41-.7.03-.4.17-.62.55-.66.41-.02.73.07.76.53.89.02,1.72.12,2.38.72.09.08.15.23.16.35,0,.05-.17.11-.27.16-.32.16-.63.32-.98.47.07.11.15.24.24.38.43-.31.82-.33,1.24-.01.08.06.35.03.4-.05.27-.4.57-.29.89-.11.18.09.37.15.61.36-.23.09-.45.18-.75.29.12.07.23.18.33.18.47-.01.95-.06,1.41-.08.07,0,.15-.01.21,0,.62.16,1.28.25,1.86.49.62.24,1.19.63,1.77.93.35.18.73.28,1.07.46.54.29,1.06.63,1.59.94.42.24.68.57.79,1.05.11.45.03.76-.35.96-.66.37-1.33.71-2,1.06-.02-.02-.05-.05-.08-.06-.2-.15-.42-.29-.62-.44h-.01s-.06-.07-.09-.1c-.14-.2-.28-.42-.42-.62-.03-.03-.07-.07-.09-.1h-.01c-.23-.36-.57-.33-.92-.29-.08-.01-.16-.02-.23-.05-.52-.23-1.03-.46-1.55-.69ZM86.46,12.31c.25-.43.08-1.04-.29-1.33-.38-.32-1.03-.34-1.42-.05-.41.28-.64.86-.43,1.25.31.59.69,1.12,1.1,1.77.41-.62.77-1.12,1.05-1.65ZM86.39,10c.03-.15.06-.29.09-.45-.05,0-.08,0-.12-.01-.01.16-.02.31-.03.46h.07Z"/>
          <path class="cls-3" d="M98.24,19.56c.18.21.35.43.52.66-.06.03-.12.07-.19.1.02-.03.03-.07.06-.1-.12-.21-.25-.44-.38-.66Z"/>
          <path class="cls-3" d="M98.57,20.31s-.03.06-.05.08c-.02-.01-.06-.01-.08-.01.05-.02.08-.05.12-.07Z"/>
          <path class="cls-3" d="M97.45,20.17c.33.07.67.14.99.21-.1.06-.21.09-.31.09-.24-.02-.46-.19-.69-.31Z"/>
          <path class="cls-3" d="M98.14,18.61v.84c-.29-.28-.34-.55,0-.84Z"/>
          <path class="cls-8" d="M98.03,42.49c.19.09.35.26.01.38h-.01c-.07-.09-.12-.25-.23-.28-.49-.17-.98-.28-1.47-.44-.25-.08-.53-.15-.7-.32-.27-.26-.49-.4-.85-.18-.26.15-.5.1-.59-.23.19.01.43.09.58.01.4-.19.62-.05.95.19.38.27.89.36,1.34.52.33.11.66.2.96.34Z"/>
          <path class="cls-8" d="M98.05,42.88v.41h-.01c-.29-.11-.29-.16,0-.41h.01Z"/>
          <polygon class="cls-8" points="98.05 42.87 98.05 42.88 98.03 42.88 98.05 42.87"/>
          <path class="cls-5" d="M98.03,43.29c-.12.14-.26.28-.38.42.33.75.25.86-.57.86-.12.01-.26.18-.4.28l-.1.1c-.19.16-.41.31-.6.47-.08.07-.15.17-.23.26-.66.19-1.32.35-1.97.59-.27.1-.49.36-.72.55-.07.03-.12.08-.19.11,0,.01-.01.01-.01.01-.34.33-.19.72.31.89h0c.15.06.29.17.45.19.24.03.49.01.67.01-.54.17-1.14.34-1.72.54-.14.05-.23.2-.34.31-.23.02-.45.03-.58.05-.1-.31-.11-.62-.28-.79-.17-.19-.5-.24-.75-.34.32-.21.6-.4.87-.59.1-.07.2-.12.31-.19-.1-.03-.2-.07-.31-.11-.32,0-.64-.01-.96-.01-.14-.1-.27-.19-.35-.25-.01-.21.03-.46-.06-.55-.31-.31-1.34,0-1.53.41-.14.2-.27.42-.41.62h-.01c-.21.16-.42.32-.63.47-.36.12-.71.24-1.16.38-.03-.01-.07-.02-.09-.05.09-.24.14-.35.18-.46.08-.08.23-.16.24-.25.08-.76.54-.76,1.11-.58.01,0,.06-.05.17-.12-.12-.23-.25-.46-.38-.7l-.1-.1c-.07-.1-.14-.2-.2-.32-.19-.42-.25-.93-.79-1.11-.24-.08-.46-.21-.69-.32-.18-.05-.4-.19-.55-.14-.72.21-1.42.49-2.12.76-.03,0-.03.07-.05.12-.81-.14-1.62-.26-2.42-.43-.49-.1-.59-.42-.33-.85.1-.16.28-.34.25-.49-.09-.54.24-.81.57-1.13q.84-.81.41-1.88c.14-.1.27-.19.42-.28l.1-.1c.21-.08.44-.24.66-.21.63.06,1.27.2,1.91.28,1.23.17,2.47.31,3.74.46.08-.24.17-.47.25-.71.06-.05.12-.09.18-.14.33-.05.66-.09.98-.16.16-.03.29-.11.44-.17.36-.03.71-.09,1.07-.11.52-.02.67.15.67.67,0,.17.09.32.12.47h.01c.18.16.35.29.52.43.23.16.6.29.63.47.09.63.49.59.92.55.09.33.33.37.59.23.36-.21.58-.08.85.18.17.17.45.24.7.32.49.16.98.27,1.47.44.1.03.16.19.23.29-.29.25-.29.29,0,.41Z"/>
          <path class="cls-3" d="M96.88,19.94c.18.07.36.15.54.23-.42-.06-.85-.08-1.25-.18-.16-.05-.27-.28-.41-.44h0c.37.12.75.26,1.12.4Z"/>
          <path class="cls-3" d="M97.11,17.8s.06.03.08.06c-1.31-.21-2.62-.4-3.93-.63-.35-.06-.69-.24-1.03-.37.29.05.6.08.89.14,1.18.23,2.35.46,3.51.69.16.05.32.08.47.12Z"/>
          <path class="cls-4" d="M97.11,17.8c-.16-.05-.32-.08-.47-.12-.05-.1-.1-.2-.15-.31h0c.2.14.42.28.62.43Z"/>
          <path class="cls-3" d="M95.27,21.52q.67,0,.76-.62c-.54-.05-1.07-.12-1.37-.7-.12-.24-.15-.4.06-.55.07.67.36.96,1.01,1.05.16.02.43.2.43.28-.03.23-.14.49-.31.63-.15.12-.43.26-.58-.09Z"/>
          <path class="cls-4" d="M95.87,16.53h0c-.31-.09-.61-.19-.92-.28.35-.03.69-.07.92.28Z"/>
          <path class="cls-3" d="M95.76,19.55c-.36-.09-.71-.12-1.05.1.34-.53.53-.55,1.05-.1Z"/>
          <path class="cls-4" d="M93.18,15.51c.52.23,1.03.46,1.55.69-.61-.02-1.13-.24-1.55-.69Z"/>
          <path class="cls-8" d="M94.2,41.42c-.43.03-.82.08-.92-.55-.03-.18-.41-.32-.63-.47-.17-.14-.34-.27-.52-.42h0c.25.08.52.12.72.27.32.24.59.54.79.89.18.1.37.19.55.28Z"/>
          <path class="cls-3" d="M94.17,20.89c-1.24.02-1.3-.03-1.34-1.29.06.08.12.16.17.24.09.19.77.82.97.9.08.03.14.1.2.15Z"/>
          <path class="cls-3" d="M92.73,19.48s.05.07.08.09c-.03.01-.06.01-.09.02,0-.03.01-.08.01-.11Z"/>
          <path class="cls-3" d="M92.51,17.67c-.69.16-1.01-.45-1.49-.72.18.05.38.07.55.15.32.18.62.38.94.58Z"/>
          <polygon class="cls-5" points="92.14 39.97 92.14 39.98 92.12 39.97 92.14 39.97"/>
          <path class="cls-8" d="M90.81,38.64q1.34-.03,1.32,1.32h-.01c-.03-.16-.12-.31-.12-.47,0-.52-.15-.69-.67-.67-.36.02-.71.08-1.07.11.08-.09.15-.2.25-.26.08-.06.2-.03.31-.03Z"/>
          <path class="cls-4" d="M91.62,15.07s-.05.01-.06,0c-.06-.03-.11-.06-.16-.08.07.02.15.06.21.08Z"/>
          <path class="cls-4" d="M91.31,14.95c-.96-.38-1.75.29-2.6.6-.18.07-.35.15-.53.23.76-.37,1.5-.77,2.28-1.05.23-.09.54.08.85.23Z"/>
          <path class="cls-8" d="M90.28,36.73c.26.17.58.33.24.69l-.07-.07c-.09-.18-.17-.35-.25-.53.02-.03.06-.06.08-.09Z"/>
          <path class="cls-8" d="M90.45,37.36l.07.07c-.32.11-.63.23-1.05.37-.09.58.21,1.11.79,1.14-.15.06-.28.14-.44.17-.33.07-.66.11-.98.16l-.08-.08c.2-.12.42-.25.71-.42-.07-.26-.17-.58-.23-.9-.08-.38.08-.47.45-.42.24.03.5-.06.76-.09Z"/>
          <path class="cls-5" d="M82.7,36.34l.1-.1c.41-.07.87-.05.88-.68,0-.1.17-.26.29-.32.53-.25.69-.7.76-1.22.19-.05.38-.09.57-.17.2-.09.38-.23.58-.34.43.09.86.19,1.29.28.19.05.4.15.57.11.7-.12,1.05.11.99.8-.07.9.59,1.33,1.11,1.86.12.08.25.17.37.25.08.18.16.35.25.53-.26.03-.52.12-.76.09-.37-.06-.53.03-.45.42.06.33.16.64.23.9-.29.17-.51.29-.71.42-.06.05-.11.1-.17.15-.12.18-.24.36-.38.57-1.15-.15-2.34-.28-3.53-.44-.63-.09-1.28-.25-1.91-.28-.25-.02-.51.21-.76.33-.03.03-.07.06-.09.09-.32.14-.47.09-.44-.31.01-.14-.11-.28-.17-.42.03-.17.07-.33.1-.49.54-.31.61-.58.27-1.13-.06-.2-.11-.41-.16-.57.42-.14.77-.23,1.13-.34.01-.01.03-.01.05-.01Z"/>
          <path class="cls-8" d="M90.28,36.73s-.06.06-.08.09c-.12-.08-.25-.17-.37-.25.02-.03.05-.06.07-.08.12.08.26.16.38.24Z"/>
          <path class="cls-8" d="M89.9,36.5s-.05.05-.07.08c-.52-.53-1.18-.96-1.11-1.86.06-.69-.29-.93-.99-.8-.17.03-.37-.07-.57-.11-.43-.09-.86-.19-1.29-.28-.02-.03-.06-.06-.08-.09.05-.19.19-.47.12-.55-.41-.41-.34-.93-.43-1.4h.01c.08.08.2.15.19.2-.08.57.38.92.51,1.4.03.09.08.24.14.26.49.14.98.35,1.47.34.64-.01,1.15.28,1.11.92-.05.67.24,1.13.72,1.54.11.09.18.25.26.37Z"/>
          <path class="cls-8" d="M89.28,22.72c.49.5.42.94-.28,1.2.38-.37.58-.72.2-1.13.03-.03.06-.06.08-.07Z"/>
          <path class="cls-5" d="M89.2,22.79c.37.41.18.76-.2,1.13l-.15.08c-.08.07-.17.14-.26.19-.15.14-.29.26-.45.38-.47.43-.94.85-1.41,1.28-.09.06-.18.11-.26.18l-.26.19c-.23.58-.75.52-1.27.6-.73.12-1.44.38-2.16.59-.2.02-.42.09-.61.07-.55-.09-1.11-.19-1.66-.33-.35-.08-.69-.23-1.03-.34-.29-.28-.24-.6-.06-.9.44-.75-.09-1.41-.16-2.11,0-.03-.14-.07-.2-.09.15-.5.24-1.01.9-1.11.42-.06.5-.4.44-.78.34-.03.7-.02.73-.51.64-.05,1.04-.34,1.13-.84.06-.01.12,0,.15-.02.21-.27.19-.82.78-.67.01,0,.1-.2.11-.31.07-.69-.19-.97-1.13-1.27-.1-.18-.21-.36-.32-.53.02-.18.06-.36.06-.55,0-.26.02-.53-.05-.78-.1-.46-.26-.92-.4-1.37.68.1,1.37.21,2.05.32l.52.52c.03.17.07.35.12.52.12.43.25.85.4,1.27.12.33.26.67.45.97.06.09.36.15.44.08.21-.18.37-.43.55-.66.46-.03.46-.4.52-.72.19-.18.38-.36.57-.54.06.05.1.09.15.14.14.2.27.42.41.62.14.28.27.55.43.86-.53.15-.63.47-.4.94.03.06.07.16.03.18-.42.41.14.44.25.68-.37.52.28.63.4.87.03.43-1.03.35-.29.94.34.21.67.43,1.01.64.05.07.09.12.12.19Z"/>
          <path class="cls-8" d="M89.28,22.71h0l-.08.08c-.03-.07-.08-.12-.12-.19.02-.02.05-.03.07-.06l.14.17Z"/>
          <path class="cls-8" d="M89.14,22.54s-.05.03-.07.06c-.34-.21-.67-.43-1.01-.64.02-.02.05-.05.07-.08.34.23.67.44,1.01.67Z"/>
          <path class="cls-8" d="M88.85,24s.06.07.08.09c-.09.07-.18.12-.27.18-.02-.02-.05-.05-.07-.08.09-.06.18-.12.26-.19Z"/>
          <path class="cls-8" d="M88.84,39.27c-.06.05-.12.09-.18.14l-.07-.07c.06-.05.11-.1.17-.15l.08.08Z"/>
          <path class="cls-8" d="M88.59,24.19s.05.06.07.08c-.15.12-.29.26-.44.38l-.08-.08c.16-.12.31-.25.45-.38Z"/>
          <path class="cls-8" d="M88.66,39.4c-.08.24-.17.47-.25.71-1.27-.16-2.51-.29-3.74-.46-.64-.08-1.28-.23-1.91-.28-.21-.02-.44.14-.66.21-.03-.02-.06-.06-.09-.08.25-.11.51-.35.76-.33.63.03,1.28.19,1.91.28,1.19.16,2.37.29,3.53.44.15-.2.26-.38.38-.57l.07.07Z"/>
          <path class="cls-8" d="M88.34,20.74c.38.27.36.49-.06.72-.19.1-.34.18-.15.41-.02.03-.05.06-.07.08-.73-.59.33-.51.29-.94-.11-.24-.77-.35-.4-.87-.11-.24-.67-.27-.25-.68.03-.02,0-.12-.03-.18-.24-.46-.14-.79.4-.94-.16-.31-.29-.58-.43-.86.02-.02.06-.03.08-.06.15.2.33.41.41.64.06.14,0,.42-.09.47-.33.18-.31.4-.18.69.06.15.01.34.01.54.07.06.18.12.29.2.01.07.03.12.01.16-.16.26-.09.42.16.6Z"/>
          <path class="cls-8" d="M88.14,24.57l.08.08c-.29.62-.79,1.03-1.42,1.27l-.07-.07c.47-.43.94-.85,1.41-1.28Z"/>
          <path class="cls-8" d="M87.31,16.8c.15.21.28.42.42.63-.02.02-.06.03-.08.06-.14-.2-.27-.42-.41-.62l.07-.07Z"/>
          <path class="cls-4" d="M87.67,16.02l-.44.51c-.06.01-.1.01-.16.02.2-.19.4-.35.6-.53Z"/>
          <path class="cls-8" d="M87.23,16.53c.02.09.06.18.08.27l-.07.07s-.09-.09-.15-.14c-.02-.02-.05-.06-.07-.09.01-.03.02-.07.03-.09h.01c.06-.01.1-.01.16-.02Z"/>
          <path class="cls-3" d="M86.96,27.22c.35.08.7.16,1.16.27l-2.08.78s-.08-.01-.12-.01c.38-.25.78-.51,1.19-.77-.07-.08-.16-.17-.26-.27h.11Z"/>
          <path class="cls-4" d="M87.03,16.64s.05.07.07.09c-.18.18-.37.36-.57.54h0c.18-.23.34-.42.5-.63Z"/>
          <path class="cls-8" d="M86.96,27.22h-.11c-.03-.07-.08-.14-.11-.2.08.07.15.14.23.2Z"/>
          <path class="cls-8" d="M86.79,25.92c-.09.07-.17.14-.25.19-.03-.02-.06-.06-.08-.08.08-.07.17-.12.26-.18l.07.07Z"/>
          <path class="cls-8" d="M86.17,10.98c.37.29.54.9.29,1.33-.28.53-.64,1.03-1.05,1.65-.41-.66-.79-1.19-1.1-1.77-.21-.4.02-.97.43-1.25.4-.29,1.04-.27,1.42.05ZM85.87,11.87c0-.18-.25-.37-.38-.55-.07,0-.14,0-.2.01-.11.18-.29.36-.32.57-.06.33.21.5.47.44.18-.05.43-.31.43-.46Z"/>
          <path class="cls-4" d="M86.02,17.99c.16-.24.34-.47.51-.71-.06.33-.06.69-.52.72h.01Z"/>
          <path class="cls-8" d="M86.53,26.71h-.01c-1.18.24-2.34.47-3.51.71-.08,0-.16,0-.23-.01.72-.2,1.42-.46,2.16-.59.52-.08,1.04-.02,1.27-.6.12.18.23.34.33.49Z"/>
          <path class="cls-6" d="M86.49,9.54c-.03.16-.06.31-.09.45h-.07c.01-.16.02-.31.03-.46.05.01.08.01.12.01Z"/>
          <path class="cls-8" d="M86.04,28.27c-.06.23-.05.51-.18.67-.45.49-.43,1.01-.24,1.58-.03.02-.06.05-.09.08-.41-.64-.29-1.23.18-1.79.08-.09.37-.24-.01-.33v-.1c.07-.05.15-.08.21-.12.05,0,.08,0,.12.01Z"/>
          <path class="cls-4" d="M86.02,17.99h-.01s0,0,.01,0Z"/>
          <path class="cls-5" d="M81.04,31.78s.06.05.09.07c-.01-.01-.02-.03-.03-.06.21.31.55.4.79.17.18-.16.19-.51.26-.78.01-.07-.03-.15-.06-.23.03-.08.06-.15.08-.23.47.03.99-.25,1.45.14l.31.2c.15.07.29.17.44.2.38.08.75.14,1.13.19.09.47.02.99.43,1.4.07.08-.08.36-.12.55-.19.08-.38.16-.58.25-.19.08-.38.17-.58.26l-.37-.1-.41-.31c-.53-.35-1.04-.73-1.74-.52-.09.03-.2,0-.31-.01-.82-.06-1.66-.36-2.47.08-.11.07-.31-.05-.46-.08.02-.24.05-.46.08-.7.47-.1.36-.51.42-.82.14-.05.29-.06.4-.15.26-.23.53-.29.86-.17.1.17.2.35.32.52h-.01s.07.07.1.11Z"/>
          <path class="cls-8" d="M85.8,33.42s.06.06.08.09c-.19.11-.37.25-.58.34-.18.08-.37.12-.57.17-.03-.02-.06-.06-.09-.09.19-.09.38-.18.58-.26.19-.09.38-.17.58-.25Z"/>
          <path class="cls-5" d="M85.71,28.48c.38.09.09.24.01.33-.47.55-.59,1.14-.18,1.79-.19.18-.36.47-.59.52-.29.07-.63-.08-.95-.12-.1-.07-.2-.14-.31-.21-.25-.08-.49-.23-.72-.25-.27-.01-.49-.03-.59-.32-.23-.05-.46-.08-.7-.12-.03-.03-.07-.06-.1-.09-.07-.29-.14-.6-.2-.93.94-.76,2.06-.73,3.18-.67.38.02.77.06,1.15.08Z"/>
          <path class="cls-4" d="M86.01,18c-.18.23-.34.47-.55.66-.08.07-.38.01-.44-.08-.19-.31-.33-.64-.45-.97-.15-.42-.27-.84-.4-1.27-.06-.17-.09-.35-.12-.52.2.55.42,1.11.62,1.66.1.27.2.54.32.81.11.29.29.27.51.08.16-.15.34-.26.52-.37Z"/>
          <path class="cls-3" d="M85.71,28.38v.1c-.38-.02-.77-.06-1.15-.08-1.12-.07-2.24-.09-3.18.67.07.33.14.63.2.93l-.03.03c-.07-.16-.14-.31-.21-.47-.08-.18-.16-.37-.26-.59.51-.21.98-.46,1.48-.62,1.05-.32,2.1-.08,3.15.03Z"/>
          <path class="cls-8" d="M85.63,30.52c0,.15.01.29-.01.44-.02.18-.08.34-.11.51h-.01c-.38-.06-.75-.11-1.13-.19-.15-.03-.29-.14-.44-.2l.08-.08c.32.05.66.19.95.12.23-.05.4-.34.59-.52.03-.03.06-.06.09-.08Z"/>
          <path class="cls-2" d="M85.49,11.32c.14.18.38.37.38.55,0,.16-.25.42-.43.46-.26.06-.53-.11-.47-.44.02-.2.2-.38.32-.57.07-.01.14-.01.2-.01Z"/>
          <path class="cls-8" d="M84.64,33.93s.06.07.09.09c-.07.52-.23.97-.76,1.22-.12.06-.29.21-.29.32-.01.63-.47.61-.88.68.1-.08.2-.17.32-.25.09-.07.27-.1.27-.17.05-.51.45-.69.78-.95.4-.33.4-.58.02-.95.02-.03.06-.06.08-.09l.37.1Z"/>
          <path class="cls-5" d="M84.19,33.92c.37.37.37.62-.02.95-.33.26-.73.44-.78.95,0,.07-.18.1-.27.17-.11.08-.21.17-.32.25l-.1.1s-.03,0-.05.01c-.63.1-1.22-.07-1.74-.43-.09-.07-.17-.24-.16-.36.01-.58-.1-.71-.68-.78-.16-.01-.33-.07-.5-.1-.2-.09-.38-.19-.62-.31,0-.01,0-.11.01-.2.08-.26.16-.52.25-.77-.02-.05-.05-.09-.07-.12,1.56-.33,3.11-.35,4.62.33.15.11.28.21.42.32Z"/>
          <path class="cls-8" d="M84.27,33.83s-.06.06-.08.09c-.14-.1-.27-.2-.42-.32.03-.02.06-.06.09-.08l.41.31Z"/>
          <path class="cls-8" d="M84,30.99l-.08.08-.31-.2s.05-.06.08-.09c.1.08.2.15.31.21Z"/>
          <path class="cls-8" d="M83.86,33.52s-.06.06-.09.08c-1.51-.68-3.06-.66-4.62-.33.02.03.05.08.07.12-.09.25-.17.51-.25.77l-.03-.02c-.02-.34-.06-.68-.08-1.01.01-.06.01-.1.02-.15.16.03.35.15.46.08.81-.44,1.65-.14,2.47-.08.1.01.21.05.31.01.7-.21,1.21.17,1.74.52Z"/>
          <path class="cls-8" d="M83.69,30.78s-.06.06-.08.09c-.45-.38-.97-.1-1.45-.14l.1-.2c.05-.1.08-.21.11-.32.1.28.32.31.59.32.24.02.47.17.72.25Z"/>
          <path class="cls-4" d="M83.52,15.3c-.68-.1-1.37-.21-2.05-.32-.01-.03-.01-.06,0-.09.68.14,1.37.27,2.05.41Z"/>
          <path class="cls-3" d="M82.18,18.21c.94.29,1.2.58,1.13,1.27-.01.1-.1.31-.11.31-.59-.16-.57.4-.78.67-.02.02-.09.01-.15.02.18-.38.16-.96.81-.86.28-.94-.46-1.04-1.01-1.31.03-.03.07-.07.1-.09Z"/>
          <path class="cls-8" d="M83.11,44.74h0c-.15.06-.28.15-.42.14-.25-.03-.49-.14-.73-.19-1.13-.24-1.8.09-2.34,1.12-.11.21-.24.42-.36.62-.02.03-.08.05-.12.07l-.14-.1c.47-.63.95-1.27,1.45-1.94-.54-.23-1.12-.67-1.88-.61-.02-.03-.06-.07-.08-.09.49.03.96.07,1.49.1.07-.14.19-.42.32-.71-.32-.1-.62-.25-.94-.31-.33-.06-.68-.05-1.02-.07-.23-.01-.45-.02-.68-.02l-1.29.03c.47-.96-.82-.53-.89-1.1,0-.05-.32-.05-.49-.07-.01,0-.03.02-.05.02-.19-.02-.37-.06-.57-.08.02-.02.05-.05.08-.07.12-.01.26-.02.38-.03.15-.01.32-.1.43-.05.44.2.92.4,1.27.71.26.24.41.37.82.38,1.02.01,2.02.21,3.05.34-.17-.77.57-1.07,1.05-1.5.32-.28.32-.47.18-.82-.19-.5-.28-1.04-.42-1.56l.08-.08c.06.14.18.28.17.42-.03.4.12.44.44.31.02.03.05.06.08.09-.15.09-.28.18-.42.28q.43,1.06-.41,1.88c-.33.32-.66.59-.57,1.13.03.15-.15.33-.25.49-.26.43-.16.75.33.85.8.17,1.6.29,2.42.43Z"/>
          <path class="cls-3" d="M82.78,27.41c.07.01.15.01.23.01-.95.37-1.84.35-2.71-.24-.25-.16-.54-.25-.81-.37.34.11.68.26,1.03.34.55.14,1.11.24,1.66.33.19.02.41-.05.61-.07Z"/>
          <path class="cls-8" d="M79.58,34.68c.17.03.34.09.5.1.58.07.69.2.68.78-.01.12.07.29.16.36.52.36,1.11.53,1.74.43-.36.11-.71.2-1.13.34.05.16.1.36.16.57-.02.02-.06.05-.08.07-.09-.15-.23-.31-.25-.46-.08-.62-.26-.8-.9-.82-.72-.02-1.45-.05-2.16-.1-.31-.03-.6-.15-.89-.23.2-.76.24-.77,1.15-.28.11-.2.24-.41.37-.63-.27-.18-.28-.42.01-.64l.03.02c-.01.09-.01.19-.01.2.24.11.42.21.62.31ZM79.59,34.69c-.44-.07-.64.32-.71.55-.19.6-.4.4-.72.16-.11-.09-.34-.05-.51-.06-.01.07-.02.14-.02.2.16.06.33.16.5.17.67.06,1.33.08,2,.12.29.02.46-.08.47-.38.02-.34-.18-.42-.46-.47-.2-.03-.36-.18-.54-.29Z"/>
          <path class="cls-3" d="M82.38,30.21c-.03.1-.07.21-.11.32-.05-.09-.06-.23-.12-.25-.16-.08-.34-.1-.5-.15.01-.01.02-.03.03-.05.24.05.47.08.7.12Z"/>
          <path class="cls-3" d="M81.14,21.3c.38-.27.76-.54,1.13-.82-.09.5-.49.79-1.13.84h0Z"/>
          <path class="cls-8" d="M81.86,17.68c.1.17.21.35.32.53-.03.02-.07.06-.1.09-.28,0-.57-.01-.85-.01.09-.06.19-.18.27-.17.36.03.37-.19.36-.44Z"/>
          <path class="cls-8" d="M82.1,39.58l-.1.1s-.06-.06-.08-.09c.02-.03.06-.06.09-.09.03.02.06.06.09.08Z"/>
          <path class="cls-8" d="M81.87,16.35c.07.25.05.52.05.78,0,.19-.03.37-.06.55-.35-.1-.41-.27-.18-.59.09-.14.12-.38.08-.55-.15-.52-.34-1.04-.52-1.56.03-.02.05-.06.02-.09h.21s-.01.06,0,.09c.14.45.29.9.4,1.37Z"/>
          <path class="cls-5" d="M81.86,17.68c.01.25,0,.47-.36.44-.08-.01-.18.11-.27.17-.63-.25-.98.27-1.42.53-.21.1-.75,1.03-.62,1.19.31.43.06.75-.11,1.1-.14.11-.27.21-.42.32-.18.09-.34.19-.51.29-.62.32-1.3.55-1.67,1.23-.15.27-.46.44-.71.64-.03.05-.06.07-.1.1h-.01c-.07.08-.17.12-.19.2-.15.4-.34.79-.37,1.2-.05.49.05.98.1,1.47,0,.06.12.11.19.14.29.1.6.19.89.28h.01s.01.01.01.01c.03.03.07.07.09.1.05.03.08.07.11.11.03.02.07.06.1.09h0c.07.27.14.51.19.76h.01s-.08.09-.12.14c0,.05-.01.06-.05.06-.46.02-.38.35-.36.63h.01l-.42.42c-.77.08-1.04.29-1.14.88-.1.6-.2,1.21-.31,1.82-.03.21-.06.43.28.38.01.02.03.03.05.05-.06.16-.1.32-.17.5-.17-.07-.31-.12-.49-.19-.07.64-.42.67-.92.53-.4-.1-.86.27-.92.7-.03.28-.14.41-.42.41-.17,0-.33.03-.5.06-.1-.57-.17-1.11-.28-1.65-.02-.1-.19-.18-.29-.27h-.01s-.06-.07-.09-.09h0s-.01-.01-.01-.01c-.03-.05-.06-.07-.09-.1-.15-.27-.28-.55-.42-.82-.03-.42.11-.92-.43-1.14-.03,0-.06-.01-.08-.05-.01-.02-.02-.06-.02-.08-.03-.03-.07-.06-.09-.08h0c-.02-.24-.05-.44-.07-.69.46.09.52-.23.58-.55.06-.34.1-.67.12-.86.31-.23.63-.35.69-.53.07-.28.25-.67-.17-.9.08-.15.16-.29.26-.44.2-.28.34-.57-.06-.8-.14-.07-.28-.14-.42-.21,0-.47-.01-.93.01-1.4.03-.81-.25-1.73.61-2.33.17,0,.35-.03.51,0,.42.09.7-.03.85-.45.15.08.28.17.44.25.54.26,1.06-.01,1.21-.62h0c.17-.33.35-.62.53-.94.53-.38,1.06-.77,1.75-.81l1.05.2c.38.12.75.16,1.03-.21.17-.2.46-.38.47-.6.03-.58.08-1.11.45-1.57h0c.1-.15.21-.28.31-.42.11-.15.21-.27.32-.42h0c.07-.1.14-.21.2-.31h.01c.34-.18.51-.72,1.03-.53.18.52.37,1.04.52,1.56.05.17.01.42-.08.55-.23.32-.17.49.18.59Z"/>
          <path class="cls-8" d="M81.68,37.25c.34.55.27.82-.27,1.13-.02-.03-.06-.06-.08-.09.41-.24.4-.59.27-.97.02-.02.06-.05.08-.07Z"/>
          <path class="cls-5" d="M81.65,40.51c.14.35.14.54-.18.82-.49.43-1.22.73-1.05,1.5-1.03-.12-2.03-.33-3.05-.34-.42-.01-.57-.15-.82-.38-.35-.32-.82-.51-1.27-.71-.11-.06-.28.03-.43.05-.12.01-.26.02-.38.03-.08-.14-.17-.26-.25-.38-.41-.33-1.02-.4-1.16-1.02h.01c-.08-.35-.11-.71-.23-1.05-.09-.29-.27-.54-.4-.81.07-.55.15-1.11.21-1.66.23-.07.44-.12.66-.21.29-.11.59-.25.88-.37.47-.21.96-.43,1.45-.64h.58c.2.2.33.34.47.49h.01c.28.31.51.21.7-.1.29.08.59.19.89.23.71.06,1.44.08,2.16.1.64.02.82.2.9.82.02.16.16.32.25.46.12.38.14.73-.27.97-.29.18-.46.37-.1.66.14.52.23,1.06.42,1.56Z"/>
          <path class="cls-3" d="M81.68,30.09s-.02.03-.03.05l-.1-.1.03-.03s.07.06.1.09Z"/>
          <path class="cls-6" d="M81.46,9.7l-.1.2h-.01c.03-.07.07-.14.11-.2Z"/>
          <path class="cls-8" d="M81.33,38.29s.06.06.08.09c-.03.16-.07.32-.1.49l-.08.08c-.36-.28-.19-.47.1-.66Z"/>
          <path class="cls-6" d="M81.34,9.91h.01c-.08.28-.15.58-.24.96-.14-.28-.25-.52-.41-.86.24-.03.44-.07.63-.1Z"/>
          <path class="cls-4" d="M81.26,14.89s.01.07-.02.09c-.52-.19-.69.35-1.03.52.2-.45.49-.78,1.05-.61Z"/>
          <path class="cls-3" d="M81.14,21.3h0s-.01.01-.01.01c0-.01.01-.01.01-.01Z"/>
          <path class="cls-3" d="M81.14,29.81c-.1.1-.2.2-.31.32-.03-.11-.06-.21-.09-.32-.24.11-.52.17-.68.35-.18.23-.03.36.25.29-.09.05-.17.09-.26.14l-.14.07c-.02-.14-.11-.31-.06-.41.1-.19.28-.36.42-.54.05-.07.06-.17.09-.26.1.03.27.09.44.17.06.02.11.06.16.09l.17.1Z"/>
          <path class="cls-3" d="M81.13,21.31h.01c-.03.49-.4.47-.73.51.25-.17.47-.34.72-.51Z"/>
          <path class="cls-3" d="M81.09,31.8s.02.05.03.06c-.03-.02-.06-.05-.09-.07h.03s.02.01.02.01Z"/>
          <path class="cls-5" d="M80.74,29.81c.03.1.06.2.09.32-.17.11-.35.23-.52.33-.28.07-.43-.07-.25-.29.16-.18.44-.24.68-.35Z"/>
          <path class="cls-5" d="M80.13,34.98c.28.06.49.14.46.47-.01.31-.18.41-.47.38-.67-.05-1.33-.07-2-.12-.17-.01-.34-.11-.5-.17,0-.07.01-.14.02-.2.17.01.4-.03.51.06.33.24.53.44.72-.16.07-.24.27-.62.71-.55.18.11.34.26.54.29Z"/>
          <path class="cls-3" d="M80.63,31.15c-.33-.12-.6-.06-.86.17-.1.09-.26.1-.4.15.23-.19.44-.36.68-.51.06-.03.1-.06.15-.08.19-.08.35,0,.43.27Z"/>
          <path class="cls-3" d="M80.41,21.82c.06.38-.02.72-.44.78-.67.1-.76.61-.9,1.11-.12-.29.19-1.21.46-1.2.54.02.68-.35.88-.69Z"/>
          <path class="cls-5" d="M80.29,43.13c-.12.29-.25.58-.32.71-.53-.03-1.01-.07-1.49-.1-.14.1-.27.2-.41.32-.21.06-.44.1-.64.17-.27.09-.55.16-.79.32-.55.38-1.39.12-1.59-.53-.1-.31.05-.43.33-.51.35-.09.77-.12.79-.63.08-.03.14-.07.2-.1l1.29-.03c.23,0,.45.01.68.02.34.02.69.01,1.02.07.32.06.62.2.94.31Z"/>
          <path class="cls-3" d="M79.26,23.79c.07.7.6,1.37.16,2.11-.18.31-.24.62.06.9-.14-.05-.26-.08-.52-.16.64-.97.43-1.97.1-2.95.07.02.2.06.2.09Z"/>
          <path class="cls-3" d="M79.81,18.82c-.16.37-.31.73-.49,1.16q.32.71-.25,1.12c.17-.35.42-.67.11-1.1-.12-.16.41-1.08.62-1.19Z"/>
          <path class="cls-4" d="M79.38,16.64h0c-.37.47-.42,1.01-.45,1.58-.01.21-.31.4-.47.6h-.01c.32-.33.49-.72.42-1.19s.15-.77.52-.99Z"/>
          <path class="cls-3" d="M78.96,32.29c.14-.27.27-.55.42-.82-.06.32.06.72-.42.82Z"/>
          <path class="cls-3" d="M78.96,32.29c-.03.24-.06.46-.08.7-.01.05-.01.09-.02.15-.17-.31-.19-.6.1-.85Z"/>
          <path class="cls-4" d="M78.44,18.82h.01c-.28.37-.64.34-1.03.21.34-.07.68-.15,1.02-.21Z"/>
          <path class="cls-8" d="M71.1,47.41c.32.12.55.29.8.31.42.02.93.09,1.22-.11.44-.31.75-.84,1.16-1.34-.18.01-.32.02-.46.03-.61.02-1.12.49-1.8.31-.93-.26-1.01-.16-.93.81ZM78.08,44.06s.06.06.08.09c-.72.24-1.45.5-2.18.7-.21.06-.5-.07-.79-.11-.03.05-.1.24-.18.25-.62.08-.36.73-.66,1.03-.03.03.19.36.34.52.14.17.33.29.49.44-.02.02-.05.05-.07.08-.82-.53-.79-.51-1.45.28-.24.28-.43.8-1.04.55-.18-.07-.46.09-.7.15v.11c.17.08.34.16.51.23-.01.02-.01.03,0,.06-.37.05-.64-.06-.71-.49-.1-.54-.46-.17-.71-.18l-.17-.03c.05-.41.08-.81.11-1.14-.23-.21-.4-.44-.62-.53-.21-.09-.5-.06-.75-.03-.32.05-.62.14-.93.21-.03-.02-.06-.05-.09-.07-.15-.02-.31-.02-.43-.09-.16-.07-.36-.16-.43-.31-.31-.62-.58-.76-1.22-.61-.43.1-.87.14-1.31.2.27-.21.43-.46.45-.85,0-.26.2-.52.33-.77.02.02.05.06.08.08-.11.37-.21.76-.33,1.12,1.34.1,2.64.2,3.93.31-.18.05-.35.12-.53.14-.15.01-.29-.08-.44-.07-.25.03-.5.1-.8.17.03.08.09.33.12.33.49-.06.93.41,1.47.09.26-.15.84-.17.97,0,.25.31.53.34.85.37.72.08,1.44.25,2.19-.07.54-.23.81-.36.94-.95.03-.15.14-.28.24-.4.1-.14.35-.25.34-.35-.02-.24-.1-.59-.27-.68-.45-.25-.97-.37-1.49-.55-.16.42-.42.67-.89.6-.57-.07-1.1.37-1.13.95-.01.29-.15.33-.4.33-.38.01-.78.07-1.16.1.21-.11.43-.25.67-.32.19-.06.41-.01.66-.01-.11-.61.33-.85.72-1.1.2-.14.23-.23.08-.4.02-.02.05-.05.07-.08.1.07.19.19.28.2.25.02.59.09.72-.03.49-.45.61-.49,1.2-.15.2.11.51.18.71.11.49-.16.94-.42,1.41-.63h.01c-.02.51-.44.54-.79.63-.28.08-.43.2-.33.51.2.66,1.04.92,1.59.53.24-.16.52-.23.79-.32.2-.07.43-.11.64-.17Z"/>
          <path class="cls-8" d="M76.7,35.81c.24-.03.46-.07.7-.1-.19.32-.42.41-.7.11h0Z"/>
          <path class="cls-3" d="M76.94,30.89c0,.17.05.36-.01.51-.07.18-.21.34-.33.5-.02-.01-.03-.03-.06-.05.11-.24.21-.49.34-.76h-.37s-.02-.03-.05-.05h0c.16-.06.32-.11.47-.16Z"/>
          <path class="cls-3" d="M76.6,27.3c.26.2.61.38.2.76h-.01c-.06-.25-.12-.49-.19-.75h0Z"/>
          <path class="cls-5" d="M76.88,31.09c-.12.27-.23.52-.34.76-.03.03-.07.07-.09.1-.08.02-.16.06-.32.11.11-.33.19-.6.28-.87.03-.03.06-.07.09-.1h.37Z"/>
          <polygon class="cls-8" points="76.7 35.81 76.7 35.82 76.69 35.81 76.7 35.81"/>
          <path class="cls-3" d="M76.63,28.25c-.12.21-.24.43-.36.63-.02-.28-.1-.61.36-.63Z"/>
          <path class="cls-3" d="M76.6,31.9s-.07.07-.1.11c-.02-.02-.03-.03-.05-.06.02-.03.06-.07.09-.1.02.01.03.03.06.05Z"/>
          <path class="cls-3" d="M76.46,31.05s.03.02.05.05c-.03.03-.06.07-.09.1-.02-.01-.03-.03-.06-.06.03-.03.07-.07.1-.09Z"/>
          <path class="cls-3" d="M76.45,31.95s.02.03.05.06c-.11.11-.21.23-.38.4-.15-.54-.06-.93.25-1.27.02.02.03.05.06.06-.09.27-.17.54-.28.87.16-.06.24-.09.32-.11Z"/>
          <path class="cls-5" d="M75.48,41.67c.07.57,1.37.14.89,1.1-.07.03-.12.07-.2.1h-.01c-.47.21-.93.47-1.41.63-.2.07-.51,0-.71-.11-.59-.34-.71-.31-1.2.15-.14.12-.47.06-.72.03-.09-.01-.18-.14-.28-.2-.24-.17-.49-.34-.72-.51-.18-.41-.36-.81-.53-1.2.49-.24.95-.44,1.4-.68.77-.38,1.46-.17,2.15.2.09.11.17.24.26.36.19.02.37.06.57.08.01,0,.03-.02.05-.02.17.02.49.02.49.07Z"/>
          <path class="cls-4" d="M74.62,19.65c.26-.62.77-.86,1.75-.81-.69.05-1.22.43-1.75.81Z"/>
          <path class="cls-8" d="M76.69,35.81c-.15-.15-.27-.28-.47-.49h-.58c.6-.32.77-.24,1.05.49Z"/>
          <path class="cls-3" d="M76.27,26.98c-.29-.09-.6-.18-.89-.28-.07-.02-.19-.08-.19-.14-.06-.49-.15-.98-.1-1.47.03-.41.23-.8.37-1.2.02-.08.12-.12.19-.19h.01c-.07.94-.78,1.81-.32,2.68.36.23.64.42.93.6Z"/>
          <path class="cls-3" d="M75.86,29.3s-.02.05-.02.05c-.98.18-.97.94-1.03,1.7-.02.35-.14.69-.21,1.05.18-.05.34-.1.5-.15-.1.93-.43,1.33-.89,1.07-.14.45-.38.62-.88.45-.46-.16-.81.15-.88.62-.09.67-.67.41-1.03.5-.4.08-.31-.31-.33-.54-.03-.23.18-.6-.33-.53,0-.33,0-.67.01-.99h0c.1.08.27.16.29.26.11.54.18,1.08.28,1.65.17-.02.33-.06.5-.06.28,0,.38-.12.42-.41.06-.43.52-.8.92-.7.5.14.85.11.92-.53.18.07.32.12.49.19.07-.18.11-.34.17-.5,0-.03.01-.06.01-.09-.01.01-.03.03-.06.05-.34.05-.32-.17-.28-.38.1-.61.2-1.22.31-1.82.1-.59.37-.8,1.14-.88Z"/>
          <path class="cls-5" d="M74.75,32.34s-.01.06-.01.09c-.01-.01-.03-.02-.05-.05.02-.01.05-.03.06-.05Z"/>
          <path class="cls-8" d="M74.21,41.1c.08.12.17.25.25.38-.03.02-.06.05-.08.07-.09-.12-.17-.25-.26-.36l.09-.09Z"/>
          <path class="cls-8" d="M74.21,41.1l-.09.09c-.69-.37-1.38-.59-2.15-.2-.45.24-.92.44-1.4.68.17.38.35.79.53,1.2l-.07.07c-.23-.43-.45-.86-.64-1.3,0-.06.2-.24.34-.28.71-.27,1.44-.51,2.14-.79.11-.05.12-.31.18-.47.15.62.76.69,1.16,1.02Z"/>
          <path class="cls-6" d="M73.96,57.08v1.36h-27.66v-19.14h.95c0,.16.14.31.4.47.69.43,1.33.2,1.96-.19h.03c.21-.18.41-.34.61-.51,1.34-.02,1.53-.25,1.33-1.59-.02-.11-.02-.24-.06-.35-.15-.44-.15-.79.42-.97.15-.05.32-.29.32-.45,0-.14-.03-.27-.11-.38l.43-.05c0,.18.14.26.45.24.45-.03.89-.19,1.3-.29q-.24.69.37,1.07c-.03.35-.08.7-.11,1.08-.17.01-.34.09-.46.03-.57-.24-.86-.07-1.06.51-.1.31-.11.42.2.53.11.05.18.24.27.36-.26.11-.53.21-.78.35-.14.08-.24.24-.36.36.18.1.35.25.54.31.17.07.38.02.58.06.41.08.82.18,1.23.27-.82.02-1.58.26-2.02,1.06-.03.07-.08.12-.12.19l-.34.58s.1.08.15.11c.1-.05.24-.07.32-.14.33-.28.66-.49,1.1-.21.08.03.27-.05.34-.12.57-.64,1.39-.51,2.03-.5.55.01,1.03-.11,1.53-.2.17-.01.34-.01.51-.02.16-.07.32-.14.47-.19h1.07s0,0,0,0c-.07.17-.19.34-.21.52-.05.63-.14.75-.73.81-.19.02-.4.09-.59.14-.07.08-.18.14-.2.21-.09.55-.45.49-.81.36-.19-.08-.34-.29-.53-.36-.19-.08-.43-.05-.63-.07,0,.19-.01.37-.01.57.06.15.14.28.18.43.1.38-.07.55-.45.45-.36-.09-.79.07-1.12-.28-.06-.08-.28,0-.44.01-.2.02-.42.02-.6.09-.24.08-.58.17-.64.35-.16.41.18.93.55,1.03.55.15,1.13.26,1.67.45.19.08.34.33.47.52.14.18.25.4.36.59.11.08.21.18.34.23.26.09.37.2.34.52-.09.7-.07,1.42-.18,2.12-.06.43-.27.84-.42,1.28.43.2.95.44,1.45.7.41.2.77.24,1.1-.1.81.52,1.7.52,2.59.52-.08-1.06.27-1.39,1.29-1.24.38.06.78.15,1.13.31.54.24.96.17,1.32-.29l.2-.2c.1-.07.21-.15.32-.21.17-.05.34-.09.5-.14.15-.1.33-.19.43-.32.26-.33.58-.43.96-.28.23.09.45.21.68.33.25.44.49.89.73,1.34l1.02.85h0s.01,0,.01,0c.11.1.21.19.33.29.16.15.31.27.46.42h.01c.19.14.36.27.54.41.32.18.62.35.94.52.25.15.47.28.72.42.08.07.15.14.21.2l.1.1h0c.03.07.05.14.1.17.57.42.78,1.01.62,1.68-.03.27-.08.53-.1.8,0,.03.12.09.19.14Z"/>
          <path class="cls-3" d="M74.19,35.97c-.29.12-.59.26-.88.37-.21.09-.43.15-.66.21h-.1c.11-.1.21-.27.35-.31.42-.12.86-.19,1.29-.28Z"/>
          <path class="cls-4" d="M72.4,20.81c.63.44,1.2.43,1.68-.23-.15.61-.67.88-1.21.62-.16-.08-.29-.17-.44-.25-.01-.05-.02-.1-.03-.15Z"/>
          <path class="cls-8" d="M73.06,40.08h-.01c-.1-.15-.25-.26-.28-.41-.14-.49-.23-.96-.34-1.46h.01c.12.27.31.52.4.81.11.34.15.7.23,1.05Z"/>
          <polygon class="cls-5" points="73.05 40.07 73.06 40.08 73.05 40.08 73.05 40.07"/>
          <path class="cls-5" d="M73.05,40.07h0c-.06.18-.07.44-.18.49-.7.28-1.42.52-2.14.79-.14.05-.34.23-.34.28.19.44.42.87.64,1.3.24.17.49.35.72.52.15.17.12.26-.08.4-.4.25-.84.49-.72,1.1-.25,0-.46-.05-.66.01-.24.07-.45.2-.67.32h0c-1.29-.11-2.59-.21-3.93-.32.11-.36.21-.75.33-1.12l.1-.1c.24-.18.23-.34-.05-.45-.21-.08-.43-.16-.64-.19-.69-.15-1.1-.63-1.14-1.41,0-.17.06-.37,0-.53-.23-.59-.02-1.22.42-1.58.24-.2.55-.47.33-.92-.07-.11.05-.33.07-.49.08-.24.24-.49.2-.7-.06-.37.09-.46.4-.49.14-.01.27-.01.41-.01.17.26.35.34.6.09h0c.72-.18.76-.32.2-.9.01-.1.02-.21.03-.32.03-.14.07-.27.12-.46.31.08.77.07.85.25.29.59.72.46,1.18.4h.02c.1.21.2.42.31.63.24-.18.49-.37.72-.57t.02-.01s.06-.02.08-.03c.44-.08.88-.15,1.33-.23l.02.02c-.23.46.02.53.41.5.07,0,.15.01.21.01-.01.55-.02,1.12,0,1.68,0,.06.11.12.19.18h0c.11.51.2.98.34,1.47.03.15.18.26.28.4Z"/>
          <path class="cls-8" d="M72.65,36.55c-.07.55-.15,1.11-.21,1.66h-.01c-.08-.07-.19-.14-.19-.19-.02-.57-.01-1.13,0-1.68.1.07.21.15.32.21h.1Z"/>
          <path class="cls-8" d="M72.4,20.81s.02.1.03.15c-.15.42-.43.54-.85.45-.16-.03-.34,0-.51,0,.21-.06.43-.18.64-.17.4.02.5-.08.4-.53.09.03.19.07.28.1Z"/>
          <path class="cls-8" d="M72.23,36.34c-.07,0-.15-.01-.21-.01.03-.02.07-.06.09-.09.05.03.08.07.12.1Z"/>
          <path class="cls-5" d="M70.46,25.14c.14.08.28.15.42.21.08.32.14.6-.28.78-.23.1-.25.34.07.46.01.07.01.14.02.19.09.43.19.84-.46.87-.09,0-.21.16-.25.27-.07.28-.08.57-.15.86-.02.14-.1.26-.16.4-.12-.07-.24-.14-.36-.18,0,0,0-.01-.01-.01-.01-.05-.05-.08-.07-.12-.08-.15-.16-.31-.25-.45-.15-.23-.36-.27-.42.03-.07.42-.26.59-.67.57-.05,0-.08.12-.12.18-.14.14-.27.28-.41.42-.03.03-.07.06-.1.1-.05.03-.08.07-.11.1-.16.07-.35.11-.49.23-.57.46-1.14.53-1.8.19-.28-.16-.61-.21-.94-.32-.07-.15-.12-.29-.15-.36.2-.28.41-.5.54-.76.05-.07-.09-.26-.19-.36-.02-.02-.19.09-.29.14-.16.06-.33.1-.5.16.01-.32.03-.61.05-1.02h.01c.2.35.35.63.69.29.15-.16.33-.28.47-.44.08-.1.11-.25.18-.37-.11-.05-.31-.16-.33-.14-.36.49-.88.2-1.32.27v-.43c.07-.05.14-.1.2-.15-.07-.06-.14-.1-.2-.16.07-.18.14-.35.2-.53.29-.21.19-.66.09-.75-.32-.25-.19-.53-.19-.8.23.03.45.08.66.11.09-.24.14-.54.24-.57.46-.1.84-.55,1.37-.36.09.02.21-.05.33-.07l.03-.17c-.19-.05-.38-.09-.57-.14h-.03l-.02-.02c.54-.25,1.08-.49,1.72-.77-.15-.16-.26-.27-.37-.38.1-.27.33-.33.57-.14.09.07.18.15.27.23.21-.21.41-.43.62-.64.33-.34.66-.67.99-1.01.23.02.44.03.67.06.25-.02.5-.08.75-.07.57.03,1.14.08,1.72.12.1.45,0,.55-.4.53-.21-.01-.43.11-.64.17-.55.12-.92.7-.82,1.33.02.17.03.34.03.51,0,.55-.01,1.11-.01,1.67.01.08.11.14.18.21ZM65.74,25.82c0-.07,0-.12.01-.18-.16-.1-.33-.28-.47-.26s-.27.24-.41.36c.12.11.25.32.38.32.16.01.33-.15.49-.24Z"/>
          <path class="cls-3" d="M72.11,36.24s-.06.07-.09.09c-.38.03-.63-.03-.41-.5.01-.02.02-.05.03-.06-.02.01-.05.02-.06.03-.45.08-.89.15-1.33.23.46-.17.94-.35,1.4-.5.01,0,.12.32.18.49-.03.02-.08.03-.12.06.14.06.27.11.4.16Z"/>
          <path class="cls-8" d="M71.83,43.37s-.05.06-.07.08c-.24-.17-.49-.35-.72-.52l.07-.07c.24.17.49.34.72.51Z"/>
          <path class="cls-5" d="M71.65,35.77s-.02.03-.03.06l-.02-.02s.03-.02.06-.03Z"/>
          <path class="cls-8" d="M70.88,25.35c.4.24.26.52.06.8-.1.15-.18.29-.26.44h-.01c-.32-.12-.29-.36-.07-.46.42-.18.36-.46.28-.78Z"/>
          <path class="cls-8" d="M70.68,26.6c.42.24.24.62.17.9-.06.18-.38.31-.69.53-.02.19-.07.52-.12.86-.06.33-.11.64-.58.55.02.25.05.45.07.68-.08-.37-.15-.76-.23-1.12h.01c.12.05.24.11.36.18.06-.14.14-.26.16-.4.07-.29.08-.58.15-.86.03-.11.16-.27.25-.27.66-.03.55-.44.46-.87-.01-.06-.01-.12-.02-.19h.01Z"/>
          <path class="cls-3" d="M70.74,33.54c.02.17.08.36.06.53-.05.31-.09.63-.24.88-.18.28-.45.54-.73.7-.09.06-.37-.21-.57-.34.02-.05.05-.09.06-.15.15-.03.28-.07.46-.12-.09-.12-.18-.24-.26-.35.14.1.28.2.42.29-.11.15-.21.28-.33.43.58.17.75-.07,1.02-1.45-.1-.01-.2,0-.29-.02-.81-.19-.97-.05-.81.75-.08-.2-.24-.42-.2-.6.03-.15.31-.25.47-.36.11-.07.25-.11.4-.18.07.08.14.16.24.27.11-.1.2-.19.32-.28Z"/>
          <polygon class="cls-3" points="70.75 33.51 70.75 33.52 70.74 33.51 70.75 33.51"/>
          <path class="cls-3" d="M70.75,33.52h-.01s.01,0,.01,0Z"/>
          <path class="cls-5" d="M70.63,33.97c-.27,1.38-.44,1.62-1.02,1.45.11-.15.21-.28.33-.43-.14-.09-.28-.19-.42-.29-.16-.79,0-.94.81-.75.09.02.19.01.29.02Z"/>
          <path class="cls-8" d="M71.08,21.41c-.86.6-.58,1.51-.61,2.33-.02.47-.01.93-.01,1.4-.07-.08-.17-.14-.18-.21,0-.57.01-1.12.01-1.67,0-.17-.01-.34-.03-.51-.09-.63.27-1.21.82-1.33Z"/>
          <path class="cls-3" d="M69.71,30.34c.54.23.4.72.43,1.14-.14-.38-.28-.77-.43-1.14Z"/>
          <path class="cls-3" d="M69.61,30.21s.01.06.02.08l-.07-.07h.05Z"/>
          <path class="cls-8" d="M69.61,30.21h-.05s-.03-.05-.05-.08c.02.02.06.05.09.08Z"/>
          <path class="cls-8" d="M69.3,28.99s.01.01.01.01h-.01Z"/>
          <path class="cls-8" d="M69.23,28.87s.06.08.07.12c-.03,0-.05-.01-.08-.02.01-.03.01-.07.01-.1Z"/>
          <path class="cls-3" d="M68.98,28.42c.09.15.17.31.25.45,0,.03,0,.07-.01.1-.15-.17-.31-.34-.49-.54,0,.64-.4.81-.96.77.05-.06.08-.18.12-.18.41.02.6-.15.67-.57.06-.31.27-.26.42-.03Z"/>
          <path class="cls-3" d="M68.99,20.6c-.34.34-.67.67-.99,1.01-.21.21-.41.43-.62.64.29-.79.84-1.33,1.62-1.65Z"/>
          <path class="cls-3" d="M68.9,34.55c.08.09-.03.35-.06.53-.35-.07-.7-.12-1.06-.18.01,0,.05.08.08.16-.05.02-.08.03-.11.06-.05-.12-.09-.26-.14-.38.15,0,.29-.03.43,0,.23.08.44.19.72.32,0-.42.09-.71-.43-.63-.32.06-.49-.21-.27-.51.2-.28.47-.52.76-.81-.18-.26-.9-.43-.37-1.04.01.01.03.03.06.05-.12.35-.05.59.29.77.11.06.2.23.23.36,0,.06-.19.14-.28.23-.24.21-.45.43-.61.59.33.2.59.32.77.51Z"/>
          <path class="cls-3" d="M69.1,36.01c-.45.07-.88.19-1.18-.4-.08-.18-.54-.17-.85-.25-.06.19-.09.33-.12.46h-.11c-.18-.52-.36-1.03-.54-1.55.02-.01.03-.03.06-.06.17.31.33.61.54.99h.94s.05-.06.07-.1c.24.51.57.89,1.2.89Z"/>
          <path class="cls-5" d="M68.34,34.42c.52-.08.43.21.43.63-.28-.12-.5-.24-.72-.32-.14-.03-.28,0-.43,0,.05.12.09.26.14.38.03.03.07.07.09.1h-.94c-.21-.38-.37-.69-.54-.99-.12-.58-.31-1.18.08-1.72.1-.15.33-.21.5-.31.1.09.21.18.32.27.06-.11.1-.24.18-.32.26-.29.5-.61.8-.86.19-.14.37-.01.34.26-.02.17-.08.33-.12.5-.53.61.19.78.37,1.04-.28.29-.55.53-.76.81-.21.29-.05.57.27.51Z"/>
          <path class="cls-3" d="M68.56,31.12c.09.05.16.29.15.44-.02.19-.14.36-.2.54-.02-.01-.05-.03-.06-.05.05-.17.1-.33.12-.5.03-.27-.15-.4-.34-.26-.31.25-.54.57-.8.86-.08.08-.12.2-.18.32-.1-.09-.21-.18-.32-.27l.03-.03c.06.02.1.03.15.06.03.01.08.03.11.05-.01-.03-.01-.08-.01-.12l-.03-.24c.46-.02.6-.45.87-.71.1-.11.36-.14.51-.08Z"/>
          <path class="cls-3" d="M67.91,35.11h0c-.02.06-.05.08-.07.11-.02-.03-.06-.07-.09-.1.03-.02.07-.03.11-.06.02.01.05.02.05.05Z"/>
          <path class="cls-6" d="M67.22,32.15s0,.09.01.12c-.03-.01-.08-.03-.11-.05.03-.03.07-.06.1-.08Z"/>
          <path class="cls-8" d="M66.92,36.15c.55.59.52.72-.2.92.12-.11.25-.23.4-.35-.06-.17-.12-.36-.19-.57Z"/>
          <path class="cls-3" d="M66.97,32.17l-.03.03c-.17.09-.4.16-.5.31-.38.54-.2,1.14-.08,1.72-.02.02-.03.05-.06.06-.37-.62-.33-1.55.1-2.11.18-.24.37-.27.57,0Z"/>
          <path class="cls-8" d="M66.96,35.83c-.01.1-.02.21-.03.32-.02-.1-.06-.21-.08-.32h.11Z"/>
          <path class="cls-3" d="M66.66,30.04c.14-.11.33-.16.49-.23-1.22,1.14-1.6,1.03-3.22.1.33.1.66.16.94.32.66.34,1.23.27,1.8-.19Z"/>
          <path class="cls-8" d="M66.11,36.95l.61.1c-.25.25-.43.17-.6-.09h-.01Z"/>
          <path class="cls-3" d="M66.54,22.16c.11.11.23.23.37.38-.63.28-1.18.52-1.72.77.05-.11.06-.29.14-.33.43-.18.87-.32,1.31-.46-.05-.14-.07-.25-.1-.36Z"/>
          <path class="cls-8" d="M66.09,43.28c.27.11.28.27.05.45-.03-.02-.06-.06-.09-.08,0-.06.01-.17-.01-.18-.73-.25-1.47-.47-2.19-.72-.16-.06-.28-.19-.43-.29.11-.03.26-.03.32-.1.18-.24.33-.5.49-.73.03.01.06.03.09.06.05.78.45,1.27,1.14,1.41.21.03.43.11.64.19Z"/>
          <path class="cls-8" d="M66.12,36.96c-.14,0-.27,0-.41.01-.31.02-.45.11-.4.49.03.21-.12.46-.2.7-.02-.02-.05-.05-.07-.08.21-.54.12-.7-.43-.68-.34.01-.67.14-.99.21v-.12c.46-.1.94-.21,1.5-.34.19-.36.42-.43.98-.2h.01Z"/>
          <path class="cls-5" d="M65.17,45.37c-.14.2-.26.4-.41.6h0c-.03.06-.08.09-.11.12-.08.03-.14.07-.2.1-.11.24-.24.49-.36.72.06.03.1.07.16.1.15-.07.28-.14.57-.25.08.49.16.93.24,1.37-.38.12-.59.29-.15.61.02.05.07.1.06.14-.16.57.1.78.72.75l.02.02c-.15.21-.25.34-.35.47-.07.07-.14.12-.2.19s-.12.15-.19.23c-.14.06-.27.14-.42.16-.21.03-.45.07-.67.02-.49-.1-.96-.32-1.45-.37-.94-.1-1.33.25-1.45,1.22-.7.06-1.39.01-2.03-.33-.23-.12-.4-.26-.62.01-.07.09-.33.09-.46.05-.5-.2-.97-.44-1.41-.66.15-.88.29-1.72.42-2.55.05-.37.1-.79-.02-1.12-.09-.23-.5-.34-.76-.51-.09-.21-.14-.46-.27-.66-.14-.21-.34-.45-.55-.53-.54-.19-1.12-.33-1.68-.45-.5-.11-.28-.57-.43-.84.18-.09.35-.19.54-.27.7-.32,1.31.26,2,.21.25-.01.54.15.64-.19.08-.33.15-.69-.28-.87.07-.16.14-.32.19-.49.15.08.27.16.42.21.31.14.61.32.93.37.5.08.53-.37.66-.7.18-.03.36-.08.54-.1.79-.11.82-.15.9-.93.01-.18.06-.36.09-.54.36-.07.72-.2.92.31.06.12.35.15.54.21h.01s.03.02.06.03c.26.12.51.25.76.37.03.57.07.59.63.52.24.1.47.21.71.32h0c.15.09.27.23.43.28.72.25,1.46.47,2.19.72.02.01.01.12.01.18-.03.03-.07.07-.09.1-.12.25-.33.51-.33.77-.02.38-.18.63-.45.85Z"/>
          <path class="cls-3" d="M65.82,23.47l-.03.17c-.11.02-.24.09-.33.07-.53-.19-.9.26-1.37.36-.1.02-.15.33-.24.57-.2-.03-.43-.08-.66-.11.16-.05.32-.08.52-.14-.02-.29.17-.46.52-.57.36-.1.68-.32,1.02-.49.18.05.37.09.57.14Z"/>
          <path class="cls-8" d="M65.75,25.64c-.01.06-.01.11-.01.18-.16.09-.33.25-.49.24-.14,0-.26-.2-.38-.32.14-.12.26-.34.41-.36s.32.16.47.26Z"/>
          <path class="cls-5" d="M64.62,37.4c.55-.02.64.14.43.68-.14.09-.27.19-.41.27.37.66.31.84-.32,1.12-.09.05-.16.2-.18.32-.07.25-.09.5-.14.78-.12-.07-.19-.11-.26-.17-.55-.44-1.11-.72-1.81-.24-.15.11-.45.29-.6-.08.12-.06.24-.1.35-.16.07-.05.12-.09.18-.14.05-.07.08-.14.12-.19.27-.49.53-.96.79-1.42.26.07.51.12.76.18.03-.31.06-.52.08-.73.33-.08.66-.2.99-.21Z"/>
          <path class="cls-8" d="M65.05,38.08s.05.06.07.08c-.02.16-.14.37-.07.49.23.44-.09.71-.33.92-.44.36-.64.99-.42,1.58.06.16,0,.36,0,.53-.03-.02-.06-.05-.09-.06-.06-.66-.84-1.49-1.42-1.55-.07-.01-.15-.02-.19.02-.54.4-1.16.33-1.77.29l-.02-.02c.18-.1.35-.19.53-.29h.01c.15.38.45.2.6.09.7-.49,1.25-.2,1.81.24.07.06.14.1.26.17.05-.28.07-.53.14-.78.02-.11.09-.27.18-.32.62-.28.69-.46.32-1.12.14-.08.27-.18.41-.27Z"/>
          <path class="cls-3" d="M64.74,27.2c-.07.12-.1.27-.18.37-.15.16-.33.28-.47.44-.34.34-.49.06-.69-.31.05-.07.09-.12.14-.19-.1-.05-.27-.11-.44-.18.44-.07.96.21,1.32-.27.02-.02.21.09.33.14Z"/>
          <path class="cls-3" d="M64.13,28.44c.1.1.24.29.19.36-.14.26-.34.47-.54.76.02.07.08.21.15.36-.5-.34-.49-.33-.05-.73.14-.14.21-.33.35-.57-.16-.01-.27-.03-.4-.05.1-.05.27-.16.29-.14Z"/>
          <path class="cls-5" d="M64.21,41.62c-.16.24-.31.5-.49.73-.06.07-.2.07-.32.1-.21-.24-.42-.45-.66-.71-.12.06-.27.12-.42.2-.1-.11-.19-.21-.27-.32-.25-.12-.5-.25-.76-.37-.02-.01-.03-.02-.06-.03h-.01s-.01-.01-.01-.01c-.08-.1-.14-.26-.24-.28-.36-.1-.29-.31-.17-.54.61.03,1.23.1,1.77-.29.05-.05.12-.03.19-.02.59.06,1.37.89,1.42,1.55Z"/>
          <path class="cls-3" d="M63.34,28.73c.17-.06.34-.1.5-.16-.14.11-.26.25-.42.32-.07.02-.27-.08-.28-.12-.02-.24-.03-.5.03-.72.05-.11.12-.23.21-.33-.01.41-.03.7-.05,1.02Z"/>
          <path class="cls-3" d="M63.62,37.49v.12c-.02.21-.05.43-.08.73-.25-.06-.5-.11-.76-.18-.26.46-.52.94-.79,1.42l-.06-.06c.2-.45.4-.92.62-1.37.11-.23.32-.31.54-.08.06.06.16.09.19.1.11-.25.23-.47.33-.7Z"/>
          <path class="cls-3" d="M63.39,25.32c.1.09.2.53-.09.75-.03-.2-.07-.42-.12-.75-.27-.17-.35-.46.02-.8,0,.27-.12.55.19.8Z"/>
          <path class="cls-8" d="M63.41,42.45h0c-.24-.09-.47-.2-.71-.31-.57.07-.6.05-.63-.52.08.1.17.2.27.32.15-.08.29-.15.42-.2.24.26.44.47.66.71Z"/>
          <path class="cls-3" d="M63.4,27.7h-.01s0,0,.01,0Z"/>
          <path class="cls-3" d="M63.3,26.07c-.07.18-.14.35-.2.53-.24-.29-.08-.44.2-.53Z"/>
          <path class="cls-3" d="M63.3,26.76c-.07.05-.14.1-.2.15v-.31c.07.06.14.1.2.16Z"/>
          <path class="cls-3" d="M62,39.59c-.05.06-.08.12-.12.19-.03-.02-.07-.06-.09-.08.05-.06.1-.11.16-.17l.06.06Z"/>
          <path class="cls-3" d="M61.87,39.79c-.06.05-.11.09-.18.14-.01-.02-.03-.05-.06-.07.05-.06.09-.1.15-.15.02.02.06.06.09.08Z"/>
          <path class="cls-3" d="M61.63,39.85s.05.05.06.07c-.11.06-.23.1-.35.16h-.01c.1-.09.2-.16.31-.23Z"/>
          <path class="cls-8" d="M61.23,41.21s.01,0,.01.01c-.19-.07-.49-.09-.54-.21-.19-.51-.55-.37-.92-.31h-.01c.34-.12.69-.23,1.03-.34l.02.02c-.12.24-.19.44.17.54.1.02.16.18.24.28Z"/>
          <path class="cls-8" d="M59.78,40.7c-.03.18-.08.36-.09.54-.08.78-.11.81-.9.93-.18.02-.36.07-.54.1,0-.03,0-.07-.01-.1.19-.05.4-.11.59-.14.6-.07.69-.18.73-.81.02-.18.15-.35.21-.52h.01Z"/>
          <path class="cls-3" d="M59.76,38.46c.14.46-.26.75-.68.92.11-.15.25-.27.33-.44.08-.18.19-.52.15-.55-.24-.15-.57-.34-.8-.28-.53.12-.55.07-.75-.43-.31-.75-.21-1.73-1.21-2.14-.21-.08-.33-.5-.42-.78-.17-.52-.8-1.02-1.32-.99-.14.01-.27-.03-.42-.06.1-.15.2-.28.31-.44-.02.09-.05.16-.08.24-.01.03-.02.08-.03.11h.12c.66-.08,1.44.42,1.57,1.04.1.43.25.77.71.97.23.11.43.41.53.67.19.51.32,1.04.47,1.57.02.08.09.14.14.2.2-.07.44-.24.59-.18.31.12.71.32.79.58Z"/>
          <path class="cls-5" d="M59.56,38.38s-.07.37-.15.55c-.08.17-.21.29-.33.44l-.54.58c.18.11.35.23.57.36-.15.08-.32.16-.46.26-.15.09-.27.21-.42.32-.17.01-.34.01-.51.02-.43.01-.87.01-1.3.02-.27.01-.54.02-.81.05-.15.01-.31.09-.44.08-.5-.02-.96.01-1.23.57-.45-.4-.85-.1-1.25.03-.02-.01-.05-.03-.06-.05-.01-.07-.01-.15-.02-.21.05-.07.09-.12.12-.19.11-.05.24-.06.31-.14.41-.47.86-.76,1.53-.69.19.01.4-.24.66-.4-.95-.17-1.76-.31-2.58-.45.35-.28.63-.51.9-.73q.27-.25-.35-.66c.11-.23.23-.44.35-.67.41.11.9.33,1.2-.11.18-.27.21-.71.16-1.04-.05-.23-.36-.4-.58-.61.02-.05.08-.1.08-.17.03-.19.05-.38.06-.58-.16.05-.33.1-.49.14-.38.09-.77.18-1.15.26l-.1-.14c.47-.55.41-1.14.27-1.79-.41.18-.23.86-.8.78-.25-.44.19-1.14-.57-1.29.03-.21.06-.38.08-.54.12-.08.24-.17.4-.27-.38-.19-.64-.33-.92-.46.02-.05.03-.09.05-.14.15-.02.29-.03.43-.06.03,0,.05.02.05.06.06.08.1.17.15.26.09-.07.2-.12.25-.21.08-.12.12-.27.17-.41.12-.38.24-.77.36-1.15.03-.03.08-.07.11-.1.55.03,1.13.32,1.66-.1h0c0,.18.01.35.01.53-.18.11-.37.2-.52.35-.14.11-.19.29-.28.45.18.05.36.14.54.12.55,0,1.1-.05,1.65-.07.05.07.09.15.15.21-.34.62-.67,1.23-.99,1.85-.1.16-.2.29-.31.44.15.02.28.07.42.06.52-.02,1.15.47,1.32.99.09.28.2.7.42.78.99.41.9,1.39,1.21,2.14.19.5.21.55.75.43.24-.06.57.14.8.28Z"/>
          <path class="cls-3" d="M59.05,40c.12.03.23.12.33.19-.07.1-.12.25-.23.29-.15.08-.31.15-.45.21-.16.06-.32.12-.47.19.15-.1.27-.23.42-.32.15-.1.32-.18.46-.26-.21-.14-.38-.25-.57-.36l.54-.58c-.12.18-.24.37-.38.61.16,0,.27-.02.35.01Z"/>
          <path class="cls-3" d="M58.23,42.17s.01.07.01.1c-.12.33-.16.78-.66.7-.32-.06-.62-.24-.93-.37-.15-.06-.27-.14-.42-.21-.06.17-.12.33-.19.49h-.01c0-.18.01-.36.01-.55.2.02.44-.01.63.07.19.07.34.28.53.36.36.12.72.19.81-.36.02-.08.14-.14.2-.21Z"/>
          <path class="cls-3" d="M56.41,40.94c.43-.01.87-.01,1.3-.02-.5.09-.97.21-1.53.2-.64-.01-1.47-.15-2.03.5-.07.08-.26.16-.34.12-.44-.27-.77-.07-1.1.21-.08.07-.21.09-.32.14-.05-.03-.1-.07-.15-.11l.34-.58c.01.07.01.15.02.21-.02.06-.03.1-.06.15.03-.03.07-.07.11-.1.41-.14.8-.43,1.25-.03.27-.55.73-.59,1.23-.57.14.01.29-.07.44-.08.27-.02.54-.03.81-.05Z"/>
          <path class="cls-3" d="M56.05,42.87c.43.18.36.54.28.87-.1.34-.4.18-.64.19-.69.05-1.3-.53-2-.21-.19.08-.36.18-.54.27.15.27-.07.72.43.84.57.12,1.14.26,1.68.45.21.08.42.32.55.53.14.19.18.44.27.66l-.06.06c-.11-.19-.23-.41-.36-.59-.14-.19-.28-.44-.47-.52-.54-.19-1.12-.31-1.67-.45-.37-.1-.71-.62-.55-1.03.07-.18.41-.27.64-.35.18-.07.4-.07.6-.09.16-.01.38-.09.44-.01.33.35.76.19,1.12.28.38.1.55-.07.45-.45-.05-.15-.12-.28-.18-.43h.01Z"/>
          <path class="cls-3" d="M55.64,31.06c.28.01.44.16.33.49-.23.64-.31,1.37-1.03,1.72.33-.62.66-1.23.99-1.85-.06-.07-.1-.15-.15-.21-.55.02-1.1.07-1.65.07-.18.01-.36-.08-.54-.12.09-.16.15-.34.28-.45.15-.15.34-.24.52-.35-.21.24-.43.47-.68.76.12.01.24.02.34.02.53-.02,1.06-.07,1.58-.06Z"/>
          <path class="cls-6" d="M54.87,33.5s.07.08.09.11h-.12s.02-.08.03-.11Z"/>
          <path class="cls-3" d="M54.89,36.33c.06.33.02.77-.16,1.04-.29.44-.79.23-1.2.11-.12.23-.24.44-.35.67q.62.41.35.66c-.09-.12-.16-.32-.27-.36-.32-.11-.31-.23-.2-.53.2-.58.5-.75,1.06-.51.12.06.29-.02.46-.03.03-.38.08-.73.11-1.08q-.61-.38-.37-1.07c-.41.1-.85.26-1.3.29-.32.02-.45-.06-.45-.24,0-.09.03-.21.11-.36.11-.24.18-.49.31-.8-.36.16-.59.33-.78.31-.15-.02-.26-.29-.42-.49-.06.03-.17.12-.32.17-.1.02-.23-.02-.34-.03.05-.1.07-.26.16-.32.19-.14.41-.21.51-.26-.14-.19-.35-.37-.4-.59-.02-.15.18-.33.28-.5-.02.16-.05.33-.08.54.76.15.32.85.57,1.29.58.08.4-.6.8-.78.14.64.2,1.23-.27,1.79l.1.14c.38-.08.77-.17,1.15-.26.16-.03.33-.09.49-.14-.01.19-.02.38-.06.58,0,.07-.06.12-.08.17.21.21.53.38.58.61Z"/>
          <path class="cls-3" d="M55.2,39.99c-.26.16-.46.41-.66.4-.67-.07-1.12.21-1.53.69-.07.08-.19.09-.31.14.44-.8,1.2-1.04,2.02-1.06-.41-.09-.82-.19-1.23-.27-.19-.03-.41.01-.58-.06-.19-.06-.36-.2-.54-.31.12-.12.23-.28.36-.36.25-.14.52-.24.78-.35-.27.23-.55.45-.9.73.81.15,1.63.28,2.58.45Z"/>
          <path class="cls-3" d="M54.46,29.2c.54.5.05.8-.06,1.14,0-.18-.01-.35-.01-.52h0c.07-.09.12-.15.18-.23-.02-.01-.06-.03-.08-.05-.03.09-.07.17-.1.26-.53.42-1.11.14-1.66.1.17-.03.34-.11.5-.1.51.05,1.02.11,1.23-.61Z"/>
          <path class="cls-5" d="M54.57,29.59c-.06.08-.11.14-.18.21.03-.09.07-.17.1-.26.02.01.06.03.08.05Z"/>
          <path class="cls-5" d="M52.67,41.66s-.08.07-.11.1c.02-.05.03-.09.06-.15.01.01.03.03.06.05Z"/>
          <path class="cls-3" d="M52.62,30.01c-.12.38-.24.77-.36,1.15-.05.14-.09.28-.17.41-.05.09-.16.15-.25.21-.05-.09-.09-.18-.15-.26.07.01.18.03.19.02.21-.49.42-.96.63-1.45.02-.03.07-.06.1-.09Z"/>
          <path class="cls-3" d="M52.14,35.31c.08.11.11.25.11.38,0,.16-.17.41-.32.45-.57.18-.57.53-.42.97.03.11.03.24.06.35-.07-.14-.14-.27-.21-.41-.19-.35-.38-.7-.63-1.14-.47.88-.78.64-1.31-.09-.05-.09-.08-.18-.14-.27-.08-.14-.25-.28-.23-.4.03-.12.21-.25.36-.31.14-.05.31.02.45,0,.31-.02.61-.01.89-.11.46-.16,1.12.14,1.38.57ZM51.87,35.99c.1-.06.2-.26.18-.37-.12-.57-.86-.94-1.34-.62-.38.26-.67.67-1.04,1.05.26.12.4.19.58.28.32-.59.34-.6.84-.21.34.27.55-.02.79-.12ZM50.11,35.15c-.03-.06-.06-.12-.09-.19-.26.08-.52.15-.79.23.17.16.34.31.53.5.16-.23.26-.37.35-.53Z"/>
          <path class="cls-5" d="M52.05,35.62c.02.11-.08.32-.18.37-.24.1-.45.4-.79.12-.5-.38-.52-.37-.84.21-.18-.09-.32-.16-.58-.28.37-.38.66-.79,1.04-1.05.49-.32,1.22.06,1.34.62Z"/>
          <path class="cls-3" d="M52.09,32.12c-.16.1-.27.19-.4.27.02-.06.06-.12.1-.21-.16-.07-.35-.1-.47-.2-.14-.14-.34-.41-.29-.49.15-.27.41-.28.62-.02-.14.02-.28.03-.43.06-.01.05-.02.09-.05.14.27.14.53.27.92.46Z"/>
          <path class="cls-5" d="M51.58,37.47c.19,1.34.01,1.57-1.33,1.59-.2.17-.4.33-.61.5t-.02.01h-.01c-.34.09-.67.23-1.01.21-.33,0-.69-.11-.98-.27-.21-.1-.28-.37.02-.51.4-.18.49-.52.53-.9.34-.03.42-.24.21-.46-.16-.17-.42-.24-.63-.35.05-.35.1-.7.16-1.12.07.01.24.03.41.06.37-.12.75-.26,1.11-.4.53.73.84.97,1.31.09.25.44.44.79.63,1.14.08.14.15.27.21.41Z"/>
          <path class="cls-5" d="M50.02,34.96c.03.07.06.14.09.19-.09.16-.19.31-.35.53-.19-.19-.36-.34-.53-.5.27-.08.53-.15.79-.23Z"/>
          <path class="cls-3" d="M49.63,39.56h-.01s-.01.01-.01.01t.02-.01Z"/>
          <path class="cls-3" d="M48.59,39.79c.34.01.67-.12,1.01-.21-.62.4-1.27.62-1.96.19-.26-.17-.4-.32-.4-.47s.14-.32.38-.51c.23-.17.36-.45.53-.68-.05.38-.14.72-.53.9-.31.14-.24.41-.02.51.29.16.66.27.98.27Z"/>
          <path class="cls-3" d="M48.38,37.64c.2.23.12.43-.21.46.16-.2.2-.38-.07-.53-.12-.08-.24-.19-.35-.28.21.11.47.18.63.35Z"/>
          <path class="cls-3" d="M47.66,36.06c.23.06.44.11.66.17-.17-.02-.34-.05-.41-.06-.06.42-.11.77-.16,1.12-.01-.14-.03-.26-.03-.4-.01-.11,0-.23,0-.34-.01-.16-.03-.33-.06-.5Z"/>
        </g>
      </g>
      <rect class="cls-9" x="68.34" y="4.8" width="31.92" height="33.48" rx="5.46" ry="5.46"/>
    </g>
    <path class="cls-11" d="M103.7,19.05c.05-.89.73-1.3,1.68-1.51v-1.46c-1.72-.66-2.18-1.58-1.26-2.52.37-.27.75-.55,1.25-.92v-1.2c-.41-.27-.75-.48-1.08-.7l.03.03c-1.21-.84-.78-1.97,1.06-2.72v-1.43c-1-.26-1.75-.71-1.68-1.73.06-.9.75-1.29,1.67-1.51l-.57-1.24c-.3-.56-.56-1.05-1.07-1.47-.22-.18-.59-.3-.89-.29-.3,0-.77.14-.86.32-.35.71-.91,1.11-1.79,1.1-.89,0-1.44-.4-1.77-1.12-.08-.18-.57-.3-.87-.3-.3,0-.77.14-.86.32-.34.71-.9,1.12-1.79,1.11-.88,0-1.45-.4-1.78-1.11-.09-.18-.56-.31-.86-.31-.3,0-.77.13-.86.31-.35.71-.89,1.11-1.79,1.11-.89,0-1.45-.39-1.79-1.1-.08-.18-.56-.31-.86-.31-.3,0-.78.13-.86.31-.34.71-.89,1.11-1.78,1.11-.89,0-1.44-.39-1.8-1.09-.1-.19-.61-.32-.94-.32-.28,0-.7.17-.81.37-.36.66-.88,1.03-1.75,1.04-.86,0-1.39-.36-1.77-1.01-.13-.21-.57-.4-.87-.4-.31,0-.79.16-.9.37-.37.65-.88,1.03-1.74,1.04-.87.01-1.38-.37-1.77-1.01-.13-.21-.57-.4-.88-.4-.31,0-.79.16-.9.37-.37.65-.89,1.04-1.75,1.05-.9,0-1.46-.38-1.79-1.09-.08-.17-.44-.33-.68-.33-.35,0-.81.04-1.04.23-.54.43-.83.91-1.11,1.62l-.57,1.17c1,.18,1.64.66,1.69,1.57.04.76-.45,1.23-1.68,1.64,0,.47,0,.95,0,1.44,1.81.77,2.24,1.87,1.04,2.72l.03-.03c-.34.22-.68.43-1.11.71v1.34c1.23.39,1.79.91,1.73,1.69-.06.86-.65,1.36-1.67,1.53v1.52c.94.25,1.71.69,1.66,1.7-.05.89-.71,1.32-1.68,1.52v1.47c1.73.69,2.17,1.58,1.26,2.53-.38.28-.76.56-1.26.93v1.2c.41.26.75.48,1.09.69l-.03-.03c1.21.86.78,1.98-1.06,2.71v1.44c.98.24,1.75.69,1.69,1.7-.06.89-.72,1.32-1.68,1.51v1.46c1.75.71,2.18,1.61,1.24,2.54l.03-.03c-.25.36-.34.43-.59,1.15l-.32.91c.46.51.78.98,1.31,1.41.2.16.54.28.81.27.31,0,.65-.12.92-.26.23-.12.36-.38.55-.56.01-.01.03-.02.04-.03.4-.19.86-.59,1.2-.53.58.11,1.3.41,1.58.82.31.45.56.6,1.14.6.56,0,.82-.16.95-.6.05-.17.3-.31.45-.46.77-.22,1.54-.53,2.27.08.16.09.39.15.48.28.73.98,1.47.98,2.17-.03.09-.13.25-.22.37-.33.77-.22,1.54-.53,2.27.08.16.09.39.15.48.28.75.99,1.42.99,2.16,0,.1-.13.32-.18.49-.27.72-.38,1.44-.51,2.17,0,.16.09.39.15.49.27.75.99,1.41.99,2.16,0,.1-.13.32-.18.49-.27.72-.37,1.45-.57,2.17,0,.16.09.39.15.48.28.73.98,1.49.98,2.19-.03.09-.13.24-.22.36-.33.77-.3,1.53-.41,2.27.08.18.12.48.21.52.35.15.54.54.62,1.13.63.58.01.73-.23.95-.62.54-.99,1.98-1.14,2.82-.35l-.03-.03c.15.11.39.21.43.34.16.51.49.64,1.11.65.63.01.74-.3,1.02-.65.31-.4.85-.67,1.44-1.11v-1.23c-1.72-.72-2.17-1.65-1.22-2.52l-.03.03c.36-.29.72-.59,1.25-1.01v-1.02c-.54-.48-.98-.87-1.42-1.26-.5-.83-.15-1.69,1.43-2.23v-1.44c-1.82-.75-2.25-1.88-1.04-2.72l-.03.03c.31-.21.62-.42,1.06-.72v-1.19c-.48-.35-.86-.64-1.24-.92l.03.03c-.64-.46-.57-1.03-.27-1.58.29-.52.76-.89,1.52-.78v-1.64c-1.02-.23-1.75-.71-1.7-1.71Z"/>
    <rect class="cls-10" x="68.5" y="28.12" width="31.62" height="10.39" rx="4.6" ry="4.6"/>
    <text class="cls-12" transform="translate(70.23 35.67)"><tspan x="0" y="0">LAPONIE</tspan></text>
    <g>
      <path class="cls-1" d="M10.53,31.74c3.45.52,5.63-1.51,7.88-3.55,2.83-2.57,7.71-2.59,10.76.55,1.38,1.42,2.89,2.58,4.93,3,1.94.4,3.54-.28,5.02-1.3,1.08-.74,1.99-1.74,2.98-2.61,2.67-2.35,8.13-1.75,10.19.96,2.8,3.67,7.51,3.94,11.01.87,1.55-1.35,2.97-2.9,5.17-3.18.46-.06.93,0,1.67,0-.34.45-.41.64-.51.66-2.67.32-4.46,2.09-6.3,3.79-2.67,2.47-7.91,2.31-9.89-.19-.76-.96-1.99-1.55-2.98-2.35-2.46-1.98-6.63-1.2-8.36.66-.37.39-.83.7-1.19,1.1-2.99,3.33-8.6,3.44-11.98-.25-1.36-1.48-2.99-2.48-5.09-2.63-2.36-.16-4.16.9-5.74,2.46-1.69,1.66-3.57,2.93-6.03,2.98-.54.01-1.08-.2-1.62-.31.02-.22.05-.44.07-.67Z"/>
      <path class="cls-1" d="M32.17,24.92c-1.1-.81-2.3-1.52-3.28-2.46-1.98-1.88-4.22-3.04-6.92-2.27-1.38.4-2.69,1.33-3.81,2.28-1.72,1.45-3.42,2.76-5.78,2.88-2.1.11-3.99-.37-5.59-1.78-1.83-1.62-3.52-3.47-6.18-3.71-.1,0-.18-.21-.61-.75,1.13.11,1.99-.02,2.59.31,1.36.74,2.65,1.64,3.86,2.61,1.43,1.15,2.83,2.16,4.75,2.44,2.69.39,4.47-1,6.18-2.67,3.74-3.67,7.98-3.76,11.89-.26.9.81,1.9,1.51,2.83,2.29.19.16.28.46.41.7-.11.13-.23.26-.34.39Z"/>
      <path class="cls-1" d="M31.03,16.41c-.59-.26-1.22-.46-1.75-.8-1.55-.98-2.96-2.54-4.63-2.89-1.51-.32-3.34.51-4.92,1.12-.9.35-1.6,1.26-2.36,1.95-3.29,3-7.51,3.15-10.9.24-1.75-1.5-3.31-3.23-5.79-3.48-.09,0-.16-.22-.41-.61.7,0,1.22-.09,1.71.02,2.06.45,3.51,1.84,5.01,3.21,2.97,2.71,6.3,2.74,9.4.19.45-.37.92-.74,1.35-1.14,1.95-1.82,4.17-2.9,6.91-2.39,2.84.53,4.93,2.13,6.35,4.63l.04-.04Z"/>
      <path class="cls-1" d="M27.37,5.82c.39.23.79.43,1.16.69,1.8,1.29,3.25,3.09,5.72,3.32,2.04.19,3.78-.33,5.32-1.61.87-.72,1.66-1.53,2.55-2.21,2.77-2.11,6.54-2.09,9.29.02,1.36,1.04,2.67,2.14,3.99,3.23.16.14.23.39.52.92-.66-.16-1.05-.15-1.31-.33-.8-.56-1.64-1.11-2.31-1.8-3.82-3.92-7.78-3.4-11.41.2-3.36,3.32-7.8,3.47-11.31.33-.85-.76-1.66-1.57-2.48-2.35.09-.13.18-.26.27-.4Z"/>
      <path class="cls-1" d="M9.15,39.03c.39-.05.8-.2,1.15-.12,2.99.66,5.24-.61,7.22-2.67,1.93-2.01,4.28-2.98,7.05-2.48,1.22.22,2.54.65,3.49,1.4,2.2,1.76,4.06,3.99,7.28,3.96-.02.2-.05.41-.07.61-.62.03-1.36.3-1.85.06-1.47-.72-2.95-1.5-4.24-2.49-1.44-1.1-2.71-2.39-4.64-2.65-2.61-.36-4.7.56-6.47,2.43-2,2.12-4.41,3.24-7.38,2.83-.54-.07-1.05-.29-1.58-.43.01-.15.02-.29.03-.44Z"/>
      <path class="cls-1" d="M42.9,20.47c1.84-1.69,4.08-1.84,6.1-1.02,1.83.75,3.46,2.13,5.01,3.43,1.75,1.46,3.82,1.97,5.86,1.61,1.32-.23,2.46-1.49,3.67-2.31,1.37-.92,2.68-1.94,4.11-2.76.59-.33,1.42-.23,2.15-.33.04.15.09.31.13.46-.24.16-.46.42-.71.45-1.86.22-3.23,1.27-4.57,2.47-1.53,1.36-3.07,2.78-5.3,2.86-2.46.08-4.51-.53-6.43-2.39-2.34-2.26-5.18-3.96-8.76-2.49-.36.15-.83.02-1.25.02Z"/>
      <path class="cls-1" d="M35.96,39.83c1.88-1.42,3.6-2.59,5.17-3.94,2.48-2.14,5.24-2.85,8.33-1.78.96.33,1.76,1.14,2.62,1.76,1.67,1.2,3.34,2.41,4.93,3.91-.94-.34-1.99-.53-2.81-1.07-1.22-.8-2.23-1.91-3.4-2.78-2.72-2.02-6.03-1.79-8.64.39-1.45,1.21-3.05,2.24-4.63,3.27-.37.24-.96.16-1.57.25Z"/>
      <path class="cls-1" d="M17.74,7.19c0,1.87-1.64,2.38-2.83,2.87-3.26,1.36-6.27.89-8.87-1.78-1.39-1.43-2.99-2.71-5.14-2.92-.21-.02-.41-.2-.61-.31l.06-.46c.74.07,1.58-.07,2.2.24,1.21.6,2.43,1.3,3.43,2.2,4.15,3.72,6.45,3.87,10.99.57.23-.17.52-.25.79-.37l-.04-.04Z"/>
      <path class="cls-1" d="M57.03,10.13c.46-.08.91-.22,1.37-.23,2.32-.02,4.05-1.17,5.63-2.74,1.37-1.36,2.89-2.49,4.93-2.62.29-.02.59.08.96.49-.3.14-.61.27-.9.43-1.47.81-2.96,1.59-4.39,2.46-1.32.8-2.5,1.91-3.91,2.48-1.09.44-2.44.24-3.67.33,0-.2,0-.39,0-.59Z"/>
      <path class="cls-1" d="M41.57,15.12c-.51-.99.07-1.57.81-2.07,2.48-1.68,6.44-2.12,9.9,1.04.7.64,1.35,1.33,2.03,1.99-.16.17-.32.35-.47.52-.6-.5-1.26-.94-1.78-1.51-2.91-3.26-7.7-3.35-10.5.01,0,0,.01.02.01.02Z"/>
      <path class="cls-1" d="M58.18,39.78c.25-.27.31-.39.38-.4,3.04-.58,5.03-2.8,7.33-4.57,1.11-.85,2.46-1.27,4.17-.87-.35.31-.53.61-.73.62-2.28.18-3.81,1.63-5.32,3.1-1.57,1.52-3.39,2.32-5.84,2.12Z"/>
      <path class="cls-1" d="M.38,26.77c1.46-1.1,7.6,2.34,8.82,5.31-1.99-.41-2.98-1.95-4.36-2.89-1.4-.96-3-1.64-4.46-2.41Z"/>
      <path class="cls-1" d="M30.99,16.45c.52.08,1.06.09,1.55.26,2.66.94,5.02.54,7.2-1.3.4-.34,1.2-.22,1.82-.3,0,0-.01-.02,0,0-1.31.86-2.56,1.86-3.97,2.52-1.68.79-3.52.65-5.24-.03-.51-.2-.88-.78-1.31-1.19,0,0-.04.04-.04.04Z"/>
      <path class="cls-1" d="M42.23,21.13c-2.56,3.94-7.31,5.24-8.52,3.28,3.73,1.06,5.74-2.08,8.52-3.28Z"/>
      <path class="cls-1" d="M63.21,16.37c.15-2.49,4.91-5.26,6.84-4.11-1.27.51-2.52.85-3.6,1.49-1.11.66-2.04,1.62-3.24,2.61Z"/>
      <path class="cls-1" d="M.2,33.93c2.46-.5,5.34,1.02,5.79,3-1.92-.99-3.79-1.96-5.79-3Z"/>
      <path class="cls-1" d="M17.78,7.24c.56-.56,1.03-1.33,1.71-1.65,1.08-.51,2.29-.77,3.46-1.04.28-.06.64.24.94.55-2.12-.04-3.7.95-5.22,2.16-.18.14-.61-.03-.93-.06,0,0,.03.04.03.04Z"/>
      <path class="cls-1" d="M59.28,17.38c1-.42,1.99-.85,3.03-1.29.04,1.28-1.2,1.93-3.03,1.29Z"/>
    </g>
  </g>
</svg>