<?xml version="1.0" encoding="UTF-8"?>
<svg id="Calque_2" data-name="Calque 2" xmlns="http://www.w3.org/2000/svg" viewBox="0 0 106.89 45.04">
  <defs>
    <style>
      .cls-1 {
        fill: #d11c1f;
      }

      .cls-1, .cls-2, .cls-3 {
        stroke-width: 0px;
      }

      .cls-2 {
        fill: #000;
      }

      .cls-3 {
        fill: #aeb5bd;
      }

      .cls-4, .cls-5 {
        stroke: #000;
      }

      .cls-4, .cls-5, .cls-6 {
        fill: none;
        stroke-miterlimit: 10;
      }

      .cls-5 {
        stroke-width: .75px;
      }

      .cls-7 {
        fill: #eb774b;
        font-family: ClearSans, 'Clear Sans';
        font-size: 6.47px;
      }

      .cls-6 {
        stroke: #e2935b;
      }
    </style>
  </defs>
  <g id="Flora">
    <path class="cls-5" d="M104.61,19.92c.05-.93.77-1.37,1.76-1.58v-1.53c-1.8-.69-2.28-1.66-1.32-2.64.39-.29.78-.57,1.31-.96v-1.26c-.43-.28-.78-.5-1.13-.73l.03.03c-1.27-.88-.81-2.07,1.11-2.85v-1.5c-1.04-.27-1.83-.74-1.76-1.81.06-.94.79-1.35,1.75-1.58l-.59-1.3c-.31-.58-.59-1.1-1.12-1.54-.23-.18-.62-.31-.94-.3-.31,0-.8.15-.9.34-.36.74-.95,1.16-1.88,1.15-.93,0-1.51-.42-1.86-1.17-.09-.19-.6-.32-.91-.32-.31,0-.8.14-.9.33-.36.74-.94,1.17-1.87,1.16-.92,0-1.52-.42-1.87-1.17-.09-.19-.59-.33-.9-.33-.31,0-.81.14-.9.33-.36.74-.93,1.16-1.87,1.16-.93,0-1.52-.41-1.87-1.15-.09-.19-.59-.33-.9-.33-.31,0-.81.13-.9.32-.36.74-.93,1.16-1.86,1.16-.93,0-1.51-.41-1.88-1.14-.1-.2-.64-.34-.98-.34-.29,0-.73.18-.85.39-.38.69-.92,1.08-1.83,1.09-.9,0-1.45-.38-1.85-1.06-.13-.22-.6-.41-.92-.42-.32,0-.82.17-.95.38-.39.68-.92,1.08-1.82,1.09-.91.01-1.45-.38-1.86-1.05-.14-.22-.6-.41-.92-.42-.32,0-.82.17-.95.39-.39.68-.93,1.09-1.83,1.1-.94,0-1.53-.4-1.87-1.14-.08-.17-.46-.34-.71-.35-.37,0-.84.05-1.09.24-.56.45-.87.95-1.17,1.7l-.59,1.22c1.05.19,1.72.7,1.77,1.64.04.8-.47,1.28-1.76,1.72,0,.49,0,1,0,1.51,1.9.8,2.34,1.95,1.09,2.85l.03-.03c-.36.23-.71.45-1.16.74v1.4c1.29.41,1.87.96,1.81,1.76-.07.9-.68,1.42-1.75,1.6v1.6c.99.26,1.79.73,1.73,1.78-.05.93-.74,1.38-1.76,1.59v1.54c1.81.72,2.27,1.65,1.32,2.64-.4.29-.79.59-1.32.97v1.25c.43.27.78.5,1.14.72l-.03-.03c1.27.9.81,2.08-1.11,2.84v1.51c1.03.25,1.83.72,1.76,1.78-.06.93-.75,1.38-1.76,1.58v1.53c1.83.74,2.28,1.68,1.3,2.66l.03-.03c-.27.38-.36.45-.62,1.2l-.34.96c.48.53.82,1.02,1.37,1.48.2.17.56.29.85.29.33,0,.68-.12.97-.27.24-.13.38-.39.57-.59.02-.01.03-.02.04-.03.42-.2.9-.62,1.25-.55.61.12,1.36.43,1.65.85.33.47.59.63,1.19.63.59,0,.85-.16.99-.63.05-.18.31-.32.47-.48.8-.23,1.61-.55,2.37.09.17.1.41.16.51.29.76,1.03,1.54,1.02,2.28-.03.09-.13.26-.23.39-.35.8-.23,1.61-.55,2.37.09.17.09.4.15.51.29.79,1.04,1.48,1.03,2.26,0,.1-.13.34-.19.51-.28.76-.4,1.51-.54,2.27,0,.17.09.41.15.51.29.79,1.03,1.48,1.03,2.26,0,.1-.13.34-.19.51-.29.76-.38,1.51-.59,2.27,0,.17.1.41.16.51.29.76,1.03,1.56,1.02,2.29-.03.09-.13.25-.23.38-.35.81-.32,1.61-.43,2.37.09.19.12.5.22.54.37.16.57.57.65,1.18.66.61.01.77-.24.99-.65.57-1.03,2.08-1.19,2.95-.36l-.03-.03c.15.12.4.22.45.36.17.53.52.67,1.16.68.66.01.78-.31,1.07-.68.33-.42.89-.7,1.51-1.16v-1.29c-1.8-.76-2.27-1.73-1.28-2.64l-.03.03c.38-.31.76-.61,1.3-1.05v-1.06c-.57-.5-1.02-.91-1.48-1.32-.52-.87-.15-1.76,1.49-2.33v-1.51c-1.91-.78-2.36-1.96-1.09-2.84l-.04.03c.33-.22.65-.44,1.11-.75v-1.25c-.5-.37-.9-.67-1.3-.96l.03.03c-.67-.48-.59-1.08-.28-1.65.3-.54.79-.93,1.59-.82v-1.72c-1.07-.24-1.83-.74-1.77-1.79Z"/>
    <rect class="cls-6" x="67.77" y="29.41" width="33.09" height="10.87" rx="5.29" ry="5.29"/>
    <text class="cls-7" transform="translate(72.25 36.93)"><tspan x="0" y="0">SAHARA</tspan></text>
    <g>
      <path class="cls-4" d="M78.99,7.92c.51,0,.89.02,1.26,0,.66-.05,1.32-.13,1.98-.19.23-.02.46-.02.78-.04-.04.32-.08.61-.12.92.67.3,1.39.62,2.1.94.34-.79.37-.75,1.13-.49.52.18,1.12.23,1.68.2.65-.04,1.12.15,1.06.6-.02.13-.15.24-.31.47.27.4.63.92.96,1.46.23.37.37.79.61,1.15.23.33.55.6.81.9.18.21.31.46.51.64.16.14.4.29.59.27.46-.03.92-.16,1.38-.25.13.87-.66,2.25-1.37,2.74-.65.46-1.25,1.05-1.7,1.71-.21.3-.16.93,0,1.31.22.5.15.99.11,1.46-.02.2-.32.4-.52.56-.16.13-.36.23-.55.33-.45.22-.66.51-.46,1.04.05.13-.04.45-.15.49-.79.31-.73,1.25-1.34,1.73-.55.43-.96.98-1.78.81-.21-.05-.46.05-.69.1-.34.08-.5-.08-.61-.38-.16-.45-.34-.88-.52-1.32-.11-.28-.24-.56-.35-.85-.18-.5-.28-1.05-.54-1.5-.33-.59-.18-1.1.05-1.65.1-.24.12-.52.13-.79.02-.9-.55-1.51-1.06-2.17-.17-.22-.06-.68,0-1.02.11-.64.02-.76-.63-.73-.15,0-.38-.02-.43-.11-.3-.57-.8-.53-1.23-.32-.81.4-1.7-.02-2.5.32-.46-.36-.96-.68-1.37-1.09-.29-.3-.52-.7-.66-1.09-.12-.33-.12-.73-.08-1.08.05-.48.18-.94.3-1.41.06-.22.12-.47.26-.62.52-.57.92-1.27,1.71-1.53.07-.02.16-.08.17-.13.12-.84,1.03-.89,1.34-1.37Z"/>
      <path class="cls-4" d="M92.95,21.2c.03.25.14.54.06.74-.29.76-.62,1.51-1.01,2.22-.12.23-.45.34-.68.51-.09-.23-.26-.46-.26-.7,0-.27.23-.55.21-.81-.07-.82.45-1.13,1.05-1.44.19-.1.32-.34.48-.51.05,0,.11,0,.16-.01Z"/>
    </g>
    <g>
      <path class="cls-1" d="M81.98,6.84c-.4-.03-.77-.16-1.09-.41-.49-.4-.73-.92-.72-1.55,0-.21.04-.42.12-.61.16-.39.4-.72.76-.93.61-.37,1.25-.39,1.89-.07.06.03.1.09.16.11.13.05.21.17.32.25.04.03.05.1.09.12.07.04.09.12.14.17.13.16.2.34.25.53.27.99-.31,2.03-1.29,2.32-.01,0-.03,0-.04.01-.13.04-.26.08-.4.06-.06,0-.13,0-.19,0Z"/>
      <path class="cls-3" d="M81.98,6.84c.06,0,.13,0,.19,0,.14.01.27-.03.4-.06-.03.16-.02.33-.03.49-.02.31-.02.63-.04.94-.01.19,0,.38-.03.57-.01.08,0,.15,0,.23,0,.24-.01.49-.03.73-.02.24-.02.48-.03.72,0,.09,0,.17,0,.26,0,.03,0,.05.02.07.06.07.04.17-.04.22-.18.1-.37.1-.56.04-.06-.02-.14-.05-.15-.13,0-.03,0-.06.02-.08.04-.03.04.01.05.03,0,0,.02.01.02,0,.01-.02.01-.04,0-.05-.06-.08-.03-.18-.03-.27,0-.11.03-.21.02-.32-.03-1.03,0-2.06-.01-3.09,0-.08,0-.16.03-.24,0-.03.02-.05.06-.04.04.01.08.02.12,0Z"/>
    </g>
    <rect class="cls-6" x="67.6" y="5" width="33.41" height="35.03" rx="5.54" ry="5.54"/>
    <g>
      <path class="cls-2" d="M10.53,32.47c3.45.52,5.63-1.51,7.88-3.55,2.83-2.57,7.71-2.59,10.76.55,1.38,1.42,2.89,2.58,4.93,3,1.94.4,3.54-.28,5.02-1.3,1.08-.74,1.99-1.74,2.98-2.61,2.67-2.35,8.13-1.75,10.19.96,2.8,3.67,7.51,3.94,11.01.87,1.55-1.35,2.97-2.9,5.17-3.18.46-.06.93,0,1.67,0-.34.45-.41.64-.51.66-2.67.32-4.46,2.09-6.3,3.79-2.67,2.47-7.91,2.31-9.89-.19-.76-.96-1.99-1.55-2.98-2.35-2.46-1.98-6.63-1.2-8.36.66-.37.39-.83.7-1.19,1.1-2.99,3.33-8.6,3.44-11.98-.25-1.36-1.48-2.99-2.48-5.09-2.63-2.36-.16-4.16.9-5.74,2.46-1.69,1.66-3.57,2.93-6.03,2.98-.54.01-1.08-.2-1.62-.31.02-.22.05-.44.07-.67Z"/>
      <path class="cls-2" d="M32.17,25.65c-1.1-.81-2.3-1.52-3.28-2.46-1.98-1.88-4.22-3.04-6.92-2.27-1.38.4-2.69,1.33-3.81,2.28-1.72,1.45-3.42,2.76-5.78,2.88-2.1.11-3.99-.37-5.59-1.78-1.83-1.62-3.52-3.47-6.18-3.71-.1,0-.18-.21-.61-.75,1.13.11,1.99-.02,2.59.31,1.36.74,2.65,1.64,3.86,2.61,1.43,1.15,2.83,2.16,4.75,2.44,2.69.39,4.47-1,6.18-2.67,3.74-3.67,7.98-3.76,11.89-.26.9.81,1.9,1.51,2.83,2.29.19.16.28.46.41.7-.11.13-.23.26-.34.39Z"/>
      <path class="cls-2" d="M31.03,17.14c-.59-.26-1.22-.46-1.75-.8-1.55-.98-2.96-2.54-4.63-2.89-1.51-.32-3.34.51-4.92,1.12-.9.35-1.6,1.26-2.36,1.95-3.29,3-7.51,3.15-10.9.24-1.75-1.5-3.31-3.23-5.79-3.48-.09,0-.16-.22-.41-.61.7,0,1.22-.09,1.71.02,2.06.45,3.51,1.84,5.01,3.21,2.97,2.71,6.3,2.74,9.4.19.45-.37.92-.74,1.35-1.14,1.95-1.82,4.17-2.9,6.91-2.39,2.84.53,4.93,2.13,6.35,4.63l.04-.04Z"/>
      <path class="cls-2" d="M27.37,6.55c.39.23.79.43,1.16.69,1.8,1.29,3.25,3.09,5.72,3.32,2.04.19,3.78-.33,5.32-1.61.87-.72,1.66-1.53,2.55-2.21,2.77-2.11,6.54-2.09,9.29.02,1.36,1.04,2.67,2.14,3.99,3.23.16.14.23.39.52.92-.66-.16-1.05-.15-1.31-.33-.8-.56-1.64-1.11-2.31-1.8-3.82-3.92-7.78-3.4-11.41.2-3.36,3.32-7.8,3.47-11.31.33-.85-.76-1.66-1.57-2.48-2.35.09-.13.18-.26.27-.4Z"/>
      <path class="cls-2" d="M9.15,39.76c.39-.05.8-.2,1.15-.12,2.99.66,5.24-.61,7.22-2.67,1.93-2.01,4.28-2.98,7.05-2.48,1.22.22,2.54.65,3.49,1.4,2.2,1.76,4.06,3.99,7.28,3.96-.02.2-.05.41-.07.61-.62.03-1.36.3-1.85.06-1.47-.72-2.95-1.5-4.24-2.49-1.44-1.1-2.71-2.39-4.64-2.65-2.61-.36-4.7.56-6.47,2.43-2,2.12-4.41,3.24-7.38,2.83-.54-.07-1.05-.29-1.58-.43.01-.15.02-.29.03-.44Z"/>
      <path class="cls-2" d="M42.9,21.2c1.84-1.69,4.08-1.84,6.1-1.02,1.83.75,3.46,2.13,5.01,3.43,1.75,1.46,3.82,1.97,5.86,1.61,1.32-.23,2.46-1.49,3.67-2.31,1.37-.92,2.68-1.94,4.11-2.76.59-.33,1.42-.23,2.15-.33.04.15.09.31.13.46-.24.16-.46.42-.71.45-1.86.22-3.23,1.27-4.57,2.47-1.53,1.36-3.07,2.78-5.3,2.86-2.46.08-4.51-.53-6.43-2.39-2.34-2.26-5.18-3.96-8.76-2.49-.36.15-.83.02-1.25.02Z"/>
      <path class="cls-2" d="M35.96,40.56c1.88-1.42,3.6-2.59,5.17-3.94,2.48-2.14,5.24-2.85,8.33-1.78.96.33,1.76,1.14,2.62,1.76,1.67,1.2,3.34,2.41,4.93,3.91-.94-.34-1.99-.53-2.81-1.07-1.22-.8-2.23-1.91-3.4-2.78-2.72-2.02-6.03-1.79-8.64.39-1.45,1.21-3.05,2.24-4.63,3.27-.37.24-.96.16-1.57.25Z"/>
      <path class="cls-2" d="M17.74,7.92c0,1.87-1.64,2.38-2.83,2.87-3.26,1.36-6.27.89-8.87-1.78-1.39-1.43-2.99-2.71-5.14-2.92-.21-.02-.41-.2-.61-.31l.06-.46c.74.07,1.58-.07,2.2.24,1.21.6,2.43,1.3,3.43,2.2,4.15,3.72,6.45,3.87,10.99.57.23-.17.52-.25.79-.37l-.04-.04Z"/>
      <path class="cls-2" d="M57.03,10.86c.46-.08.91-.22,1.37-.23,2.32-.02,4.05-1.17,5.63-2.74,1.37-1.36,2.89-2.49,4.93-2.62.29-.02.59.08.96.49-.3.14-.61.27-.9.43-1.47.81-2.96,1.59-4.39,2.46-1.32.8-2.5,1.91-3.91,2.48-1.09.44-2.44.24-3.67.33,0-.2,0-.39,0-.59Z"/>
      <path class="cls-2" d="M41.57,15.85c-.51-.99.07-1.57.81-2.07,2.48-1.68,6.44-2.12,9.9,1.04.7.64,1.35,1.33,2.03,1.99-.16.17-.32.35-.47.52-.6-.5-1.26-.94-1.78-1.51-2.91-3.26-7.7-3.35-10.5.01,0,0,.01.02.01.02Z"/>
      <path class="cls-2" d="M58.18,40.51c.25-.27.31-.39.38-.4,3.04-.58,5.03-2.8,7.33-4.57,1.11-.85,2.46-1.27,4.17-.87-.35.31-.53.61-.73.62-2.28.18-3.81,1.63-5.32,3.1-1.57,1.52-3.39,2.32-5.84,2.12Z"/>
      <path class="cls-2" d="M.38,27.49c1.46-1.1,7.6,2.34,8.82,5.31-1.99-.41-2.98-1.95-4.36-2.89-1.4-.96-3-1.64-4.46-2.41Z"/>
      <path class="cls-2" d="M30.99,17.18c.52.08,1.06.09,1.55.26,2.66.94,5.02.54,7.2-1.3.4-.34,1.2-.22,1.82-.3,0,0-.01-.02,0,0-1.31.86-2.56,1.86-3.97,2.52-1.68.79-3.52.65-5.24-.03-.51-.2-.88-.78-1.31-1.19,0,0-.04.04-.04.04Z"/>
      <path class="cls-2" d="M42.23,21.86c-2.56,3.94-7.31,5.24-8.52,3.28,3.73,1.06,5.74-2.08,8.52-3.28Z"/>
      <path class="cls-2" d="M63.21,17.1c.15-2.49,4.91-5.26,6.84-4.11-1.27.51-2.52.85-3.6,1.49-1.11.66-2.04,1.62-3.24,2.61Z"/>
      <path class="cls-2" d="M.2,34.66c2.46-.5,5.34,1.02,5.79,3-1.92-.99-3.79-1.96-5.79-3Z"/>
      <path class="cls-2" d="M17.78,7.97c.56-.56,1.03-1.33,1.71-1.65,1.08-.51,2.29-.77,3.46-1.04.28-.06.64.24.94.55-2.12-.04-3.7.95-5.22,2.16-.18.14-.61-.03-.93-.06,0,0,.03.04.03.04Z"/>
      <path class="cls-2" d="M59.28,18.11c1-.42,1.99-.85,3.03-1.29.04,1.28-1.2,1.93-3.03,1.29Z"/>
    </g>
  </g>
</svg>