<?xml version="1.0" encoding="UTF-8"?>
<svg id="Calque_2" data-name="Calque 2" xmlns="http://www.w3.org/2000/svg" xmlns:xlink="http://www.w3.org/1999/xlink" viewBox="0 0 1890.52 4913.93">
  <defs>
    <style>
      .cls-1 {
        fill: #e4c25b;
      }

      .cls-1, .cls-2, .cls-3, .cls-4, .cls-5, .cls-6, .cls-7, .cls-8, .cls-9, .cls-10, .cls-11 {
        stroke-width: 0px;
      }

      .cls-2 {
        fill: #959164;
      }

      .cls-3 {
        fill: #f4e7ae;
      }

      .cls-4 {
        fill: none;
      }

      .cls-5 {
        fill: #abb44c;
      }

      .cls-6 {
        fill: #f2df8d;
      }

      .cls-12 {
        clip-path: url(#clippath);
      }

      .cls-7 {
        fill: #e2d6a2;
      }

      .cls-8 {
        fill: #aeab70;
      }

      .cls-9 {
        fill: #c1be77;
      }

      .cls-10 {
        fill: #c7ddc3;
      }

      .cls-11 {
        fill: #cdc297;
      }
    </style>
    <clipPath id="clippath">
      <rect class="cls-4" y="0" width="1890.52" height="4913.93"/>
    </clipPath>
  </defs>
  <g id="pampa">
    <g class="cls-12">
      <rect class="cls-10" x="-7.06" y="-16.05" width="1916.81" height="920.17"/>
      <g>
        <polygon class="cls-9" points="576.14 718.07 576.14 718.07 568.94 804.67 576.14 718.07"/>
        <path class="cls-9" d="M597.14,674.17c2.3-.8,4.7-1.5,6.9-2.6-2.2,1.1-4.5,1.8-6.9,2.6Z"/>
        <path class="cls-9" d="M620.34,655.17c3.4-4.1,6.7-8.1,9.9-12.3-3.2,4.2-6.5,8.3-9.9,12.3Z"/>
        <path class="cls-9" d="M644.34,622.07c1.4-2.4,2.8-4.9,4.1-7.4-1.3,2.4-2.6,4.9-4.1,7.4-2.1,3.6-4.4,7.2-6.7,10.7,2.4-3.5,4.6-7.1,6.7-10.7Z"/>
        <path class="cls-9" d="M660.44,597.17c2-2,4.1-3.8,6.3-5.5-2.2,1.8-4.3,3.6-6.3,5.5Z"/>
        <path class="cls-9" d="M688.74,568.67c-3.3,5.6-7.5,10.7-12.3,15.1-3.1,2.8-6.5,5.3-9.7,7.9,3.3-2.6,6.6-5.2,9.7-8,4.8-4.3,9-9.4,12.3-15Z"/>
        <path class="cls-9" d="M688.74,568.67c.7-1.2,1.5-2.5,2.1-3.8-.6,1.2-1.3,2.5-2.1,3.8Z"/>
        <path class="cls-9" d="M696.84,548.37c.4-1.3.7-2.6,1.1-3.8-.3,1.2-.7,2.5-1.1,3.8Z"/>
        <path class="cls-9" d="M727.54,502.87c.7-1.8,1.3-3.7,2-5.5-.7,1.8-1.4,3.6-2,5.5Z"/>
        <path class="cls-9" d="M731.14,493.37c.9-2.2,2-4.3,3.3-6.2-1.3,2-2.4,4-3.3,6.2Z"/>
        <polygon class="cls-9" points="739.94 480.97 739.54 476.57 739.54 476.57 739.94 480.97"/>
        <path class="cls-3" d="M739.94,480.97c-1.1.9-2.1,1.9-3,2.9-.6.7-1.2,1.4-1.7,2.2-.3.4-.5.8-.8,1.1-1.3,1.9-2.3,4-3.3,6.2-.6,1.3-1.1,2.6-1.6,4-.7,1.8-1.3,3.6-2,5.5-.5,1.4-1,2.8-1.5,4.1-1.9,5-4.1,9.8-7.6,13.7-3.6,4-8.3,6.9-12.2,10.5-.3.3-.7.6-1,.9-.9.9-1.8,1.9-2.6,3-2.1,2.8-3.4,6.1-4.5,9.5-.4,1.3-.8,2.6-1.1,3.8-.6,2.2-1.2,4.3-1.9,6.4-1.1,3.5-2.5,6.8-4.1,10-.7,1.3-1.4,2.6-2.1,3.8-3.3,5.6-7.5,10.7-12.3,15.1-3.1,2.8-6.5,5.3-9.7,7.9-2.2,1.8-4.3,3.6-6.3,5.5-.3.3-.6.7-1,1-3.2,3.5-5.8,7.4-8.2,11.4-.6,1-1.2,2.1-1.8,3.1-.4.6-.7,1.3-1,1.9-1.4,2.5-2.7,5-4.1,7.4-2.1,3.6-4.4,7.2-6.7,10.7-2.4,3.5-4.9,6.8-7.4,10.2-3.2,4.2-6.5,8.3-9.9,12.3-2,2.4-4,4.9-6.1,7.3-2.6,3.1-5.3,6.2-8.8,8.3-.5.3-1,.5-1.4.8-2.2,1.1-4.5,1.8-6.9,2.6-1,.3-2.1.7-3.1,1.1-.3.1-.5.2-.8.3-1.5.7-3,1.6-4.4,2.5-.5.3-.9.7-1.3,1-.7.5-1.3,1.1-1.9,1.7-4.2,4.2-7.1,9.7-7.8,15.6l-.1.8-1.7,20.8-7.2,86.6h-183.9l-3.4-62.4c4-6.7,15.9-22.2,26.6-36.4.6-.8,1.1-1.5,1.7-2.3s1.1-1.5,1.7-2.2c.8-1.1,1.7-2.2,2.5-3.3.5-.7,1.1-1.4,1.6-2.1s1-1.4,1.5-2.1,1-1.3,1.5-2c.2-.3.5-.6.7-1,.9-1.3,1.8-2.4,2.6-3.6.6-.8,1.1-1.6,1.7-2.4.3-.5.7-1,1-1.4.6-.9,1.1-1.8,1.6-2.5,4.2-7,8.5-14.1,13.4-20.7,1.1-1.5,2.2-2.9,3.3-4.3h0c1.7-2.1,3.5-4.1,5.4-6.1,1.3-1.3,2.6-2.5,3.9-3.7,1.4-1.3,2.9-2.5,4.5-3.6,13.7-10.2,31-14.4,45.3-23.9,15.2-10.1,25.8-25.4,38.2-38.8,3.3-3.5,6.8-6.9,10.5-10,2.5-2.1,5-4.1,7.7-5.8h0c8.6-5.7,18.1-9.6,28.4-9.6,7.5,0,15,2.1,22.5,1.1,6.7-.9,12.8-4.3,18.7-7.5.8-.5,1.7-.9,2.6-1.4,11.1-6.2,22.2-12.4,33.3-18.5,8.7-4.9,17.8-10,23.1-18.4,2.5-4,4.1-8.5,6.7-12.4,6.7-9.8,18.8-14.1,30.1-17.7,4.2-1.3,11.3-2.5,15.8-3.1h0l.1,4.6Z"/>
        <path class="cls-2" d="M630.44,546.77c-.8.5-1.7.9-2.6,1.4-5.9,3.3-12,6.6-18.7,7.5-7.4,1-14.9-1.1-22.5-1.1-10.2,0-19.8,3.8-28.4,9.6l-3.9-1.7c2.6-6.3,6.5-12,11.4-16.7,1.5-1.4,3-2.7,4-4.5,1.1-2.2,1.2-4.7,1.8-7.1.7-2.9,2.2-5.5,4.2-7.7,2.4-2.5,12.1-7.6,16.2-6.7,1.6.7,3,1.5,4.4,2.6,3.9,3.1,6.3,7.8,9.7,11.3,6.3,6.5,15.6,10.9,24.4,13.1h0Z"/>
        <path class="cls-11" d="M591.94,519.77c-4.1-.8-13.7,4.3-16.2,6.7-2,2.1-3.5,4.8-4.2,7.7-.6,2.4-.7,4.9-1.8,7.1-1,1.8-2.5,3.1-4,4.5-4.8,4.7-8.8,10.4-11.4,16.7l3.9,1.7c-2.6,1.8-5.2,3.7-7.7,5.8h0c-7.4-6.4-18-10.9-29.6-15.1,5-6.2,15.8-17.1,21.8-19.2,4.9-1.9,10.5-1.4,15.5-3.2,7.8-2.8,13.1-10.5,20.9-13.2,4.3-1.4,8.8-1.2,12.8.5h0Z"/>
        <path class="cls-8" d="M521.14,554.77c11.5,4.2,22.2,8.7,29.6,15.1h0c-3.7,3.1-7.3,6.5-10.5,10-12.4,13.3-23.1,28.7-38.2,38.8-14.2,9.5-31.5,13.7-45.3,23.9-1.5,1.1-3,2.3-4.4,3.6-16.3-27-44-38-69.1-56.1,1.9-7.4,9.5-24.7,11.4-31.9.7-2.6,1.4-5.4,3.4-7.2,2.6-2.4,6.6-2.4,10-3.8,4.6-1.9,7.8-6.2,9.3-10.9,1.6-4.7,1.8-9.7,2-14.6.2-5.5.4-11,.6-16.4l.3-3.5c11.2.9,23.3,2.2,31.7,9.8,4.7,4.3,7.6,10.1,11.6,15.1,11.5,14.1,36,20.4,57.6,28.1h0Z"/>
        <path class="cls-9" d="M383.14,590.17c25.1,18.1,52.8,29.1,69.1,56.1-10.8,9.6-18.5,22.3-26,34.8-6.9,11.6-37.6,49.7-44.5,61.2l3.4,62.4-308.4-5.8,7.8-12.8c11.5-11.6,14-81,20.3-96.1,3.2-7.6,7.4-14.7,10.7-22.2,3.2-7.4,5.5-15.1,8.4-22.6,11.7-29.8,33.5-54.7,45.2-84.5,3.8-9.6,6.5-19.5,10.3-29,7.8-19.4,19.9-36.7,30.5-54.7,10.6-18,19.9-37.6,21-58.4l7.1-4.7c11.9,11.7,41.8,44.9,53.8,65.7,9.5,16.6,20.8,32,32.6,47.1,4.4,5.7,8.9,11.3,13.4,17,11.1,13.9,22.3,27.9,36,39.3,3,2.6,6.2,4.9,9.3,7.2h0Z"/>
        <path class="cls-7" d="M420.04,501.87l-.3,3.5c-.2,5.5-.4,11-.6,16.4-.2,4.9-.4,10-2,14.6-1.6,4.7-4.8,9.1-9.3,10.9-3.3,1.4-7.3,1.4-10,3.8-2,1.8-2.7,4.6-3.4,7.2-1.9,7.3-9.4,24.5-11.4,31.9-3.1-2.3-6.3-4.7-9.3-7.2-13.7-11.4-24.9-25.4-36-39.3-4.5-5.6-9-11.3-13.4-17,14.9-1.1,38.4-2.8,51.3-10.4,7.2-4.3,13.4-10.4,21.3-13.2,7.2-2.5,15.1-2,22.6-1.4.3.1.4.1.5.2h0Z"/>
        <path class="cls-3" d="M238.04,413.87l-7.1,4.7c-.2,3.3-.5,6.5-1.1,9.7h0c-.2,1.3-.5,2.5-.7,3.8-.1.6-.3,1.3-.4,1.9-.4,1.9-1,3.8-1.5,5.6h0c-.4,1.2-.8,2.5-1.2,3.7-1,3.1-2.2,6.1-3.5,9.2h0c-.5,1.2-1,2.4-1.6,3.6-.3.6-.5,1.2-.8,1.8-.6,1.2-1.1,2.4-1.7,3.5-2.3,4.7-4.9,9.3-7.5,13.9-.3.6-.7,1.1-1,1.7-1.3,2.2-2.7,4.5-4,6.7-.7,1.1-1.4,2.2-2,3.3-4.1,6.7-8.3,13.3-12.2,20.1h0c-.7,1.1-1.3,2.3-1.9,3.4h0c-.6,1.1-1.3,2.3-1.9,3.4-3.1,5.7-5.9,11.6-8.4,17.7-2.4,5.9-4.3,12.1-6.3,18.1-1,3-2.1,6.1-3.2,9.1h0c-.2.6-.5,1.2-.7,1.8-.7,1.9-1.5,3.7-2.3,5.5-1,2.3-2.1,4.5-3.2,6.8-.4.9-.9,1.8-1.3,2.7h0c-.5.9-.9,1.8-1.4,2.6-1.2,2.2-2.4,4.4-3.6,6.6-.7,1.3-1.5,2.6-2.2,3.9h0c-.5.9-1,1.7-1.5,2.6h0c-1.3,2.2-2.6,4.3-3.9,6.4h0c-2.1,3.4-4.2,6.8-6.3,10.3h0c-1.3,2.1-2.6,4.3-3.9,6.4h0c-1.8,3-3.5,6-5.2,9.1-.5.9-1,1.8-1.4,2.6-1.7,3.1-3.3,6.2-4.7,9.3-1.5,3.2-2.9,6.3-4.2,9.6-.6,1.4-1.1,2.8-1.6,4.2-.2.5-.3.9-.5,1.4-.3.9-.7,1.9-1,2.9-1.2,3.3-2.3,6.7-3.6,9.9-.5,1.4-1.1,2.8-1.7,4.2-.2.5-.4,1-.6,1.4-.4.9-.9,1.9-1.3,2.8-.2.5-.5.9-.7,1.4-.5.9-.9,1.8-1.4,2.8h0c-1.4,2.8-2.8,5.5-4.1,8.3-.9,1.8-1.7,3.7-2.5,5.6h0c-.1.2-.2.5-.3.7-.1.2-.1.4-.2.6,0,.1-.1.2-.1.3-.1.2-.1.4-.2.6,0,.1-.1.2-.1.3-.2.5-.3,1-.5,1.6-.2,1-.5,2-.7,3.1,0,.2-.1.4-.1.6v.2c-.1.5-.2,1-.3,1.5-.1.4-.1.7-.2,1.1,0,.2-.1.5-.1.7-.1.5-.2.9-.2,1.4,0,.2-.1.5-.1.7-.1.3-.1.6-.2.9,0,.2-.1.4-.1.6-.1.7-.2,1.4-.3,2.1,0,.3-.1.6-.2.9-.6,4.1-1.2,8.6-1.8,13.2-.2,1.2-.3,2.5-.5,3.7-.1.5-.1.9-.2,1.4v.2c-.3,1.7-.5,3.3-.7,5-.7,5.6-1.5,11.4-2.4,16.9-.9,5.9-1.9,11.5-3,16.6-.2,1.1-.5,2.2-.7,3.2-.3,1.1-.5,2.1-.7,3,0,.2-.1.4-.1.6-.1.3-.2.6-.2.9-.1.3-.2.6-.3.9-.2.6-.3,1.2-.5,1.7v.1c-.4,1.1-.7,2.1-1.1,3.1-.1.2-.1.4-.2.6h0c-.3.7-.6,1.5-.9,2.1-.3.7-.6,1.3-1,1.9-.3.6-.6,1.1-1,1.5-.4.5-.7.9-1.1,1.3l-4.4,7.1-3.5,5.7-10.8-.2-37.7-.7-34.2-.2v-172l6.6-12.8c10-25.9,37.2-39.9,56.9-59.6,11.1-11.1,20-24.3,31.4-35,18.9-17.7,45.3-29.2,55.8-52.8,3.4-7.6,20-27.5,24.9-29.1,14.3-4.6,16.6-8.2,31.6-9.8,6.4-.7,28.6-15.5,31.6-16.7.3-.1,2.1,1.5,4.9,4.3h0Z"/>
        <path class="cls-8" d="M1668.24,632.47c-2.4,1.4-5,2.7-7.4,4.1-17.3,9.5-34.9,19.2-54.3,21.9-21.6,2.9-43.3-3.2-65.2-3.2-29.7,0-57.4,11.1-82.3,27.7l-11.4-5c7.5-18.2,18.9-34.8,33-48.5,4.2-4,8.7-7.9,11.5-13,3.2-6.3,3.4-13.7,5.1-20.6,2-8.3,6.4-16.1,12.3-22.2,7-7.2,35.2-22,46.9-19.6,4.6,1.9,8.8,4.5,12.7,7.5,11.3,9.1,18.2,22.5,28.2,32.9,18.2,18.8,45.3,31.8,70.9,38h0Z"/>
        <path class="cls-7" d="M1556.34,554.07c-11.8-2.4-39.9,12.4-46.9,19.6-5.9,6.1-10.2,13.9-12.3,22.2-1.7,6.9-1.9,14.3-5.1,20.6-2.8,5.1-7.3,9.1-11.5,13-14.1,13.7-25.4,30.3-33,48.5l11.4,5c-7.7,5.1-15.1,10.7-22.2,16.9v-.1c-21.4-18.5-52.3-31.7-85.8-43.8,14.4-17.9,45.8-49.6,63.3-55.9,14.3-5.4,30.4-4.1,44.9-9.2,22.6-8.2,38-30.5,60.7-38.2,11.8-4.1,25-3.3,36.5,1.4h0Z"/>
      </g>
      <path class="cls-3" d="M1751.74,478.47l-7.1,4.7c-.2,3.3-.5,6.5-1.1,9.7h0c-.2,1.3-.5,2.5-.7,3.8-.1.6-.3,1.3-.4,1.9-.4,1.9-1,3.8-1.5,5.6h0c-.4,1.2-.8,2.5-1.2,3.7-1,3.1-2.2,6.1-3.5,9.2h0c-.5,1.2-1,2.4-1.6,3.6-.3.6-.5,1.2-.8,1.8-.6,1.2-1.1,2.4-1.7,3.5-2.3,4.7-4.9,9.3-7.5,13.9-.3.6-.7,1.1-1,1.7-1.3,2.2-2.7,4.5-4,6.7-.7,1.1,24.8,12,24.2,13.1-4.1,6.7-8.3,13.3-12.2,20.1l-18.1-6.8c-.7,1.1,16.8,9.1,16.2,10.2l-18.1-6.8c-.6,1.1,16.8,9.1,16.2,10.2-3.1,5.7-5.9,11.6-8.4,17.7-2.4,5.9-4.3,12.1-6.3,18.1-1,3-2.1,6.1-3.2,9.1l-26.2-9.8c-.2.6,25.7,11,25.5,11.6-.7,1.9-27.7-6.1-28.5-4.3-1,2.3-2.1,4.5-3.2,6.8-.4.9-.9,1.8-1.3,2.7h0c-.5.9-.9,1.8-1.4,2.6-1.2,2.2-2.4,4.4-3.6,6.6-.7,1.3-1.5,2.6-2.2,3.9h0c-.5.9-1,1.7-1.5,2.6h0c-1.3,2.2-2.6,4.3-3.9,6.4h0c-2.1,3.4-4.2,6.8-6.3,10.3h0c-1.3,2.1-2.6,4.3-3.9,6.4h0c-1.8,3-3.5,6-5.2,9.1-.5.9-1,1.8-1.4,2.6-1.7,3.1-3.3,6.2-4.7,9.3-1.5,3.2-2.9,6.3-4.2,9.6-.6,1.4-1.1,2.8-1.6,4.2-.2.5-.3.9-.5,1.4-.3.9-.7,1.9-1,2.9-1.2,3.3-2.3,6.7-3.6,9.9-.5,1.4-1.1,2.8-1.7,4.2-.2.5-.4,1-.6,1.4-.4.9-.9,1.9-1.3,2.8-.2.5-.5.9-.7,1.4-.5.9-.9,1.8-1.4,2.8h0c-1.4,2.8-2.8,5.5-4.1,8.3-.9,1.8-1.7,3.7-2.5,5.6h0c-.1.2-.2.5-.3.7s-.1.4-.2.6c0,.1-.1.2-.1.3-.1.2-.1.4-.2.6,0,.1-.1.2-.1.3-.2.5-.3,1-.5,1.6-.2,1-.5,2-.7,3.1,0,.2-.1.4-.1.6v.2c-.1.5-.2,1-.3,1.5-.1.4-.1.7-.2,1.1,0,.2-.1.5-.1.7-.1.5-.2.9-.2,1.4,0,.2-.1.5-.1.7-.1.3-.1.6-.2.9,0,.2-.1.4-.1.6-.1.7-.2,1.4-.3,2.1,0,.3-.1.6-.2.9-.6,4.1-1.2,8.6-1.8,13.2-.2,1.2-.3,2.5-.5,3.7-.1.5-.1.9-.2,1.4v.2c-.3,1.7-.5,3.3-.7,5-.7,5.6-1.5,11.4-2.4,16.9-.9,5.9-1.9,11.5-3,16.6-.2,1.1-.5,2.2-.7,3.2-.3,1.1-.5,2.1-.7,3,0,.2-.1.4-.1.6-.1.3-.2.6-.2.9-.1.3-.2.6-.3.9-.2.6-.3,1.2-.5,1.7v.1c-.4,1.1-.7,2.1-1.1,3.1-.1.2-.1.4-.2.6h0c-.3.7-.6,1.5-.9,2.1-.3.7-.6,1.3-1,1.9-.3.6-.6,1.1-1,1.5-.4.5-.7.9-1.1,1.3l-4.4,7.1-3.5,5.7-10.8-.2-37.7-.7-33.9-.6v-172l6.6-12.8c10-25.9,37.2-39.9,56.9-59.6,11.1-11.1,31.9-13.7,43.3-24.4,18.9-17.7,42.6-32.8,53.1-56.4,3.4-7.6,17.2-26.5,22.1-28.1,14.3-4.6,11.6-12.9,25.2-17.9,6.4-.7,28.6-15.5,31.6-16.7-.1.4,1.7,2,4.6,4.8h0Z"/>
      <path class="cls-9" d="M1896.74,654.77c25.1,18.1,52.8,29.1,69.1,56.1-10.8,9.6-18.5,22.3-26,34.8-6.9,11.6-37.6,49.7-44.5,61.2l3.4,62.4-308.4-5.8,7.8-12.8c11.5-11.6,14-81,20.3-96.1,3.2-7.6,7.4-14.7,10.7-22.2,3.2-7.4-21.3-36.5-18.4-44,11.7-29.8,60.3-33.3,72-63.1,3.8-9.6,20.9-15.2,24.7-24.7,7.8-19.4-7.5-44,3.1-62,10.6-18,32.9-34.5,34-55.3l2.6-9.4c11.9,11.7,46.3,49.6,58.3,70.4,9.5,16.6,20.8,32,32.6,47.1,4.4,5.7,8.9,11.3,13.4,17,11.1,13.9,22.3,27.9,36,39.3,3.1,2.5,6.2,4.9,9.3,7.1h0Z"/>
      <path class="cls-9" d="M923.64,733.57l-55.5-6.3v77.4h-299.2l7.2-86.6h0l1.7-20.8.1-.8c.7-5.9,3.6-11.4,7.8-15.6.6-.6,1.2-1.2,1.9-1.7.4-.4.9-.7,1.3-1,1.4-1,2.8-1.8,4.4-2.5.2-.1.5-.2.8-.3,1-.4,2-.8,3.1-1.1,2.3-.8,4.7-1.5,6.9-2.6.5-.2,1-.5,1.4-.8,3.5-2.1,6.2-5.2,8.8-8.3,2-2.4,4.1-4.9,6.1-7.3,3.4-4.1,6.7-8.1,9.9-12.3,2.6-3.3,5-6.7,7.4-10.2,2.4-3.5,4.6-7,6.7-10.7,1.4-2.4,2.8-4.9,4.1-7.4.3-.6.7-1.3,1-1.9.6-1,1.2-2.1,1.8-3.1,2.4-4.1,5-8,8.2-11.4.3-.3.6-.7,1-1,2-2,4.1-3.8,6.3-5.5,3.3-2.6,6.6-5.2,9.7-7.9,4.8-4.4,9-9.5,12.3-15.1.8-1.2,1.5-2.5,2.1-3.8,1.7-3.2,3-6.6,4.1-10,.7-2.1,1.3-4.3,1.9-6.4.4-1.3.7-2.6,1.1-3.8,1.1-3.4,2.4-6.6,4.5-9.5.8-1.1,1.7-2.1,2.6-3,.3-.3.6-.6,1-.9,3.9-3.6,8.7-6.5,12.2-10.5,3.5-3.9,5.7-8.7,7.6-13.7.5-1.4,1-2.7,1.5-4.1.7-1.8,1.3-3.7,2-5.5.5-1.4,1.1-2.7,1.6-4,1-2.2,2-4.3,3.3-6.2.3-.4.5-.8.8-1.1.5-.8,1.1-1.5,1.7-2.2.9-1,1.9-2,3-2.9l-.4-4.4h0c2.5-.3,4.1-.5,4.1-.5,0,0,31.5,27.1,48.9,39.6,21.1,15.1,51.2,10.3,73.4,23.6l2.2,5.9h0s40.6,21.4,55.9,19.7c15.3-1.7,47.3,7.6,54.1,12.8,6.8,5.2,50.7,33.8,62,35.5,11.2,1.7,37.1,23.2,40.2,25.2s26.9,34.7,27.6,37.1c.7,2.4,18,23.4,24.8,23.4,7-.2-209,34.5-209,34.5Z"/>
      <path class="cls-9" d="M1549.44,761.37l-337,14.2,61.2-154.9c1.9-7.4,9.5-24.7,11.4-31.9.7-2.6,1.4-5.4,3.4-7.2,2.6-2.4,6.6-2.4,10-3.8,4.6-1.8,7.8-6.2,9.3-10.9,1.6-4.7,1.8-9.7,2-14.6.2-5.5.4-11,.6-16.4l.3-3.5c11.2.9,23.3,2.2,31.7,9.8,4.7,4.3,7.6,10.1,11.6,15.1,11.6,14.1,36.2,20.3,57.8,28.1,11.5,4.2,22.2,8.7,29.6,15.1,20.5,11.6,24-6.1,36.2,20.3,12.3,26.4,58.2,13.4,72,61.1,13.6,47.6-.1,79.5-.1,79.5Z"/>
      <path class="cls-3" d="M1099.64,536.47l-7.1,4.7c-.2,3.3-.5,6.5-1.1,9.7h0c-.2,1.3-.5,2.5-.7,3.8-.1.6-.3,1.3-.4,1.9-.4,1.9-1,3.8-1.5,5.6h0c-.4,1.2-.8,2.5-1.2,3.7-1,3.1-2.2,6.1-3.5,9.2h0c-.5,1.2-1,2.4-1.6,3.6-.3.6-.5,1.2-.8,1.8-.6,1.2-1.1,2.4-1.7,3.5-2.3,4.7-4.9,9.3-7.5,13.9-.3.6-.7,1.1-1,1.7-1.3,2.2-2.7,4.5-4,6.7-.7,1.1-1.4,2.2-2,3.3-4.1,6.7-8.3,13.3-12.2,20.1h0c-.7,1.1-1.3,2.3-1.9,3.4h0c-.6,1.1-1.3,2.3-1.9,3.4-3.1,5.7-5.9,11.6-8.4,17.7-2.4,5.9-4.3,12.1-6.3,18.1-1,3-2.1,6.1-3.2,9.1h0c-.2.6-.5,1.2-.7,1.8-.7,1.9-1.5,3.7-2.3,5.5-1,2.3-2.1,4.5-3.2,6.8-.4.9-.9,1.8-1.3,2.7h0c-.5.9-.9,1.8-1.4,2.6-1.2,2.2-2.4,4.4-3.6,6.6-.7,1.3-1.5,2.6-2.2,3.9h0c-.5.9-1,1.7-1.5,2.6h0c-1.3,2.2-2.6,4.3-3.9,6.4h0c-2.1,3.4-4.2,6.8-6.3,10.3h0c-1.3,2.1-2.6,4.3-3.9,6.4h0c-1.8,3-3.5,6-5.2,9.1-.5.9-1,1.8-1.4,2.6-1.7,3.1-3.3,6.2-4.7,9.3-1.5,3.2-2.9,6.3-4.2,9.6-.6,1.4-1.1,2.8-1.6,4.2-.2.5-.3.9-.5,1.4-.3.9-.7,1.9-1,2.9-1.2,3.3-2.3,6.7-3.6,9.9-.5,1.4-1.1,2.8-1.7,4.2-.2.5-.4,1-.6,1.4-.4.9-.9,1.9-1.3,2.8-.2.5-.5.9-.7,1.4-.5.9-.9,1.8-1.4,2.8h0c-1.4,2.8-2.8,5.5-4.1,8.3-.9,1.8-1.7,3.7-2.5,5.6h0c-.1.2-.2.5-.3.7s-.1.4-.2.6c0,.1-.1.2-.1.3-.1.2-.1.4-.2.6,0,.1-.1.2-.1.3-.2.5-.3,1-.5,1.6-.2,1-.5,2-.7,3.1,0,.2-.1.4-.1.6v.2c-.1.5-.2,1-.3,1.5-.1.4-.1.7-.2,1.1,0,.2-.1.5-.1.7-.1.5-.2.9-.2,1.4,0,.2-.1.5-.1.7-.1.3-.1.6-.2.9,0,.2-.1.4-.1.6-.1.7-.2,1.4-.3,2.1,0,.3-.1.6-.2.9-.6,4.1-1.2,8.6-1.8,13.2-.2,1.2-.3,2.5-.5,3.7-.1.5-.1.9-.2,1.4v.2c-.3,1.7-.5,3.3-.7,5-.7,5.6-1.5,11.4-2.4,16.9-.9,5.9-1.9,11.5-3,16.6-.2,1.1-.5,2.2-.7,3.2-.3,1.1-.5,2.1-.7,3,0,.2-.1.4-.1.6-.1.3-.2.6-.2.9-.1.3-.2.6-.3.9-.2.6-.3,1.2-.5,1.7v.1c-.4,1.1-.7,2.1-1.1,3.1-.1.2-.1.4-.2.6h0c-.3.7-.6,1.5-.9,2.1-.3.7-.6,1.3-1,1.9-.3.6-.6,1.1-1,1.5-.4.5-.7.9-1.1,1.3l-4.4,7.1-3.5,5.7-10.8-.2-37.7-.7-33.9-.6v-172l6.6-12.8c10-25.9,37.2-39.9,56.9-59.6,11.1-11.1,20-24.3,31.4-35,18.9-17.7,45.3-29.2,55.8-52.8,3.4-7.6,20-27.5,24.9-29.1,14.3-4.6,16.6-8.2,31.6-9.8,6.4-.7,28.6-15.5,31.6-16.7-.1.3,1.7,1.9,4.6,4.7h0Z"/>
      <path class="cls-3" d="M1310.54,532.27l-.3,3.5c-.2,5.5-.4,11-.6,16.4-.2,4.9-.4,9.9-2,14.6-1.6,4.7-4.8,9.1-9.3,10.9-3.3,1.4-7.3,1.4-9.9,3.8-2,1.8-2.7,4.6-3.4,7.2-1.8,7.3-9.4,24.5-11.4,31.9,0,0,3.1,50.2-10.9,56.1s-10.4,41.3-10.4,41.3l-119.4-5.8s12.1-99.7,24.7-103,25.7-10.5,30.3-23.7c4.6-13.3,27-28.4,27-28.4,14.9-1.1,38.4-2.8,51.3-10.4,7.2-4.3,13.4-10.4,21.3-13.2,7.2-2.5,15.1-2,22.6-1.4.1.2.3.2.4.2h0Z"/>
      <path class="cls-9" d="M1244.64,712.77c25.1,18.1,52.8,29.1,69.1,56.1-10.8,9.6-18.5,22.3-26,34.8-6.9,11.6-37.6,49.7-44.5,61.2l3.4,62.4-308.4-5.8,7.8-12.8c11.5-11.6,14-81,20.3-96.1,3.2-7.6,7.4-14.7,10.7-22.2,3.2-7.4,5.5-15.1,8.4-22.6,11.7-29.8,33.5-54.7,45.2-84.5,3.8-9.6,6.5-19.5,10.3-29,7.8-19.4,19.9-36.7,30.5-54.7,10.6-18,19.9-37.6,21-58.4l7.1-4.7c11.9,11.7,41.8,44.9,53.8,65.7,9.5,16.6,20.8,32,32.6,47.1,4.4,5.7,8.9,11.3,13.4,17,11.1,13.9,22.3,27.9,36,39.3,3.1,2.6,6.2,5,9.3,7.2h0Z"/>
      <g>
        <path class="cls-6" d="M1914.34,669.27v153.9c-.3.1-.6.1-.9.1-7.7,1-15.5,2.01-23.4,2.91-50.6,5.71-103.1,8.72-153.6,13.84.5.8,1.1,1.6,2,2.41.7.7,1.7,1.4,3,2.01.6.3.6.7-.1,1l-1.1.2-63.3,10.03-1,.1h-1c-.9-.2-.6-1.2-.8-1.7-.6-2.01-1.5-3.81-3-5.71-30.7,5.01-59.7,11.83-86,21.76-28.5,10.73-52.8,24.66-86,31.28-27.9,5.61-59,5.31-89.2,4.71-16.9-.3-33.7-.7-50.6-1.1h-.5l-43.5,1.5h-.9c-.4,0-.6,0-.8-.1-.7-.3,0-1,.1-1.5.1-.3.1-.6.1-1-116.7-3.71-233-10.03-348.5-19.15-82.2-6.52-164.4-14.44-247.7-13.94-98,.5-194.4,12.43-292.4,14.24-30,.5-60.8,0-89.5-4.11l-38.1-3.51-.8-.1c-.4,0-.6-.1-.8-.2-.5-.3.6-1,.9-1.5.7-.9,1.2-1.8,1.6-2.71-34.7-10.13-62.4-25.67-94.1-38.4-56.8-22.76-125.8-35.69-196.8-45.62l-13.3-.1v-60.76c10.5,1.6,22,3.41,36.1,4.41,1.7.1,3.4.2,5,.3,11.2.6,21.1.6,30.6.4,21.9-.6,41.4-2.41,68.2-1.5,8.4.3,17.1.9,25.9,1.7,2.8.2,5.5.5,8.3.8h0c15.2,1.4,30.4,3.01,44.9,3.81,12.8.7,47.5.3,60,1.9,3.9.5,8.1.9,12.6,1.1,11.9.7,25.9.8,41.1.4h0c59.7-1.6,138.3-10.03,185.4-10.13,18.4-2.41,37-4.41,55.7-6.12h0c.2,0,.4.1.8.1h.9l56.9-1.8h1c.1,0,.2-.1.3-.1s.2-.1.2-.1c.1,0,.1-.1.1-.1v-.1c0-.1-.1-.2-.2-.3-.3-.2-.6-.5-.8-.7s-.3-.3-.4-.5c-.1-.2-.2-.3-.3-.5-.1-.1-.1-.2-.1-.2h0c32.1-2.21,64.5-3.71,96.7-5.31,19.8-1,39.7-2.01,59.5-3.01,17-.9,34.1-1.7,51.1-2.61,12.4-.6,24.8-1.2,37.2-1.8,68.1-3.41,136.1-6.72,204.4-8.12,30.5-.6,61-.8,91.5-.8h0c28.1,0,56.2.2,84.4.3h.1c8.4.1,16.6.2,25,.2h0c-.1.2-.2.3-.4.5-.2.2-.3.3-.5.5h0c-.1.2-.2.3-.1.5s.3.3.7.4h1l57-.6h1c.4,0,.7-.1.9-.2.2-.2.1-.4,0-.6l-.1-.1c55,.2,109.9-.1,164.8-2.21,17.5-.6,35.1-1.5,51.1-4.91,27.7-5.92,79.8-14.84,91.9-17.55,9-2.01,62.1-5.92,122-7.72,35.6-1.1,73.6-1.4,106-.2l41.8,2.01.8-.2Z"/>
        <path class="cls-6" d="M661.04,715.19c-.4,2.61-.4,5.11.1,7.72,0,.2.1.4.1.6.2.4.2.9-.3,1h-.5l-28.1.6h-.5c-.3-.2-.4-.5-.3-.9.2-.3.3-.7.4-1,1-3.21-.3-6.12-1.3-9.12-.1-.5-.6-1.1,0-1.4s.9.3,1.3.6c1.8,1.6,3,3.61,4.4,5.51-.1-5.71-3.1-10.53-5.4-15.74,3.4,1.3,7.1,7.42,9.9,15.74.6-1,.6-2.01.9-3.01.1-.5,0-1.2.7-1.2.6,0,.7.7.8,1.2.3,1,.6,2.11,1.3,3.21.1-1.7.2-3.41.3-5.01.1-.7-.4-1.9.5-2.01.8-.1.9,1.1,1.2,1.8.4.9.7,1.8,1.2,3.11,1.3-3.71,1.7-7.22,2-10.83.1-1.7,0-3.51,0-5.21,0-.4,0-1,.4-1.2.6-.2,1,.3,1.3.7.9,1.1,1.1,2.41,1,3.81-.1,3.11-.3,6.22-.6,9.32,0,1.1-.1,2.21-.2,3.71,2-2.11,2.3-4.71,3.4-6.92.1,0,.3.1.5.1.2,2.21.4,4.51.6,7.12,1.3-3.11,2.3-5.82,3.5-8.52.5-1.1,1.1-2.21,1.8-3.31.3-.4.6-1.2,1.3-.8.6.3.2,1,0,1.4-.7,2.91-1.2,5.92-1.7,8.92h0Z"/>
        <path class="cls-6" d="M286.74,740.06c.2.3.1.6-.2.8h-.5l-28.1,1.8h-.4c-.2,0-.3,0-.4-.1-.3-.3,0-1,0-1.5.2-2.61.1-5.11-.5-7.72-.7-3.01-1.4-5.92-2.8-8.72-.2-.4-.7-1-.1-1.4.7-.5,1.1.2,1.4.6.7,1,1.5,2.01,2.1,3.21,1.4,2.61,2.7,5.21,4.2,8.12v-7.12c.2-.1.3-.1.5-.2,1.2,2.11,1.7,4.61,3.9,6.62-.2-1.5-.4-2.51-.5-3.71-.5-3.11-.9-6.12-1.3-9.22-.2-1.4-.1-2.71.7-3.81.2-.4.5-1,1.2-.8.5.1.5.7.5,1.2.2,1.7.2,3.41.5,5.11.5,3.51,1.3,7.02,2.9,10.63.4-1.3.6-2.31.9-3.21.2-.7.2-2.01,1.1-1.9.9,0,.5,1.3.6,2.01.3,1.7.6,3.41.8,5.01.6-1.1.7-2.21,1-3.31.1-.5,0-1.2.7-1.3.6,0,.6.7.8,1.2.3.9.4,2.01,1.2,2.91,2.1-8.52,5.3-14.94,8.5-16.54-1.9,5.41-4.4,10.43-4.1,16.14,1.3-2.01,2.3-4.11,3.9-5.92.4-.3.7-1,1.3-.7.7.2.3.9.2,1.4-.6,2.81-1.6,5.51-.8,8.22.1.9.4,1.6.8,2.21h0Z"/>
        <path class="cls-1" d="M734.24,814.05c.7.4,0,1-.1,1.4-1.3,2.61-2.9,5.11-2.8,7.92,0,.7.1,1.5.3,2.21.1.4,0,.7-.5.8h-.5l-9-1.7-19.1-3.51-.4-.1c-.2,0-.3-.1-.4-.2-.3-.4.3-1,.5-1.5.4-.9.6-1.9.8-2.81.4-1.6.6-3.31.6-5.01,0-3.11,0-6.22-.6-9.22-.1-.5-.4-1.2.2-1.4.9-.4,1,.5,1.2,1,.5,1.2,1,2.41,1.3,3.71.8,2.91,1.4,5.82,2.2,9.12l1.8-7.02h.6c.7,2.41.6,5.01,2.3,7.52.1-1.5.2-2.61.4-3.71.3-3.21.6-6.32,1-9.42.1-1.5.6-2.71,1.7-3.61.4-.4.8-.9,1.4-.5.5.3.3.9.3,1.3-.2,1.7-.6,3.41-.8,5.21-.4,3.61-.5,7.22.2,11.23.7-1.2,1.2-2.11,1.7-2.91.4-.6.7-1.9,1.6-1.7.9.3.1,1.4.1,2.11-.1,1.8-.3,3.51-.5,5.21.9-1,1.3-2.01,1.8-3.01.2-.5.4-1.2,1.1-1.1.7.1.5.9.5,1.4.1,1.1,0,2.11.5,3.21,4.1-7.82,8.9-13.43,12.5-14.24-3.2,4.91-6.9,9.12-8,14.94,1.8-1.7,3.3-3.51,5.3-4.81-.1-.6.3-1.2.8-.8h0Z"/>
        <path class="cls-1" d="M319.34,838.01c.2.3,0,.7-.4.8h-.5l-6.4-.4h-.2l-21.9-1.4-.4-.1c-.2,0-.3-.1-.4-.2-.3-.3.1-1,.2-1.5.1-.3.1-.6.2-1,.4-2.31.5-4.51.3-6.92-.3-3.11-.7-6.22-1.7-9.12-.2-.5-.6-1.1,0-1.4.8-.5,1.1.3,1.3.8.6,1.1,1.3,2.21,1.7,3.51,1.1,2.81,2.1,5.61,3.2,8.82l.9-7.22c.2-.1.4-.1.6-.1,1,2.31,1.1,4.91,3.1,7.22-.1-1.5-.1-2.61-.1-3.81-.1-3.21-.2-6.32-.2-9.42,0-1.4.3-2.81,1.2-3.81.3-.4.7-.9,1.3-.6.5.2.4.8.4,1.3,0,1.7-.2,3.51-.2,5.21,0,3.61.4,7.22,1.5,11.13.6-1.2.9-2.21,1.3-3.11.3-.7.5-2.01,1.3-1.8.9.2.3,1.4.3,2.11.1,1.7.2,3.51.1,5.21.7-1.1,1-2.11,1.4-3.21.2-.5.2-1.2.9-1.2s.6.8.6,1.3c.2,1,.2,2.01.8,3.11,3.2-8.32,7.3-14.44,10.8-15.54-2.6,5.21-5.8,9.93-6.2,15.74,1.6-1.9,2.8-3.91,4.7-5.41.4-.3.8-.9,1.4-.6.7.3.2,1,0,1.4-1,2.71-2.3,5.41-1.9,8.22.6.6.7,1.3,1,2.01h0Z"/>
        <path class="cls-1" d="M1914.34,773.24v109.78l-.9.1-5.7.6-59.4,6.22c-60.1,18.25-130.1,27.37-198.9,36.19-61.1,7.82-122.3,15.64-183.5,23.46-44.7,5.71-89.7,11.53-135.6,14.24-16,1-31.9,1.6-47.9,2.01l-59.6.3c-22.2-.2-44.3-.6-66.4-1-96.4-1.9-192.7-3.81-289-5.71-17.1-.4-34.5-.7-51.8-1.1h-2.5l-18-.5-26.2-.9h0l-20-.7c-22.6-1-45.2-2.31-67.5-4.11-49.1-4.01-97.1-10.23-146-14.94-44.5-4.31-89.6-7.12-134.8-8.62v-.1l-135.3-.3c-92.1,2.31-183.3,10.43-271,23.86v-206.64c56.4,9.22,110.2,21.26,156.2,39.4,32.7,12.93,61.2,28.77,97,39.1h0l37.3,8.02h0l1.1.1c29.6,4.21,61.3,4.71,92.3,4.21,101.1-1.8,200.6-13.94,301.6-14.44,85.9-.5,170.8,7.62,255.5,14.24,119.1,9.22,239.1,15.74,359.5,19.45h0l27.5,1.9h0l19.1-.6h.5c17.4.4,34.8.9,52.2,1.2,31.2.6,63.2.9,92-4.81,34.2-6.72,59.3-20.95,88.7-31.88,27.1-10.03,57-16.94,88.7-22.16l67.3-8.52c60.1-6.02,123.1-9.12,182.5-17.04.4-.2.7-.2,1-.3Z"/>
        <path class="cls-5" d="M1914.34,858.06v232.4h-.9v3837.8H-5.66V926.04c86-12.83,175.4-20.55,265.4-22.96h0c45.2-1.2,90.5-1.2,135.7.4,45.3,1.5,90.5,4.41,135.2,8.62,49,4.71,97.3,10.93,146.5,14.94,22.5,1.8,45.1,3.11,67.8,4.11,14.7.7,29.5,1.2,44.3,1.6h2.1c24,.7,48.5,1.2,72.5,1.7,96.6,1.9,193.3,3.81,290,5.71,22.1.5,44.4.9,66.6,1h0c20,.2,39.8.1,59.8-.3,16-.4,32.1-1,48.1-2.01,46-2.81,91.1-8.52,136-14.24,61.3-7.82,122.7-15.74,184.1-23.46,69-8.82,139.3-17.95,199.6-36.19l65.4-6.82.9-.1Z"/>
        <path class="cls-5" d="M635.34,913.81c-.4,1.8-.7,3.51-.6,5.31,0,.8,0,1.7.1,2.51,0,.2.1.4.1.7.2.5.2,1-.4,1h-.5l-28.6-1.5h-.5c-.3-.2-.4-.6-.2-.9.2-.3.4-.7.5-1,.4-.8.5-1.6.5-2.51.1-2.31-.6-4.61-1.2-6.82-.1-.5-.5-1.1.2-1.4.6-.3.9.4,1.3.8,1.7,1.7,2.8,3.91,4.1,5.92.3-5.82-2.3-10.83-4.3-16.34,3.3,1.6,6.7,8.02,8.9,16.74.7-1,.8-2.01,1.1-2.91.2-.5.1-1.2.8-1.2s.6.8.7,1.3c.3,1.1.5,2.21,1.1,3.31.2-1.7.5-3.41.7-5.11.2-.7-.3-2.01.6-2.01.9-.1.8,1.2,1.1,1.9.3.9.6,1.9,1,3.21,1.6-3.71,2.3-7.22,2.8-10.83.2-1.7.3-3.51.4-5.31,0-.5,0-1.1.5-1.2.7-.2,1,.4,1.3.8.9,1.2.9,2.51.8,3.91-.4,3.11-.8,6.22-1.3,9.42-.1,1.1-.3,2.21-.5,3.71,2.2-2.01,2.7-4.61,4-6.82.1.1.3.1.5.2,0,2.31.1,4.61.1,7.32,1.5-3.01,2.8-5.71,4.2-8.42.6-1.1,1.3-2.21,2.1-3.21.3-.4.7-1.2,1.4-.7.6.4.1,1-.1,1.5-1.3,2.51-2,5.61-2.7,8.62h0Z"/>
        <path class="cls-5" d="M188.34,901.27c-1.5,2.31-2.5,4.91-3,7.62h0c-.1.5,0,1.2-.6,1.1l-63.8,2.61c-.3.5-.7,0-.9-.2l-.5-.4c-1.4-1.3-2.9-2.71-4.7-3.41-.9-.5-2-.8-3-1.2-.3-.1-.8-.2-.8-.7s.5-.6.8-.7c1.6-.6,3.3-.6,5.4-.4-1.4-1.8-3.1-2.71-4.8-3.71-.5-.2-1.2-.3-1.1-.9.1-.6.8-.5,1.4-.5,2.2-.2,4.3.3,6.4,1.1,0-.2.1-.3.2-.4-.9-.8-1.9-1.6-2.8-2.41-.3-.3-.8-.6-.6-1,.3-.6.8-.2,1.3-.1,3.2,1.1,5.9,3.01,7.8,5.92.1.2.3.3.4.6,0-1.8-1-4.91-2.6-7.72-.4-.7-.9-1.5-1.3-2.21-.2-.3-.5-.7-.3-1,.3-.4.8-.1,1.2,0,2.7,1.2,4.6,3.11,5.9,5.71.5,1.1.9,2.21,1.4,3.61.2-.8.4-1.3.5-1.9,1-3.61,2.8-6.92,5.6-9.32.4-.4.8-1,1.3-.7.6.4.1,1.1-.1,1.6-1.2,3.21-2.3,6.62-3,10.33,1-.8,1.8-1.5,2.8-2.11.5-.3,1.1-.6,1.7-.8.6-.2,1.5-.7,2-.2.5.7-.5,1.1-.8,1.7-.5.8-1.1,1.4-1.4,2.31.9.8,2.6-1.6,2.9.8,1-.3,1.3-2.31,3-1.1,0,0,.3-.2.4-.3,1.2-1.7,2.5-3.11,4.1-4.41,1-.9,1.3-2.61,1.9-3.91.2-.4.4-.9.6-1.3.1-.2.3-.5.6-.4.4.1.4.5.3.8-.2.7-.4,1.3-.6,2.01-.7,2.61-.8,5.31-.8,7.92.8-1.7,1.7-3.31,3-4.61.4-.4.8-1,1.3-.7.7.4.1,1-.1,1.4-.6,1.6-1.1,3.31-1.2,5.31,1-1.9,1.7-2.41,2.2-1.7.7-2.91,1.9-5.61,3.6-8.02.4-.5.7-1.6,1.4-1.2.7.3,0,1.2-.2,1.7-1.3,3.51-1.3,7.02,0,10.93.4-1.4.7-2.61,1.1-3.61.2-.5.3-1.3,1-1.2.6.1.4.9.5,1.4.1.8.1,1.5.4,2.31.8-1.7,1.7-3.41,2.5-5.11.2-.4,0-.9-.2-1.2-.5-1.6-1.4-3.01-2.6-4.21-.3-.4-1.1-.7-.6-1.2.5-.4,1,.3,1.3.6.9,1,1.9,2.01,2.6,3.01,1.6,2.11,2.8,4.41,3.8,7.02.6-.6.5-1.2.7-1.7,1.1-4.21,3.1-8.02,6-11.33.3-.4.7-1,1.3-.7s.2,1,0,1.5c-.9,2.81-1.6,5.61-2.1,8.92,1-1.4,1.7-2.51,2.6-3.51.3-.4.7-1.2,1.3-.8s0,1-.2,1.5c-.6,1.5-.9,3.01-1,4.91,1.8-1.8,3-3.71,4.4-5.51.3-.3.6-1,1.1-.7s.1.9,0,1.3c-.5,1.4-1,2.91-1.3,4.61,1.2-1.1,2.2-2.01,3.2-2.91.8-.6,1.9-1.8,2.6-1.1,1,.7-.3,1.5-.8,2.31h0Z"/>
        <path class="cls-5" d="M1063.64,932.76c-.5,1.8-1.2,3.61-.4,5.51.1.3.1.7-.2.8l-10-.2-7.2-.1-5.6-.1-6.8-.1c-1.2,0-1.7-1-1.7-1,0-.3,0-.5-.1-.8-.2-1.7-.8-3.01-1.7-4.31-.5-.7-1-1.4-1.4-2.11-.4-.7-1.4-1.4-.9-2.01.8-.7,1.7.2,2.4.7,1.8,1,2.5,3.01,3.4,4.71.3.6.6,1.3,1,2.41.4-1.5.4-2.61.2-3.61,0-.4-.3-.9.1-1.2.6-.3.9.3,1.2.6.6.7,1.2,1.5,1.9,2.31.1-1.6-.6-3.01-.7-4.91,2.9,2.21,2.6,5.51,4,8.42.8-7.12-1.5-12.73-6.3-17.55,7,2.51,10,7.72,10.6,15.24.9-2.31.8-4.21.7-6.12,0-.4-.2-.8.2-1,.5-.2.8.2,1,.5,1.2,1.4,1.3,3.21,1.9,5.41.2-1.3.4-2.31.5-3.21.1-.5-.3-1.2.4-1.2.5-.1.8.5,1.1.9.5.9,1.1,1.9,1.7,3.21.4-4.61,1.2-8.92,1-13.23,0-.6-.5-1.4.3-1.6.7-.1.9.8,1.1,1.3,1.1,2.21,1.6,4.61,1.5,7.12l-.1,6.22s.1.1.2.1c.3-.8.5-1.7.9-2.61.1-.2.2-.6.6-.6.5,0,.5.5.5.8.2,1.3.3,2.51.6,4.21,1-1.4,1.8-2.41,2.6-3.41.3-.3.6-.8,1.1-.6.9.1.5.6.4,1.1h0Z"/>
        <path class="cls-5" d="M1532.44,909.5c-1.3,2.51-2,5.11-2.3,7.82h0c0,.5.1,1.2-.5,1.1l-63.4,8.22c-.3.5-.6.1-.9-.1l-.5-.4c-1.5-1.2-3.1-2.41-4.9-3.01-1-.4-2-.6-3.1-.9-.3-.1-.8-.1-.8-.6s.4-.6.8-.8c1.6-.7,3.3-.9,5.3-.9-1.6-1.7-3.3-2.41-5.1-3.21-.5-.2-1.2-.2-1.2-.8.1-.6.8-.6,1.3-.6,2.2-.4,4.3,0,6.5.6,0-.2.1-.3.2-.4-1-.7-2-1.4-3-2.11-.3-.3-.8-.5-.6-1,.3-.6.8-.3,1.3-.2,3.3.9,6.2,2.51,8.3,5.21.1.2.3.3.5.5-.1-1.8-1.4-4.81-3.2-7.42-.5-.7-1-1.4-1.5-2.11-.2-.3-.6-.6-.3-1,.3-.4.8-.2,1.2-.1,2.8,1,4.9,2.71,6.4,5.21.6,1,1.1,2.11,1.7,3.51.1-.8.3-1.4.3-1.9.7-3.71,2.1-7.12,4.8-9.83.4-.4.7-1.1,1.3-.8.7.4.2,1.1.1,1.6-1,3.31-1.7,6.72-2.1,10.53.9-.8,1.7-1.6,2.6-2.31.5-.4,1.1-.7,1.6-1,.6-.3,1.5-.9,1.9-.3.6.6-.4,1.1-.7,1.7-.4.8-1,1.5-1.2,2.41,1,.7,2.5-1.9,3,.5,1-.3,1.1-2.41,2.9-1.3,0,0,.3-.2.4-.3,1-1.8,2.2-3.31,3.7-4.71.9-.9,1-2.71,1.5-4.11.1-.4.3-.9.5-1.3.1-.2.2-.5.5-.4.4.1.4.5.4.8-.1.7-.3,1.4-.4,2.01-.5,2.71-.4,5.31-.1,8.02.7-1.7,1.4-3.41,2.6-4.81.4-.4.7-1.1,1.3-.8.7.3.2.9,0,1.4-.5,1.7-.8,3.41-.8,5.41.8-1.9,1.5-2.61,2.1-1.9.4-3.01,1.4-5.82,2.9-8.32.4-.6.5-1.6,1.3-1.4.7.3.1,1.2-.1,1.7-1,3.61-.7,7.12,1,10.93.3-1.5.5-2.61.8-3.71.2-.5.2-1.3.9-1.3.6.1.5.8.6,1.3.2.7.3,1.5.6,2.31.7-1.8,1.4-3.51,2-5.31.1-.4-.1-.8-.3-1.2-.7-1.6-1.7-2.91-2.9-4.01-.4-.4-1.2-.6-.7-1.2.4-.5,1,.2,1.3.5,1,.9,2,1.8,2.9,2.81,1.7,2.01,3.2,4.21,4.4,6.72.5-.6.4-1.2.5-1.8.7-4.31,2.3-8.22,4.9-11.73.3-.4.6-1.1,1.2-.8s.2,1,.2,1.4c-.6,2.81-1.1,5.71-1.3,9.02.9-1.5,1.5-2.61,2.3-3.71.3-.4.6-1.2,1.2-.9s.1,1,0,1.5c-.4,1.5-.6,3.11-.6,5.01,1.7-2.01,2.7-4.01,3.9-5.82.3-.3.5-1.1,1.1-.8.5.3.2.9.1,1.3-.4,1.5-.7,2.91-.9,4.71,1.1-1.2,2-2.21,3-3.21.7-.7,1.7-1.9,2.4-1.4.5.6-.7,1.5-1.1,2.31h0Z"/>
        <path class="cls-5" d="M1835.54,860.17c.3,1.8.7,3.51,1.5,5.21.3.7.7,1.5,1,2.31.1.2.2.4.3.6.3.4.5.8,0,1.1l-.5.2-27.1,9.42-.5.2c-.4-.1-.6-.4-.6-.8.1-.4.1-.8.1-1.1,0-.9-.1-1.7-.4-2.51-.7-2.11-2.3-4.01-3.6-5.92-.3-.4-.9-.9-.4-1.4s1,0,1.5.2c2.3,1,4,2.51,6,4.01-1.9-5.51-6.2-9.22-10.2-13.54,3.7.2,9.2,4.91,14.5,12.13.3-1.2,0-2.21-.1-3.11,0-.5-.3-1.2.3-1.4.6-.2.9.5,1.1.9.7.9,1.3,1.9,2.2,2.71-.4-1.7-.9-3.31-1.2-5.01-.1-.7-1-1.7-.2-2.11.8-.4,1.2.8,1.7,1.3.7.7,1.2,1.6,2.1,2.61.1-4.01-.6-7.62-1.5-11.13-.4-1.7-1.1-3.31-1.6-5.01-.1-.4-.4-1,0-1.3.6-.4,1.1,0,1.5.3,1.2.8,1.8,2.01,2.2,3.41.8,3.01,1.6,6.12,2.3,9.22.3,1.1.6,2.11.9,3.61,1.3-2.71.8-5.31,1.1-7.82h.5c.9,2.11,1.8,4.21,2.8,6.72.3-3.41.4-6.32.8-9.32.1-1.3.4-2.51.7-3.81.1-.5.2-1.4,1-1.2.7.1.5.9.4,1.4.4,2.81.9,5.81,1.4,8.92h0Z"/>
        <path class="cls-1" d="M1122.84,841.42c-1.7,2.21-2.8,4.61-3.6,7.32h0c-.1.4-.1,1.2-.7,1l-63.8-2.41c-.4.4-.7,0-.9-.3l-.4-.5c-1.3-1.4-2.6-2.91-4.4-3.81-.9-.5-1.9-1-2.9-1.4-.3-.2-.8-.2-.7-.7.1-.5.5-.5.9-.6,1.7-.5,3.4-.4,5.4,0-1.3-1.9-2.9-2.91-4.5-4.01-.4-.3-1.2-.4-1-1s.9-.4,1.4-.4c2.2,0,4.3.7,6.3,1.6.1-.1.2-.2.3-.3-.9-.9-1.8-1.7-2.6-2.61-.2-.3-.7-.6-.5-1.1.4-.5.9-.2,1.3,0,3.1,1.4,5.7,3.51,7.4,6.52.1.2.2.4.4.6.1-1.8-.6-5.01-2-7.82-.3-.8-.8-1.5-1.1-2.31-.1-.4-.5-.7-.2-1.1.4-.4.8-.1,1.2.1,2.6,1.4,4.4,3.51,5.4,6.22.4,1.1.7,2.31,1.2,3.71.3-.8.5-1.3.7-1.8,1.3-3.51,3.3-6.62,6.4-8.92.4-.3.9-1,1.4-.6.6.5,0,1.1-.2,1.6-1.5,3.11-2.8,6.42-3.8,10.03,1.1-.7,1.9-1.3,2.9-1.8.6-.3,1.2-.5,1.8-.7.7-.2,1.6-.6,2,0,.5.7-.6,1-.9,1.6-.5.7-1.2,1.3-1.6,2.21.8.8,2.8-1.4,2.8,1,1-.2,1.5-2.21,3-.8,0,0,.3-.1.4-.2,1.3-1.6,2.7-2.91,4.4-4.11,1.1-.8,1.5-2.51,2.2-3.81.2-.4.5-.8.7-1.2.2-.2.3-.5.6-.3.4.2.3.5.2.8-.2.6-.5,1.3-.8,1.9-.9,2.51-1.2,5.21-1.4,7.82.9-1.6,2-3.11,3.3-4.31.4-.3.9-.9,1.4-.6.6.4,0,1-.2,1.3-.7,1.6-1.4,3.21-1.6,5.21,1.1-1.8,1.9-2.31,2.4-1.5.9-2.81,2.3-5.51,4.2-7.72.5-.5.8-1.5,1.5-1.1.6.4-.1,1.2-.3,1.7-1.5,3.41-1.8,6.92-.8,10.93.5-1.4.9-2.51,1.4-3.51.3-.5.4-1.3,1.1-1.1.6.2.4.9.4,1.4,0,.8,0,1.5.2,2.41.9-1.6,1.9-3.31,2.9-4.91.2-.4,0-.9-.1-1.3-.4-1.7-1.2-3.11-2.2-4.41-.3-.4-1.1-.8-.5-1.3.5-.4.9.3,1.2.7.8,1,1.7,2.11,2.4,3.21,1.4,2.21,2.4,4.61,3.2,7.32.6-.5.6-1.1.8-1.7,1.4-4.11,3.7-7.72,6.8-10.83.4-.4.8-1,1.3-.6s.1,1-.1,1.5c-1.1,2.71-2,5.41-2.8,8.72,1.1-1.3,1.9-2.31,2.8-3.31.4-.4.8-1.1,1.4-.7.5.4-.1,1-.3,1.4-.7,1.4-1.1,2.91-1.4,4.81,2-1.7,3.3-3.51,4.9-5.11.4-.3.6-1,1.2-.6.5.4.1.9-.1,1.3-.6,1.4-1.2,2.81-1.7,4.51,1.3-1,2.3-1.8,3.4-2.61.8-.5,2-1.6,2.6-.9.5.8-.9,1.6-1.4,2.31h0Z"/>
        <path class="cls-6" d="M978.64,699.15c-1.5,2.31-2.5,4.91-3,7.62h0c-.1.5,0,1.2-.6,1.1l-63.8,2.61c-.3.5-.7,0-.9-.2l-.5-.4c-1.4-1.3-2.9-2.71-4.7-3.41-.9-.5-2-.8-3-1.2-.3-.1-.8-.2-.8-.7s.5-.6.8-.7c1.6-.6,3.3-.6,5.4-.4-1.4-1.8-3.1-2.71-4.8-3.71-.5-.2-1.2-.3-1.1-.9.1-.6.8-.5,1.4-.5,2.2-.2,4.3.3,6.4,1.1,0-.2.1-.3.2-.4-.9-.8-1.9-1.6-2.8-2.41-.3-.3-.8-.6-.6-1,.3-.6.8-.2,1.3-.1,3.2,1.1,5.9,3.01,7.8,5.92.1.2.3.3.4.6,0-1.8-1-4.91-2.6-7.72-.4-.7-.9-1.5-1.3-2.21-.2-.3-.5-.7-.3-1,.3-.4.8-.1,1.2,0,2.7,1.2,4.6,3.11,5.9,5.71.5,1.1.9,2.21,1.4,3.61.2-.8.4-1.3.5-1.9,1-3.61,2.8-6.92,5.6-9.32.4-.4.8-1,1.3-.7.6.4.1,1.1-.1,1.6-1.2,3.21-2.3,6.62-3,10.33,1-.8,1.8-1.5,2.8-2.11.5-.3,1.1-.6,1.7-.8.6-.2,1.5-.7,2-.2.5.7-.5,1.1-.8,1.7-.5.8-1.1,1.4-1.4,2.31.9.8,2.6-1.6,2.9.8,1-.3,1.3-2.31,3-1.1,0,0,.3-.2.4-.3,1.2-1.7,2.5-3.11,4.1-4.41,1-.9,1.3-2.61,1.9-3.91.2-.4.4-.9.6-1.3.1-.2.3-.5.6-.4.4.1.4.5.3.8-.2.7-.4,1.3-.6,2.01-.7,2.61-.8,5.31-.8,7.92.8-1.7,1.7-3.31,3-4.61.4-.4.8-1,1.3-.7.7.4.1,1-.1,1.4-.6,1.6-1.1,3.31-1.2,5.31,1-1.9,1.7-2.41,2.2-1.7.7-2.91,1.9-5.61,3.6-8.02.4-.5.7-1.6,1.4-1.2.7.3,0,1.2-.2,1.7-1.3,3.51-1.3,7.02,0,10.93.4-1.4.7-2.61,1.1-3.61.2-.5.3-1.3,1-1.2.6.1.4.9.5,1.4.1.8.1,1.5.4,2.31.8-1.7,1.7-3.41,2.5-5.11.2-.4,0-.9-.2-1.2-.5-1.6-1.4-3.01-2.6-4.21-.3-.4-1.1-.7-.6-1.2.5-.4,1,.3,1.3.6.9,1,1.9,2.01,2.6,3.01,1.6,2.11,2.8,4.41,3.8,7.02.6-.6.5-1.2.7-1.7,1.1-4.21,3.1-8.02,6-11.33.3-.4.7-1,1.3-.7s.2,1,0,1.5c-.9,2.81-1.6,5.61-2.1,8.92,1-1.4,1.7-2.51,2.6-3.51.3-.4.7-1.2,1.3-.8.6.4,0,1-.2,1.5-.6,1.5-.9,3.01-1,4.91,1.8-1.8,3-3.71,4.4-5.51.3-.3.6-1,1.1-.7s.1.9,0,1.3c-.5,1.4-1,2.91-1.3,4.61,1.2-1.1,2.2-2.01,3.2-2.91.8-.6,1.9-1.8,2.6-1.1,1,.7-.3,1.5-.8,2.31h0Z"/>
        <path class="cls-1" d="M1533.44,830.89c.2,1.9.2,3.81,1.7,5.31.2.2.3.6.2.8l-9.3,3.71-6.7,2.71-5.2,2.11-6.3,2.51c-1.1.4-1.9-.3-1.9-.3-.1-.2-.2-.5-.4-.6-.8-1.5-1.9-2.51-3.2-3.31-.7-.4-1.4-.9-2.1-1.4-.6-.5-1.9-.8-1.6-1.5.4-1,1.6-.4,2.5-.3,2.1.3,3.4,1.8,5,3.01.5.4,1,1,1.9,1.8-.2-1.6-.7-2.51-1.2-3.41-.2-.4-.6-.7-.3-1.1.4-.5.9-.1,1.3.1.9.4,1.7.9,2.6,1.4-.5-1.5-1.7-2.61-2.5-4.21,3.5.9,4.5,4.11,6.9,6.22-2-6.92-6.3-11.13-12.6-13.74,7.4-.4,12.2,3.21,15.6,9.93-.1-2.51-.9-4.21-1.7-5.92-.2-.3-.5-.7-.2-1,.4-.4.8-.1,1.2.1,1.6.9,2.5,2.51,3.8,4.21-.3-1.3-.5-2.21-.7-3.11-.1-.4-.7-1-.1-1.3.4-.3,1,.1,1.3.4.8.6,1.7,1.3,2.8,2.21-1.4-4.41-2.4-8.62-4.2-12.63-.2-.5-1-1.1-.3-1.6.6-.4,1.1.4,1.5.7,1.9,1.6,3.3,3.61,4.2,5.92l2.3,5.82h.2c-.1-.9-.2-1.8-.2-2.81,0-.3,0-.6.3-.8.5-.2.6.2.8.5.6,1.1,1.3,2.21,2.2,3.71.4-1.7.7-2.91,1.1-4.21.1-.4.2-.9.8-.9.6-.1.4.6.5,1h0Z"/>
        <path class="cls-6" d="M1304.04,695.54c-.5,1.8-1.2,3.61-.4,5.51.1.3.1.7-.2.8l-10-.2-7.2-.1-5.6-.1-6.8-.1c-1.2,0-1.7-1-1.7-1,0-.3,0-.5-.1-.8-.2-1.7-.8-3.01-1.7-4.31-.5-.7-1-1.4-1.4-2.11s-1.4-1.4-.9-2.01c.8-.7,1.7.2,2.4.7,1.8,1,2.5,3.01,3.4,4.71.3.6.6,1.3,1,2.41.4-1.5.4-2.61.2-3.61,0-.4-.3-.9.1-1.2.6-.3.9.3,1.2.6.6.7,1.2,1.5,1.9,2.31.1-1.6-.6-3.01-.7-4.91,2.9,2.21,2.6,5.51,4,8.42.8-7.12-1.5-12.73-6.3-17.55,7,2.51,10,7.72,10.6,15.24.9-2.31.8-4.21.7-6.12,0-.4-.2-.8.2-1,.5-.2.8.2,1,.5,1.2,1.4,1.3,3.21,1.9,5.41.2-1.3.4-2.31.5-3.21.1-.5-.3-1.2.4-1.2.5-.1.8.5,1.1.9.5.9,1.1,1.9,1.7,3.21.4-4.61,1.2-8.92,1-13.23,0-.6-.5-1.4.3-1.6.7-.1.9.8,1.1,1.3,1.1,2.21,1.6,4.61,1.5,7.12l-.1,6.22s.1.1.2.1c.3-.8.5-1.7.9-2.61.1-.2.2-.6.6-.6.5,0,.5.5.5.8.2,1.3.3,2.51.6,4.21,1-1.4,1.8-2.41,2.6-3.41.3-.3.6-.8,1.1-.6.9.1.5.6.4,1.1h0Z"/>
        <path class="cls-6" d="M1302.24,695.54c.5,1.8,1.2,3.61.4,5.51-.1.3-.1.7.2.8l10-.2,7.2-.1,5.6-.1,6.8-.1c1.2,0,1.7-1,1.7-1,0-.3,0-.5.1-.8.2-1.7.8-3.01,1.7-4.31.5-.7,1-1.4,1.4-2.11s1.4-1.4.9-2.01c-.8-.7-1.7.2-2.4.7-1.8,1-2.5,3.01-3.4,4.71-.3.6-.6,1.3-1,2.41-.4-1.5-.4-2.61-.2-3.61,0-.4.3-.9-.1-1.2-.6-.3-.9.3-1.2.6-.6.7-1.2,1.5-1.9,2.31-.1-1.6.6-3.01.7-4.91-2.9,2.21-2.6,5.51-4,8.42-.8-7.12,1.5-12.73,6.3-17.55-7,2.51-10,7.72-10.6,15.24-.9-2.31-.8-4.21-.7-6.12,0-.4.2-.8-.2-1-.5-.2-.8.2-1,.5-1.2,1.4-1.3,3.21-1.9,5.41-.2-1.3-.4-2.31-.5-3.21-.1-.5.3-1.2-.4-1.2-.5-.1-.8.5-1.1.9-.5.9-1.1,1.9-1.7,3.21-.4-4.61-1.2-8.92-1-13.23,0-.6.5-1.4-.3-1.6-.7-.1-.9.8-1.1,1.3-1.1,2.21-1.6,4.61-1.5,7.12l.1,6.22s-.1.1-.2.1c-.3-.8-.5-1.7-.9-2.61-.1-.2-.2-.6-.6-.6-.5,0-.5.5-.5.8-.2,1.3-.3,2.51-.6,4.21-1-1.4-1.8-2.41-2.6-3.41-.3-.3-.6-.8-1.1-.6-.9.1-.5.6-.4,1.1h0Z"/>
        <path class="cls-1" d="M1806.04,779.06c-.3,1.8-.5,3.61-.3,5.41,0,.8.1,1.7.3,2.51,0,.2.1.4.1.7.2.5.2,1-.4,1h-.5l-28.6.1h-.5c-.3-.2-.4-.6-.3-.9.2-.3.4-.7.5-1,.3-.8.4-1.6.4-2.51,0-2.31-.9-4.51-1.5-6.82-.1-.5-.6-1.1.1-1.5.6-.3.9.4,1.3.7,1.8,1.6,3,3.71,4.4,5.71,0-5.82-2.9-10.73-5.2-16.14,3.4,1.4,7.1,7.72,9.8,16.24.7-1,.7-2.01,1-3.01.2-.5.1-1.3.8-1.2.7,0,.7.8.8,1.3.3,1.1.6,2.21,1.2,3.21.1-1.7.3-3.41.4-5.11.1-.8-.4-2.01.5-2.01.9-.1.9,1.2,1.2,1.8.4.9.7,1.9,1.1,3.21,1.4-3.81,1.9-7.32,2.2-11.03.1-1.8.1-3.51.1-5.31,0-.5,0-1.1.5-1.2.7-.2,1,.4,1.3.7.9,1.1,1.1,2.51,1,3.91-.2,3.11-.5,6.32-.8,9.42-.1,1.1-.1,2.21-.3,3.71,2.1-2.11,2.4-4.71,3.6-7.02.1.1.3.1.5.2.2,2.31.3,4.61.5,7.22,1.4-3.11,2.5-5.82,3.8-8.62.5-1.1,1.2-2.21,1.9-3.31.3-.4.6-1.2,1.4-.8.6.4.2,1,0,1.5-1.3,2.81-1.8,5.81-2.3,8.92h0Z"/>
      </g>
    </g>
  </g>
</svg>