<?xml version="1.0" encoding="UTF-8"?>
<svg id="Calque_2" data-name="Calque 2" xmlns="http://www.w3.org/2000/svg" xmlns:xlink="http://www.w3.org/1999/xlink" viewBox="0 0 1890.52 4928.27">
  <defs>
    <style>
      .cls-1 {
        fill: #84c7aa;
      }

      .cls-1, .cls-2, .cls-3, .cls-4, .cls-5, .cls-6, .cls-7, .cls-8, .cls-9, .cls-10, .cls-11, .cls-12, .cls-13 {
        stroke-width: 0px;
      }

      .cls-2 {
        fill: #b8e0ee;
      }

      .cls-3 {
        fill: #a7daf0;
      }

      .cls-4 {
        fill: #8dd1ea;
      }

      .cls-5 {
        fill: #90bce6;
      }

      .cls-6 {
        fill: none;
      }

      .cls-7 {
        fill: #a2d3c2;
      }

      .cls-8 {
        fill: #6181c0;
      }

      .cls-9 {
        fill: #87aedd;
      }

      .cls-14 {
        clip-path: url(#clippath);
      }

      .cls-10 {
        fill: #216091;
      }

      .cls-11 {
        fill: #0f4773;
      }

      .cls-12 {
        fill: #87c1ea;
      }

      .cls-13 {
        fill: #44b38f;
      }
    </style>
    <clipPath id="clippath">
      <rect class="cls-6" y="0" width="1890.52" height="4928.27"/>
    </clipPath>
  </defs>
  <g id="laponie">
    <g class="cls-14">
      <g>
        <rect class="cls-11" x="-10.57" y="-9.72" width="1920" height="1135.43"/>
        <path class="cls-3" d="M1826.03,671.91l-211.1,24.4,23,97,251.6,28c17.1,1.9,49.3-71.3,39.4-85.5l-102.9-63.9Z"/>
        <polygon class="cls-3" points="786.63 758.51 799.43 860.61 920.53 899.91 909.13 871.81 899.03 813.61 786.63 758.51"/>
        <path class="cls-4" d="M917.93,888.71c-4.4.9-9.8,3.3-13.1,2.3-9-2.6-16.8-1.6-25,.9l-366.3-27.3,35.7-181.3,1.7-8.9c6.5-3.5,12.9-7.1,19.7-10.4,33.7-16.4,67.6-32.6,101.3-49,16.4-8,18.1-8,33.6,1.8-1.4.4-2.8.8-4.2,1.3-.2-.1-.5-.2-.8-.3.3.1.5.2.8.3,12.2,9.3,24.3,18.7,36.6,28,27.9,21.1,55.9,42.2,84,63.2,20.7,15.5,41.6,30.9,62.4,46.3,5.1,3.8,10.3,7.6,15.4,11.4-.4,10.4-8.2,1.4-12.5,2.1-2.3,2.1-4.6,4.2-9,8.2-3.7-5.3-6.3-9-8.1-11.6-27.3-1.4-53.9-2.8-82-4.2.5,1.8.1,5,1.8,5.6,11.8,4.3,13.1,13.5,20.7,19.4,24.4,18.9,50.6,36.8,75.7,55.4,5.8,4.3,10.9,9.4,14.2,14.7,6.6,10.5,11.7,21.4,17.4,32.1Z"/>
        <path class="cls-4" d="M569.93,668.01l-27.7,24.7c-4.3-11,2.9-19.7,27.7-24.7Z"/>
        <g>
          <path class="cls-13" d="M1859.93,424.31c-22.2-14.9-50-23.2-76-29.8s-51.6-10-77.8-12.4c-121.7-11.4-244.4-9.1-366.5-7.8-121,1.4-241.9,2.7-362.9,4.1-50.1.5-100.3,1.1-150.5,1.6v.2l-.7,19.7v.2l-.8,24.5c9.7-.1,19.3-.2,29-.3,37-.4,73.9-.8,110.9-1.2,79.8-.9,159.6-1.8,239.4-2.7,79.8-.9,158.6-2.3,237.9-1.2,22.1.3,44.2.8,66.3,1.6,11,.4,22.1.9,33.1,1.4,2.5.1,5.1.3,7.6.4.9,0,2.5.2,4.1.3-.2,0-.4,0-.7-.1,4.5.3,9,.5,13.5.9,38.6,2.6,77.3,6.2,114.6,16.1,3.7,1.1,7.4,2.3,11.1,3.5,7.8,2.6,15.5,5.6,23,9,2,.9,4,1.8,5.9,2.7,8,3.8,16.1,8.1,22.5,13.9,3.7,4.7,5.8,9.9,5.3,15.6-.7,1.9-1.7,3.6-2.9,5.2-11.8,3.6-23.5,7.3-35.3,10.9-28.5,8.8-56.9,17.7-85.4,26.5-56.6,17.6-113.3,34.9-169.9,52.7-19.4,6.1-39.6,12.9-58.3,21.8h0c-14.1,6.7-27.5,14.6-39.2,24.3-17.1,14.2-30.4,31.5-39.5,51.1-.3.6-.6,1.3-.9,2-4.3,9.7-7.9,19.7-10.8,29.8-1.4,4.9-2.7,9.9-3.8,14.8h0c-5.2,22.8-8,46.1-10.8,69.1-.5,4.4-1.1,8.7-1.6,13.1-1.8,14.1-3.5,28.2-5.3,42.3-.5,3.9-1,7.8-1.5,11.7-.4,3.5-.9,7-1.3,10.5-1,7.9-2,15.8-3,23.6-1.2,9.4-2.4,18.7-3.5,28.1-2.3,18.3-4.6,36.7-6.9,55-.7,5.3-1.3,10.6-2,15.9v.6c.4,3.5,8.3,4.9,14.6,5.5,4,.4,7.4.4,7.6.4,15.5.1,32.6-3,47.3-6.9,13.8-3.6,28.2-7.6,40.8-14.1h0c1.3-.7,2.6-1.4,3.8-2.1,6.8-3.9,14.8-7.8,15.8-16,.8-6.4,1.6-12.8,2.4-19.2,1.4-11.5,2.9-23,4.3-34.5,1-8.3,2.1-16.6,3.1-24.9,1.9-15.1,3.8-30.3,5.7-45.4.1-1.2.3-2.4.4-3.6v-.1c.3-2.4.6-4.9.9-7.3h0c.3-2.8.7-5.5,1-8.2,1.2-9.2,2.2-18.5,3.3-27.8h0c.2-1.6.4-3.3.6-4.9,2-17.5,4-35.1,6.7-52.5,1.9-12.3,4.1-24.5,6.8-36.6v-.1c3.3-13.6,7.5-27.1,13.3-39.9h0c.7-1.6,1.5-3.2,2.3-4.8,5.8-11.8,13-22.8,22.2-32.7,2.8-2.6,5.7-5,8.7-7.3,1.5-1.1,3.6-2.2,5.1-3.4.5-.3,1-.5,1.5-.8-.5.2-.9.4-1.3.6.1-.1.2-.1.2-.2-.1,0-.3.1-.4.1-.3.2-.7.5-1.2.7-4,1.9-1.6.5.8-.6-7.3,2.9-2.5.5,1.2-.7.7-.2,1.4-.5,2.1-.7,0,0-.1,0-.1.1-.3.2-.7.3-1,.5-.4.2-.9.4-1.4.6h-.1c.3-.1.7-.3,1-.4h0c1.1-.4,2.4-.9,3.9-1.6-.1,0-.2.1-.3.1.9-.4,1.8-.7,2.7-1.1-.8.3-1.6.7-2.3,1,3.4-1.1,6.8-2.2,10.3-3.3,28.6-9,57.2-17.8,85.8-26.6,56.9-17.7,113.9-35.3,170.8-53,35.2-10.9,72.4-20.2,102.8-41.1,10.5-7.2,18.6-16.5,19.8-28.8,1.9-11.6-8.5-21.4-17.9-27.6ZM1486.73,605.51c.6-.2,1.2-.4,1.9-.6-1,.4-2.1.8-3.1,1.2.4-.2.8-.4,1.2-.6q-.1,0-.2.1c1-.5,1.9-.9,2.8-1.4-.9.5-1.8.9-2.6,1.3ZM826.23,380.21c-279,.7-557.9,1.4-836.8,2.1v44.5c278.5-.7,556.9-1.4,835.4-2.1,9.6,0,19.2,0,28.8-.1l.2-.4,9-24.3.2-.5,7.2-19.4c-14.7.1-29.4.2-44,.2Z"/>
          <path class="cls-1" d="M1802.33,444.11c-13.3-9.4-30.4-13.6-45.8-19.1-12.6-4.8-25-10.2-38.1-13.8-16-4.5-32.8-6.6-49.3-8.1-26.7-2.4-53.6-2.9-80.4-3.5-69.3-1.5-138.6-.8-207.9-.8-86.1,0-172.2-.2-258.2-.3-83.8,0-167.5.1-251.3.9-2.8,0-5.5,0-8.2.1-12.5.1-24.9.2-37.4.4v.2l-.8,24.5v.1l-.3,10v.1l-.1,2.8c8.1-.1,16.3-.1,24.5-.2,54.4-.4,109-.5,163.6-.5,81.8-.1,163.5.2,245.3.2,73.8.1,147.6-.7,221.3.1,28.6.3,57.2.8,85.8,2,12,.5,23.9,1,35.9,2,1.2.1,2.4.2,3.6.3h.1c1.2.2,2.5.3,3.7.5,8.1,1.2,16.2,2.6,24.1,4.6,4.2,1,8.3,2.3,12.4,3.7,1.1.4,2.3.8,3.4,1.2,8,3,16,5.9,24,8.8,5.7,2.1,11.3,4.1,17,6.2,7.2,2.7,15.3,6,20.9,11.1.3.6.5,1.2.6,1.9-8.3,1.9-16.6,3.8-24.9,5.7-11.5,2.7-23,5.6-34.4,8.6-3.7,1-7.4,1.9-11,2.9-10.2,2.7-20.3,5.6-30.5,8.5-52.8,15.4-104.4,33.3-155.6,52.6-56.9,21.5-121.8,42.8-154.8,94.9-8.5,13.4-14.4,28-19.1,43-.8,2.6-1.6,5.2-2.3,7.8-1.8,6.1-3.4,12.3-4.9,18.4-1.3,5-2.5,10-3.7,15h0c-5.7,23.2-11.3,46.4-17,69.5-.6,2.4-1.2,4.9-1.8,7.3-2.6,10.3-5.2,20.6-7.8,30.9h0c-.8,3.2-1.6,6.5-2.4,9.8-1.1,4.5-2.2,9.1-3.2,13.6-1.6,7.2-3.1,14.3-4.5,21.5-.6,3.2-1.2,6.4-1.7,9.5-.4,2.7-.9,5.4-1.2,8.1-3.3,23.4-3.9,47.1,3.5,69.7,1.1,3.5,2.5,7,4,10.4,2.6,5.8,12.3,6.4,17.6,6.7,3.7.2,7.7.1,11.6-.2,8.5-.7,17.2-2.3,24.9-4.4,3.6-.9,7.4-2,11.2-3.2,6.9-2.1,13.9-4.8,20.1-8.3.9-.5,1.9-1.1,2.8-1.7,3.8-2.5,14.2-8.4,11.6-14-7.2-16.1-9.9-33.1-9.9-50.2,0-4.3.2-8.6.5-12.9.4-5.3,1-10.5,1.7-15.8.3-2.1.7-4.2,1.1-6.2,1.7-9.5,3.6-19,5.8-28.4h0c.4-1.9.9-3.8,1.3-5.8,4.2-18,9-35.9,13.5-53.9,1.1-4.5,2.3-8.9,3.3-13.4.6-2.6,1.3-5.2,1.9-7.8,3.7-15.6,7.2-31.3,11-46.9.1-.5.2-1,.4-1.5,4-16.1,8.3-32.2,13.8-47.8,3.2-9.2,7-18.3,11.7-26.9,3.7-6.8,7.9-13.3,12.7-19.4v-.1c5.2-5.7,10.8-10.9,17-15.6.3-.2.7-.5,1-.8,1.3-.9,2.6-1.7,3.9-2.6,3.7-2.3,7.4-4.4,11.2-6.5,1.5-.7,2.9-1.4,4.4-2.1,4.2-2,8.4-3.8,12.7-5.6,3.5-1.5,7.1-2.9,10.7-4.3,1.8-.7,3.6-1.4,5.4-2.1,33.8-12.9,67.8-25.5,102.1-37.1,15.9-5.4,31.9-10.5,48-15.3.5-.1,1-.3,1.5-.4,3.9-1.1,7.9-2.2,11.8-3.4,8.5-2.4,17-4.6,25.5-6.9,18.4-4.8,36.9-9.2,55.4-13.4,24.6-5.6,48.9-12.5,70.6-25,8-4.6,19.5-12.2,22.5-21.1,2.8-8-.5-13.8-7.4-18.8ZM1712.93,479.81l-.1.1h0c-.4.2-.7.3-1.1.5l.1-.1c.3-.1.7-.3,1.1-.5ZM1711.63,480.51l.7-.3q-.1.1-.2.1c-.2.1-.4.2-.7.4l.2-.2ZM1710.83,480.81c-.1.1-.1.2-.2.3.2-.1.3-.3.4-.4h0c-.1.1-.2.2-.3.3,0,0-.1,0-.1.1,0,0,0,.1-.1.1-.5.4-1,.8-1.5,1.3.6-.5,1.1-1,1.5-1.4-1.9,1-3.4,1.4.3-.3ZM825.53,400.01c-278.7.8-557.4,1.9-836.1,3.3v36.9c22.8-.1,45.7-.2,68.5-.3,190.8-.8,381.7-1.4,572.5-1.9,64.6-.2,129.3-.3,193.9-.4h24.4l.1-.2,1-2.7.1-.2,3.7-10,.2-.4,9-24.3c-12.5.2-24.9.2-37.3.2Z"/>
          <path class="cls-7" d="M1723.23,460.41c-.4-1.9-1.4-3.7-2.7-5.4-3.9-4.7-10.9-8.1-16.1-9.1-4.3-.9-8.6-1.8-12.9-2.6-71.4-13.8-144.3-17.1-217.1-16.7-40.2.2-80.4,1.3-120.6,2.1-.8,0-1.5,0-2.3.1h-1.5c-1.2,0-2.3,0-3.5.1-4.7.1-9.3.2-14,.3-9.3.2-18.7.3-28,.5-19.5.3-38.9.7-58.4,1-132.1,2.1-264.1,3.2-396.2,4-8.5.1-16.9.1-25.4.1v.1l-.1,2.8v.1l-1.7,52.4h6.5c40.3-.2,80.5-.5,120.8-.9,77.1-.6,154.2-1.5,231.2-2.6,38.1-.6,76.3-1.2,114.4-1.9,22.6-.4,45.3-.9,67.9-1.3l25-.5h3.9c5.3-.1,10.5-.2,15.8-.3,41.4-.6,82.8-.7,124.2,1.5,3.1.2,6.1.3,9.2.5-17,6.8-34,13.7-51.4,19.6-28.6,9.7-58.2,18.9-86.3,30.8-33.3,14-64.9,31.3-92.4,53.9-23.1,18.9-42.9,42.6-59.5,66.6-8.2,12-14.9,25.2-19.9,38.9-2.1,5.7-3.8,11.5-5.3,17.3-1,3.9-1.8,7.8-2.6,11.6-2.5,13.1-3.2,26.6-4,39.8-1.3,19.8-2.1,39.7-2.7,59.6h0c0,.7-.1,1.5-.1,2.2-.2,5.9-.3,11.7-.5,17.6-.1,4.6-.2,9.2-.3,13.7v3.1c-.2,9.6-.3,19.1-.4,28.7-.1,6.2-.1,12.3-.1,18.5-.1,23.4.2,46.9.9,70.4,0,1.6.1,3.2.1,4.8.3,8.5,2,13.7,10.3,18.4s21.7,5.8,31.2,4.7c7.5-.9,15.4-2.5,22.6-5.2,4.5-1.7,8.8-3.8,12.6-6.4,2.6-1.7,5.8-4,8.8-6.6,2.9-2.5,5.5-5.4,7-8.5.9-1.8,1.4-3.6,1.3-5.4-.6-17.8-.9-35.7-1-53.5-.1-7.2-.1-14.3,0-21.5,0-8.7.1-17.4.2-26,.1-5.7.2-11.3.2-17,0-2.9.1-5.8.2-8.8,0-1.1.1-2.2.1-3.3.3-16.8.7-33.6,1.3-50.4.5-12.4,1.1-24.7,1.9-37.1h0c.4-5.2.8-10.3,1.2-15.4h0c.2-2.9.5-5.9.8-8.8,0-.4.1-.9.1-1.3.6-6,1.5-11.9,2.7-17.8,1.8-9.1,4.4-18.1,7.7-26.9,1.9-4.3,4.1-8.5,6.5-12.6h0c6.7-11.5,14.8-22.3,23.4-32.7l.1-.1c6.8-7.9,14-15.6,21.8-22.7,3.8-3.5,7.8-6.8,11.8-10.1h0c.2-.1.3-.2.4-.3,2-1.4,4.1-2.9,6.2-4.2h0c.8-.5,1.6-1.1,2.5-1.6,5.2-3.3,10.5-6.5,15.9-9.5,1.8-1,3.7-2,5.5-3-.8.4-1.4.8-1.9,1,1.7-.9,4.4-2.3,5.8-3,12.1-5.7,24.4-10.9,37-15.6,24.6-9.3,49.8-17.1,74.7-25.7,24.3-8.5,47.9-18.8,71.8-28.1,6.5-2.5,13.1-5,19.7-7.3.1,0,.2-.1.4-.1,3.4-1.1,6.9-2.1,10.3-3,6.4-1.8,12.8-3.2,19.3-4.6-.6.1-1.3.2-2.1.3.8-.1,1.5-.2,2.3-.4.6-.1,1.2-.2,1.8-.4,2.9-.6,7.2-1.1-.7.2,4.1-.6,8.2-1,12.3-1.4,10.5-1,20.8-4.1,30-8.9,5.9-3.1,12.9-7.3,17.2-12.7q.1-.1.2-.2h0c.1-.1.1-.2.2-.2.7-.9,1.3-1.8,1.8-2.8,2.4-5.1,3.7-9.8,2.7-14.9ZM1386.63,608.61c.5-.7,1.4-1.2,2.3-1.8-1.1.9-2.1,1.7-2.3,1.8ZM1710.23,477.41c-5.7-5-13.8-8.3-20.9-11.1-5.7-2.1-11.3-4.1-17-6.2-8-2.9-16-5.9-24-8.8-1.1-.4-2.3-.8-3.4-1.2-4.1-1.4-8.2-2.7-12.4-3.7-7.9-2-16-3.4-24.1-4.6-1.2-.2-2.5-.3-3.7-.5h-.1c-1.2-.1-2.4-.2-3.6-.3-11.9-1-23.9-1.5-35.9-2-28.6-1.1-57.2-1.6-85.8-2-73.8-.8-147.6,0-221.3-.1-81.8-.1-163.5-.3-245.3-.2-54.6,0-109.2.2-163.8.5l1-2.7h-25.4c-42.9.1-85.7.1-128.6.1-235.5.6-471,.8-706.5,1v55.4c39.1,0,78.2-.1,117.2-.1h9.7c237.6-.2,475.2-.5,712.8-.8v-.1c40.3-.2,80.5-.5,120.8-.9,77.1-.6,154.2-1.5,231.2-2.6,38.1-.6,76.3-1.2,114.4-1.9,22.6-.4,45.3-.9,67.9-1.3l25-.5h3.9c5.3-.1,10.5-.2,15.8-.3,41.4-.6,82.8-.7,124.2,1.5,3.1.2,6.1.3,9.2.5-17,6.8-34,13.7-51.4,19.6-28.6,9.7-58.2,18.9-86.3,30.8-33.3,14-64.9,31.3-92.4,53.9-23.1,18.9-42.9,42.6-59.5,66.6-8.2,12-14.9,25.2-19.9,38.9-2.1,5.7-3.8,11.5-5.3,17.3-1,3.9-1.8,7.8-2.6,11.6-2.5,13.1-3.2,26.6-4,39.8-1.3,19.8-2.1,39.7-2.7,59.6h0c0,.7-.1,1.5-.1,2.2-.2,5.9-.3,11.7-.5,17.6.2-.1.3-.2.4-.4,6.4-5.4,12.9-10.9,19.3-16.3,2.9-2.4,5.7-4.8,8.6-7.2,1.8-1.5,3.7-3.1,5.5-4.6.6-2.4,1.2-4.9,1.8-7.3,5.7-23.2,11.3-46.4,17-69.5h0c1.2-5,2.5-10,3.7-15,1.6-6.1,3.2-12.3,4.9-18.4.8-2.6,1.5-5.2,2.3-7.8,4.7-15,10.6-29.6,19.1-43,33-52.1,97.9-73.4,154.8-94.9,51.2-19.3,102.9-37.2,155.6-52.6,10.1-3,20.3-5.8,30.5-8.5,3.7-1,7.3-2,11-2.9,11.4-3,22.9-5.8,34.4-8.6,8.3-2,16.6-3.8,24.9-5.7.1-1-.1-1.6-.4-2.3Z"/>
        </g>
        <g>
          <path class="cls-12" d="M1905.43,730.41c1.2-.3,2.6-.5,4-.6v114.7c-4.1,1-8.1,2.6-11.8,5.1-6.1,4-13.1,5.4-20.8,2.3-21.1-8.3-38.5-6.3-53.1,7.6-2.2,2.1-10,3.5-13.7,2.6-10.6-2.7-17-.2-22.1,5.7-5.4-5.2-10.5-10.6-16.3-15.6-1-.9-4.8-.2-7.2-.3l-19.5,16.5c-4.2.9-9,1.1-12.6,2.7-13.5,6-27.2,9.8-43.8,5.9-2.9-.7-8.2,1-11,2.7-7.7,4.6-15,4.8-22.7.5-8.1-4.7-14.7-4-21.2,1.7-6.7,5.9-14.4,10.2-26.6,5.5-2.5-1-8.7.3-11.4,2-8.5,5.1-16.2,4.3-25.4.9-4.1-1.5-11.3-2.4-14.8-1-12.1,4.8-21.8,4.6-30.1-3.6-1.1-1.1-3.2-1.6-2.8-1.4-9.5,2.4-17.2,4.3-24.8,6.2h0c0-.5-.1-1-.1-1.5v-.1h0c-.7-9.4-2.1-18.8-1.8-28.2.1-3.5,1.4-7.6,3.9-10.7.6-.7,1.2-1.4,2-2,6.3-5.3,12.8-10.6,19.2-15.9,1.4-1.2,2.9-2.4,4.3-3.5h0c17.9-14.7,36.1-29.2,54.1-43.8,2.2-1.8,4.5-3.5,6.8-5.2h.1c1.8-1.4,3.7-2.7,5.4-4.1,2.2-1.7,4.3-3.5,6.2-5.4.8-.8,1.5-1.5,2.2-2.3.2-.3.5-.5.7-.7s.4-.4.6-.6c.6-.6,1.2-1.1,1.9-1.5,5.5-3.6,11.5-2,18.3-.3,25,6.1,50.1,12.2,75.1,18.2,1.5.4,3.4.2,5,.3,26.3,6.2,52.6,12.4,79,18.4,8.8,2,17.6,4,26.4,6,1.9.4,4.7.3,7.3-.2.5-.1,1-.2,1.5-.3.5-.1,1-.3,1.4-.4s.7-.2,1.1-.4c.9-.4,1.6-.8,2.1-1.2,20.3-18.2,39.8-36.9,59.7-55.3,1.6-1.5,3.2-3,4.8-4.5,2.4-2.2,4.8-4.5,7.4-6.6s5.2-4.2,8.1-6.1c1.2-1.1,3-1.8,5-2.2Z"/>
          <path class="cls-3" d="M1909.43,660.71v69.1c-1.4.2-2.7.4-4,.6-2,.5-3.8,1.1-5.1,1.9-2.9,1.9-5.6,4-8.1,6.1-2.6,2.1-5,4.4-7.4,6.6-1.6,1.5-3.2,3-4.8,4.5-19.9,18.4-39.4,37.1-59.7,55.3-.5.4-1.2.8-2.1,1.2-.3.1-.7.3-1.1.4-.5.2-.9.3-1.4.4s-1,.2-1.5.3c-2.6.5-5.4.6-7.3.2-8.8-2-17.6-3.9-26.4-6-26.4-6-52.7-12.3-79-18.4h0c-7.7-10-21.6-12.5-36.5-13.8-6.6-.6-13-1.4-19.6-2.1-.1-1.1-.2-2.2-.3-3.4h0c1.4-.4,2.7-.7,4.1-1.1,2.1-.6,4.2-1.1,6.4-1.7,2.2-.6,4.5-1.2,6.9-1.8h0c-.1-1.4.1-3.3-.5-5.1-.9-2.9-.8-5.4.2-7.4.4-.8.9-1.5,1.5-2.1.1-.1.2-.2.3-.3h0c.2-.2.5-.4.7-.5.1-.1.3-.2.4-.3,2.8-1.7,7.2-2.3,12.7-1.3,9.6,1.7,17.2,1.7,22.8-1.6.6-.4,1.2-.8,1.8-1.2.2-.2.4-.4.7-.5.2-.2.5-.4.7-.7.3-.3.6-.6.9-1s.6-.8.9-1.1c.3-.4.6-.8.8-1.2h0c.4-.6.8-1.3,1.2-2.1l.1-.1c.1-.1.2-.2.3-.4.1-.1.2-.1.2-.2.2-.1.4-.3.6-.4.3-.2.7-.4,1.1-.6h.1c.4-.2.8-.3,1.2-.5.2-.1.4-.2.6-.2,1.1-.3,2.2-.6,3.4-.9h0c2.9-.6,6-1,8.5-1,4,0,7.4-.3,10.1-1.1h0c1-.3,1.9-.6,2.7-1.1,0,0,.1,0,.1-.1.2-.1.3-.2.4-.2.6-.4,1.2-.8,1.8-1.4.3-.3.5-.5.8-.8.4-.5.7-1,1-1.5s.6-1.1.9-1.8c.4-1,.9-2,1.5-2.9.1-.1.2-.3.3-.5.2-.3.4-.6.6-.8.9-1.1,2-2.1,3.3-2.8,3.8-2.3,9.1-2.9,16.4-1.1,3.7.9,8.7.8,12.5-.1.4-.1.8-.2,1.1-.3,1.7-.6,3.4-1.7,4.6-2.8.2-.2.4-.4.6-.6.4-.5.7-.9,1-1.4,0-.1.1-.1.1-.2.3-1.3-2.2-3.7-4.3-4.9-7.7-4.2-10.6-6.7-8.4-10,1-1.5,3.1-3.3,6.3-5.5,2.4-1.6,7.7-1.8,11.6-1.6,4,.2,7.9,1.6,12.8,2.8.4,1,.2,3,1.6,4.1,2.5,2,5.6,4.4,9,4.8,1.4.2,3.3-.4,5-1.1.2-.1.4-.2.6-.3.6-.3,1.1-.6,1.5-.9.6-.4,1.2-.9,1.5-1.3,1.7-2,3.3-4,4.6-6.1,2.8-4.7,4-9.6.7-14.9h0c1.6.2,3.1.4,4.7.6,7.9,6.5,14.4,3,20.9-1.3,8.2-2.8,16.5-5.6,24.7-8.5,2.3-.6,5.1-.8,7-1.8,9.8-5.2,17.9-4.3,26.1-.2Z"/>
          <path class="cls-4" d="M1701.53,782.91c-7.7-10.1-21.6-12.5-36.5-13.8-6.5-.6-13-1.4-19.6-2.1-.1-1.1-.2-2.3-.3-3.4,5.5-1.4,10.9-2.9,17.4-4.6-.1-1.4.1-3.3-.5-5.1-2.7-8.8,3.6-14.1,15.9-12,14.5,2.5,24.4,1.4,29.9-9.5,1.3-2.5,10.5-4.4,16.2-4.5,9.1-.1,15-1.2,17.8-8,2.9-7.2,9.8-11.2,22.1-8.1,3.7.9,8.7.8,12.5-.1,3.1-.7,6.2-3,7.3-5.1.6-1.2-2.1-3.9-4.2-5.1-11.3-6.2-12.1-8.6-2.2-15.5,2.4-1.6,7.8-1.8,11.6-1.6,4,.2,7.9,1.6,12.8,2.8.3,1,.2,3,1.6,4.1,2.5,2,5.6,4.4,9,4.8,2.6.3,7.1-1.8,8.7-3.6,5.5-6.4,10-13.3,5.3-21-6.5-3.5-12.9-7.1-19.7-10.4-33.7-16.4-67.6-32.6-101.3-49-16.4-8-18.1-8-33.6,1.8,1.4.4,2.8.8,4.2,1.3.3-.1.7-.3,1.1-.4-.4.1-.7.3-1.1.4-12.2,9.3-24.3,18.7-36.6,28-27.9,21.1-55.9,42.2-84,63.2-20.7,15.5-41.6,30.9-62.4,46.3-5.1,3.8-10.3,7.6-15.4,11.4.4,10.4,8.2,1.4,12.5,2.1,2.3,2.1,4.6,4.2,9,8.2,3.7-5.3,6.3-9,8.1-11.6,27.3-1.4,53.9-2.8,82-4.2-.5,1.8-.1,5-1.8,5.6-11.8,4.3-13.1,13.5-20.7,19.4-24.4,18.9-50.6,36.8-75.7,55.4-5.8,4.3-10.9,9.4-14.2,14.7-6.6,10.5-11.7,21.4-17.4,32.1,4.4.9,9.8,3.3,13.1,2.3,9-2.6,16.8-1.6,25,.9-.7-9.4-2.1-18.9-1.8-28.3.1-4.3,2-9.4,5.8-12.6,25.5-21.3,51.7-42.2,77.7-63.3,7-5.6,15.2-10.7,20.7-17,6.2-7.2,13.4-5.2,21.5-3.2,25,6.1,50,12.2,75.1,18.2,1.6.2,3.5,0,5.1.1h0Z"/>
          <path class="cls-3" d="M1480.63,772.91c-2.2,3.4-4.5,6.8-6.8,10.2,1.8.8,3.6,1.6,5.4,2.4,3.6-2.6,7.1-5.2,10.6-7.9-3.1-1.5-6.2-3.2-9.2-4.7ZM1545.63,768.61c-3.3,3.5-7,5.8-6.4,7.2,1.2,2.6,4.9,4.5,7.6,6.7,2.2-2,10.3,7.3,10.4,5.2.1-2-7.9-15.4-11.6-19.1ZM1526.43,769.61c-3.1-.1-6.4,2.6-11.5,4.9,4.9,3.6,7.7,5.7,10.5,7.8,2.7-2.5,6.7-4.7,7.6-7.4.5-1.5-4.2-5.3-6.6-5.3ZM1519.53,751.41h0c-.2.4-.4.7-.7,1.2h0c-.1.1-.2.4-.3.5l-.1.1c-1.7,2.8-4.2,3.5-7,8.2-.2.4-.4.7-.7,1.2-.2-.1-.3-.4-.5-.5l-.1-.1-.2-.2c-.3-.2-.5-.6-.8-.9-3.5-3.8-5.3-3-7.5-5.3h-1.2c-.1,0-.2,0-.2.1h-.2c-.1,0-.3.1-.4.1h-.2q-.1,0-.2.1t-.2.1c-.2.1-.3.1-.5.2s-.3.1-.5.2h-.1c-.3.1-.6.4-.9.5-.1.1-.2.1-.3.1-.2.1-.4.2-.6.4h-.3s-.1,0-.2.1c-.4.2-.8.5-1.2.6-.2.1-.4.2-.6.2-.2.1-.4.1-.6.2-2.5,1-4.5.4-4.7-5.8h0c-1.6,1-3.4,1.9-5.1,3-.2.1-.4.2-.6.5-.2.1-.3.2-.5.4-.2.1-.3.2-.5.4-.1.1-.2.1-.2.2-.1.1-.2.2-.4.4-.1.1-.2.1-.2.2-.1.1-.2.2-.3.5-.4.6-.7,1.2-1.1,1.7-.4.6-.8,1.1-1.1,1.6-.1.2-.3.4-.4.5-.1.2-.3.4-.4.5-.3.4-.5.6-.8,1-.2.2-.4.5-.6.7s-.4.5-.6.6c-.2.2-.3.4-.5.5-.2.2-.5.5-.8.7s-.6.6-1,.9c-.4.2-.7.6-1,.9-.2.1-.5.4-.7.5s-.5.4-.7.5c-.3.2-.5.4-.8.5-.3.2-.6.4-1,.6-.9.5-1.9,1-2.8,1.5-.2.1-.5.2-.8.4-.3.1-.5.2-.8.4-.5.2-1.1.5-1.7.6-.8.4-1.8.6-2.7,1-.5.1-1,.4-1.6.5-.5.1-1,.2-1.6.4-.4.1-.8.2-1.1.2-.4.1-.9.2-1.3.2-.4.1-.9.2-1.3.2-.5.1-1,.1-1.5.2-.4.1-.8.1-1.3.2-.8.1-1.7.2-2.6.4-1.7.2-3.3.4-5,.5-.6,0-1.1.1-1.8.1-4.5.4-9,.6-13.6.9-.8,0-1.8.1-2.6.1-22.4,1.7-44.8,3.6-67.2,5.3-11.8,1-23.8,2-35.6,2.8-.8.1-1.8.1-2.6.2h-.1c-.8.1-1.7.2-2.5.2-2.1.2-4.3.6-6.3.9-.6.1-1.2.1-1.8.2-.5.1-.9.1-1.5.1-.3,0-.6,0-.9.1-.6.1-1.3.1-2,.1-.5,0-.9,0-1.5.1h-1.1c-1.9.1-3.7,0-5.6-.2h-.2c-.6-.1-1.2-.1-1.9-.1h-3.4c-.8,0-1.7.1-2.5.2-.4.1-.8.1-1.2.2-.2,0-.5.1-.7.1s-.4.1-.7.1c-.4.1-.9.2-1.3.4-1.8.5-3.3,1.1-4.9,1.9-.4.2-.7.4-1.1.6-.2.1-.4.2-.5.2-.2.1-.4.2-.5.4-.5.4-1,.6-1.6,1-.5.4-1,.7-1.5,1.1-.2.1-.5.4-.7.5s-.5.4-.7.6c-.2.1-.5.4-.7.6-.3.2-.7.6-1,.9s-.7.6-1,.9c-1.3,1.2-2.7,2.6-3.9,3.8h0c-4,4.1-8.1,8.1-12.1,12.2-1.9,1.9-3.8,3.8-5.7,5.7-3,3-5.9,5.9-8.9,8.9-6.6,6.7-13.4,13.5-20,20.1-.1.1-.3.2-.4.5-5,5.1-10.1,10.1-15.2,15.2-.2.2-.4.5-.6.7h0c-.6.6-1.2,1.2-1.9,1.9h0c-2.1,2.1-4.2,4.2-6.3,6.3.6.5,1.2,1,1.8,1.4,4.8-2.6,9.5-5.2,15.3-8.3.3-.1.6-.4.9-.5h.2c.2.1.4.2.5.4,1.6,1.1,3.3,2.3,5,3.6,1.6,1.1,2.9,2.2,4.3,3.5,5,4.9,10.4,7.8,17.3,7.4,2.1-.1,4.4-.5,6.8-1.2,2.8-.9,7.2-.2,9.9,1,9.7,4.7,19.6,5.6,29.7,3.5,1.9-.4,3.8-.9,5.7-1.5,9.2-3,16.8-1.9,23.5,2.5,1.2.9,2.5,1.7,3.7,2.8,5.3,4.6,11,6.3,17.5,4.4,1.1-.2,2.3-.7,3.5-1.2,11.4-5.2,21-2.3,31.5,2.8,5.5,2.7,13.7,2.1,20.5,2.7,7.5.5,15.7-.9,22.1,1.2.4.1.8.2,1.1.4,8.1,2.6,15.4,4.7,23.3.5,12-6.2,31.7,2.8,40.6,12.4.6-1.5,1.2-3,2-4.3.8-1.9,1.7-3.7,2.5-5.7.3-.9.7-1.7,1-2.5.2-.4.3-.9.5-1.2.2-.4.3-.9.5-1.2.3-.9.7-1.7,1-2.5.3-.7.7-1.6,1-2.5,0-.1.1-.1.1-.2s.1-.1.1-.2c.2-.4.4-.9.5-1.2.3-.7.7-1.6,1-2.3.1-.2.2-.5.3-.7.4-1,.9-2,1.3-3,0-.1.1-.1.1-.1.1-.1.2-.4.2-.5,1.8-3.7,3.5-7.4,5.5-11,.4-.9.9-1.6,1.3-2.5.2-.4.4-.7.6-1,0,0,0-.1.1-.1,0,0,0-.1.1-.1v-.1c.2-.4.5-.7.7-1.1.2-.4.5-.7.7-1.1l.1-.1c.1-.1.1-.2.2-.4.2-.2.4-.6.6-.9.3-.4.6-.7.9-1.1h0c.3-.4.6-.7.9-1.1.3-.4.6-.7.9-1.1h0c.3-.4.6-.7.9-1.1h0c.3-.4.6-.6.8-1l.1-.1c.7-.7,1.3-1.5,2.1-2.2h0c.4-.4.8-.7,1.1-1.1.4-.4.8-.7,1.2-1.1.3-.2.6-.5.8-.7,4-3.6,8.2-7.2,12.2-10.7q.1-.1.2-.1h0c1-.9,2.1-1.7,3-2.6,1-.9,2.1-1.7,3-2.6,2-1.7,4-3.5,6.1-5.2,1.7-1.4,3.3-2.8,5-4.3,3.3-2.8,6.6-5.7,9.9-8.5h0c3.3-2.8,1.7-2.7,5-5.5,1.2-1.1,2.5-2.2,3.7-3.2.7-.6,1.6-1.4,2.3-2,.2-.1.4-.4.6-.5.3-.2.5-.5.8-.7.1-.1.2-.1.3-.2l1.9-1.7c.1-.1.2-.1.2-.2,3.2-2.8,6.4-5.7,9.7-8.5h0c3.2-2.8,6.4-5.8,9.5-8.6,2.8-2.6,4.8-5.7,6.7-8.8.3-.5.5-.9.8-1.4.2-.2.3-.5.5-.9.3-.6.7-1.1,1-1.6.1-.1.2-.2.2-.4.1-.1.2-.2.3-.5.1-.1.2-.2.3-.4.2-.4.5-.7.7-1.1l.1-.1c.2-.2.4-.5.6-.9h0s0-.1.1-.1l.2-.2.2-.2h0c.1-.1.2-.2.3-.4.4-.5.9-1.1,1.5-1.6h.1c.1,0,.1-.1.2-.1s.1-.1.2-.1c.2-.1.3-.4.5-.5s.3-.2.5-.5c.2-.1.3-.2.5-.5.2-.1.4-.4.6-.5,1.5-1.1,3.1-2.1,5.1-3,.1,0,.2-.1.3-.2h0l.1-.1.1-.1.2-.2c.1-.1.1-.2.1-.2.5-1.4.5-3.5.8-5.1,0-.2.1-.6.1-.9v-.1c-28.4,1.8-60.1-7.8-88.5-6Z"/>
        </g>
        <path class="cls-2" d="M1185.73,690.31c8.4.3,24.7,2.8,37.9,5.6,67.6,14.4,135.5,28,203.3,41.7,18.4,3.8,26.8,1.4,38-10.5,14.5-7.9,28.9-16,43.4-24,8.5-4.6,17.1-9.2,25.6-13.8,11.9-6.1,23.7-12.1,35.5-18.2,2.4-1.8,4.8-3.6,7.2-5.4,5.1-2.5,10.2-5,15.3-7.5,13.2-7,26.5-14,39.4-21.3l17.2-9.6c3-.8,5.8-1.7,8.6-2.5-.3-.6-.6-1.3-1-1.8l6.6-3.7c3.1-2,6-3.9,8.9-5.6,1.4.4,2.7.8,4.1,1.4-7.2,5.7-14.3,11.5-21.5,17.2-.4.3-.9.6-1.3,1-4.6,3.7-9.2,7.3-13.8,11-7,5.5-13.9,11-20.9,16.5-12.2,9.6-24.3,19.1-36.5,28.7-8.9,6.9-17.7,13.9-26.6,20.8-12.9,10.1-25.9,20.2-38.9,30.3-3.4,2.6-6.9,5.3-10.3,7.9-4.4,3.3-8.8,6.8-13.2,10.2-1,.7-2,1.6-3,2.3-1.4,1.1-2.9,2.2-4.3,3.2-1.1.8-2.3,1.8-3.4,2.6-.2.2-.5.3-.7.5-.1,0-.1.1-.2.1-1.3,1-2.6,2-3.8,3h0c-2.6,1.5-6.2,2.6-7.6,4.6-11.3,16.6-33.3,15.7-54,17-33.1,2.3-66.1,4.6-99.1,7-8.4.6-17,2.5-25,1.7-14.4-1.4-21.9,4.8-29.4,11.3h0c-5.8,5-11.5,10.1-17.2,15.2-2.9,2.5-5.7,5-8.6,7.5-6.4,5.6-12.9,11.4-19.3,17-5,4.4-10,8.8-15,13.3-.2.2-.4.4-.6.6h0c-2.6,2.3-5.3,4.7-7.9,7-1.7-.3-3.4-.7-5.1-1.1v3c-1.7.4-3.4.8-5.1,1.1-2.6-2.3-5.3-4.7-7.9-7h0c-.2-.2-.4-.4-.6-.6h0c-5-4.4-10-8.8-15-13.3-6.4-5.6-12.9-11.4-19.3-17-2.9-2.5-5.7-5-8.6-7.5-5.7-5-11.5-10.1-17.2-15.2h0c-7.4-6.5-15-12.6-29.4-11.3-8,.8-16.7-1.1-25-1.7-33-2.3-66-4.7-99.1-7-20.7-1.4-42.7-.4-54-17-1.4-2-5-3.1-7.6-4.6h0c-1.3-.9-2.5-2-3.8-2.9,0-.1-.1-.1-.2-.1-.2-.2-.5-.3-.7-.5-1.2-.9-2.3-1.8-3.4-2.6-1.4-1-2.9-2.2-4.3-3.2-1-.7-2-1.6-3-2.3-4.4-3.4-8.8-6.8-13.2-10.2-3.4-2.6-6.9-5.3-10.3-7.9-13-10-26-20.2-38.9-30.3-8.9-6.9-17.7-13.8-26.6-20.8-12.2-9.5-24.3-19.1-36.5-28.7-7-5.4-14-11-20.9-16.5-4.6-3.7-9.2-7.3-13.8-11-.4-.3-.8-.7-1.3-1-7.2-5.7-14.3-11.5-21.5-17.2,1.4-.5,2.7-.9,4.1-1.4,2.9,1.8,5.8,3.7,8.9,5.6l6.6,3.7c-.3.5-.6,1.1-1,1.8,2.7.8,5.6,1.7,8.6,2.5l17.3,9.6c13,7.3,26.3,14.2,39.4,21.2,5.1,2.6,10.2,5.1,15.3,7.5,2.4,1.9,4.8,3.7,7.2,5.4,11.9,6.1,23.7,12.1,35.5,18.1,8.6,4.6,17.1,9.2,25.6,13.8,14.5,7.9,29,16,43.5,24,11.2,11.8,19.7,14.2,38,10.5,67.9-13.8,200.7-40.8,203.3-41.7,2.7-.8,23.7-8.7,32.1-8.5Z"/>
        <path class="cls-9" d="M1.43,560.91c37.5-25,77.2-48.6,116.1-72.7-3.9,9.4-7.7,18.8-11.6,28.1-.5,1.3-1.2,2.7-1.8,4-1.3,2.9-2.5,5.8-3.9,8.7-2,4.3-4.1,8.6-6.1,12.8-1.4,2.9-2.7,5.7-4.2,8.6-1.4,2.8-2.7,5.7-4.2,8.5-.7,1.4-1.4,2.8-2.1,4.3-2.8,5.7-5.7,11.4-8.5,17h0c-2.8,5.7-5.7,11.4-8.5,17h0c-3.9,7.9-8.4,15.6-12.5,23.4-.4.9-.9,1.8-1.4,2.7-1.2,2.3-2.2,4.7-3.3,7-1.1,2.5-2.2,5-3.5,7.5-.3.7-.7,1.5-1.1,2.2-.8,1.7-1.7,3.5-2.4,5.2-.5,1.1-1.1,2.2-1.5,3.4-.6,1.4-1.3,2.8-1.8,4.3-.3.7-.5,1.4-.8,2.2-.8,2.5-1.6,5-2.1,7.4-.1.4-.2.8-.2,1.2h0c-.4,2.4-.6,4.9-.5,7.3,0,.7.1,1.3.1,2h0c.1,2,.3,4,.5,6,.3,2.7.6,5.4,1.1,8.1.2,1.3.4,2.7.7,4h0c1.3,6.7,2.8,13.4,4.5,20.1.2.7.3,1.3.5,2,.5,2,1.1,4,1.6,6,.8,3.4,1.7,6.7,2.5,10.1.1.7.3,1.3.4,2,.3,1.3.6,2.7.9,4,3.3,15.1,6.8,30.1,10.1,45.2.9,4.4,2,8.8,3,13.1h0c-8.7,1.4-19.4-2.9-32.1-13-3.9,1.7-8,3.3-11.8,5.1-7.3,3.4-13.5,4.8-20.5-1-1.2-1-4.2-1.2-7.5-1.2v-216.2c3.9-1.5,7.8-3.7,11.9-6.4Z"/>
        <path class="cls-12" d="M879.63,893.21c-7.7-1.9-15.3-3.8-24.8-6.2.4-.2-1.8.3-2.9,1.4-8.4,8.2-18,8.3-30.1,3.6-3.6-1.4-10.7-.5-14.9,1-9.2,3.4-16.9,4.2-25.4-.9-2.7-1.6-8.9-3-11.4-2-12.2,4.7-19.8.5-26.6-5.4-6.5-5.7-13.1-6.4-21.2-1.7-7.6,4.4-15,4.2-22.7-.5-2.8-1.7-8.1-3.4-11-2.7-16.6,3.9-30.3.2-43.8-5.9-3.5-1.6-8.3-1.8-12.6-2.7-6.5-5.5-13-11-19.5-16.5-2.5.1-6.2-.6-7.2.3-5.8,5-10.9,10.3-16.3,15.6-5.1-5.9-11.5-8.4-22.1-5.7-3.7.9-11.5-.4-13.7-2.6-14.6-13.9-32-15.8-53.1-7.6-7.7,3-14.7,1.6-20.8-2.3-9.8-6.4-20.9-7.5-33.9-4.9-4.3.8-11.4-.4-14.6-2.5-6.4-4.3-12.1-5.9-21.3-4.3-10.2,1.8-21.1,2.2-27.6-6-3.2-4-8.2-4.5-13.8-1.7-8.9,4.5-17.6,4.5-26.1-.6-9.1-5.5-19.4-5.8-30.9-3.9-9,1.5-18.8,1.7-25.3-4.6,2.4-.8,4.7-1.9,7.1-2.2,7-.7,14.1-1.1,22.2-1.7-13-16.8-12-33.1-13.4-48.8-.7-8-3.3-11.8-15.7-11.5-8.1.2-14.8-1.4-15.4-8.6-1.2-13.4-2.9-26.8-5.3-40.1-.4-2.4-4-5.5-7.3-6.6-12.5-4.2-17-22.1-4.7-26.4,16.3-5.7,14.5-15.2,11.4-23-5.6-13.7-3.6-26.4.4-39.8,4.8-16.1,1.9-18.7-21.3-22-10.9-1.6-14.2-5.3-14.1-12.5.1-5.8-2.4-11.7-4-18.3,9.3-1.3,10.6-7.1,9.4-13.9,19.8.4,30.6,9.4,40,19.6,1,1,1.9,2.1,2.9,3.1,1,1.1,2.1,2.2,3.1,3.3.4,1.1.3,2.4,1.2,3.2,32.5,33.3,65,66.6,97.8,99.7,6.9,7,15.3,13.3,22.9,19.9,4.4,5.5,9.9,10.7,13.1,16.5,8.1,14.5,24.8,18,45.2,18.3,5.2.1,11.9.7,15.2,3,7.7,5.1,13.9,11.2,20.3,17.2,19.9,18.4,39.3,37.1,59.7,55.3,2.3,2.1,9.6,3.4,13.4,2.5,35.3-7.8,70.3-16.2,105.5-24.4,1.7-.1,3.5.1,5-.3,25.1-6,50.1-12.1,75.1-18.2,8.2-2,15.3-4,21.5,3.2,5.4,6.2,13.7,11.3,20.7,17,26,21,52.2,42,77.7,63.3,3.8,3.2,5.7,8.3,5.8,12.6.3,9.4-1.1,18.9-1.8,28.3v-.1c.2.6.1,1.2,0,1.7h0Z"/>
        <path class="cls-5" d="M240.23,548.61c1.3,6.8-.1,12.6-9.6,13.9,1.5,6.6,4.1,12.5,4.1,18.3-.1,7.2,3.3,11,14.4,12.5,23.7,3.3,26.7,5.9,21.8,22-4.1,13.4-6.1,26.1-.4,39.8,3.3,7.8,5.1,17.3-11.7,23-12.6,4.3-8.1,22.2,4.8,26.4,3.4,1.1,7.1,4.2,7.5,6.6,2.4,13.3,4.2,26.7,5.4,40.1.6,7.1,7.5,8.7,15.8,8.6,12.7-.3,15.3,3.5,16.1,11.5,1.4,15.8.4,32,13.7,48.8-8.3.6-15.5,1-22.7,1.7-2.6.3-4.9,1.4-7.3,2.2-8.8-5.9-19.8-5.4-30-3.2-11.2,2.5-17.8-.6-22.8-6-5.3-5.7-11.2-7.2-20.5-4.4-9.8,2.9-19.8,5.9-29-2-1.7-1.5-9.4.1-14.2,0-5.9-.2-13.7.5-17.5-1.6-11.7-6.7-23.6-8.1-38.4-5.8-6.6,1.1-16.3.6-21.5-2-12.7-6.4-25.7-7.4-40.2-4.9-4.2-19.4-8.5-38.9-12.7-58.3-4.6-21.5-11.7-42.9-12.5-64.5-.5-13.5,8-27.3,13.6-40.8,4.7-11.2,11.3-22,16.6-33.1,11-22.7,22.2-45.4,32.6-68.3,6.2-13.5,11.3-27.2,16.9-40.8,10.8,5.3,22.2,10.3,32.5,16,18.2,10.2,34.8,21.6,53.9,31,12.2,5.8,27.4,8.9,41.3,13.3h0Z"/>
        <path class="cls-3" d="M403.43,697.51c6.9-3.9,13.8-7.9,20.7-11.8,4.3-2.3,8.6-4.7,12.9-7.1.7-.4,1.4-.8,2.1-1.2,8.6-4,17.8-7.4,25.5-12,9.4-5.5,18.2-7.4,28.9-2,1.9,1,4.6,1.2,7,1.8,8.3,2.8,16.5,5.7,24.7,8.5,6.4,4.2,13,7.8,20.9,1.3,1.6-.2,3.1-.4,4.7-.6-4.7,7.7-.3,14.6,5.3,21,1.6,1.8,6.1,3.9,8.7,3.6,3.3-.4,6.5-2.8,9-4.8,1.4-1.1,1.3-3.1,1.6-4.1,5-1.1,8.8-2.6,12.8-2.8,3.9-.2,9.3,0,11.6,1.6,10,6.9,9.2,9.3-2.2,15.5-2.2,1.2-4.9,3.9-4.2,5.1,1.1,2.1,4.3,4.4,7.3,5.1,3.8.9,8.8,1,12.5.1,12.3-3.1,19.2,1,22.1,8.1,2.8,6.8,8.7,7.9,17.8,8,5.6.1,14.9,1.9,16.2,4.5,5.6,10.9,15.4,12,29.9,9.5,12.2-2.1,18.5,3.2,15.9,12-.6,1.8-.4,3.8-.5,5.1,6.5,1.7,12,3.2,17.4,4.6-.1,1.1-.2,2.3-.3,3.4-6.5.7-13,1.6-19.6,2.1-14.9,1.3-28.8,3.8-36.5,13.8-35.1,8.2-70.2,16.6-105.5,24.4-3.8.8-11.1-.5-13.4-2.5-20.3-18.2-39.8-36.9-59.7-55.3-6.4-5.9-12.7-12.1-20.3-17.2-3.3-2.2-10-2.9-15.2-3-20.3-.3-37.1-3.8-45.2-18.3-3-5.7-8.4-10.9-12.9-16.4h0Z"/>
        <path class="cls-3" d="M895.23,773.11c-3,1.6-6.2,3.3-9.2,4.9,3.5,2.7,7,5.3,10.6,8.1,1.8-.8,3.6-1.6,5.4-2.5-2.3-3.5-4.6-7-6.8-10.5ZM830.23,768.71c-3.8,3.8-7.5,5.9-7.4,8,.1,2.1,4,4.2,6.2,6.2,2.7-2.3,6.4-4.3,7.7-6.9.5-1.2-3.3-3.7-6.5-7.3ZM849.43,769.81c-2.5,0-7.1,3.9-6.6,5.4.9,2.8,4.9,5,7.6,7.6,2.9-2.1,5.6-4.3,10.5-8-5.2-2.4-8.4-5.1-11.5-5ZM1174.13,857.31h0c-.2-.2-.4-.4-.6-.6h0c-5-4.3-10-8.6-15-13-6.4-5.5-12.9-11.2-19.3-16.7-2.9-2.5-5.7-4.9-8.6-7.4-5.7-4.9-11.5-9.9-17.2-14.8h0c-7.4-6.3-15-12.4-29.4-11.1-8,.8-16.7-1.1-25-1.6-33-2.3-66-4.6-99.1-6.9-20.7-1.3-42.7-.4-54-16.7-1.4-1.9-5-3.1-7.6-4.5-.2,5.1-2.1,5.6-4.5,4.8-.2-.1-.4-.1-.6-.2-.2-.1-.4-.1-.6-.2-.4-.2-.8-.3-1.2-.5,0,0-.1,0-.2-.1h0c-.1,0-.2-.1-.3-.1s-.2-.1-.3-.1-.2-.1-.3-.1c-.3-.1-.6-.3-.9-.4h-.1c-.2-.1-.3-.1-.5-.2h-.2c-.1,0-.2-.1-.3-.1s-.1-.1-.2-.1-.1,0-.2-.1h-.2c-.1,0-.3-.1-.4-.1h-.2c-.1,0-.2,0-.2-.1h-1.2c-2,1.8-4.1,3.8-7.5,7-.3.3-.6.6-.9.9l-.1.1c-.2.1-.3.3-.5.4-.2-.3-.5-.7-.7-1-3.3-4.8-5.7-8.4-7.4-10.9h0c-27.3-1.4-54-2.9-82-4.4.4,1.6.2,4.3,1.2,5.4l.1.1s.1,0,.1.1h0c.1.1.2.1.3.2,2.7,1,4.9,2.4,6.7,3.8.3.2.5.4.8.6.3.3.6.5.9.8.1.1.3.3.4.4.1.1.2.2.3.3.2.2.3.4.5.5l.1.1c.2.2.4.4.6.6l.1.1c.2.3.5.6.7.8.1.1.2.2.3.3.1.1.2.2.3.4.1.1.2.2.2.3.3.4.7.9,1,1.4.2.2.3.4.5.7.3.4.5.7.8,1.1,1.9,2.7,3.8,5.2,6.5,7.3,6.1,4.8,12.3,9.6,18.5,14.3.1.1.2.1.2.2.6.5,1.2.9,1.8,1.3.1.1.2.1.3.2.3.2.5.4.8.6.2.1.4.3.6.4.7.5,1.5,1.1,2.2,1.6,1.2.9,2.4,1.7,3.6,2.7.9.7,1.9,1.4,2.8,2,.2.1.3.2.5.4,2.1,1.5,4.2,3.1,6.3,4.6,3.2,2.4,6.4,4.7,9.5,7,1.6,1.2,3.2,2.4,4.8,3.6,4,3,8,5.8,11.9,8.8,4,3,7.9,5.9,11.8,8.9.5.4,1.1.8,1.6,1.2.5.4,1,.8,1.5,1.2h0c.3.3.7.6,1,.8.3.3.7.6,1,.9s.7.6,1,.9h0c.3.3.6.6.9.9.3.3.6.6.9.9.3.3.6.6.9.9.3.3.6.6.9.9.2.2.4.5.6.7.1.1.2.2.2.3,0,0,0,.1.1.1.2.3.5.6.7.9.1.1.1.2.2.2v.1c.1.2.3.3.4.5.1.1.1.2.2.3.2.3.5.6.7.9.5.7.9,1.3,1.3,2,1,1.7,2,3.4,3,5.1.3.6.6,1.1,1,1.7.4.8.9,1.5,1.3,2.3,0,0,0,.1.1.1s0,.1.1.1c0,.1.1.1.1.2s.1.1.1.1c.5.8.9,1.6,1.3,2.6.6,1.2,1.3,2.5,1.9,3.7,0,.1.1.1.1.2s.1.1.1.2c.3.7.7,1.4,1,2,.3.7.7,1.4,1,2,.2.3.4.7.5,1,.2.3.3.7.5,1,.4.7.7,1.4,1,2,.2.5.5.9.7,1.4.1.2.2.3.2.5.5.9.9,1.8,1.4,2.8.6,1.2,1.2,2.5,1.9,3.6,8.6-8,18.8-8.5,30.4-3.4,8.2,3.7,15.4,1.6,23.7-.7,6.3-1.7,14.1-.6,21.3-1.1,6.7-.4,14.6.1,19.9-2.3,10.1-4.4,19.3-6.7,30.3-2.4,7.7,3,14.2,1.8,20.2-2.7,7.2-5.3,15.6-7.4,26.2-4.4,11.4,3.2,23,3,34.1-1.6,2.6-1,6.9-1.5,9.5-.8,10.1,2.7,17,.2,23.2-5.1,2.8-2.4,6.4-4.3,9.4-6.1h.2c5.9,2.8,10.7,4.9,15.6,7.3.5-.4,1.1-.7,1.7-1.1-2.3-1.4-5-3.7-7.6-5.9Z"/>
        <path class="cls-10" d="M1909.43,819.81v219.1H-10.57v-267.2c21.7,3.2,43.5,6.3,65.3,9.2h0c76.9,10.2,154.1,18.7,231.3,27.1,7.8.9,15.7,1.7,23.5,2.6,70.4,7.7,140.8,15.4,211.1,23,4.6.5,9.3,1,13.9,1.5,12.8,1.4,25.7,2.8,38.5,4.2l25.8,2.8c5,.5,9.9,1.1,14.9,1.6,21.1,2.3,42.1,4.6,63.2,6.9,13.1,1.4,26.1,2.9,39.2,4.3,55,6,110.1,12,165.4,15.4h0c9.2.6,18.4,1.1,27.6,1.5h0c45.9,2.1,91.9,2.2,137.7-1.3,39.6-3,79.4-8.6,119.1-11.9h.1c3.1-.3,6.3-.5,9.4-.7h0c4.4-.3,8.7-.6,13.1-.9,3.1-.2,7-.3,11.2-.5h0c3.3-.1,6.8-.2,10.3-.4.5,0,1,0,1.6-.1,1.6-.1,3.2-.1,4.8-.2,8.5-.4,17.1-.9,23.9-1.7,2.1-.2,4-.5,5.8-.8,9.6-1.6,22.6-3.4,38.5-5.2,7.9-.9,16.5-1.8,25.7-2.8,8.6-.9,17.7-1.8,27.2-2.7,22.7-2.1,47.9-4.3,74.6-6.4,28.9-2.3,59.6-4.5,90.8-6.6h0c7.3-.5,14.6-1,21.9-1.4h0c110.2-7.1,223.9-12.2,288-11.7,78.1.8,96.6,3.3,96.6,3.3Z"/>
        <polygon class="cls-8" points="1909.43 985.21 1909.43 4948.56 -10.57 4948.56 -10.57 961.01 1216.93 976.51 1233.33 976.71 1268.53 977.11 1309.63 977.61 1322.73 977.81 1377.03 978.51 1377.03 978.51 1909.43 985.21"/>
      </g>
    </g>
  </g>
</svg>