<?xml version="1.0" encoding="UTF-8"?>
<svg id="Calque_2" data-name="Calque 2" xmlns="http://www.w3.org/2000/svg" xmlns:xlink="http://www.w3.org/1999/xlink" viewBox="0 0 1890.52 4913.93">
  <defs>
    <style>
      .cls-1 {
        fill: #dda672;
      }

      .cls-1, .cls-2, .cls-3, .cls-4, .cls-5, .cls-6, .cls-7, .cls-8, .cls-9 {
        stroke-width: 0px;
      }

      .cls-2 {
        fill: #d39c6e;
      }

      .cls-3 {
        fill: none;
      }

      .cls-4 {
        fill: #8e9ecc;
      }

      .cls-5 {
        fill: #e2925d;
      }

      .cls-6 {
        fill: #ddbe78;
      }

      .cls-7 {
        fill: #9a5f34;
      }

      .cls-8 {
        fill: #e4ad5d;
      }

      .cls-10 {
        clip-path: url(#clippath);
      }

      .cls-9 {
        fill: #e9764b;
      }
    </style>
    <clipPath id="clippath">
      <rect class="cls-3" y="0" width="1890.52" height="4913.93"/>
    </clipPath>
  </defs>
  <g id="sahara">
    <g class="cls-10">
      <rect class="cls-4" x="-14.74" y="-9.72" width="1920" height="1113.69"/>
      <ellipse class="cls-9" cx="1679.47" cy="441" rx="86.2" ry="84.83"/>
      <g id="dunes">
        <path class="cls-6" d="M993.83,680.81c5.2,2.75,12.8,17.1,18.8,35.58,12.4,38.53,18,95.05-18.8,102.13-8.2,1.57-15.2,5.11-21.2,10.03-33.6,27.62-34.8,97.7-34.8,97.7l-169.4-9.73-25.3-254.97s134.8-73.23,307-50.42c-57.8-7.08-72.3,61.33-56.3,69.69Z"/>
        <path class="cls-8" d="M1158.63,939.03l-220.7-12.68s1.2-70.08,34.8-97.7c6-4.91,13-8.45,21.2-10.03,36.7-7.08,31.2-63.6,18.8-102.13-6-18.48-13.5-32.93-18.8-35.58-16.1-8.35-1.5-76.77,56.3-69.69h0c63.8,8.45,132.8,30.18,202,73.62,255.6,160.81-93.6,254.18-93.6,254.18Z"/>
        <path class="cls-8" d="M1994.23,885.85s-1.6-1.67-4.7-4.62c-33.1-32.44-233.7-223.42-363-223.02-141.3.29,12.4,352.77,12.4,352.77l355.3-120.7"/>
        <path class="cls-6" d="M1424.33,1015.99v-288.88s146.3-78.73,219.1-68.51c29.7,4.23,47.3,23.2,37.6,68.51-33.3,156.09,111.8,97.7,111.8,97.7,0,0,172.3-7.08-24.7,133.97-197.1,141.05-343.7,61.63-343.7,61.63v-4.42h-.1Z"/>
        <path class="cls-8" d="M557.93,740.77s-1.6-1.67-4.7-4.62c-33.1-32.44-233.7-223.42-363-223.02-141.3.29,12.4,352.77,12.4,352.77l355.3-120.7"/>
        <path class="cls-6" d="M-11.97,870.81v-288.78s146.3-78.73,219.1-68.51c29.7,4.23,47.3,23.2,37.6,68.51-33.3,156.09,111.8,97.7,111.8,97.7,0,0,172.3-7.08-24.7,133.97-197.1,140.95-343.8,61.53-343.8,61.53v-4.42h0Z"/>
        <path class="cls-7" d="M549.73,642.68s118.6-22.71,441.9,90.72c19.8,173.88-96.4,117.95-96.4,117.95l-335,32.53-27.1-237.57,16.6-3.64Z"/>
        <path class="cls-5" d="M895.03,856.85s-309.6-75.78-290.8-186.46c18.8-110.68-463,128.47-463,128.47l15.9,175.94,302.6-12.88,71.3-3.05,373.9-15.92-9.9-86.1h0Z"/>
        <path class="cls-7" d="M1166.23,682.58s176.1-15.14,499.4,98.29c210,85.91,174.6,146.75,174.6,146.75h-661l-27.1-237.57,14.1-7.47Z"/>
        <path class="cls-2" d="M-11.97,735.46s454-59.57,874.5,270.7v78.93H-11.97v-349.63Z"/>
        <path class="cls-5" d="M1512.73,868.55s-265.1-87.48-326.4-186.85c-67.6-13.27-427.5,128.86-427.5,128.86l15.9,175.94,302.6-12.88,71.3-3.05,373.9-15.92-9.8-86.1h0Z"/>
        <path class="cls-1" d="M1907.73,869.73l.9,4058.53H-11.97V1085.09c194.6-51.01,990.2-204.74,1265.5-222.24,242-15.43,467.5-11.8,654.2,6.88Z"/>
      </g>
    </g>
  </g>
</svg>