<?xml version="1.0" encoding="UTF-8"?>
<svg id="Calque_2" data-name="Calque 2" xmlns="http://www.w3.org/2000/svg" xmlns:xlink="http://www.w3.org/1999/xlink" viewBox="0 0 1890.52 4913.93">
  <defs>
    <style>
      .cls-1 {
        fill: none;
      }

      .cls-1, .cls-2, .cls-3, .cls-4, .cls-5, .cls-6 {
        stroke-width: 0px;
      }

      .cls-7 {
        clip-path: url(#clippath);
      }

      .cls-2, .cls-8 {
        fill: #eff7fc;
      }

      .cls-3 {
        fill: #683b11;
      }

      .cls-4 {
        fill: #fff;
      }

      .cls-5 {
        fill: #ececec;
      }

      .cls-6 {
        fill: #9fd8f5;
      }

      .cls-8 {
        stroke: #fff;
        stroke-miterlimit: 10;
        stroke-width: 2px;
      }
    </style>
    <clipPath id="clippath">
      <rect class="cls-1" x="0" y="0" width="1890.52" height="4913.93"/>
    </clipPath>
  </defs>
  <g id="salinas">
    <g class="cls-7">
      <rect class="cls-6" x="-18.47" y="-9.72" width="1920" height="831.91"/>
      <path class="cls-3" d="M1904.06,682.88v25c-7.3,0-16.1-.1-26.1-.1-19-.1-42.8-.1-70.8-.2h-.1c-62.3-.1-145.1-.2-241.8-.2-417.9-.2-1094.1.2-1481.8.5-35.8,0-69.1,0-99.5.1v-34.2c32-5.6,65.7-11.5,99.5-17.5,131.7-23.3,264.9-47.6,301-56.9,77.3-19.8,173.2-31.2,173.2-31.2l141.4-31.5s61.3,14.3,93.3-22.8c32-37.1,111.9-45.7,170.6-22.9,58.6,22.9,189.2,74.2,189.2,74.2,0,0,80,5.7,122.6,5.7s135.9,26.7,135.9,26.7c0,0,80-9.9,109.3,1.7,29.3,11.6,119.9,40.1,119.9,40.1,0,0,90.6-8.6,122.6-5.7,15.8,1.4,70.9,19.8,115.5,37.9,9.3,3.9,18.2,7.7,26.1,11.3Z"/>
      <rect class="cls-4" x="-15.94" y="708.08" width="1917.8" height="4220.19"/>
      <polygon class="cls-8" points="662.23 1174.71 253.76 1132.03 256.96 1073.43 468.06 1035.73 837.96 1057.23 850.76 1065.63 857.56 1070.03 931.76 1118.33 939.36 1123.33 662.23 1174.71"/>
      <polygon class="cls-8" points="469.43 920.48 448.93 987.38 202.93 1025.08 61.13 1015.88 -38.37 1009.48 -38.37 914.18 -35.37 913.88 37.63 906.78 37.63 906.78 61.13 904.48 121.23 898.68 310.73 898.68 469.43 920.48"/>
      <polygon class="cls-8" points="636.36 885.78 941.66 904.88 1006.96 935.88 855.46 979.58 485.56 958.08 503.06 891.18 636.36 885.78"/>
      <polygon class="cls-8" points="625.16 858.68 897.26 867.68 919.86 797.38 810.26 752.68 509.16 756.78 355.76 842.28 625.16 858.68"/>
      <polygon class="cls-8" points="540.16 737.18 337.46 838.38 164.96 838.38 83.56 847.68 60.06 850.38 -12.44 858.68 -12.94 857.48 -15.94 850.38 -15.94 759.68 83.56 752.08 401.56 727.88 540.16 737.18"/>
      <polygon class="cls-8" points="238.9 1183.04 203.34 1284.05 -24.9 1231.44 -24.9 1173.84 120.89 1152.98 238.9 1183.04"/>
      <polygon class="cls-8" points="1622.66 1243.04 1470.36 1316.32 1079.89 1298.39 994.16 1193.94 1034.56 1184.14 1063.26 1182.24 1071.56 1181.74 1370.46 1162.24 1622.66 1243.04"/>
      <polygon class="cls-8" points="1894.76 1027.28 1627.56 1027.28 1626.66 1025.68 1691.56 1020.38 1858.96 1006.68 1877.96 1017.58 1894.76 1027.28"/>
      <polygon class="cls-8" points="1941.36 1042.88 1941.36 1152.98 1836.66 1152.98 1731.06 1146.08 1675.06 1142.38 1397.26 1092.78 1457.26 1046.68 1696.96 1014.78 1917.46 1040.18 1941.36 1042.88"/>
      <polygon class="cls-8" points="870.86 1010.63 1000.06 1094.83 1335.96 1072.13 1397.26 1022.73 1177.96 959.73 1026.26 965.73 870.86 1010.63"/>
      <polyline class="cls-8" points="1371.51 876.88 1632.01 902.08 1654.41 941.38 1408.91 969.28 1140.11 896.78 1371.51 876.88"/>
      <polyline class="cls-8" points="1032.56 866.18 965.66 834.38 1046.66 771.38 1213.56 764.38 1357.76 797.98 1366.16 824.58"/>
      <polygon class="cls-8" points="1711.76 786.78 1759.46 826.68 1626.66 849.78 1366.16 824.58 1357.76 797.98 1542.46 771.38 1711.76 786.78"/>
      <polygon class="cls-8" points="1901.86 711.68 1901.86 756.08 1877.96 763.18 1873.86 764.38 1711.76 786.78 1542.46 771.38 1376.86 730.08 1559.46 708.08 1565.36 707.38 1568.76 706.98 1792.86 706.98 1807.16 707.58 1807.16 707.58 1818.66 708.08 1877.96 710.68 1901.86 711.68"/>
      <polygon class="cls-8" points="1901.86 765.38 1901.86 806.28 1877.96 774.68 1870.96 765.38 1901.86 765.38"/>
      <polygon class="cls-8" points="1637.26 866.18 1654.56 897.68 1867.56 925.38 1752.36 846.18 1637.26 866.18"/>
      <polygon class="cls-8" points="1722.76 790.38 1765.26 827.18 1901.86 833.48 1861.16 771.38 1722.76 790.38"/>
      <polygon class="cls-8" points="1904.06 861.38 1904.06 914.98 1901.86 913.68 1877.96 899.98 1755.66 829.98 1877.96 836.98 1901.86 838.38 1904.06 861.38"/>
      <polygon class="cls-5" points="1019.26 902.38 1046.36 1013.58 1037.96 1013.58 1012.96 911.38 877.06 911.38 852.06 1013.58 844.16 1013.58 871.36 902.38 1019.26 902.38"/>
      <polygon class="cls-6" points="1012.96 911.38 1037.96 1013.58 852.06 1013.58 877.06 911.38 1012.96 911.38"/>
      <polygon class="cls-5" points="989.96 809.48 1007.06 876.88 998.96 876.88 984.46 815.48 905.56 815.48 891.06 876.88 880.16 876.88 897.16 809.48 989.96 809.48"/>
      <polygon class="cls-6" points="984.46 815.48 998.96 876.88 891.06 876.88 905.56 815.48 984.46 815.48"/>
      <polygon class="cls-5" points="968.46 756.98 976.96 793.38 973.76 793.38 966.06 760.68 923.96 760.68 916.16 793.38 913.56 793.38 922.06 756.98 968.46 756.98"/>
      <polygon class="cls-6" points="966.06 760.68 973.76 793.38 916.16 793.38 923.96 760.68 966.06 760.68"/>
      <polygon class="cls-5" points="958.36 728.58 963.26 746.78 959.36 746.78 955.56 730.28 934.46 730.28 930.56 746.78 927.26 746.78 932.16 728.58 958.36 728.58"/>
      <polygon class="cls-6" points="955.56 730.28 959.36 746.78 930.56 746.78 934.46 730.28 955.56 730.28"/>
      <polygon class="cls-5" points="951.16 712.48 953.36 721.48 952.16 721.48 950.26 713.28 939.76 713.28 937.86 721.48 936.66 721.48 938.86 712.48 951.16 712.48"/>
      <polygon class="cls-6" points="950.26 713.28 952.16 721.48 937.86 721.48 939.76 713.28 950.26 713.28"/>
      <polygon class="cls-2" points="540.16 750.28 585.26 713.38 916.16 717.08 907.56 776.98 838.36 746.68 540.16 750.28"/>
      <polygon class="cls-2" points="973.76 717.08 993.26 786.78 1033.86 756.98 1140.36 756.98 1124.16 717.08 973.76 717.08"/>
      <polygon class="cls-2" points="1140.36 717.48 1159.56 752.68 1235.56 752.68 1347.56 783.38 1488.66 767.98 1369.26 733.08 1322.96 713.38 1140.36 717.48"/>
      <polygon class="cls-2" points="1357.76 712.58 1376.86 721.58 1470.36 713.38 1357.76 712.58"/>
      <polygon class="cls-1" points="1904.06 327.28 1904.06 914.98 1901.86 913.68 1903.65 1062.93 -14.15 1062.93 -15.94 327.28 1904.06 327.28"/>
      <polygon class="cls-5" points="1051.66 1049.62 1090.63 1209.5 1078.55 1209.5 1042.6 1062.56 847.2 1062.56 811.25 1209.5 799.89 1209.5 839 1049.62 1051.66 1049.62"/>
      <polygon class="cls-6" points="1042.6 1062.56 1078.55 1209.5 811.25 1209.5 847.2 1062.56 1042.6 1062.56"/>
    </g>
  </g>
</svg>