<?xml version="1.0" encoding="utf-8"?>
<!-- Generator: Adobe Illustrator 28.2.0, SVG Export Plug-In . SVG Version: 6.00 Build 0)  -->
<svg version="1.1" id="laponie" xmlns="http://www.w3.org/2000/svg" xmlns:xlink="http://www.w3.org/1999/xlink" x="0px" y="0px"
	 viewBox="0 0 1920 700" style="enable-background:new 0 0 1920 700;" xml:space="preserve">
<style type="text/css">
	.st0{fill:#0F4773;}
	.st1{fill:#A7DAF0;}
	.st2{fill:#8DD1EA;}
	.st3{fill:#44B38F;}
	.st4{fill:#84C7AA;}
	.st5{fill:#A2D3C2;}
	.st6{fill:#87C1EA;}
	.st7{fill:#B8E0EE;}
	.st8{fill:#87AEDD;}
	.st9{fill:#90BCE6;}
	.st10{fill:#216091;}
	.st11{fill:#6181C0;}
</style>
<rect y="0.3" class="st0" width="1920" height="699.7"/>
<path class="st1" d="M1836.6,333l-211.1,24.4l23,97l251.6,28c17.1,1.9,49.3-71.3,39.4-85.5L1836.6,333z"/>
<polygon class="st1" points="797.2,419.6 810,521.7 931.1,561 919.7,532.9 909.6,474.7 "/>
<path class="st2" d="M928.5,549.8c-4.4,0.9-9.8,3.3-13.1,2.3c-9-2.6-16.8-1.6-25,0.9l-366.3-27.3l35.7-181.3l1.7-8.9
	c6.5-3.5,12.9-7.1,19.7-10.4c33.7-16.4,67.6-32.6,101.3-49c16.4-8,18.1-8,33.6,1.8c-1.4,0.4-2.8,0.8-4.2,1.3
	c-0.2-0.1-0.5-0.2-0.8-0.3c0.3,0.1,0.5,0.2,0.8,0.3c12.2,9.3,24.3,18.7,36.6,28c27.9,21.1,55.9,42.2,84,63.2
	c20.7,15.5,41.6,30.9,62.4,46.3c5.1,3.8,10.3,7.6,15.4,11.4c-0.4,10.4-8.2,1.4-12.5,2.1c-2.3,2.1-4.6,4.2-9,8.2
	c-3.7-5.3-6.3-9-8.1-11.6c-27.3-1.4-53.9-2.8-82-4.2c0.5,1.8,0.1,5,1.8,5.6c11.8,4.3,13.1,13.5,20.7,19.4
	c24.4,18.9,50.6,36.8,75.7,55.4c5.8,4.3,10.9,9.4,14.2,14.7C917.7,528.2,922.8,539.1,928.5,549.8z"/>
<path class="st2" d="M580.5,329.1l-27.7,24.7C548.5,342.8,555.7,334.1,580.5,329.1z"/>
<g>
	<path class="st3" d="M1870.5,85.4c-22.2-14.9-50-23.2-76-29.8s-51.6-10-77.8-12.4c-121.7-11.4-244.4-9.1-366.5-7.8
		c-121,1.4-241.9,2.7-362.9,4.1C937.2,40,887,40.6,836.8,41.1v0.2L836.1,61v0.2l-0.8,24.5c9.7-0.1,19.3-0.2,29-0.3
		c37-0.4,73.9-0.8,110.9-1.2c79.8-0.9,159.6-1.8,239.4-2.7c79.8-0.9,158.6-2.3,237.9-1.2c22.1,0.3,44.2,0.8,66.3,1.6
		c11,0.4,22.1,0.9,33.1,1.4c2.5,0.1,5.1,0.3,7.6,0.4c0.9,0,2.5,0.2,4.1,0.3c-0.2,0-0.4,0-0.7-0.1c4.5,0.3,9,0.5,13.5,0.9
		c38.6,2.6,77.3,6.2,114.6,16.1c3.7,1.1,7.4,2.3,11.1,3.5c7.8,2.6,15.5,5.6,23,9c2,0.9,4,1.8,5.9,2.7c8,3.8,16.1,8.1,22.5,13.9
		c3.7,4.7,5.8,9.9,5.3,15.6c-0.7,1.9-1.7,3.6-2.9,5.2c-11.8,3.6-23.5,7.3-35.3,10.9c-28.5,8.8-56.9,17.7-85.4,26.5
		c-56.6,17.6-113.3,34.9-169.9,52.7c-19.4,6.1-39.6,12.9-58.3,21.8l0,0c-14.1,6.7-27.5,14.6-39.2,24.3
		c-17.1,14.2-30.4,31.5-39.5,51.1c-0.3,0.6-0.6,1.3-0.9,2c-4.3,9.7-7.9,19.7-10.8,29.8c-1.4,4.9-2.7,9.9-3.8,14.8l0,0
		c-5.2,22.8-8,46.1-10.8,69.1c-0.5,4.4-1.1,8.7-1.6,13.1c-1.8,14.1-3.5,28.2-5.3,42.3c-0.5,3.9-1,7.8-1.5,11.7
		c-0.4,3.5-0.9,7-1.3,10.5c-1,7.9-2,15.8-3,23.6c-1.2,9.4-2.4,18.7-3.5,28.1c-2.3,18.3-4.6,36.7-6.9,55c-0.7,5.3-1.3,10.6-2,15.9
		c0,0.2,0,0.4,0,0.6c0.4,3.5,8.3,4.9,14.6,5.5c4,0.4,7.4,0.4,7.6,0.4c15.5,0.1,32.6-3,47.3-6.9c13.8-3.6,28.2-7.6,40.8-14.1l0,0
		c1.3-0.7,2.6-1.4,3.8-2.1c6.8-3.9,14.8-7.8,15.8-16c0.8-6.4,1.6-12.8,2.4-19.2c1.4-11.5,2.9-23,4.3-34.5c1-8.3,2.1-16.6,3.1-24.9
		c1.9-15.1,3.8-30.3,5.7-45.4c0.1-1.2,0.3-2.4,0.4-3.6c0,0,0,0,0-0.1c0.3-2.4,0.6-4.9,0.9-7.3l0,0c0.3-2.8,0.7-5.5,1-8.2
		c1.2-9.2,2.2-18.5,3.3-27.8l0,0c0.2-1.6,0.4-3.3,0.6-4.9c2-17.5,4-35.1,6.7-52.5c1.9-12.3,4.1-24.5,6.8-36.6v-0.1
		c3.3-13.6,7.5-27.1,13.3-39.9l0,0c0.7-1.6,1.5-3.2,2.3-4.8c5.8-11.8,13-22.8,22.2-32.7c2.8-2.6,5.7-5,8.7-7.3
		c1.5-1.1,3.6-2.2,5.1-3.4c0.5-0.3,1-0.5,1.5-0.8c-0.5,0.2-0.9,0.4-1.3,0.6c0.1-0.1,0.2-0.1,0.2-0.2c-0.1,0-0.3,0.1-0.4,0.1
		c-0.3,0.2-0.7,0.5-1.2,0.7c-4,1.9-1.6,0.5,0.8-0.6c-7.3,2.9-2.5,0.5,1.2-0.7c0.7-0.2,1.4-0.5,2.1-0.7c0,0-0.1,0-0.1,0.1
		c-0.3,0.2-0.7,0.3-1,0.5c-0.4,0.2-0.9,0.4-1.4,0.6h-0.1c0.3-0.1,0.7-0.3,1-0.4l0,0c1.1-0.4,2.4-0.9,3.9-1.6c-0.1,0-0.2,0.1-0.3,0.1
		c0.9-0.4,1.8-0.7,2.7-1.1c-0.8,0.3-1.6,0.7-2.3,1c3.4-1.1,6.8-2.2,10.3-3.3c28.6-9,57.2-17.8,85.8-26.6
		c56.9-17.7,113.9-35.3,170.8-53c35.2-10.9,72.4-20.2,102.8-41.1c10.5-7.2,18.6-16.5,19.8-28.8
		C1890.3,101.4,1879.9,91.6,1870.5,85.4z M1497.3,266.6c0.6-0.2,1.2-0.4,1.9-0.6c-1,0.4-2.1,0.8-3.1,1.2
		C1496.5,267,1496.9,266.8,1497.3,266.6c-0.1,0-0.1,0-0.2,0.1c1-0.5,1.9-0.9,2.8-1.4C1499,265.8,1498.1,266.2,1497.3,266.6z
		 M836.8,41.3C557.8,42,278.9,42.7,0,43.4v44.5c278.5-0.7,556.9-1.4,835.4-2.1c9.6,0,19.2,0,28.8-0.1l0.2-0.4l9-24.3l0.2-0.5
		l7.2-19.4C866.1,41.2,851.4,41.3,836.8,41.3z"/>
	<path class="st4" d="M1812.9,105.2c-13.3-9.4-30.4-13.6-45.8-19.1c-12.6-4.8-25-10.2-38.1-13.8c-16-4.5-32.8-6.6-49.3-8.1
		c-26.7-2.4-53.6-2.9-80.4-3.5c-69.3-1.5-138.6-0.8-207.9-0.8c-86.1,0-172.2-0.2-258.2-0.3c-83.8,0-167.5,0.1-251.3,0.9
		c-2.8,0-5.5,0-8.2,0.1c-12.5,0.1-24.9,0.2-37.4,0.4v0.2l-0.8,24.5v0.1l-0.3,10v0.1l-0.1,2.8c8.1-0.1,16.3-0.1,24.5-0.2
		c54.4-0.4,109-0.5,163.6-0.5c81.8-0.1,163.5,0.2,245.3,0.2c73.8,0.1,147.6-0.7,221.3,0.1c28.6,0.3,57.2,0.8,85.8,2
		c12,0.5,23.9,1,35.9,2c1.2,0.1,2.4,0.2,3.6,0.3h0.1c1.2,0.2,2.5,0.3,3.7,0.5c8.1,1.2,16.2,2.6,24.1,4.6c4.2,1,8.3,2.3,12.4,3.7
		c1.1,0.4,2.3,0.8,3.4,1.2c8,3,16,5.9,24,8.8c5.7,2.1,11.3,4.1,17,6.2c7.2,2.7,15.3,6,20.9,11.1c0.3,0.6,0.5,1.2,0.6,1.9
		c-8.3,1.9-16.6,3.8-24.9,5.7c-11.5,2.7-23,5.6-34.4,8.6c-3.7,1-7.4,1.9-11,2.9c-10.2,2.7-20.3,5.6-30.5,8.5
		c-52.8,15.4-104.4,33.3-155.6,52.6c-56.9,21.5-121.8,42.8-154.8,94.9c-8.5,13.4-14.4,28-19.1,43c-0.8,2.6-1.6,5.2-2.3,7.8
		c-1.8,6.1-3.4,12.3-4.9,18.4c-1.3,5-2.5,10-3.7,15l0,0c-5.7,23.2-11.3,46.4-17,69.5c-0.6,2.4-1.2,4.9-1.8,7.3
		c-2.6,10.3-5.2,20.6-7.8,30.9l0,0c-0.8,3.2-1.6,6.5-2.4,9.8c-1.1,4.5-2.2,9.1-3.2,13.6c-1.6,7.2-3.1,14.3-4.5,21.5
		c-0.6,3.2-1.2,6.4-1.7,9.5c-0.4,2.7-0.9,5.4-1.2,8.1c-3.3,23.4-3.9,47.1,3.5,69.7c1.1,3.5,2.5,7,4,10.4c2.6,5.8,12.3,6.4,17.6,6.7
		c3.7,0.2,7.7,0.1,11.6-0.2c8.5-0.7,17.2-2.3,24.9-4.4c3.6-0.9,7.4-2,11.2-3.2c6.9-2.1,13.9-4.8,20.1-8.3c0.9-0.5,1.9-1.1,2.8-1.7
		c3.8-2.5,14.2-8.4,11.6-14c-7.2-16.1-9.9-33.1-9.9-50.2c0-4.3,0.2-8.6,0.5-12.9c0.4-5.3,1-10.5,1.7-15.8c0.3-2.1,0.7-4.2,1.1-6.2
		c1.7-9.5,3.6-19,5.8-28.4l0,0c0.4-1.9,0.9-3.8,1.3-5.8c4.2-18,9-35.9,13.5-53.9c1.1-4.5,2.3-8.9,3.3-13.4c0.6-2.6,1.3-5.2,1.9-7.8
		c3.7-15.6,7.2-31.3,11-46.9c0.1-0.5,0.2-1,0.4-1.5c4-16.1,8.3-32.2,13.8-47.8c3.2-9.2,7-18.3,11.7-26.9c3.7-6.8,7.9-13.3,12.7-19.4
		c0,0,0,0,0-0.1c5.2-5.7,10.8-10.9,17-15.6c0.3-0.2,0.7-0.5,1-0.8c1.3-0.9,2.6-1.7,3.9-2.6c3.7-2.3,7.4-4.4,11.2-6.5
		c1.5-0.7,2.9-1.4,4.4-2.1c4.2-2,8.4-3.8,12.7-5.6c3.5-1.5,7.1-2.9,10.7-4.3c1.8-0.7,3.6-1.4,5.4-2.1
		c33.8-12.9,67.8-25.5,102.1-37.1c15.9-5.4,31.9-10.5,48-15.3c0.5-0.1,1-0.3,1.5-0.4c3.9-1.1,7.9-2.2,11.8-3.4
		c8.5-2.4,17-4.6,25.5-6.9c18.4-4.8,36.9-9.2,55.4-13.4c24.6-5.6,48.9-12.5,70.6-25c8-4.6,19.5-12.2,22.5-21.1
		C1823.1,116,1819.8,110.2,1812.9,105.2z M1723.5,140.9l-0.1,0.1l0,0c-0.4,0.2-0.7,0.3-1.1,0.5l0.1-0.1
		C1722.7,141.3,1723.1,141.1,1723.5,140.9z M1722.2,141.6l0.7-0.3c-0.1,0.1-0.1,0.1-0.2,0.1c-0.2,0.1-0.4,0.2-0.7,0.4L1722.2,141.6z
		 M1721.4,141.9c-0.1,0.1-0.1,0.2-0.2,0.3c0.2-0.1,0.3-0.3,0.4-0.4l0,0l0,0c-0.1,0.1-0.2,0.2-0.3,0.3c0,0-0.1,0-0.1,0.1
		c0,0,0,0.1-0.1,0.1c-0.5,0.4-1,0.8-1.5,1.3c0.6-0.5,1.1-1,1.5-1.4C1719.2,143.2,1717.7,143.6,1721.4,141.9z M836.1,61.1
		C557.4,61.9,278.7,63,0,64.4v36.9c22.8-0.1,45.7-0.2,68.5-0.3c190.8-0.8,381.7-1.4,572.5-1.9c64.6-0.2,129.3-0.3,193.9-0.4
		c8.1,0,16.2,0,24.4,0l0.1-0.2l1-2.7l0.1-0.2l3.7-10l0.2-0.4l9-24.3C860.9,61.1,848.5,61.1,836.1,61.1z"/>
	<path class="st5" d="M1733.8,121.5c-0.4-1.9-1.4-3.7-2.7-5.4c-3.9-4.7-10.9-8.1-16.1-9.1c-4.3-0.9-8.6-1.8-12.9-2.6
		c-71.4-13.8-144.3-17.1-217.1-16.7c-40.2,0.2-80.4,1.3-120.6,2.1c-0.8,0-1.5,0-2.3,0.1c-0.2,0-0.3,0-0.5,0c-0.1,0-0.2,0-0.3,0
		c-0.2,0-0.5,0-0.7,0c-1.2,0-2.3,0-3.5,0.1c-4.7,0.1-9.3,0.2-14,0.3c-9.3,0.2-18.7,0.3-28,0.5c-19.5,0.3-38.9,0.7-58.4,1
		c-132.1,2.1-264.1,3.2-396.2,4c-8.5,0.1-16.9,0.1-25.4,0.1V96l-0.1,2.8v0.1l-1.7,52.4c2.2,0,4.3,0,6.5,0
		c40.3-0.2,80.5-0.5,120.8-0.9c77.1-0.6,154.2-1.5,231.2-2.6c38.1-0.6,76.3-1.2,114.4-1.9c22.6-0.4,45.3-0.9,67.9-1.3l25-0.5
		c0.6,0,1.2,0,1.8,0c0.7,0,1.4,0,2.1,0c5.3-0.1,10.5-0.2,15.8-0.3c41.4-0.6,82.8-0.7,124.2,1.5c3.1,0.2,6.1,0.3,9.2,0.5
		c-17,6.8-34,13.7-51.4,19.6c-28.6,9.7-58.2,18.9-86.3,30.8c-33.3,14-64.9,31.3-92.4,53.9c-23.1,18.9-42.9,42.6-59.5,66.6
		c-8.2,12-14.9,25.2-19.9,38.9c-2.1,5.7-3.8,11.5-5.3,17.3c-1,3.9-1.8,7.8-2.6,11.6c-2.5,13.1-3.2,26.6-4,39.8
		c-1.3,19.8-2.1,39.7-2.7,59.6l0,0c0,0.7-0.1,1.5-0.1,2.2c-0.2,5.9-0.3,11.7-0.5,17.6c-0.1,4.6-0.2,9.2-0.3,13.7c0,1,0,2,0,3.1
		c-0.2,9.6-0.3,19.1-0.4,28.7c-0.1,6.2-0.1,12.3-0.1,18.5c-0.1,23.4,0.2,46.9,0.9,70.4c0,1.6,0.1,3.2,0.1,4.8
		c0.3,8.5,2,13.7,10.3,18.4s21.7,5.8,31.2,4.7c7.5-0.9,15.4-2.5,22.6-5.2c4.5-1.7,8.8-3.8,12.6-6.4c2.6-1.7,5.8-4,8.8-6.6
		c2.9-2.5,5.5-5.4,7-8.5c0.9-1.8,1.4-3.6,1.3-5.4c-0.6-17.8-0.9-35.7-1-53.5c-0.1-7.2-0.1-14.3,0-21.5c0-8.7,0.1-17.4,0.2-26
		c0.1-5.7,0.2-11.3,0.2-17c0-2.9,0.1-5.8,0.2-8.8c0-1.1,0.1-2.2,0.1-3.3c0.3-16.8,0.7-33.6,1.3-50.4c0.5-12.4,1.1-24.7,1.9-37.1l0,0
		c0.4-5.2,0.8-10.3,1.2-15.4l0,0c0.2-2.9,0.5-5.9,0.8-8.8c0-0.4,0.1-0.9,0.1-1.3c0.6-6,1.5-11.9,2.7-17.8c1.8-9.1,4.4-18.1,7.7-26.9
		c1.9-4.3,4.1-8.5,6.5-12.6l0,0c6.7-11.5,14.8-22.3,23.4-32.7l0.1-0.1c6.8-7.9,14-15.6,21.8-22.7c3.8-3.5,7.8-6.8,11.8-10.1l0,0
		c0.2-0.1,0.3-0.2,0.4-0.3c2-1.4,4.1-2.9,6.2-4.2l0,0c0.8-0.5,1.6-1.1,2.5-1.6c5.2-3.3,10.5-6.5,15.9-9.5c1.8-1,3.7-2,5.5-3
		c-0.8,0.4-1.4,0.8-1.9,1c1.7-0.9,4.4-2.3,5.8-3c12.1-5.7,24.4-10.9,37-15.6c24.6-9.3,49.8-17.1,74.7-25.7
		c24.3-8.5,47.9-18.8,71.8-28.1c6.5-2.5,13.1-5,19.7-7.3c0.1,0,0.2-0.1,0.4-0.1c3.4-1.1,6.9-2.1,10.3-3c6.4-1.8,12.8-3.2,19.3-4.6
		c-0.6,0.1-1.3,0.2-2.1,0.3c0.8-0.1,1.5-0.2,2.3-0.4c0.6-0.1,1.2-0.2,1.8-0.4c2.9-0.6,7.2-1.1-0.7,0.2c4.1-0.6,8.2-1,12.3-1.4
		c10.5-1,20.8-4.1,30-8.9c5.9-3.1,12.9-7.3,17.2-12.7c0.1-0.1,0.1-0.1,0.2-0.2l0,0c0.1-0.1,0.1-0.2,0.2-0.2c0.7-0.9,1.3-1.8,1.8-2.8
		C1733.5,131.3,1734.8,126.6,1733.8,121.5z M1397.2,269.7c0.5-0.7,1.4-1.2,2.3-1.8C1398.4,268.8,1397.4,269.6,1397.2,269.7z
		 M1720.8,138.5c-5.7-5-13.8-8.3-20.9-11.1c-5.7-2.1-11.3-4.1-17-6.2c-8-2.9-16-5.9-24-8.8c-1.1-0.4-2.3-0.8-3.4-1.2
		c-4.1-1.4-8.2-2.7-12.4-3.7c-7.9-2-16-3.4-24.1-4.6c-1.2-0.2-2.5-0.3-3.7-0.5h-0.1c-1.2-0.1-2.4-0.2-3.6-0.3
		c-11.9-1-23.9-1.5-35.9-2c-28.6-1.1-57.2-1.6-85.8-2c-73.8-0.8-147.6,0-221.3-0.1c-81.8-0.1-163.5-0.3-245.3-0.2
		c-54.6,0-109.2,0.2-163.8,0.5l1-2.7c-8.5,0-16.9,0-25.4,0c-42.9,0.1-85.7,0.1-128.6,0.1c-235.5,0.6-471,0.8-706.5,1v55.4
		c39.1,0,78.2-0.1,117.2-0.1l0,0c1,0,2.1,0,3.1,0h6.6l0,0c237.6-0.2,475.2-0.5,712.8-0.8v-0.1c40.3-0.2,80.5-0.5,120.8-0.9
		c77.1-0.6,154.2-1.5,231.2-2.6c38.1-0.6,76.3-1.2,114.4-1.9c22.6-0.4,45.3-0.9,67.9-1.3l25-0.5c0.6,0,1.2,0,1.8,0
		c0.7,0,1.4,0,2.1,0c5.3-0.1,10.5-0.2,15.8-0.3c41.4-0.6,82.8-0.7,124.2,1.5c3.1,0.2,6.1,0.3,9.2,0.5c-17,6.8-34,13.7-51.4,19.6
		c-28.6,9.7-58.2,18.9-86.3,30.8c-33.3,14-64.9,31.3-92.4,53.9c-23.1,18.9-42.9,42.6-59.5,66.6c-8.2,12-14.9,25.2-19.9,38.9
		c-2.1,5.7-3.8,11.5-5.3,17.3c-1,3.9-1.8,7.8-2.6,11.6c-2.5,13.1-3.2,26.6-4,39.8c-1.3,19.8-2.1,39.7-2.7,59.6l0,0
		c0,0.7-0.1,1.5-0.1,2.2c-0.2,5.9-0.3,11.7-0.5,17.6c0.2-0.1,0.3-0.2,0.4-0.4c6.4-5.4,12.9-10.9,19.3-16.3c2.9-2.4,5.7-4.8,8.6-7.2
		c1.8-1.5,3.7-3.1,5.5-4.6c0.6-2.4,1.2-4.9,1.8-7.3c5.7-23.2,11.3-46.4,17-69.5l0,0c1.2-5,2.5-10,3.7-15c1.6-6.1,3.2-12.3,4.9-18.4
		c0.8-2.6,1.5-5.2,2.3-7.8c4.7-15,10.6-29.6,19.1-43c33-52.1,97.9-73.4,154.8-94.9c51.2-19.3,102.9-37.2,155.6-52.6
		c10.1-3,20.3-5.8,30.5-8.5c3.7-1,7.3-2,11-2.9c11.4-3,22.9-5.8,34.4-8.6c8.3-2,16.6-3.8,24.9-5.7
		C1721.3,139.8,1721.1,139.2,1720.8,138.5z"/>
</g>
<g>
	<path class="st6" d="M1916,391.5c1.2-0.3,2.6-0.5,4-0.6v114.7c-4.1,1-8.1,2.6-11.8,5.1c-6.1,4-13.1,5.4-20.8,2.3
		c-21.1-8.3-38.5-6.3-53.1,7.6c-2.2,2.1-10,3.5-13.7,2.6c-10.6-2.7-17-0.2-22.1,5.7c-5.4-5.2-10.5-10.6-16.3-15.6
		c-1-0.9-4.8-0.2-7.2-0.3c-6.5,5.5-13,11-19.5,16.5c-4.2,0.9-9,1.1-12.6,2.7c-13.5,6-27.2,9.8-43.8,5.9c-2.9-0.7-8.2,1-11,2.7
		c-7.7,4.6-15,4.8-22.7,0.5c-8.1-4.7-14.7-4-21.2,1.7c-6.7,5.9-14.4,10.2-26.6,5.5c-2.5-1-8.7,0.3-11.4,2
		c-8.5,5.1-16.2,4.3-25.4,0.9c-4.1-1.5-11.3-2.4-14.8-1c-12.1,4.8-21.8,4.6-30.1-3.6c-1.1-1.1-3.2-1.6-2.8-1.4
		c-9.5,2.4-17.2,4.3-24.8,6.2l0,0c0-0.5-0.1-1-0.1-1.5V550l0,0c-0.7-9.4-2.1-18.8-1.8-28.2c0.1-3.5,1.4-7.6,3.9-10.7
		c0.6-0.7,1.2-1.4,2-2c6.3-5.3,12.8-10.6,19.2-15.9c1.4-1.2,2.9-2.4,4.3-3.5l0,0c17.9-14.7,36.1-29.2,54.1-43.8
		c2.2-1.8,4.5-3.5,6.8-5.2c0,0,0,0,0.1,0c1.8-1.4,3.7-2.7,5.4-4.1c2.2-1.7,4.3-3.5,6.2-5.4c0.8-0.8,1.5-1.5,2.2-2.3
		c0.2-0.3,0.5-0.5,0.7-0.7s0.4-0.4,0.6-0.6c0.6-0.6,1.2-1.1,1.9-1.5c5.5-3.6,11.5-2,18.3-0.3c25,6.1,50.1,12.2,75.1,18.2
		c1.5,0.4,3.4,0.2,5,0.3c26.3,6.2,52.6,12.4,79,18.4c8.8,2,17.6,4,26.4,6c1.9,0.4,4.7,0.3,7.3-0.2c0.5-0.1,1-0.2,1.5-0.3
		c0.5-0.1,1-0.3,1.4-0.4s0.7-0.2,1.1-0.4c0.9-0.4,1.6-0.8,2.1-1.2c20.3-18.2,39.8-36.9,59.7-55.3c1.6-1.5,3.2-3,4.8-4.5
		c2.4-2.2,4.8-4.5,7.4-6.6s5.2-4.2,8.1-6.1C1912.2,392.6,1914,391.9,1916,391.5z"/>
	<path class="st1" d="M1920,321.8v69.1c-1.4,0.2-2.7,0.4-4,0.6c-2,0.5-3.8,1.1-5.1,1.9c-2.9,1.9-5.6,4-8.1,6.1
		c-2.6,2.1-5,4.4-7.4,6.6c-1.6,1.5-3.2,3-4.8,4.5c-19.9,18.4-39.4,37.1-59.7,55.3c-0.5,0.4-1.2,0.8-2.1,1.2
		c-0.3,0.1-0.7,0.3-1.1,0.4c-0.5,0.2-0.9,0.3-1.4,0.4s-1,0.2-1.5,0.3c-2.6,0.5-5.4,0.6-7.3,0.2c-8.8-2-17.6-3.9-26.4-6
		c-26.4-6-52.7-12.3-79-18.4l0,0c-7.7-10-21.6-12.5-36.5-13.8c-6.6-0.6-13-1.4-19.6-2.1c-0.1-1.1-0.2-2.2-0.3-3.4l0,0
		c1.4-0.4,2.7-0.7,4.1-1.1c2.1-0.6,4.2-1.1,6.4-1.7c2.2-0.6,4.5-1.2,6.9-1.8l0,0c-0.1-1.4,0.1-3.3-0.5-5.1c-0.9-2.9-0.8-5.4,0.2-7.4
		c0.4-0.8,0.9-1.5,1.5-2.1c0.1-0.1,0.2-0.2,0.3-0.3l0,0c0.2-0.2,0.5-0.4,0.7-0.5c0.1-0.1,0.3-0.2,0.4-0.3c2.8-1.7,7.2-2.3,12.7-1.3
		c9.6,1.7,17.2,1.7,22.8-1.6c0.6-0.4,1.2-0.8,1.8-1.2c0.2-0.2,0.4-0.4,0.7-0.5c0.2-0.2,0.5-0.4,0.7-0.7c0.3-0.3,0.6-0.6,0.9-1
		s0.6-0.8,0.9-1.1c0.3-0.4,0.6-0.8,0.8-1.2l0,0c0.4-0.6,0.8-1.3,1.2-2.1l0.1-0.1c0.1-0.1,0.2-0.2,0.3-0.4c0.1-0.1,0.2-0.1,0.2-0.2
		c0.2-0.1,0.4-0.3,0.6-0.4c0.3-0.2,0.7-0.4,1.1-0.6c0,0,0,0,0.1,0c0.4-0.2,0.8-0.3,1.2-0.5c0.2-0.1,0.4-0.2,0.6-0.2
		c1.1-0.3,2.2-0.6,3.4-0.9l0,0c2.9-0.6,6-1,8.5-1c4,0,7.4-0.3,10.1-1.1l0,0c1-0.3,1.9-0.6,2.7-1.1c0,0,0.1,0,0.1-0.1
		c0.2-0.1,0.3-0.2,0.4-0.2c0.6-0.4,1.2-0.8,1.8-1.4c0.3-0.3,0.5-0.5,0.8-0.8c0.4-0.5,0.7-1,1-1.5s0.6-1.1,0.9-1.8
		c0.4-1,0.9-2,1.5-2.9c0.1-0.1,0.2-0.3,0.3-0.5c0.2-0.3,0.4-0.6,0.6-0.8c0.9-1.1,2-2.1,3.3-2.8c3.8-2.3,9.1-2.9,16.4-1.1
		c3.7,0.9,8.7,0.8,12.5-0.1c0.4-0.1,0.8-0.2,1.1-0.3c1.7-0.6,3.4-1.7,4.6-2.8c0.2-0.2,0.4-0.4,0.6-0.6c0.4-0.5,0.7-0.9,1-1.4
		c0-0.1,0.1-0.1,0.1-0.2c0.3-1.3-2.2-3.7-4.3-4.9c-7.7-4.2-10.6-6.7-8.4-10c1-1.5,3.1-3.3,6.3-5.5c2.4-1.6,7.7-1.8,11.6-1.6
		c4,0.2,7.9,1.6,12.8,2.8c0.4,1,0.2,3,1.6,4.1c2.5,2,5.6,4.4,9,4.8c1.4,0.2,3.3-0.4,5-1.1c0.2-0.1,0.4-0.2,0.6-0.3
		c0.6-0.3,1.1-0.6,1.5-0.9c0.6-0.4,1.2-0.9,1.5-1.3c1.7-2,3.3-4,4.6-6.1c2.8-4.7,4-9.6,0.7-14.9l0,0c1.6,0.2,3.1,0.4,4.7,0.6
		c7.9,6.5,14.4,3,20.9-1.3c8.2-2.8,16.5-5.6,24.7-8.5c2.3-0.6,5.1-0.8,7-1.8C1903.7,316.8,1911.8,317.7,1920,321.8z"/>
	<path class="st2" d="M1712.1,444c-7.7-10.1-21.6-12.5-36.5-13.8c-6.5-0.6-13-1.4-19.6-2.1c-0.1-1.1-0.2-2.3-0.3-3.4
		c5.5-1.4,10.9-2.9,17.4-4.6c-0.1-1.4,0.1-3.3-0.5-5.1c-2.7-8.8,3.6-14.1,15.9-12c14.5,2.5,24.4,1.4,29.9-9.5
		c1.3-2.5,10.5-4.4,16.2-4.5c9.1-0.1,15-1.2,17.8-8c2.9-7.2,9.8-11.2,22.1-8.1c3.7,0.9,8.7,0.8,12.5-0.1c3.1-0.7,6.2-3,7.3-5.1
		c0.6-1.2-2.1-3.9-4.2-5.1c-11.3-6.2-12.1-8.6-2.2-15.5c2.4-1.6,7.8-1.8,11.6-1.6c4,0.2,7.9,1.6,12.8,2.8c0.3,1,0.2,3,1.6,4.1
		c2.5,2,5.6,4.4,9,4.8c2.6,0.3,7.1-1.8,8.7-3.6c5.5-6.4,10-13.3,5.3-21c-6.5-3.5-12.9-7.1-19.7-10.4c-33.7-16.4-67.6-32.6-101.3-49
		c-16.4-8-18.1-8-33.6,1.8c1.4,0.4,2.8,0.8,4.2,1.3c0.3-0.1,0.7-0.3,1.1-0.4c-0.4,0.1-0.7,0.3-1.1,0.4c-12.2,9.3-24.3,18.7-36.6,28
		c-27.9,21.1-55.9,42.2-84,63.2c-20.7,15.5-41.6,30.9-62.4,46.3c-5.1,3.8-10.3,7.6-15.4,11.4c0.4,10.4,8.2,1.4,12.5,2.1
		c2.3,2.1,4.6,4.2,9,8.2c3.7-5.3,6.3-9,8.1-11.6c27.3-1.4,53.9-2.8,82-4.2c-0.5,1.8-0.1,5-1.8,5.6c-11.8,4.3-13.1,13.5-20.7,19.4
		c-24.4,18.9-50.6,36.8-75.7,55.4c-5.8,4.3-10.9,9.4-14.2,14.7c-6.6,10.5-11.7,21.4-17.4,32.1c4.4,0.9,9.8,3.3,13.1,2.3
		c9-2.6,16.8-1.6,25,0.9c-0.7-9.4-2.1-18.9-1.8-28.3c0.1-4.3,2-9.4,5.8-12.6c25.5-21.3,51.7-42.2,77.7-63.3c7-5.6,15.2-10.7,20.7-17
		c6.2-7.2,13.4-5.2,21.5-3.2c25,6.1,50,12.2,75.1,18.2C1708.6,444.1,1710.5,443.9,1712.1,444L1712.1,444z"/>
	<path class="st1" d="M1491.2,434c-2.2,3.4-4.5,6.8-6.8,10.2c1.8,0.8,3.6,1.6,5.4,2.4c3.6-2.6,7.1-5.2,10.6-7.9
		C1497.3,437.2,1494.2,435.5,1491.2,434z M1556.2,429.7c-3.3,3.5-7,5.8-6.4,7.2c1.2,2.6,4.9,4.5,7.6,6.7c2.2-2,10.3,7.3,10.4,5.2
		C1567.9,446.8,1559.9,433.4,1556.2,429.7z M1537,430.7c-3.1-0.1-6.4,2.6-11.5,4.9c4.9,3.6,7.7,5.7,10.5,7.8
		c2.7-2.5,6.7-4.7,7.6-7.4C1544.1,434.5,1539.4,430.7,1537,430.7z M1530.1,412.5L1530.1,412.5c-0.2,0.4-0.4,0.7-0.7,1.2l0,0
		c-0.1,0.1-0.2,0.4-0.3,0.5l-0.1,0.1c-1.7,2.8-4.2,3.5-7,8.2c-0.2,0.4-0.4,0.7-0.7,1.2c-0.2-0.1-0.3-0.4-0.5-0.5l-0.1-0.1
		c-0.1-0.1-0.1-0.1-0.2-0.2c-0.3-0.2-0.5-0.6-0.8-0.9c-3.5-3.8-5.3-3-7.5-5.3c-0.2,0-0.3,0-0.4,0c-0.1,0-0.2,0-0.3,0
		c-0.1,0-0.2,0-0.2,0l0,0c-0.1,0-0.2,0-0.3,0c-0.1,0-0.2,0-0.2,0.1c-0.1,0-0.1,0-0.2,0c-0.1,0-0.3,0.1-0.4,0.1l0,0c0,0,0,0-0.1,0
		c0,0,0,0-0.1,0l0,0c-0.1,0-0.1,0-0.2,0.1c-0.1,0-0.1,0-0.2,0.1c-0.2,0.1-0.3,0.1-0.5,0.2c-0.2,0.1-0.3,0.1-0.5,0.2c0,0,0,0-0.1,0
		c-0.3,0.1-0.6,0.4-0.9,0.5c-0.1,0.1-0.2,0.1-0.3,0.1c-0.2,0.1-0.4,0.2-0.6,0.4c0,0,0,0-0.1,0c0,0,0,0-0.1,0c0,0,0,0-0.1,0
		c0,0-0.1,0-0.2,0.1c-0.4,0.2-0.8,0.5-1.2,0.6c-0.2,0.1-0.4,0.2-0.6,0.2c-0.2,0.1-0.4,0.1-0.6,0.2c-2.5,1-4.5,0.4-4.7-5.8l0,0
		c-1.6,1-3.4,1.9-5.1,3c-0.2,0.1-0.4,0.2-0.6,0.5c-0.2,0.1-0.3,0.2-0.5,0.4c-0.2,0.1-0.3,0.2-0.5,0.4c-0.1,0.1-0.2,0.1-0.2,0.2
		c-0.1,0.1-0.2,0.2-0.4,0.4c-0.1,0.1-0.2,0.1-0.2,0.2c-0.1,0.1-0.2,0.2-0.3,0.5c-0.4,0.6-0.7,1.2-1.1,1.7c-0.4,0.6-0.8,1.1-1.1,1.6
		c-0.1,0.2-0.3,0.4-0.4,0.5c-0.1,0.2-0.3,0.4-0.4,0.5c-0.3,0.4-0.5,0.6-0.8,1c-0.2,0.2-0.4,0.5-0.6,0.7s-0.4,0.5-0.6,0.6
		c-0.2,0.2-0.3,0.4-0.5,0.5c-0.2,0.2-0.5,0.5-0.8,0.7c-0.3,0.2-0.6,0.6-1,0.9c-0.4,0.2-0.7,0.6-1,0.9c-0.2,0.1-0.5,0.4-0.7,0.5
		c-0.2,0.1-0.5,0.4-0.7,0.5c-0.3,0.2-0.5,0.4-0.8,0.5c-0.3,0.2-0.6,0.4-1,0.6c-0.9,0.5-1.9,1-2.8,1.5c-0.2,0.1-0.5,0.2-0.8,0.4
		c-0.3,0.1-0.5,0.2-0.8,0.4c-0.5,0.2-1.1,0.5-1.7,0.6c-0.8,0.4-1.8,0.6-2.7,1c-0.5,0.1-1,0.4-1.6,0.5c-0.5,0.1-1,0.2-1.6,0.4
		c-0.4,0.1-0.8,0.2-1.1,0.2c-0.4,0.1-0.9,0.2-1.3,0.2c-0.4,0.1-0.9,0.2-1.3,0.2c-0.5,0.1-1,0.1-1.5,0.2c-0.4,0.1-0.8,0.1-1.3,0.2
		c-0.8,0.1-1.7,0.2-2.6,0.4c-1.7,0.2-3.3,0.4-5,0.5c-0.6,0-1.1,0.1-1.8,0.1c-4.5,0.4-9,0.6-13.6,0.9c-0.8,0-1.8,0.1-2.6,0.1
		c-22.4,1.7-44.8,3.6-67.2,5.3c-11.8,1-23.8,2-35.6,2.8c-0.8,0.1-1.8,0.1-2.6,0.2h-0.1c-0.8,0.1-1.7,0.2-2.5,0.2
		c-2.1,0.2-4.3,0.6-6.3,0.9c-0.6,0.1-1.2,0.1-1.8,0.2c-0.5,0.1-0.9,0.1-1.5,0.1c-0.3,0-0.6,0-0.9,0.1c-0.6,0.1-1.3,0.1-2,0.1
		c-0.5,0-0.9,0-1.5,0.1c-0.1,0-0.1,0-0.2,0c-0.3,0-0.6,0-0.9,0c-1.9,0.1-3.7,0-5.6-0.2c-0.1,0-0.2,0-0.2,0c-0.6-0.1-1.2-0.1-1.9-0.1
		c-1.1,0-2.2,0-3.2,0c-0.1,0-0.2,0-0.2,0c-0.8,0-1.7,0.1-2.5,0.2c-0.4,0.1-0.8,0.1-1.2,0.2c-0.2,0-0.5,0.1-0.7,0.1
		c-0.2,0-0.4,0.1-0.7,0.1c-0.4,0.1-0.9,0.2-1.3,0.4c-1.8,0.5-3.3,1.1-4.9,1.9c-0.4,0.2-0.7,0.4-1.1,0.6c-0.2,0.1-0.4,0.2-0.5,0.2
		c-0.2,0.1-0.4,0.2-0.5,0.4c-0.5,0.4-1,0.6-1.6,1c-0.5,0.4-1,0.7-1.5,1.1c-0.2,0.1-0.5,0.4-0.7,0.5c-0.2,0.1-0.5,0.4-0.7,0.6
		c-0.2,0.1-0.5,0.4-0.7,0.6c-0.3,0.2-0.7,0.6-1,0.9s-0.7,0.6-1,0.9c-1.3,1.2-2.7,2.6-3.9,3.8l0,0c-4,4.1-8.1,8.1-12.1,12.2
		c-1.9,1.9-3.8,3.8-5.7,5.7c-3,3-5.9,5.9-8.9,8.9c-6.6,6.7-13.4,13.5-20,20.1c-0.1,0.1-0.3,0.2-0.4,0.5c-5,5.1-10.1,10.1-15.2,15.2
		c-0.2,0.2-0.4,0.5-0.6,0.7l0,0c-0.6,0.6-1.2,1.2-1.9,1.9l0,0c-2.1,2.1-4.2,4.2-6.3,6.3c0.6,0.5,1.2,1,1.8,1.4
		c4.8-2.6,9.5-5.2,15.3-8.3c0.3-0.1,0.6-0.4,0.9-0.5h0.1c0,0,0,0,0.1,0c0.2,0.1,0.4,0.2,0.5,0.4c1.6,1.1,3.3,2.3,5,3.6
		c1.6,1.1,2.9,2.2,4.3,3.5c5,4.9,10.4,7.8,17.3,7.4c2.1-0.1,4.4-0.5,6.8-1.2c2.8-0.9,7.2-0.2,9.9,1c9.7,4.7,19.6,5.6,29.7,3.5
		c1.9-0.4,3.8-0.9,5.7-1.5c9.2-3,16.8-1.9,23.5,2.5c1.2,0.9,2.5,1.7,3.7,2.8c5.3,4.6,11,6.3,17.5,4.4c1.1-0.2,2.3-0.7,3.5-1.2
		c11.4-5.2,21-2.3,31.5,2.8c5.5,2.7,13.7,2.1,20.5,2.7c7.5,0.5,15.7-0.9,22.1,1.2c0.4,0.1,0.8,0.2,1.1,0.4
		c8.1,2.6,15.4,4.7,23.3,0.5c12-6.2,31.7,2.8,40.6,12.4c0.6-1.5,1.2-3,2-4.3c0.8-1.9,1.7-3.7,2.5-5.7c0.3-0.9,0.7-1.7,1-2.5
		c0.2-0.4,0.3-0.9,0.5-1.2c0.2-0.4,0.3-0.9,0.5-1.2c0.3-0.9,0.7-1.7,1-2.5c0.3-0.7,0.7-1.6,1-2.5c0-0.1,0.1-0.1,0.1-0.2
		c0-0.1,0.1-0.1,0.1-0.2c0.2-0.4,0.4-0.9,0.5-1.2c0.3-0.7,0.7-1.6,1-2.3c0.1-0.2,0.2-0.5,0.3-0.7c0.4-1,0.9-2,1.3-3
		c0-0.1,0.1-0.1,0.1-0.1c0.1-0.1,0.2-0.4,0.2-0.5c1.8-3.7,3.5-7.4,5.5-11c0.4-0.9,0.9-1.6,1.3-2.5c0.2-0.4,0.4-0.7,0.6-1
		c0,0,0-0.1,0.1-0.1c0,0,0-0.1,0.1-0.1v-0.1c0.2-0.4,0.5-0.7,0.7-1.1c0.2-0.4,0.5-0.7,0.7-1.1l0.1-0.1c0.1-0.1,0.1-0.2,0.2-0.4
		c0.2-0.2,0.4-0.6,0.6-0.9c0.3-0.4,0.6-0.7,0.9-1.1l0,0c0.3-0.4,0.6-0.7,0.9-1.1c0.3-0.4,0.6-0.7,0.9-1.1l0,0
		c0.3-0.4,0.6-0.7,0.9-1.1l0,0c0.3-0.4,0.6-0.6,0.8-1l0.1-0.1c0.7-0.7,1.3-1.5,2.1-2.2l0,0c0.4-0.4,0.8-0.7,1.1-1.1
		c0.4-0.4,0.8-0.7,1.2-1.1c0.3-0.2,0.6-0.5,0.8-0.7c4-3.6,8.2-7.2,12.2-10.7c0.1-0.1,0.1-0.1,0.2-0.1l0,0c1-0.9,2.1-1.7,3-2.6
		c1-0.9,2.1-1.7,3-2.6c2-1.7,4-3.5,6.1-5.2c1.7-1.4,3.3-2.8,5-4.3c3.3-2.8,6.6-5.7,9.9-8.5l0,0c3.3-2.8,1.7-2.7,5-5.5
		c1.2-1.1,2.5-2.2,3.7-3.2c0.7-0.6,1.6-1.4,2.3-2c0.2-0.1,0.4-0.4,0.6-0.5c0.3-0.2,0.5-0.5,0.8-0.7c0.1-0.1,0.2-0.1,0.3-0.2l1.9-1.7
		c0.1-0.1,0.2-0.1,0.2-0.2c3.2-2.8,6.4-5.7,9.7-8.5l0,0c3.2-2.8,6.4-5.8,9.5-8.6c2.8-2.6,4.8-5.7,6.7-8.8c0.3-0.5,0.5-0.9,0.8-1.4
		c0.2-0.2,0.3-0.5,0.5-0.9c0.3-0.6,0.7-1.1,1-1.6c0.1-0.1,0.2-0.2,0.2-0.4c0.1-0.1,0.2-0.2,0.3-0.5c0.1-0.1,0.2-0.2,0.3-0.4
		c0.2-0.4,0.5-0.7,0.7-1.1l0.1-0.1c0.2-0.2,0.4-0.5,0.6-0.9l0,0c0,0,0-0.1,0.1-0.1c0.1-0.1,0.2-0.2,0.2-0.2c0.1-0.1,0.2-0.2,0.2-0.2
		l0,0c0.1-0.1,0.2-0.2,0.3-0.4c0.4-0.5,0.9-1.1,1.5-1.6c0,0,0,0,0.1,0s0.1-0.1,0.2-0.1c0.1,0,0.1-0.1,0.2-0.1
		c0.2-0.1,0.3-0.4,0.5-0.5s0.3-0.2,0.5-0.5c0.2-0.1,0.3-0.2,0.5-0.5c0.2-0.1,0.4-0.4,0.6-0.5c1.5-1.1,3.1-2.1,5.1-3
		c0.1,0,0.2-0.1,0.3-0.2l0,0l0,0l0.1-0.1l0.1-0.1c0.1-0.1,0.1-0.1,0.2-0.2s0.1-0.2,0.1-0.2c0.5-1.4,0.5-3.5,0.8-5.1
		c0-0.2,0.1-0.6,0.1-0.9c0,0,0,0,0-0.1C1590.2,420.3,1558.5,410.7,1530.1,412.5z"/>
</g>
<path class="st7" d="M1196.3,351.4c8.4,0.3,24.7,2.8,37.9,5.6c67.6,14.4,135.5,28,203.3,41.7c18.4,3.8,26.8,1.4,38-10.5
	c14.5-7.9,28.9-16,43.4-24c8.5-4.6,17.1-9.2,25.6-13.8c11.9-6.1,23.7-12.1,35.5-18.2c2.4-1.8,4.8-3.6,7.2-5.4
	c5.1-2.5,10.2-5,15.3-7.5c13.2-7,26.5-14,39.4-21.3l17.2-9.6c3-0.8,5.8-1.7,8.6-2.5c-0.3-0.6-0.6-1.3-1-1.8l6.6-3.7
	c3.1-2,6-3.9,8.9-5.6c1.4,0.4,2.7,0.8,4.1,1.4c-7.2,5.7-14.3,11.5-21.5,17.2c-0.4,0.3-0.9,0.6-1.3,1c-4.6,3.7-9.2,7.3-13.8,11
	c-7,5.5-13.9,11-20.9,16.5c-12.2,9.6-24.3,19.1-36.5,28.7c-8.9,6.9-17.7,13.9-26.6,20.8c-12.9,10.1-25.9,20.2-38.9,30.3
	c-3.4,2.6-6.9,5.3-10.3,7.9c-4.4,3.3-8.8,6.8-13.2,10.2c-1,0.7-2,1.6-3,2.3c-1.4,1.1-2.9,2.2-4.3,3.2c-1.1,0.8-2.3,1.8-3.4,2.6
	c-0.2,0.2-0.5,0.3-0.7,0.5c-0.1,0-0.1,0.1-0.2,0.1c-1.3,1-2.6,2-3.8,3l0,0c-2.6,1.5-6.2,2.6-7.6,4.6c-11.3,16.6-33.3,15.7-54,17
	c-33.1,2.3-66.1,4.6-99.1,7c-8.4,0.6-17,2.5-25,1.7c-14.4-1.4-21.9,4.8-29.4,11.3l0,0c-5.8,5-11.5,10.1-17.2,15.2
	c-2.9,2.5-5.7,5-8.6,7.5c-6.4,5.6-12.9,11.4-19.3,17c-5,4.4-10,8.8-15,13.3c-0.2,0.2-0.4,0.4-0.6,0.6l0,0c-2.6,2.3-5.3,4.7-7.9,7
	c-1.7-0.3-3.4-0.7-5.1-1.1v3c-1.7,0.4-3.4,0.8-5.1,1.1c-2.6-2.3-5.3-4.7-7.9-7l0,0c-0.2-0.2-0.4-0.4-0.6-0.6l0,0
	c-5-4.4-10-8.8-15-13.3c-6.4-5.6-12.9-11.4-19.3-17c-2.9-2.5-5.7-5-8.6-7.5c-5.7-5-11.5-10.1-17.2-15.2l0,0
	c-7.4-6.5-15-12.6-29.4-11.3c-8,0.8-16.7-1.1-25-1.7c-33-2.3-66-4.7-99.1-7c-20.7-1.4-42.7-0.4-54-17c-1.4-2-5-3.1-7.6-4.6l0,0
	c-1.3-0.9-2.5-2-3.8-2.9c0-0.1-0.1-0.1-0.2-0.1c-0.2-0.2-0.5-0.3-0.7-0.5c-1.2-0.9-2.3-1.8-3.4-2.6c-1.4-1-2.9-2.2-4.3-3.2
	c-1-0.7-2-1.6-3-2.3c-4.4-3.4-8.8-6.8-13.2-10.2c-3.4-2.6-6.9-5.3-10.3-7.9c-13-10-26-20.2-38.9-30.3c-8.9-6.9-17.7-13.8-26.6-20.8
	c-12.2-9.5-24.3-19.1-36.5-28.7c-7-5.4-14-11-20.9-16.5c-4.6-3.7-9.2-7.3-13.8-11c-0.4-0.3-0.8-0.7-1.3-1
	c-7.2-5.7-14.3-11.5-21.5-17.2c1.4-0.5,2.7-0.9,4.1-1.4c2.9,1.8,5.8,3.7,8.9,5.6l6.6,3.7c-0.3,0.5-0.6,1.1-1,1.8
	c2.7,0.8,5.6,1.7,8.6,2.5l17.3,9.6c13,7.3,26.3,14.2,39.4,21.2c5.1,2.6,10.2,5.1,15.3,7.5c2.4,1.9,4.8,3.7,7.2,5.4
	c11.9,6.1,23.7,12.1,35.5,18.1c8.6,4.6,17.1,9.2,25.6,13.8c14.5,7.9,29,16,43.5,24c11.2,11.8,19.7,14.2,38,10.5
	c67.9-13.8,200.7-40.8,203.3-41.7C1166.9,359.1,1187.9,351.2,1196.3,351.4z"/>
<path class="st8" d="M12,222c37.5-25,77.2-48.6,116.1-72.7c-3.9,9.4-7.7,18.8-11.6,28.1c-0.5,1.3-1.2,2.7-1.8,4
	c-1.3,2.9-2.5,5.8-3.9,8.7c-2,4.3-4.1,8.6-6.1,12.8c-1.4,2.9-2.7,5.7-4.2,8.6c-1.4,2.8-2.7,5.7-4.2,8.5c-0.7,1.4-1.4,2.8-2.1,4.3
	c-2.8,5.7-5.7,11.4-8.5,17l0,0c-2.8,5.7-5.7,11.4-8.5,17l0,0c-3.9,7.9-8.4,15.6-12.5,23.4c-0.4,0.9-0.9,1.8-1.4,2.7
	c-1.2,2.3-2.2,4.7-3.3,7c-1.1,2.5-2.2,5-3.5,7.5c-0.3,0.7-0.7,1.5-1.1,2.2c-0.8,1.7-1.7,3.5-2.4,5.2c-0.5,1.1-1.1,2.2-1.5,3.4
	c-0.6,1.4-1.3,2.8-1.8,4.3c-0.3,0.7-0.5,1.4-0.8,2.2c-0.8,2.5-1.6,5-2.1,7.4c-0.1,0.4-0.2,0.8-0.2,1.2l0,0c-0.4,2.4-0.6,4.9-0.5,7.3
	c0,0.7,0.1,1.3,0.1,2l0,0c0.1,2,0.3,4,0.5,6c0.3,2.7,0.6,5.4,1.1,8.1c0.2,1.3,0.4,2.7,0.7,4l0,0c1.3,6.7,2.8,13.4,4.5,20.1
	c0.2,0.7,0.3,1.3,0.5,2c0.5,2,1.1,4,1.6,6c0.8,3.4,1.7,6.7,2.5,10.1c0.1,0.7,0.3,1.3,0.4,2c0.3,1.3,0.6,2.7,0.9,4
	c3.3,15.1,6.8,30.1,10.1,45.2c0.9,4.4,2,8.8,3,13.1l0,0c-8.7,1.4-19.4-2.9-32.1-13c-3.9,1.7-8,3.3-11.8,5.1
	c-7.3,3.4-13.5,4.8-20.5-1c-1.2-1-4.2-1.2-7.5-1.2V228.4C4,226.9,7.9,224.7,12,222z"/>
<path class="st8" d="M121.4,149.3L121.4,149.3L121.4,149.3L121.4,149.3z"/>
<path class="st6" d="M890.2,554.3c-7.7-1.9-15.3-3.8-24.8-6.2c0.4-0.2-1.8,0.3-2.9,1.4c-8.4,8.2-18,8.3-30.1,3.6
	c-3.6-1.4-10.7-0.5-14.9,1c-9.2,3.4-16.9,4.2-25.4-0.9c-2.7-1.6-8.9-3-11.4-2c-12.2,4.7-19.8,0.5-26.6-5.4
	c-6.5-5.7-13.1-6.4-21.2-1.7c-7.6,4.4-15,4.2-22.7-0.5c-2.8-1.7-8.1-3.4-11-2.7c-16.6,3.9-30.3,0.2-43.8-5.9
	c-3.5-1.6-8.3-1.8-12.6-2.7c-6.5-5.5-13-11-19.5-16.5c-2.5,0.1-6.2-0.6-7.2,0.3c-5.8,5-10.9,10.3-16.3,15.6
	c-5.1-5.9-11.5-8.4-22.1-5.7c-3.7,0.9-11.5-0.4-13.7-2.6c-14.6-13.9-32-15.8-53.1-7.6c-7.7,3-14.7,1.6-20.8-2.3
	c-9.8-6.4-20.9-7.5-33.9-4.9c-4.3,0.8-11.4-0.4-14.6-2.5c-6.4-4.3-12.1-5.9-21.3-4.3c-10.2,1.8-21.1,2.2-27.6-6
	c-3.2-4-8.2-4.5-13.8-1.7c-8.9,4.5-17.6,4.5-26.1-0.6c-9.1-5.5-19.4-5.8-30.9-3.9c-9,1.5-18.8,1.7-25.3-4.6c2.4-0.8,4.7-1.9,7.1-2.2
	c7-0.7,14.1-1.1,22.2-1.7c-13-16.8-12-33.1-13.4-48.8c-0.7-8-3.3-11.8-15.7-11.5c-8.1,0.2-14.8-1.4-15.4-8.6
	c-1.2-13.4-2.9-26.8-5.3-40.1c-0.4-2.4-4-5.5-7.3-6.6c-12.5-4.2-17-22.1-4.7-26.4c16.3-5.7,14.5-15.2,11.4-23
	c-5.6-13.7-3.6-26.4,0.4-39.8c4.8-16.1,1.9-18.7-21.3-22c-10.9-1.6-14.2-5.3-14.1-12.5c0.1-5.8-2.4-11.7-4-18.3
	c9.3-1.3,10.6-7.1,9.4-13.9c19.8,0.4,30.6,9.4,40,19.6c1,1,1.9,2.1,2.9,3.1c1,1.1,2.1,2.2,3.1,3.3c0.4,1.1,0.3,2.4,1.2,3.2
	c32.5,33.3,65,66.6,97.8,99.7c6.9,7,15.3,13.3,22.9,19.9c4.4,5.5,9.9,10.7,13.1,16.5c8.1,14.5,24.8,18,45.2,18.3
	c5.2,0.1,11.9,0.7,15.2,3c7.7,5.1,13.9,11.2,20.3,17.2c19.9,18.4,39.3,37.1,59.7,55.3c2.3,2.1,9.6,3.4,13.4,2.5
	c35.3-7.8,70.3-16.2,105.5-24.4c1.7-0.1,3.5,0.1,5-0.3c25.1-6,50.1-12.1,75.1-18.2c8.2-2,15.3-4,21.5,3.2c5.4,6.2,13.7,11.3,20.7,17
	c26,21,52.2,42,77.7,63.3c3.8,3.2,5.7,8.3,5.8,12.6c0.3,9.4-1.1,18.9-1.8,28.3v-0.1C890.4,553.2,890.3,553.8,890.2,554.3
	L890.2,554.3z"/>
<path class="st9" d="M250.8,209.7c1.3,6.8-0.1,12.6-9.6,13.9c1.5,6.6,4.1,12.5,4.1,18.3c-0.1,7.2,3.3,11,14.4,12.5
	c23.7,3.3,26.7,5.9,21.8,22c-4.1,13.4-6.1,26.1-0.4,39.8c3.3,7.8,5.1,17.3-11.7,23c-12.6,4.3-8.1,22.2,4.8,26.4
	c3.4,1.1,7.1,4.2,7.5,6.6c2.4,13.3,4.2,26.7,5.4,40.1c0.6,7.1,7.5,8.7,15.8,8.6c12.7-0.3,15.3,3.5,16.1,11.5
	c1.4,15.8,0.4,32,13.7,48.8c-8.3,0.6-15.5,1-22.7,1.7c-2.6,0.3-4.9,1.4-7.3,2.2c-8.8-5.9-19.8-5.4-30-3.2c-11.2,2.5-17.8-0.6-22.8-6
	c-5.3-5.7-11.2-7.2-20.5-4.4c-9.8,2.9-19.8,5.9-29-2c-1.7-1.5-9.4,0.1-14.2,0c-5.9-0.2-13.7,0.5-17.5-1.6
	c-11.7-6.7-23.6-8.1-38.4-5.8c-6.6,1.1-16.3,0.6-21.5-2c-12.7-6.4-25.7-7.4-40.2-4.9c-4.2-19.4-8.5-38.9-12.7-58.3
	c-4.6-21.5-11.7-42.9-12.5-64.5c-0.5-13.5,8-27.3,13.6-40.8c4.7-11.2,11.3-22,16.6-33.1c11-22.7,22.2-45.4,32.6-68.3
	c6.2-13.5,11.3-27.2,16.9-40.8c10.8,5.3,22.2,10.3,32.5,16c18.2,10.2,34.8,21.6,53.9,31C221.7,202.2,236.9,205.3,250.8,209.7
	L250.8,209.7z"/>
<path class="st1" d="M414,358.6c6.9-3.9,13.8-7.9,20.7-11.8c4.3-2.3,8.6-4.7,12.9-7.1c0.7-0.4,1.4-0.8,2.1-1.2
	c8.6-4,17.8-7.4,25.5-12c9.4-5.5,18.2-7.4,28.9-2c1.9,1,4.6,1.2,7,1.8c8.3,2.8,16.5,5.7,24.7,8.5c6.4,4.2,13,7.8,20.9,1.3
	c1.6-0.2,3.1-0.4,4.7-0.6c-4.7,7.7-0.3,14.6,5.3,21c1.6,1.8,6.1,3.9,8.7,3.6c3.3-0.4,6.5-2.8,9-4.8c1.4-1.1,1.3-3.1,1.6-4.1
	c5-1.1,8.8-2.6,12.8-2.8c3.9-0.2,9.3,0,11.6,1.6c10,6.9,9.2,9.3-2.2,15.5c-2.2,1.2-4.9,3.9-4.2,5.1c1.1,2.1,4.3,4.4,7.3,5.1
	c3.8,0.9,8.8,1,12.5,0.1c12.3-3.1,19.2,1,22.1,8.1c2.8,6.8,8.7,7.9,17.8,8c5.6,0.1,14.9,1.9,16.2,4.5c5.6,10.9,15.4,12,29.9,9.5
	c12.2-2.1,18.5,3.2,15.9,12c-0.6,1.8-0.4,3.8-0.5,5.1c6.5,1.7,12,3.2,17.4,4.6c-0.1,1.1-0.2,2.3-0.3,3.4c-6.5,0.7-13,1.6-19.6,2.1
	c-14.9,1.3-28.8,3.8-36.5,13.8c-35.1,8.2-70.2,16.6-105.5,24.4c-3.8,0.8-11.1-0.5-13.4-2.5c-20.3-18.2-39.8-36.9-59.7-55.3
	c-6.4-5.9-12.7-12.1-20.3-17.2c-3.3-2.2-10-2.9-15.2-3c-20.3-0.3-37.1-3.8-45.2-18.3C423.9,369.3,418.5,364.1,414,358.6L414,358.6z"
	/>
<path class="st1" d="M905.8,434.2c-3,1.6-6.2,3.3-9.2,4.9c3.5,2.7,7,5.3,10.6,8.1c1.8-0.8,3.6-1.6,5.4-2.5
	C910.3,441.2,908,437.7,905.8,434.2z M840.8,429.8c-3.8,3.8-7.5,5.9-7.4,8c0.1,2.1,4,4.2,6.2,6.2c2.7-2.3,6.4-4.3,7.7-6.9
	C847.8,435.9,844,433.4,840.8,429.8z M860,430.9c-2.5,0-7.1,3.9-6.6,5.4c0.9,2.8,4.9,5,7.6,7.6c2.9-2.1,5.6-4.3,10.5-8
	C866.3,433.5,863.1,430.8,860,430.9z M1184.7,518.4L1184.7,518.4c-0.2-0.2-0.4-0.4-0.6-0.6l0,0c-5-4.3-10-8.6-15-13
	c-6.4-5.5-12.9-11.2-19.3-16.7c-2.9-2.5-5.7-4.9-8.6-7.4c-5.7-4.9-11.5-9.9-17.2-14.8l0,0c-7.4-6.3-15-12.4-29.4-11.1
	c-8,0.8-16.7-1.1-25-1.6c-33-2.3-66-4.6-99.1-6.9c-20.7-1.3-42.7-0.4-54-16.7c-1.4-1.9-5-3.1-7.6-4.5c-0.2,5.1-2.1,5.6-4.5,4.8
	c-0.2-0.1-0.4-0.1-0.6-0.2c-0.2-0.1-0.4-0.1-0.6-0.2c-0.4-0.2-0.8-0.3-1.2-0.5c0,0-0.1,0-0.2-0.1l0,0l0,0l0,0
	c-0.1,0-0.2-0.1-0.3-0.1s-0.2-0.1-0.3-0.1s-0.2-0.1-0.3-0.1c-0.3-0.1-0.6-0.3-0.9-0.4h-0.1c-0.2-0.1-0.3-0.1-0.5-0.2h-0.1h-0.1
	c-0.1,0-0.2-0.1-0.3-0.1s-0.1-0.1-0.2-0.1c-0.1,0-0.1,0-0.2-0.1l0,0c0,0,0,0-0.1,0c0,0,0,0-0.1,0s-0.3-0.1-0.4-0.1
	c-0.1,0-0.1,0-0.2,0c-0.1,0-0.2,0-0.2-0.1c-0.1,0-0.2,0-0.3,0l0,0c-0.1,0-0.2,0-0.2,0c-0.1,0-0.2,0-0.2,0c-0.1,0-0.2,0-0.3,0l0,0
	c0,0-0.1,0-0.2,0c-2,1.8-4.1,3.8-7.5,7c-0.3,0.3-0.6,0.6-0.9,0.9l-0.1,0.1c-0.2,0.1-0.3,0.3-0.5,0.4c-0.2-0.3-0.5-0.7-0.7-1
	c-3.3-4.8-5.7-8.4-7.4-10.9l0,0c-27.3-1.4-54-2.9-82-4.4c0.4,1.6,0.2,4.3,1.2,5.4l0.1,0.1c0,0,0.1,0,0.1,0.1l0,0l0,0
	c0.1,0.1,0.2,0.1,0.3,0.2c2.7,1,4.9,2.4,6.7,3.8c0.3,0.2,0.5,0.4,0.8,0.6c0.3,0.3,0.6,0.5,0.9,0.8c0.1,0.1,0.3,0.3,0.4,0.4
	c0.1,0.1,0.2,0.2,0.3,0.3c0.2,0.2,0.3,0.4,0.5,0.5c0,0,0,0,0.1,0.1c0.2,0.2,0.4,0.4,0.6,0.6l0.1,0.1c0.2,0.3,0.5,0.6,0.7,0.8
	c0.1,0.1,0.2,0.2,0.3,0.3c0.1,0.1,0.2,0.2,0.3,0.4c0.1,0.1,0.2,0.2,0.2,0.3c0.3,0.4,0.7,0.9,1,1.4c0.2,0.2,0.3,0.4,0.5,0.7
	c0.3,0.4,0.5,0.7,0.8,1.1c1.9,2.7,3.8,5.2,6.5,7.3c6.1,4.8,12.3,9.6,18.5,14.3c0.1,0.1,0.2,0.1,0.2,0.2c0.6,0.5,1.2,0.9,1.8,1.3
	c0.1,0.1,0.2,0.1,0.3,0.2c0.3,0.2,0.5,0.4,0.8,0.6c0.2,0.1,0.4,0.3,0.6,0.4c0.7,0.5,1.5,1.1,2.2,1.6c1.2,0.9,2.4,1.7,3.6,2.7
	c0.9,0.7,1.9,1.4,2.8,2c0.2,0.1,0.3,0.2,0.5,0.4c2.1,1.5,4.2,3.1,6.3,4.6c3.2,2.4,6.4,4.7,9.5,7c1.6,1.2,3.2,2.4,4.8,3.6
	c4,3,8,5.8,11.9,8.8c4,3,7.9,5.9,11.8,8.9c0.5,0.4,1.1,0.8,1.6,1.2c0.5,0.4,1,0.8,1.5,1.2l0,0c0.3,0.3,0.7,0.6,1,0.8
	c0.3,0.3,0.7,0.6,1,0.9c0.3,0.3,0.7,0.6,1,0.9l0,0c0.3,0.3,0.6,0.6,0.9,0.9c0.3,0.3,0.6,0.6,0.9,0.9c0.3,0.3,0.6,0.6,0.9,0.9
	c0.3,0.3,0.6,0.6,0.9,0.9c0.2,0.2,0.4,0.5,0.6,0.7c0.1,0.1,0.2,0.2,0.2,0.3c0,0,0,0.1,0.1,0.1c0.2,0.3,0.5,0.6,0.7,0.9
	c0.1,0.1,0.1,0.2,0.2,0.2c0,0,0,0,0,0.1c0.1,0.2,0.3,0.3,0.4,0.5c0.1,0.1,0.1,0.2,0.2,0.3c0.2,0.3,0.5,0.6,0.7,0.9
	c0.5,0.7,0.9,1.3,1.3,2c1,1.7,2,3.4,3,5.1c0.3,0.6,0.6,1.1,1,1.7c0.4,0.8,0.9,1.5,1.3,2.3c0,0,0,0.1,0.1,0.1s0,0.1,0.1,0.1
	c0,0.1,0.1,0.1,0.1,0.2s0.1,0.1,0.1,0.1c0.5,0.8,0.9,1.6,1.3,2.6c0.6,1.2,1.3,2.5,1.9,3.7c0,0.1,0.1,0.1,0.1,0.2
	c0,0.1,0.1,0.1,0.1,0.2c0.3,0.7,0.7,1.4,1,2c0.3,0.7,0.7,1.4,1,2c0.2,0.3,0.4,0.7,0.5,1c0.2,0.3,0.3,0.7,0.5,1c0.4,0.7,0.7,1.4,1,2
	c0.2,0.5,0.5,0.9,0.7,1.4c0.1,0.2,0.2,0.3,0.2,0.5c0.5,0.9,0.9,1.8,1.4,2.8c0.6,1.2,1.2,2.5,1.9,3.6c8.6-8,18.8-8.5,30.4-3.4
	c8.2,3.7,15.4,1.6,23.7-0.7c6.3-1.7,14.1-0.6,21.3-1.1c6.7-0.4,14.6,0.1,19.9-2.3c10.1-4.4,19.3-6.7,30.3-2.4
	c7.7,3,14.2,1.8,20.2-2.7c7.2-5.3,15.6-7.4,26.2-4.4c11.4,3.2,23,3,34.1-1.6c2.6-1,6.9-1.5,9.5-0.8c10.1,2.7,17,0.2,23.2-5.1
	c2.8-2.4,6.4-4.3,9.4-6.1h0.1h0.1c5.9,2.8,10.7,4.9,15.6,7.3c0.5-0.4,1.1-0.7,1.7-1.1C1190,522.9,1187.3,520.6,1184.7,518.4z"/>
<path class="st10" d="M1920,480.9V700H0V432.8c21.7,3.2,43.5,6.3,65.3,9.2l0,0l0,0c76.9,10.2,154.1,18.7,231.3,27.1
	c7.8,0.9,15.7,1.7,23.5,2.6c70.4,7.7,140.8,15.4,211.1,23c4.6,0.5,9.3,1,13.9,1.5c12.8,1.4,25.7,2.8,38.5,4.2l25.8,2.8
	c5,0.5,9.9,1.1,14.9,1.6c21.1,2.3,42.1,4.6,63.2,6.9c13.1,1.4,26.1,2.9,39.2,4.3c55,6,110.1,12,165.4,15.4l0,0
	c9.2,0.6,18.4,1.1,27.6,1.5l0,0c45.9,2.1,91.9,2.2,137.7-1.3c39.6-3,79.4-8.6,119.1-11.9c0.1,0,0.1,0,0.1,0c3.1-0.3,6.3-0.5,9.4-0.7
	l0,0c4.4-0.3,8.7-0.6,13.1-0.9c3.1-0.2,7-0.3,11.2-0.5l0,0c3.3-0.1,6.8-0.2,10.3-0.4c0.5,0,1,0,1.6-0.1c1.6-0.1,3.2-0.1,4.8-0.2
	c8.5-0.4,17.1-0.9,23.9-1.7c2.1-0.2,4-0.5,5.8-0.8c9.6-1.6,22.6-3.4,38.5-5.2c7.9-0.9,16.5-1.8,25.7-2.8c8.6-0.9,17.7-1.8,27.2-2.7
	c22.7-2.1,47.9-4.3,74.6-6.4c28.9-2.3,59.6-4.5,90.8-6.6l0,0c7.3-0.5,14.6-1,21.9-1.4l0,0c110.2-7.1,223.9-12.2,288-11.7
	C1901.5,478.4,1920,480.9,1920,480.9z"/>
<polygon class="st11" points="1920,646.3 1920,700 0,700 0,622.1 1227.5,637.6 1243.9,637.8 1279.1,638.2 1320.2,638.7 
	1333.3,638.9 1387.6,639.6 1387.6,639.6 "/>
</svg>
