<?xml version="1.0" encoding="UTF-8"?>
<svg id="nevada" xmlns="http://www.w3.org/2000/svg" viewBox="0 0 1920 700">
  <defs>
    <style>
      .cls-1 {
        fill: #f3942c;
      }

      .cls-1, .cls-2, .cls-3, .cls-4, .cls-5 {
        stroke-width: 0px;
      }

      .cls-2 {
        fill: #f1b50e;
      }

      .cls-3 {
        fill: #1cabb5;
      }

      .cls-4 {
        fill: #ffd800;
      }

      .cls-5 {
        fill: #ec6527;
      }
    </style>
  </defs>
  <rect class="cls-3" y="0" width="1922.72" height="742.72"/>
  <rect class="cls-4" y="431.62" width="1922.72" height="382.18"/>
  <path class="cls-2" d="M129.14,558.64s85.86,4.42,160.39,20.35c-51.83-49.56-112.79-59.62-160.39-54.59v34.23h0Z"/>
  <path class="cls-2" d="M0,652.22s136.78.57,186.66,16.71C236.54,685.07,0,726.57,0,726.57v-74.35h0Z"/>
  <path class="cls-2" d="M1062.64,627.36s-75.82,5.77-157.46,2.47c-42.54-1.72-159.53-13.22-246.17-15.33-79.63-1.94-366.34.86-366.34.86l514.16,105.09,255.82-37.35v-55.75h0Z"/>
  <g id="canyon_1" data-name="canyon 1">
    <g id="canyon_1-2" data-name="canyon 1-2">
      <path class="cls-1" d="M1920,175.26v370.25l-273.66,22.83-66.7-36.89v-17.05l64.54-60.64s.02-.05.05-.16c.67-2.12,8.38-24.74,29.01-25.61,2-3.46,4.69-8.13,7.69-14.09,10.97-21.66,26.23-60.31,28.16-119.28,2.47-75.17,0-84.87,0-84.87,0,0,8.16.78,17.66-1.64.13-.04.27-.07.41-.11,0,0,.01,0,.02,0,.66-.18,1.33-.36,1.99-.57.14-.04.28-.09.42-.13,1.71-.54,3.44-1.2,5.16-1.99,6.81-3.13,13.36-8.37,17.31-17.08h0c.09-.04.2-.09.35-.14,4.05-1.56,9.2-2.88,15.04-3.98,32.74-6.21,86.92-5.88,86.92-5.88,0,0,18.48-2.74,36.32-3.49,1.4-.06,2.79-.11,4.17-.14,10.63-.26,19.44.2,25.13.66Z"/>
      <path class="cls-5" d="M1673.24,427.99l208.18,7.04-237.24,18.72s7.96-24.47,29.05-25.76h0Z"/>
      <polygon class="cls-5" points="1920 514.48 1920 545.36 1707.09 558.78 1579.64 531.43 1579.64 514.4 1920 514.48"/>
      <path class="cls-5" d="M1726.75,208.11l8,166.54v-169.34s-4.59,2.05-8,2.8h0Z"/>
      <path class="cls-5" d="M1752.06,188.24l4.02,137.31,11.37-141.43s-13.69,3.36-15.39,4.12h0Z"/>
    </g>
    <path class="cls-5" d="M1920,175.12v99.06c-2.55-.22-5.62-.57-8.91-1.17-8.36-1.51-20.39-1.57-20.39-1.57v-96.81c13.24-.57,23.19-.06,29.3.49Z"/>
  </g>
  <g id="canyon_2" data-name="canyon 2">
    <path class="cls-1" d="M472.38,453.03s-57.6-30.48-75.99-49.8c-18.38-19.32-35.83-52.25-35.83-52.25,0,0-50.09.18-68.67-12.51l.56-26.49s-23.08-13-51.59-16.93l-25.52-9.81s10.01-148.65,0-158.95c-20.01-.98-33.52,10.79-33.52,10.79v83.4l-26.62-7.85s5.61-77.02-14.4-101.06c-15.51-8.34-32.02,0-32.02,0,0,0-12.2-2.51-15.38-13.37-20.64.37-45.03.55-65.67,5.52C15.52,120.47,0,201.41,0,221.46v231.56s112.06-14.72,155.19-9.81c43.13,4.91,154.2,15.7,184.72,17.66,30.52,1.96,106.39-2.19,132.46-7.85h0Z"/>
    <path class="cls-5" d="M390.51,396.56h-181.17l194.44,13.41s-10.68-10.22-13.27-13.41Z"/>
    <path class="cls-5" d="M360.55,350.98l-101.93,1.75,107.3,7.79s-4.35-8.05-5.37-9.53Z"/>
    <path class="cls-5" d="M199.54,128.12s-14.1,4.05-17.72,8.96v83.4l-1.75,52.25s12.95-65.43,14.64-86.22,4.84-58.39,4.84-58.39h0Z"/>
    <path class="cls-5" d="M108.77,111.57l1.88,88.86,9.97-92.23s-5,0-11.85,3.38h0Z"/>
    <path class="cls-5" d="M44.16,100.78v113.33s-16.44.12-25.2,2.45c-10,1.34-18.96,0-18.96,0,0,0,12.21-92.6,27.72-112.83,10.88-3.31,16.44-2.94,16.44-2.94Z"/>
  </g>
  <path class="cls-2" d="M1318.56,653.07s12.26,101.2,49.02,93.44,335.2-18.59,351.43-29.51,97.98-51.99,4-43.71-404.45-20.21-404.45-20.21Z"/>
  <path class="cls-2" d="M1355.09,546.71c21.93-6.75-8.48-50.6-33.91-46.72-25.43,3.88-231.85,9.3-243.08,14.76-11.22,5.46-67.77,26-2.77,21.86s257.83,16.86,279.75,10.11Z"/>
</svg>