<?xml version="1.0" encoding="utf-8"?>
<!-- Generator: Adobe Illustrator 28.2.0, SVG Export Plug-In . SVG Version: 6.00 Build 0)  -->
<svg version="1.1" id="montagnes_pampa" xmlns="http://www.w3.org/2000/svg" xmlns:xlink="http://www.w3.org/1999/xlink" x="0px"
	 y="0px" viewBox="0 0 1920 700" style="enable-background:new 0 0 1920 700;" xml:space="preserve">
<style type="text/css">
	.st0{fill:#C7DDC3;}
	.st1{fill:#C1BE77;}
	.st2{fill:#F4E7AE;}
	.st3{fill:#959164;}
	.st4{fill:#CDC297;}
	.st5{fill:#AEAB70;}
	.st6{fill:#E2D6A2;}
	.st7{fill:#F2DF8D;}
	.st8{fill:#E4C25B;}
	.st9{fill:#ABB44C;}
</style>
<g id="Montagnes">
	<path class="st0" d="M-0.3,0v476.9l44.5,0.2l29.9,0.1c1.1,0.1,2.2,0.2,3.3,0.2c4.1,0.3,8.3,0.6,12.4,1l0,0
		c22.8,1.9,45.3,3.9,67.2,6.3c23.1,2.5,45.4,5.4,66.5,8.9c14.3,2.3,28,4.9,41.1,7.8c30.7,6.7,57.5,15,91.1,20.4
		c-0.4,0.5-0.9,1-1.5,1.5c-0.3,0.3-1.3,0.6-0.9,0.8c0.2,0.1,0.4,0.1,0.8,0.1l0.8,0.1l36.9,1.8c27.8,2.2,57.6,2.5,86.6,2.2
		c94.8-0.9,188.2-7.3,283.1-7.5c80.6-0.2,160.2,4,239.8,7.4c111.8,4.8,224.4,8.2,337.3,10.2c0,0.2,0,0.3-0.1,0.5
		c-0.1,0.3-0.8,0.7-0.1,0.8c0.2,0,0.4,0,0.8,0h0.9l42.3-0.7h0.5c16.4,0.2,32.6,0.4,49,0.6c29.2,0.3,59.3,0.4,86.3-2.5
		c32.1-3.5,55.6-11,83.2-16.6c25.5-5.2,53.5-8.9,83.2-11.5c1.4,1,2.3,2,2.9,3c0.2,0.3-0.1,0.8,0.8,0.9c0.3,0,0.5,0,1,0l1-0.1
		l61.3-5.3l1.1-0.1c0.7-0.2,0.7-0.4,0.1-0.6c-1.3-0.3-2.2-0.7-2.9-1.1c-0.9-0.4-1.4-0.8-1.9-1.3c56.4-3.1,115.6-4.8,171.3-8.9
		c0.3,0,0.6,0,0.9-0.1V0H-0.3z M929,425.7l-55.5-6.3v77.4H574.3l7.2-86.6l0,0l1.7-20.8l0.1-0.8c0.7-5.9,3.6-11.4,7.8-15.6
		c0.6-0.6,1.2-1.2,1.9-1.7c0.4-0.4,0.9-0.7,1.3-1c1.4-1,2.8-1.8,4.4-2.5c0.2-0.1,0.5-0.2,0.8-0.3c1-0.4,2-0.8,3.1-1.1
		c2.3-0.8,4.7-1.5,6.9-2.6c0.5-0.2,1-0.5,1.4-0.8c3.5-2.1,6.2-5.2,8.8-8.3c2-2.4,4.1-4.9,6.1-7.3c3.4-4.1,6.7-8.1,9.9-12.3
		c2.6-3.3,5-6.7,7.4-10.2s4.6-7,6.7-10.7c1.4-2.4,2.8-4.9,4.1-7.4c0.3-0.6,0.7-1.3,1-1.9c0.6-1,1.2-2.1,1.8-3.1
		c2.4-4.1,5-8,8.2-11.4c0.3-0.3,0.6-0.7,1-1c2-2,4.1-3.8,6.3-5.5c3.3-2.6,6.6-5.2,9.7-7.9c4.8-4.4,9-9.5,12.3-15.1
		c0.8-1.2,1.5-2.5,2.1-3.8c1.7-3.2,3-6.6,4.1-10c0.7-2.1,1.3-4.3,1.9-6.4c0.4-1.3,0.7-2.6,1.1-3.8c1.1-3.4,2.4-6.6,4.5-9.5
		c0.8-1.1,1.7-2.1,2.6-3c0.3-0.3,0.6-0.6,1-0.9c3.9-3.6,8.7-6.5,12.2-10.5c3.5-3.9,5.7-8.7,7.6-13.7c0.5-1.4,1-2.7,1.5-4.1
		c0.7-1.8,1.3-3.7,2-5.5c0.5-1.4,1.1-2.7,1.6-4c1-2.2,2-4.3,3.3-6.2c0.3-0.4,0.5-0.8,0.8-1.1c0.5-0.8,1.1-1.5,1.7-2.2
		c0.9-1,1.9-2,3-2.9l-0.4-4.4l0,0l0,0c2.5-0.3,4.1-0.5,4.1-0.5s31.5,27.1,48.9,39.6c21.1,15.1,51.2,10.3,73.4,23.6l2.2,5.9l0,0
		c0,0,40.6,21.4,55.9,19.7c15.3-1.7,47.3,7.6,54.1,12.8c6.8,5.2,50.7,33.8,62,35.5c11.2,1.7,37.1,23.2,40.2,25.2
		c3.1,2,26.9,34.7,27.6,37.1s18,23.4,24.8,23.4C1145.1,391,929,425.7,929,425.7z"/>
	<g>
		<polygon class="st1" points="581.8,410.2 581.8,410.2 574.6,496.8 		"/>
		<path class="st1" d="M602.8,366.3c2.3-0.8,4.7-1.5,6.9-2.6C607.5,364.8,605.2,365.5,602.8,366.3z"/>
		<path class="st1" d="M626,347.3c3.4-4.1,6.7-8.1,9.9-12.3C632.7,339.2,629.4,343.3,626,347.3z"/>
		<path class="st1" d="M650,314.2c1.4-2.4,2.8-4.9,4.1-7.4C652.8,309.2,651.5,311.7,650,314.2c-2.1,3.6-4.4,7.2-6.7,10.7
			C645.7,321.4,647.9,317.8,650,314.2z"/>
		<path class="st1" d="M666.1,289.3c2-2,4.1-3.8,6.3-5.5C670.2,285.6,668.1,287.4,666.1,289.3z"/>
		<path class="st1" d="M694.4,260.8c-3.3,5.6-7.5,10.7-12.3,15.1c-3.1,2.8-6.5,5.3-9.7,7.9c3.3-2.6,6.6-5.2,9.7-8
			C686.9,271.5,691.1,266.4,694.4,260.8z"/>
		<path class="st1" d="M694.4,260.8c0.7-1.2,1.5-2.5,2.1-3.8C695.9,258.2,695.2,259.5,694.4,260.8z"/>
		<path class="st1" d="M702.5,240.5c0.4-1.3,0.7-2.6,1.1-3.8C703.3,237.9,702.9,239.2,702.5,240.5z"/>
		<path class="st1" d="M733.2,195c0.7-1.8,1.3-3.7,2-5.5C734.5,191.3,733.8,193.1,733.2,195z"/>
		<path class="st1" d="M736.8,185.5c0.9-2.2,2-4.3,3.3-6.2C738.8,181.3,737.7,183.3,736.8,185.5z"/>
		<polygon class="st1" points="745.6,173.1 745.2,168.7 745.2,168.7 		"/>
		<path class="st2" d="M745.6,173.1c-1.1,0.9-2.1,1.9-3,2.9c-0.6,0.7-1.2,1.4-1.7,2.2c-0.3,0.4-0.5,0.8-0.8,1.1
			c-1.3,1.9-2.3,4-3.3,6.2c-0.6,1.3-1.1,2.6-1.6,4c-0.7,1.8-1.3,3.6-2,5.5c-0.5,1.4-1,2.8-1.5,4.1c-1.9,5-4.1,9.8-7.6,13.7
			c-3.6,4-8.3,6.9-12.2,10.5c-0.3,0.3-0.7,0.6-1,0.9c-0.9,0.9-1.8,1.9-2.6,3c-2.1,2.8-3.4,6.1-4.5,9.5c-0.4,1.3-0.8,2.6-1.1,3.8
			c-0.6,2.2-1.2,4.3-1.9,6.4c-1.1,3.5-2.5,6.8-4.1,10c-0.7,1.3-1.4,2.6-2.1,3.8c-3.3,5.6-7.5,10.7-12.3,15.1
			c-3.1,2.8-6.5,5.3-9.7,7.9c-2.2,1.8-4.3,3.6-6.3,5.5c-0.3,0.3-0.6,0.7-1,1c-3.2,3.5-5.8,7.4-8.2,11.4c-0.6,1-1.2,2.1-1.8,3.1
			c-0.4,0.6-0.7,1.3-1,1.9c-1.4,2.5-2.7,5-4.1,7.4c-2.1,3.6-4.4,7.2-6.7,10.7c-2.4,3.5-4.9,6.8-7.4,10.2c-3.2,4.2-6.5,8.3-9.9,12.3
			c-2,2.4-4,4.9-6.1,7.3c-2.6,3.1-5.3,6.2-8.8,8.3c-0.5,0.3-1,0.5-1.4,0.8c-2.2,1.1-4.5,1.8-6.9,2.6c-1,0.3-2.1,0.7-3.1,1.1
			c-0.3,0.1-0.5,0.2-0.8,0.3c-1.5,0.7-3,1.6-4.4,2.5c-0.5,0.3-0.9,0.7-1.3,1c-0.7,0.5-1.3,1.1-1.9,1.7c-4.2,4.2-7.1,9.7-7.8,15.6
			l-0.1,0.8l-1.7,20.8l-7.2,86.6H390.8l-3.4-62.4c4-6.7,15.9-22.2,26.6-36.4c0.6-0.8,1.1-1.5,1.7-2.3s1.1-1.5,1.7-2.2
			c0.8-1.1,1.7-2.2,2.5-3.3c0.5-0.7,1.1-1.4,1.6-2.1s1-1.4,1.5-2.1s1-1.3,1.5-2c0.2-0.3,0.5-0.6,0.7-1c0.9-1.3,1.8-2.4,2.6-3.6
			c0.6-0.8,1.1-1.6,1.7-2.4c0.3-0.5,0.7-1,1-1.4c0.6-0.9,1.1-1.8,1.6-2.5c4.2-7,8.5-14.1,13.4-20.7c1.1-1.5,2.2-2.9,3.3-4.3l0,0
			c1.7-2.1,3.5-4.1,5.4-6.1c1.3-1.3,2.6-2.5,3.9-3.7c1.4-1.3,2.9-2.5,4.5-3.6c13.7-10.2,31-14.4,45.3-23.9
			c15.2-10.1,25.8-25.4,38.2-38.8c3.3-3.5,6.8-6.9,10.5-10c2.5-2.1,5-4.1,7.7-5.8l0,0c8.6-5.7,18.1-9.6,28.4-9.6
			c7.5,0,15,2.1,22.5,1.1c6.7-0.9,12.8-4.3,18.7-7.5c0.8-0.5,1.7-0.9,2.6-1.4c11.1-6.2,22.2-12.4,33.3-18.5
			c8.7-4.9,17.8-10,23.1-18.4c2.5-4,4.1-8.5,6.7-12.4c6.7-9.8,18.8-14.1,30.1-17.7c4.2-1.3,11.3-2.5,15.8-3.1l0,0L745.6,173.1z"/>
		<path class="st3" d="M636.1,238.9c-0.8,0.5-1.7,0.9-2.6,1.4c-5.9,3.3-12,6.6-18.7,7.5c-7.4,1-14.9-1.1-22.5-1.1
			c-10.2,0-19.8,3.8-28.4,9.6l-3.9-1.7c2.6-6.3,6.5-12,11.4-16.7c1.5-1.4,3-2.7,4-4.5c1.1-2.2,1.2-4.7,1.8-7.1
			c0.7-2.9,2.2-5.5,4.2-7.7c2.4-2.5,12.1-7.6,16.2-6.7c1.6,0.7,3,1.5,4.4,2.6c3.9,3.1,6.3,7.8,9.7,11.3
			C618,232.3,627.3,236.7,636.1,238.9L636.1,238.9z"/>
		<path class="st4" d="M597.6,211.9c-4.1-0.8-13.7,4.3-16.2,6.7c-2,2.1-3.5,4.8-4.2,7.7c-0.6,2.4-0.7,4.9-1.8,7.1
			c-1,1.8-2.5,3.1-4,4.5c-4.8,4.7-8.8,10.4-11.4,16.7l3.9,1.7c-2.6,1.8-5.2,3.7-7.7,5.8l0,0c-7.4-6.4-18-10.9-29.6-15.1
			c5-6.2,15.8-17.1,21.8-19.2c4.9-1.9,10.5-1.4,15.5-3.2c7.8-2.8,13.1-10.5,20.9-13.2C589.1,210,593.6,210.2,597.6,211.9
			L597.6,211.9z"/>
		<path class="st5" d="M526.8,246.9c11.5,4.2,22.2,8.7,29.6,15.1l0,0c-3.7,3.1-7.3,6.5-10.5,10c-12.4,13.3-23.1,28.7-38.2,38.8
			c-14.2,9.5-31.5,13.7-45.3,23.9c-1.5,1.1-3,2.3-4.4,3.6c-16.3-27-44-38-69.1-56.1c1.9-7.4,9.5-24.7,11.4-31.9
			c0.7-2.6,1.4-5.4,3.4-7.2c2.6-2.4,6.6-2.4,10-3.8c4.6-1.9,7.8-6.2,9.3-10.9c1.6-4.7,1.8-9.7,2-14.6c0.2-5.5,0.4-11,0.6-16.4
			l0.3-3.5c11.2,0.9,23.3,2.2,31.7,9.8c4.7,4.3,7.6,10.1,11.6,15.1C480.7,232.9,505.2,239.2,526.8,246.9L526.8,246.9z"/>
		<path class="st1" d="M388.8,282.3c25.1,18.1,52.8,29.1,69.1,56.1c-10.8,9.6-18.5,22.3-26,34.8c-6.9,11.6-37.6,49.7-44.5,61.2
			l3.4,62.4L82.4,491l7.8-12.8c11.5-11.6,14-81,20.3-96.1c3.2-7.6,7.4-14.7,10.7-22.2c3.2-7.4,5.5-15.1,8.4-22.6
			c11.7-29.8,33.5-54.7,45.2-84.5c3.8-9.6,6.5-19.5,10.3-29c7.8-19.4,19.9-36.7,30.5-54.7s19.9-37.6,21-58.4l7.1-4.7
			c11.9,11.7,41.8,44.9,53.8,65.7c9.5,16.6,20.8,32,32.6,47.1c4.4,5.7,8.9,11.3,13.4,17c11.1,13.9,22.3,27.9,36,39.3
			C382.5,277.7,385.7,280,388.8,282.3L388.8,282.3z"/>
		<path class="st6" d="M425.7,194l-0.3,3.5c-0.2,5.5-0.4,11-0.6,16.4c-0.2,4.9-0.4,10-2,14.6c-1.6,4.7-4.8,9.1-9.3,10.9
			c-3.3,1.4-7.3,1.4-10,3.8c-2,1.8-2.7,4.6-3.4,7.2c-1.9,7.3-9.4,24.5-11.4,31.9c-3.1-2.3-6.3-4.7-9.3-7.2
			c-13.7-11.4-24.9-25.4-36-39.3c-4.5-5.6-9-11.3-13.4-17c14.9-1.1,38.4-2.8,51.3-10.4c7.2-4.3,13.4-10.4,21.3-13.2
			c7.2-2.5,15.1-2,22.6-1.4C425.5,193.9,425.6,193.9,425.7,194L425.7,194z"/>
		<path class="st2" d="M243.7,106l-7.1,4.7c-0.2,3.3-0.5,6.5-1.1,9.7l0,0c-0.2,1.3-0.5,2.5-0.7,3.8c-0.1,0.6-0.3,1.3-0.4,1.9
			c-0.4,1.9-1,3.8-1.5,5.6l0,0c-0.4,1.2-0.8,2.5-1.2,3.7c-1,3.1-2.2,6.1-3.5,9.2l0,0c-0.5,1.2-1,2.4-1.6,3.6
			c-0.3,0.6-0.5,1.2-0.8,1.8c-0.6,1.2-1.1,2.4-1.7,3.5c-2.3,4.7-4.9,9.3-7.5,13.9c-0.3,0.6-0.7,1.1-1,1.7c-1.3,2.2-2.7,4.5-4,6.7
			c-0.7,1.1-1.4,2.2-2,3.3c-4.1,6.7-8.3,13.3-12.2,20.1l0,0c-0.7,1.1-1.3,2.3-1.9,3.4l0,0c-0.6,1.1-1.3,2.3-1.9,3.4
			c-3.1,5.7-5.9,11.6-8.4,17.7c-2.4,5.9-4.3,12.1-6.3,18.1c-1,3-2.1,6.1-3.2,9.1l0,0c-0.2,0.6-0.5,1.2-0.7,1.8
			c-0.7,1.9-1.5,3.7-2.3,5.5c-1,2.3-2.1,4.5-3.2,6.8c-0.4,0.9-0.9,1.8-1.3,2.7l0,0c-0.5,0.9-0.9,1.8-1.4,2.6
			c-1.2,2.2-2.4,4.4-3.6,6.6c-0.7,1.3-1.5,2.6-2.2,3.9l0,0c-0.5,0.9-1,1.7-1.5,2.6l0,0c-1.3,2.2-2.6,4.3-3.9,6.4l0,0
			c-2.1,3.4-4.2,6.8-6.3,10.3l0,0c-1.3,2.1-2.6,4.3-3.9,6.4l0,0c-1.8,3-3.5,6-5.2,9.1c-0.5,0.9-1,1.8-1.4,2.6
			c-1.7,3.1-3.3,6.2-4.7,9.3c-1.5,3.2-2.9,6.3-4.2,9.6c-0.6,1.4-1.1,2.8-1.6,4.2c-0.2,0.5-0.3,0.9-0.5,1.4c-0.3,0.9-0.7,1.9-1,2.9
			c-1.2,3.3-2.3,6.7-3.6,9.9c-0.5,1.4-1.1,2.8-1.7,4.2c-0.2,0.5-0.4,1-0.6,1.4c-0.4,0.9-0.9,1.9-1.3,2.8c-0.2,0.5-0.5,0.9-0.7,1.4
			c-0.5,0.9-0.9,1.8-1.4,2.8l0,0c-1.4,2.8-2.8,5.5-4.1,8.3c-0.9,1.8-1.7,3.7-2.5,5.6l0,0c-0.1,0.2-0.2,0.5-0.3,0.7
			c-0.1,0.2-0.1,0.4-0.2,0.6c0,0.1-0.1,0.2-0.1,0.3c-0.1,0.2-0.1,0.4-0.2,0.6c0,0.1-0.1,0.2-0.1,0.3c-0.2,0.5-0.3,1-0.5,1.6
			c-0.2,1-0.5,2-0.7,3.1c0,0.2-0.1,0.4-0.1,0.6c0,0.1,0,0.2,0,0.2c-0.1,0.5-0.2,1-0.3,1.5c-0.1,0.4-0.1,0.7-0.2,1.1
			c0,0.2-0.1,0.5-0.1,0.7c-0.1,0.5-0.2,0.9-0.2,1.4c0,0.2-0.1,0.5-0.1,0.7c-0.1,0.3-0.1,0.6-0.2,0.9c0,0.2-0.1,0.4-0.1,0.6
			c-0.1,0.7-0.2,1.4-0.3,2.1c0,0.3-0.1,0.6-0.2,0.9c-0.6,4.1-1.2,8.6-1.8,13.2c-0.2,1.2-0.3,2.5-0.5,3.7c-0.1,0.5-0.1,0.9-0.2,1.4
			c0,0.1,0,0.1,0,0.2c-0.3,1.7-0.5,3.3-0.7,5c-0.7,5.6-1.5,11.4-2.4,16.9c-0.9,5.9-1.9,11.5-3,16.6c-0.2,1.1-0.5,2.2-0.7,3.2
			c-0.3,1.1-0.5,2.1-0.7,3c0,0.2-0.1,0.4-0.1,0.6c-0.1,0.3-0.2,0.6-0.2,0.9c-0.1,0.3-0.2,0.6-0.3,0.9c-0.2,0.6-0.3,1.2-0.5,1.7v0.1
			c-0.4,1.1-0.7,2.1-1.1,3.1c-0.1,0.2-0.1,0.4-0.2,0.6l0,0c-0.3,0.7-0.6,1.5-0.9,2.1c-0.3,0.7-0.6,1.3-1,1.9c-0.3,0.6-0.6,1.1-1,1.5
			c-0.4,0.5-0.7,0.9-1.1,1.3l-4.4,7.1l-3.5,5.7l-10.8-0.2l-37.7-0.7L0,489.5v-172l6.6-12.8c10-25.9,37.2-39.9,56.9-59.6
			c11.1-11.1,20-24.3,31.4-35c18.9-17.7,45.3-29.2,55.8-52.8c3.4-7.6,20-27.5,24.9-29.1c14.3-4.6,16.6-8.2,31.6-9.8
			c6.4-0.7,28.6-15.5,31.6-16.7C239.1,101.6,240.9,103.2,243.7,106L243.7,106z"/>
		<path class="st5" d="M1673.9,324.6c-2.4,1.4-5,2.7-7.4,4.1c-17.3,9.5-34.9,19.2-54.3,21.9c-21.6,2.9-43.3-3.2-65.2-3.2
			c-29.7,0-57.4,11.1-82.3,27.7l-11.4-5c7.5-18.2,18.9-34.8,33-48.5c4.2-4,8.7-7.9,11.5-13c3.2-6.3,3.4-13.7,5.1-20.6
			c2-8.3,6.4-16.1,12.3-22.2c7-7.2,35.2-22,46.9-19.6c4.6,1.9,8.8,4.5,12.7,7.5c11.3,9.1,18.2,22.5,28.2,32.9
			C1621.2,305.4,1648.3,318.4,1673.9,324.6L1673.9,324.6z"/>
		<path class="st6" d="M1562,246.2c-11.8-2.4-39.9,12.4-46.9,19.6c-5.9,6.1-10.2,13.9-12.3,22.2c-1.7,6.9-1.9,14.3-5.1,20.6
			c-2.8,5.1-7.3,9.1-11.5,13c-14.1,13.7-25.4,30.3-33,48.5l11.4,5c-7.7,5.1-15.1,10.7-22.2,16.9v-0.1
			c-21.4-18.5-52.3-31.7-85.8-43.8c14.4-17.9,45.8-49.6,63.3-55.9c14.3-5.4,30.4-4.1,44.9-9.2c22.6-8.2,38-30.5,60.7-38.2
			C1537.3,240.7,1550.5,241.5,1562,246.2L1562,246.2z"/>
	</g>
	<path class="st2" d="M1757.4,170.6l-7.1,4.7c-0.2,3.3-0.5,6.5-1.1,9.7l0,0c-0.2,1.3-0.5,2.5-0.7,3.8c-0.1,0.6-0.3,1.3-0.4,1.9
		c-0.4,1.9-1,3.8-1.5,5.6l0,0c-0.4,1.2-0.8,2.5-1.2,3.7c-1,3.1-2.2,6.1-3.5,9.2l0,0c-0.5,1.2-1,2.4-1.6,3.6
		c-0.3,0.6-0.5,1.2-0.8,1.8c-0.6,1.2-1.1,2.4-1.7,3.5c-2.3,4.7-4.9,9.3-7.5,13.9c-0.3,0.6-0.7,1.1-1,1.7c-1.3,2.2-2.7,4.5-4,6.7
		c-0.7,1.1,24.8,12,24.2,13.1c-4.1,6.7-8.3,13.3-12.2,20.1l-18.1-6.8c-0.7,1.1,16.8,9.1,16.2,10.2l-18.1-6.8
		c-0.6,1.1,16.8,9.1,16.2,10.2c-3.1,5.7-5.9,11.6-8.4,17.7c-2.4,5.9-4.3,12.1-6.3,18.1c-1,3-2.1,6.1-3.2,9.1l-26.2-9.8
		c-0.2,0.6,25.7,11,25.5,11.6c-0.7,1.9-27.7-6.1-28.5-4.3c-1,2.3-2.1,4.5-3.2,6.8c-0.4,0.9-0.9,1.8-1.3,2.7l0,0
		c-0.5,0.9-0.9,1.8-1.4,2.6c-1.2,2.2-2.4,4.4-3.6,6.6c-0.7,1.3-1.5,2.6-2.2,3.9l0,0c-0.5,0.9-1,1.7-1.5,2.6l0,0
		c-1.3,2.2-2.6,4.3-3.9,6.4l0,0c-2.1,3.4-4.2,6.8-6.3,10.3l0,0c-1.3,2.1-2.6,4.3-3.9,6.4l0,0c-1.8,3-3.5,6-5.2,9.1
		c-0.5,0.9-1,1.8-1.4,2.6c-1.7,3.1-3.3,6.2-4.7,9.3c-1.5,3.2-2.9,6.3-4.2,9.6c-0.6,1.4-1.1,2.8-1.6,4.2c-0.2,0.5-0.3,0.9-0.5,1.4
		c-0.3,0.9-0.7,1.9-1,2.9c-1.2,3.3-2.3,6.7-3.6,9.9c-0.5,1.4-1.1,2.8-1.7,4.2c-0.2,0.5-0.4,1-0.6,1.4c-0.4,0.9-0.9,1.9-1.3,2.8
		c-0.2,0.5-0.5,0.9-0.7,1.4c-0.5,0.9-0.9,1.8-1.4,2.8l0,0c-1.4,2.8-2.8,5.5-4.1,8.3c-0.9,1.8-1.7,3.7-2.5,5.6l0,0
		c-0.1,0.2-0.2,0.5-0.3,0.7s-0.1,0.4-0.2,0.6c0,0.1-0.1,0.2-0.1,0.3c-0.1,0.2-0.1,0.4-0.2,0.6c0,0.1-0.1,0.2-0.1,0.3
		c-0.2,0.5-0.3,1-0.5,1.6c-0.2,1-0.5,2-0.7,3.1c0,0.2-0.1,0.4-0.1,0.6c0,0.1,0,0.2,0,0.2c-0.1,0.5-0.2,1-0.3,1.5
		c-0.1,0.4-0.1,0.7-0.2,1.1c0,0.2-0.1,0.5-0.1,0.7c-0.1,0.5-0.2,0.9-0.2,1.4c0,0.2-0.1,0.5-0.1,0.7c-0.1,0.3-0.1,0.6-0.2,0.9
		c0,0.2-0.1,0.4-0.1,0.6c-0.1,0.7-0.2,1.4-0.3,2.1c0,0.3-0.1,0.6-0.2,0.9c-0.6,4.1-1.2,8.6-1.8,13.2c-0.2,1.2-0.3,2.5-0.5,3.7
		c-0.1,0.5-0.1,0.9-0.2,1.4c0,0.1,0,0.1,0,0.2c-0.3,1.7-0.5,3.3-0.7,5c-0.7,5.6-1.5,11.4-2.4,16.9c-0.9,5.9-1.9,11.5-3,16.6
		c-0.2,1.1-0.5,2.2-0.7,3.2c-0.3,1.1-0.5,2.1-0.7,3c0,0.2-0.1,0.4-0.1,0.6c-0.1,0.3-0.2,0.6-0.2,0.9c-0.1,0.3-0.2,0.6-0.3,0.9
		c-0.2,0.6-0.3,1.2-0.5,1.7v0.1c-0.4,1.1-0.7,2.1-1.1,3.1c-0.1,0.2-0.1,0.4-0.2,0.6l0,0c-0.3,0.7-0.6,1.5-0.9,2.1
		c-0.3,0.7-0.6,1.3-1,1.9c-0.3,0.6-0.6,1.1-1,1.5c-0.4,0.5-0.7,0.9-1.1,1.3l-4.4,7.1l-3.5,5.7l-10.8-0.2l-37.7-0.7l-33.9-0.6v-172
		l6.6-12.8c10-25.9,37.2-39.9,56.9-59.6c11.1-11.1,31.9-13.7,43.3-24.4c18.9-17.7,42.6-32.8,53.1-56.4c3.4-7.6,17.2-26.5,22.1-28.1
		c14.3-4.6,11.6-12.9,25.2-17.9c6.4-0.7,28.6-15.5,31.6-16.7C1752.7,166.2,1754.5,167.8,1757.4,170.6L1757.4,170.6z"/>
	<path class="st1" d="M1902.4,346.9c25.1,18.1,52.8,29.1,69.1,56.1c-10.8,9.6-18.5,22.3-26,34.8c-6.9,11.6-37.6,49.7-44.5,61.2
		l3.4,62.4l-308.4-5.8l7.8-12.8c11.5-11.6,14-81,20.3-96.1c3.2-7.6,7.4-14.7,10.7-22.2c3.2-7.4-21.3-36.5-18.4-44
		c11.7-29.8,60.3-33.3,72-63.1c3.8-9.6,20.9-15.2,24.7-24.7c7.8-19.4-7.5-44,3.1-62s32.9-34.5,34-55.3l2.6-9.4
		c11.9,11.7,46.3,49.6,58.3,70.4c9.5,16.6,20.8,32,32.6,47.1c4.4,5.7,8.9,11.3,13.4,17c11.1,13.9,22.3,27.9,36,39.3
		C1896.2,342.3,1899.3,344.7,1902.4,346.9L1902.4,346.9z"/>
	<path class="st1" d="M929.3,425.7l-55.5-6.3v77.4H574.6l7.2-86.6l0,0l1.7-20.8l0.1-0.8c0.7-5.9,3.6-11.4,7.8-15.6
		c0.6-0.6,1.2-1.2,1.9-1.7c0.4-0.4,0.9-0.7,1.3-1c1.4-1,2.8-1.8,4.4-2.5c0.2-0.1,0.5-0.2,0.8-0.3c1-0.4,2-0.8,3.1-1.1
		c2.3-0.8,4.7-1.5,6.9-2.6c0.5-0.2,1-0.5,1.4-0.8c3.5-2.1,6.2-5.2,8.8-8.3c2-2.4,4.1-4.9,6.1-7.3c3.4-4.1,6.7-8.1,9.9-12.3
		c2.6-3.3,5-6.7,7.4-10.2s4.6-7,6.7-10.7c1.4-2.4,2.8-4.9,4.1-7.4c0.3-0.6,0.7-1.3,1-1.9c0.6-1,1.2-2.1,1.8-3.1
		c2.4-4.1,5-8,8.2-11.4c0.3-0.3,0.6-0.7,1-1c2-2,4.1-3.8,6.3-5.5c3.3-2.6,6.6-5.2,9.7-7.9c4.8-4.4,9-9.5,12.3-15.1
		c0.8-1.2,1.5-2.5,2.1-3.8c1.7-3.2,3-6.6,4.1-10c0.7-2.1,1.3-4.3,1.9-6.4c0.4-1.3,0.7-2.6,1.1-3.8c1.1-3.4,2.4-6.6,4.5-9.5
		c0.8-1.1,1.7-2.1,2.6-3c0.3-0.3,0.6-0.6,1-0.9c3.9-3.6,8.7-6.5,12.2-10.5c3.5-3.9,5.7-8.7,7.6-13.7c0.5-1.4,1-2.7,1.5-4.1
		c0.7-1.8,1.3-3.7,2-5.5c0.5-1.4,1.1-2.7,1.6-4c1-2.2,2-4.3,3.3-6.2c0.3-0.4,0.5-0.8,0.8-1.1c0.5-0.8,1.1-1.5,1.7-2.2
		c0.9-1,1.9-2,3-2.9l-0.4-4.4l0,0l0,0c2.5-0.3,4.1-0.5,4.1-0.5s31.5,27.1,48.9,39.6c21.1,15.1,51.2,10.3,73.4,23.6l2.2,5.9l0,0
		c0,0,40.6,21.4,55.9,19.7c15.3-1.7,47.3,7.6,54.1,12.8c6.8,5.2,50.7,33.8,62,35.5c11.2,1.7,37.1,23.2,40.2,25.2
		s26.9,34.7,27.6,37.1s18,23.4,24.8,23.4C1145.3,391,929.3,425.7,929.3,425.7z"/>
	<path class="st1" d="M1555.1,453.5l-337,14.2l61.2-154.9c1.9-7.4,9.5-24.7,11.4-31.9c0.7-2.6,1.4-5.4,3.4-7.2
		c2.6-2.4,6.6-2.4,10-3.8c4.6-1.8,7.8-6.2,9.3-10.9c1.6-4.7,1.8-9.7,2-14.6c0.2-5.5,0.4-11,0.6-16.4l0.3-3.5
		c11.2,0.9,23.3,2.2,31.7,9.8c4.7,4.3,7.6,10.1,11.6,15.1c11.6,14.1,36.2,20.3,57.8,28.1c11.5,4.2,22.2,8.7,29.6,15.1
		c20.5,11.6,24-6.1,36.2,20.3c12.3,26.4,58.2,13.4,72,61.1C1568.8,421.6,1555.1,453.5,1555.1,453.5z"/>
	<path class="st2" d="M1105.3,228.6l-7.1,4.7c-0.2,3.3-0.5,6.5-1.1,9.7l0,0c-0.2,1.3-0.5,2.5-0.7,3.8c-0.1,0.6-0.3,1.3-0.4,1.9
		c-0.4,1.9-1,3.8-1.5,5.6l0,0c-0.4,1.2-0.8,2.5-1.2,3.7c-1,3.1-2.2,6.1-3.5,9.2l0,0c-0.5,1.2-1,2.4-1.6,3.6
		c-0.3,0.6-0.5,1.2-0.8,1.8c-0.6,1.2-1.1,2.4-1.7,3.5c-2.3,4.7-4.9,9.3-7.5,13.9c-0.3,0.6-0.7,1.1-1,1.7c-1.3,2.2-2.7,4.5-4,6.7
		c-0.7,1.1-1.4,2.2-2,3.3c-4.1,6.7-8.3,13.3-12.2,20.1l0,0c-0.7,1.1-1.3,2.3-1.9,3.4l0,0c-0.6,1.1-1.3,2.3-1.9,3.4
		c-3.1,5.7-5.9,11.6-8.4,17.7c-2.4,5.9-4.3,12.1-6.3,18.1c-1,3-2.1,6.1-3.2,9.1l0,0c-0.2,0.6-0.5,1.2-0.7,1.8
		c-0.7,1.9-1.5,3.7-2.3,5.5c-1,2.3-2.1,4.5-3.2,6.8c-0.4,0.9-0.9,1.8-1.3,2.7l0,0c-0.5,0.9-0.9,1.8-1.4,2.6
		c-1.2,2.2-2.4,4.4-3.6,6.6c-0.7,1.3-1.5,2.6-2.2,3.9l0,0c-0.5,0.9-1,1.7-1.5,2.6l0,0c-1.3,2.2-2.6,4.3-3.9,6.4l0,0
		c-2.1,3.4-4.2,6.8-6.3,10.3l0,0c-1.3,2.1-2.6,4.3-3.9,6.4l0,0c-1.8,3-3.5,6-5.2,9.1c-0.5,0.9-1,1.8-1.4,2.6
		c-1.7,3.1-3.3,6.2-4.7,9.3c-1.5,3.2-2.9,6.3-4.2,9.6c-0.6,1.4-1.1,2.8-1.6,4.2c-0.2,0.5-0.3,0.9-0.5,1.4c-0.3,0.9-0.7,1.9-1,2.9
		c-1.2,3.3-2.3,6.7-3.6,9.9c-0.5,1.4-1.1,2.8-1.7,4.2c-0.2,0.5-0.4,1-0.6,1.4c-0.4,0.9-0.9,1.9-1.3,2.8c-0.2,0.5-0.5,0.9-0.7,1.4
		c-0.5,0.9-0.9,1.8-1.4,2.8l0,0c-1.4,2.8-2.8,5.5-4.1,8.3c-0.9,1.8-1.7,3.7-2.5,5.6l0,0c-0.1,0.2-0.2,0.5-0.3,0.7s-0.1,0.4-0.2,0.6
		c0,0.1-0.1,0.2-0.1,0.3c-0.1,0.2-0.1,0.4-0.2,0.6c0,0.1-0.1,0.2-0.1,0.3c-0.2,0.5-0.3,1-0.5,1.6c-0.2,1-0.5,2-0.7,3.1
		c0,0.2-0.1,0.4-0.1,0.6c0,0.1,0,0.2,0,0.2c-0.1,0.5-0.2,1-0.3,1.5c-0.1,0.4-0.1,0.7-0.2,1.1c0,0.2-0.1,0.5-0.1,0.7
		c-0.1,0.5-0.2,0.9-0.2,1.4c0,0.2-0.1,0.5-0.1,0.7c-0.1,0.3-0.1,0.6-0.2,0.9c0,0.2-0.1,0.4-0.1,0.6c-0.1,0.7-0.2,1.4-0.3,2.1
		c0,0.3-0.1,0.6-0.2,0.9c-0.6,4.1-1.2,8.6-1.8,13.2c-0.2,1.2-0.3,2.5-0.5,3.7c-0.1,0.5-0.1,0.9-0.2,1.4c0,0.1,0,0.1,0,0.2
		c-0.3,1.7-0.5,3.3-0.7,5c-0.7,5.6-1.5,11.4-2.4,16.9c-0.9,5.9-1.9,11.5-3,16.6c-0.2,1.1-0.5,2.2-0.7,3.2c-0.3,1.1-0.5,2.1-0.7,3
		c0,0.2-0.1,0.4-0.1,0.6c-0.1,0.3-0.2,0.6-0.2,0.9c-0.1,0.3-0.2,0.6-0.3,0.9c-0.2,0.6-0.3,1.2-0.5,1.7v0.1c-0.4,1.1-0.7,2.1-1.1,3.1
		c-0.1,0.2-0.1,0.4-0.2,0.6l0,0c-0.3,0.7-0.6,1.5-0.9,2.1c-0.3,0.7-0.6,1.3-1,1.9c-0.3,0.6-0.6,1.1-1,1.5c-0.4,0.5-0.7,0.9-1.1,1.3
		l-4.4,7.1l-3.5,5.7l-10.8-0.2l-37.7-0.7l-33.9-0.6v-172l6.6-12.8c10-25.9,37.2-39.9,56.9-59.6c11.1-11.1,20-24.3,31.4-35
		c18.9-17.7,45.3-29.2,55.8-52.8c3.4-7.6,20-27.5,24.9-29.1c14.3-4.6,16.6-8.2,31.6-9.8c6.4-0.7,28.6-15.5,31.6-16.7
		C1100.6,224.2,1102.4,225.8,1105.3,228.6L1105.3,228.6z"/>
	<path class="st2" d="M1316.2,224.4l-0.3,3.5c-0.2,5.5-0.4,11-0.6,16.4c-0.2,4.9-0.4,9.9-2,14.6s-4.8,9.1-9.3,10.9
		c-3.3,1.4-7.3,1.4-9.9,3.8c-2,1.8-2.7,4.6-3.4,7.2c-1.8,7.3-9.4,24.5-11.4,31.9c0,0,3.1,50.2-10.9,56.1s-10.4,41.3-10.4,41.3
		l-119.4-5.8c0,0,12.1-99.7,24.7-103s25.7-10.5,30.3-23.7c4.6-13.3,27-28.4,27-28.4c14.9-1.1,38.4-2.8,51.3-10.4
		c7.2-4.3,13.4-10.4,21.3-13.2c7.2-2.5,15.1-2,22.6-1.4C1315.9,224.4,1316.1,224.4,1316.2,224.4L1316.2,224.4z"/>
	<path class="st1" d="M1250.3,404.9c25.1,18.1,52.8,29.1,69.1,56.1c-10.8,9.6-18.5,22.3-26,34.8c-6.9,11.6-37.6,49.7-44.5,61.2
		l3.4,62.4l-308.4-5.8l7.8-12.8c11.5-11.6,14-81,20.3-96.1c3.2-7.6,7.4-14.7,10.7-22.2c3.2-7.4,5.5-15.1,8.4-22.6
		c11.7-29.8,33.5-54.7,45.2-84.5c3.8-9.6,6.5-19.5,10.3-29c7.8-19.4,19.9-36.7,30.5-54.7s19.9-37.6,21-58.4l7.1-4.7
		c11.9,11.7,41.8,44.9,53.8,65.7c9.5,16.6,20.8,32,32.6,47.1c4.4,5.7,8.9,11.3,13.4,17c11.1,13.9,22.3,27.9,36,39.3
		C1244.1,400.3,1247.2,402.7,1250.3,404.9L1250.3,404.9z"/>
</g>
<g>
	<path class="st7" d="M1920,361.4v153.5c-0.3,0.1-0.6,0.1-0.9,0.1c-7.7,1-15.5,2-23.4,2.9c-50.6,5.7-103.1,8.7-153.6,13.8
		c0.5,0.8,1.1,1.6,2,2.4c0.7,0.7,1.7,1.4,3,2c0.6,0.3,0.6,0.7-0.1,1l-1.1,0.2l-63.3,10l-1,0.1c-0.5,0-0.7,0-1,0
		c-0.9-0.2-0.6-1.2-0.8-1.7c-0.6-2-1.5-3.8-3-5.7c-30.7,5-59.7,11.8-86,21.7c-28.5,10.7-52.8,24.6-86,31.2
		c-27.9,5.6-59,5.3-89.2,4.7c-16.9-0.3-33.7-0.7-50.6-1.1h-0.5L1321,598h-0.9c-0.4,0-0.6,0-0.8-0.1c-0.7-0.3,0-1,0.1-1.5
		c0.1-0.3,0.1-0.6,0.1-1c-116.7-3.7-233-10-348.5-19.1c-82.2-6.5-164.4-14.4-247.7-13.9c-98,0.5-194.4,12.4-292.4,14.2
		c-30,0.5-60.8,0-89.5-4.1l-38.1-3.5l-0.8-0.1c-0.4,0-0.6-0.1-0.8-0.2c-0.5-0.3,0.6-1,0.9-1.5c0.7-0.9,1.2-1.8,1.6-2.7
		c-34.7-10.1-62.4-25.6-94.1-38.3c-56.8-22.7-125.8-35.6-196.8-45.5L0,480.6V420c10.5,1.6,22,3.4,36.1,4.4c1.7,0.1,3.4,0.2,5,0.3
		c11.2,0.6,21.1,0.6,30.6,0.4c21.9-0.6,41.4-2.4,68.2-1.5c8.4,0.3,17.1,0.9,25.9,1.7c2.8,0.2,5.5,0.5,8.3,0.8l0,0
		c15.2,1.4,30.4,3,44.9,3.8c12.8,0.7,47.5,0.3,60,1.9c3.9,0.5,8.1,0.9,12.6,1.1c11.9,0.7,25.9,0.8,41.1,0.4l0,0
		c59.7-1.6,138.3-10,185.4-10.1c18.4-2.4,37-4.4,55.7-6.1l0,0c0.2,0,0.4,0.1,0.8,0.1h0.9l56.9-1.8h1c0.1,0,0.2-0.1,0.3-0.1
		s0.2-0.1,0.2-0.1c0.1,0,0.1-0.1,0.1-0.1V415c0-0.1-0.1-0.2-0.2-0.3c-0.3-0.2-0.6-0.5-0.8-0.7s-0.3-0.3-0.4-0.5
		c-0.1-0.2-0.2-0.3-0.3-0.5c-0.1-0.1-0.1-0.2-0.1-0.2l0,0c32.1-2.2,64.5-3.7,96.7-5.3c19.8-1,39.7-2,59.5-3
		c17-0.9,34.1-1.7,51.1-2.6c12.4-0.6,24.8-1.2,37.2-1.8c68.1-3.4,136.1-6.7,204.4-8.1c30.5-0.6,61-0.8,91.5-0.8l0,0
		c28.1,0,56.2,0.2,84.4,0.3h0.1c8.4,0.1,16.6,0.2,25,0.2l0,0c-0.1,0.2-0.2,0.3-0.4,0.5c-0.2,0.2-0.3,0.3-0.5,0.5l0,0
		c-0.1,0.2-0.2,0.3-0.1,0.5s0.3,0.3,0.7,0.4h1l57-0.6h1c0.4,0,0.7-0.1,0.9-0.2c0.2-0.2,0.1-0.4,0-0.6l-0.1-0.1
		c55,0.2,109.9-0.1,164.8-2.2c17.5-0.6,35.1-1.5,51.1-4.9c27.7-5.9,79.8-14.8,91.9-17.5c9-2,62.1-5.9,122-7.7
		c35.6-1.1,73.6-1.4,106-0.2l41.8,2L1920,361.4z"/>
	<path class="st7" d="M666.7,407.2c-0.4,2.6-0.4,5.1,0.1,7.7c0,0.2,0.1,0.4,0.1,0.6c0.2,0.4,0.2,0.9-0.3,1h-0.5l-28.1,0.6h-0.5
		c-0.3-0.2-0.4-0.5-0.3-0.9c0.2-0.3,0.3-0.7,0.4-1c1-3.2-0.3-6.1-1.3-9.1c-0.1-0.5-0.6-1.1,0-1.4s0.9,0.3,1.3,0.6
		c1.8,1.6,3,3.6,4.4,5.5c-0.1-5.7-3.1-10.5-5.4-15.7c3.4,1.3,7.1,7.4,9.9,15.7c0.6-1,0.6-2,0.9-3c0.1-0.5,0-1.2,0.7-1.2
		c0.6,0,0.7,0.7,0.8,1.2c0.3,1,0.6,2.1,1.3,3.2c0.1-1.7,0.2-3.4,0.3-5c0.1-0.7-0.4-1.9,0.5-2c0.8-0.1,0.9,1.1,1.2,1.8
		c0.4,0.9,0.7,1.8,1.2,3.1c1.3-3.7,1.7-7.2,2-10.8c0.1-1.7,0-3.5,0-5.2c0-0.4,0-1,0.4-1.2c0.6-0.2,1,0.3,1.3,0.7
		c0.9,1.1,1.1,2.4,1,3.8c-0.1,3.1-0.3,6.2-0.6,9.3c0,1.1-0.1,2.2-0.2,3.7c2-2.1,2.3-4.7,3.4-6.9c0.1,0,0.3,0.1,0.5,0.1
		c0.2,2.2,0.4,4.5,0.6,7.1c1.3-3.1,2.3-5.8,3.5-8.5c0.5-1.1,1.1-2.2,1.8-3.3c0.3-0.4,0.6-1.2,1.3-0.8c0.6,0.3,0.2,1,0,1.4
		C667.7,401.2,667.2,404.2,666.7,407.2L666.7,407.2z"/>
	<path class="st7" d="M292.4,432c0.2,0.3,0.1,0.6-0.2,0.8h-0.5l-28.1,1.8h-0.4c-0.2,0-0.3,0-0.4-0.1c-0.3-0.3,0-1,0-1.5
		c0.2-2.6,0.1-5.1-0.5-7.7c-0.7-3-1.4-5.9-2.8-8.7c-0.2-0.4-0.7-1-0.1-1.4c0.7-0.5,1.1,0.2,1.4,0.6c0.7,1,1.5,2,2.1,3.2
		c1.4,2.6,2.7,5.2,4.2,8.1V420c0.2-0.1,0.3-0.1,0.5-0.2c1.2,2.1,1.7,4.6,3.9,6.6c-0.2-1.5-0.4-2.5-0.5-3.7c-0.5-3.1-0.9-6.1-1.3-9.2
		c-0.2-1.4-0.1-2.7,0.7-3.8c0.2-0.4,0.5-1,1.2-0.8c0.5,0.1,0.5,0.7,0.5,1.2c0.2,1.7,0.2,3.4,0.5,5.1c0.5,3.5,1.3,7,2.9,10.6
		c0.4-1.3,0.6-2.3,0.9-3.2c0.2-0.7,0.2-2,1.1-1.9c0.9,0,0.5,1.3,0.6,2c0.3,1.7,0.6,3.4,0.8,5c0.6-1.1,0.7-2.2,1-3.3
		c0.1-0.5,0-1.2,0.7-1.3c0.6,0,0.6,0.7,0.8,1.2c0.3,0.9,0.4,2,1.2,2.9c2.1-8.5,5.3-14.9,8.5-16.5c-1.9,5.4-4.4,10.4-4.1,16.1
		c1.3-2,2.3-4.1,3.9-5.9c0.4-0.3,0.7-1,1.3-0.7c0.7,0.2,0.3,0.9,0.2,1.4c-0.6,2.8-1.6,5.5-0.8,8.2C291.7,430.7,292,431.4,292.4,432
		L292.4,432z"/>
	<path class="st8" d="M739.9,505.8c0.7,0.4,0,1-0.1,1.4c-1.3,2.6-2.9,5.1-2.8,7.9c0,0.7,0.1,1.5,0.3,2.2c0.1,0.4,0,0.7-0.5,0.8h-0.5
		l-9-1.7l-19.1-3.5l-0.4-0.1c-0.2,0-0.3-0.1-0.4-0.2c-0.3-0.4,0.3-1,0.5-1.5c0.4-0.9,0.6-1.9,0.8-2.8c0.4-1.6,0.6-3.3,0.6-5
		c0-3.1,0-6.2-0.6-9.2c-0.1-0.5-0.4-1.2,0.2-1.4c0.9-0.4,1,0.5,1.2,1c0.5,1.2,1,2.4,1.3,3.7c0.8,2.9,1.4,5.8,2.2,9.1l1.8-7
		c0.2,0,0.4,0,0.6,0c0.7,2.4,0.6,5,2.3,7.5c0.1-1.5,0.2-2.6,0.4-3.7c0.3-3.2,0.6-6.3,1-9.4c0.1-1.5,0.6-2.7,1.7-3.6
		c0.4-0.4,0.8-0.9,1.4-0.5c0.5,0.3,0.3,0.9,0.3,1.3c-0.2,1.7-0.6,3.4-0.8,5.2c-0.4,3.6-0.5,7.2,0.2,11.2c0.7-1.2,1.2-2.1,1.7-2.9
		c0.4-0.6,0.7-1.9,1.6-1.7c0.9,0.3,0.1,1.4,0.1,2.1c-0.1,1.8-0.3,3.5-0.5,5.2c0.9-1,1.3-2,1.8-3c0.2-0.5,0.4-1.2,1.1-1.1
		c0.7,0.1,0.5,0.9,0.5,1.4c0.1,1.1,0,2.1,0.5,3.2c4.1-7.8,8.9-13.4,12.5-14.2c-3.2,4.9-6.9,9.1-8,14.9c1.8-1.7,3.3-3.5,5.3-4.8
		C739,506,739.4,505.4,739.9,505.8L739.9,505.8z"/>
	<path class="st8" d="M325,529.7c0.2,0.3,0,0.7-0.4,0.8h-0.5l-6.4-0.4h-0.2l-21.9-1.4l-0.4-0.1c-0.2,0-0.3-0.1-0.4-0.2
		c-0.3-0.3,0.1-1,0.2-1.5c0.1-0.3,0.1-0.6,0.2-1c0.4-2.3,0.5-4.5,0.3-6.9c-0.3-3.1-0.7-6.2-1.7-9.1c-0.2-0.5-0.6-1.1,0-1.4
		c0.8-0.5,1.1,0.3,1.3,0.8c0.6,1.1,1.3,2.2,1.7,3.5c1.1,2.8,2.1,5.6,3.2,8.8l0.9-7.2c0.2-0.1,0.4-0.1,0.6-0.1c1,2.3,1.1,4.9,3.1,7.2
		c-0.1-1.5-0.1-2.6-0.1-3.8c-0.1-3.2-0.2-6.3-0.2-9.4c0-1.4,0.3-2.8,1.2-3.8c0.3-0.4,0.7-0.9,1.3-0.6c0.5,0.2,0.4,0.8,0.4,1.3
		c0,1.7-0.2,3.5-0.2,5.2c0,3.6,0.4,7.2,1.5,11.1c0.6-1.2,0.9-2.2,1.3-3.1c0.3-0.7,0.5-2,1.3-1.8c0.9,0.2,0.3,1.4,0.3,2.1
		c0.1,1.7,0.2,3.5,0.1,5.2c0.7-1.1,1-2.1,1.4-3.2c0.2-0.5,0.2-1.2,0.9-1.2c0.7,0,0.6,0.8,0.6,1.3c0.2,1,0.2,2,0.8,3.1
		c3.2-8.3,7.3-14.4,10.8-15.5c-2.6,5.2-5.8,9.9-6.2,15.7c1.6-1.9,2.8-3.9,4.7-5.4c0.4-0.3,0.8-0.9,1.4-0.6c0.7,0.3,0.2,1,0,1.4
		c-1,2.7-2.3,5.4-1.9,8.2C324.6,528.3,324.7,529,325,529.7L325,529.7z"/>
	<path class="st8" d="M821.2,649.7L821.2,649.7h-2.3C819.6,649.7,820.4,649.7,821.2,649.7z"/>
	<path class="st8" d="M1920,465.1v109.5l-0.9,0.1l-5.7,0.6l-59.4,6.2c-60.1,18.2-130.1,27.3-198.9,36.1
		c-61.1,7.8-122.3,15.6-183.5,23.4c-44.7,5.7-89.7,11.5-135.6,14.2c-16,1-31.9,1.6-47.9,2l-59.6,0.3c-22.2-0.2-44.3-0.6-66.4-1
		c-96.4-1.9-192.7-3.8-289-5.7c-17.1-0.4-34.5-0.7-51.8-1.1c-0.8,0-1.5,0-2.3,0h-0.2l-18-0.5l-26.2-0.9l0,0l-20-0.7
		c-22.6-1-45.2-2.3-67.5-4.1c-49.1-4-97.1-10.2-146-14.9c-44.5-4.3-89.6-7.1-134.8-8.6v-0.1L271,619.6C178.9,621.9,87.7,630,0,643.4
		V437.3c56.4,9.2,110.2,21.2,156.2,39.3c32.7,12.9,61.2,28.7,97,39l0,0l37.3,8l0,0l1.1,0.1c29.6,4.2,61.3,4.7,92.3,4.2
		c101.1-1.8,200.6-13.9,301.6-14.4c85.9-0.5,170.8,7.6,255.5,14.2c119.1,9.2,239.1,15.7,359.5,19.4l0,0l27.5,1.9l0,0l19.1-0.6h0.5
		c17.4,0.4,34.8,0.9,52.2,1.2c31.2,0.6,63.2,0.9,92-4.8c34.2-6.7,59.3-20.9,88.7-31.8c27.1-10,57-16.9,88.7-22.1l67.3-8.5
		c60.1-6,123.1-9.1,182.5-17C1919.4,465.2,1919.7,465.2,1920,465.1z"/>
	<path class="st8" d="M935.2,465.1L935.2,465.1L935.2,465.1L935.2,465.1z"/>
	<path class="st9" d="M1920,549.7v231.8h-0.9v64.3H0V617.5c86-12.8,175.4-20.5,265.4-22.9l0,0c45.2-1.2,90.5-1.2,135.7,0.4
		c45.3,1.5,90.5,4.4,135.2,8.6c49,4.7,97.3,10.9,146.5,14.9c22.5,1.8,45.1,3.1,67.8,4.1c14.7,0.7,29.5,1.2,44.3,1.6h2.1
		c24,0.7,48.5,1.2,72.5,1.7c96.6,1.9,193.3,3.8,290,5.7c22.1,0.5,44.4,0.9,66.6,1l0,0c20,0.2,39.8,0.1,59.8-0.3
		c16-0.4,32.1-1,48.1-2c46-2.8,91.1-8.5,136-14.2c61.3-7.8,122.7-15.7,184.1-23.4c69-8.8,139.3-17.9,199.6-36.1l65.4-6.8L1920,549.7
		z"/>
	<path class="st9" d="M641,605.3c-0.4,1.8-0.7,3.5-0.6,5.3c0,0.8,0,1.7,0.1,2.5c0,0.2,0.1,0.4,0.1,0.7c0.2,0.5,0.2,1-0.4,1h-0.5
		l-28.6-1.5h-0.5c-0.3-0.2-0.4-0.6-0.2-0.9c0.2-0.3,0.4-0.7,0.5-1c0.4-0.8,0.5-1.6,0.5-2.5c0.1-2.3-0.6-4.6-1.2-6.8
		c-0.1-0.5-0.5-1.1,0.2-1.4c0.6-0.3,0.9,0.4,1.3,0.8c1.7,1.7,2.8,3.9,4.1,5.9c0.3-5.8-2.3-10.8-4.3-16.3c3.3,1.6,6.7,8,8.9,16.7
		c0.7-1,0.8-2,1.1-2.9c0.2-0.5,0.1-1.2,0.8-1.2s0.6,0.8,0.7,1.3c0.3,1.1,0.5,2.2,1.1,3.3c0.2-1.7,0.5-3.4,0.7-5.1
		c0.2-0.7-0.3-2,0.6-2c0.9-0.1,0.8,1.2,1.1,1.9c0.3,0.9,0.6,1.9,1,3.2c1.6-3.7,2.3-7.2,2.8-10.8c0.2-1.7,0.3-3.5,0.4-5.3
		c0-0.5,0-1.1,0.5-1.2c0.7-0.2,1,0.4,1.3,0.8c0.9,1.2,0.9,2.5,0.8,3.9c-0.4,3.1-0.8,6.2-1.3,9.4c-0.1,1.1-0.3,2.2-0.5,3.7
		c2.2-2,2.7-4.6,4-6.8c0.1,0.1,0.3,0.1,0.5,0.2c0,2.3,0.1,4.6,0.1,7.3c1.5-3,2.8-5.7,4.2-8.4c0.6-1.1,1.3-2.2,2.1-3.2
		c0.3-0.4,0.7-1.2,1.4-0.7c0.6,0.4,0.1,1-0.1,1.5C642.4,599.2,641.7,602.3,641,605.3L641,605.3z"/>
	<path class="st9" d="M194,592.8c-1.5,2.3-2.5,4.9-3,7.6l0,0c-0.1,0.5,0,1.2-0.6,1.1l-63.8,2.6c-0.3,0.5-0.7,0-0.9-0.2l-0.5-0.4
		c-1.4-1.3-2.9-2.7-4.7-3.4c-0.9-0.5-2-0.8-3-1.2c-0.3-0.1-0.8-0.2-0.8-0.7s0.5-0.6,0.8-0.7c1.6-0.6,3.3-0.6,5.4-0.4
		c-1.4-1.8-3.1-2.7-4.8-3.7c-0.5-0.2-1.2-0.3-1.1-0.9c0.1-0.6,0.8-0.5,1.4-0.5c2.2-0.2,4.3,0.3,6.4,1.1c0-0.2,0.1-0.3,0.2-0.4
		c-0.9-0.8-1.9-1.6-2.8-2.4c-0.3-0.3-0.8-0.6-0.6-1c0.3-0.6,0.8-0.2,1.3-0.1c3.2,1.1,5.9,3,7.8,5.9c0.1,0.2,0.3,0.3,0.4,0.6
		c0-1.8-1-4.9-2.6-7.7c-0.4-0.7-0.9-1.5-1.3-2.2c-0.2-0.3-0.5-0.7-0.3-1c0.3-0.4,0.8-0.1,1.2,0c2.7,1.2,4.6,3.1,5.9,5.7
		c0.5,1.1,0.9,2.2,1.4,3.6c0.2-0.8,0.4-1.3,0.5-1.9c1-3.6,2.8-6.9,5.6-9.3c0.4-0.4,0.8-1,1.3-0.7c0.6,0.4,0.1,1.1-0.1,1.6
		c-1.2,3.2-2.3,6.6-3,10.3c1-0.8,1.8-1.5,2.8-2.1c0.5-0.3,1.1-0.6,1.7-0.8c0.6-0.2,1.5-0.7,2-0.2c0.5,0.7-0.5,1.1-0.8,1.7
		c-0.5,0.8-1.1,1.4-1.4,2.3c0.9,0.8,2.6-1.6,2.9,0.8c1-0.3,1.3-2.3,3-1.1c0,0,0.3-0.2,0.4-0.3c1.2-1.7,2.5-3.1,4.1-4.4
		c1-0.9,1.3-2.6,1.9-3.9c0.2-0.4,0.4-0.9,0.6-1.3c0.1-0.2,0.3-0.5,0.6-0.4c0.4,0.1,0.4,0.5,0.3,0.8c-0.2,0.7-0.4,1.3-0.6,2
		c-0.7,2.6-0.8,5.3-0.8,7.9c0.8-1.7,1.7-3.3,3-4.6c0.4-0.4,0.8-1,1.3-0.7c0.7,0.4,0.1,1-0.1,1.4c-0.6,1.6-1.1,3.3-1.2,5.3
		c1-1.9,1.7-2.4,2.2-1.7c0.7-2.9,1.9-5.6,3.6-8c0.4-0.5,0.7-1.6,1.4-1.2c0.7,0.3,0,1.2-0.2,1.7c-1.3,3.5-1.3,7,0,10.9
		c0.4-1.4,0.7-2.6,1.1-3.6c0.2-0.5,0.3-1.3,1-1.2c0.6,0.1,0.4,0.9,0.5,1.4c0.1,0.8,0.1,1.5,0.4,2.3c0.8-1.7,1.7-3.4,2.5-5.1
		c0.2-0.4,0-0.9-0.2-1.2c-0.5-1.6-1.4-3-2.6-4.2c-0.3-0.4-1.1-0.7-0.6-1.2c0.5-0.4,1,0.3,1.3,0.6c0.9,1,1.9,2,2.6,3
		c1.6,2.1,2.8,4.4,3.8,7c0.6-0.6,0.5-1.2,0.7-1.7c1.1-4.2,3.1-8,6-11.3c0.3-0.4,0.7-1,1.3-0.7s0.2,1,0,1.5c-0.9,2.8-1.6,5.6-2.1,8.9
		c1-1.4,1.7-2.5,2.6-3.5c0.3-0.4,0.7-1.2,1.3-0.8s0,1-0.2,1.5c-0.6,1.5-0.9,3-1,4.9c1.8-1.8,3-3.7,4.4-5.5c0.3-0.3,0.6-1,1.1-0.7
		s0.1,0.9,0,1.3c-0.5,1.4-1,2.9-1.3,4.6c1.2-1.1,2.2-2,3.2-2.9c0.8-0.6,1.9-1.8,2.6-1.1C195.8,591.2,194.5,592,194,592.8L194,592.8z
		"/>
	<path class="st9" d="M1069.3,624.2c-0.5,1.8-1.2,3.6-0.4,5.5c0.1,0.3,0.1,0.7-0.2,0.8l-10-0.2l-7.2-0.1l-5.6-0.1l-6.8-0.1
		c-1.2,0-1.7-1-1.7-1c0-0.3,0-0.5-0.1-0.8c-0.2-1.7-0.8-3-1.7-4.3c-0.5-0.7-1-1.4-1.4-2.1c-0.4-0.7-1.4-1.4-0.9-2
		c0.8-0.7,1.7,0.2,2.4,0.7c1.8,1,2.5,3,3.4,4.7c0.3,0.6,0.6,1.3,1,2.4c0.4-1.5,0.4-2.6,0.2-3.6c0-0.4-0.3-0.9,0.1-1.2
		c0.6-0.3,0.9,0.3,1.2,0.6c0.6,0.7,1.2,1.5,1.9,2.3c0.1-1.6-0.6-3-0.7-4.9c2.9,2.2,2.6,5.5,4,8.4c0.8-7.1-1.5-12.7-6.3-17.5
		c7,2.5,10,7.7,10.6,15.2c0.9-2.3,0.8-4.2,0.7-6.1c0-0.4-0.2-0.8,0.2-1c0.5-0.2,0.8,0.2,1,0.5c1.2,1.4,1.3,3.2,1.9,5.4
		c0.2-1.3,0.4-2.3,0.5-3.2c0.1-0.5-0.3-1.2,0.4-1.2c0.5-0.1,0.8,0.5,1.1,0.9c0.5,0.9,1.1,1.9,1.7,3.2c0.4-4.6,1.2-8.9,1-13.2
		c0-0.6-0.5-1.4,0.3-1.6c0.7-0.1,0.9,0.8,1.1,1.3c1.1,2.2,1.6,4.6,1.5,7.1l-0.1,6.2c0,0,0.1,0.1,0.2,0.1c0.3-0.8,0.5-1.7,0.9-2.6
		c0.1-0.2,0.2-0.6,0.6-0.6c0.5,0,0.5,0.5,0.5,0.8c0.2,1.3,0.3,2.5,0.6,4.2c1-1.4,1.8-2.4,2.6-3.4c0.3-0.3,0.6-0.8,1.1-0.6
		C1069.8,623.2,1069.4,623.7,1069.3,624.2L1069.3,624.2z"/>
	<path class="st9" d="M1538.1,601c-1.3,2.5-2,5.1-2.3,7.8l0,0c0,0.5,0.1,1.2-0.5,1.1l-63.4,8.2c-0.3,0.5-0.6,0.1-0.9-0.1l-0.5-0.4
		c-1.5-1.2-3.1-2.4-4.9-3c-1-0.4-2-0.6-3.1-0.9c-0.3-0.1-0.8-0.1-0.8-0.6s0.4-0.6,0.8-0.8c1.6-0.7,3.3-0.9,5.3-0.9
		c-1.6-1.7-3.3-2.4-5.1-3.2c-0.5-0.2-1.2-0.2-1.2-0.8c0.1-0.6,0.8-0.6,1.3-0.6c2.2-0.4,4.3,0,6.5,0.6c0-0.2,0.1-0.3,0.2-0.4
		c-1-0.7-2-1.4-3-2.1c-0.3-0.3-0.8-0.5-0.6-1c0.3-0.6,0.8-0.3,1.3-0.2c3.3,0.9,6.2,2.5,8.3,5.2c0.1,0.2,0.3,0.3,0.5,0.5
		c-0.1-1.8-1.4-4.8-3.2-7.4c-0.5-0.7-1-1.4-1.5-2.1c-0.2-0.3-0.6-0.6-0.3-1c0.3-0.4,0.8-0.2,1.2-0.1c2.8,1,4.9,2.7,6.4,5.2
		c0.6,1,1.1,2.1,1.7,3.5c0.1-0.8,0.3-1.4,0.3-1.9c0.7-3.7,2.1-7.1,4.8-9.8c0.4-0.4,0.7-1.1,1.3-0.8c0.7,0.4,0.2,1.1,0.1,1.6
		c-1,3.3-1.7,6.7-2.1,10.5c0.9-0.8,1.7-1.6,2.6-2.3c0.5-0.4,1.1-0.7,1.6-1c0.6-0.3,1.5-0.9,1.9-0.3c0.6,0.6-0.4,1.1-0.7,1.7
		c-0.4,0.8-1,1.5-1.2,2.4c1,0.7,2.5-1.9,3,0.5c1-0.3,1.1-2.4,2.9-1.3c0,0,0.3-0.2,0.4-0.3c1-1.8,2.2-3.3,3.7-4.7
		c0.9-0.9,1-2.7,1.5-4.1c0.1-0.4,0.3-0.9,0.5-1.3c0.1-0.2,0.2-0.5,0.5-0.4c0.4,0.1,0.4,0.5,0.4,0.8c-0.1,0.7-0.3,1.4-0.4,2
		c-0.5,2.7-0.4,5.3-0.1,8c0.7-1.7,1.4-3.4,2.6-4.8c0.4-0.4,0.7-1.1,1.3-0.8c0.7,0.3,0.2,0.9,0,1.4c-0.5,1.7-0.8,3.4-0.8,5.4
		c0.8-1.9,1.5-2.6,2.1-1.9c0.4-3,1.4-5.8,2.9-8.3c0.4-0.6,0.5-1.6,1.3-1.4c0.7,0.3,0.1,1.2-0.1,1.7c-1,3.6-0.7,7.1,1,10.9
		c0.3-1.5,0.5-2.6,0.8-3.7c0.2-0.5,0.2-1.3,0.9-1.3c0.6,0.1,0.5,0.8,0.6,1.3c0.2,0.7,0.3,1.5,0.6,2.3c0.7-1.8,1.4-3.5,2-5.3
		c0.1-0.4-0.1-0.8-0.3-1.2c-0.7-1.6-1.7-2.9-2.9-4c-0.4-0.4-1.2-0.6-0.7-1.2c0.4-0.5,1,0.2,1.3,0.5c1,0.9,2,1.8,2.9,2.8
		c1.7,2,3.2,4.2,4.4,6.7c0.5-0.6,0.4-1.2,0.5-1.8c0.7-4.3,2.3-8.2,4.9-11.7c0.3-0.4,0.6-1.1,1.2-0.8s0.2,1,0.2,1.4
		c-0.6,2.8-1.1,5.7-1.3,9c0.9-1.5,1.5-2.6,2.3-3.7c0.3-0.4,0.6-1.2,1.2-0.9s0.1,1,0,1.5c-0.4,1.5-0.6,3.1-0.6,5c1.7-2,2.7-4,3.9-5.8
		c0.3-0.3,0.5-1.1,1.1-0.8c0.5,0.3,0.2,0.9,0.1,1.3c-0.4,1.5-0.7,2.9-0.9,4.7c1.1-1.2,2-2.2,3-3.2c0.7-0.7,1.7-1.9,2.4-1.4
		C1539.7,599.3,1538.5,600.2,1538.1,601L1538.1,601z"/>
	<path class="st9" d="M1841.2,551.8c0.3,1.8,0.7,3.5,1.5,5.2c0.3,0.7,0.7,1.5,1,2.3c0.1,0.2,0.2,0.4,0.3,0.6c0.3,0.4,0.5,0.8,0,1.1
		l-0.5,0.2l-27.1,9.4l-0.5,0.2c-0.4-0.1-0.6-0.4-0.6-0.8c0.1-0.4,0.1-0.8,0.1-1.1c0-0.9-0.1-1.7-0.4-2.5c-0.7-2.1-2.3-4-3.6-5.9
		c-0.3-0.4-0.9-0.9-0.4-1.4s1,0,1.5,0.2c2.3,1,4,2.5,6,4c-1.9-5.5-6.2-9.2-10.2-13.5c3.7,0.2,9.2,4.9,14.5,12.1
		c0.3-1.2,0-2.2-0.1-3.1c0-0.5-0.3-1.2,0.3-1.4c0.6-0.2,0.9,0.5,1.1,0.9c0.7,0.9,1.3,1.9,2.2,2.7c-0.4-1.7-0.9-3.3-1.2-5
		c-0.1-0.7-1-1.7-0.2-2.1c0.8-0.4,1.2,0.8,1.7,1.3c0.7,0.7,1.2,1.6,2.1,2.6c0.1-4-0.6-7.6-1.5-11.1c-0.4-1.7-1.1-3.3-1.6-5
		c-0.1-0.4-0.4-1,0-1.3c0.6-0.4,1.1,0,1.5,0.3c1.2,0.8,1.8,2,2.2,3.4c0.8,3,1.6,6.1,2.3,9.2c0.3,1.1,0.6,2.1,0.9,3.6
		c1.3-2.7,0.8-5.3,1.1-7.8c0.2,0,0.3,0,0.5,0c0.9,2.1,1.8,4.2,2.8,6.7c0.3-3.4,0.4-6.3,0.8-9.3c0.1-1.3,0.4-2.5,0.7-3.8
		c0.1-0.5,0.2-1.4,1-1.2c0.7,0.1,0.5,0.9,0.4,1.4C1840.2,545.7,1840.7,548.7,1841.2,551.8L1841.2,551.8z"/>
	<path class="st8" d="M1128.5,533.1c-1.7,2.2-2.8,4.6-3.6,7.3l0,0c-0.1,0.4-0.1,1.2-0.7,1l-63.8-2.4c-0.4,0.4-0.7,0-0.9-0.3
		l-0.4-0.5c-1.3-1.4-2.6-2.9-4.4-3.8c-0.9-0.5-1.9-1-2.9-1.4c-0.3-0.2-0.8-0.2-0.7-0.7c0.1-0.5,0.5-0.5,0.9-0.6
		c1.7-0.5,3.4-0.4,5.4,0c-1.3-1.9-2.9-2.9-4.5-4c-0.4-0.3-1.2-0.4-1-1s0.9-0.4,1.4-0.4c2.2,0,4.3,0.7,6.3,1.6
		c0.1-0.1,0.2-0.2,0.3-0.3c-0.9-0.9-1.8-1.7-2.6-2.6c-0.2-0.3-0.7-0.6-0.5-1.1c0.4-0.5,0.9-0.2,1.3,0c3.1,1.4,5.7,3.5,7.4,6.5
		c0.1,0.2,0.2,0.4,0.4,0.6c0.1-1.8-0.6-5-2-7.8c-0.3-0.8-0.8-1.5-1.1-2.3c-0.1-0.4-0.5-0.7-0.2-1.1c0.4-0.4,0.8-0.1,1.2,0.1
		c2.6,1.4,4.4,3.5,5.4,6.2c0.4,1.1,0.7,2.3,1.2,3.7c0.3-0.8,0.5-1.3,0.7-1.8c1.3-3.5,3.3-6.6,6.4-8.9c0.4-0.3,0.9-1,1.4-0.6
		c0.6,0.5,0,1.1-0.2,1.6c-1.5,3.1-2.8,6.4-3.8,10c1.1-0.7,1.9-1.3,2.9-1.8c0.6-0.3,1.2-0.5,1.8-0.7c0.7-0.2,1.6-0.6,2,0
		c0.5,0.7-0.6,1-0.9,1.6c-0.5,0.7-1.2,1.3-1.6,2.2c0.8,0.8,2.8-1.4,2.8,1c1-0.2,1.5-2.2,3-0.8c0,0,0.3-0.1,0.4-0.2
		c1.3-1.6,2.7-2.9,4.4-4.1c1.1-0.8,1.5-2.5,2.2-3.8c0.2-0.4,0.5-0.8,0.7-1.2c0.2-0.2,0.3-0.5,0.6-0.3c0.4,0.2,0.3,0.5,0.2,0.8
		c-0.2,0.6-0.5,1.3-0.8,1.9c-0.9,2.5-1.2,5.2-1.4,7.8c0.9-1.6,2-3.1,3.3-4.3c0.4-0.3,0.9-0.9,1.4-0.6c0.6,0.4,0,1-0.2,1.3
		c-0.7,1.6-1.4,3.2-1.6,5.2c1.1-1.8,1.9-2.3,2.4-1.5c0.9-2.8,2.3-5.5,4.2-7.7c0.5-0.5,0.8-1.5,1.5-1.1c0.6,0.4-0.1,1.2-0.3,1.7
		c-1.5,3.4-1.8,6.9-0.8,10.9c0.5-1.4,0.9-2.5,1.4-3.5c0.3-0.5,0.4-1.3,1.1-1.1c0.6,0.2,0.4,0.9,0.4,1.4c0,0.8,0,1.5,0.2,2.4
		c0.9-1.6,1.9-3.3,2.9-4.9c0.2-0.4,0-0.9-0.1-1.3c-0.4-1.7-1.2-3.1-2.2-4.4c-0.3-0.4-1.1-0.8-0.5-1.3c0.5-0.4,0.9,0.3,1.2,0.7
		c0.8,1,1.7,2.1,2.4,3.2c1.4,2.2,2.4,4.6,3.2,7.3c0.6-0.5,0.6-1.1,0.8-1.7c1.4-4.1,3.7-7.7,6.8-10.8c0.4-0.4,0.8-1,1.3-0.6
		s0.1,1-0.1,1.5c-1.1,2.7-2,5.4-2.8,8.7c1.1-1.3,1.9-2.3,2.8-3.3c0.4-0.4,0.8-1.1,1.4-0.7c0.5,0.4-0.1,1-0.3,1.4
		c-0.7,1.4-1.1,2.9-1.4,4.8c2-1.7,3.3-3.5,4.9-5.1c0.4-0.3,0.6-1,1.2-0.6c0.5,0.4,0.1,0.9-0.1,1.3c-0.6,1.4-1.2,2.8-1.7,4.5
		c1.3-1,2.3-1.8,3.4-2.6c0.8-0.5,2-1.6,2.6-0.9C1130.4,531.6,1129,532.4,1128.5,533.1L1128.5,533.1z"/>
	<path class="st7" d="M984.3,391.2c-1.5,2.3-2.5,4.9-3,7.6l0,0c-0.1,0.5,0,1.2-0.6,1.1l-63.8,2.6c-0.3,0.5-0.7,0-0.9-0.2l-0.5-0.4
		c-1.4-1.3-2.9-2.7-4.7-3.4c-0.9-0.5-2-0.8-3-1.2c-0.3-0.1-0.8-0.2-0.8-0.7s0.5-0.6,0.8-0.7c1.6-0.6,3.3-0.6,5.4-0.4
		c-1.4-1.8-3.1-2.7-4.8-3.7c-0.5-0.2-1.2-0.3-1.1-0.9c0.1-0.6,0.8-0.5,1.4-0.5c2.2-0.2,4.3,0.3,6.4,1.1c0-0.2,0.1-0.3,0.2-0.4
		c-0.9-0.8-1.9-1.6-2.8-2.4c-0.3-0.3-0.8-0.6-0.6-1c0.3-0.6,0.8-0.2,1.3-0.1c3.2,1.1,5.9,3,7.8,5.9c0.1,0.2,0.3,0.3,0.4,0.6
		c0-1.8-1-4.9-2.6-7.7c-0.4-0.7-0.9-1.5-1.3-2.2c-0.2-0.3-0.5-0.7-0.3-1c0.3-0.4,0.8-0.1,1.2,0c2.7,1.2,4.6,3.1,5.9,5.7
		c0.5,1.1,0.9,2.2,1.4,3.6c0.2-0.8,0.4-1.3,0.5-1.9c1-3.6,2.8-6.9,5.6-9.3c0.4-0.4,0.8-1,1.3-0.7c0.6,0.4,0.1,1.1-0.1,1.6
		c-1.2,3.2-2.3,6.6-3,10.3c1-0.8,1.8-1.5,2.8-2.1c0.5-0.3,1.1-0.6,1.7-0.8c0.6-0.2,1.5-0.7,2-0.2c0.5,0.7-0.5,1.1-0.8,1.7
		c-0.5,0.8-1.1,1.4-1.4,2.3c0.9,0.8,2.6-1.6,2.9,0.8c1-0.3,1.3-2.3,3-1.1c0,0,0.3-0.2,0.4-0.3c1.2-1.7,2.5-3.1,4.1-4.4
		c1-0.9,1.3-2.6,1.9-3.9c0.2-0.4,0.4-0.9,0.6-1.3c0.1-0.2,0.3-0.5,0.6-0.4c0.4,0.1,0.4,0.5,0.3,0.8c-0.2,0.7-0.4,1.3-0.6,2
		c-0.7,2.6-0.8,5.3-0.8,7.9c0.8-1.7,1.7-3.3,3-4.6c0.4-0.4,0.8-1,1.3-0.7c0.7,0.4,0.1,1-0.1,1.4c-0.6,1.6-1.1,3.3-1.2,5.3
		c1-1.9,1.7-2.4,2.2-1.7c0.7-2.9,1.9-5.6,3.6-8c0.4-0.5,0.7-1.6,1.4-1.2c0.7,0.3,0,1.2-0.2,1.7c-1.3,3.5-1.3,7,0,10.9
		c0.4-1.4,0.7-2.6,1.1-3.6c0.2-0.5,0.3-1.3,1-1.2c0.6,0.1,0.4,0.9,0.5,1.4c0.1,0.8,0.1,1.5,0.4,2.3c0.8-1.7,1.7-3.4,2.5-5.1
		c0.2-0.4,0-0.9-0.2-1.2c-0.5-1.6-1.4-3-2.6-4.2c-0.3-0.4-1.1-0.7-0.6-1.2c0.5-0.4,1,0.3,1.3,0.6c0.9,1,1.9,2,2.6,3
		c1.6,2.1,2.8,4.4,3.8,7c0.6-0.6,0.5-1.2,0.7-1.7c1.1-4.2,3.1-8,6-11.3c0.3-0.4,0.7-1,1.3-0.7s0.2,1,0,1.5c-0.9,2.8-1.6,5.6-2.1,8.9
		c1-1.4,1.7-2.5,2.6-3.5c0.3-0.4,0.7-1.2,1.3-0.8c0.6,0.4,0,1-0.2,1.5c-0.6,1.5-0.9,3-1,4.9c1.8-1.8,3-3.7,4.4-5.5
		c0.3-0.3,0.6-1,1.1-0.7s0.1,0.9,0,1.3c-0.5,1.4-1,2.9-1.3,4.6c1.2-1.1,2.2-2,3.2-2.9c0.8-0.6,1.9-1.8,2.6-1.1
		C986.1,389.6,984.8,390.4,984.3,391.2L984.3,391.2z"/>
	<path class="st8" d="M1539.1,522.6c0.2,1.9,0.2,3.8,1.7,5.3c0.2,0.2,0.3,0.6,0.2,0.8l-9.3,3.7l-6.7,2.7l-5.2,2.1l-6.3,2.5
		c-1.1,0.4-1.9-0.3-1.9-0.3c-0.1-0.2-0.2-0.5-0.4-0.6c-0.8-1.5-1.9-2.5-3.2-3.3c-0.7-0.4-1.4-0.9-2.1-1.4c-0.6-0.5-1.9-0.8-1.6-1.5
		c0.4-1,1.6-0.4,2.5-0.3c2.1,0.3,3.4,1.8,5,3c0.5,0.4,1,1,1.9,1.8c-0.2-1.6-0.7-2.5-1.2-3.4c-0.2-0.4-0.6-0.7-0.3-1.1
		c0.4-0.5,0.9-0.1,1.3,0.1c0.9,0.4,1.7,0.9,2.6,1.4c-0.5-1.5-1.7-2.6-2.5-4.2c3.5,0.9,4.5,4.1,6.9,6.2c-2-6.9-6.3-11.1-12.6-13.7
		c7.4-0.4,12.2,3.2,15.6,9.9c-0.1-2.5-0.9-4.2-1.7-5.9c-0.2-0.3-0.5-0.7-0.2-1c0.4-0.4,0.8-0.1,1.2,0.1c1.6,0.9,2.5,2.5,3.8,4.2
		c-0.3-1.3-0.5-2.2-0.7-3.1c-0.1-0.4-0.7-1-0.1-1.3c0.4-0.3,1,0.1,1.3,0.4c0.8,0.6,1.7,1.3,2.8,2.2c-1.4-4.4-2.4-8.6-4.2-12.6
		c-0.2-0.5-1-1.1-0.3-1.6c0.6-0.4,1.1,0.4,1.5,0.7c1.9,1.6,3.3,3.6,4.2,5.9l2.3,5.8c0,0,0.1,0,0.2,0c-0.1-0.9-0.2-1.8-0.2-2.8
		c0-0.3,0-0.6,0.3-0.8c0.5-0.2,0.6,0.2,0.8,0.5c0.6,1.1,1.3,2.2,2.2,3.7c0.4-1.7,0.7-2.9,1.1-4.2c0.1-0.4,0.2-0.9,0.8-0.9
		C1539.2,521.5,1539,522.2,1539.1,522.6L1539.1,522.6z"/>
	<path class="st7" d="M1309.7,387.6c-0.5,1.8-1.2,3.6-0.4,5.5c0.1,0.3,0.1,0.7-0.2,0.8l-10-0.2l-7.2-0.1l-5.6-0.1l-6.8-0.1
		c-1.2,0-1.7-1-1.7-1c0-0.3,0-0.5-0.1-0.8c-0.2-1.7-0.8-3-1.7-4.3c-0.5-0.7-1-1.4-1.4-2.1s-1.4-1.4-0.9-2c0.8-0.7,1.7,0.2,2.4,0.7
		c1.8,1,2.5,3,3.4,4.7c0.3,0.6,0.6,1.3,1,2.4c0.4-1.5,0.4-2.6,0.2-3.6c0-0.4-0.3-0.9,0.1-1.2c0.6-0.3,0.9,0.3,1.2,0.6
		c0.6,0.7,1.2,1.5,1.9,2.3c0.1-1.6-0.6-3-0.7-4.9c2.9,2.2,2.6,5.5,4,8.4c0.8-7.1-1.5-12.7-6.3-17.5c7,2.5,10,7.7,10.6,15.2
		c0.9-2.3,0.8-4.2,0.7-6.1c0-0.4-0.2-0.8,0.2-1c0.5-0.2,0.8,0.2,1,0.5c1.2,1.4,1.3,3.2,1.9,5.4c0.2-1.3,0.4-2.3,0.5-3.2
		c0.1-0.5-0.3-1.2,0.4-1.2c0.5-0.1,0.8,0.5,1.1,0.9c0.5,0.9,1.1,1.9,1.7,3.2c0.4-4.6,1.2-8.9,1-13.2c0-0.6-0.5-1.4,0.3-1.6
		c0.7-0.1,0.9,0.8,1.1,1.3c1.1,2.2,1.6,4.6,1.5,7.1l-0.1,6.2c0,0,0.1,0.1,0.2,0.1c0.3-0.8,0.5-1.7,0.9-2.6c0.1-0.2,0.2-0.6,0.6-0.6
		c0.5,0,0.5,0.5,0.5,0.8c0.2,1.3,0.3,2.5,0.6,4.2c1-1.4,1.8-2.4,2.6-3.4c0.3-0.3,0.6-0.8,1.1-0.6
		C1310.2,386.6,1309.8,387.1,1309.7,387.6L1309.7,387.6z"/>
	<path class="st7" d="M1307.9,387.6c0.5,1.8,1.2,3.6,0.4,5.5c-0.1,0.3-0.1,0.7,0.2,0.8l10-0.2l7.2-0.1l5.6-0.1l6.8-0.1
		c1.2,0,1.7-1,1.7-1c0-0.3,0-0.5,0.1-0.8c0.2-1.7,0.8-3,1.7-4.3c0.5-0.7,1-1.4,1.4-2.1s1.4-1.4,0.9-2c-0.8-0.7-1.7,0.2-2.4,0.7
		c-1.8,1-2.5,3-3.4,4.7c-0.3,0.6-0.6,1.3-1,2.4c-0.4-1.5-0.4-2.6-0.2-3.6c0-0.4,0.3-0.9-0.1-1.2c-0.6-0.3-0.9,0.3-1.2,0.6
		c-0.6,0.7-1.2,1.5-1.9,2.3c-0.1-1.6,0.6-3,0.7-4.9c-2.9,2.2-2.6,5.5-4,8.4c-0.8-7.1,1.5-12.7,6.3-17.5c-7,2.5-10,7.7-10.6,15.2
		c-0.9-2.3-0.8-4.2-0.7-6.1c0-0.4,0.2-0.8-0.2-1c-0.5-0.2-0.8,0.2-1,0.5c-1.2,1.4-1.3,3.2-1.9,5.4c-0.2-1.3-0.4-2.3-0.5-3.2
		c-0.1-0.5,0.3-1.2-0.4-1.2c-0.5-0.1-0.8,0.5-1.1,0.9c-0.5,0.9-1.1,1.9-1.7,3.2c-0.4-4.6-1.2-8.9-1-13.2c0-0.6,0.5-1.4-0.3-1.6
		c-0.7-0.1-0.9,0.8-1.1,1.3c-1.1,2.2-1.6,4.6-1.5,7.1l0.1,6.2c0,0-0.1,0.1-0.2,0.1c-0.3-0.8-0.5-1.7-0.9-2.6
		c-0.1-0.2-0.2-0.6-0.6-0.6c-0.5,0-0.5,0.5-0.5,0.8c-0.2,1.3-0.3,2.5-0.6,4.2c-1-1.4-1.8-2.4-2.6-3.4c-0.3-0.3-0.6-0.8-1.1-0.6
		C1307.4,386.6,1307.8,387.1,1307.9,387.6L1307.9,387.6z"/>
	<path class="st8" d="M1811.7,470.9c-0.3,1.8-0.5,3.6-0.3,5.4c0,0.8,0.1,1.7,0.3,2.5c0,0.2,0.1,0.4,0.1,0.7c0.2,0.5,0.2,1-0.4,1
		h-0.5l-28.6,0.1h-0.5c-0.3-0.2-0.4-0.6-0.3-0.9c0.2-0.3,0.4-0.7,0.5-1c0.3-0.8,0.4-1.6,0.4-2.5c0-2.3-0.9-4.5-1.5-6.8
		c-0.1-0.5-0.6-1.1,0.1-1.5c0.6-0.3,0.9,0.4,1.3,0.7c1.8,1.6,3,3.7,4.4,5.7c0-5.8-2.9-10.7-5.2-16.1c3.4,1.4,7.1,7.7,9.8,16.2
		c0.7-1,0.7-2,1-3c0.2-0.5,0.1-1.3,0.8-1.2c0.7,0,0.7,0.8,0.8,1.3c0.3,1.1,0.6,2.2,1.2,3.2c0.1-1.7,0.3-3.4,0.4-5.1
		c0.1-0.8-0.4-2,0.5-2c0.9-0.1,0.9,1.2,1.2,1.8c0.4,0.9,0.7,1.9,1.1,3.2c1.4-3.8,1.9-7.3,2.2-11c0.1-1.8,0.1-3.5,0.1-5.3
		c0-0.5,0-1.1,0.5-1.2c0.7-0.2,1,0.4,1.3,0.7c0.9,1.1,1.1,2.5,1,3.9c-0.2,3.1-0.5,6.3-0.8,9.4c-0.1,1.1-0.1,2.2-0.3,3.7
		c2.1-2.1,2.4-4.7,3.6-7c0.1,0.1,0.3,0.1,0.5,0.2c0.2,2.3,0.3,4.6,0.5,7.2c1.4-3.1,2.5-5.8,3.8-8.6c0.5-1.1,1.2-2.2,1.9-3.3
		c0.3-0.4,0.6-1.2,1.4-0.8c0.6,0.4,0.2,1,0,1.5C1812.7,464.8,1812.2,467.8,1811.7,470.9L1811.7,470.9z"/>
</g>
</svg>
