<?xml version="1.0" encoding="utf-8"?>
<!-- Generator: Adobe Illustrator 28.2.0, SVG Export Plug-In . SVG Version: 6.00 Build 0)  -->
<svg version="1.1" id="Calque_1" xmlns="http://www.w3.org/2000/svg" xmlns:xlink="http://www.w3.org/1999/xlink" x="0px" y="0px"
	 viewBox="0 0 1920 700" style="enable-background:new 0 0 1920 700;" xml:space="preserve">
<style type="text/css">
	.st0{fill:#8E9ECC;}
	.st1{fill:#E9764B;}
	.st2{fill:#DDBE78;}
	.st3{fill:#E4AD5D;}
	.st4{fill:#9A5F34;}
	.st5{fill:#E2925D;}
	.st6{fill:#D39C6E;}
	.st7{fill:#DDA672;}
</style>
<g id="ciel">
	<rect class="st0" width="1920" height="700"/>
	<ellipse class="st1" cx="1768.3" cy="118" rx="86.2" ry="86.3"/>
</g>
<g id="dunes">
	<path class="st2" d="M1005.8,288.7c5.2,2.8,12.8,17.4,18.8,36.2c12.4,39.2,18,96.7-18.8,103.9c-8.2,1.6-15.2,5.2-21.2,10.2
		c-33.6,28.1-34.8,99.4-34.8,99.4l-169.4-9.9l-25.3-259.4c0,0,134.8-74.5,307-51.3C1004.3,210.6,989.8,280.2,1005.8,288.7z"/>
	<path class="st3" d="M1170.6,551.4l-220.7-12.9c0,0,1.2-71.3,34.8-99.4c6-5,13-8.6,21.2-10.2c36.7-7.2,31.2-64.7,18.8-103.9
		c-6-18.8-13.5-33.5-18.8-36.2c-16.1-8.5-1.5-78.1,56.3-70.9h0c63.8,8.6,132.8,30.7,202,74.9
		C1519.8,456.4,1170.6,551.4,1170.6,551.4z"/>
	<path class="st3" d="M2006.2,497.3c0,0-1.6-1.7-4.7-4.7c-33.1-33-233.7-227.3-363-226.9c-141.3,0.3,12.4,358.9,12.4,358.9
		l355.3-122.8"/>
	<path class="st2" d="M1436.3,629.7V335.8c0,0,146.3-80.1,219.1-69.7c29.7,4.3,47.3,23.6,37.6,69.7
		c-33.3,158.8,111.8,99.4,111.8,99.4s172.3-7.2-24.7,136.3c-197.1,143.5-343.7,62.7-343.7,62.7V629.7L1436.3,629.7z"/>
	<path class="st3" d="M569.9,349.7c0,0-1.6-1.7-4.7-4.7c-33.1-33-233.7-227.3-363-226.9c-141.3,0.3,12.4,358.9,12.4,358.9
		l355.3-122.8"/>
	<path class="st2" d="M0,482V188.2c0,0,146.3-80.1,219.1-69.7c29.7,4.3,47.3,23.6,37.6,69.7c-33.3,158.8,111.8,99.4,111.8,99.4
		s172.3-7.2-24.7,136.3C146.7,567.3,0,486.5,0,486.5V482L0,482z"/>
	<path class="st4" d="M561.7,249.9c0,0,118.6-23.1,441.9,92.3c19.8,176.9-96.4,120-96.4,120l-335,33.1l-27.1-241.7L561.7,249.9z"/>
	<path class="st5" d="M907,467.8c0,0-309.6-77.1-290.8-189.7c18.8-112.6-463,130.7-463,130.7l15.9,179l302.6-13.1l71.3-3.1
		l373.9-16.2L907,467.8L907,467.8z"/>
	<path class="st4" d="M1178.2,290.5c0,0,176.1-15.4,499.4,100c210,87.4,174.6,149.3,174.6,149.3h-661l-27.1-241.7L1178.2,290.5z"/>
	<path class="st6" d="M0,344.3c0,0,454-60.6,874.5,275.4V700H0V344.3z"/>
	<path class="st5" d="M1524.7,479.7c0,0-265.1-89-326.4-190.1c-67.6-13.5-427.5,131.1-427.5,131.1l15.9,179l302.6-13.1l71.3-3.1
		l373.9-16.2L1524.7,479.7L1524.7,479.7z"/>
	<path class="st7" d="M1919.7,480.9l0.9,368.2l-1373.1-9.5L314.2,700c194.6-51.9,676-208.3,951.3-226.1
		C1507.5,458.2,1733,461.9,1919.7,480.9z"/>
</g>
</svg>
