<?xml version="1.0" encoding="utf-8"?>
<!-- Generator: Adobe Illustrator 28.2.0, SVG Export Plug-In . SVG Version: 6.00 Build 0)  -->
<svg version="1.1" id="salinas_grandes" xmlns="http://www.w3.org/2000/svg" xmlns:xlink="http://www.w3.org/1999/xlink" x="0px"
	 y="0px" viewBox="0 0 1920 700" style="enable-background:new 0 0 1920 700;" xml:space="preserve">
<style type="text/css">
	.st0{fill:#9FD8F5;}
	.st1{fill:#683B11;}
	.st2{fill:#FFFFFF;}
	.st3{fill:#EFF7FC;stroke:#FFFFFF;stroke-width:2;stroke-miterlimit:10;}
	.st4{fill:#ECECEC;}
	.st5{fill:#EFF7FC;}
	.st6{fill:none;}
</style>
<rect class="st0" width="1920" height="380.8"/>
<path class="st1" d="M1920,355.6v25c-7.3,0-16.1-0.1-26.1-0.1c-19-0.1-42.8-0.1-70.8-0.2h-0.1c-62.3-0.1-145.1-0.2-241.8-0.2
	c-417.9-0.2-1094.1,0.2-1481.8,0.5c-35.8,0-69.1,0-99.5,0.1v-34.2c32-5.6,65.7-11.5,99.5-17.5c131.7-23.3,264.9-47.6,301-56.9
	c77.3-19.8,173.2-31.2,173.2-31.2L715,209.4c0,0,61.3,14.3,93.3-22.8c32-37.1,111.9-45.7,170.6-22.9
	c58.6,22.9,189.2,74.2,189.2,74.2s80,5.7,122.6,5.7c42.6,0,135.9,26.7,135.9,26.7s80-9.9,109.3,1.7c29.3,11.6,119.9,40.1,119.9,40.1
	s90.6-8.6,122.6-5.7c15.8,1.4,70.9,19.8,115.5,37.9C1903.2,348.2,1912.1,352,1920,355.6z"/>
<rect y="380.8" class="st2" width="1917.8" height="319.2"/>
<polygon class="st3" points="975,700 276,700 279.2,641.4 490.3,603.7 860.2,625.2 873,633.6 879.8,638 954,686.3 961.6,691.3 "/>
<polygon class="st3" points="507.8,536.8 487.3,603.7 241.3,641.4 99.5,632.2 0,625.8 0,530.5 3,530.2 76,523.1 76,523.1 
	99.5,520.8 159.6,515 349.1,515 "/>
<polygon class="st3" points="641.1,531.4 946.4,550.5 1011.7,581.5 860.2,625.2 490.3,603.7 507.8,536.8 "/>
<polygon class="st3" points="641.1,531.4 913.2,540.4 935.8,470.1 826.2,425.4 525.1,429.5 371.7,515 "/>
<polygon class="st3" points="556.1,409.9 353.4,511.1 180.9,511.1 99.5,520.4 76,523.1 3.5,531.4 3,530.2 0,523.1 0,432.4 
	99.5,424.8 417.5,400.6 "/>
<polygon class="st3" points="263.8,651.6 263.8,700 0,700 0,642.4 99.5,645.9 "/>
<polygon class="st3" points="1610.4,700 925.6,700 961.6,691.3 981.9,686.3 1022.3,676.5 1051,674.6 1059.3,674.1 1358.2,654.6 "/>
<polygon class="st3" points="1910.7,700 1643.5,700 1642.6,698.4 1707.5,693.1 1874.9,679.4 1893.9,690.3 "/>
<polygon class="st3" points="1917.8,589.9 1917.8,700 1813.1,700 1707.5,693.1 1651.5,689.4 1373.7,639.8 1433.7,593.7 
	1673.4,561.8 1893.9,587.2 "/>
<polygon class="st3" points="893.1,583.8 1022.3,668 1358.2,645.3 1419.5,595.9 1200.2,532.9 1048.5,538.9 "/>
<polyline class="st3" points="1382.1,497.3 1642.6,522.5 1665,561.8 1419.5,589.7 1150.7,517.2 1382.1,497.3 "/>
<polyline class="st3" points="1048.5,538.9 981.6,507.1 1062.6,444.1 1229.5,437.1 1373.7,470.7 1382.1,497.3 "/>
<polygon class="st3" points="1727.7,459.5 1775.4,499.4 1642.6,522.5 1382.1,497.3 1373.7,470.7 1558.4,444.1 "/>
<polygon class="st3" points="1917.8,384.4 1917.8,428.8 1893.9,435.9 1889.8,437.1 1727.7,459.5 1558.4,444.1 1392.8,402.8 
	1575.4,380.8 1581.3,380.1 1584.7,379.7 1808.8,379.7 1823.1,380.3 1823.1,380.3 1834.6,380.8 1893.9,383.4 "/>
<polygon class="st3" points="1917.8,438.1 1917.8,479 1893.9,447.4 1886.9,438.1 "/>
<polygon class="st3" points="1653.2,526.2 1670.5,557.7 1883.5,585.4 1768.3,506.2 "/>
<polygon class="st3" points="1738.7,463.1 1781.2,499.9 1917.8,506.2 1877.1,444.1 "/>
<polygon class="st3" points="1920,534.1 1920,587.7 1917.8,586.4 1893.9,572.7 1771.6,502.7 1893.9,509.7 1917.8,511.1 "/>
<g>
	<polygon class="st4" points="1035.2,575.1 1062.3,686.3 1053.9,686.3 1028.9,584.1 893,584.1 868,686.3 860.1,686.3 887.3,575.1 	
		"/>
	<polygon class="st0" points="1028.9,584.1 1053.9,686.3 868,686.3 893,584.1 	"/>
	<polygon class="st4" points="1005.9,482.2 1023,549.6 1014.9,549.6 1000.4,488.2 921.5,488.2 907,549.6 896.1,549.6 913.1,482.2 	
		"/>
	<polygon class="st0" points="1000.4,488.2 1014.9,549.6 907,549.6 921.5,488.2 	"/>
	<polygon class="st4" points="984.4,429.7 992.9,466.1 989.7,466.1 982,433.4 939.9,433.4 932.1,466.1 929.5,466.1 938,429.7 	"/>
	<polygon class="st0" points="982,433.4 989.7,466.1 932.1,466.1 939.9,433.4 	"/>
	<polygon class="st4" points="974.3,401.3 979.2,419.5 975.3,419.5 971.5,403 950.4,403 946.5,419.5 943.2,419.5 948.1,401.3 	"/>
	<polygon class="st0" points="971.5,403 975.3,419.5 946.5,419.5 950.4,403 	"/>
	<polygon class="st4" points="967.1,385.2 969.3,394.2 968.1,394.2 966.2,386 955.7,386 953.8,394.2 952.6,394.2 954.8,385.2 	"/>
	<polygon class="st0" points="966.2,386 968.1,394.2 953.8,394.2 955.7,386 	"/>
</g>
<polygon class="st5" points="556.1,423 601.2,386.1 932.1,389.8 923.5,449.7 854.3,419.4 "/>
<polygon class="st5" points="989.7,389.8 1009.2,459.5 1049.8,429.7 1156.3,429.7 1140.1,389.8 "/>
<polygon class="st5" points="1156.3,390.2 1175.5,425.4 1251.5,425.4 1363.5,456.1 1504.6,440.7 1385.2,405.8 1338.9,386.1 "/>
<polygon class="st5" points="1373.7,385.3 1392.8,394.3 1486.3,386.1 "/>
<polygon class="st6" points="1920,0 1920,587.7 1917.8,586.4 1917.8,700 0,700 0,0 "/>
</svg>
