<?xml version="1.0" encoding="UTF-8"?>
<svg id="Calque_2" data-name="Calque 2" xmlns="http://www.w3.org/2000/svg" viewBox="0 0 134.03 127.53">
  <defs>
    <style>
      .cls-1 {
        fill: none;
        stroke: #000;
        stroke-miterlimit: 10;
      }

      .cls-2, .cls-3 {
        stroke-width: 0px;
      }

      .cls-3 {
        fill: #1d1d1b;
      }
    </style>
  </defs>
  <g id="Motte">
    <g id="Motte-2" data-name="Motte">
      <path class="cls-2" d="M17.67,54.31c-1.31-2.36-2.7-3.78-2.66-5.15.03-.95,2.4-2.8,3.09-2.54,1.35.5,2.87,2.08,3.11,3.44.16.91-1.74,2.19-3.54,4.26Z"/>
      <g>
        <path class="cls-3" d="M27.72,33.95c.64.5.89,1.1.79,1.81-.11.7-.51,1.5-1.2,2.43-.74,1-1.1,1.52-1.79,2.59-2.75-1.6-4.12-2.4-6.87-4.01.73-1.13,1.1-1.68,1.88-2.74.81-1.1,1.53-1.78,2.12-2.08.6-.29,1.15-.23,1.67.16.42.32.64.69.67,1.09.03.4-.06.82-.26,1.24.48-.49.98-.8,1.49-.91.5-.12,1.01.03,1.51.42ZM23.58,33.38c-.33-.24-.67-.27-1.01-.1-.35.18-.79.62-1.32,1.34-.4.55-.59.82-.98,1.39.8.5,1.21.75,2.01,1.25.35-.52.53-.77.89-1.27.49-.68.78-1.21.83-1.61.06-.4-.08-.73-.43-.99ZM26.81,34.98c-.26-.2-.52-.29-.78-.27-.25.02-.52.13-.81.35-.28.22-.66.64-1.12,1.26-.41.57-.62.85-1.02,1.44.93.58,1.4.87,2.33,1.44.3-.44.46-.66.77-1.09.49-.67.81-1.17.97-1.52.15-.34.21-.64.15-.9-.05-.26-.22-.5-.5-.71Z"/>
        <path class="cls-3" d="M30,27.75c-.13.06-.29.18-.48.35-.28.26-.49.56-.65.89-.15.34-.26.79-.32,1.36,1.23,1.1,1.85,1.65,3.08,2.75-.32.33-.48.5-.8.84-1.82-1.55-2.73-2.33-4.55-3.88.36-.38.54-.57.9-.94.29.26.43.39.72.65.04-.44.13-.87.25-1.3.13-.42.37-.81.72-1.14.24-.22.46-.37.66-.44.18.34.27.51.46.85Z"/>
        <path class="cls-3" d="M37.74,27.86c-.18-.23-.28-.35-.46-.58-.12.41-.27.8-.44,1.14-.17.35-.43.66-.78.94-.51.41-1.02.61-1.53.59-.51-.02-.96-.22-1.33-.61-.28-.3-.44-.6-.48-.93-.04-.33.04-.67.22-1.03.19-.36.54-.79,1.06-1.29.54-.49.82-.73,1.38-1.2l-.18-.23c-.28-.36-.61-.5-.98-.44-.37.07-.78.27-1.24.63-.41.32-.67.62-.8.9-.12.28-.18.52-.16.72-.45.12-.67.18-1.12.31-.05-.39.05-.81.31-1.25.26-.44.67-.89,1.24-1.34.88-.69,1.63-1.03,2.21-1.07.58-.03,1.1.26,1.56.86.98,1.28,1.46,1.92,2.44,3.21-.37.26-.55.39-.92.65ZM35.86,25.51c-.36.3-.53.46-.88.77-.6.52-.95.97-1.07,1.32-.12.35-.05.66.2.94.24.26.49.38.76.36s.56-.16.89-.42c.14-.11.25-.23.35-.38s.19-.3.27-.46c.08-.16.15-.33.21-.5.06-.17.12-.34.18-.5-.36-.45-.54-.68-.9-1.13Z"/>
        <path class="cls-3" d="M43.76,22.35c.27.48.27.96.02,1.44-.25.48-.73.91-1.45,1.32-.49.28-.98.46-1.47.54-.49.08-.92.05-1.3-.12.2-.35.3-.53.51-.88.57.21,1.18.12,1.84-.26.44-.25.72-.49.86-.75.14-.26.14-.51,0-.75-.08-.14-.19-.24-.32-.28-.13-.05-.3-.06-.51-.03-.21.02-.62.12-1.19.31-.82.27-1.47.42-1.93.37-.46-.05-.83-.26-1.1-.65-.3-.43-.34-.9-.1-1.42.24-.52.73-1,1.48-1.42.58-.33,1.13-.51,1.63-.55.5-.04.91.03,1.23.18-.26.34-.39.51-.64.86-.58-.22-1.19-.15-1.82.21-.36.2-.63.44-.79.71-.17.26-.16.52,0,.77.15.22.36.32.64.3.27-.02.67-.13,1.17-.29.81-.26,1.4-.39,1.75-.4.35-.02.65.04.89.17.24.12.44.33.6.63Z"/>
        <path class="cls-3" d="M49.85,19.77c.2.51.14.98-.17,1.43-.31.44-.84.81-1.6,1.12-.52.21-1.02.33-1.51.34-.49.02-.91-.08-1.26-.28.24-.32.37-.48.62-.8.53.28,1.14.27,1.85-.02.46-.19.77-.4.94-.63s.2-.48.09-.74c-.06-.15-.16-.26-.28-.32-.12-.06-.29-.1-.49-.1-.21,0-.62.04-1.21.15-.84.16-1.5.22-1.95.11-.45-.11-.78-.37-1-.79-.24-.46-.22-.93.08-1.41.3-.48.85-.89,1.64-1.21.62-.25,1.18-.36,1.68-.33.5.03.89.15,1.19.34-.3.3-.45.46-.74.77-.54-.29-1.15-.3-1.82-.03-.38.15-.67.35-.87.59-.2.24-.23.49-.1.76.12.24.31.36.59.37.27.01.67-.04,1.18-.14.83-.16,1.42-.2,1.77-.17.35.03.63.12.85.28.22.15.39.39.51.7Z"/>
        <path class="cls-3" d="M51.99,17.79c.24.73.57,1.21.97,1.44.4.23.92.25,1.59.08.3-.08.54-.19.74-.35.2-.16.37-.38.52-.67.41.11.62.16,1.03.28-.18.38-.43.69-.75.95s-.78.45-1.39.61c-.97.25-1.76.22-2.4-.12-.64-.33-1.15-.97-1.49-1.93-.36-1.01-.38-1.83-.03-2.47.35-.64,1.06-1.12,2.12-1.39.96-.25,1.73-.2,2.31.12.58.32.96.93,1.16,1.81.05.21.07.31.12.52-1.82.37-2.72.6-4.51,1.12ZM55.2,16.18c-.14-.5-.37-.87-.71-1.09-.34-.22-.81-.26-1.4-.1-.57.15-.95.39-1.15.72-.2.33-.25.78-.16,1.36,1.36-.4,2.05-.58,3.43-.89Z"/>
        <path class="cls-3" d="M61.93,13.75c-.14-.03-.33-.03-.57,0-.36.04-.7.15-1.02.32-.32.17-.67.46-1.05.88.26,1.59.4,2.38.66,3.97-.44.06-.66.1-1.09.17-.44-2.29-.65-3.43-1.09-5.72.49-.08.74-.12,1.23-.19.06.37.09.56.15.93.29-.32.61-.6.96-.86s.76-.41,1.22-.46c.31-.03.57-.02.76.04-.07.37-.1.56-.17.93Z"/>
        <path class="cls-3" d="M64.94,11.11c.01.22-.05.37-.18.46-.13.09-.34.14-.62.15-.31.02-.52-.02-.65-.11-.13-.09-.2-.23-.21-.41-.02-.2.04-.34.16-.44.12-.1.33-.16.62-.18.3-.02.52.02.66.1.13.08.2.22.22.43ZM64.03,18.46c-.18-2.32-.27-3.48-.45-5.8.5-.03.74-.05,1.24-.07.12,2.32.19,3.48.31,5.81-.44.02-.66.03-1.1.06Z"/>
        <path class="cls-3" d="M68.15,15.55c0,.77.15,1.32.45,1.65.3.33.79.51,1.47.54.3.01.57-.03.81-.12.24-.09.47-.26.71-.48.36.22.54.33.89.56-.29.31-.63.54-1.01.69-.38.15-.88.21-1.51.18-1-.04-1.73-.3-2.23-.8-.5-.5-.77-1.26-.78-2.27-.02-1.06.23-1.86.77-2.36.54-.51,1.36-.76,2.46-.71.98.04,1.71.31,2.15.78.45.47.61,1.16.52,2.06-.02.21-.03.32-.05.53-1.85-.17-2.78-.22-4.63-.23ZM71.7,14.94c.03-.52-.07-.93-.32-1.24-.25-.3-.68-.48-1.3-.5-.58-.02-1.03.1-1.32.35-.3.26-.49.67-.59,1.25,1.41.01,2.12.04,3.53.14Z"/>
        <path class="cls-3" d="M77,19.17c1.81-2.8,2.81-4.17,4.98-6.81.7.17,1.05.26,1.74.45.46,3.32.6,4.98.66,8.26-.48-.16-.72-.24-1.19-.39-.03-.85-.05-1.28-.11-2.13-1.45-.43-2.19-.62-3.66-.94-.5.71-.74,1.07-1.22,1.79-.48-.1-.71-.14-1.19-.23ZM80.01,16.79c1.2.27,1.8.42,2.98.76-.13-1.6-.22-2.4-.45-4.01-1.05,1.28-1.56,1.93-2.53,3.24Z"/>
        <path class="cls-3" d="M85.77,21.56c1.27-3.07,1.91-4.61,3.18-7.69.49.18.73.27,1.22.47-1.34,3.05-2.02,4.57-3.36,7.62-.41-.16-.62-.24-1.04-.4Z"/>
        <path class="cls-3" d="M92.34,24.55c.15-.25.23-.38.38-.63-.44.06-.86.08-1.26.07-.4-.01-.79-.12-1.18-.31-.58-.28-.95-.64-1.12-1.09-.17-.45-.14-.92.09-1.4.18-.36.41-.63.71-.79.29-.16.65-.23,1.05-.21.41.02.95.15,1.62.41.67.28,1,.42,1.66.73.06-.1.09-.15.15-.25.23-.39.25-.73.05-1.02-.2-.29-.56-.57-1.07-.83-.45-.23-.84-.34-1.15-.33-.31,0-.56.05-.74.15-.27-.34-.41-.51-.7-.84.35-.2.78-.28,1.3-.23.51.05,1.09.23,1.72.55.98.5,1.6,1.01,1.85,1.5.25.49.17,1.06-.24,1.7-.86,1.35-1.29,2.03-2.16,3.38-.39-.22-.58-.33-.97-.55ZM93.89,21.99c-.43-.19-.64-.28-1.07-.47-.72-.31-1.28-.44-1.66-.41-.38.03-.65.22-.82.54-.16.31-.18.58-.07.8.12.22.36.42.73.61.15.08.32.13.49.16.18.03.36.05.54.05.18,0,.37,0,.56-.02.19-.02.37-.03.55-.04.3-.49.45-.74.74-1.23Z"/>
        <path class="cls-3" d="M98.65,28.66c.23-.27.34-.4.57-.67-.48.01-.95-.03-1.42-.12-.47-.09-.86-.25-1.19-.48-.38-.26-.64-.52-.79-.8-.15-.28-.2-.57-.13-.89.06-.31.24-.69.55-1.12.91-1.29,1.36-1.94,2.27-3.24.43.27.64.41,1.06.69-.83,1.13-1.24,1.69-2.07,2.81-.33.45-.53.78-.58.97-.05.19-.04.36.03.51.07.15.23.31.47.48.24.17.57.29,1.01.37s.89.14,1.36.16c1.08-1.28,1.63-1.93,2.71-3.21.4.31.6.47,1,.79-1.58,1.78-2.37,2.67-3.94,4.45-.35-.29-.53-.43-.89-.7Z"/>
        <path class="cls-3" d="M104.42,33.89c1.07-.92,1.61-1.38,2.68-2.29.43-.37.7-.64.79-.82.09-.18.11-.36.06-.53-.05-.18-.19-.38-.42-.61-.23-.23-.57-.44-1.02-.61-.45-.17-.92-.3-1.4-.38-1.2,1.18-1.81,1.77-3.01,2.95-.34-.31-.51-.47-.85-.77,1.66-1.71,2.49-2.56,4.16-4.27.38.34.57.51.95.87l-.63.62c.46.05.94.17,1.45.36.5.19.93.47,1.28.83.53.55.79,1.08.78,1.55-.01.47-.33.96-.94,1.45-1.24,1.01-1.86,1.51-3.1,2.52-.31-.35-.47-.52-.78-.86Z"/>
        <path class="cls-3" d="M109.13,39.78c.26-.16.38-.24.64-.39-.44-.17-.84-.36-1.21-.57-.37-.21-.69-.5-.97-.87-.41-.55-.6-1.06-.55-1.56s.28-.91.72-1.24c.33-.25.67-.38,1.02-.38.35,0,.71.1,1.08.32.37.22.82.61,1.33,1.18.5.59.74.89,1.23,1.51.1-.06.15-.09.25-.15.39-.24.57-.55.51-.93-.05-.38-.26-.81-.62-1.31-.32-.44-.63-.73-.93-.88-.29-.15-.55-.22-.76-.23-.1-.45-.16-.67-.27-1.12.42-.01.86.12,1.32.42.46.29.92.75,1.36,1.36.7.95,1.04,1.74,1.05,2.33.01.59-.32,1.08-.99,1.47-1.42.83-2.13,1.24-3.54,2.06-.26-.41-.4-.61-.67-1.01ZM111.73,38.17c-.31-.39-.47-.59-.79-.97-.54-.65-1-1.05-1.36-1.2-.37-.16-.7-.12-1.01.1-.29.21-.43.45-.43.71s.14.57.4.92c.11.15.24.28.39.39s.31.22.48.32c.17.1.35.19.53.27.18.08.36.16.54.24.5-.31.75-.46,1.25-.77Z"/>
      </g>
      <g>
        <path class="cls-3" d="M13.3,73.27c.41-.12.61-.19,1.01-.31,1.14,1.29,2.01,2.13,2.57,2.63.56.5,1.06.89,1.48,1.17.42.29.8.47,1.14.58.34.1.66.08.97-.05.34-.15.55-.45.62-.89.07-.44,0-.95-.2-1.55-.19-.56-.43-1-.7-1.31-.28-.31-.58-.55-.92-.72.05-.58.08-.87.14-1.45.54.27.99.68,1.37,1.22.38.54.69,1.21.97,2,.36,1.04.5,1.91.41,2.65-.09.74-.43,1.26-1.03,1.54-.3.14-.61.21-.94.2-.32-.01-.66-.11-1.02-.29-.36-.19-.8-.47-1.31-.85-.51-.39-1.57-1.27-3.12-2.91.81,2.61,1.27,3.87,2.29,6.26-.33.16-.5.24-.83.4-1.34-3.15-1.93-4.81-2.9-8.32Z"/>
        <path class="cls-3" d="M22.03,89.12c-.55.39-.83.59-1.38.99-.33-.52-.49-.79-.81-1.32.56-.38.84-.57,1.4-.95-1.23-2.08-1.81-3.17-2.86-5.46.34-.18.52-.27.86-.45,2.79,1.36,4.18,1.88,6.94,2.65.26.44.4.66.67,1.1-1.65,1.18-2.47,1.77-4.11,2.94.34.54.51.8.86,1.32-.28.21-.42.32-.7.53-.36-.53-.53-.8-.87-1.34ZM24.95,85.33c-2.04-.62-3.07-1-5.12-1.94.8,1.64,1.23,2.43,2.14,3.95,1.19-.81,1.79-1.21,2.98-2.01Z"/>
        <path class="cls-3" d="M30.79,96.79c-.93,1.02-1.84,1.55-2.75,1.53-.91-.01-1.86-.56-2.8-1.66-.94-1.11-1.36-2.18-1.28-3.14.08-.96.66-1.87,1.72-2.74,1.06-.87,2.02-1.24,2.88-1.17s1.66.59,2.47,1.55c.81.96,1.21,1.85,1.18,2.75-.03.9-.5,1.86-1.42,2.88ZM29.75,95.71c.74-.77,1.16-1.48,1.26-2.11.1-.63-.11-1.23-.62-1.84-.51-.6-1.05-.88-1.66-.85-.61.03-1.32.39-2.13,1.09-.81.7-1.28,1.38-1.39,2.03-.12.66.11,1.34.67,2.01.58.68,1.19.98,1.81.93.62-.06,1.31-.48,2.06-1.26Z"/>
        <path class="cls-3" d="M39.54,102.59c-.09-.11-.24-.24-.45-.38-.31-.21-.64-.35-1-.44-.36-.09-.82-.12-1.4-.11-.92,1.35-1.37,2.02-2.29,3.37-.44-.33-.66-.49-1.09-.83,1.37-1.92,2.05-2.87,3.43-4.79.39.31.59.45.98.75-.22.32-.32.47-.54.79.44-.02.86,0,1.29.04.43.04.83.19,1.21.45.26.17.44.34.56.51-.28.26-.42.39-.7.65Z"/>
        <path class="cls-3" d="M43.1,110.28c.15-.32.22-.48.36-.8-.49.1-1.01.12-1.54.07-.53-.05-1.01-.19-1.43-.42-.48-.27-.84-.55-1.06-.86-.23-.3-.33-.63-.32-.97.01-.34.15-.74.41-1.2.77-1.38,1.16-2.07,1.93-3.45.42.25.63.38,1.05.62-.66,1.23-.98,1.85-1.64,3.08-.27.5-.41.85-.43,1.06-.02.2.03.39.14.55.11.16.32.32.61.48.29.16.69.26,1.17.29.48.03.97.02,1.45-.04.69-1.53,1.03-2.29,1.72-3.82.43.21.65.31,1.09.51-.93,2.19-1.39,3.28-2.31,5.46-.49-.22-.73-.33-1.21-.57Z"/>
        <path class="cls-3" d="M48.6,109.54c-.26.74-.28,1.33-.05,1.77.23.44.73.8,1.49,1.05.34.11.65.15.94.13.29-.03.59-.13.89-.3.36.31.54.47.91.77-.38.25-.81.4-1.28.45-.47.05-1.08-.03-1.8-.27-1.15-.38-1.92-.94-2.3-1.64-.38-.7-.37-1.53,0-2.5.39-1.02.92-1.66,1.59-1.96.67-.3,1.49-.27,2.48.06.89.3,1.51.71,1.85,1.27.34.56.41,1.28.18,2.18-.05.21-.08.32-.13.53-1.93-.52-2.89-.83-4.78-1.54ZM52.4,110.01c.13-.52.11-.95-.07-1.32-.18-.36-.55-.63-1.13-.82-.55-.18-1-.2-1.36-.05-.36.15-.68.49-.97,1.01,1.4.52,2.1.76,3.53,1.18Z"/>
        <path class="cls-3" d="M63.96,115.68c.01-.24.02-.35.03-.59-.31.2-.68.36-1.12.47s-.9.15-1.38.1c-.97-.1-1.68-.47-2.13-1.08-.44-.61-.58-1.41-.44-2.39.14-.96.53-1.69,1.12-2.19.59-.5,1.33-.7,2.24-.61.73.07,1.38.34,1.97.82.07-1.19.1-1.79.17-2.98.45.03.68.04,1.14.05-.11,3.38-.17,5.07-.28,8.46-.53-.02-.8-.03-1.33-.06ZM64.22,111.07c-.62-.46-1.23-.73-1.85-.79-.54-.05-1.01.08-1.4.41-.39.33-.64.88-.74,1.67-.19,1.49.34,2.33,1.61,2.45.41.04.82,0,1.2-.13.39-.13.72-.28,1.01-.47.07-1.26.1-1.89.17-3.15Z"/>
        <path class="cls-3" d="M68.78,112.89c.02.79.21,1.34.58,1.67.37.32.95.46,1.75.41.35-.02.66-.11.92-.24s.5-.34.72-.61c.44.16.67.23,1.12.38-.26.38-.6.68-1.02.91-.42.23-1.01.37-1.76.43-1.2.08-2.11-.15-2.71-.65-.59-.5-.88-1.28-.89-2.32,0-1.09.26-1.9.77-2.43.51-.53,1.28-.81,2.32-.88.94-.06,1.65.09,2.17.48.52.39.84,1.04.95,1.96.03.22.04.33.06.54-1.98.24-2.98.32-4.97.38ZM72.46,111.88c-.06-.53-.24-.93-.54-1.2-.3-.27-.74-.38-1.34-.34-.57.04-.99.19-1.27.47-.28.28-.46.71-.54,1.31,1.48-.04,2.21-.09,3.69-.24Z"/>
        <path class="cls-3" d="M80.41,114.2c-.76-3.29-1.13-4.94-1.89-8.23.44-.11.66-.16,1.1-.28.83,3.27,1.24,4.91,2.08,8.19-.51.14-.77.2-1.29.33Z"/>
        <path class="cls-3" d="M88.61,111.51c-.11-.28-.16-.41-.27-.69-.28.4-.59.76-.92,1.08-.33.32-.75.57-1.24.75-.73.26-1.35.29-1.85.09-.5-.2-.82-.57-.97-1.09-.12-.39-.11-.75.01-1.07.12-.32.35-.62.67-.89.32-.27.82-.57,1.5-.89.69-.31,1.03-.47,1.7-.81l-.11-.27c-.17-.42-.43-.65-.78-.69-.35-.03-.79.05-1.32.25-.47.18-.81.37-1.02.59-.21.22-.35.43-.41.62-.44-.06-.66-.09-1.1-.16.12-.38.38-.73.76-1.04.38-.31.89-.58,1.52-.82.98-.37,1.73-.52,2.26-.41.54.11.96.5,1.25,1.21.62,1.49.93,2.23,1.55,3.72-.49.22-.74.32-1.23.53ZM87.51,108.71c-.44.22-.67.33-1.12.55-.76.36-1.28.67-1.55.97-.26.3-.34.63-.23.98.11.34.3.54.57.61s.64.02,1.09-.14c.19-.07.36-.16.53-.28.16-.12.32-.25.46-.4.15-.15.28-.3.41-.46.13-.16.25-.32.36-.48-.21-.54-.32-.81-.53-1.35Z"/>
        <path class="cls-3" d="M103.71,102.04c-.87-1.08-1.3-1.62-2.17-2.69-.37-.45-.63-.73-.79-.84-.16-.11-.32-.14-.48-.1-.16.04-.35.16-.58.35-.19.17-.37.4-.54.72-.16.31-.34.78-.53,1.4.97,1.36,1.45,2.03,2.41,3.39-.43.34-.65.5-1.09.83-.78-1.15-1.17-1.73-1.95-2.88-.31-.46-.55-.75-.7-.88-.16-.13-.31-.18-.47-.17-.16.02-.36.11-.6.28-.22.16-.43.41-.65.75-.21.35-.41.76-.59,1.25.85,1.43,1.28,2.15,2.13,3.59-.46.29-.69.44-1.15.72-1.16-2.06-1.74-3.09-2.9-5.15.42-.25.62-.38,1.03-.65.18.3.27.45.45.76.13-.42.31-.83.53-1.23.22-.4.51-.73.88-1,.41-.29.78-.46,1.13-.49s.68.08.99.34c.13-.51.28-.98.47-1.42.19-.44.47-.82.85-1.14.35-.3.67-.49.98-.56.3-.07.6-.05.88.08.28.13.6.4.95.81,1.01,1.2,1.52,1.79,2.53,2.99-.41.38-.61.57-1.03.94Z"/>
        <path class="cls-3" d="M109.14,91.81c.77.65,1.17,1.4,1.16,2.25,0,.86-.41,1.79-1.23,2.74-.81.95-1.64,1.47-2.44,1.56-.8.1-1.54-.25-2.23-1.01-.71-.77-1.02-1.56-.96-2.37.06-.8.45-1.6,1.18-2.45.73-.85,1.45-1.36,2.21-1.49.76-.13,1.53.11,2.31.76ZM108.27,92.95c-.59-.52-1.14-.76-1.63-.71-.49.04-.96.34-1.43.88-.48.56-.71,1.09-.69,1.61.01.52.29,1.07.84,1.64.53.55,1.04.83,1.55.82.5,0,1.03-.32,1.57-.94.51-.6.75-1.18.72-1.72-.03-.54-.34-1.06-.91-1.57Z"/>
        <path class="cls-3" d="M115.18,87.79c-.19.57-.44,1.11-.74,1.6-.48.8-.97,1.26-1.44,1.41-.47.15-.96.01-1.49-.39-1.03-.79-1.55-1.18-2.59-1.96-.26.39-.4.59-.66.97-.25-.2-.37-.3-.62-.5.27-.38.4-.57.65-.95-.51-.39-.77-.59-1.28-.98.29-.43.43-.64.71-1.08.52.38.78.56,1.31.94.44-.7.66-1.06,1.08-1.79.26.17.4.26.66.44-.43.74-.65,1.1-1.1,1.81.99.72,1.49,1.07,2.48,1.79.38.27.69.41.93.4.24,0,.5-.22.76-.66.23-.37.39-.76.49-1.14.34.03.51.05.85.08Z"/>
        <path class="cls-3" d="M118.02,82.09c-.14.61-.34,1.19-.6,1.73-.41.88-.86,1.42-1.31,1.63-.45.21-.96.14-1.53-.2-1.11-.67-1.66-1-2.77-1.66-.23.43-.34.65-.58,1.07-.27-.17-.4-.25-.67-.42.23-.42.35-.63.57-1.05-.55-.33-.82-.5-1.37-.83.25-.47.37-.71.61-1.2.56.31.84.47,1.39.79.38-.77.57-1.17.92-1.96.28.14.42.22.7.36-.36.81-.55,1.21-.94,1.99,1.06.6,1.59.9,2.65,1.5.4.23.73.33.97.29s.48-.29.7-.77c.19-.41.32-.82.39-1.23.34,0,.51-.01.85-.03Z"/>
        <path class="cls-3" d="M116.59,78.33c.69.3,1.26.32,1.71.04.45-.28.84-.89,1.16-1.83.14-.42.21-.81.21-1.16,0-.36-.07-.72-.21-1.09.34-.45.5-.69.83-1.16.21.47.32,1,.32,1.59,0,.59-.13,1.34-.43,2.22-.48,1.41-1.1,2.34-1.81,2.8-.71.46-1.52.45-2.43.03-.95-.45-1.52-1.08-1.74-1.87-.22-.8-.11-1.78.3-3,.37-1.1.83-1.88,1.4-2.32s1.28-.55,2.12-.3c.2.06.3.09.5.15-.68,2.45-1.07,3.63-1.94,5.9ZM117.41,73.69c-.49-.15-.91-.11-1.28.12s-.66.7-.9,1.41c-.23.67-.29,1.22-.18,1.65.11.43.41.81.88,1.15.64-1.68.94-2.55,1.48-4.33Z"/>
      </g>
      <path class="cls-2" d="M66.91,127.52C29.58,127.46-.11,99,0,63.38.11,28.21,30.26-.33,67.43,0c36.84.33,65.19,27.59,66.54,60.9,1.61,39.68-31.93,67.03-67.06,66.63ZM32.97,10.74c-.79.78-1.55,1.82-2.58,2.52-12.71,8.66-21.42,19.99-25.65,34.38-.42,1.43-1.27,2.76-1.92,4.16.06,1.28.34,2.74.18,4.16-2,16.91,2.23,32.18,13.29,45.62,10.29,12.5,23.79,20.37,40.15,22.87,14.48,2.21,28.59.23,41.62-6.85,11.22-6.1,19.97-14.42,26.07-25.27,4.89-8.7,7.71-19.89,7.5-29.61-.01-.54.44-1.07.57-1.63.13-.53.29-1.13.16-1.63-.45-1.69-1.26-3.32-1.53-5.04-1.25-8.12-4.11-15.81-8.65-22.62-8.44-12.66-20.16-21.76-35.37-26.46-1.1-.34-2.04-1.17-2.83-1.64-1.42,0-2.75.2-4-.03-15.07-2.84-29.39-.87-43.04,5.82-1.22.6-2.64.84-3.97,1.25Z"/>
      <path class="cls-2" d="M123.87,43.14C109.86,10.87,75.5,1.91,53.98,8.06,18.12,18.29,4.53,42.29,8.91,76.6c-4.55-7.59-2.63-31.57,7.97-45.84C32.94,9.12,60.41-.02,86.78,8.06c17.03,5.22,37.3,23.98,37.1,35.09Z"/>
      <path class="cls-2" d="M30.1,45.34c3.01-11.25,20.3-21.78,35.49-22.17,18.87-.49,36.14,11.26,42.15,28.27,4.94,14-.9,32.65-9.13,38.89,15.64-24.34,13.81-45.58-12.98-61.43-9.54-5.64-20.6-5.85-31.38-2.44-10.53,3.33-18.56,9.69-24.15,18.87Z"/>
      <path class="cls-1" d="M126.39,76.07c-4.05,17.87-14.79,31.12-31.99,39.63-19.06,9.43-40.68,6.61-48.59,1.95,39.64,8.98,66.57-4.77,80.58-41.58Z"/>
      <path class="cls-2" d="M27.75,49.5c-6.4,25.27,2.88,42.79,28.06,52.53-3.06,1.43-13.86-4.31-20.13-10.69-12.93-13.16-13.5-32.17-7.93-41.85Z"/>
      <path class="cls-2" d="M43.94,116.59c-12.5-.43-35.85-25.75-34.87-37.74,5.85,17.42,17.35,30.07,34.87,37.74Z"/>
      <path class="cls-2" d="M125.25,47.91c2.81,7.72,3.57,15.63,1.78,23.7-.59-7.9-1.18-15.8-1.78-23.7Z"/>
      <path class="cls-2" d="M57.49,102.59h19.47c-2.76,2.33-16.17,2.45-19.47,0Z"/>
      <path class="cls-2" d="M79.61,102.03c5.67-3.31,11.56-6.74,17.11-9.98-.56,3.06-12.52,10.25-17.11,9.98Z"/>
      <path class="cls-2" d="M118.29,48.39c-1.48.95-2.3,1.87-3.12,1.87-.69,0-1.39-1.06-2.09-1.66.74-.68,1.38-1.68,2.25-1.91.58-.15,1.48.8,2.96,1.7Z"/>
      <path class="cls-2" d="M84.6,51.04c.37-.07.73-.14,1.1-.21.04.29.1.58.11.87.09,3.49.17,6.98.26,10.47.08,3.13.21,6.27.26,9.4,0,.66.21,1.1.75,1.5.58.43,1.1.95,1.64,1.43-.98-.7-1.95-1.4-3-2.15-.3.3-.61.61-.92.92.04.04.07.07.11.11.24-.27.47-.54.7-.8,2.26,1.8,4.33,3.46,6.41,5.12.02-.03.05-.07.07-.1l-1.18-1.23c.34.2.71.36,1,.61.71.63,1.49.57,2.64.28-.7-.53-1.24-.94-1.78-1.35.05-.05.1-.1.15-.15.27.23.59.42.79.69.94,1.31,2.29.81,3.53.77.34,0,.67-.03.88-.04-.12.83-.3,1.49-.31,2.15-.03,2.37-.01,4.73-.01,7.27-6.65.72-13.24,1.43-19.67,2.12.25-3.48-.02-6.77.12-10.06-.08,0-.16-.01-.24-.02-.05.35-.09.7-.17,1.28-.08-.6-.13-.96-.18-1.32-.07,0-.14,0-.21.01v9.91c-.85-.12-1.57-.22-2.29-.32,0-.07.02-.13.02-.2.64.07,1.28.13,2.05.21v-8.61c-.75-.04-1.56-.09-2.45-.14,0,2.63,0,5.23,0,7.83,0,.29-.14.58-.33.84.4-1.37.1-2.76.09-4.12,0-1.32.35-2.73-.27-3.98-.14.02-.28.03-.43.05v7.81c-2.04.16-4,.32-5.95.47,0,.07.01.14.02.22,1.74-.13,3.49-.26,5.23-.39,0,.06.01.12.02.18-1.88.21-3.75.42-5.66.63-.01-.11-.05-.39-.08-.67-.03,0-.07,0-.1,0-.02.29-.04.57-.06.86-.03,0-.06,0-.09,0-.04-.35-.08-.7-.13-1.06-.09,0-.18-.02-.27-.02-.08.44-.15.87-.27,1.54-.11-.49-.18-.76-.26-1.11-.56,1.04-.55,1.09-2.04,1.26-2.93.35-5.86.63-8.89.95.26-.32.53-.51.53-.71.02-3.76.01-7.53,0-11.29,0-.04-.06-.09-.23-.32-.08.55-.13.95-.19,1.34-.03,0-.06,0-.09,0-.03-.39-.07-.77-.1-1.19-.42-.05-.8-.1-1.18-.15-.01.05-.03.1-.04.15.26.05.52.09.86.16v2.59s-.07,0-.11.01v-2.34c-.08-.01-.17-.03-.25-.04-.07.25-.19.49-.19.74,0,2.93.02,5.87.02,8.8,0,.4-.09.81-.21,1.2,0-3.11.02-6.22-.02-9.33,0-.38-.31-.75-.47-1.13,0,0,.03.03.03.03-.1-.54-.19-1.09-.26-1.5.56.13,1.27.38,2,.45.43.04,1.03-.09,1.31-.37,1.76-1.74,3.46-3.55,5.35-5.52-.62,0-1.03.01-1.44,0-1.99-.06-3.98-.07-5.96-.21-.99-.07-1.61.28-2.18.95-.37.42-.82.78-1.24,1.18v-5.07c-.6-.09-.6-.09-.61.52,0,1.38,0,2.76,0,4.14-.08,0-.16,0-.24,0v-1.85c-2.78-.18-5.5-.36-8.22-.54.32-.11.64-.22.96-.33-.01-.03-.03-.07-.04-.1h-1.91s0,.1,0,.15c.2.04.4.08.69.15-.33.14-.54.23-.76.32l.13.25c.32-.16.64-.31.96-.47.16.18.33.36.56.62-.17.08-.47.22-.78.37.04.05.07.1.11.14.09-.18.18-.36.26-.54-.06-.06-.12-.11-.17-.17-.45.39-.89.79-1.35,1.2,0-1.12.02-2.19-.02-3.27,0-.24-.21-.47-.32-.7-.12.25-.34.49-.36.75-.04.94-.02,1.89-.14,2.86-.08-.4-.15-.8-.23-1.19-.83-.22-1.43.04-1.98.63-.9.96-1.86,1.87-2.8,2.8-.07-.07-.15-.14-.22-.21,1.19-1.13,2.34-2.29,3.6-3.35.3-.25.94-.13,1.5-.19.04-.69.07-1.39.11-2.15.54-.04,1.04-.04,1.52-.12.38-.06.75-.2,1.13-.31-.28-.23-.56-.45-.88-.71.08-.04.24-.13.4-.22.17.1.34.27.52.28,1.98.08,3.96.14,5.94.19.19,0,.45-.05.57-.18.57-.54,1.09-1.11,1.64-1.67v.02c.23.03.53-.02.69.1.39.28.76.62,1.07.99.17.21.19.53.27.8.08.25.15.51.22.76.13-.22.35-.43.36-.66.15-3.79.28-7.58.41-11.37.1-2.96.19-5.92.28-8.89.01-.47,0-.95,0-1.51-.42.06-.8.11-1.18.16-.01-.04-.03-.08-.04-.12.36-.11.73-.22,1.09-.33,0-.04,0-.08,0-.12-.23.01-.45.03-.68.04-.01-.03-.03-.06-.04-.1.29-.11.59-.21.88-.32,0-.03-.02-.07-.03-.1h-.49c.15-.32.47-.69.42-1.01-.04-.23.67-1.02-.18-.83.05-.18.15-.4.17-.61.22-2.87.43-5.73.65-8.74.57,0,1.06-.04,1.54.02.18.02.44.24.49.41.16.66.33,1.33.36,2,.12,2.55.18,5.09.27,7.68.6.03,1.16.05,1.71.08,0,.01,0,.02,0,.04-.52.03-1.03.06-1.62.09v.73h1.73v.11c-.58.04-1.17.09-1.75.13,0,.07,0,.13,0,.2.13.03.26.05.26.05-.13.45-.25.9-.4,1.42.32,0,.47,0,.62,0,.12,0,.24.01.38.11-.29.08-.58.16-.91.25.27,8.1.53,16.17.8,24.31h3.64v-9.96c-.34-.07-.71-.14-1.08-.22-.04-.1-.07-.2-.11-.3.8-.36,1.61-.72,2.41-1.09-.63.37-1.25.74-1.97,1.17h9.77c-.42-.36-.71-.59-.99-.83l1.61.82c0,.08-.01.16-.02.24-.36.04-.72.08-1.17.12v7.82c.79.05,1.55.09,2.35.14.08-1.64.19-3.17.23-4.7.15-5.65.28-11.3.39-16.95,0-.31-.15-.62-.25-.96-.09,0,.07,0,.06,0,.08-.27.22-.5.17-.69-.08-.3-.28-.56-.43-.83.05,0,.25-.03.44-.05,0-.04,0-.09,0-.13-.22-.05-.45-.09-.82-.17.36-.09.6-.16.89-.23-.19-1.39.45-2.83-.17-4.3-.09.06.04,0,.15-.1.06-.05.09-.14.18-.28-.23.01-.38.02-.69.04.29-.22.47-.36.66-.5-.02-.04-.04-.09-.06-.13-.29.09-.57.18-.86.27.6-.27.92-.69.96-1.3.04-.66.51-.72,1.04-.7-.73.15-.87.64-.88,1.25-.05,2.78-.12,5.57-.2,8.35-.18,6.69-.36,13.39-.54,20.08-.02.66,0,1.31,0,1.97.09,0,.18,0,.27.01.05-.92.1-1.84.15-2.75.08,0,.17,0,.25.01v2.73c.08,0,.16.01.24.02.07-.55.14-1.11.21-1.66.03,0,.07,0,.1,0,.04.56.09,1.12.13,1.68.12,0,.24,0,.37,0v-3.23h.35v3.18c.08,0,.16,0,.24,0-.13-7.46-.27-14.92-.4-22.37.08,0,.16,0,.24,0,.17,7.44.33,14.89.5,22.33.09,0,.19,0,.28,0-.14-6.17-.28-12.34-.42-18.51.07,0,.13,0,.2,0,.18,6.2.36,12.4.54,18.6h.3c-.06-1.27-.15-2.52-.18-3.77-.21-8.82-.42-17.65-.6-26.47-.02-.84-.24-1.35-1.18-1.4.44.14,1.22.21,1.26.42.15.76.61,1.01,1.29,1.18-.34-.05-.68-.1-1.29-.19.16,2.14.3,4.19.5,6.24.02.27.31.51.47.75-.12-.02-.35-.05-.58-.09-.05.05-.1.1-.16.15.14.11.28.21.35.27-.03.08-.17.24-.17.4.04,3.68.08,7.35.14,11.02.02,1.15.11,2.31.12,3.46.02,2.66,0,5.32,0,8.1,1.61,0,2.96,0,4.31,0,.87,0,1.74-.04,2.61-.03.55,0,.74-.2.75-.74.11-4.94.26-9.89.39-14.83.03-1.13.06-2.25.1-3.38.08.57.23,1.15.21,1.72-.15,5.45-.31,10.9-.54,16.34-.04,1.06.49,1.58,1.28,2.14-.13-6.57-.26-13.05-.39-19.54.07,0,.14,0,.21,0,.17,6.79.34,13.58.51,20.38.1,0,.19,0,.29,0-.22-7.01-.45-14.03-.67-21.1-.32.03-.62.07-.92.1ZM63.74,74.45c-.49-.54-.99-1.09-1.43-1.57-.4.28-.76.46-1.03.73-.95.96-1.88,1.94-2.8,2.93-.44.48-.85.98-1.27,1.48-1.27.7-1.48,2.56-.51,3.26.66-.07,1.21-.12,1.75-.18.01.12.02.24.03.35-.73.08-1.46.17-2.3.26v7.01c.37.04.75.07,1.03.1-.25-.23-.7-.44-.71-.67-.06-1.47-.03-2.94-.03-4.42.07.05.14.09.22.14.3-.26.74-.46.85-.78.22-.61.54-1,1.22-1.01.66-.01,1.02.35,1.13.95-.25-.17-.49-.34-.9-.63.16.75.28,1.34.41,1.92-.3.25-.82.48-.86.76-.12,1.06-.09,2.14-.09,3.21,0,.06.19.12.3.18-.51.33-.66.09-.66-.37-.01-.89-.04-1.78-.02-2.67.02-.72-.22-1.6.99-1.72-.29-.4-.55-.75-.95-1.3-.21.82-.52,1.5-.55,2.19-.07,1.66-.02,3.32.01,4.98,0,.23.22.45.33.67.09-.22.2-.43.25-.66.04-.15,0-.33,0-.5.57-.06,1.08-.11,1.68-.18-.17-.28-.28-.46-.39-.63.43.1.85.19,1.28.29.01-.07.03-.13.04-.2-.25-.04-.5-.08-.9-.15v-5.2c.17.16.34.32.51.49.18-.2.43-.37.51-.6.37-1.02,1.01-1.25,1.92-.65-.12.27-.35.56-.33.82.04.53.22,1.05.34,1.57-.23-.13-.41-.23-.59-.34-.12.2-.35.39-.36.6-.04.94-.02,1.89-.03,2.83,0,.12-.05.25-.08.41.22-.02.39-.03.57-.05-.1-.18-.17-.31-.24-.43.07-.05.13-.09.2-.14.25.28.5.56.75.83-.52-.03-1.03-.06-1.64-.1,0-1.29-.04-2.56.03-3.82.01-.25.41-.49.63-.73.09-.1.28-.2.28-.29-.03-.41-.11-.81-.18-1.25-1.07.37-1.19,1.19-1.2,2.01-.02,1.76.03,3.52.06,5.29,0,.14.1.27.16.41.07,0,.13-.01.2-.02.05-.32.09-.65.12-.87.54-.24,1.02-.45,1.51-.66.31-.09.63-.18.94-.28-.9.11-.73-.48-.77-.98-.12-1.63-.27-3.25-.41-4.87.09.08.2.14.27.23.21.28.4.58.6.87.16-.3.26-.65.49-.88.3-.29.73-.65,1.08-.64.36.01.74.42,1.04.71.3.3.52.67.77,1.01.09-.04.19-.08.28-.13v3.78s.07,0,.11,0v-6.45c-.25.27-.4.43-.55.6-.01-.09-.03-.17-.04-.26-1.31.08-2.63.15-4.22.25.04,0-.17.06-.38.05-.19-.01-.37-.12-.55-.18l-.02.02c.27-.17.54-.34.81-.52.03.08.06.15.09.23.33-.07.65-.19.98-.21.54-.04,1.09-.02,1.64-.03.45,0,.97-.16,1.34,0,.62.27.83-.15.93-.45.56-1.66-.11-3.06-1.85-4.01-.62-.59-1.25-1.19-1.87-1.78ZM78.69,79.07c-.05.28-.14.56-.15.84-.02,2.48-.03,4.97-.04,7.45,0,.27,0,.54,0,.81.07,0,.13,0,.2,0,.04-.55.08-1.1.12-1.65.07,0,.13,0,.2,0v1.7c.95-.07,1.8-.14,2.64-.18,1.25-.06,1.48-.43.89-1.74-.2.5.15,1.26-.71,1.26-.8,0-1.6,0-2.47,0v-9.15c-.06-.02-.11-.05-.17-.07-.18.25-.37.49-.55.74l.03-.03ZM88.24,75.17c-.56-.52-1.13-1.03-1.81-1.66.08.54.13.89.18,1.23.21-.13.4-.25.7-.43.1.48.17.85.24,1.19.24-.12.47-.24.7-.36.08.42.16.84.23,1.26.2-.14.37-.27.6-.44.13.34.22.58.31.82.87-.48.58.35.79.65.95-.58.39.5.83.51.25.04.56.17.56.3.03,2.75.02,5.49.02,8.37-.71.05-1.36.1-2.01.14-.13-.35-.21-.58-.3-.82-.04,0-.07.02-.11.03v1.29c.78-.12,1.55-.39,2.25-.28.65.1.74-.02.74-.55-.03-2.6-.03-5.21-.06-7.81,0-.24-.07-.58-.25-.72-1.19-.93-2.42-1.82-3.63-2.73ZM71.6,81.22c-.14.04-.29.08-.43.12.27.51-.32,1.2.36,1.63.47.3.95.59,1.5.93.18,1.64.02,1.87-1.16,1.6-.27.32-.52.63-.95,1.15.85.45,1.66.88,2.69,1.43,0-2.68.05-5.01-.05-7.33-.02-.36-.68-.7-1.05-1.05-.62-.16-.94-.01-.85.67.03.28-.04.57-.07.85ZM62.54,72.21c.84.7,1.87.86,2.93,1h-1.41l-.02.22c.31.05.61.13.92.15.35.03.71,0,1.14,0v-11.57c-.37.03-.68.05-1.18.09.31.23.44.33.63.47-.87.38-1.66.61-2.52.04-.17-.11-.54.06-.81.09.02.09.03.19.05.28.27.05.54.09.84.15-.31.08-.58.15-.8.21v6.04c.23.04.46.09.82.15-.39.1-.64.16-.95.24.28.66-.44,1.49.61,1.94.05.17-1.23-.07-.22.49.14.31.2.7.43.93,1.44,1.38,2.91,2.73,4.38,4.08.11.1.27.16.41.23.06-.07.13-.14.19-.21-.25-.17-.53-.31-.74-.51-1.57-1.5-3.12-3.02-4.67-4.53ZM82.66,76.36c-.11-.24-.23-.48-.34-.72-.24.1-.53.16-.7.32-.55.5-1.18,1-.65,1.85-.21.35-.42.7-.65,1.1-.17-.07-.38-.15-.55-.23v8.74h.19c.05-.31.1-.63.16-1.03.08.42.14.75.2,1.07.08-.01.16-.02.24-.03.03-.25.07-.5.12-.94.11.43.17.69.23.94.06,0,.12,0,.17,0,.04-.33.09-.66.15-1.13.1.45.16.75.23,1.05.05,0,.1,0,.15,0,.06-.18.12-.37.17-.53.1.18.18.33.26.49.05-.01.1-.03.16-.04v-1.1c.23-.03.47-.06.71-.08q1.41-.1,1.41-1.44c0-1.33,0-2.66,0-4,.06,0,.12,0,.18,0v6.34c-.2-1.41.91-1.05,1.69-1.16.35-.05.68-.22,1.07-.36.02.31.04.79.06,1.27,0-.97.54-1.15,1.41-1.12.37.01.76-.22,1.23-.38.15.37.33.82.52,1.28.05-.01.09-.02.14-.03.04-.32.09-.65.12-.89.13.25.28.53.43.81.09-.31.25-.62.25-.93.02-2.31.01-4.62.01-7.01-.89.61-.61-.25-.8-.52-.08.07-.16.13-.23.2-.22-.24-.45-.49-.7-.77-.74.44-.39-.48-.66-.7-1.04.49-.71-.41-.89-.84-.16.12-.38.21-.38.3-.02,1.22-.02,2.44-.02,3.65-.1,0-.21,0-.31,0v-4.8c-1.28.66-.99-.28-1.09-.65h-1.17c-.05.29-.11.61-.19,1.05-.32-.22-.52-.35-.79-.53-.04.46-.08.85-.12,1.37-.34-.17-.57-.28-.74-.36-.12.4-.25.82-.38,1.23-.09-.02-.18-.05-.27-.07v-.64ZM56.91,72.01c.14,0,.28,0,.41-.01-.31-11.82-.62-23.63-.93-35.53-.13.19-.2.28-.33.47-.13-.38-.21-.61-.29-.86.28-.03.55-.05.83-.08v-1.02s-.08,0-.12,0c-.02.25-.04.5-.06.75-.03,0-.07.01-.1.02-.1-.35-.2-.7-.31-1.07-.11.11-.18.19-.26.27-.77-.8-.8-.14-.83.4-.13,2.36-.27,4.71-.35,7.07-.28,8.52-.53,17.05-.79,25.57,0,.3,0,.6,0,.9h.3c.05-.75.11-1.51.16-2.28.03,0,.06,0,.1,0,.2,1.76.41,3.52.61,5.28.06,0,.12,0,.19-.01v-2.88c.07,0,.15,0,.22-.01.05,1.01.1,2.02.15,3.03.11,0,.22-.01.33-.02v-5.74c.09,0,.19,0,.28,0,0,.65,0,1.29,0,1.94,0,.68.02,1.36.04,2.04.02.58.05,1.16.07,1.73.11,0,.22,0,.34,0v-10.81h.36v10.87ZM76.54,74.19c.09-.15.2-.35.31-.54-.05-.06-.1-.13-.15-.19-.55.24-1.1.48-1.62.7.1-.15.21-.33.35-.55-2.78-.11-5.49.03-8.33-.45-.45.37-1.07.89-1.72,1.42,1.04.99,2.01,1.95,3.01,2.87.18.16.49.25.75.26,2.86.17,5.72.33,8.58.47.31.01.7-.07.95-.24,1.44-.98,2.58-2.27,4.24-3.07,1.03-.5,1.67-1.73,2.58-2.73-2.14-.15-2.95,1.59-4.53,2.49.34-.38.53-.59.91-1.02-1.41.39-2.7-.42-3.79.57.1-.16.19-.31.29-.47-.05-.07-.09-.15-.14-.22-.55.23-1.1.46-1.68.7ZM67.8,71.54c4.37.08,8.57.1,12.76.28,1.46.07,2.17-.64,2.99-1.66-.47,0-.8,0-1.14,0-3.73,0-7.47.06-11.2-.03-1.35-.03-2.39.31-3.41,1.41ZM49.26,71.66v-3.47c-.24.31-.36.47-.48.63-.12-.16-.21-.28-.4-.54-.08.51-.13.85-.18,1.18-.08.04-.16.07-.24.11-.26-.4-.53-.8-.84-1.28-.35.49.15,1.27-.79,1.17v-1.06c-.09-.04-.17-.08-.26-.11-.15.22-.29.44-.44.66-.12.17-.24.34-.35.51-.13-.19-.26-.38-.38-.57-.12-.2-.23-.41-.45-.81-.26.72.19,1.55-.87,1.34v1.93l.19.03c.09-.15.18-.31.15-.25.31.1.57.26.81.24.17-.01.33-.26.37-.3,1.25.71,2.71.25,4.16.59ZM93.57,85.32c.07.56.12.98.18,1.41.08,0,.16,0,.24-.01.05-.22.1-.45.15-.68.11.23.21.45.42.89v-8.76c-.06,0-.13-.02-.19-.02-.08.2-.15.39-.23.58-.07-.21-.15-.42-.3-.85-.32.85.01,1.25.26,1.8.33.72.15,1.66.19,2.5-.06,0-.12,0-.18,0-.03-.44-.05-.89-.08-1.33-.07,0-.15,0-.22,0-.05.46-.11.93-.15,1.31-.17-.56-.41-1.15-.53-1.77-.06-.31.12-.66.16-.99.05-.39.07-.79.11-1.18-.09,0-.18,0-.27-.01-.08.28-.17.56-.27.91-.06-.37-.1-.64-.14-.92-.05,0-.11.01-.16.02v8.64c.1,0,.19.01.29.02.04-.56.08-1.12.12-1.69h.19v1.59c.09,0,.18,0,.27.01.04-.45.08-.89.13-1.47ZM57.62,71.96c.12,0,.24,0,.35-.01-.36-11.79-.73-23.59-1.09-35.38-.09,0-.17,0-.26,0,.33,11.8.67,23.59,1,35.39ZM97.05,78.01c-.13,0-.25,0-.38.01.16,2.77-.26,5.54.11,8.3.1,0,.2,0,.29,0v-5.18c.08,0,.16,0,.24,0v5.11c.07,0,.14,0,.21,0v-8.25c-.07,0-.13-.01-.2-.02-.06.58-.12,1.17-.18,1.73-.03-.56-.06-1.13-.09-1.71ZM95.5,86.53c.11,0,.22,0,.33,0v-4.08c.24,0,.54,0,.54,0,.02-.58.02-1.17.02-1.81-.28.13-.42.19-.69.31v-2.89c-.06,0-.13,0-.19,0v8.47ZM64.58,83.32c-.05-.16-.1-.35-.23-.77v7.04c.08,0,.16,0,.24,0v-.99c.6-.11,1.11-.2,1.62-.29-.01-.07-.02-.13-.03-.2h-1.52c0-1.35-.02-2.65.01-3.94,0-.35.11-.75.69-.67.06,0,.16-.18.23-.28-.03-.06-.07-.12-.1-.17-.3.09-.6.17-.91.26ZM94.91,86.65c.07,0,.14,0,.22,0v-8.56c-.07,0-.14,0-.22,0v8.56ZM66.4,87.58c0-.95.07-1.84-.02-2.72-.08-.79-.3-1.58-.55-2.34-.06-.18-.51-.38-.72-.33-.22.05-.36.39-.47.52.48.21,1.03.29,1.09.5.19.66.22,1.36.25,2.05.04.87,0,1.75,0,2.73.52-.07.86-.12,1.2-.17,0-.05,0-.1-.01-.15-.23-.03-.46-.05-.77-.09ZM65.85,84.18c-.13-.02-.26-.04-.38-.06-.92,1.15-.14,2.54-.35,3.85.35-.22.69-.51.71-.81.07-.99.03-1.99.03-2.98ZM69.38,63.65c0,.12,0,.25,0,.37h-2.88c0,.11.01.22.02.32h3.33v-1.11c-.67.06-1.3.11-1.92.17v.25h1.45ZM69.36,67.85c0,.08.01.17.02.25-.69.06-1.39.12-2.08.18,0,.1.01.19.02.29.86.05,1.72.09,2.58.14v-1.1h-3.43c0,.08,0,.16,0,.25h2.89ZM67.04,65.39c.12.24.15.37.19.38.82.06,1.65.12,2.47.14.08,0,.16-.24.24-.37-.63-.22.14-.5-.07-.78h-1.98l-.05.24c.39.1.78.2,1.16.3,0,.03,0,.07,0,.1h-1.96ZM66.51,66.08c0,.15,0,.3.01.45.31,0,.61,0,.92,0,.68,0,1.45-.24,1.83.61.04.1.31.1.48.14,0-.16,0-.31.03-.47,0-.08.08-.16.06-.22-.04-.18-.11-.49-.17-.49-1.05-.03-2.1-.02-3.16-.02ZM51.5,72.22c.84.28,2.73-.39,3.04-.89q-2.64-.02-2.7.38c.25.02.52.04.78.06,0,.04-.01.07-.02.11-.3.09-.59.18-1.1.34ZM78.1,73.41c.34,0,.55,0,.76,0,.24-.01.47-.03.7-.05q.17-1.29-1.39-1.29c-.02.4-.04.8-.07,1.34ZM80.31,73.51c.56-.04.97-.07,1.43-.11-.05-.54-.09-.96-.13-1.42-.45.02-.8.04-1.21.06-.03.43-.05.86-.09,1.47ZM76.05,73.31h1.28v-1.32c-.41.02-.75.03-1.19.05-.03.41-.06.8-.09,1.27ZM74.07,72v1.27h1.27c-.03-.47-.06-.86-.09-1.27h-1.18ZM72.08,71.96c-.04.38-.08.77-.12,1.22h1.23c.2-1.16.16-1.2-1.11-1.22ZM71.2,71.9c-.39-.03-.71-.05-1.06-.07v1.34h1.06v-1.26ZM43.15,70.05c0-.06,0-.12,0-.18-.38-.06-.75-.11-1.13-.17,0-.06,0-.13-.01-.19.4-.05.79-.11,1.19-.16,0-.05-.01-.1-.02-.16h-2.34c.47.2.67.29,1.08.46-.44.11-.63.16-.82.21l.03.19h2.01ZM68.24,73.06c.55.05,1.08.29,1.12-.52.04-.88-.53-.73-1.12-.71v1.23ZM86.39,87.57c.71-.08,1.36-.15,1.98-.22v-1.43c-.37,1.22-.38,1.22-1.67,1.06-.06-.27-.12-.54-.18-.82l-.13.02v1.39ZM85.59,86.56c-.29.23-.59.57-.96.72-.91.36-.73-.53-1.04-1.05v1.6c.72-.09,1.37-.16,2-.24v-1.03ZM69.93,69.71h-2.51v.26c.81.31,1.6.28,2.51-.26ZM50.23,71.42s.03,0,.04,0c.06-1.33.13-2.66.19-3.99-.08,0-.15,0-.23,0v3.99ZM68,80.9s-.08.05-.12.08c.76.67,1.51,1.34,2.27,2.01.02,0,.03-.02.05-.03-.73-.69-1.46-1.37-2.2-2.06ZM49.78,68.01s-.04-.03-.07-.04c-.06,1.18-.12,2.36-.18,3.54.08,0,.16,0,.24.01v-3.51ZM66.56,62.71c0,.1.02.21.03.31h3.28q.03-.85-.59-.78c.11.1.21.18.3.26,0,.07,0,.14-.01.21h-3.01ZM92.85,77.7c0,.06.02.12.02.18,1.62-.09,3.23-.18,4.85-.27v-.19c-1.63.09-3.25.18-4.87.27ZM70.2,69.01h-2.04c.64.6,1.06.61,2.04,0ZM96.4,84.32c-.08,0-.16,0-.24,0v2.16c.08,0,.16,0,.24,0v-2.15ZM60.63,84.65c-.07-.03-.14-.05-.21-.08-.08.23-.23.47-.23.7,0,.33.11.66.19.99,0,.02.22.03.25-.01.06-.08.08-.2.08-.3-.02-.43-.05-.87-.07-1.3ZM57.36,89.16c-.17-.04-.33-.08-.5-.12-.05.36-.11.72-.12,1.08,0,.05.23.11.35.17.09-.38.18-.76.27-1.14Z"/>
      <path class="cls-2" d="M42.17,67.67c.88-1.53,2.24-2.1,4.19-1.65,0-.99-.01-1.84,0-2.69.11-6.4.23-12.79.34-19.19,0-.44,0-.82.64-.85.74-.03.68.44.69.88.07,5.69.14,11.37.22,17.06.02,1.36.12,2.72.12,4.08,0,.57.28.7.78.74.56.05,1.12.14,1.69.21v-.02c-1.57-.04-3.15,0-4.72-.13-1.42-.12-2.62.06-3.52,1.21-.11.14-.29.22-.43.33ZM46.93,43.89c-.14,7.44-.28,14.71-.42,21.99h.91c.35-3.02.07-21.52-.5-21.99ZM47.84,47.85v18.01c.11,0,.22,0,.32,0-.13-7.17-.26-14.35-.32-18.01Z"/>
      <path class="cls-2" d="M36.89,77.79c-.07-.22-.11-.37-.21-.69-.17.28-.25.42-.33.56-.04-.14-.08-.29-.16-.6-.12.28-.18.43-.28.65-.1-.21-.18-.39-.29-.61-.17.18-.31.32-.55.58-.15-.5-.28-.91-.4-1.29,3.13.29,6.13.57,9.22.86.1.21.25.52.4.83-.11-.09-.22-.18-.33-.27-.11.17-.23.34-.34.51.06.06.12.12.18.18-.06-.21-.12-.41-.24-.85-.14.4-.21.59-.22.62-.23-.13-.48-.33-.77-.4-.12-.03-.31.24-.42.33-.1-.07-.27-.26-.47-.32-.18-.05-.41.04-.69.07.02.03-.08-.26-.18-.26-.45,0-.89.08-1.38.14.01.04-.07-.26-.09-.26-.8.15-1.55-.12-2.32-.21-.03,0-.09.25-.15.44Z"/>
      <path class="cls-2" d="M44.79,78.21c-.09-.41-.18-.82-.27-1.2,2.62.89,5.45.59,8.17,1.05.31.39.66.82,1,1.24,0,0-.03-.03-.03-.03.06.36.12.72.18,1.09-.03,0-.06,0-.08.01-.28-.53-.55-1.07-.96-1.84-.09.53-.12.77-.18,1.09-.07-.34-.12-.6-.17-.86-.06-.01-.11-.02-.17-.03-.08.21-.15.43-.23.64-.02-.02-.08-.06-.07-.08.22-.7-.67-.33-.77-.72-.76.2-1.49-.07-2.23-.12-.12,0-.26.17-.25.17-.55-.13-1.05-.24-1.59-.37-.04.15-.08.31-.09.33-.29-.13-.58-.3-.89-.39-.06-.02-.22.25-.16.18h-.77c-.15-.05-.29-.11-.44-.16Z"/>
      <path class="cls-2" d="M41.66,86.33c-.94.16-1.29-.11-1.25-.92.05-1.18.01-2.36.01-3.52,1.11-.22,1.24-.14,1.24.79,0,1.21,0,2.41,0,3.65Z"/>
      <path class="cls-2" d="M36.93,85.59c-.8.09-1.22-.07-1.2-.86.03-1.21,0-2.41,0-3.61.94-.17,1.24.13,1.2.92-.06,1.17-.01,2.35-.01,3.55Z"/>
      <path class="cls-2" d="M39.12,81.61v4.36c-.76.11-1.12-.11-1.11-.82.02-1.21,0-2.42,0-3.74.45.08.76.14,1.1.2Z"/>
      <path class="cls-2" d="M53.22,88.28c-1.02.19-1.33-.17-1.28-1.09.08-1.32.02-2.64.02-4.04.49.09.85.16,1.26.23v4.9ZM52.46,83.68c-.08,0-.17.01-.25.02v3.99c.08,0,.17,0,.25,0v-4Z"/>
      <path class="cls-2" d="M44.24,86.81c-.94.07-1.24-.27-1.2-1.07.06-1.19.02-2.38.02-3.65.53.11.85.17,1.19.24v4.48ZM43.59,82.78c-.06,0-.11,0-.17,0v3.17c.06,0,.11,0,.17,0,0-.53,0-1.06,0-1.59s0-1.05,0-1.57Z"/>
      <path class="cls-2" d="M45.85,82.46c.49.09.82.14,1.19.21v4.58c-.86.14-1.25-.08-1.21-.95.07-1.25.02-2.5.02-3.83ZM46.01,86.41c.09.02.18.03.26.05v-3.39c-.09,0-.18,0-.26,0v3.34Z"/>
      <path class="cls-2" d="M48.82,82.78c.53.1.88.16,1.24.23v4.75c-.89.15-1.3-.1-1.26-1,.06-1.29.01-2.58.01-3.97ZM49.03,87.04c.08.01.16.02.24.03v-3.86c-.08,0-.16,0-.24,0v3.83Z"/>
      <path class="cls-2" d="M34.56,75.14c-.28.31-.55.62-.83.93.08-.01.17-.03.25-.04.08.38.19.76.22,1.15.03.29-.07.58-.07.88,0,2.81,0,5.62-.17,8.45-.02-.32-.07-.64-.07-.96,0-2.6,0-5.2,0-7.81,0-.27.09-.61-.04-.78-.75-.94-.07-1.41.71-1.81Z"/>
      <path class="cls-2" d="M87.74,88.38c3.39-.34,6.77-.68,10.16-1.02,0,.07.02.14.03.21-5.28.58-10.56,1.16-15.84,1.74,0-.07-.02-.14-.03-.22,1.9-.24,3.81-.49,5.71-.73l-.03.02Z"/>
      <path class="cls-2" d="M58.94,90.74c4.57-.53,9.15-1.06,13.72-1.59,0,.08.02.16.03.24-4.58.54-9.17,1.07-13.75,1.61,0-.09,0-.17,0-.26Z"/>
      <path class="cls-2" d="M92.33,74.69c1.08.43,2.23-.41,3.05.43-.57-.03-1.17-.08-1.78-.09-.6,0-1.27-.13-1.67.71.35.27.75.57,1.15.88-.1.1-.21.2-.31.3-.2-.28-.37-.59-.61-.84-.9-.91-.91-.9-2.09-.99.13-.05.19-.1.26-.1,1.45-.01,1.27-.02,1.24-1.3,0-.37.16-.74.25-1.11.14.36.33.72.41,1.09.08.34.06.7.08,1.03Z"/>
      <path class="cls-2" d="M87.78,88.37c-1.82.11-3.64.21-5.45.32v-.1c5.07-.57,10.15-1.13,15.23-1.7,0,.06.01.12.02.18-3.01.36-6.02.73-9.04,1.1-.27.03-.53.14-.79.21,0,0,.03-.01.03-.01Z"/>
      <path class="cls-2" d="M73.6,89.78c-3.53.41-7.05.82-10.58,1.22-.01-.08-.02-.16-.03-.24,3.53-.41,7.05-.82,10.58-1.22l.03.24Z"/>
      <path class="cls-2" d="M74.55,35.35c-3.85.21-7.71.42-11.42.63,1.29-.47,2.8-.73,4.32-.45,1.64.31,3.19-.12,4.78-.3.77-.09,1.55-.02,2.33-.02,0,.05,0,.09,0,.14Z"/>
      <path class="cls-2" d="M75.36,83.88h1.27v1.93c-.42-.03-.83-.07-1.27-.1v-1.82Z"/>
      <path class="cls-2" d="M63.29,48.96c1.7-.04,3.15-1.15,5.01-.71.91.22,1.99-.15,2.99-.28.51-.06,1.01-.18,1.52-.2-.69.21-1.36.5-2.06.6-.94.12-1.9.07-2.85.12-.72.04-1.46.07-2.17.19-.81.13-1.6.35-2.39.54-.02-.08-.03-.17-.05-.25Z"/>
      <path class="cls-2" d="M44.79,78.21c.15.05.29.11.44.16.06.82.18,1.64.18,2.46.03,2.28.02,4.56,0,6.84,0,.36-.23.71-.49,1,.11-.44.3-.88.31-1.32.03-2.43.04-4.86,0-7.28-.01-.62-.28-1.23-.43-1.85Z"/>
      <path class="cls-2" d="M67.03,59.33c-.29-.05-.58-.09-1.05-.16.63.66,1.17,1.22,1.71,1.78-.04.03-.07.07-.11.1-.46-.41-.93-.82-1.39-1.24l-.13.08.45.66c-.69.4.19.55.11.84q-.6-.09-.86-2.27c-.38.17-.73.33-1.08.48.75-.9,1.18-.95,2.36-.27Z"/>
      <path class="cls-2" d="M69.66,36.42h-6.53c1.81-.61,4.14-.51,6.53,0Z"/>
      <path class="cls-2" d="M48.99,80.13c.39.07.72.13,1.07.19v.98c-1.25.11-1.34.02-1.07-1.17Z"/>
      <path class="cls-2" d="M53.23,81.69h-1.19v-1.18c.41.07.78.13,1.19.2v.98Z"/>
      <path class="cls-2" d="M68.27,90.76c1.91-.25,3.82-.49,5.72-.74.01.07.02.14.03.22l-5.73.72c0-.07-.02-.13-.03-.2Z"/>
      <path class="cls-2" d="M74,36.21c1.96.3,3.9,1.37,5.92.19-2.02,1.33-3.97.47-5.92-.19Z"/>
      <path class="cls-2" d="M46.02,79.81c.32.06.65.12,1.01.19,0,.32,0,.6,0,.88-1.21.13-1.33.01-1.01-1.08Z"/>
      <path class="cls-2" d="M41.62,79.24v.91c-.33-.02-.71.07-.89-.07-.21-.17-.25-.54-.45-1.04.63.09.97.14,1.35.2Z"/>
      <path class="cls-2" d="M63.14,46.57c-1.53-.14-3.06-.28-4.59-.43,0-.06,0-.12.01-.17,1.53.12,3.05.23,4.58.35,0,.08,0,.17,0,.25Z"/>
      <path class="cls-2" d="M57.59,33.58c1.78.25,3.57.74,5.31-.12-1.74,1-3.52.53-5.31.12Z"/>
      <path class="cls-2" d="M75.7,82.05c0-.71-.02-1.24.02-1.76,0-.09.41-.25.49-.2.38.26.17,1.49-.51,1.96Z"/>
      <path class="cls-2" d="M63.56,47.9c-1.47-.09-2.95-.17-4.42-.26,0-.06,0-.12,0-.18,1.48.07,2.96.14,4.44.21,0,.08-.02.16-.02.24Z"/>
      <path class="cls-2" d="M44.24,80.43h-1.09v-.99c.42.07.74.13,1.09.19v.8Z"/>
      <path class="cls-2" d="M57.61,74.97c.68-.7,1.36-1.4,2.04-2.1-.06-.06-.12-.11-.18-.17h1.26c-.05-.05-.11-.09-.16-.14-.97.83-1.93,1.66-2.9,2.49-.02-.02-.04-.05-.06-.07Z"/>
      <path class="cls-2" d="M62.85,46.88q3.59-1.01,4.33-.72c-1.39.23-2.86.47-4.33.72Z"/>
      <path class="cls-2" d="M37.06,79.5c-.54-.06-.86-.09-1.24-.13v-.83c.29,0,.66-.1.8.02.21.18.27.53.44.93Z"/>
      <path class="cls-2" d="M60.33,33.04c-1.39.07-2.78-.68-4.17-.01,1.37-.88,2.78-.21,4.17.01Z"/>
      <path class="cls-2" d="M51.6,77.01c1-.83,2-1.66,3-2.49-.01-.01-.03-.03-.04-.04-1,.83-2,1.67-2.99,2.5l.04.04Z"/>
      <path class="cls-2" d="M85.12,89.28c1.34-.13,2.67-.27,4.01-.4,0,.07.02.14.03.21-1.33.13-2.66.27-3.99.4-.01-.07-.03-.14-.04-.21Z"/>
      <path class="cls-2" d="M39.13,79.76h-1.03c-.02-.29-.03-.58-.05-.9.7,0,1.31-.06,1.08.9Z"/>
      <path class="cls-2" d="M71.66,37.53c-.8.19-1.59.43-2.4.55-.43.06-.89-.1-1.14-.14,1.07-.12,2.31-.26,3.56-.4h-.02Z"/>
      <path class="cls-2" d="M97.32,88.13c-1.12.15-2.25.29-3.37.44-.01-.08-.02-.15-.03-.23,1.13-.15,2.27-.29,3.4-.44,0,.08,0,.15,0,.23Z"/>
      <path class="cls-2" d="M71.04,89.09c-1.02.09-2.05.18-3.07.28-.01-.07-.02-.15-.03-.22,1.03-.11,2.06-.22,3.08-.33,0,.09.01.19.02.28Z"/>
      <path class="cls-2" d="M94.19,89.57c-1.15.13-2.31.26-3.46.39,0-.06-.02-.13-.03-.19,1.15-.14,2.31-.27,3.46-.41l.03.22Z"/>
      <path class="cls-2" d="M74.92,35.78c-1.26.09-2.52.17-3.78.26,0-.06,0-.13,0-.19,1.27-.07,2.53-.14,3.8-.21,0,.05,0,.1,0,.14Z"/>
      <path class="cls-2" d="M69.47,33.23c-1.34-.09-2.69-.18-4.03-.26,0-.06,0-.13.01-.19,1.34.09,2.69.18,4.03.27,0,.06,0,.12-.01.18Z"/>
      <path class="cls-2" d="M95.85,88.85c-1.02.13-2.05.26-3.07.39-.01-.07-.02-.14-.03-.21,1.01-.13,2.03-.26,3.04-.39.02.07.04.14.06.21Z"/>
      <path class="cls-2" d="M62.27,48.61c.98-.17,1.95-.34,2.93-.51.01.07.02.13.04.2-.99.18-1.97.35-2.96.53,0-.07,0-.15-.01-.22Z"/>
      <path class="cls-2" d="M58.38,47.86c1.28.09,2.56.18,3.83.26,0,.06,0,.12,0,.18-1.28-.08-2.56-.15-3.84-.23,0-.07,0-.14.01-.21Z"/>
      <path class="cls-2" d="M44.73,85.8v-4.04s.08,0,.12,0v4.06s-.08-.02-.12-.03Z"/>
      <path class="cls-2" d="M60.14,34.93c1.14-.2,2.28-.41,3.42-.61.01.06.02.12.03.18-1.14.2-2.29.4-3.43.59,0-.05-.02-.1-.03-.16Z"/>
      <path class="cls-2" d="M71.67,37.54c1.18-.26,2.35-.51,3.53-.77.02.09.04.18.06.27-1.2.17-2.4.33-3.6.49,0,0,.01,0,.01,0Z"/>
      <path class="cls-2" d="M82.66,76.36c-.13.2-.36.39-.37.59-.04.72-.31.81-.86.36-.07.33-.14.65-.2.98-.05,0-.1,0-.16-.01-.03-.16-.07-.31-.1-.47-.53-.85.1-1.35.65-1.85.18-.16.47-.21.7-.32.11.24.23.48.34.72Z"/>
      <path class="cls-2" d="M72.52,79.69c.04.81.08,1.61.13,2.42-.12.03-.24.05-.36.08-.23-.32-.46-.65-.69-.97.03-.28.1-.58.07-.85-.09-.68.23-.83.85-.67Z"/>
      <path class="cls-2" d="M75.3,50.45v-11.42s.1,0,.14,0v11.42s-.1,0-.14,0Z"/>
      <path class="cls-2" d="M83.94,85.62h-1.69c0-1.48-.04-2.95.04-4.41.01-.25.58-.67.87-.66.27.01.72.49.74.78.08,1.39.03,2.78.03,4.28ZM83.69,84.91v-3.57c-.15.22-.34.49-.41.58.09.28.26.53.23.76-.03.23-.25.44-.34.58.97.19,0,1.17.52,1.65Z"/>
      <path class="cls-2" d="M87.76,85.24c0-1.48-.05-2.87.04-4.24.02-.28.54-.53.83-.8.25.29.69.57.71.87.08,1.32.03,2.66.03,4.03-.55.05-1.03.09-1.61.13ZM89.1,80.86s-.07.02-.11.03v3.6s.07,0,.11,0v-3.62Z"/>
      <path class="cls-2" d="M85.1,80.73c.08-.04.14-.08.19-.09q1.45-.2,1.46,1.16c0,.86-.05,1.72.02,2.57.07.84-.21,1.23-1.13,1.09-.15-.02-.31,0-.54,0v-4.73ZM86.38,81.94v2.8s.08,0,.12,0v-3.74c-.06,0-.12,0-.18,0-.01.25-.03.5-.05.78-.24.02-.49.04-.73.07,0,.02,0,.04,0,.07.24.01.48.03.83.05Z"/>
      <path class="cls-2" d="M86.39,76.64c.04.82.15,1.64.09,2.45-.06.87-.8.28-1.33.64,0-1.32-.05-2.41.03-3.49.02-.32.4-.61.61-.92.21.3.44.59.62.91.06.11,0,.29-.01.43-.09-.22-.18-.45-.36-.87,0,.93.03,1.63-.01,2.32-.03.44-.07.44.35.7v-2.18Z"/>
      <path class="cls-2" d="M81.48,80.8c-.21.38-.44,1.08-.64,1.08-.85-.02-.37-.73-.46-1.15-.07-.28-.06-.59,0-.87.04-.19.24-.35.37-.52.18.16.45.3.52.5.09.27.02.58.02.87.06.03.13.06.19.09Z"/>
      <path class="cls-2" d="M83.56,79.54h-1.1c0-.48-.07-.93.03-1.35.06-.26.36-.47.56-.7.17.24.44.45.5.71.08.4.02.82.02,1.34Z"/>
      <path class="cls-2" d="M88.05,79.41c0-.44-.06-.84.02-1.2.06-.27.33-.49.5-.74.18.24.46.46.52.73.25,1.1,0,1.38-1.04,1.21Z"/>
      <path class="cls-2" d="M90.05,81.33c0-.58-.03-1.16.02-1.74.01-.17.26-.32.4-.48.12.17.33.33.36.51.05.43.07.88,0,1.31-.03.22-.29.4-.44.6-.11-.07-.23-.13-.34-.2Z"/>
      <path class="cls-2" d="M80.48,85.65c-.33-1.57-.18-2.29.46-2.45v2.02c.06,0,.11,0,.17.01v-1.42c.33,1.74.28,1.85-.63,1.84Z"/>
      <path class="cls-2" d="M90.62,84.94s-.23.06-.55.15c0-.71-.02-1.35.01-1.98,0-.14.14-.32.27-.41.06-.04.25.08.39.13-.08.11-.22.22-.21.32.01.57.06,1.14.1,1.78Z"/>
      <path class="cls-2" d="M84.64,79.45v-3.57s.05,0,.08,0c.06,1.2.11,2.4.17,3.59-.08,0-.16,0-.24-.01Z"/>
      <path class="cls-2" d="M87.17,84.55v-4.12s.05,0,.07,0v4.12s-.05,0-.07,0Z"/>
      <path class="cls-2" d="M86.87,79.44v-3.84s.06,0,.09,0v3.82s-.06.01-.09.02Z"/>
      <path class="cls-2" d="M81.71,82.08v2.91s-.05,0-.08,0v-2.91s.05,0,.08,0Z"/>
      <path class="cls-2" d="M63.75,74.44c.04.31.09.63.1.69.55.47.94.81,1.39,1.19.04-.01.21-.06.38-.1.19.39.28.99.59,1.12.98.4.86,1.16.92,1.89.01.17-.02.35-.08.54.06-2.05-1.8-2.75-3.01-3.89-.59-.56-1.29-1.01-2.06-1.36-.11-.07-.22-.13-.16-.1-1.53,1.44-3.06,2.83-4.5,4.29-.34.35-.42.93-.53,1.48.61-.1,1.26.53,1.64-.27.32.46.76.3,1.18.2.25-.06.48-.19.61-.24.45.12.94.24,1.42.37,0,.04,0,.07.01.11h-4.96c0-.63-.42-1.43.49-2,.06-.04,0-.22.01-.34.17.05.34.09.47.13.11-.23.21-.45.32-.67.07.04.15.08.22.12l.38-.71s.09.07.13.1c.93-1.01,1.85-2.03,2.9-3.17h.86c.03.11.13.4.25.79.17-.21.27-.32.42-.51.05.33.08.58.13.99.21-.28.34-.45.47-.62Z"/>
      <path class="cls-2" d="M61.64,79.56c-.31.02-.55.04-.91.06,0-.72-.03-1.38.02-2.04.01-.16.27-.3.42-.44.16.17.44.32.45.5.06.62.02,1.25.02,1.92Z"/>
      <path class="cls-2" d="M65.48,79.4c.1.82.78.4,1.22.69-1.57.09-3.14.17-4.78.27.05-.34.1-.59.14-.84.03,0,.06,0,.09,0,.03.2.07.39.1.58.53-.03,1.03-.05,1.61-.09v-1.4c.05,0,.11,0,.16-.01v1.35c.47-.41,1.49.62,1.48-.58l-.02.02Z"/>
      <path class="cls-2" d="M63.45,79.29c-.75.42-.93.35-.97-.32-.02-.35-.06-.72.01-1.06.05-.27.24-.53.41-.77.02-.02.42.11.43.18.03.34.09.92-.06.99-1.13.5-.15.65.19.97Z"/>
      <path class="cls-2" d="M62.55,76.16c-1.18.19-1.32.11-1.36-.51.38-.23.74-.44,1.29-.77.03.61.05.95.07,1.28Z"/>
      <path class="cls-2" d="M59.7,78.89c-.17.3-.34.6-.51.89-.16-.19-.49-.42-.45-.56.07-.23.36-.41.56-.61.13.09.26.18.4.27Z"/>
      <path class="cls-2" d="M61.7,81.21c-.72.28-1.45.34-2.2.19.48-.12.89-.73,1.47-.23.02.01.32-.26.55-.46.07.21.12.36.16.52,0,0,.02-.02.02-.02Z"/>
      <path class="cls-2" d="M65.5,79.39c-.29.03-.59.07-.93.1-.03-.22-.12-.4-.07-.54.08-.2.25-.36.38-.54.15.17.33.33.45.52.09.14.1.32.14.48,0,0,.03-.02.03-.02Z"/>
      <path class="cls-2" d="M85.11,70.32v-4.57s.09,0,.13,0v4.6l-.13-.03Z"/>
      <path class="cls-2" d="M94.34,84.82c-.55-.28-1.15-.42-1.17-.62-.05-.55-.33-1.27.76-1.69.13.74.25,1.41.42,2.31Z"/>
      <path class="cls-2" d="M78.65,79.1c.13.1.37.19.38.29.03.82.02,1.65-.19,2.48-.05-.93-.1-1.86-.15-2.8,0,0-.03.03-.03.03Z"/>
    </g>
  </g>
</svg>