<?xml version="1.0" encoding="UTF-8"?>
<svg id="Calque_2" data-name="Calque 2" xmlns="http://www.w3.org/2000/svg" viewBox="0 0 466.42 1186.89">
  <defs>
    <style>
      .cls-1 {
        fill: none;
      }

      .cls-1, .cls-2 {
        stroke-width: 0px;
      }

      .cls-3 {
        opacity: .4;
      }

      .cls-2 {
        fill: #72685A4A;
        fill-rule: evenodd;
      }
    </style>
  </defs>
  <g id="chemin">
    <g>
      <g class="cls-3">
        <g>
          <g>
            <path class="cls-1" d="M0,1.04l.02,1.41.03.76.06,1.43.15,2.34c.05.81.12,1.44.19,2.16l.21,2.09.51,3.93.62,3.78c.89,4.98,1.97,9.78,3.32,14.45,2.65,9.36,6.16,18.33,10.44,26.9l1.63,3.2c.54,1.07,1.1,2.13,1.71,3.15l3.61,6.19c2.6,3.99,5.17,8.01,8.08,11.75,2.78,3.86,5.9,7.38,8.96,10.97,1.58,1.73,3.21,3.4,4.83,5.09l2.44,2.52c.83.82,1.69,1.59,2.54,2.38l61.71-65.5c-.4-.37-.83-.72-1.21-1.1l-1.1-1.17-2.23-2.31c-1.31-1.65-2.8-3.17-3.96-4.89-1.32-1.62-2.36-3.4-3.54-5.09-.5-.89-1.01-1.78-1.53-2.66-.28-.43-.51-.89-.73-1.35l-.69-1.36c-1.81-3.63-3.29-7.42-4.36-11.19-.56-1.88-.95-3.75-1.28-5.48l-.21-1.26c-.04-.38-.09-.76-.15-1.14l-.08-.84c0-.07-.01-.17-.02-.21v.15s.02.89.02.89H0Z"/>
            <path class="cls-2" d="M68.66,55.06l-7.24,5.35,2.39,3.19c.83,1.03,1.71,2.03,2.56,3.05l2.58,3.04,2.76,2.87,6.49-6.24-2.56-2.67-2.39-2.82c-.79-.94-1.6-1.87-2.38-2.83l-2.21-2.96Z"/>
            <polygon class="cls-2" points="55.57 32.12 47.26 35.58 48.89 39.24 49.71 41.06 50.62 42.84 52.44 46.4 54.43 49.86 62.2 45.3 60.35 42.11 58.67 38.82 57.83 37.18 57.08 35.49 55.57 32.12"/>
            <path class="cls-2" d="M48.66,6.82l-8.93,1.14c.7,5.38,1.84,10.61,3.35,15.74l8.64-2.52c-1.39-4.71-2.44-9.53-3.06-14.35Z"/>
          </g>
          <g>
            <path class="cls-1" d="M49.35,105.54c13.55,12.72,28.72,22.85,44.25,30.62,15.55,7.8,31.44,13.32,47.17,17.41l22.7-87.08c-10.66-2.76-20.66-6.32-29.51-10.76-8.86-4.44-16.52-9.74-22.89-15.68l-61.71,65.5Z"/>
            <path class="cls-2" d="M132.95,100.74l-3.13,8.44c1.22.45,2.43.97,3.67,1.36l3.72,1.19c2.48.79,4.95,1.6,7.44,2.36l2.5-8.65c-2.39-.73-4.75-1.51-7.13-2.27l-3.56-1.14c-1.19-.37-2.33-.87-3.5-1.31Z"/>
            <path class="cls-2" d="M108.65,89.63l-4.41,7.84,6.96,3.69c1.15.65,2.36,1.14,3.54,1.7l3.57,1.62,3.67-8.22-3.39-1.54c-1.13-.52-2.28-.99-3.36-1.61l-6.58-3.49Z"/>
            <path class="cls-2" d="M86.86,74.54l-5.84,6.85,6.18,4.98c2.13,1.55,4.3,3.05,6.46,4.58l5.03-7.46c-2.02-1.43-4.06-2.84-6.06-4.29l-5.77-4.65Z"/>
          </g>
          <g>
            <path class="cls-1" d="M140.76,153.58l5.91,1.53c1.97.53,3.92.85,5.88,1.28,3.91.79,7.84,1.66,11.75,2.35l11.67,1.81,2.92.44c.97.14,1.93.22,2.89.33l5.78.62,5.78.61,2.89.3,2.86.19,11.45.71c3.83.29,7.58.29,11.36.39l11.32.22v-89.99l-9.14-.19c-3.04-.08-6.12-.05-9.09-.3l-8.98-.55-2.24-.14-2.2-.24-4.39-.47-4.39-.46c-.73-.08-1.47-.14-2.19-.24l-2.14-.34-8.56-1.31c-2.82-.49-5.54-1.13-8.32-1.67-1.37-.3-2.8-.51-4.12-.88l-3.99-1.05-22.7,87.08Z"/>
            <path class="cls-2" d="M212.15,115.58l-.46,8.99,3.85.24c1.28.05,2.57.06,3.85.09l7.7.15.13-9-7.54-.15c-1.26-.03-2.51-.04-3.77-.09l-3.76-.23Z"/>
            <polygon class="cls-2" points="185.25 113.23 184.09 122.15 199.46 123.8 200.21 114.83 185.25 113.23"/>
            <polygon class="cls-2" points="158.83 108.5 156.8 117.26 164.4 118.83 168.21 119.61 170.11 120 172.02 120.29 173.55 111.43 171.7 111.14 169.86 110.76 166.18 110.01 158.83 108.5"/>
          </g>
          <g>
            <path class="cls-1" d="M233.21,164.34l9.14.19c3.04.08,6.12.05,9.09.3l8.98.55,2.24.14,2.2.24,4.39.47,4.39.46c.73.08,1.47.14,2.19.24l2.14.34,8.56,1.31c2.82.49,5.54,1.13,8.32,1.67,1.37.3,2.8.51,4.12.88l3.99,1.05,22.7-87.08-5.91-1.53c-1.97-.53-3.92-.85-5.88-1.28-3.91-.79-7.84-1.66-11.75-2.35l-11.67-1.81-2.92-.44c-.97-.14-1.93-.22-2.89-.33l-5.78-.62-5.78-.61-2.89-.3-2.86-.19-11.45-.71c-3.83-.29-7.58-.29-11.36-.39l-11.32-.22v89.99Z"/>
            <polygon class="cls-2" points="294.11 121.02 292.57 129.89 294.41 130.18 296.23 130.55 299.86 131.3 307.14 132.8 309.18 124.03 301.65 122.48 297.89 121.71 296 121.32 294.11 121.02"/>
            <polygon class="cls-2" points="266.81 117.53 266.05 126.49 280.89 128.09 282.06 119.16 266.81 117.53"/>
            <path class="cls-2" d="M239.46,116.29l-.13,9,7.49.15c1.25.03,2.5.03,3.74.09l3.73.23.47-8.99-3.82-.24c-1.27-.07-2.55-.06-3.83-.1l-7.65-.15Z"/>
          </g>
          <g>
            <path class="cls-1" d="M302.96,172.2c10.66,2.76,20.66,6.32,29.51,10.76,8.86,4.44,16.52,9.74,22.89,15.68l61.71-65.5c-13.55-12.72-28.72-22.85-44.25-30.62-15.55-7.8-31.44-13.32-47.17-17.41l-22.7,87.08Z"/>
            <path class="cls-2" d="M371.42,150.03l-5.04,7.45c1.97,1.41,3.98,2.77,5.93,4.21l5.65,4.55,5.85-6.84-6.06-4.88c-2.08-1.54-4.22-3-6.33-4.5Z"/>
            <path class="cls-2" d="M347.1,136.64l-3.68,8.22,3.34,1.52c1.11.51,2.24.98,3.31,1.58l6.47,3.43,4.42-7.84-6.84-3.63c-1.13-.64-2.32-1.13-3.49-1.67l-3.52-1.6Z"/>
            <path class="cls-2" d="M321.2,127.17l-2.5,8.65,7.04,2.25,3.52,1.12c1.17.38,2.3.87,3.45,1.3l3.13-8.44c-1.21-.45-2.39-.95-3.61-1.36l-3.67-1.18-7.35-2.34Z"/>
          </g>
          <g>
            <path class="cls-1" d="M355.36,198.65c.4.37.83.72,1.21,1.1l1.1,1.17,2.23,2.31c1.31,1.65,2.8,3.17,3.96,4.89,1.32,1.62,2.36,3.4,3.54,5.09.5.89,1.01,1.78,1.53,2.66.28.43.51.89.73,1.35l.69,1.36c1.81,3.63,3.29,7.42,4.36,11.19.56,1.88.95,3.75,1.28,5.48l.21,1.26c.04.38.09.76.15,1.14l.02.23s-.01-.07-.01-.1v-.11s0,0,0,0h0s90.07,0,90.07,0c-.01-1.7-.09-3.41-.2-5.11l-.09-1.28-.12-1.39-.25-2.42-.51-3.93-.62-3.78c-.89-4.98-1.97-9.78-3.32-14.45-2.65-9.36-6.16-18.33-10.44-26.9l-1.63-3.2c-.54-1.07-1.1-2.13-1.71-3.15l-3.61-6.19c-2.6-3.99-5.17-8.01-8.08-11.75-2.78-3.86-5.9-7.38-8.96-10.97-1.58-1.73-3.21-3.4-4.83-5.09l-2.44-2.52c-.83-.82-1.69-1.59-2.54-2.38l-61.71,65.5Z"/>
            <path class="cls-2" d="M420.86,215.89l-8.64,2.51c1.34,4.59,2.36,9.28,2.95,13.95l8.93-1.12c-.67-5.22-1.78-10.33-3.24-15.34Z"/>
            <path class="cls-2" d="M409.75,190.23l-7.76,4.55,1.8,3.12,1.64,3.21.82,1.6.73,1.64,1.47,3.29,8.31-3.45-1.59-3.57-.8-1.78-.89-1.74-1.78-3.48c-.63-1.14-1.3-2.26-1.95-3.38Z"/>
            <path class="cls-2" d="M392.92,168.07l-6.5,6.23,2.5,2.61,2.33,2.76c.77.92,1.58,1.82,2.32,2.77l2.16,2.89,7.24-5.34-2.34-3.13c-.8-1.02-1.67-1.99-2.5-2.99l-2.52-2.98-2.7-2.82Z"/>
          </g>
          <g>
            <path class="cls-1" d="M376.35,237.66h0s0,0,0,0v-.11s.02-.12.02-.1l-.02.23c-.06.38-.11.76-.15,1.14l-.21,1.26c-.32,1.73-.72,3.6-1.28,5.48-1.07,3.77-2.55,7.56-4.36,11.19l-.69,1.36c-.22.46-.45.91-.73,1.35-.52.88-1.03,1.76-1.53,2.66-1.18,1.69-2.22,3.47-3.54,5.09-1.16,1.72-2.65,3.24-3.96,4.89l-2.23,2.31-1.1,1.17c-.38.38-.81.73-1.21,1.1l61.71,65.5c.85-.79,1.71-1.56,2.54-2.38l2.44-2.52c1.62-1.69,3.25-3.36,4.83-5.09,3.05-3.6,6.18-7.11,8.96-10.97,2.91-3.74,5.49-7.76,8.08-11.75l3.61-6.19c.61-1.03,1.17-2.08,1.71-3.15l1.63-3.2c4.27-8.57,7.78-17.54,10.44-26.9,1.35-4.67,2.43-9.47,3.32-14.45l.62-3.78.51-3.93.25-2.42.12-1.39.09-1.28c.12-1.7.19-3.4.2-5.11h-90.07Z"/>
            <path class="cls-2" d="M402.88,295.47l-7.24-5.35-2.16,2.89c-.76.94-1.55,1.84-2.32,2.76l-2.34,2.75-2.51,2.61,6.49,6.24,2.7-2.81,2.53-2.97c.84-1,1.69-1.98,2.51-2.99l2.34-3.13Z"/>
            <polygon class="cls-2" points="416.73 271.19 408.42 267.73 406.95 271.01 406.22 272.65 405.4 274.26 403.76 277.46 401.96 280.58 409.72 285.14 411.67 281.76 413.45 278.28 414.34 276.54 415.14 274.76 416.73 271.19"/>
            <path class="cls-2" d="M424.07,244.24l-8.93-1.14c-.6,4.67-1.62,9.36-2.97,13.95l8.64,2.52c1.47-5.01,2.59-10.12,3.26-15.33Z"/>
          </g>
          <g>
            <path class="cls-1" d="M355.36,276.66c-6.37,5.94-14.03,11.25-22.89,15.68-8.85,4.45-18.85,8.01-29.51,10.76l22.7,87.08c15.73-4.09,31.62-9.61,47.17-17.41,15.52-7.77,30.7-17.91,44.25-30.62l-61.71-65.5Z"/>
            <path class="cls-2" d="M335.69,343.33l-3.13-8.44c-1.15.42-2.28.92-3.45,1.29l-3.52,1.12c-2.35.74-4.68,1.52-7.04,2.24l2.5,8.65c2.46-.75,4.9-1.56,7.35-2.33l3.67-1.18c1.23-.39,2.41-.9,3.62-1.35Z"/>
            <path class="cls-2" d="M360.89,331.79l-4.41-7.84-6.47,3.43c-1.06.6-2.2,1.07-3.31,1.58l-3.34,1.52,3.67,8.22,3.52-1.6c1.17-.54,2.36-1.03,3.49-1.67l6.84-3.63Z"/>
            <path class="cls-2" d="M383.69,316l-5.84-6.85-5.65,4.55c-1.96,1.42-3.96,2.8-5.94,4.21l5.03,7.46c2.11-1.5,4.25-2.97,6.34-4.49l6.06-4.88Z"/>
          </g>
          <g>
            <path class="cls-1" d="M302.96,303.11l-3.99,1.05c-1.32.37-2.75.58-4.12.88-2.78.54-5.5,1.18-8.32,1.67l-8.56,1.31-2.14.34c-.72.11-1.46.16-2.19.24l-4.39.46-4.39.47-2.2.24-2.24.14-8.98.55c-2.97.25-6.05.23-9.09.3l-9.14.19v89.99l11.32-.22c3.78-.09,7.53-.09,11.36-.39l11.45-.71,2.86-.19,2.89-.3,5.78-.61,5.78-.62c.97-.11,1.92-.19,2.89-.33l2.92-.44,11.67-1.81c3.9-.68,7.83-1.56,11.75-2.35,1.96-.43,3.91-.76,5.88-1.28l5.91-1.53-22.7-87.08Z"/>
            <path class="cls-2" d="M254.61,358.55l-.46-8.99-3.73.23c-1.25.05-2.5.06-3.74.09l-7.49.15.13,9,7.65-.15c1.28-.03,2.55-.04,3.83-.09l3.82-.24Z"/>
            <polygon class="cls-2" points="282 356.16 280.83 347.23 265.99 348.82 266.74 357.79 282 356.16"/>
            <polygon class="cls-2" points="309.03 351.31 306.99 342.55 299.72 344.04 296.08 344.79 294.26 345.16 292.42 345.45 293.95 354.31 295.85 354.02 297.73 353.64 301.5 352.86 309.03 351.31"/>
          </g>
          <g>
            <path class="cls-1" d="M233.21,310.97l-11.32.22c-3.78.09-7.53.09-11.36.39l-11.45.71-2.86.19-2.89.3-5.78.61-5.78.62c-.97.11-1.92.19-2.89.33l-2.92.44-11.67,1.81c-3.9.68-7.83,1.56-11.75,2.35-1.96.43-3.91.76-5.88,1.28l-5.91,1.53,22.7,87.08,3.99-1.05c1.32-.37,2.75-.58,4.12-.88,2.78-.54,5.5-1.18,8.32-1.67l8.56-1.31,2.14-.34c.72-.11,1.46-.16,2.19-.24l4.39-.46,4.39-.47,2.2-.24,2.24-.14,8.98-.55c2.97-.25,6.05-.23,9.09-.3l9.14-.19v-89.99Z"/>
            <polygon class="cls-2" points="173.4 363.91 171.87 355.04 169.95 355.34 168.05 355.73 164.25 356.51 156.64 358.08 158.69 366.85 166.04 365.33 169.71 364.58 171.55 364.2 173.4 363.91"/>
            <polygon class="cls-2" points="200.15 360.48 199.39 351.52 184.02 353.17 185.19 362.09 200.15 360.48"/>
            <path class="cls-2" d="M227.06,359.27l-.13-9-7.7.15c-1.28.03-2.57.03-3.85.1l-3.85.24.47,8.99,3.76-.23c1.25-.07,2.51-.06,3.77-.09l7.54-.15Z"/>
          </g>
          <g>
            <path class="cls-1" d="M140.76,321.73c-15.73,4.09-31.62,9.61-47.17,17.41-15.52,7.77-30.7,17.91-44.25,30.62l61.71,65.5c6.37-5.94,14.03-11.25,22.89-15.68,8.85-4.45,18.85-8.01,29.51-10.76l-22.7-87.08Z"/>
            <path class="cls-2" d="M98.57,391.92l-5.04-7.45c-2.15,1.53-4.33,3.02-6.45,4.59l-6.18,4.98,5.85,6.84,5.77-4.65c1.99-1.47,4.04-2.86,6.05-4.3Z"/>
            <path class="cls-2" d="M121.92,379.07l-3.68-8.22-3.57,1.62c-1.19.55-2.4,1.05-3.54,1.7l-6.96,3.69,4.42,7.84,6.58-3.49c1.08-.61,2.23-1.09,3.36-1.61l3.39-1.54Z"/>
            <path class="cls-2" d="M146.99,369.9l-2.5-8.65-7.44,2.37-3.72,1.19c-1.24.41-2.44.92-3.66,1.37l3.13,8.44c1.17-.43,2.31-.92,3.5-1.31l3.56-1.14,7.13-2.27Z"/>
          </g>
          <g>
            <path class="cls-1" d="M49.35,369.77c-.85.79-1.71,1.56-2.54,2.38l-2.44,2.52c-1.62,1.69-3.25,3.36-4.83,5.09-3.05,3.6-6.18,7.11-8.96,10.97-2.91,3.74-5.49,7.76-8.08,11.75l-3.61,6.19c-.61,1.03-1.17,2.08-1.71,3.15l-1.63,3.2c-4.27,8.57-7.78,17.54-10.44,26.9-1.35,4.67-2.43,9.47-3.32,14.45l-.62,3.78-.51,3.93-.25,2.42-.12,1.39-.09,1.28c-.12,1.7-.19,3.4-.2,5.11h90.08s0,0,0,0v.11s-.02.12-.02.1l.02-.23c.06-.38.11-.76.15-1.14l.21-1.26c.32-1.73.72-3.6,1.28-5.48,1.07-3.77,2.55-7.56,4.36-11.19l.69-1.36c.22-.46.45-.91.73-1.35.52-.88,1.03-1.76,1.53-2.66,1.18-1.69,2.22-3.47,3.54-5.09,1.16-1.72,2.65-3.24,3.96-4.89l2.23-2.31,1.1-1.17c.38-.38.81-.73,1.21-1.1l-61.71-65.5Z"/>
            <path class="cls-2" d="M51.68,454.28l-8.64-2.51c-1.5,5.13-2.64,10.37-3.32,15.75l8.93,1.12c.62-4.83,1.66-9.65,3.04-14.36Z"/>
            <path class="cls-2" d="M62.16,430.07l-7.76-4.55c-.66,1.15-1.35,2.3-1.99,3.46l-1.82,3.56-.91,1.78-.82,1.82-1.62,3.65,8.31,3.45,1.5-3.37.75-1.68.84-1.64,1.68-3.29,1.85-3.2Z"/>
            <path class="cls-2" d="M78.1,409.09l-6.5-6.23-2.75,2.88-2.58,3.04c-.85,1.02-1.74,2.01-2.56,3.06l-2.39,3.19,7.24,5.34,2.21-2.96c.76-.97,1.58-1.89,2.37-2.83l2.39-2.82,2.56-2.67Z"/>
          </g>
          <g>
            <path class="cls-1" d="M0,474.27c.01,1.7.09,3.41.2,5.11l.09,1.28.12,1.39.25,2.42.51,3.93.62,3.78c.89,4.98,1.97,9.78,3.32,14.45,2.65,9.36,6.16,18.33,10.44,26.9l1.63,3.2c.54,1.07,1.1,2.13,1.71,3.15l3.61,6.19c2.6,3.99,5.17,8.01,8.08,11.75,2.78,3.86,5.9,7.38,8.96,10.97,1.58,1.73,3.21,3.4,4.83,5.09l2.44,2.52c.83.82,1.69,1.59,2.54,2.38l61.71-65.5c-.4-.37-.83-.72-1.21-1.1l-1.1-1.17-2.23-2.31c-1.31-1.65-2.8-3.17-3.96-4.89-1.32-1.62-2.36-3.4-3.54-5.09-.5-.89-1.01-1.78-1.53-2.66-.28-.43-.51-.89-.73-1.35l-.69-1.36c-1.81-3.63-3.29-7.42-4.36-11.19-.56-1.88-.95-3.75-1.28-5.48l-.21-1.26c-.04-.38-.09-.76-.15-1.14l-.02-.23s.01.07.01.1v.11s0,0,0,0h0s-90.07,0-90.07,0Z"/>
            <path class="cls-2" d="M68.66,528.29l-7.24,5.35,2.39,3.19c.83,1.03,1.71,2.03,2.56,3.05l2.58,3.04,2.76,2.87,6.49-6.24-2.56-2.67-2.39-2.82c-.79-.94-1.6-1.87-2.38-2.83l-2.21-2.96Z"/>
            <polygon class="cls-2" points="55.57 505.35 47.26 508.81 48.89 512.46 49.71 514.29 50.62 516.07 52.44 519.63 54.43 523.09 62.2 518.53 60.35 515.33 58.67 512.05 57.83 510.4 57.08 508.72 55.57 505.35"/>
            <path class="cls-2" d="M48.66,480.05l-8.93,1.14c.7,5.38,1.84,10.61,3.35,15.74l8.64-2.52c-1.39-4.71-2.44-9.53-3.06-14.35Z"/>
          </g>
          <g>
            <path class="cls-1" d="M49.35,578.77c13.55,12.72,28.72,22.85,44.25,30.62,15.55,7.8,31.44,13.32,47.17,17.41l22.7-87.08c-10.66-2.76-20.66-6.32-29.51-10.77-8.86-4.44-16.52-9.74-22.89-15.68l-61.71,65.5Z"/>
            <path class="cls-2" d="M132.95,573.97l-3.13,8.44c1.22.45,2.43.97,3.67,1.36l3.72,1.19c2.48.79,4.95,1.6,7.44,2.36l2.5-8.65c-2.39-.73-4.75-1.51-7.13-2.27l-3.56-1.14c-1.19-.37-2.33-.87-3.5-1.31Z"/>
            <path class="cls-2" d="M108.65,562.86l-4.41,7.84,6.96,3.69c1.15.65,2.36,1.14,3.54,1.7l3.57,1.62,3.67-8.22-3.39-1.54c-1.13-.52-2.28-.99-3.36-1.61l-6.58-3.49Z"/>
            <path class="cls-2" d="M86.86,547.77l-5.84,6.85,6.18,4.98c2.13,1.55,4.3,3.05,6.46,4.58l5.03-7.46c-2.02-1.43-4.06-2.84-6.06-4.29l-5.77-4.65Z"/>
          </g>
          <g>
            <path class="cls-1" d="M140.76,626.81l5.91,1.53c1.97.53,3.92.85,5.88,1.28,3.91.79,7.84,1.66,11.75,2.35l11.67,1.81,2.92.44c.97.14,1.93.22,2.89.33l5.78.62,5.78.61,2.89.3,2.86.19,11.45.71c3.83.3,7.58.29,11.36.39l11.32.22v-89.99l-9.14-.19c-3.04-.08-6.12-.05-9.09-.3l-8.98-.55-2.24-.14-2.2-.24-4.39-.47-4.39-.46c-.73-.08-1.47-.14-2.19-.24l-2.14-.34-8.56-1.31c-2.82-.49-5.54-1.13-8.32-1.67-1.37-.3-2.8-.51-4.12-.88l-3.99-1.05-22.7,87.08Z"/>
            <path class="cls-2" d="M212.15,588.8l-.46,8.99,3.85.24c1.28.05,2.57.06,3.85.09l7.7.15.13-9-7.54-.15c-1.26-.03-2.51-.04-3.77-.09l-3.76-.23Z"/>
            <polygon class="cls-2" points="185.25 586.46 184.09 595.38 199.46 597.03 200.21 588.06 185.25 586.46"/>
            <polygon class="cls-2" points="158.83 581.73 156.8 590.49 164.4 592.06 168.21 592.84 170.11 593.23 172.02 593.52 173.55 584.65 171.7 584.37 169.86 583.99 166.18 583.24 158.83 581.73"/>
          </g>
        </g>
      </g>
      <g class="cls-3">
        <g>
          <g>
            <path class="cls-1" d="M466.42,1185.85l-.02-1.41-.03-.76-.06-1.43-.15-2.34c-.05-.81-.12-1.44-.19-2.16l-.21-2.09-.51-3.93-.62-3.79c-.89-4.98-1.97-9.78-3.32-14.45-2.65-9.36-6.16-18.33-10.44-26.9l-1.63-3.2c-.54-1.07-1.1-2.13-1.71-3.15l-3.61-6.19c-2.6-3.99-5.17-8.01-8.08-11.75-2.78-3.86-5.9-7.38-8.96-10.97-1.58-1.73-3.21-3.4-4.83-5.09l-2.44-2.52c-.83-.82-1.69-1.59-2.54-2.38l-61.71,65.5c.4.37.83.72,1.21,1.1l1.1,1.17,2.23,2.31c1.31,1.65,2.8,3.17,3.96,4.89,1.32,1.62,2.36,3.4,3.54,5.09.5.89,1.01,1.78,1.53,2.66.28.43.51.89.73,1.35l.69,1.36c1.81,3.63,3.29,7.42,4.36,11.19.56,1.88.95,3.75,1.28,5.48l.21,1.26c.04.38.09.76.15,1.14l.08.84c0,.07.01.17.02.21v-.15s-.02-.89-.02-.89h89.99Z"/>
            <path class="cls-2" d="M397.76,1131.83l7.24-5.35-2.39-3.19c-.83-1.03-1.71-2.03-2.56-3.05l-2.58-3.04-2.76-2.87-6.49,6.24,2.56,2.67,2.39,2.82c.79.94,1.6,1.87,2.38,2.83l2.21,2.96Z"/>
            <polygon class="cls-2" points="410.85 1154.77 419.16 1151.31 417.53 1147.66 416.71 1145.84 415.8 1144.05 413.99 1140.5 411.99 1137.04 404.23 1141.59 406.08 1144.79 407.75 1148.07 408.59 1149.72 409.35 1151.4 410.85 1154.77"/>
            <path class="cls-2" d="M417.76,1180.08l8.93-1.14c-.7-5.38-1.84-10.61-3.35-15.74l-8.64,2.52c1.39,4.71,2.44,9.53,3.06,14.35Z"/>
          </g>
          <g>
            <path class="cls-1" d="M417.08,1081.35c-13.55-12.72-28.72-22.85-44.25-30.62-15.55-7.8-31.44-13.32-47.17-17.41l-22.7,87.08c10.66,2.76,20.66,6.32,29.51,10.76,8.86,4.44,16.52,9.74,22.89,15.68l61.71-65.5Z"/>
            <path class="cls-2" d="M333.47,1086.15l3.13-8.44c-1.22-.45-2.43-.97-3.67-1.36l-3.72-1.19c-2.48-.79-4.95-1.6-7.44-2.36l-2.5,8.65c2.39.73,4.75,1.51,7.13,2.27l3.56,1.14c1.19.37,2.33.87,3.5,1.31Z"/>
            <path class="cls-2" d="M357.77,1097.26l4.41-7.84-6.96-3.69c-1.15-.65-2.36-1.14-3.54-1.7l-3.57-1.62-3.67,8.22,3.39,1.54c1.13.52,2.28.99,3.36,1.61l6.58,3.49Z"/>
            <path class="cls-2" d="M379.56,1112.35l5.84-6.85-6.18-4.98c-2.13-1.55-4.3-3.05-6.46-4.58l-5.03,7.46c2.02,1.43,4.06,2.84,6.06,4.29l5.77,4.65Z"/>
          </g>
          <g>
            <path class="cls-1" d="M325.66,1033.32l-5.91-1.53c-1.97-.53-3.92-.85-5.88-1.28-3.91-.79-7.84-1.66-11.75-2.35l-11.67-1.81-2.92-.44c-.97-.14-1.93-.22-2.89-.33l-5.78-.62-5.78-.61-2.89-.3-2.86-.19-11.45-.71c-3.83-.3-7.58-.29-11.36-.39l-11.32-.22v89.99l9.14.19c3.04.08,6.12.05,9.09.3l8.98.55,2.24.14,2.2.24,4.39.47,4.39.46c.73.08,1.47.14,2.19.24l2.14.34,8.56,1.31c2.82.49,5.54,1.13,8.32,1.67,1.37.3,2.8.51,4.12.88l3.99,1.05,22.7-87.08Z"/>
            <path class="cls-2" d="M254.28,1071.32l.46-8.99-3.85-.24c-1.28-.05-2.57-.06-3.85-.09l-7.7-.15-.13,9,7.54.15c1.26.03,2.51.04,3.77.09l3.76.23Z"/>
            <polygon class="cls-2" points="281.17 1073.66 282.34 1064.74 266.96 1063.09 266.21 1072.06 281.17 1073.66"/>
            <polygon class="cls-2" points="307.59 1078.4 309.63 1069.63 302.02 1068.06 298.22 1067.28 296.31 1066.9 294.4 1066.6 292.87 1075.47 294.72 1075.75 296.56 1076.13 300.24 1076.89 307.59 1078.4"/>
          </g>
          <g>
            <path class="cls-1" d="M233.21,1022.55l-9.14-.19c-3.04-.08-6.12-.05-9.09-.3l-8.98-.55-2.24-.14-2.2-.24-4.39-.47-4.39-.46c-.73-.08-1.47-.14-2.19-.24l-2.14-.34-8.56-1.31c-2.82-.49-5.54-1.13-8.32-1.67-1.37-.3-2.8-.51-4.12-.88l-3.99-1.05-22.7,87.08,5.91,1.53c1.97.53,3.92.85,5.88,1.28,3.91.79,7.84,1.66,11.75,2.35l11.67,1.81,2.92.44c.97.14,1.93.22,2.89.33l5.78.62,5.78.61,2.89.3,2.86.19,11.45.71c3.83.3,7.58.29,11.36.39l11.32.22v-89.99Z"/>
            <polygon class="cls-2" points="172.32 1065.87 173.85 1057 172.01 1056.72 170.2 1056.34 166.56 1055.59 159.28 1054.09 157.24 1062.86 164.77 1064.41 168.54 1065.19 170.42 1065.57 172.32 1065.87"/>
            <polygon class="cls-2" points="199.62 1069.37 200.37 1060.4 185.53 1058.81 184.36 1067.73 199.62 1069.37"/>
            <path class="cls-2" d="M226.96,1070.6l.13-9-7.49-.15c-1.25-.03-2.5-.03-3.74-.09l-3.73-.23-.47,8.99,3.82.24c1.27.07,2.55.06,3.83.1l7.65.15Z"/>
          </g>
          <g>
            <path class="cls-1" d="M163.46,1014.69c-10.66-2.76-20.66-6.32-29.51-10.77-8.86-4.44-16.52-9.74-22.89-15.68l-61.71,65.5c13.55,12.72,28.72,22.85,44.25,30.62,15.55,7.8,31.44,13.32,47.17,17.41l22.7-87.08Z"/>
            <path class="cls-2" d="M95,1036.86l5.04-7.45c-1.97-1.41-3.98-2.77-5.93-4.21l-5.65-4.55-5.85,6.84,6.06,4.88c2.08,1.54,4.22,3,6.33,4.5Z"/>
            <path class="cls-2" d="M119.32,1050.25l3.68-8.21-3.34-1.52c-1.11-.51-2.24-.98-3.31-1.58l-6.47-3.43-4.42,7.84,6.84,3.63c1.13.64,2.32,1.13,3.49,1.67l3.52,1.6Z"/>
            <path class="cls-2" d="M145.22,1059.73l2.5-8.65-7.04-2.25-3.52-1.12c-1.17-.38-2.3-.87-3.45-1.3l-3.13,8.44c1.21.45,2.39.95,3.61,1.36l3.67,1.18,7.35,2.34Z"/>
          </g>
          <g>
            <path class="cls-1" d="M111.06,988.24c-.4-.37-.83-.72-1.21-1.1l-1.1-1.17-2.23-2.31c-1.31-1.65-2.8-3.17-3.96-4.89-1.32-1.62-2.36-3.4-3.54-5.09-.5-.89-1.01-1.78-1.53-2.66-.28-.43-.51-.89-.73-1.35l-.69-1.36c-1.81-3.63-3.29-7.42-4.36-11.19-.56-1.88-.95-3.75-1.28-5.48l-.21-1.26c-.04-.38-.09-.76-.15-1.14l-.02-.23s.01.07.01.1v.11s0,0,0,0h0s-90.07,0-90.07,0c.01,1.7.09,3.41.2,5.11l.09,1.28.12,1.39.25,2.42.51,3.93.62,3.79c.89,4.98,1.97,9.78,3.32,14.45,2.65,9.36,6.16,18.33,10.44,26.9l1.63,3.2c.54,1.07,1.1,2.13,1.71,3.15l3.61,6.19c2.6,3.99,5.17,8.01,8.08,11.75,2.78,3.86,5.9,7.38,8.96,10.97,1.58,1.73,3.21,3.4,4.83,5.09l2.44,2.52c.83.82,1.69,1.59,2.54,2.38l61.71-65.5Z"/>
            <path class="cls-2" d="M45.57,971l8.64-2.51c-1.34-4.59-2.36-9.28-2.95-13.95l-8.93,1.12c.67,5.22,1.78,10.33,3.24,15.34Z"/>
            <path class="cls-2" d="M56.67,996.66l7.76-4.55-1.8-3.12-1.64-3.21-.82-1.6-.73-1.64-1.47-3.29-8.31,3.45,1.59,3.57.8,1.78.89,1.74,1.78,3.48c.63,1.14,1.3,2.26,1.95,3.38Z"/>
            <path class="cls-2" d="M73.51,1018.83l6.5-6.23-2.5-2.61-2.33-2.76c-.77-.92-1.58-1.82-2.32-2.77l-2.16-2.89-7.24,5.34,2.34,3.13c.8,1.02,1.67,1.99,2.5,2.99l2.52,2.98,2.7,2.82Z"/>
          </g>
          <g>
            <path class="cls-1" d="M90.07,949.24h0s0,0,0,0v.11s-.02.12-.02.1l.02-.23c.06-.38.11-.76.15-1.14l.21-1.26c.32-1.73.72-3.6,1.28-5.48,1.07-3.77,2.55-7.56,4.36-11.19l.69-1.36c.22-.46.45-.91.73-1.35.52-.88,1.03-1.76,1.53-2.66,1.18-1.69,2.22-3.47,3.54-5.09,1.16-1.72,2.65-3.24,3.96-4.89l2.23-2.31,1.1-1.17c.38-.38.81-.73,1.21-1.1l-61.71-65.5c-.85.79-1.71,1.56-2.54,2.38l-2.44,2.52c-1.62,1.69-3.25,3.36-4.83,5.09-3.05,3.6-6.18,7.11-8.96,10.97-2.91,3.74-5.49,7.76-8.08,11.75l-3.61,6.19c-.61,1.03-1.17,2.08-1.71,3.15l-1.63,3.2c-4.27,8.57-7.78,17.54-10.44,26.9-1.35,4.67-2.43,9.47-3.32,14.45l-.62,3.78-.51,3.93-.25,2.42-.12,1.39-.09,1.28c-.12,1.7-.19,3.4-.2,5.11h90.07Z"/>
            <path class="cls-2" d="M63.54,891.43l7.24,5.35,2.16-2.89c.76-.94,1.55-1.84,2.32-2.76l2.34-2.75,2.51-2.61-6.49-6.24-2.7,2.81-2.53,2.97c-.84,1-1.69,1.98-2.51,2.99l-2.34,3.13Z"/>
            <polygon class="cls-2" points="49.69 915.71 58 919.17 59.47 915.88 60.21 914.24 61.03 912.64 62.66 909.43 64.47 906.31 56.7 901.76 54.75 905.14 52.97 908.62 52.09 910.36 51.29 912.14 49.69 915.71"/>
            <path class="cls-2" d="M42.35,942.66l8.93,1.14c.6-4.67,1.62-9.36,2.97-13.95l-8.64-2.52c-1.47,5.01-2.59,10.12-3.26,15.33Z"/>
          </g>
          <g>
            <path class="cls-1" d="M111.06,910.23c6.37-5.94,14.03-11.25,22.89-15.68,8.85-4.45,18.85-8.01,29.51-10.77l-22.7-87.08c-15.73,4.09-31.62,9.61-47.17,17.41-15.52,7.77-30.7,17.91-44.25,30.62l61.71,65.5Z"/>
            <path class="cls-2" d="M130.74,843.57l3.13,8.44c1.15-.42,2.28-.92,3.45-1.29l3.52-1.12c2.35-.74,4.68-1.52,7.04-2.24l-2.5-8.65c-2.46.75-4.9,1.56-7.35,2.33l-3.67,1.18c-1.23.39-2.41.9-3.62,1.35Z"/>
            <path class="cls-2" d="M105.53,855.1l4.41,7.84,6.47-3.43c1.06-.6,2.2-1.07,3.31-1.58l3.34-1.52-3.67-8.22-3.52,1.6c-1.17.54-2.36,1.03-3.49,1.67l-6.84,3.63Z"/>
            <path class="cls-2" d="M82.73,870.9l5.84,6.85,5.65-4.55c1.96-1.42,3.96-2.8,5.94-4.21l-5.03-7.46c-2.11,1.5-4.25,2.97-6.34,4.49l-6.06,4.88Z"/>
          </g>
          <g>
            <path class="cls-1" d="M163.46,883.78l3.99-1.05c1.32-.37,2.75-.58,4.12-.88,2.78-.54,5.5-1.18,8.32-1.67l8.56-1.31,2.14-.34c.72-.11,1.46-.16,2.19-.24l4.39-.46,4.39-.47,2.2-.24,2.24-.14,8.98-.55c2.97-.25,6.05-.23,9.09-.3l9.14-.19v-89.99l-11.32.22c-3.78.09-7.53.09-11.36.39l-11.45.71-2.86.19-2.89.3-5.78.61-5.78.62c-.97.11-1.92.19-2.89.33l-2.92.44-11.67,1.81c-3.9.68-7.83,1.56-11.75,2.35-1.96.43-3.91.76-5.88,1.28l-5.91,1.53,22.7,87.08Z"/>
            <path class="cls-2" d="M211.82,828.35l.46,8.99,3.73-.23c1.25-.05,2.5-.06,3.74-.09l7.49-.15-.13-9-7.65.15c-1.28.03-2.55.04-3.83.09l-3.82.24Z"/>
            <polygon class="cls-2" points="184.43 830.74 185.6 839.66 200.44 838.07 199.68 829.1 184.43 830.74"/>
            <polygon class="cls-2" points="157.39 835.58 159.43 844.35 166.71 842.85 170.34 842.1 172.16 841.73 174 841.45 172.47 832.58 170.57 832.87 168.69 833.26 164.92 834.03 157.39 835.58"/>
          </g>
          <g>
            <path class="cls-1" d="M233.21,875.93l11.32-.22c3.78-.09,7.53-.09,11.36-.39l11.45-.71,2.86-.19,2.89-.3,5.78-.61,5.78-.62c.97-.11,1.92-.19,2.89-.33l2.92-.44,11.67-1.81c3.9-.68,7.83-1.56,11.75-2.35,1.96-.43,3.91-.76,5.88-1.28l5.91-1.53-22.7-87.08-3.99,1.05c-1.32.37-2.75.58-4.12.88-2.78.54-5.5,1.18-8.32,1.67l-8.56,1.31-2.14.34c-.72.11-1.46.16-2.19.24l-4.39.46-4.39.47-2.2.24-2.24.14-8.98.55c-2.97.25-6.05.23-9.09.3l-9.14.19v89.99Z"/>
            <polygon class="cls-2" points="293.02 822.98 294.56 831.85 296.47 831.55 298.37 831.16 302.17 830.38 309.78 828.81 307.74 820.04 300.39 821.56 296.71 822.32 294.87 822.69 293.02 822.98"/>
            <polygon class="cls-2" points="266.27 826.41 267.03 835.38 282.4 833.73 281.23 824.8 266.27 826.41"/>
            <path class="cls-2" d="M239.37,827.62l.13,9,7.7-.15c1.28-.03,2.57-.03,3.85-.1l3.85-.24-.47-8.99-3.76.23c-1.25.07-2.51.06-3.77.09l-7.54.15Z"/>
          </g>
          <g>
            <path class="cls-1" d="M325.66,865.16c15.73-4.09,31.62-9.61,47.17-17.41,15.52-7.77,30.7-17.91,44.25-30.62l-61.71-65.5c-6.37,5.94-14.03,11.25-22.89,15.68-8.85,4.45-18.85,8.01-29.51,10.76l22.7,87.08Z"/>
            <path class="cls-2" d="M367.85,794.98l5.04,7.45c2.15-1.53,4.33-3.02,6.45-4.59l6.18-4.98-5.85-6.84-5.77,4.65c-1.99,1.47-4.04,2.86-6.05,4.3Z"/>
            <path class="cls-2" d="M344.5,807.82l3.68,8.22,3.57-1.62c1.19-.55,2.4-1.05,3.54-1.7l6.96-3.69-4.42-7.84-6.58,3.49c-1.08.61-2.23,1.09-3.36,1.61l-3.39,1.54Z"/>
            <path class="cls-2" d="M319.43,817l2.5,8.65,7.44-2.37,3.72-1.19c1.24-.41,2.44-.92,3.66-1.37l-3.13-8.44c-1.17.43-2.31.92-3.5,1.31l-3.56,1.14-7.13,2.27Z"/>
          </g>
          <g>
            <path class="cls-1" d="M417.08,817.13c.85-.79,1.71-1.56,2.54-2.38l2.44-2.52c1.62-1.69,3.25-3.36,4.83-5.09,3.05-3.6,6.18-7.11,8.96-10.97,2.91-3.74,5.49-7.76,8.08-11.75l3.61-6.19c.61-1.03,1.17-2.08,1.71-3.15l1.63-3.2c4.27-8.57,7.78-17.54,10.44-26.9,1.35-4.67,2.43-9.47,3.32-14.45l.62-3.78.51-3.93.25-2.42.12-1.39.09-1.28c.12-1.7.19-3.4.2-5.11h-90.08s0,0,0,0v-.11s.02-.12.02-.1l-.02.23c-.06.38-.11.76-.15,1.14l-.21,1.26c-.32,1.73-.72,3.6-1.28,5.48-1.07,3.77-2.55,7.56-4.36,11.19l-.69,1.36c-.22.46-.45.91-.73,1.35-.52.88-1.03,1.76-1.53,2.66-1.18,1.69-2.22,3.47-3.54,5.09-1.16,1.72-2.65,3.24-3.96,4.89l-2.23,2.31-1.1,1.17c-.38.38-.81.73-1.21,1.1l61.71,65.5Z"/>
            <path class="cls-2" d="M414.74,732.61l8.64,2.51c1.5-5.13,2.64-10.37,3.32-15.75l-8.93-1.12c-.62,4.83-1.66,9.65-3.04,14.36Z"/>
            <path class="cls-2" d="M404.26,756.83l7.76,4.55c.66-1.15,1.35-2.3,1.99-3.46l1.82-3.56.91-1.78.82-1.82,1.62-3.65-8.31-3.45-1.5,3.37-.75,1.68-.84,1.64-1.68,3.29-1.85,3.2Z"/>
            <path class="cls-2" d="M388.32,777.81l6.5,6.23,2.75-2.88,2.58-3.04c.85-1.02,1.74-2.01,2.56-3.06l2.39-3.19-7.24-5.34-2.21,2.96c-.76.97-1.58,1.89-2.37,2.83l-2.39,2.82-2.56,2.67Z"/>
          </g>
          <g>
            <path class="cls-1" d="M466.42,712.62c-.01-1.7-.09-3.41-.2-5.11l-.09-1.28-.12-1.39-.25-2.42-.51-3.93-.62-3.78c-.89-4.98-1.97-9.78-3.32-14.45-2.65-9.36-6.16-18.33-10.44-26.9l-1.63-3.2c-.54-1.07-1.1-2.13-1.71-3.15l-3.61-6.19c-2.6-3.99-5.17-8.01-8.08-11.75-2.78-3.86-5.9-7.38-8.96-10.97-1.58-1.73-3.21-3.4-4.83-5.09l-2.44-2.52c-.83-.82-1.69-1.59-2.54-2.38l-61.71,65.5c.4.37.83.72,1.21,1.1l1.1,1.17,2.23,2.31c1.31,1.65,2.8,3.17,3.96,4.89,1.32,1.62,2.36,3.4,3.54,5.09.5.89,1.01,1.78,1.53,2.66.28.43.51.89.73,1.35l.69,1.36c1.81,3.63,3.29,7.42,4.36,11.19.56,1.88.95,3.75,1.28,5.48l.21,1.26c.04.38.09.76.15,1.14l.02.23s-.01-.07-.01-.1v-.11s0,0,0,0h0s90.07,0,90.07,0Z"/>
            <path class="cls-2" d="M397.76,658.6l7.24-5.35-2.39-3.19c-.83-1.03-1.71-2.03-2.56-3.05l-2.58-3.04-2.76-2.87-6.49,6.24,2.56,2.67,2.39,2.82c.79.94,1.6,1.87,2.38,2.83l2.21,2.96Z"/>
            <polygon class="cls-2" points="410.85 681.54 419.16 678.08 417.53 674.43 416.71 672.61 415.8 670.83 413.99 667.27 411.99 663.81 404.23 668.36 406.08 671.56 407.75 674.85 408.59 676.49 409.35 678.17 410.85 681.54"/>
            <path class="cls-2" d="M417.76,706.85l8.93-1.14c-.7-5.38-1.84-10.61-3.35-15.74l-8.64,2.52c1.39,4.71,2.44,9.53,3.06,14.35Z"/>
          </g>
          <g>
            <path class="cls-1" d="M417.08,608.12c-13.55-12.72-28.72-22.85-44.25-30.62-15.55-7.8-31.44-13.32-47.17-17.41l-22.7,87.08c10.66,2.76,20.66,6.32,29.51,10.76,8.86,4.44,16.52,9.74,22.89,15.68l61.71-65.5Z"/>
            <path class="cls-2" d="M333.47,612.92l3.13-8.44c-1.22-.45-2.43-.97-3.67-1.36l-3.72-1.19c-2.48-.79-4.95-1.6-7.44-2.36l-2.5,8.65c2.39.73,4.75,1.51,7.13,2.27l3.56,1.14c1.19.37,2.33.87,3.5,1.31Z"/>
            <path class="cls-2" d="M357.77,624.04l4.41-7.84-6.96-3.69c-1.15-.65-2.36-1.14-3.54-1.7l-3.57-1.62-3.67,8.22,3.39,1.54c1.13.52,2.28.99,3.36,1.61l6.58,3.49Z"/>
            <path class="cls-2" d="M379.56,639.12l5.84-6.85-6.18-4.98c-2.13-1.55-4.3-3.05-6.46-4.58l-5.03,7.46c2.02,1.43,4.06,2.84,6.06,4.29l5.77,4.65Z"/>
          </g>
          <g>
            <path class="cls-1" d="M325.66,560.09l-5.91-1.53c-1.97-.53-3.92-.85-5.88-1.28-3.91-.79-7.84-1.66-11.75-2.35l-11.67-1.81-2.92-.44c-.97-.14-1.93-.22-2.89-.33l-5.78-.62-5.78-.61-2.89-.3-2.86-.19-11.45-.71c-3.83-.29-7.58-.29-11.36-.39l-11.32-.22v89.99l9.14.19c3.04.08,6.12.05,9.09.3l8.98.55,2.24.14,2.2.24,4.39.47,4.39.46c.73.08,1.47.14,2.19.24l2.14.34,8.56,1.31c2.82.49,5.54,1.13,8.32,1.67,1.37.3,2.8.51,4.12.88l3.99,1.05,22.7-87.08Z"/>
            <path class="cls-2" d="M254.28,598.09l.46-8.99-3.85-.24c-1.28-.05-2.57-.06-3.85-.09l-7.7-.15-.13,9,7.54.15c1.26.03,2.51.04,3.77.09l3.76.23Z"/>
            <polygon class="cls-2" points="281.17 600.43 282.34 591.51 266.96 589.86 266.21 598.83 281.17 600.43"/>
            <polygon class="cls-2" points="307.59 605.17 309.63 596.4 302.02 594.84 298.22 594.05 296.31 593.67 294.4 593.37 292.87 602.24 294.72 602.53 296.56 602.9 300.24 603.66 307.59 605.17"/>
          </g>
        </g>
      </g>
    </g>
  </g>
</svg>