<?xml version="1.0" encoding="UTF-8"?>
<svg xmlns="http://www.w3.org/2000/svg" viewBox="0 0 1920 1080">
  <defs>
    <style>
      .cls-1 {
        fill: #adb4bc;
      }

      .cls-1, .cls-2, .cls-3, .cls-4, .cls-5, .cls-6 {
        stroke-width: 0px;
      }

      .cls-7 {
        stroke: #1d1d1b;
        stroke-width: .25px;
      }

      .cls-7, .cls-8, .cls-9, .cls-10 {
        fill: none;
      }

      .cls-7, .cls-8, .cls-9, .cls-10, .cls-11, .cls-12 {
        stroke-miterlimit: 10;
      }

      .cls-2 {
        fill: #d01a1f;
      }

      .cls-8, .cls-11 {
        stroke: #f3942c;
      }

      .cls-9, .cls-12 {
        stroke: #000;
      }

      .cls-13, .cls-4, .cls-14 {
        opacity: .5;
      }

      .cls-15 {
        letter-spacing: -.02em;
      }

      .cls-10 {
        stroke: #e2925b;
      }

      .cls-16 {
        fill: #f3942c;
        font-size: 26.08px;
      }

      .cls-16, .cls-14 {
        font-family: ClearSans, 'Clear Sans';
      }

      .cls-11, .cls-12, .cls-5 {
        fill: #fcf6de;
      }

      .cls-14 {
        font-size: 45.09px;
      }

      .cls-14, .cls-6 {
        fill: #1d1d1b;
      }

      .cls-17 {
        letter-spacing: -.04em;
      }

      .cls-12 {
        stroke-width: .75px;
      }

      .cls-18 {
        letter-spacing: -.02em;
      }
    </style>
  </defs>
  <g id="Calque_2" data-name="Calque 2">
    <rect id="fond" class="cls-5" x="-.2" y=".33" width="1920.2" height="1079.67"/>
  </g>
  <g id="Calque_1" data-name="Calque 1">
    <g id="TamponLogo" class="cls-13">
      <path class="cls-3" d="M1757.39,1031.48c-3.64-2.63-6.72-3.79-7.62-5.89-.62-1.45,1.64-5.9,2.86-5.99,2.38-.19,5.78,1.12,7.1,2.98.89,1.25-1.07,4.52-2.34,8.9Z"/>
      <g>
        <path class="cls-6" d="M1758.19,993.79c1.31.31,2.12,1.04,2.45,2.17.34,1.13.28,2.61-.1,4.51-.41,2.03-.58,3.06-.87,5.15-5.26-.48-7.9-.72-13.16-1.19.3-2.21.48-3.3.9-5.45.44-2.22,1.05-3.76,1.73-4.62.69-.86,1.57-1.16,2.62-.93.86.19,1.45.58,1.77,1.18.32.59.48,1.27.48,2.04.38-1.08.92-1.89,1.6-2.42.68-.53,1.54-.67,2.57-.43ZM1751.56,995.85c-.66-.13-1.19.06-1.59.57-.4.51-.76,1.49-1.04,2.94-.21,1.1-.31,1.66-.49,2.77,1.56.18,2.34.28,3.9.46.17-1.02.26-1.53.45-2.54.26-1.37.32-2.37.12-3.02-.2-.65-.64-1.04-1.34-1.18ZM1757.53,995.98c-.53-.11-.99-.07-1.36.13-.37.2-.7.57-.97,1.1-.27.53-.55,1.42-.8,2.68-.23,1.14-.33,1.72-.52,2.87,1.81.21,2.71.32,4.52.53.14-.88.22-1.31.39-2.18.26-1.35.4-2.33.39-2.96-.01-.63-.14-1.12-.4-1.47-.26-.36-.68-.59-1.25-.71Z"/>
        <path class="cls-6" d="M1757.25,982.85c-.16.18-.32.47-.48.87-.23.58-.35,1.19-.34,1.8,0,.61.16,1.38.48,2.27,2.63.79,3.94,1.19,6.57,1.98-.25.72-.38,1.09-.62,1.82-3.83-1.06-5.75-1.58-9.58-2.64.27-.82.41-1.23.69-2.05.62.19.92.28,1.54.46-.25-.69-.42-1.4-.53-2.13-.11-.73,0-1.47.29-2.22.2-.5.43-.88.68-1.13.51.38.77.58,1.29.95Z"/>
        <path class="cls-6" d="M1768.97,977.58c-.44-.22-.66-.33-1.1-.55.11.71.15,1.39.14,2.03-.01.64-.19,1.3-.51,1.96-.48.98-1.1,1.63-1.89,1.97-.78.33-1.59.35-2.43.03-.63-.25-1.09-.6-1.38-1.06-.28-.47-.41-1.04-.39-1.71.03-.67.25-1.57.69-2.69.47-1.12.72-1.67,1.23-2.77-.17-.09-.26-.13-.43-.21-.68-.34-1.27-.33-1.78.03-.51.36-.99.96-1.42,1.82-.39.76-.57,1.41-.56,1.92.01.51.1.91.27,1.19-.59.49-.88.74-1.46,1.25-.35-.55-.5-1.26-.42-2.1.07-.84.38-1.81.92-2.88.84-1.65,1.73-2.7,2.58-3.16.85-.46,1.84-.38,2.95.21,2.37,1.24,3.55,1.86,5.92,3.11-.38.65-.56.97-.93,1.63ZM1764.49,975.36c-.32.71-.48,1.06-.79,1.78-.53,1.21-.75,2.13-.68,2.75.06.61.39,1.04.96,1.27.54.23,1.01.23,1.4.01.39-.22.73-.64,1.05-1.26.13-.26.22-.53.26-.82.05-.29.07-.58.08-.88,0-.3,0-.6-.04-.9-.03-.3-.06-.6-.09-.89-.86-.43-1.29-.64-2.15-1.07Z"/>
        <path class="cls-6" d="M1774.15,965.05c.74.54,1.08,1.25,1.05,2.15-.03.89-.46,1.88-1.25,3-.54.77-1.15,1.38-1.83,1.85s-1.35.72-2.03.74c.05-.67.08-1.01.15-1.68,1-.08,1.85-.65,2.59-1.69.48-.68.74-1.25.76-1.74.02-.48-.15-.86-.53-1.12-.22-.15-.45-.22-.68-.2-.23.02-.49.13-.79.31-.29.18-.84.61-1.57,1.3-1.04.98-1.91,1.66-2.64,1.92-.73.25-1.44.19-2.12-.2-.75-.43-1.14-1.12-1.15-2.06,0-.94.4-2.02,1.23-3.19.64-.91,1.34-1.56,2.07-1.97.73-.41,1.39-.6,1.99-.59-.15.7-.22,1.04-.35,1.74-1.02.08-1.9.61-2.59,1.59-.4.56-.63,1.1-.7,1.62-.07.52.12.9.54,1.16.38.23.77.23,1.16,0s.91-.66,1.55-1.26c1.03-.96,1.83-1.56,2.35-1.83.52-.27,1-.39,1.45-.37.45.02.9.19,1.35.52Z"/>
        <path class="cls-6" d="M1781.5,956.89c.66.63.9,1.38.75,2.26-.15.88-.69,1.8-1.62,2.81-.63.69-1.31,1.21-2.04,1.58s-1.42.53-2.09.46c.14-.65.21-.98.37-1.64,1,.05,1.91-.39,2.77-1.32.56-.61.89-1.14.97-1.62.08-.47-.04-.87-.38-1.17-.2-.18-.42-.28-.65-.29-.23,0-.5.06-.81.2-.31.14-.91.49-1.71,1.07-1.15.83-2.1,1.39-2.85,1.54-.75.15-1.44,0-2.06-.48-.68-.53-.98-1.25-.86-2.18.11-.93.65-1.94,1.62-2.98.75-.81,1.52-1.37,2.29-1.67.77-.31,1.45-.41,2.03-.33-.24.67-.35,1-.57,1.67-1.01-.06-1.94.36-2.76,1.23-.46.5-.76,1.01-.89,1.51-.13.5,0,.91.38,1.22.34.28.72.33,1.14.15.42-.17.98-.53,1.69-1.04,1.13-.82,2-1.3,2.54-1.5.55-.2,1.04-.26,1.47-.18.44.08.85.31,1.26.69Z"/>
        <path class="cls-6" d="M1783.33,952.4c.88.93,1.7,1.42,2.47,1.48.76.06,1.57-.27,2.44-.99.39-.32.68-.67.86-1.05.18-.38.29-.83.32-1.37.7-.13,1.05-.19,1.74-.3,0,.7-.16,1.34-.46,1.95-.3.61-.85,1.23-1.66,1.89-1.28,1.05-2.49,1.56-3.69,1.51-1.2-.05-2.41-.66-3.6-1.86-1.25-1.26-1.86-2.49-1.78-3.7.08-1.21.81-2.43,2.22-3.59,1.26-1.04,2.47-1.52,3.57-1.44,1.1.07,2.1.72,3.02,1.9.22.28.33.42.55.7-2.48,1.84-3.68,2.81-5.99,4.86ZM1787.02,947.73c-.56-.66-1.17-1.04-1.83-1.13-.66-.09-1.4.19-2.18.83-.75.62-1.16,1.26-1.23,1.89-.07.64.17,1.36.71,2.16,1.76-1.56,2.67-2.31,4.53-3.75Z"/>
        <path class="cls-6" d="M1795.44,939.33c-.23.05-.52.18-.87.39-.52.31-.96.71-1.31,1.2-.35.48-.68,1.17-.96,2.05,1.51,2.2,2.27,3.3,3.78,5.51-.61.4-.92.61-1.52,1.03-2.26-3.14-3.4-4.71-5.66-7.84.68-.47,1.02-.7,1.71-1.16.35.52.53.78.89,1.29.22-.68.5-1.34.84-1.97.34-.63.85-1.15,1.52-1.55.44-.27.84-.43,1.17-.47.16.61.24.92.41,1.52Z"/>
        <path class="cls-6" d="M1798.11,933.25c.17.32.19.6.06.82-.13.22-.41.44-.83.67-.45.24-.8.34-1.05.29-.25-.05-.45-.2-.6-.47-.16-.28-.18-.54-.07-.78.11-.24.39-.47.82-.7.45-.24.8-.35,1.06-.32.26.03.47.19.62.49ZM1801.91,944.95c-1.9-3.36-2.85-5.04-4.75-8.41.72-.4,1.08-.6,1.81-.98,1.82,3.41,2.73,5.11,4.55,8.51-.65.34-.97.52-1.61.87Z"/>
        <path class="cls-6" d="M1806.05,937.67c.53,1.16,1.15,1.88,1.84,2.16.69.29,1.55.2,2.59-.23.47-.19.84-.44,1.14-.75s.53-.72.73-1.23c.69.08,1.04.13,1.73.22-.23.67-.57,1.25-1.04,1.75-.47.5-1.18.94-2.14,1.34-1.53.64-2.82.77-3.93.36-1.11-.41-2.04-1.35-2.78-2.87-.77-1.59-.95-2.95-.51-4.09.45-1.14,1.52-2.1,3.2-2.8,1.51-.63,2.79-.73,3.79-.34,1,.39,1.74,1.31,2.23,2.73.12.33.17.5.29.84-2.9,1.04-4.33,1.63-7.13,2.91ZM1810.97,934.25c-.32-.81-.77-1.35-1.36-1.64-.59-.28-1.36-.23-2.3.16-.9.37-1.48.87-1.74,1.46-.27.59-.27,1.36,0,2.29,2.14-.98,3.22-1.43,5.41-2.27Z"/>
        <path class="cls-6" d="M1821.92,936.89c.75-5.48,1.29-8.24,2.71-13.74,1.17-.24,1.76-.35,2.93-.55,3.03,4.67,4.4,7.07,6.8,11.96-.83.09-1.24.14-2.07.26-.65-1.26-.98-1.88-1.67-3.12-2.49.38-3.72.61-6.17,1.16-.25,1.42-.37,2.13-.58,3.55-.78.19-1.18.29-1.96.49ZM1824.77,931.19c2-.43,3-.62,5.02-.95-1.32-2.31-2.02-3.46-3.49-5.71-.69,2.66-.99,4-1.52,6.66Z"/>
        <path class="cls-6" d="M1836.8,934.32c-.25-5.52-.37-8.28-.62-13.8.86-.07,1.3-.1,2.16-.15.12,5.53.18,8.29.3,13.82-.74.04-1.1.07-1.84.13Z"/>
        <path class="cls-6" d="M1848.78,934.19c.05-.49.08-.73.13-1.22-.63.4-1.24.73-1.85.99-.61.26-1.27.38-2,.37-1.07-.02-1.88-.3-2.45-.86-.57-.56-.86-1.28-.84-2.16.01-.67.18-1.23.51-1.68.33-.45.81-.81,1.44-1.07.63-.26,1.54-.44,2.72-.52,1.2-.05,1.8-.07,3.01-.08.02-.19.03-.28.05-.47.08-.75-.13-1.28-.64-1.58-.51-.3-1.24-.47-2.19-.5-.84-.02-1.5.08-1.97.31-.47.23-.8.47-1.01.74-.65-.32-.98-.47-1.64-.78.39-.55.99-.97,1.79-1.26.8-.29,1.8-.43,2.98-.39,1.83.05,3.11.4,3.84.96.73.56,1,1.48.83,2.72-.35,2.64-.52,3.96-.86,6.61-.74-.06-1.11-.09-1.85-.14ZM1849.31,929.25c-.78.01-1.16.02-1.93.05-1.31.04-2.24.24-2.78.55-.54.31-.82.78-.85,1.4-.02.58.13,1,.46,1.26.33.26.84.39,1.52.4.28,0,.57-.03.85-.11.28-.08.57-.18.85-.3.28-.12.56-.26.83-.42.27-.16.54-.31.8-.45.1-.95.15-1.43.25-2.38Z"/>
        <path class="cls-6" d="M1861.18,935.94c.15-.57.23-.85.38-1.42-.71.36-1.45.63-2.21.82-.77.19-1.47.23-2.13.12-.75-.13-1.33-.34-1.75-.65-.42-.31-.7-.72-.82-1.24-.13-.52-.12-1.21.04-2.08.46-2.59.68-3.88,1.14-6.46.83.11,1.25.17,2.08.29-.46,2.28-.68,3.41-1.14,5.69-.18.92-.25,1.54-.2,1.86.05.32.19.57.41.75.22.18.56.31,1.04.39.47.08,1.06.03,1.78-.15.72-.18,1.43-.42,2.16-.71.73-2.69,1.09-4.04,1.82-6.73.83.18,1.24.28,2.06.48-1.12,3.79-1.68,5.68-2.8,9.47-.73-.18-1.1-.27-1.83-.43Z"/>
        <path class="cls-6" d="M1873.53,939.75c.97-2.13,1.45-3.2,2.42-5.33.39-.86.6-1.46.61-1.79.02-.33-.08-.62-.28-.85-.2-.23-.56-.44-1.06-.63-.51-.19-1.17-.26-1.96-.21s-1.59.19-2.37.42c-.98,2.62-1.47,3.93-2.45,6.55-.73-.23-1.09-.35-1.82-.56,1.3-3.74,1.95-5.61,3.25-9.35.82.24,1.23.37,2.04.63-.21.55-.31.83-.52,1.38.73-.25,1.54-.41,2.43-.47.89-.06,1.73.05,2.5.34,1.19.45,1.95,1.06,2.27,1.78.32.72.18,1.67-.38,2.84-1.15,2.39-1.73,3.59-2.89,5.98-.71-.31-1.07-.45-1.78-.74Z"/>
        <path class="cls-6" d="M1884.76,945.29c.27-.42.41-.63.69-1.04-.78.05-1.52.05-2.22-.01-.7-.06-1.39-.27-2.07-.63-1.01-.54-1.65-1.18-1.93-1.96-.28-.78-.22-1.57.2-2.37.32-.6.74-1.04,1.26-1.29.52-.25,1.14-.35,1.85-.28.71.07,1.66.34,2.82.84,1.17.54,1.75.82,2.91,1.41.11-.16.16-.24.27-.41.42-.64.47-1.23.12-1.75-.35-.52-.96-1.04-1.85-1.53-.79-.43-1.46-.65-2.01-.67-.55-.02-.98.05-1.3.19-.47-.6-.71-.9-1.19-1.49.62-.31,1.38-.42,2.28-.3.89.12,1.9.48,3.01,1.08,1.71.94,2.79,1.89,3.22,2.76.43.88.27,1.84-.46,2.9-1.55,2.24-2.33,3.36-3.88,5.6-.68-.43-1.02-.64-1.71-1.05ZM1887.54,941.05c-.75-.37-1.12-.55-1.87-.9-1.27-.6-2.24-.87-2.9-.85-.66.02-1.14.32-1.45.86-.29.52-.34.97-.14,1.37.2.39.61.76,1.26,1.1.27.14.55.25.86.31.31.07.62.11.95.14.33.03.65.04.98.03s.65-.02.97-.02c.54-.82.8-1.22,1.34-2.04Z"/>
      </g>
      <g>
        <path class="cls-6" d="M1772.23,1030.3c-.08-.57-.12-.86-.2-1.43.79,1.31,1.38,2.21,1.73,2.72.36.51.65.9.88,1.17.23.27.39.39.49.38.1,0,.11-.23.03-.66-.08-.49-.28-1.18-.59-2.1-.31-.92-.67-1.9-1.09-2.96-.39-1.01-.69-1.73-.9-2.14-.21-.42-.38-.67-.5-.75-.35-1.19-.51-1.79-.83-3,.19.09.45.56.8,1.39.35.83.79,1.98,1.34,3.42.72,1.9,1.36,3.6,1.9,5.13.54,1.53.91,2.7,1.07,3.54.08.43.11.71.07.86-.04.14-.14.14-.31,0-.17-.15-.41-.42-.72-.81-.31-.39-1.03-1.37-2.12-3.04,1.74,3.99,2.69,5.89,4.73,9.5.12.46.18.68.3,1.14-2.68-4.62-3.91-7.09-6.08-12.35Z"/>
        <path class="cls-6" d="M1786.07,1053.12c.31.75.46,1.13.79,1.88-.61-.75-.91-1.13-1.51-1.89-.31-.76-.46-1.14-.75-1.91-2.33-3.13-3.43-4.79-5.5-8.29-.13-.48-.2-.71-.32-1.19,1.41,1.15,2.12,1.7,3.55,2.74.5.79.76,1.18,1.28,1.95.76,2.32,1.17,3.47,2.07,5.74.63.82.95,1.23,1.6,2.03.16.39.25.58.42.97-.66-.79-.98-1.19-1.62-2.01ZM1782.8,1046.05c-1.07-.77-1.61-1.17-2.67-2,1.56,2.56,2.38,3.78,4.09,6.14-.6-1.64-.89-2.47-1.42-4.14Z"/>
        <path class="cls-6" d="M1798.03,1064.69c.82,1.31,1.04,1.92.63,1.86-.41-.07-1.49-.8-3.15-2.33-1.66-1.52-3.04-3.04-4.12-4.49-1.09-1.45-1.96-2.93-2.62-4.4s-.76-2.14-.36-1.99c.39.15,1.31,1.12,2.81,2.8,1.52,1.69,2.83,3.19,3.94,4.56,1.1,1.36,2.06,2.69,2.88,4ZM1796.17,1063.03c-.61-1.05-1.28-2.04-2-3-.72-.95-1.56-1.94-2.51-2.98-.94-1.02-1.49-1.55-1.69-1.52-.2.02-.05.6.49,1.73.54,1.12,1.17,2.18,1.91,3.17.73.99,1.61,1.96,2.62,2.91,1.03.96,1.65,1.39,1.84,1.34.19-.05-.04-.6-.66-1.65Z"/>
        <path class="cls-6" d="M1811.69,1073.97c-.23-.15-.53-.33-.89-.54-.54-.32-1.01-.58-1.42-.78-.41-.2-.82-.36-1.23-.49,1.12,1.35,1.7,2.01,2.89,3.31-.74-.42-1.11-.64-1.85-1.08-1.68-1.93-2.49-2.92-4.02-4.95.7.49,1.05.73,1.75,1.2.25.32.38.48.64.8.31.09.67.23,1.07.4.41.17.94.47,1.62.88.45.27.85.52,1.17.74.11.2.16.3.27.51Z"/>
        <path class="cls-6" d="M1825.39,1082c-.29-.22-.44-.34-.73-.56-.36-.02-.82-.1-1.38-.24-.56-.14-1.19-.35-1.88-.63-.79-.32-1.49-.64-2.09-.96-.61-.32-1.14-.64-1.59-.95s-.88-.67-1.28-1.06c-1.2-1.16-1.79-1.75-2.93-2.96.73.4,1.1.59,1.84.97,1.03,1.04,1.55,1.55,2.63,2.55.44.4.79.7,1.05.88.26.18.55.36.87.53.32.17.72.35,1.21.55.49.2.99.36,1.5.5.51.13.96.22,1.36.28-1.36-1.09-2.03-1.66-3.32-2.81.76.32,1.14.48,1.9.78,1.86,1.58,2.83,2.34,4.82,3.8-.79-.25-1.18-.39-1.97-.66Z"/>
        <path class="cls-6" d="M1894.59,1076.77c-.29.04-.43.07-.72.11-.29.25-.63.51-1.02.77-.39.26-.94.57-1.65.9-1.05.5-2.04.88-2.95,1.15-.92.27-1.64.41-2.17.43-.4.02-.58-.03-.54-.14.04-.11.27-.28.68-.5.42-.22,1.13-.56,2.13-1.02,1.03-.47,1.54-.72,2.55-1.22-.11.01-.17.02-.28.03-.44.05-.98.18-1.6.41-.63.22-1.35.51-2.19.86-.74.31-1.25.54-1.52.69-.27.16-.42.27-.44.33-.79.24-1.18.35-1.98.57.02-.12.3-.31.83-.57.53-.26,1.31-.59,2.33-1,1.58-.65,2.84-1.16,3.82-1.5.97-.34,1.82-.57,2.56-.66,1.56-.2,2.34-.32,3.91-.6-.7.39-1.05.59-1.75.96ZM1891.66,1077.17c-.66.34-.99.5-1.65.82-1.13.55-1.85.9-2.16,1.1-.3.2-.27.29.1.26.35-.02.76-.11,1.25-.27.48-.16,1.05-.39,1.71-.7.27-.13.51-.25.72-.38.21-.12.4-.24.58-.36s.33-.23.47-.34c.14-.11.27-.21.4-.31-.56.08-.85.11-1.41.18Z"/>
        <path class="cls-6" d="M1915.6,1060.75c-1.24.65-1.87.96-3.12,1.55-.53.25-.91.43-1.14.57-.24.14-.47.3-.71.49-.24.19-.53.44-.88.75-.3.27-.57.54-.82.82-.25.28-.51.62-.79,1.01,1.54-.58,2.3-.9,3.83-1.58-.59.55-.89.83-1.5,1.37-1.29.53-1.93.78-3.22,1.25-.51.19-.9.34-1.15.46-.25.12-.5.26-.75.42-.25.16-.56.38-.93.66-.34.26-.67.53-.97.82-.31.29-.57.58-.8.86,1.57-.44,2.36-.69,3.94-1.23-.63.5-.95.74-1.6,1.22-2.24.7-3.37,1.01-5.61,1.53.66-.42.99-.64,1.64-1.08.33-.09.5-.13.83-.22.16-.22.41-.49.73-.81.32-.32.78-.69,1.37-1.12.65-.48,1.24-.9,1.79-1.26.55-.36,1.07-.66,1.57-.89.19-.29.43-.61.72-.95.29-.35.74-.78,1.34-1.31.55-.49,1.05-.92,1.52-1.29.46-.36.9-.68,1.3-.95.41-.27.85-.52,1.34-.75,1.4-.69,2.1-1.06,3.49-1.84-.55.61-.83.91-1.39,1.51Z"/>
        <path class="cls-6" d="M1923.39,1049.5c.83-.64,1.19-.75,1.09-.28-.1.46-.66,1.47-1.73,2.96-1.07,1.49-2.14,2.73-3.19,3.75-1.05,1.02-2.04,1.78-2.94,2.29-.92.52-1.29.54-1.12.1.18-.44.85-1.31,1.98-2.65,1.14-1.36,2.18-2.56,3.17-3.61.99-1.05,1.89-1.9,2.73-2.55ZM1922.16,1051.27c-.66.48-1.31,1.05-1.95,1.7-.64.65-1.31,1.41-2.01,2.26-.72.88-1.12,1.43-1.16,1.66-.04.23.28.15.97-.26.66-.4,1.32-.91,1.98-1.54.65-.63,1.35-1.43,2.06-2.4.68-.93,1.03-1.53,1.04-1.77.02-.24-.29-.11-.93.35Z"/>
      </g>
      <path class="cls-3" d="M1882.95,1107c-56.21,26.16-120.89,4.23-145.77-49.43-24.57-52.99.71-117.14,56.87-142.78,55.66-25.41,117.47-4.35,142.93,44.81,30.33,58.57-.89,123.3-54.03,147.4ZM1749.75,955.18c-.63,1.73-1.06,3.84-2.11,5.61-13.03,21.97-18.16,45.14-14.41,69.76.37,2.46.04,5.04.03,7.61,1,1.88,2.45,3.89,3.19,6.13,8.89,26.85,25.99,46.84,52.08,59.28,24.27,11.57,50.12,13.92,76.49,6.17,23.34-6.86,43.18-19.76,57.8-39.58,12.59-17.07,19.9-35.74,21.44-56.35,1.23-16.52-2.39-35.34-9.53-49.82-.4-.8-.09-1.92-.28-2.85-.18-.89-.36-1.9-.91-2.56-1.88-2.23-4.24-4.11-5.84-6.5-7.59-11.33-17.31-20.9-28.93-27.95-21.6-13.11-45.63-18.55-71.82-14.94-1.9.26-3.89-.33-5.41-.48-2.13,1-4,2.24-6.04,2.77-24.67,6.33-44.84,19.36-60.65,39.03-1.42,1.76-3.37,3.12-5.09,4.68Z"/>
      <path class="cls-3" d="M1909.3,939.99c-43.78-38.7-101.77-28-129.83-3.62-46.75,40.62-50.32,86.28-19.6,134.81-12.19-8.22-26.16-45.64-20.25-74.57,8.95-43.85,43.84-76.92,89.19-83.31,29.29-4.13,72.99,9.84,80.49,26.69Z"/>
      <path class="cls-3" d="M1769.77,1009.25c-3.39-19.05,15.22-47.04,37.79-58.31,28.05-14.01,62.3-8.47,83.29,12.89,17.28,17.59,21.6,49.75,13.62,64.93,6.41-47.62-11.29-78.29-62.73-83.28-18.32-1.78-35.1,5.69-48.92,18.39-13.5,12.41-21.11,27.63-23.06,45.38Z"/>
      <path class="cls-9" d="M1936.24,987.75c6.47,29.73-.36,57.21-20.25,82.13-22.03,27.6-56.55,38.57-71.73,37.1,65.95-14.38,96.79-53.99,91.99-119.23Z"/>
      <path class="cls-3" d="M1769.17,1017.16c8.15,42.53,34.43,62.35,79.16,59.3-3.59,4.31-23.89,3.27-37.8-1.92-28.71-10.71-42.94-38.9-41.36-57.38Z"/>
      <path class="cls-3" d="M1840.7,1106.71c-19.11,8.14-72.05-13.52-78.99-32.25,21.05,22.09,47.25,33.03,78.99,32.25Z"/>
      <path class="cls-3" d="M1914.73,946.19c9.65,9.65,16.36,21,19.34,34.4-6.45-11.47-12.89-22.93-19.34-34.4Z"/>
      <path class="cls-3" d="M1851.24,1076.11c9.89-4.63,19.72-9.22,29.29-13.7-2.52,5.45-22.61,15.06-29.29,13.7Z"/>
      <path class="cls-3" d="M1884.12,1059.71c6.2-8.96,12.65-18.28,18.73-27.06,1.31,5-11.63,24.23-18.73,27.06Z"/>
      <path class="cls-3" d="M1904.58,951.81c-1.56,2.46-2.14,4.43-3.38,5.01-1.04.49-2.84-.62-4.31-1.02.64-1.54.9-3.5,2.05-4.46.76-.64,2.79.16,5.64.47Z"/>
      <path class="cls-3" d="M1855.78,979.48c.5-.37,1-.73,1.51-1.1.26.41.57.8.78,1.24,2.59,5.18,5.16,10.38,7.76,15.56,2.33,4.65,4.72,9.28,7,13.96.48.99,1.1,1.51,2.18,1.73,1.18.24,2.32.65,3.48.99-1.96-.36-3.92-.73-6.03-1.12-.24.67-.49,1.35-.73,2.03.08.03.16.06.24.08.16-.57.33-1.15.48-1.69,4.67,1.13,8.96,2.16,13.24,3.2.01-.07.03-.14.04-.2-.88-.34-1.76-.68-2.64-1.03.65.07,1.32.04,1.93.22,1.51.44,2.64-.19,4.16-1.43-1.43-.31-2.53-.55-3.62-.79.04-.11.09-.22.13-.33.56.15,1.19.21,1.68.48,2.33,1.31,4.01-.4,5.86-1.33.5-.25.99-.52,1.29-.68.4,1.34.6,2.45,1.05,3.46,1.61,3.58,3.31,7.13,5.09,10.94-9.5,5.76-18.92,11.46-28.1,17.02-2.07-5.41-4.8-10.17-6.9-15.21-.13.05-.25.1-.38.15.17.56.35,1.11.65,2.05-.55-.84-.87-1.35-1.2-1.85-.1.05-.2.11-.3.16,2.3,4.91,4.59,9.82,6.97,14.92-1.37.42-2.52.77-3.67,1.12-.04-.11-.07-.21-.11-.32,1.01-.35,2.02-.71,3.23-1.13l-6.06-12.96c-1.16.47-2.41.97-3.78,1.52,1.85,3.96,3.69,7.87,5.5,11.79.2.44.21.97.09,1.49-.37-2.35-1.79-4.23-2.76-6.27-.94-1.98-1.4-4.35-3.2-5.8-.2.12-.4.25-.6.37,1.84,3.94,3.69,7.89,5.5,11.76-2.96,1.68-5.79,3.29-8.62,4.9.06.1.12.21.18.31,2.53-1.42,5.07-2.84,7.6-4.27.05.08.11.17.16.25-2.68,1.63-5.35,3.26-8.08,4.93-.1-.16-.35-.56-.6-.95-.05.03-.1.05-.15.08.17.45.35.89.52,1.34-.04.02-.08.05-.12.07-.31-.5-.62-1-.93-1.5-.14.05-.29.11-.43.16.19.71.39,1.42.68,2.5-.51-.66-.8-1.03-1.17-1.5-.11,1.95-.06,2.03-2.17,3.33-4.16,2.58-8.37,5.07-12.7,7.68.16-.67.44-1.15.31-1.44-2.61-5.68-5.28-11.33-7.94-16.99-.03-.07-.15-.09-.57-.32.27.88.47,1.51.66,2.15-.04.02-.09.05-.13.07-.32-.56-.64-1.11-.99-1.72-.66.22-1.27.41-1.88.61.02.09.03.17.05.26.42-.11.85-.22,1.4-.37.6,1.28,1.21,2.59,1.82,3.9-.05.03-.11.06-.16.1l-1.65-3.52c-.14.04-.27.08-.41.12.07.42.06.88.23,1.25,2.06,4.41,4.16,8.81,6.22,13.22.28.61.43,1.28.53,1.96-2.19-4.68-4.35-9.37-6.59-14.01-.27-.56-.99-.91-1.5-1.36,0,0,.07.02.07.02-.53-.75-1.05-1.5-1.45-2.07.93-.19,2.18-.31,3.32-.73.67-.25,1.48-.87,1.71-1.48,1.43-3.86,2.7-7.77,4.17-12.08-.93.44-1.54.74-2.16,1.01-3.03,1.31-6.03,2.7-9.12,3.87-1.53.58-2.22,1.56-2.62,2.96-.26.89-.68,1.75-1.04,2.64-1.23-2.63-2.39-5.11-3.56-7.62-.96.28-.97.28-.55,1.21.96,2.08,1.94,4.15,2.91,6.23-.12.06-.24.11-.36.17l-1.3-2.78c-4.32,1.68-8.54,3.32-12.76,4.97.4-.39.81-.79,1.21-1.18-.04-.04-.09-.08-.13-.12l-2.88,1.35c.03.07.07.15.1.22.33-.08.66-.15,1.15-.27-.4.45-.66.73-.91,1.02.12.09.25.19.37.28.37-.46.75-.92,1.12-1.38.37.16.75.32,1.28.55-.19.24-.55.67-.91,1.1.09.05.18.09.26.14,0-.33.01-.67.02-1-.13-.05-.25-.09-.38-.14-.39.91-.79,1.81-1.2,2.75-.78-1.68-1.51-3.31-2.32-4.91-.18-.35-.64-.56-.97-.84-.01.46-.17.98-.01,1.37.6,1.45,1.3,2.86,1.79,4.4-.4-.55-.8-1.1-1.18-1.63-1.4.25-2.12,1.06-2.53,2.34-.67,2.08-1.49,4.12-2.24,6.17-.16-.05-.32-.11-.48-.16,1-2.53,1.91-5.1,3.06-7.57.27-.59,1.32-.86,2.12-1.34-.43-1.07-.87-2.14-1.34-3.31.79-.44,1.53-.8,2.2-1.25.54-.36.99-.84,1.48-1.26-.58-.14-1.16-.28-1.82-.45.09-.12.27-.37.45-.62.33.03.7.17.97.06,3.03-1.27,6.06-2.58,9.07-3.9.29-.13.63-.4.74-.67.47-1.21.87-2.44,1.29-3.67v.04c.37-.13.79-.41,1.12-.35.79.15,1.59.39,2.3.74.4.19.66.66.97,1.01.29.32.58.66.87.98.04-.42.23-.9.08-1.24-2.44-5.81-4.91-11.6-7.38-17.39-1.93-4.53-3.88-9.05-5.83-13.57-.31-.72-.66-1.43-1.06-2.27-.59.38-1.12.73-1.65,1.07-.05-.05-.09-.1-.14-.15.47-.42.94-.84,1.41-1.26-.03-.06-.06-.12-.08-.17-.33.18-.66.36-.99.54-.04-.04-.09-.08-.13-.12.37-.37.73-.74,1.1-1.1-.04-.04-.07-.09-.11-.13l-.74.34c0-.58.22-1.37-.08-1.82-.22-.33.29-2.01-.85-1.12-.05-.31-.05-.7-.17-1.04-1.68-4.47-3.38-8.93-5.16-13.61.86-.4,1.57-.81,2.33-1.05.29-.1.83.05,1.02.27.71.87,1.43,1.77,1.95,2.76,1.97,3.75,3.86,7.54,5.8,11.37.93-.38,1.78-.73,2.62-1.08,0,.02.02.04.02.05-.76.41-1.51.82-2.37,1.28l.52,1.11,2.6-1.21.08.16c-.85.48-1.7.96-2.54,1.44.04.1.09.21.13.31.21-.05.43-.1.44-.1.13.76.25,1.53.4,2.42.48-.22.71-.34.94-.44.18-.08.37-.15.65-.1-.38.32-.76.65-1.19,1.02,6.1,11.99,12.18,23.95,18.3,36,1.92-.9,3.62-1.69,5.47-2.56-2.32-4.97-4.65-9.94-7-14.98-.56.13-1.17.28-1.78.43-.12-.12-.25-.25-.37-.37.95-1.11,1.91-2.22,2.86-3.33-.68,1-1.36,1.99-2.14,3.14,5.03-2.35,9.77-4.57,14.69-6.87-.89-.24-1.48-.39-2.07-.55,1,.03,2,.07,3,.1.04.12.09.25.13.37-.52.31-1.04.63-1.67,1.01,1.81,3.87,3.63,7.76,5.5,11.77,1.22-.48,2.39-.94,3.64-1.44-1.03-2.52-1.94-4.9-2.95-7.23-3.75-8.61-7.53-17.2-11.33-25.78-.21-.47-.67-.83-1.05-1.28-.12.07.11-.06.09-.05-.08-.47-.02-.91-.23-1.16-.33-.39-.82-.65-1.24-.95.08-.05.35-.21.63-.38-.03-.07-.05-.13-.08-.2-.37.09-.74.18-1.35.32.48-.4.78-.65,1.17-.98-1.27-1.96-1.31-4.58-3.28-6.35-.1.15.05-.04.16-.25.06-.12.04-.27.07-.56-.33.18-.56.3-1.01.54.28-.53.46-.88.64-1.22-.06-.05-.13-.1-.19-.15-.37.34-.74.67-1.11,1.01.72-.83.9-1.69.52-2.64-.4-1.02.27-1.44,1.07-1.79-.99.73-.85,1.57-.44,2.5,1.88,4.23,3.73,8.46,5.57,12.7,4.44,10.2,8.87,20.39,13.31,30.59.44,1,.92,1.98,1.38,2.96.14-.06.28-.12.42-.17-.57-1.42-1.14-2.83-1.7-4.25.13-.05.26-.1.39-.16l1.92,4.11c.12-.05.25-.1.37-.15-.28-.88-.56-1.76-.84-2.65.05-.02.1-.04.15-.06.46.81.92,1.62,1.38,2.43.18-.09.36-.18.55-.27-.76-1.62-1.51-3.24-2.27-4.86.18-.08.36-.15.54-.23l2.23,4.77c.12-.06.24-.12.36-.18-5.45-11.13-10.89-22.25-16.34-33.38.12-.06.23-.12.35-.17,5.49,11.08,10.97,22.16,16.46,33.25.14-.07.28-.14.42-.21-4.55-9.19-9.1-18.37-13.66-27.56.1-.05.19-.09.29-.14,4.63,9.2,9.26,18.41,13.89,27.61l.45-.23c-.97-1.84-1.99-3.67-2.91-5.54-6.52-13.12-13.05-26.25-19.52-39.4-.62-1.26-1.31-1.86-2.76-1.28.76-.1,1.98-.54,2.19-.25.76,1.03,1.63,1.09,2.76.87-.55.17-1.1.33-2.08.63,1.75,3.1,3.4,6.09,5.13,9.04.23.38.83.55,1.23.8-.19.06-.57.17-.94.28-.04.11-.09.23-.13.34.28.06.57.13.72.16,0,.14-.09.48.03.72,2.64,5.5,5.3,11,7.97,16.48.84,1.72,1.79,3.39,2.61,5.12,1.9,3.99,3.75,8,5.71,12.19,2.42-1.13,4.46-2.08,6.49-3.04,1.31-.62,2.6-1.28,3.91-1.88.83-.38.97-.82.61-1.64-3.31-7.52-6.57-15.05-9.84-22.59-.75-1.72-1.49-3.43-2.23-5.15.52.81,1.15,1.56,1.52,2.43,3.6,8.3,7.2,16.61,10.69,24.96.68,1.62,1.86,2.04,3.43,2.32-4.82-9.79-9.58-19.45-14.33-29.12.1-.05.21-.1.31-.15,5.03,10.1,10.07,20.19,15.1,30.29.14-.07.29-.14.43-.22-5.27-10.39-10.54-20.79-15.86-31.27-.45.27-.88.54-1.31.8ZM1840.85,1029.39c-1.13-.47-2.25-.94-3.25-1.35-.41.7-.83,1.23-1.04,1.82-.76,2.12-1.46,4.25-2.15,6.38-.33,1.03-.58,2.07-.87,3.11-1.41,1.95-.43,4.89,1.52,5.26.94-.56,1.73-1.03,2.51-1.5.1.17.2.34.3.51-1.04.64-2.09,1.28-3.28,2.01,1.56,3.33,3.21,6.87,4.93,10.55.58-.2,1.18-.41,1.62-.57-.54-.17-1.37-.17-1.55-.51-1.13-2.17-2.12-4.4-3.16-6.62.14.02.28.04.42.05.26-.59.79-1.22.73-1.77-.1-1.07.11-1.87,1.13-2.38.99-.48,1.78-.19,2.37.64-.49-.09-.98-.17-1.8-.32.77,1.02,1.37,1.81,1.96,2.6-.27.59-.9,1.31-.75,1.75.56,1.68,1.37,3.28,2.12,4.9.04.09.37.04.57.06-.53.85-.93.59-1.26-.1-.64-1.33-1.32-2.65-1.9-4-.48-1.1-1.46-2.26.27-3.28-.72-.39-1.35-.74-2.35-1.28.25,1.38.27,2.61.71,3.67,1.06,2.54,2.3,5.01,3.52,7.48.17.34.64.52.97.77-.02-.39,0-.79-.08-1.17-.05-.26-.22-.49-.34-.76.82-.49,1.55-.93,2.41-1.45-.46-.3-.74-.49-1.03-.68.71-.15,1.41-.31,2.12-.46-.03-.11-.05-.22-.08-.33-.41.11-.82.23-1.46.41-1.23-2.63-2.44-5.23-3.65-7.82.37.12.74.25,1.11.37.12-.42.38-.86.35-1.27-.16-1.79.64-2.59,2.44-2.34.02.5-.14,1.08.08,1.47.43.77,1.07,1.42,1.62,2.13-.45-.03-.79-.06-1.13-.09-.05.39-.24.84-.11,1.15.6,1.45,1.3,2.86,1.96,4.28.09.19.1.41.17.68.32-.19.56-.32.82-.47-.27-.2-.47-.34-.67-.48.07-.12.14-.24.2-.36.57.24,1.15.49,1.71.73-.8.32-1.6.63-2.53,1-.91-1.95-1.85-3.83-2.64-5.77-.16-.39.27-1.03.43-1.55.07-.22.29-.5.21-.63-.33-.6-.74-1.15-1.15-1.75-1.35,1.3-.95,2.63-.39,3.87,1.22,2.66,2.53,5.28,3.82,7.91.1.2.35.34.52.5.09-.05.19-.11.28-.16-.16-.52-.32-1.04-.43-1.39.65-.74,1.22-1.4,1.8-2.06.41-.36.82-.72,1.22-1.08-1.27.81-1.44-.2-1.84-.93-1.32-2.36-2.69-4.7-4.04-7.04.19.05.4.07.57.16.52.28,1.02.59,1.52.89.03-.56-.07-1.16.13-1.67.26-.65.63-1.5,1.18-1.73.55-.23,1.4.11,2.06.34.66.24,1.25.65,1.87.98.11-.13.22-.26.34-.39.89,1.9,1.77,3.79,2.66,5.69.05-.03.11-.05.16-.08-1.48-3.17-2.96-6.34-4.54-9.71-.18.58-.3.93-.41,1.29-.08-.12-.16-.24-.25-.36-1.92,1.04-3.84,2.08-6.17,3.34.06-.04-.21.22-.53.34-.29.11-.64.08-.96.11l-.02.05c.29-.45.57-.9.86-1.35.1.09.2.18.3.28.44-.34.85-.74,1.33-1.01.79-.44,1.63-.8,2.44-1.2.67-.33,1.34-.92,2.01-.94,1.12-.03,1.14-.8,1.08-1.33-.33-2.9-2.31-4.52-5.61-4.73-1.36-.46-2.72-.91-4.07-1.37ZM1866.59,1025.82c.12.46.18.95.37,1.37,1.71,3.75,3.45,7.49,5.18,11.24.19.41.38.81.57,1.22.1-.04.2-.09.3-.13-.33-.85-.66-1.71-.99-2.56.1-.04.21-.09.31-.13l1.19,2.55c1.38-.77,2.61-1.47,3.85-2.13,1.84-.97,1.92-1.69.11-3.25.06.9,1.11,1.79-.18,2.4-1.2.57-2.41,1.13-3.71,1.74-2.16-4.62-4.3-9.2-6.44-13.77-.1,0-.2,0-.3.01-.1.5-.2,1-.3,1.5l.03-.06ZM1878.22,1013.23c-1.21-.38-2.43-.76-3.89-1.22.5.76.82,1.24,1.14,1.73.23-.34.43-.65.75-1.13.48.65.86,1.16,1.2,1.62.28-.36.54-.7.81-1.04.41.58.82,1.15,1.24,1.73.19-.35.37-.66.6-1.08.43.42.74.72,1.03,1.01.98-1.33,1.11.12,1.65.42,1.02-1.54.94.47,1.61.18.4-.12.96-.14,1.06.06,1.97,4.11,3.9,8.25,5.92,12.58-1.03.57-1.99,1.1-2.92,1.62-.43-.43-.73-.73-1.02-1.02-.05.04-.1.08-.14.11l.91,1.94c1.1-.72,2.05-1.67,3.19-2.01,1.05-.31,1.1-.56.72-1.34-1.87-3.9-3.71-7.81-5.59-11.7-.18-.37-.52-.82-.88-.91-2.45-.57-4.92-1.05-7.38-1.55ZM1857.44,1034.03c-.19.16-.37.32-.56.49.76.59.36,2.04,1.69,2.2.92.11,1.84.22,2.91.34,1.42,2.35,1.35,2.79-.62,3.22-.17.68-.34,1.32-.62,2.4,1.59.08,3.11.16,5.06.26-1.88-4.03-3.45-7.57-5.23-11-.28-.54-1.52-.58-2.32-.85-1.05.19-1.42.64-.82,1.61.25.39.34.88.5,1.33ZM1837.47,1026.86c1.76.47,3.41-.02,5.11-.55l-2.12.99c.04.11.08.23.12.34.5-.14,1.01-.24,1.49-.42.55-.21,1.07-.49,1.72-.79-2.68-5.74-5.38-11.51-8.13-17.4-.54.3-.98.56-1.71.96.63.13.89.19,1.27.26-1.04,1.19-2.07,2.09-3.76,1.84-.33-.05-.77.46-1.16.71.09.13.18.26.27.39.44-.12.87-.24,1.36-.37-.41.34-.77.64-1.06.87,1.45,3.09,2.84,6.07,4.25,9.08.38-.1.75-.19,1.34-.35-.51.42-.84.69-1.27,1.03.89.79.39,2.56,2.28,2.5.19.23-1.9.76.01.89.43.37.79.92,1.3,1.09,3.14,1.07,6.3,2.06,9.46,3.06.24.08.52.04.78.06.05-.15.09-.3.14-.46-.49-.08-1.01-.09-1.48-.25-3.41-1.16-6.81-2.34-10.21-3.52ZM1870.66,1018.95c-.34-.28-.68-.56-1.01-.84-.29.32-.68.6-.84.97-.48,1.13-1.07,2.33.32,3.24-.07.68-.13,1.35-.21,2.11-.3.02-.68.03-.99.05,2.06,4.41,4.1,8.78,6.14,13.14l.3-.12c-.15-.51-.3-1.03-.49-1.68.42.58.74,1.02,1.06,1.47.11-.07.23-.15.34-.22-.13-.4-.25-.8-.48-1.5.46.58.73.92,1,1.25.09-.04.17-.08.26-.13-.17-.53-.33-1.06-.57-1.8.46.61.77,1.01,1.09,1.42.08-.04.15-.07.23-.11-.04-.32-.08-.63-.12-.92.27.2.5.37.74.55.07-.06.14-.11.21-.17l-.77-1.65c.32-.2.66-.42,1.01-.62q2.05-1.15,1.11-3.17c-.94-2-1.87-4.01-2.81-6.01.09-.04.18-.08.27-.12,1.49,3.18,2.97,6.35,4.46,9.53-1.29-1.99.63-2.22,1.73-2.93.49-.32.87-.81,1.36-1.3.24.46.62,1.16.99,1.87-.69-1.45,0-2.12,1.33-2.68.57-.24.98-.87,1.58-1.43.48.45,1.08,1.01,1.68,1.57.06-.05.13-.1.19-.15-.16-.52-.33-1.04-.45-1.43.37.28.79.59,1.21.91-.08-.53-.06-1.11-.27-1.57-1.59-3.49-3.23-6.96-4.92-10.56-.92,1.54-1.1.06-1.58-.22-.07.16-.14.31-.21.47-.51-.21-1.02-.42-1.6-.67-.8,1.19-.92-.46-1.49-.58-1.22,1.47-1.36-.12-1.94-.64-.16.29-.43.58-.37.72.82,1.85,1.69,3.68,2.55,5.51-.16.07-.32.15-.47.22-1.09-2.33-2.18-4.66-3.38-7.22-1.47,1.89-1.68.27-2.09-.21l-1.76.82c.12.47.26,1,.45,1.72-.63-.1-1.03-.16-1.55-.24.26.72.49,1.34.78,2.15-.64,0-1.05-.02-1.37-.02.1.7.2,1.41.3,2.12-.15.03-.31.06-.46.09l-.45-.97ZM1828.87,1030.51c.21-.1.41-.21.62-.31-8.78-17.56-17.56-35.12-26.4-52.8-.07.37-.1.56-.16.93-.46-.48-.74-.78-1.04-1.09.4-.24.79-.47,1.19-.71l-.72-1.54c-.06.03-.13.05-.19.08.15.39.29.79.44,1.18-.05.03-.1.07-.15.1-.4-.45-.79-.91-1.21-1.39-.08.25-.14.42-.19.59-1.72-.66-1.3.35-.96,1.18,1.46,3.64,2.91,7.28,4.45,10.88,5.58,13.02,11.19,26.02,16.79,39.03.2.46.42.9.63,1.35.15-.07.3-.13.45-.2-.45-1.18-.9-2.37-1.36-3.55.05-.02.1-.04.15-.06,1.54,2.51,3.09,5.01,4.63,7.52.09-.05.18-.1.27-.15l-2.03-4.33c.11-.06.22-.11.32-.17.78,1.49,1.57,2.97,2.35,4.46.16-.09.32-.17.48-.26-1.35-2.88-2.69-5.76-4.04-8.64.14-.07.28-.13.42-.2.46.97.9,1.95,1.37,2.92.49,1.02.98,2.03,1.49,3.04.43.86.88,1.71,1.33,2.56.17-.08.33-.17.5-.25-2.54-5.42-5.07-10.85-7.61-16.27.18-.08.36-.17.54-.25,2.55,5.45,5.1,10.9,7.65,16.36ZM1859.92,1019.99c.02-.29.05-.66.08-1.03-.12-.06-.24-.12-.36-.18-.66.75-1.33,1.5-1.95,2.2.04-.3.08-.65.14-1.07-4.25,1.79-8.23,3.91-12.85,5.18-.41.87-.98,2.09-1.58,3.35,2.26.77,4.39,1.52,6.55,2.19.38.12.91.02,1.31-.13,4.42-1.75,8.83-3.52,13.23-5.33.48-.2,1-.59,1.26-1.03,1.48-2.48,2.29-5.24,4.22-7.59,1.21-1.47,1.3-3.78,1.96-5.92-3.33,1.28-3.32,4.47-5.07,6.93.24-.81.38-1.26.66-2.18-1.84,1.58-4.35,1.27-5.3,3.52.04-.3.07-.61.11-.91-.12-.08-.24-.16-.37-.24-.67.73-1.33,1.46-2.04,2.24ZM1844.92,1022.14c6.64-2.95,12.96-5.88,19.39-8.55,2.24-.93,2.81-2.49,3.34-4.6-.7.33-1.21.56-1.71.8-5.62,2.62-11.19,5.34-16.87,7.82-2.06.9-3.37,2.15-4.14,4.52ZM1817.11,1035.37l-2.44-5.22c-.14.63-.21.96-.28,1.29-.29-.16-.51-.28-.98-.53.24.82.4,1.37.55,1.91-.1.11-.19.22-.29.33-.68-.42-1.36-.84-2.17-1.34-.17.99,1.12,1.81-.37,2.32l-.74-1.59c-.16,0-.31,0-.47.01-.07.43-.13.87-.2,1.3-.05.34-.12.67-.17,1.01-.32-.2-.66-.39-.97-.6-.32-.22-.63-.46-1.24-.9.12,1.26,1.37,2.2-.36,2.63l1.35,2.9.31-.09c.03-.29.06-.59.05-.49.55-.07,1.04,0,1.39-.21.25-.14.31-.62.35-.71,2.39.19,4.25-1.53,6.68-2.03ZM1893.39,1024.75c.5.79.88,1.39,1.25,2,.12-.06.24-.13.35-.19-.08-.37-.17-.74-.26-1.12.33.27.64.52,1.26,1.04-2.18-4.67-4.17-8.92-6.16-13.17-.1.03-.2.06-.31.1.02.35.05.7.07,1.04-.25-.26-.51-.53-1.05-1.07.12,1.5.9,1.88,1.67,2.53,1.01.85,1.4,2.39,2.05,3.63-.09.05-.18.09-.27.14-.35-.65-.7-1.3-1.06-1.95-.11.05-.22.1-.33.16.25.73.49,1.47.7,2.08-.65-.71-1.43-1.45-2.05-2.3-.31-.42-.28-1.07-.45-1.6-.2-.63-.45-1.24-.67-1.86-.14.06-.28.11-.42.17.07.48.14.96.23,1.56-.34-.51-.6-.89-.86-1.28-.08.05-.16.09-.23.14l6.08,13c.15-.06.3-.12.45-.18-.34-.87-.67-1.74-1.01-2.62l.3-.13,1.12,2.39c.14-.06.28-.12.42-.18-.25-.7-.5-1.4-.83-2.31ZM1829.9,1029.94c.18-.09.35-.18.53-.27-8.84-17.49-17.69-34.98-26.53-52.46-.13.06-.26.13-.39.19,8.8,17.51,17.6,35.02,26.39,52.53ZM1893.47,1011.32c-.19.09-.38.19-.57.28,2.19,4.05,3.51,8.51,6,12.41.15-.07.3-.14.44-.21l-3.64-7.79c.12-.06.24-.11.36-.17l3.6,7.69c.11-.05.21-.11.32-.16-1.93-4.14-3.87-8.28-5.8-12.42-.1.04-.21.07-.31.11.32.92.63,1.84.94,2.74-.44-.82-.89-1.66-1.34-2.5ZM1897.13,1025.22c.16-.08.33-.15.49-.23l-2.87-6.14c.36-.17.81-.37.81-.38-.38-.89-.79-1.77-1.25-2.74-.34.39-.5.57-.82.95l-2.04-4.35c-.09.05-.19.1-.28.15l5.96,12.74ZM1848.35,1042.14c-.19-.21-.4-.45-.89-1,1.77,3.78,3.36,7.18,4.95,10.59.12-.06.24-.12.37-.17l-.69-1.49c.83-.58,1.53-1.08,2.23-1.57-.06-.09-.12-.18-.18-.27l-2.29,1.07c-.95-2.04-1.89-3.97-2.75-5.93-.23-.53-.37-1.21.56-1.48.1-.03.11-.38.16-.59-.09-.06-.18-.13-.28-.19-.39.34-.78.68-1.18,1.03ZM1896.32,1025.81c.11-.05.22-.1.32-.16-2.01-4.29-4.01-8.59-6.02-12.88-.11.05-.22.1-.32.16l6.02,12.88ZM1854.09,1047.27c-.67-1.43-1.19-2.82-1.94-4.08-.68-1.13-1.56-2.16-2.47-3.14-.21-.23-1.04-.21-1.32.01-.29.23-.27.85-.34,1.12.86-.03,1.75-.29,1.98-.02.74.86,1.3,1.89,1.83,2.91.67,1.29,1.24,2.62,1.93,4.1.74-.48,1.21-.79,1.69-1.1-.04-.07-.08-.15-.13-.22-.36.12-.72.24-1.23.41ZM1850.87,1042.54c-.21.06-.41.12-.62.18-.57,2.38,1.58,3.93,2.17,6.04.36-.58.68-1.25.5-1.72-.59-1.54-1.36-3.01-2.05-4.5ZM1841.75,1009.17c.09.19.17.38.26.56l-4.33,2.02c.08.16.17.32.25.48,1.68-.79,3.36-1.57,5.01-2.34l-.78-1.68c-.97.56-1.87,1.08-2.78,1.6l.2.37,2.17-1.01ZM1844.68,1015.5c.07.12.14.24.2.36-1,.58-2,1.16-3.01,1.74.07.14.15.28.22.42,1.33-.54,2.66-1.07,3.99-1.6l-.78-1.66-5.16,2.41c.06.12.12.25.18.37l4.35-2.03ZM1839.45,1013.43c.35.28.49.46.55.44,1.28-.49,2.56-.98,3.81-1.53.12-.05.07-.47.11-.73-1.11.12-.14-.86-.65-1.13l-2.98,1.39c.03.13.06.26.09.39.65-.12,1.31-.25,1.96-.37.02.05.04.1.06.15l-2.95,1.38ZM1839.13,1014.84c.11.22.22.45.33.67.46-.22.92-.43,1.38-.65,1.03-.48,2.01-1.38,3.19-.37.13.11.54-.07.82-.12-.1-.24-.21-.48-.29-.72-.04-.12.01-.29-.06-.38-.18-.24-.51-.66-.61-.62-1.6.69-3.18,1.45-4.76,2.19ZM1820.88,1034.63c1.46-.17,3.84-2.5,3.95-3.47q-3.98,1.82-3.8,2.48c.4-.15.81-.31,1.22-.46.02.06.03.12.05.18-.38.34-.76.69-1.42,1.28ZM1861.72,1017.72c.52-.24.84-.38,1.15-.54.35-.18.69-.39,1.01-.57q-.66-2.07-2.99-.96c.25.62.5,1.24.83,2.07ZM1865.12,1016.32c.81-.46,1.4-.79,2.07-1.17-.45-.78-.81-1.39-1.19-2.04-.67.35-1.18.62-1.78.94.26.66.53,1.33.9,2.27ZM1858.57,1019.01l1.93-.9-.93-1.98c-.6.31-1.1.57-1.75.91.24.63.47,1.25.75,1.97ZM1854.68,1018.43l.9,1.92,1.91-.89c-.38-.68-.7-1.25-1.04-1.85l-1.77.83ZM1851.65,1019.78c.21.6.43,1.22.67,1.92l1.85-.86c-.51-1.88-.6-1.92-2.52-1.06ZM1850.28,1020.3c-.6.23-1.11.43-1.65.63l.94,2.01,1.6-.75-.89-1.9ZM1806.78,1037.25c-.04-.09-.07-.18-.11-.28-.6.18-1.21.36-1.81.54-.05-.09-.1-.19-.15-.28.56-.36,1.12-.72,1.67-1.08-.05-.07-.1-.15-.14-.22l-3.52,1.64c.84-.03,1.22-.04,1.95-.07-.58.47-.84.68-1.09.89l.18.26,3.02-1.41ZM1846.65,1024.13c.86-.31,1.83-.33,1.32-1.58-.56-1.36-1.32-.73-2.19-.28l.87,1.85ZM1884.16,1033.19c1.02-.62,1.94-1.18,2.83-1.72l-1.01-2.16c.3,2.09.29,2.11-1.77,2.78-.27-.36-.56-.73-.85-1.11l-.18.12.98,2.09ZM1882.25,1032.23c-.28.54-.48,1.27-.94,1.77-1.12,1.19-1.47-.29-2.3-.85l1.12,2.4c1.03-.64,1.94-1.2,2.85-1.76l-.73-1.56ZM1846.85,1017.9c-1.38.65-2.58,1.21-3.78,1.77l.2.39c1.42-.1,2.6-.7,3.58-2.15ZM1818.39,1034.32s.04-.01.06-.02c-.84-2.04-1.68-4.09-2.52-6.13-.12.05-.23.1-.35.15l2.81,6ZM1851.8,1036.09c-.04.07-.09.14-.13.21,1.61.47,3.22.95,4.83,1.42.02-.03.04-.05.05-.08-1.58-.52-3.17-1.03-4.75-1.55ZM1815.32,1029.51s-.09-.01-.13-.02c.74,1.82,1.48,3.63,2.22,5.45.12-.05.25-.1.37-.15-.82-1.76-1.65-3.52-2.47-5.28ZM1836.84,1009.73c.09.15.17.3.26.45,1.65-.77,3.29-1.54,4.94-2.31q-.55-1.29-1.44-.76c.24.06.44.12.64.18.04.11.09.22.13.33-1.51.71-3.02,1.41-4.53,2.12ZM1886.94,1013.8c.05.09.11.17.16.26,2.37-1.27,4.74-2.54,7.11-3.81l-.15-.27c-2.37,1.28-4.75,2.55-7.12,3.83ZM1846.75,1016.66l-3.07,1.44c1.39.45,2.02.17,3.07-1.44ZM1896.93,1021.26c-.12.06-.24.11-.36.17l1.52,3.24c.12-.06.24-.11.36-.17l-1.52-3.24ZM1843.36,1046.92c-.13.01-.25.02-.38.03.04.41-.02.87.15,1.22.23.5.63.92.98,1.35.02.02.35-.1.37-.19.04-.16-.02-.35-.09-.5-.33-.64-.68-1.28-1.02-1.91ZM1841.6,1056c-.28.06-.55.12-.83.18.18.57.34,1.16.57,1.71.03.08.42.01.64.02-.13-.63-.26-1.27-.39-1.9Z"/>
      <path class="cls-3" d="M1803.63,1034.35c.25-2.93,1.9-4.73,5.15-5.42-.7-1.49-1.31-2.76-1.89-4.04-4.33-9.7-8.65-19.41-12.98-29.11-.3-.67-.59-1.23.37-1.73,1.1-.57,1.34.18,1.66.85,4.11,8.5,8.2,17.01,12.32,25.51.99,2.04,2.1,4.01,3.06,6.06.4.85.92.85,1.7.56.88-.33,1.79-.58,2.69-.86,0,0,0-.04,0-.04-2.4,1.06-4.76,2.24-7.22,3.14-2.22.81-3.9,1.94-4.44,4.3-.06.28-.28.53-.42.8ZM1794.07,995.24c5.02,11.29,9.92,22.32,14.84,33.38l1.38-.64c-1.6-4.79-15.03-32.42-16.22-32.74ZM1798.23,1000.55c2.58,5.51,7.62,16.31,12.67,27.1.16-.08.32-.16.49-.23-5.24-10.7-10.48-21.4-13.16-26.87Z"/>
      <path class="cls-3" d="M1802.81,1053.3c-.26-.28-.43-.48-.81-.89-.06.54-.08.8-.11,1.07-.15-.18-.32-.39-.66-.79.02.5.02.78.04,1.17-.3-.25-.54-.45-.86-.72-.13.4-.24.7-.42,1.26-.58-.64-1.07-1.18-1.5-1.66,4.91-1.76,9.63-3.46,14.48-5.2.29.24.74.61,1.18.98-.23-.06-.46-.12-.68-.18-.05.34-.1.68-.15,1.01.13.05.27.1.4.15-.23-.27-.47-.54-.96-1.11.07.7.1,1.04.11,1.08-.44-.03-.96-.16-1.44-.06-.2.04-.3.58-.4.79-.21-.04-.58-.21-.93-.15-.31.05-.59.34-.98.59.04.03-.31-.34-.46-.27-.67.32-1.29.75-1.98,1.18.05.05-.29-.35-.32-.33-1.09.79-2.41.9-3.63,1.31-.04.01.05.44.08.77Z"/>
      <path class="cls-3" d="M1814.99,1048.36c-.43-.56-.85-1.11-1.25-1.62,4.56-.5,8.62-2.95,13.02-4.17.74.36,1.56.76,2.38,1.17,0,0-.07-.02-.07-.02.35.5.69,1,1.04,1.5-.04.03-.08.05-.12.08-.79-.61-1.58-1.21-2.73-2.09.24.85.35,1.24.5,1.77-.34-.47-.6-.82-.86-1.17-.09.02-.18.05-.28.07.03.38.07.75.1,1.12-.04-.02-.16-.03-.16-.07-.17-1.21-1.24-.03-1.66-.54-1,.84-2.29.94-3.44,1.39-.19.07-.27.45-.26.43-.91.19-1.75.37-2.66.56.05.25.1.52.1.56-.53,0-1.08-.04-1.62.05-.11.02-.15.52-.11.38l-1.16.54c-.26.02-.52.05-.77.07Z"/>
      <path class="cls-3" d="M1815.99,1062.78c-1.3.9-2.02.74-2.53-.5-.75-1.81-1.64-3.55-2.46-5.3,1.52-1.12,1.76-1.08,2.42.31.85,1.81,1.7,3.63,2.57,5.49Z"/>
      <path class="cls-3" d="M1808.36,1065c-1.13.7-1.89.75-2.41-.45-.8-1.84-1.68-3.64-2.52-5.43,1.3-.92,1.96-.68,2.46.54.74,1.81,1.63,3.55,2.47,5.35Z"/>
      <path class="cls-3" d="M1808.85,1057.46l3.07,6.56c-1.07.71-1.76.63-2.25-.46-.82-1.84-1.69-3.64-2.62-5.63.73-.19,1.24-.33,1.8-.47Z"/>
      <path class="cls-3" d="M1834.77,1057.59c-1.4,1.01-2.13.68-2.69-.73-.81-2.03-1.83-3.98-2.81-6.1.81-.21,1.39-.36,2.06-.54,1.15,2.46,2.29,4.89,3.44,7.37ZM1830.37,1051.2c-.12.07-.24.13-.36.2l2.8,6c.12-.06.25-.12.37-.18-.94-2.01-1.88-4.01-2.81-6.02Z"/>
      <path class="cls-3" d="M1820.22,1061.69c-1.37.77-2.06.47-2.56-.76-.74-1.83-1.65-3.59-2.55-5.51.87-.21,1.39-.34,1.95-.47,1.06,2.26,2.08,4.45,3.15,6.74ZM1816.4,1056.08c-.08.04-.17.07-.25.11.74,1.59,1.49,3.18,2.23,4.77.08-.04.16-.08.25-.12-.37-.8-.75-1.6-1.12-2.4s-.74-1.57-1.1-2.36Z"/>
      <path class="cls-3" d="M1819.57,1054.02c.8-.21,1.33-.36,1.94-.52,1.09,2.32,2.15,4.6,3.22,6.88-1.2.82-1.94.76-2.49-.58-.78-1.92-1.73-3.78-2.67-5.78ZM1822.59,1059.84c.14-.04.29-.07.43-.11l-2.38-5.09c-.13.06-.26.12-.4.18l2.35,5.02Z"/>
      <path class="cls-3" d="M1824.27,1052.4c.86-.22,1.43-.37,2.03-.53,1.14,2.44,2.24,4.78,3.34,7.14-1.23.84-2.03.76-2.6-.63-.82-1.98-1.79-3.89-2.77-5.99ZM1827.58,1058.67c.13-.04.26-.08.39-.12l-2.72-5.81c-.12.06-.25.11-.37.17l2.69,5.76Z"/>
      <path class="cls-3" d="M1797.45,1050.94c-.2.66-.4,1.32-.59,1.98.12-.08.23-.15.35-.23.39.52.82,1.02,1.15,1.58.24.41.31.93.51,1.37,1.97,4.23,3.95,8.45,5.69,12.83-.26-.47-.56-.92-.79-1.4-1.84-3.91-3.66-7.83-5.49-11.75-.19-.4-.29-.98-.62-1.15-1.78-.88-1.09-2.07-.2-3.23Z"/>
      <path class="cls-3" d="M1886.77,1033.46c4.86-2.89,9.71-5.78,14.57-8.68.06.1.12.2.19.3-7.53,4.59-15.07,9.18-22.6,13.76-.06-.1-.13-.2-.19-.31,2.69-1.71,5.38-3.41,8.08-5.12l-.04.05Z"/>
      <path class="cls-3" d="M1845.1,1057.26c6.51-4.01,13.02-8.03,19.52-12.04.07.11.14.22.21.34-6.52,4.03-13.04,8.06-19.55,12.09-.06-.13-.12-.26-.18-.38Z"/>
      <path class="cls-3" d="M1884.04,1009.64c1.92-.1,3.07-2.18,4.89-1.5-.88.35-1.82.7-2.74,1.11-.92.41-2,.7-2.02,2.24.72.16,1.54.33,2.35.51-.08.22-.17.45-.25.67-.5-.28-.97-.64-1.5-.84-1.99-.74-2-.72-3.83-.02.16-.16.22-.28.32-.33,2.18-1.04,1.89-.92.95-2.83-.27-.55-.28-1.23-.4-1.85.47.45.99.85,1.39,1.35.36.45.58,1.01.84,1.49Z"/>
      <path class="cls-3" d="M1886.8,1033.41c-2.66,1.44-5.32,2.88-7.98,4.32l-.08-.14c7.25-4.42,14.49-8.85,21.74-13.27.05.08.1.17.16.25-4.28,2.67-8.55,5.33-12.82,8.01-.38.24-.7.58-1.04.88,0,0,.03-.04.03-.04Z"/>
      <path class="cls-3" d="M1866.48,1045.51c-5.02,3.09-10.04,6.19-15.06,9.28-.07-.11-.15-.23-.22-.34,5.02-3.09,10.04-6.19,15.06-9.28l.22.34Z"/>
      <path class="cls-3" d="M1829.61,962.96c-5.65,3.03-11.3,6.06-16.74,8.98,1.61-1.62,3.69-3.07,6.18-3.71,2.69-.69,4.72-2.42,6.97-3.82,1.09-.68,2.32-1.12,3.49-1.66.03.07.06.14.09.22Z"/>
      <path class="cls-3" d="M1864.97,1035.4l1.91-.89,1.36,2.9c-.66.24-1.29.48-1.98.74l-1.28-2.74Z"/>
      <path class="cls-3" d="M1822.25,991.35c2.53-1.25,3.93-3.95,7.05-4.59,1.53-.31,2.88-1.63,4.3-2.52.72-.45,1.39-.98,2.15-1.37-.89.79-1.69,1.71-2.68,2.34-1.33.84-2.81,1.44-4.2,2.18-1.06.57-2.14,1.13-3.13,1.81-1.12.76-2.15,1.65-3.23,2.49-.08-.11-.16-.23-.25-.34Z"/>
      <path class="cls-3" d="M1814.99,1048.36c.26-.02.52-.05.77-.07.67,1.19,1.42,2.34,2.01,3.57,1.64,3.41,3.24,6.84,4.8,10.3.24.54.15,1.24-.03,1.85-.15-.74-.16-1.54-.47-2.21-1.66-3.67-3.35-7.34-5.13-10.95-.45-.92-1.29-1.66-1.94-2.48Z"/>
      <path class="cls-3" d="M1835.18,1004.32c-.47.14-.94.27-1.7.49,1.41.55,2.61,1.01,3.82,1.48-.03.08-.06.15-.1.23-.99-.29-1.98-.59-2.96-.88l-.14.22c.38.22.76.45,1.14.67-.76,1.09.67.7.76,1.19q-.97.28-2.89-2.81c-.45.52-.87,1-1.28,1.48.5-1.88,1.1-2.25,3.36-2.07Z"/>
      <path class="cls-3" d="M1823.01,968.01c-3.51,1.64-7.03,3.29-9.82,4.59,2.29-2.18,5.87-3.68,9.82-4.59Z"/>
      <path class="cls-3" d="M1822.67,1048.31c.64-.17,1.17-.31,1.74-.46l.69,1.48c-1.81,1.05-2.01.97-2.43-1.02Z"/>
      <path class="cls-3" d="M1830.15,1047.67l-1.79.84-.83-1.78c.66-.18,1.27-.35,1.93-.54l.69,1.48Z"/>
      <path class="cls-3" d="M1859.14,1050.74c2.7-1.71,5.39-3.43,8.09-5.14.07.1.13.2.2.31-2.7,1.7-5.41,3.41-8.11,5.11-.06-.09-.12-.19-.18-.28Z"/>
      <path class="cls-3" d="M1829.39,964.63c3.17-.93,6.83-.68,9.04-3.88-2.1,3.43-5.63,3.5-9.04,3.88Z"/>
      <path class="cls-3" d="M1817.97,1049.91c.53-.13,1.06-.27,1.66-.42.22.48.42.9.62,1.33-1.73,1.05-2,.96-2.28-.91Z"/>
      <path class="cls-3" d="M1810.95,1052.14l.64,1.38c-.5.21-1.02.61-1.4.52-.44-.11-.76-.64-1.42-1.25,1.01-.3,1.57-.47,2.17-.65Z"/>
      <path class="cls-3" d="M1820.35,987.86c-2.4.86-4.8,1.72-7.2,2.59-.04-.09-.07-.18-.11-.27,2.38-.9,4.76-1.8,7.14-2.7.06.13.11.26.17.39Z"/>
      <path class="cls-3" d="M1802.86,972.23c2.85-.87,5.88-1.4,7.89-3.92-1.9,2.73-4.92,3.28-7.89,3.92Z"/>
      <path class="cls-3" d="M1864.19,1032.41c-.5-1.07-.91-1.85-1.2-2.67-.05-.13.44-.67.59-.64.75.12,1.31,2.13.61,3.31Z"/>
      <path class="cls-3" d="M1821.92,989.56c-2.28.91-4.56,1.81-6.84,2.72-.04-.09-.08-.18-.12-.28,2.27-.94,4.55-1.87,6.82-2.81.04.12.09.25.13.37Z"/>
      <path class="cls-3" d="M1815.73,1052.09l-1.65.77-.7-1.49c.68-.18,1.21-.33,1.78-.48l.56,1.2Z"/>
      <path class="cls-3" d="M1831.99,1034.48c.53-1.53,1.06-3.07,1.59-4.6-.13-.04-.26-.09-.38-.13l1.9-.89c-.12-.03-.23-.07-.35-.1-.87,1.93-1.74,3.86-2.61,5.79-.05-.02-.1-.05-.14-.07Z"/>
      <path class="cls-3" d="M1820.13,988.53q4.69-4.05,6.01-4.12c-1.92,1.32-3.97,2.72-6.01,4.12Z"/>
      <path class="cls-3" d="M1804.27,1055.75c-.86.3-1.36.47-1.96.68l-.58-1.24c.44-.21.92-.62,1.23-.53.45.13.77.61,1.31,1.09Z"/>
      <path class="cls-3" d="M1806.6,969.48c-2.04,1.08-4.67.93-6.29,2.92,1.44-2.28,4.03-2.27,6.29-2.92Z"/>
      <path class="cls-3" d="M1824.39,1041.78c.92-1.95,1.84-3.91,2.76-5.86-.03-.01-.06-.02-.09-.03-.92,1.96-1.83,3.91-2.75,5.87l.08.03Z"/>
      <path class="cls-3" d="M1883.45,1036.66c1.92-1.14,3.83-2.28,5.75-3.42.06.1.12.19.18.29-1.91,1.14-3.81,2.27-5.72,3.41-.07-.09-.14-.19-.21-.28Z"/>
      <path class="cls-3" d="M1807.57,1054.67l-1.55.73c-.22-.42-.45-.84-.71-1.32,1.04-.5,1.93-1.02,2.26.6Z"/>
      <path class="cls-3" d="M1826.8,968.27c-1.07.85-2.09,1.77-3.23,2.51-.6.39-1.41.47-1.81.59,1.52-.93,3.29-2.01,5.07-3.1h-.03Z"/>
      <path class="cls-3" d="M1901,1026.35c-1.59,1.01-3.18,2.03-4.77,3.04-.07-.11-.14-.21-.21-.32,1.6-1.02,3.2-2.04,4.8-3.06.06.11.11.22.17.33Z"/>
      <path class="cls-3" d="M1862.14,1046.27c-1.47.86-2.95,1.72-4.42,2.58-.07-.11-.14-.21-.2-.32,1.47-.89,2.94-1.78,4.41-2.67.07.14.15.28.22.41Z"/>
      <path class="cls-3" d="M1897.29,1030.71c-1.65,1.01-3.29,2.01-4.94,3.02-.06-.09-.12-.18-.17-.27,1.64-1.02,3.28-2.03,4.92-3.05l.19.31Z"/>
      <path class="cls-3" d="M1830.48,963.34c-1.83,1.02-3.67,2.03-5.5,3.05-.05-.09-.1-.18-.15-.28,1.85-1,3.71-2,5.56-2.99.03.07.06.15.09.22Z"/>
      <path class="cls-3" d="M1820.49,963.33c-2.08.81-4.16,1.62-6.24,2.44-.04-.1-.08-.2-.12-.3,2.08-.81,4.17-1.61,6.25-2.42.04.09.07.19.11.28Z"/>
      <path class="cls-3" d="M1899.29,1028.46c-1.45.92-2.9,1.83-4.35,2.75-.06-.1-.13-.2-.19-.3,1.44-.91,2.87-1.82,4.31-2.72.08.09.16.18.24.27Z"/>
      <path class="cls-3" d="M1820.47,991.54c1.35-.94,2.7-1.88,4.05-2.82.06.09.13.18.19.27-1.36.96-2.72,1.92-4.07,2.88-.06-.11-.11-.21-.17-.32Z"/>
      <path class="cls-3" d="M1814.09,993.15c1.98-.77,3.97-1.53,5.95-2.3.04.09.07.18.11.27-1.98.79-3.96,1.57-5.93,2.36-.04-.11-.09-.22-.13-.33Z"/>
      <path class="cls-3" d="M1820.24,1059.83c-.95-2.02-1.89-4.05-2.84-6.07.06-.03.12-.06.18-.08.95,2.04,1.9,4.07,2.86,6.11-.07.01-.13.03-.2.04Z"/>
      <path class="cls-3" d="M1807.64,972.46c1.57-1.11,3.15-2.22,4.72-3.33.06.08.11.16.17.24-1.58,1.1-3.16,2.2-4.74,3.3-.05-.07-.1-.14-.15-.22Z"/>
      <path class="cls-3" d="M1826.83,968.27c1.59-1.21,3.18-2.42,4.77-3.64.09.12.18.24.28.36-1.69,1.09-3.37,2.18-5.07,3.28,0,0,.02,0,.02,0Z"/>
      <path class="cls-3" d="M1870.66,1018.95c-.05.39-.26.84-.14,1.15.44,1.11.11,1.44-1.05,1.15.13.55.25,1.08.38,1.61-.08.03-.16.06-.24.09-.16-.21-.32-.42-.49-.63-1.39-.91-.8-2.1-.32-3.24.16-.37.55-.65.84-.97.34.28.68.56,1.01.84Z"/>
      <path class="cls-3" d="M1857.76,1031.09c.63,1.18,1.26,2.36,1.89,3.55-.16.12-.33.25-.49.37-.57-.33-1.15-.65-1.72-.98-.16-.45-.25-.94-.5-1.33-.61-.96-.23-1.42.82-1.61Z"/>
      <path class="cls-3" d="M1841.36,985.15c-2.68-5.73-5.35-11.45-8.03-17.18.07-.03.14-.07.21-.1,2.68,5.73,5.35,11.45,8.03,17.18-.07.03-.14.07-.21.1Z"/>
      <path class="cls-3" d="M1879.1,1031.98l-2.54,1.19c-1.04-2.22-2.14-4.4-3.04-6.67-.16-.39.4-1.42.85-1.6.42-.17,1.43.23,1.66.66,1.09,2.03,2.01,4.15,3.07,6.42ZM1878.22,1031.09c-.88-1.88-1.73-3.71-2.51-5.38-.08.44-.17.97-.21,1.17.33.35.76.61.87.98.12.37-.06.84-.1,1.12,1.59-.4.81,1.77,1.94,2.11Z"/>
      <path class="cls-3" d="M1884.59,1028.72c-1.04-2.23-2.09-4.28-2.93-6.41-.17-.43.44-1.18.69-1.78.58.26,1.44.37,1.68.82,1.05,1.94,1.92,3.97,2.89,6.05-.8.46-1.49.85-2.33,1.33ZM1883.51,1021.19s-.09.08-.14.12c.84,1.8,1.69,3.61,2.53,5.41.05-.03.1-.06.15-.08l-2.55-5.45Z"/>
      <path class="cls-3" d="M1877.41,1023.81c.1-.12.15-.22.23-.27q2.04-1.32,3.01.72c.61,1.29,1.13,2.62,1.84,3.85.7,1.22.55,2-.93,2.43-.24.07-.46.21-.82.38-1.12-2.4-2.23-4.77-3.33-7.11ZM1880.19,1024.72l1.97,4.21c.06-.03.11-.07.17-.1-.88-1.88-1.75-3.75-2.63-5.63-.09.04-.18.08-.27.13.15.38.3.77.48,1.2-.35.2-.7.41-1.05.61.02.03.04.06.06.09.37-.15.73-.3,1.28-.52Z"/>
      <path class="cls-3" d="M1876.47,1016.75c.63,1.21,1.37,2.37,1.86,3.63.52,1.36-1.01.98-1.55,1.89-.93-1.98-1.76-3.59-2.41-5.27-.19-.49.16-1.2.27-1.81.53.3,1.08.57,1.58.92.17.12.2.44.29.66-.3-.27-.59-.54-1.15-1.06.65,1.4,1.19,2.43,1.62,3.5.27.68.2.71,1.02.8l-1.53-3.28Z"/>
      <path class="cls-3" d="M1872.02,1026.45c-.05.72.11,1.93-.2,2.07-1.29.57-1.06-.84-1.5-1.4-.3-.38-.51-.85-.62-1.31-.07-.32.12-.69.19-1.04.39.12.89.14,1.13.39.32.34.44.86.65,1.3.12,0,.23,0,.35,0Z"/>
      <path class="cls-3" d="M1874.26,1023.09l-1.66.77c-.34-.72-.76-1.35-.91-2.04-.1-.43.21-.96.34-1.45.43.23.98.37,1.25.72.41.53.61,1.22.97,2Z"/>
      <path class="cls-3" d="M1880.92,1019.74c-.31-.66-.69-1.21-.81-1.82-.09-.45.14-.97.23-1.46.44.24,1.02.37,1.3.73,1.15,1.48.98,2.08-.72,2.56Z"/>
      <path class="cls-3" d="M1885.27,1021.23c-.41-.87-.87-1.73-1.2-2.63-.1-.27.16-.67.26-1,.31.17.73.26.89.51.39.61.73,1.28.93,1.97.1.35-.15.81-.24,1.22-.22-.02-.43-.04-.65-.06Z"/>
      <path class="cls-3" d="M1873.92,1034.45c-1.6-2.13-1.89-3.31-1.02-4.01l1.42,3.03c.09-.03.17-.07.26-.1l-1-2.14c1.71,2.38,1.72,2.58.35,3.21Z"/>
      <path class="cls-3" d="M1888.67,1026.26s-.3.25-.73.62c-.5-1.07-.97-2.02-1.37-2.99-.09-.22-.01-.58.13-.8.07-.11.44-.06.67-.08-.04.22-.17.48-.09.64.42.85.89,1.67,1.4,2.61Z"/>
      <path class="cls-3" d="M1875.81,1022.2l-2.51-5.38s.07-.04.11-.06c.93,1.76,1.85,3.53,2.78,5.29-.12.05-.25.1-.37.15Z"/>
      <path class="cls-3" d="M1883.21,1028.09c-.97-2.07-1.93-4.14-2.9-6.2.03-.02.07-.03.1-.05.97,2.07,1.93,4.13,2.9,6.2-.03.02-.07.04-.1.06Z"/>
      <path class="cls-3" d="M1879.16,1020.62c-.9-1.92-1.8-3.85-2.7-5.77.04-.02.09-.05.13-.07l2.69,5.75s-.08.06-.12.09Z"/>
      <path class="cls-3" d="M1873.25,1028.22c.68,1.46,1.37,2.92,2.05,4.38-.04.02-.08.04-.11.06l-2.05-4.38s.08-.04.11-.06Z"/>
      <path class="cls-3" d="M1840.87,1029.35c.29.44.58.88.64.97,1.16.32,1.99.55,2.94.82.05-.05.28-.23.5-.42.56.45,1.13,1.29,1.68,1.26,1.75-.09,2.1,1.14,2.7,2.19.14.25.22.54.26.87-1.36-3.13-4.65-2.87-7.27-3.74-1.28-.42-2.65-.62-4.07-.6-.21-.02-.42-.05-.31-.03-1.29,3.25-2.61,6.4-3.76,9.62-.27.76.02,1.7.25,2.6.85-.58,2.27-.09,2.28-1.56.8.47,1.36-.09,1.91-.53.33-.27.59-.62.74-.79.76-.14,1.58-.29,2.4-.44.03.05.07.11.1.16l-7.47,3.49c-.46-.95-1.63-1.85-.67-3.35.06-.09-.14-.34-.22-.52.29-.05.58-.1.81-.13,0-.43,0-.83,0-1.24.14,0,.28.01.42.02.03-.44.05-.89.08-1.33.09.02.18.04.26.06.68-2.18,1.36-4.35,2.13-6.81l1.29-.61c.13.14.47.51.93,1.01.11-.43.17-.67.28-1.07.3.47.53.82.9,1.39.12-.58.19-.92.27-1.27Z"/>
      <path class="cls-3" d="M1841.29,1038.55c-.45.25-.79.44-1.33.74-.51-1.08-1.01-2.06-1.41-3.09-.09-.24.2-.64.32-.96.36.14.89.18,1.04.43.52.9.91,1.87,1.39,2.88Z"/>
      <path class="cls-3" d="M1846.96,1035.61c.72,1.16,1.46.05,2.33.18-2.3,1.24-4.6,2.47-7,3.76-.15-.55-.27-.95-.38-1.35.05-.02.09-.04.14-.06.19.27.38.54.56.8.78-.41,1.5-.8,2.36-1.26l-.98-2.1c.08-.04.15-.09.23-.13l.95,2.03c.42-.95,2.68-.12,1.83-1.91l-.02.04Z"/>
      <path class="cls-3" d="M1843.83,1036.87c-.84,1.16-1.15,1.19-1.68.21-.28-.52-.59-1.04-.73-1.61-.11-.45,0-.97.07-1.44,0-.05.71-.13.77-.03.28.49.79,1.32.6,1.54-1.34,1.54.23,1.09.96,1.33Z"/>
      <path class="cls-3" d="M1840.27,1032.8c-1.65,1.11-1.91,1.1-2.4.19.41-.61.81-1.19,1.4-2.07.48.9.74,1.39,1,1.88Z"/>
      <path class="cls-3" d="M1837.91,1038.9c-.05.57-.09,1.13-.14,1.7-.38-.17-1.03-.29-1.07-.52-.06-.4.26-.87.42-1.31.26.04.52.09.79.13Z"/>
      <path class="cls-3" d="M1842.54,1040.98c-.88.93-1.94,1.53-3.17,1.84.63-.52.83-1.73,2.04-1.37.03,0,.29-.62.5-1.07.25.27.43.46.61.66,0,0,.02-.05.02-.05Z"/>
      <path class="cls-3" d="M1846.98,1035.57c-.42.26-.84.51-1.33.81-.2-.3-.46-.52-.48-.76-.03-.35.12-.72.2-1.08.35.15.73.26,1.05.46.23.14.37.41.55.62,0,0,.03-.05.03-.05Z"/>
      <path class="cls-3" d="M1870.11,1008.14l-3.21-6.88c.06-.03.13-.06.19-.09,1.08,2.31,2.16,4.61,3.24,6.92l-.21.05Z"/>
      <path class="cls-3" d="M1894.18,1023.46c-1.02-.03-2.03.17-2.2-.11-.47-.79-1.38-1.67-.05-3.08.72,1.02,1.38,1.95,2.25,3.19Z"/>
      <path class="cls-3" d="M1866.56,1025.88c.27.05.7.02.77.17.62,1.21,1.18,2.46,1.45,3.87-.73-1.37-1.46-2.73-2.2-4.1,0,0-.03.06-.03.06Z"/>
    </g>
    <g id="TamponNevada">
      <rect class="cls-10" x="1717.66" y="51.52" width="134.73" height="141.27" rx="5.54" ry="5.54" transform="translate(5.12 304.34) rotate(-9.76)"/>
      <g>
        <path class="cls-12" d="M1863.92,97.94c-.43-3.74,2.12-5.95,5.91-7.5l-1.04-6.07c-7.64-1.49-10.18-5.02-7.03-9.6,1.35-1.41,2.71-2.82,4.55-4.73l-.86-4.99c-1.91-.81-3.45-1.47-4.99-2.12l.16.09c-5.64-2.62-4.64-7.66,2.46-12.07l-1.02-5.95c-4.32-.36-7.79-1.7-8.23-5.98-.39-3.77,2.2-5.92,5.87-7.46l-3.25-4.75c-1.65-2.11-3.08-3.97-5.52-5.33-1.03-.58-2.68-.81-3.93-.57-1.24.24-3.08,1.13-3.33,1.96-.93,3.2-2.98,5.24-6.67,5.85-3.69.61-6.28-.65-8.18-3.39-.47-.68-2.59-.86-3.84-.63-1.23.22-3.1,1.12-3.34,1.94-.92,3.19-2.95,5.28-6.64,5.88-3.65.59-6.31-.62-8.22-3.36-.48-.69-2.57-.9-3.81-.68-1.24.21-3.12,1.1-3.36,1.92-.93,3.18-2.91,5.26-6.64,5.88-3.69.61-6.31-.58-8.22-3.31-.48-.69-2.55-.89-3.78-.68-1.24.21-3.15,1.08-3.38,1.89-.91,3.19-2.91,5.24-6.61,5.89-3.7.65-6.27-.6-8.26-3.26-.55-.74-2.79-.9-4.13-.67-1.16.21-2.79,1.22-3.1,2.11-1.03,2.99-2.94,4.93-6.52,5.58-3.58.65-6.03-.52-8.09-2.93-.69-.8-2.66-1.24-3.93-1.04-1.29.2-3.16,1.23-3.5,2.17-1.07,2.98-2.92,4.91-6.51,5.58-3.61.67-6.02-.54-8.1-2.92-.7-.8-2.67-1.24-3.94-1.04-1.29.2-3.16,1.23-3.5,2.18-1.07,2.98-2.95,4.96-6.51,5.6-3.74.67-6.34-.54-8.23-3.26-.45-.64-2.07-1.05-3.05-.89-1.47.24-3.33.76-4.17,1.7-1.93,2.16-2.82,4.37-3.47,7.54l-1.52,5.25c4.29.03,7.29,1.59,8.15,5.32.72,3.13-.98,5.42-5.82,8.02.34,1.96.68,3.97,1.03,5.98,8.1,1.89,10.64,6.17,6.27,10.57l.12-.14c-1.26,1.14-2.51,2.29-4.12,3.75l.96,5.56c5.39.74,8.08,2.53,8.39,5.78.35,3.62-1.73,6.12-5.87,7.57l1.09,6.34c4.1.35,7.62,1.66,8.1,5.88.42,3.74-2.01,6.01-5.9,7.5l1.05,6.1c7.7,1.64,10.14,5.02,7.04,9.61-1.38,1.43-2.76,2.87-4.58,4.77l.86,4.99c1.88.79,3.44,1.44,5.01,2.1l-.16-.09c5.65,2.71,4.66,7.7-2.46,12.05l1.03,6c4.25.3,7.77,1.62,8.23,5.86.4,3.73-2.05,5.99-5.91,7.49l1.05,6.09c7.78,1.7,10.22,5.13,6.97,9.7l.09-.13c-.8,1.69-1.13,2.03-1.63,5.21l-.69,4.03c2.28,1.78,3.96,3.5,6.44,4.95.93.54,2.44.76,3.58.55,1.3-.23,2.63-.95,3.65-1.75.87-.67,1.24-1.82,1.87-2.72.05-.05.1-.1.16-.16,1.54-1.09,3.15-3.08,4.59-3.06,2.51.05,5.68.77,7.16,2.26,1.62,1.64,2.75,2.09,5.15,1.7,2.33-.37,3.29-1.23,3.51-3.19.09-.76,1.01-1.5,1.55-2.24,3.04-1.46,6.03-3.29,9.48-1.28.75.26,1.72.35,2.21.82,3.74,3.57,6.8,3.01,9.02-1.68.28-.59.87-1.09,1.31-1.64,3.04-1.45,6.02-3.29,9.48-1.28.75.26,1.71.34,2.21.8,3.85,3.58,6.59,3.1,8.98-1.56.31-.6,1.2-.99,1.82-1.48,2.73-2.11,5.64-3.17,9.01-1.55.75.26,1.72.33,2.21.79,3.84,3.56,6.58,3.09,8.98-1.55.31-.6,1.2-1,1.82-1.49,2.74-2.05,5.61-3.38,9.02-1.55.75.26,1.72.35,2.21.82,3.73,3.57,6.89,3,9.08-1.68.28-.59.83-1.1,1.26-1.65,3-1.8,6.09-2.81,9.49-1.28.83.36,2.14.53,2.41,1.1,1.03,2.15,2.71,2.19,5.15,1.81,2.43-.38,2.88-1.46,3.5-3.24,1.55-4.5,7.44-6.16,11.47-3.46l-.16-.09c.7.37,1.75.58,2.03,1.12,1.03,2,2.52,2.32,5.08,1.93,2.64-.41,2.88-1.78,3.78-3.43,1.02-1.87,3.05-3.38,5.2-5.63l-.88-5.12c-7.69-1.77-10.22-5.3-6.9-9.61l-.1.14c1.29-1.48,2.59-2.95,4.46-5.08l-.73-4.23c-2.6-1.62-4.69-2.92-6.79-4.22-2.66-3.1-1.82-6.9,4.33-10.29l-1.03-5.99c-8.12-1.81-10.72-6.19-6.28-10.56l-.12.14c1.14-1.1,2.29-2.2,3.91-3.75l-.85-4.95c-2.26-1.13-4.04-2.03-5.83-2.92l.14.1c-2.99-1.44-3.1-3.89-2.24-6.37.82-2.36,2.51-4.24,5.76-4.33l-1.17-6.83c-4.42-.24-7.79-1.7-8.27-5.89Z"/>
        <g>
          <path class="cls-7" d="M1816.16,46.54h0s.02.01.02.01h0s-.01-.02-.02-.01ZM1816.16,46.54h0s.01,0,.02,0h0s-.01,0-.02,0Z"/>
          <path class="cls-7" d="M1802.12,48.17c.04.18-.02.41-.11.57-.39.74-.81,1.46-1.21,2.19-.06-.04-.11-.08-.16-.12.15.25.31.49.46.74-.06.09-.11.18-.16.28-.43-1.26-.82.25-1.21-.18-.11.77-.22,1.51-.37,2.49-.74.63-.72,1.67.35,2.4.51.35,1.1.57,1.81.94-1.3-.19-.94,1.03-1.6,1.33.06.08.11.16.17.24.27-.11.55-.21.82-.32.02,1.04-.83,1.52-1.41,2.17-.06.07-.21.06-.33.05-.41-.03-.66.13-.7.55-.05.56-.07,1.11-.12,1.66-.34-.25-.64-.48-.94-.7.35-.65.71-1.31,1.06-1.97-1.1.64-1.18-.73-1.8-.75-.27.09-.54.17-.9.29.21.64-.32.71-.92.7.26.3.46.53.66.77-.03.07-.06.13-.08.21-.38-.05-.77-.14-1.14-.14-.41,0-.81.1-1.21.18-.26.06-.56.31-.73.24-.44-.2-.81-.54-1.2-.81-.19-.12-.36-.3-.57-.35-.31-.09-.65-.09-.94-.13-.18-.66-.36-1.22-.48-1.79-.13-.63-.39-.83-1.02-.65-.4.11-.78.34-1.18.36-.67.05-1.08.33-1.27.94.09.14.15.37.27.41.22.07.49.07.72.02.34-.08.67-.24,1.01-.37.04.11.08.22.12.34-.43.22-.87.43-1.29.67-.39.22-.71.38-.71,1.01,0,.83.16,1.78-.85,2.54.14-.47.3-.78.3-1.1,0-.35-.16-.69-.23-.95.16-.07.34-.16.53-.24-.02-.08-.04-.15-.05-.23-1.15.5-1.29-.48-1.67-1.09-1.53.88-3.07,1.22-4.7.4-.2-.1-.37-.26-.56-.39.19-.22.34-.52.59-.66.22-.13.55-.08.81-.16.17-.05.4-.19.44-.33.19-.64-.16-1.12-.58-1.56-.39-.39-.81-.55-1.33-.22-.08.05-.25.07-.32.02-1.26-.8-2.97-.98-3.63-2.66-.26-.67-1.7-.6-2.02.04-.29.56-.67.76-1.31.47.17-.39.74-.56.45-1.19-.16-.35.09-.89.16-1.44-.7.91-1.31,1.69-1.91,2.47-.08-.03-.16-.05-.24-.08-.16-1.45-.31-2.91-.46-4.36-.12,0-.24,0-.36,0-.04.53-.09,1.07-.14,1.55-.57,1.08-1.75.82-2.77,1.3.34-.55,1.47-.49.92-1.45-.45.14-.85.23-1.23.38-.63.26-1.25.56-1.87.82-.24.11-.65.12-.71.29-.28.69-.92.49-1.51.82.27-.29.41-.44.56-.6-.25-.26-.41-.43-.58-.61-.21.25-.41.48-.63.74-.15-.2-.24-.34-.29-.41-.12.25-.28.72-.37.71-1.06-.14-.9.69-1.06,1.27-1.31-.23-1.75-1.3-2.24-2.31-.01-.04.02-.08.03-.15M1729.65,60.07c.35.11.64.21.87.29-.46.31-.82.54-1.35.9-.28-.09-.77-.29-1.29-.4-.51-.1-.52-.3-.29-.7.13-.23.3-.63.2-.78-.26-.39-.64-.29-1.03-.06-.29.17-.69.14-1.01.29-.18.09-.29.35-.48.6-.8-.21-1.47.3-2.11.86-.05.05-.11.09-.17.14-.27.23-.54.45-.81.67.36.31.71.62,1.08.93.05.05.12.07.27.16-.11.17-.2.33-.38.62l-.1-.6c-.11.06-.23.08-.23.11-.08.67-.22,1.35-.19,2.01.04.61,1.2,1.07,1.72.79.5-.28.99-.27,1.45.12.14.12.32.2.36.23.82-.51,1.57-.97,2.33-1.45q.18.46-.43.84c-.02.48-.02.81-.06,1.14-.02.26-.15.52-.13.78.06.89-.83,1.63-1.63,1.28-.18-.09-.27-.36-.43-.51-.11-.1-.29-.12-.53-.03.11.16.23.31.37.49-.43.58-.79,1.23-1.57,1.15-.11-.27-.16-.58-.28-.6-.26-.05-.7-.06-.79.07-.31.54-1.19.79-.87,1.65.02.06-.07.22-.14.24-.83.23-1.07.99-1.48,1.6-.14.21-.42.33-.58.53-.34.42-.47,1.75-.09,2.08.68.63.16.92-.25,1.31.25.69.5,1.39.82,2.29l1.97-.34c.15.63.4,1.23-.24,1.76-.09.08-.1.41-.01.53.4.59.27.96-.38,1.34.56,0,1.11-.01,1.71,0-.08-.26-.13-.42-.19-.58.05-.05.11-.09.16-.13.49.45.99.91,1.51,1.4.06-.24.15-.63.26-1.12.65,1.27,1.25-.01,1.89.11-.01.06,0,.17-.05.19-.96.54-1,1.58-1.39,2.44-.47,1.05-1.28,1.8-2.18,2.49-.71.54-1.42,1.08-2.08,1.68-.22.21-.29.59-.46.7-.52.15-1.18.13-1.52.45-.72.67-1.48,1.34-2.14,2.26.83-.19,1.45-.33,2.12-.48.09-.28.21-.66.36-1.11.21.37.38.68.62,1.11.52-.62.97-1.17,1.54-1.86-.04.36-.06.55-.07.61.59-.34,1.2-.68,1.81-1.04.07-.04.13-.16.16-.24.13-.7.86-.82,1.2-1.21.56-.63,1.7-.64,1.8-1.79.04-.38.63-.76,1.04-1.05.41-.29.93-.43,1.37-.7.26-.16.44-.43.64-.67.21-.25.37-.56.62-.76,1.06-.8,1.08-.97.02-1.7.4-.48.69-.98,1.51-.91.3.03.7-.52.95-.89.19-.29.21-.69.3-1.04.07.07.13.13.2.2.18-.09.53-.23.53-.25-.26-.66.44-.83.67-1.2.22-.36.68-.59,1.07-.82.42-.25.79-.22.84.41.01.14.07.27.11.46-.11.04-.28.14-.32.1-.62-.54-1.04.04-1.51.28-.15.07-.26.26-.34.42-.25.53-.43,1.11-.74,1.61-.27.42-.47.75.01,1.13-.33.24-.63.45-.93.67.19.65.54.64,1,.35.63-.39,1.28-.76,1.92-1.15.14-.09.25-.22.38-.33.13-.11.28-.31.39-.3.79.12.99-.4,1.38-.93.28-.39.33-.61.16-.96-.07-.15-.2-.28-.28-.39.6-.02,1.32-.03,1.96-.04.19.34.39.71.61,1.1,1.15.03,1.62.37,1.62,1.31.27-.02.55.04.79-.05.81-.29,1.44.06,2.07.48.46.31.88.74,1.51.36.07-.04.26.12.39.19-.12.13-.24.27-.46.52.38.32.81.67,1.4,1.16.18.86.51,1.86,1.83,1.99-.52.69-.51,1.54.06,2.25.26.32.3.59.2,1.03-.12.49.13,1.07.23,1.6.07,0,.14-.01.21-.02.08-.35.15-.7.22-1.05.08.01.15.02.22.04-.05.47-.1.95-.14,1.42.07.04.14.07.2.1.21-.3.42-.6.63-.89.03.01.07.03.11.04-.12.32-.26.63-.39.95.63.07.69.83.15,1.57-.15-.09-.3-.18-.59-.36.29.69.52,1.22.75,1.76.06-.02.11-.03.17-.05l-.16-.93c.41.38.67.62,1.01.93.1-.55.19-.99.32-1.66.17.49.27.79.42,1.21.34,0,.77,0,1.26,0-.58.54-.54,1.23-.24,1.86-.28-.06-.54-.11-.86-.18.3.49.5.82.8,1.32-.37-.22-.54-.32-.72-.43-.05.06-.1.12-.16.18.3.29.61.56.88.86.19.2.69.25.38.76-.06.09.18.45.36.58.26.18.61.25.87.43.13.09.18.3.27.46-.05.04-.1.08-.15.12-.12-.08-.24-.16-.36-.24-.07.04-.14.07-.2.11.24.45.48.9.73,1.35-.47.3-.33.97.44,1.42.17.1.28.3.55.59-1,.04-1.41-1.12-2.24-.55.11.42.21.82.32,1.21.02.1.03.22.1.27.66.49,1.35.96,1.99,1.47.32.26.59.57.82.91.36.51,1.33.9,1.97.69-.41-.7-.17-1.67-1.18-2.13-.3-.14-.33-.85-.52-1.38-.19-.06-.5-.16-.81-.26.01-.06.02-.13.04-.19.49.07.98.14,1.31.18.07.59,0,1.15.24,1.51.15.23.74.18,1.19.26.01.11-.06.49.08.6.77.61.53,1.26.12,2-.65-.17-1.33-.33-2.21-.56.08.7.11,1.42.26,2.11.29,1.35.23,2.66-.13,3.98-.18.67-.17,1.4-.3,2.09-.09.47-.2.96-.4,1.39-.4.89-.35,1.77-.1,2.68.2.76.22,1.5-.23,2.21-.09.14-.11.46-.01.55.64.58.52,1.39.63,2.11.14.97.82,1.56,1.21,2.34.21.44.42.88.63,1.33.03.06.13.13.11.17-.33,1.03.55,1.55.97,2.27.13.22.4.48.36.68-.11.67.21.67.75.79.9.19,1.77.57,2.61.96.29.13.49.53.64.85.46.99.88,2,1.31,3.01.11.26.27.51.32.78.19.96,1.15,1.18,1.7,1.81.44.5.72.95.34,1.6-.24.03-.5.06-.83.11.44.77,1.09,1.15,1.83,1.31,1.17.24,1.78,1.02,1.68,2.22-.02.16.07.39.19.48.88.64,1.97,1.03,2.56,2.05.04.07.45.05.47-.02.11-.26.28-.69.16-.81-.39-.4-.57-1.15-1.37-1-.02,0-.12-.35-.14-.53-.01-.16.09-.45.04-.47-.66-.33-.73-.98-.94-1.57-.11-.3-.48-.49-.68-.77-.37-.49-.7-1.02-1.04-1.53-.17-.25-.34-.5-.53-.73-.46-.55-.97-1.05-1.38-1.63-.57-.81-.64-1.75-.55-2.73.43.13.83.23,1.23.36.24.09.39.17.5.54.45,1.52,1.29,2.85,2.46,3.93.14.14.39.17.63.27-.2.94.76.98,1.26,1.34.36.25.6.31.36.79-.21.41-.13.74.42.85.35.08.71.21,1.01.4.19.12.27.41.29.44,1.04,1.01,2,1.85,2.84,2.79.37.41.58,1.01.74,1.56.08.28-.11.63-.2.94-.22.76.48,1.76,1.25,1.93.43.09.83.34,1.24.52.4.17.79.45,1.21.51.6.08,1.14.23,1.7.49.76.34,1.58.56,2.39.74.91.2,1.88.22,2.76.48.82.24,1.44-.02,2.05-.44.74-.5,1.43-.52,2.16,0,.58.41,1.2.78,1.81,1.17l.14-.02c0-.24.04-.48.02-.71-.08-.83.38-1.45,1.18-1.6.3-.06.59-.16,1.06-.29-.62-.41-1.03-.68-1.41-.93.11-.33.2-.58.31-.91,1.2-.09,2.41-.25,2.98-1.59.29.17.49.28.71.41.07-.22.18-.38.18-.53-.01-1.21-.13-2.42.67-3.5.23-.31-.23-.88-.57-.79-.47.12-.93.3-1.39.46-.44.16-.88.37-1.33.48-.88.2-1.13.48-1.13,1.38,0,.88-.11,1.73-.84,2.17-.04.34-.06.56-.11.77,0,.02-.23,0-.36-.02.03-.47-.26-.3-.47-.22-.55.23-1.08.52-1.64.72-.39.13-.82.26-1.21.21-.43-.05-.82-.33-1.25-.46-.49-.15-2.35-2.38-2.38-2.89,0-.17.01-.37-.07-.49-.78-1.13-.61-2.4-.53-3.65.05-.92.22-1.83.3-2.75.06-.67-.08-1.39.13-2,.18-.55.28-1.22,1.12-1.46.62-.18,1.32-.62,1.23-1.62.17.18.29.3.43.44.53-.71,1.15-.93,1.97-.72.25.07.68.04.83-.12.39-.43.64-.1.85.1.54.52,1.38.49,1.85-.09.31.09.6.18.89.26.03-.09.05-.17.07-.25-.25-.12-.5-.24-.8-.38.12-.18.22-.33.31-.48-.11-.1-.23-.2-.4-.36.38-.22.68-.49,1.01-.56.69-.15,1.4-.2,2.1-.29.78-.1,1.56-.27,2.15.49.06.08.44.05.52-.05.75-.93,1.3-.58,1.83.22.08.12.27.15.34.27.14.24.4.57.33.75-.29.74.09,1.28.43,1.84.16.27.38.5.56.75.34.45.65.93,1.03,1.35.17.19.51.33.76.3.17-.02.37-.34.44-.56.32-.95.44-1.86-.23-2.77-.27-.37-.2-1-.45-1.41-.66-1.08-.9-2.26-1.01-3.48-.02-.25.05-.56.18-.76.48-.69.91-1.41,1.75-1.76.28-.11.59-.42.68-.7.4-1.14,1.55-1.57,2.2-2.46.06-.08.2-.14.32-.15.61-.06.84-.32.52-.72.32-.39.58-.72.9-1.12-.39-.1-.61-.15-.9-.23.67-.36.47-.85.33-1.34-.21-.66-.41-1.32-.64-2.07,1.05.26.54,1.03.81,1.52.26-1.04,1.4-1.89.61-3.16.16.12.32.24.51.38.51-.91,1.16-1.72.84-2.75.82-.3,1.63-.61,2.43-.91-.02-.07-.04-.15-.06-.22l-1.42.24s-.03-.09-.05-.13c.98-.31,1.95-.62,2.92-.93,0,.03.02.13.03.22.08.02.16.05.24.08.18-.46.36-.92.53-1.39,0-.01-.07-.04-.14-.08-.07.15-.13.31-.22.5-.25-.29-.44-.52-.6-.7.07-.25.17-.44.17-.65.04-.9.36-1.62,1.22-2.03.21-.1.38-.29.58-.43.29-.21.56-.49.88-.62.65-.25,1.34-.43,2.14-.68-.28-.24-.4-.34-.56-.47.74-.29,1.42-.55,2.1-.81.03.05.06.11.1.16-.19.14-.41.26-.56.43-.32.38-.76.75-.87,1.19-.08.3.28.74.51,1.08.06.09.42.13.5.04.53-.57,1.02-1.18,1.44-1.69,1.17-.57,2.29-1.11,3.45-1.67-.11-.12-.2-.21-.23-.25.42-.23.86-.46,1.27-.73.15-.09.24-.26.36-.4-.17-.1-.33-.22-.49-.31-.1-.05-.2-.08-.2-.08-.05-.42-.1-.74-.13-1.07-.09,0-.18-.01-.28-.02-.38.73-.75,1.45-1.16,2.23-.03,0-.25-.09-.46-.08-.29,0-.57.1-.86.12-.45.02-.81-.15-1.23-.36-.48-.25-.76-.48-.82-.97-.06-.52-.05-1.04-.07-1.6-.31,0-.72,0-1.14,0,0-.08,0-.16-.02-.23.79.29,1.16-.35,1.61-.74.12-.1.09-.54-.03-.72-.38-.55-.98-.56-1.58-.47-.1.02-.2.02-.29.06-.66.31-1.36.57-1.96.96-.72.46-1.37,1.06-2.04,1.59.4-.72.9-1.39,1.5-1.95.35-.33.97-.42,1.26-.79.45-.55.73-1.25,1.05-1.83.34.04.57.13.77.08,1.83-.44,3.73-.13,5.57-.61.92-.24,1.54-.64,2-1.44.19-.32.57-.63.92-.71.77-.19,1.41-.56,2.02-1.03.64-.49.69-1.09.13-1.53.07-.15.17-.29.21-.46.2-.72.04-1.16-.69-1.33-.41-.1-.71-.15-.86-.6-.04-.11-.39-.16-.58-.15-.25.02-.49.14-.73.22-.02-.05-.05-.1-.07-.15.45-.21.89-.43,1.31-.63-.26-.27-.47-.49-.71-.75-.47.39-.89.52-.99-.27-.52-.05-.97-.09-1.46-.13.36-.55-.12-.67-.41-.88-.48-.36-.97-.7-1.39-1,.36-.44.64-.78.9-1.11-.29-.35-.59-.58-.75-.89-.2-.37-.27-.8-.43-1.19-.05-.12-.26-.17-.3-.29-.19-.51-.32-1.05-.52-1.56-.31-.84-.63-1.67-.97-2.5-.07-.18-.19-.33-.29-.49-.12.16-.29.32-.36.5-.3.73-.52,1.48-.83,2.2-.46,1.05-1.39,1.64-2.28,2.25-.35-.4-.64-.79-1-1.12-.56-.52-.88-1.82-.76-2.57.08-.51.06-1.01.38-1.46.09-.11-.07-.4-.15-.76-.18.33-.27.49-.35.64,0-.08,0-.16,0-.24-.64-.17-1.29-.34-1.93-.51.06-.05.12-.1.18-.16-.06-.18-.06-.39-.17-.52-.19-.22-.46-.35-.65-.56-.27-.29-.48-.64-.73-.95-.44-.53-.77.07-1.16.12-.17.02-.34.03-.51,0-1.02-.13-2.04-.29-3.04-.43-.28.78-.95,1.58.13,2.3-.3.57-.59,1.11-.88,1.66.15.12.44.31.42.35-.32.72,1.07,1.71-.34,2.24-.04.01-.04.09-.06.13-.22.43-.38.91-.69,1.28-.45.53-.39.87.16,1.23,1.15.77,1.04,2.04,1.25,3.18.06.34.08.7.13,1.05-.14.14-.37.36-.59.57-.47.45-.91.95-1.42,1.34-.6.45-1.27.8-1.7,1.07.1,1.14.11,2.16.31,3.13.21.98.42,1.93-.08,2.9-.09-.08-.21-.19-.39-.34-.16.34-.29.64-.52,1.13-.3-.36-.54-.64-.77-.94-.13-.17-.2-.41-.36-.54-.82-.68-1.57-1.32-1.17-2.62.27-.89.23-1.87.33-2.81.05-.4-.11-.5-.51-.46-.77.08-1.54.11-2.31.14-.12,0-.25-.11-.37-.18-.57-.31-1.15-.62-1.71-.94-.29-.17-.64-.31-.83-.56-.62-.84-1.55-1.08-2.4-1.54-1.16-.62-1.89-.03-2.77.4-.02.02-.08-.02-.03,0,.12-.43.35-.86.32-1.27-.05-.71-.3-1.4-.4-2.12-.06-.42-.24-.51-.58-.42-.24.06-.47.19-.88.36,0-.88-.07-1.69.03-2.47.2-1.55,1.36-2.67,1.95-4.06.11-.25.23-.49.37-.76.03,0,.16.05.2.06.58-.6,1.12-1.14,1.65-1.7-.16-.26-.29-.48-.46-.74.66.07,1.31.45,1.8-.18.55-.7-.25-1.04-.52-1.57,1.17.52,1.44.36,1.94-1.15.63.58,1.2.55,1.71-.09.56-.7,1.13-1.4,1.66-2.14.09-.13-.02-.41-.05-.66.51-.59,1.09-1.25,1.62-1.95.07-.08-.15-.38-.25-.57-.05-.12-.2-.26-.17-.34.03-.1.2-.21.32-.22.28-.03.56,0,.86-.01,0,.14,0,.41.03.41.78.1.7.93,1.16,1.29.19.14.45.18.68.26.01-.06.03-.12.04-.17-.34-.37-.68-.74-1.08-1.15.58-.03,1.04-.05,1.5-.07,0-.09-.01-.34.05-.37.76-.34.95-1.33,1.81-1.55.08-.02.13-.17.2-.26.55-.82.06-1.44-.41-1.97.08-.28.2-.49.18-.69-.02-.24-.17-.46-.28-.74.86.23,1.74-.29,1.43-.7-.38-.52.33-.79.11-1.1-.22-.3-.62-.48-.93-.72,0,0,0-.04.01-.1.09,0,.17,0,.19,0-.05-.21-.09-.44-.19-.65-.05-.12-.26-.3-.31-.28-.36.16-.69.09-1.06,0-.49-.11-1.01-.06-1.53-.08.06.8-.57,1.59.15,2.25-.54.45-1.2.71-1.34,1.54-.08.48-.42.92-.64,1.38-.05-.03-.1-.05-.15-.07-.02-.31-.04-.61-.05-.91-.1-.01-.18-.02-.28-.04-.09.4-.33.87-.22,1.2.32.9.39.87-.63,1.14-.12-.25-.27-.5-.36-.77-.2-.67-.54-1.37.27-1.92.08-.06.11-.29.07-.41-.25-.7-.52-1.4-.79-2.09-.08.03-.15.05-.23.08-.37.81-.74,1.62-1.11,2.44-.05-.03-.1-.05-.16-.08,0-.73,0-1.46-.02-2.14.09,0,.29.04.44-.01.08-.03.16-.28.12-.37-.08-.16-.24-.35-.4-.39-.56-.14-1.13-.23-1.72-.34.35-.52.62-.93.91-1.38.07,0,.29-.03.51-.05-.07-.21-.16-.41-.19-.61-.1-.77-.71-1.47-.34-2.32.06-.14.06-.35,0-.49-.33-.77-.68-1.53-1.01-2.25.69,0,1.52-.89,1.53-1.77,0-.54.26-.69.71-.39.59.41,1.02.17,1.36-.31M1742.63,44.45,1803.18,66.62c.48.5.93.95,1.4,1.44-.9.15-1.62-.56-1.4-1.44ZM1732.06,60.4c-.51-.33-1.21.18-1.41-.79.44,0,.84-.01,1.3-.03.03.24.05.46.1.82ZM1751.03,82.49c.1.88.2,1.76.31,2.64-.89-.69-.19-1.74-.31-2.64ZM1749.75,85.08c.08-.11.15-.22.23-.33.42.1.86.21.87.8.01.47-.07.95-.26,1.42.02-.49.05-.99.07-1.39-.31-.16-.61-.33-.92-.5ZM1752.55,91.6c-.03-.19-.05-.39-.11-.58-.06-.22-.11-.49-.26-.66-.47-.54-.5-.81.02-1.35-.32.61.03.99.38,1.39.06.08.08.24.04.33-.24.6.08.56.54.54-.2.11-.41.22-.62.33ZM1752.88,88.78c-.18-.22-.35-.45-.54-.66-.41-.46-.91-.39-1.88.14.1-.11.21-.22.3-.34.5-.64,1.29-1.12,1.06-2.13-.02-.1.2-.25.31-.38.08.05.16.1.25.14-.14.65-.28,1.3-.41,1.9.36.4.71.79,1.05,1.19-.05.04-.1.08-.14.13ZM1762.7,55.42c.76-.95,1.8-1.27,2.95-1.36-.97.45-1.94.89-2.95,1.36Z"/>
          <path class="cls-7" d="M1717.09,77.84c.03.16.07.29.12.4-.04-.11-.07-.25-.11-.4h0Z"/>
          <path class="cls-7" d="M1832.17,63.89c-.38.36-.73.7-1.15,1.1.15.41-.56,1.22-1.5,1.38.01.32.04.66.04.99,0,.46.02.71-.66.42-.81-.33-1.17-.88-1.26-1.6-.06-.47-.43-.45-.62-.69-.26-.33-.56-.63-.94-1.05-.07.43-.13.81-.22,1.34-.11.03-.41.1-.56.13.15.46.28,1.06.56,1.58.17.31.59.72.87.7.97-.07.76.72.99,1.17.17.33.19.75.38,1.06.39.65.29,1.08-.18,1.16-.2.36-.42.6-.46.88-.03.21.18.45.3.67.06.11.17.21.18.31,0,.05-.18.2-.24.18-.13-.04-.29-.13-.35-.24-.29-.65-.69-1.14-1.46-1.2-.07,0-.16,0-.21-.04-.64-.47-1.28-.94-1.92-1.41-.13.27.23.86.54,1.13.65.58,1.28,1.18,1.85,1.84.15.18.07.57.1.97-1.61-.34-3.11-.79-4.37-1.88-.04.31-.06.48-.09.65-.17-.1-.38-.16-.49-.31-.35-.47-.65-.96-1-1.48.13-.09.3-.2.32-.22-.42-.57-.78-1.14-1.22-1.63-.25-.28-.64-.55-1.06.08-.02-.31-.02-.49-.03-.66-.02,0-.05-.03-.07-.03-.56.72-1.55.16-2.21.73-.19.17-.77.08-1.08-.07-.86-.42-.9-1.06-.17-1.66.15-.12.26-.32.34-.49.08-.16.1-.35.12-.42.68.14,1.31.36,1.94.35.43,0,.85-.3,1.28-.46.22-.08.45-.13.81-.24-.1-.2-.23-.49-.4-.74-.24-.35-.27-.59.08-.94.53-.52.95-1.14,1.46-1.69.21-.23.5-.38.84-.63-.07-.63-.1-1.38-.27-2.09-.06-.26-.43-.46-.75-.78,0-.09,0-.36,0-.58-.22.11-.41.19-.59.3-.2.11-.38.25-.57.38-.21-.26-.31-.47-.3-.62,0-.11.07-.2.19-.26.05-.03.11-.05.18-.07.05-.02.11-.02.17-.03q-.41-.38-1.48.05c-.1-.39-.3-.76.37-.81.14,0,.25-.17.39-.27-.11-.12-.21-.24-.33-.35-.25-.22-.53-.42-.74-.67-.08-.09.02-.33.04-.56-.18,0-.38,0-.7,0,.13-.51.24-1,.31-1.26-.59-.35-1.06-.63-1.54-.91-.04.04-.07.09-.11.14.15.14.31.28.45.44.53.6.33,1.11-.4,1.36-.35.12-.62.48-.76.6-.55-.28-1.02-.52-1.53-.78-.09.06-.24.23-.37.21-.82-.1-1.64-.19-2.44-.39-.36-.09-.65-.4-1.07-.13-.09.06-.42-.08-.5-.2-.44-.75-1.11-.56-1.75-.47-.69-.65-1.03-1.43-.84-2.47.65.17,1.3.34,1.94.51.05-.13.08-.26.12-.39-.48-.18-.95-.4-1.45-.51-.99-.23-1.11-.42-.76-1.32.28-.7.46-1.44.81-2.1.5-.92,1.09-1.8,1.7-2.67.54-.78,1.15-1.55,2.17-1.69.56-.08,1.15-.03,1.72.05.42.05.43.29.13.6-.76.77-1.54,1.53-2.21,2.37-.21.26-.09.8-.02,1.22-.85,1.27-.39,2.64.6,3.07.36-.38.05-.59-.18-.88-.21-.26-.28-.62-.4-.92.22-.25.44-.48.73-.81.05,0,.23.06.56.14-.84-.9-.53-1.81.1-2.68.77-1.05,2.04-.94,2.92-1.65.26-.21.78-.09,1.33-.14-.04.44-.09.81-.1,1.18,0,.13.08.27.13.39h0s-.02,0-.02,0h0s0,0,0,0c0,.02.02.03.02.06h0c-.02.62-.04,1.23-.06,1.92.45.15.98.31,1.5.48,1-.96,1.86-1.01,3.05-.06.3.25.46.74.57,1.15.1.37.05.78.06,1.05.51.02,1.21-.11,1.81.09.76.25,1.09,1.13.83,1.74.18-.06.32-.1.49-.16.06.26.11.49.17.71.72-.05,1.33.17,1.79.71.09.1.04.49.02.49-.77.11-.48.75-.46,1.24.16-.34.32-.68.47-1.02.52.27,1.04,1.1.87,1.42-.23.42-.5.8-1.09.48.4.49,1.57-.03,1.45,1.19-.47-.06-.91-.1-1.34-.15.24.61.09,1.08-.53,1.29.47.24.88.45,1.35.68-.03.1-.06.26-.12.51.22-.08.35-.13.49-.19.02.21.02.53.04.53.39.02.77,0,1.24-.02-.07.19-.15.44-.24.67.29.02.58,0,.86.07.08.02.15.28.15.43,0,.12-.12.24-.19.36.17.08.33.21.5.22.33.02.66-.03,1.13-.07-.22.29-.34.45-.61.82,1.08-.57,1.3.18,1.78.73Z"/>
          <path class="cls-7" d="M1792.76,47.78c-.11.4-.2.8-.24,1.21-.03.31.09.65.04.96-.07.47-.24.93-.33,1.4-.05.25-.12.54-.06.77.09.29.29.56.49.79.12.14.34.19.67.35-.03.57.3,1.11.93,1.42.64.32.47.85.32,1.31-.12.39-.63.64-.48,1.16,0,.02-.15.08-.33.17.04-.38.07-.68.1-1.05-.39.13-.75.16-.67-.56-.39.41-.88.44-.35,1.08.59.7-.09,1.75-1.06,1.84-.26.02-.53.04-.78.01-.58-.07-1.16-.17-1.8-.27.42-.96-.46-.62-.82-.83.04-.26.08-.5.14-.94-.45.42-.75.73-1.08,1.01-.16.14-.37.35-.54.34-.79-.08-1.34.34-1.88.79-.37.32-.77.32-1.26.32-.88-.02-1.76.14-2.63.22-.04-.23-.02-.47-.12-.64-.21-.35-.2-.6.04-.98.39-.62.07-1.04-.68-.92-1.67.27-2.16-1.45-1.8-2.61.06-.2.44-.39.7-.44,1.24-.24,2.47-.27,3.7.18.44.17.98.07,1.67.1-.5-.45-.84-.77-1.19-1.07-.67-.57-1.44-.48-2.25-.39-.74.08-1.51-.07-2.32-.13-.02-.13-.04-.29-.08-.45-.25-1.26-.25-1.24.99-1.54.5-.12,1-.32,1.49-.48-.01-.07-.03-.14-.04-.22-.43.05-.89.02-1.3.16"/>
          <path class="cls-7" d="M1789.22,49.01c-.09.44-.03.93-.03,1.42.82-.35.66-1.02.77-1.58"/>
          <path class="cls-7" d="M1795.67,47.08c.05.34-.02.7.02,1.04.02.16.17.32.3.43.27.26.67.42.84.73.35.64.55,1.36.86,2.02.11.23.35.46.58.56.09.04.4-.22.5-.4.21-.38.37-.67.92-.74.39-.05.93-.41,1.07-.75.22-.61.53-1.23.65-1.83"/>
          <path class="cls-7" d="M1838.81,101.21c-.09-.15-.18-.31-.27-.47-.16.1-.31.2-.56.36.07-.66.12-1.19.17-1.73-.62.74-1.04,1.56-1.98,1.78-.06-.06-.12-.12-.18-.17.25-.29.5-.57.84-.96-1.12.04-2.11.05-3.1.11-.32.02-.64.2-.97.25-.17.03-.36-.07-.54-.11.05-.19.05-.41.15-.57.17-.26.39-.48.68-.82-.32,0-.49-.01-.77-.03.14-.22.21-.46.35-.5.89-.31.95-1.14,1.23-1.84.45-1.11.79-2.31,1.88-3.01.19-.13.47-.14.71-.2-.08.17-.16.35-.24.52-.36.81-.72,1.62-1.08,2.43.07.03.13.06.21.09.1-.22.2-.45.28-.65.36.12.64.21.87.28-.14.26-.29.53-.45.85.48,0,.81,0,1.13,0,.2-.26.43-.54.61-.77,1.24.41.74,1.23.54,2.09.37-.26.6-.42.83-.58.04.04.09.07.13.11-.28.54-.56,1.08-.83,1.62.04.02.08.05.11.09.29-.27.57-.54.86-.81.04.03.07.06.11.1-.14.25-.28.51-.42.76.05.03.09.06.13.09.13-.13.26-.27.39-.41.28.99-.04,1.81-.84,2.09Z"/>
          <path class="cls-7" d="M1811.71,70.9c.03.2-.01.44-.1.62-.25.52-.65.64-1.19.43-.23-.1-.52-.09-.85-.14.04-.22.08-.43.11-.58-.23-.14-.45-.26-.66-.38-.02-.1-.04-.2-.07-.31-.16.25-.32.49-.47.74-.05.08-.03.21-.09.27-.45.45-.88.91-1.37,1.3-.18.15-.49.14-.74.2-.03-.22-.06-.45-.08-.67-.02-.14,0-.28,0-.48l-.94.16c-.16-.51-.18-.95.45-1.17.09-.03.16-.18.18-.28.25-1.1.45-2.21.74-3.31.1-.34.4-.64.62-.95.08.02.16.05.24.08l.22,1.29c.31-.26.63-.38.74.21.01.08.13.21.18.2.56-.08.67.44.98.68.55.44,1.07.85,1.18,1.62.02.11.32.2.5.29.14.07.42.09.44.17Z"/>
          <path class="cls-7" d="M1799.65,56.92c.02.83-.06.9-.77.57.17.53.33,1.01.51,1.57-.65.99-1.41,1.12-2.52.4-.4-.27-.87-.41-1.3-.64-.14-.07-.3-.26-.29-.38.01-.16.17-.42.29-.44,1-.15,1.18-1.03,1.6-1.7.13-.21.36-.36.56-.56.54,1.13.36,1.26,1.92,1.19Z"/>
          <path class="cls-7" d="M1816.16,46.54s.01,0,.02,0h0s-.02,0-.02,0Z"/>
          <path class="cls-7" d="M1820.38,47.75s-.29.3-.45.3c-.41,0-.81-.13-1.23-.16-.22-.01-.51,0-.68.13-.42.32-.78.3-1.19.01-.48-.33-.37-.73-.17-1.15.02-.05,0-.1.01-.21-.15-.04-.32-.09-.49-.13.03-.14.04-.28.09-.42.14-.43.29-.85.38-1.11.75.09,1.42.15,2.08.27.28.06.67.2.79.43.35.65.6,1.34.86,2.04Z"/>
          <path class="cls-7" d="M1818.73,61.2c-.38,1.3-.89,1.72-2.16,1.65-.43-1.05.25-1.76.79-2.44.18-.23.8-.25,1.17-.16.51.13.32.55.21.95Z"/>
          <path class="cls-7" d="M1809.98,73.35c-.35,1.1-1.15,1.61-2.19,1.94-.3-1.3.34-1.89,2.19-1.94Z"/>
          <path class="cls-7" d="M1829.82,98.43c-1.35.27-2.32-.24-3.2-1.02.73-.58,2.56.14,3.2,1.02Z"/>
          <path class="cls-7" d="M1811.53,87.45c-.32.36-.8.59-1.27.92-.13-.48-.18-.71-.29-1.13.27-.15.71-.41,1.19-.69.14.32.47.8.37.91Z"/>
          <path class="cls-7" d="M1812.3,74.87c-.13.45-.34.88-.54,1.37-.71-.55-.8-1.22-.24-1.78.15-.15.44-.16.67-.23.04.22.16.46.11.64Z"/>
          <path class="cls-7" d="M1829.09,102.72c-.16.29-.36.85-.46.83-.47-.08-.93-.3-1.38-.51-.23-.11-.42-.3-.71-.52.15-.19.29-.37.5-.64.08.3.13.49.19.76.6.03,1.23.05,1.85.08Z"/>
          <path class="cls-7" d="M1816.27,57.57c-.02.83-.65,1.43-1.38,1.41.08-.87,1.03-.86,1.38-1.41Z"/>
          <path class="cls-7" d="M1809.03,93.95c-.05.07-.09.14-.14.21-.48,0-.96,0-1.44-.01-.04-.11-.07-.21-.1-.3.32-.17.64-.44.97-.45.24,0,.48.36.71.56Z"/>
          <path class="cls-7" d="M1820.36,61.48c-.58.09-1.14.33-1.31-.47.56-.47,1.07-.31,1.31.47Z"/>
          <path class="cls-7" d="M1814.49,72.16s-.09.4-.14.61c-.36-.18-.73-.36-1.09-.54.06-.15.11-.29.16-.44.37.11.73.2,1.08.36Z"/>
          <path class="cls-7" d="M1794.96,57.8c-.25.43-.49.87-.81,1.45-.39-.92.14-1.22.62-1.55.07.03.13.07.2.1Z"/>
          <path class="cls-7" d="M1827.24,75.87c-.24-.19-.44-.35-.54-.43.14-.37.24-.62.34-.91.39.37.63.75.2,1.35Z"/>
          <path class="cls-7" d="M1815.65,71.76s-.11.25-.17.39c-.28-.2-.57-.39-.86-.59.07-.11.16-.21.23-.32.27.17.55.33.8.52Z"/>
          <path class="cls-7" d="M1752.38,85.57c-.14.65-.28,1.3-.4,1.9.36.4.7.79,1.05,1.19-.05.04-.1.09-.14.13-.18-.22-.35-.45-.54-.66-.41-.46-.91-.39-1.89.14.1-.11.21-.22.3-.34.49-.64,1.29-1.12,1.06-2.13-.02-.1.2-.25.31-.38.08.05.16.1.24.15Z"/>
          <path class="cls-7" d="M1765.65,54.07c-.97.44-1.93.89-2.94,1.35.77-.95,1.8-1.27,2.94-1.35Z"/>
          <path class="cls-7" d="M1804.58,68.06c-.9.15-1.62-.57-1.4-1.45.48.5.93.96,1.4,1.45Z"/>
          <path class="cls-7" d="M1753.17,91.27c-.21.11-.41.22-.62.33-.03-.19-.05-.39-.11-.58-.07-.23-.11-.49-.26-.66-.47-.54-.5-.81.01-1.35-.31.6.03.99.38,1.39.06.07.08.24.05.33-.24.6.08.56.54.54Z"/>
          <path class="cls-7" d="M1730.65,59.61c.44,0,.84-.02,1.3-.03.03.24.06.46.1.82-.51-.33-1.21.18-1.4-.79Z"/>
          <path class="cls-7" d="M1751.33,85.13c-.89-.69-.19-1.74-.3-2.64.1.88.2,1.76.3,2.64Z"/>
          <path class="cls-7" d="M1750.66,85.59c-.3-.17-.61-.33-.91-.5.08-.11.16-.22.24-.33.42.1.85.21.87.8.01.47-.06.95-.26,1.42.02-.49.04-.98.06-1.38Z"/>
          <path class="cls-7" d="M1731.66,84.7c-.08.39-.14.67-.17.8-.94.83-1.78,1.58-2.73,2.43.13-.3.21-.48.21-.48-.22-.18-.5-.29-.54-.46-.08-.31-.13-.74.03-.96.25-.37.6-.85,1.24-.5.12-.4-.13-1.24.75-.59.32-.67.79.01,1.21-.23Z"/>
          <path class="cls-7" d="M1752.4,98.53c-.03.07-.06.13-.1.2-.18-.09-.41-.14-.52-.29-.51-.67-.9-1.4-.88-2.29,0-.35-.23-.69-.25-1.05-.04-.67.33-.92.96-.72.25.08.51.13.65.17-.07.66.08,1.52-.26,2.1-.5.87.07,1.3.39,1.88Z"/>
          <path class="cls-7" d="M1718.67,68.96c-.43.19-.87.38-1.3.56-.17-.42-.29-.87-.52-1.25-.08-.12-.42-.09-.65-.12-.19-.03-.47.02-.55-.09-.09-.13-.07-.4,0-.58.13-.3.33-.58.56-.94.18.56.46.92,1.08.65.09-.04.28.02.33.09.37.55.71,1.12,1.06,1.67Z"/>
          <path class="cls-7" d="M1718.76,78.63c-.27.05-.49.09-.68.1-.06,0-.1,0-.15,0-.01,0-.03,0-.04,0-.08,0-.15-.01-.21-.02-.13-.04-.23-.1-.31-.19-.04-.05-.08-.1-.11-.17-.02-.03-.04-.06-.05-.1-.04-.11-.09-.25-.12-.4h0c.48-.13.95-.25,1.51-.4.61.24.38.71.15,1.19Z"/>
          <path class="cls-7" d="M1732.26,84.04q-1.01.55-1.53,0c.38-.22.73-.46,1.11-.61.07-.01.28.39.42.6Z"/>
          <path class="cls-7" d="M1739.04,79.03c.2.5-.53,1.45-1.44,1.63.56-.64.99-1.13,1.44-1.63Z"/>
        </g>
        <line class="cls-7" x1="1757.09" y1="53.7" x2="1744.84" y2="80.66"/>
        <polyline class="cls-7" points="1756 100 1795.97 100.29 1807.9 105.48 1823.5 98.6"/>
        <polyline class="cls-7" points="1765.23 132.55 1780.74 133.2 1789.96 135.89"/>
        <rect class="cls-8" x="1717.66" y="51.52" width="134.73" height="141.27" rx="5.54" ry="5.54" transform="translate(5.12 304.34) rotate(-9.76)"/>
        <rect class="cls-11" x="1726.77" y="149.21" width="133.44" height="43.85" rx="5.29" ry="5.29" transform="translate(-3.06 306.49) rotate(-9.76)"/>
        <text class="cls-16" transform="translate(1746.95 187.7) rotate(-9.76)"><tspan x="0" y="0">NE</tspan><tspan class="cls-17" x="32.34" y="0">V</tspan><tspan x="46.77" y="0">A</tspan><tspan class="cls-18" x="63.17" y="0">D</tspan><tspan x="79.1" y="0">A</tspan></text>
        <g>
          <path class="cls-2" d="M1766.1,105.05c-1.62.16-3.17-.09-4.59-.89-2.23-1.25-3.52-3.15-3.91-5.67-.13-.84-.11-1.68.06-2.51.35-1.66,1.1-3.13,2.4-4.24,2.19-1.88,4.7-2.4,7.48-1.59.25.07.45.28.71.33.56.11.96.51,1.43.78.18.1.29.37.42.41.33.12.44.4.67.6.61.53,1.01,1.22,1.35,1.94,1.77,3.75.17,8.28-3.56,10.1-.05.02-.1.05-.15.08-.5.23-.99.49-1.55.53-.25.02-.5.09-.75.14Z"/>
          <path class="cls-1" d="M1766.1,105.05c.25-.05.5-.12.75-.14.57-.04,1.05-.3,1.55-.53.01.66.15,1.31.23,1.97.15,1.26.37,2.51.49,3.77.07.77.24,1.52.26,2.29,0,.31.11.61.15.92.13.97.28,1.95.38,2.93.1.96.26,1.92.37,2.88.04.35.15.67.17,1.02,0,.11.06.18.14.26.28.24.26.67-.02.91-.64.53-1.4.64-2.18.53-.24-.03-.57-.1-.68-.43-.04-.13-.05-.24.04-.34.13-.15.16.02.22.08.03.03.08.03.09,0,.03-.07.02-.16-.04-.21-.29-.29-.26-.68-.31-1.04-.07-.43-.04-.87-.13-1.29-.82-4.08-1.43-8.19-2.16-12.28-.06-.32-.08-.65-.03-.98.02-.14.04-.22.23-.2.16.02.34,0,.48-.11Z"/>
        </g>
      </g>
      <g class="cls-13">
        <path class="cls-3" d="M1498.63,212.14c14.06-.27,21.35-9.83,28.88-19.48,9.49-12.16,28.87-15.57,43.13-5.15,6.46,4.72,13.26,8.28,21.66,8.56,7.99.27,13.88-3.54,19.08-8.59,3.79-3.68,6.72-8.26,10.07-12.41,9.02-11.17,31.1-12.53,41.17-3.17,13.66,12.69,32.54,10.51,44.37-4.05,5.22-6.43,9.82-13.56,18.36-16.17,1.78-.55,3.7-.67,6.63-1.18-1.05,2-1.21,2.84-1.59,2.96-10.39,3.11-16.31,11.36-22.44,19.37-8.91,11.63-29.86,14.58-39.44,6.01-3.7-3.3-8.97-4.8-13.44-7.29-11.13-6.19-27.17-.25-32.76,8.35-1.18,1.81-2.82,3.34-3.97,5.17-9.6,15.26-31.84,19.53-47.79,7.18-6.41-4.96-13.56-7.83-22.03-6.96-9.51.98-15.9,6.42-21.13,13.71-5.57,7.77-12.17,14.09-21.93,15.98-2.13.41-4.44-.06-6.66-.12-.06-.9-.11-1.8-.17-2.7Z"/>
        <path class="cls-3" d="M1579.94,170.25c-4.93-2.48-10.18-4.48-14.73-7.53-9.14-6.13-18.85-9.22-29.04-4.29-5.21,2.52-9.77,7.12-13.57,11.66-5.83,6.95-11.69,13.31-21,15.41-8.28,1.87-16.11,1.27-23.43-3.27-8.37-5.19-16.35-11.38-27.09-10.5-.4.03-.85-.7-2.95-2.54,4.57-.32,7.88-1.44,10.5-.54,5.91,2.02,11.66,4.71,17.13,7.75,6.47,3.58,12.71,6.66,20.55,6.46,10.95-.28,17.09-7.04,22.72-14.85,12.36-17.14,29.15-20.41,47.07-9.17,4.14,2.6,8.6,4.69,12.83,7.15.88.51,1.41,1.64,2.1,2.48-.36.6-.73,1.19-1.09,1.79Z"/>
        <path class="cls-3" d="M1569.63,137.21c-2.51-.64-5.15-.98-7.52-1.96-6.85-2.85-13.51-8.07-20.39-8.33-6.2-.24-12.94,4.3-18.79,7.81-3.35,2.01-5.49,6.11-8.03,9.38-11.01,14.18-27.71,17.65-43.16,8.39-7.97-4.78-15.36-10.56-25.39-9.89-.36.02-.78-.77-2.06-2.13,2.77-.48,4.81-1.2,6.8-1.11,8.48.39,15.21,4.93,22.09,9.33,13.66,8.73,26.91,6.6,37.51-5.68,1.55-1.8,3.14-3.57,4.58-5.45,6.53-8.55,14.61-14.36,25.84-14.21,11.65.16,21.04,5.1,28.38,14.06l.13-.19Z"/>
        <path class="cls-3" d="M1547.83,97.6c1.69.64,3.44,1.15,5.06,1.94,8.02,3.91,15.02,10.08,25.01,9.28,8.24-.66,14.78-3.89,20.04-10.02,2.95-3.45,5.53-7.23,8.62-10.54,9.58-10.27,24.57-12.79,36.96-6.27,6.1,3.21,12.08,6.68,18.06,10.12.74.43,1.17,1.39,2.71,3.31-2.71-.18-4.26.11-5.41-.43-3.57-1.67-7.26-3.29-10.42-5.59-17.86-12.96-33.23-8.21-45.21,8.58-11.06,15.51-28.64,19.14-44.74,9.04-3.89-2.44-7.65-5.1-11.47-7.65.27-.59.54-1.18.81-1.76Z"/>
        <path class="cls-3" d="M1498.13,242.07c1.5-.45,3.02-1.35,4.5-1.28,12.33.56,20.42-6.02,26.88-15.55,6.3-9.3,14.99-14.79,26.31-14.68,4.99.05,10.55.83,14.81,3.17,9.93,5.48,18.86,13.09,31.65,10.76.04.83.08,1.65.12,2.48-2.45.56-5.19,2.11-7.3,1.5-6.35-1.83-12.74-3.95-18.56-7.01-6.48-3.4-12.41-7.63-20.24-7.37-10.63.36-18.3,5.45-24.03,14.08-6.51,9.8-15.3,15.91-27.4,16.29-2.18.07-4.38-.41-6.56-.64-.06-.59-.11-1.17-.17-1.76Z"/>
        <path class="cls-3" d="M1619.55,145.21c6.17-7.97,14.97-10.12,23.54-8.22,7.8,1.74,15.19,6.11,22.26,10.2,7.97,4.61,16.52,5.21,24.37,2.39,5.08-1.82,8.75-7.61,12.99-11.67,4.8-4.6,9.31-9.56,14.43-13.76,2.11-1.73,5.5-1.9,8.31-2.79.28.58.56,1.16.84,1.74-.84.78-1.54,2-2.53,2.28-7.24,2.14-11.96,7.26-16.47,12.93-5.14,6.46-10.29,13.16-19.11,14.98-9.73,2.01-18.28.96-27.17-5.09-10.84-7.39-23.29-12.2-36.52-3.93-1.32.83-3.28.64-4.95.93Z"/>
        <path class="cls-3" d="M1605.21,226.91c6.51-6.94,12.56-12.75,17.85-19.18,8.4-10.2,18.89-14.91,31.87-12.77,4.05.67,7.78,3.34,11.61,5.19,7.47,3.61,14.9,7.29,22.28,12.18-3.98-.72-8.27-.74-11.88-2.31-5.38-2.35-10.16-6.06-15.42-8.73-12.18-6.19-25.19-2.97-34.07,7.44-4.93,5.78-10.58,10.97-16.17,16.14-1.32,1.22-3.7,1.3-6.07,2.05Z"/>
        <path class="cls-3" d="M1510.5,109.66c1.31,7.44-4.89,10.57-9.27,13.34-12.01,7.62-24.31,7.81-36.46-1-6.52-4.72-13.72-8.75-22.41-8.09-.85.06-1.75-.52-2.62-.8-.03-.63-.06-1.26-.09-1.89,2.99-.24,6.23-1.34,8.92-.55,5.23,1.54,10.54,3.51,15.14,6.39,19.02,11.94,28.28,10.98,44.09-5.25.8-.83,1.91-1.35,2.88-2.02l-.17-.14Z"/>
        <path class="cls-3" d="M1668.67,94.48c1.76-.63,3.47-1.52,5.28-1.84,9.21-1.67,15.3-7.44,20.5-14.75,4.5-6.32,9.8-11.89,17.8-13.77,1.15-.27,2.41-.07,4.15,1.27-1.1.77-2.26,1.48-3.3,2.32-5.29,4.23-10.67,8.35-15.78,12.77-4.71,4.08-8.63,9.31-13.83,12.51-4.04,2.49-9.53,2.63-14.37,3.81-.14-.78-.29-1.55-.43-2.33Z"/>
        <path class="cls-3" d="M1610.6,124.89c-2.69-3.6-.79-6.28,1.8-8.76,8.69-8.36,24.16-12.85,40.06-2.64,3.21,2.06,6.28,4.34,9.42,6.52-.51.8-1.02,1.6-1.53,2.4-2.71-1.58-5.66-2.85-8.09-4.79-13.78-10.95-32.9-8.06-41.72,7.22-.04-.02.06.05.06.05Z"/>
        <path class="cls-3" d="M1693.48,211.52c.82-1.26.95-1.75,1.23-1.85,11.69-4.37,18.08-14.58,26.01-23.17,3.82-4.14,8.9-6.74,15.99-6.3-1.19,1.48-1.68,2.77-2.46,2.97-8.93,2.28-14.01,9.1-19.03,15.96-5.21,7.12-11.9,11.53-21.74,12.4Z"/>
        <path class="cls-3" d="M1454.89,199.31c5.06-5.39,31.81,4.12,38.7,15.07-8.2-.25-13.18-5.71-19.3-8.52-6.23-2.87-13.04-4.46-19.4-6.54Z"/>
        <path class="cls-3" d="M1569.5,137.41c2.11-.03,4.28-.37,6.32-.02,11.2,1.9,20.32-1.29,27.74-10.08,1.37-1.62,4.61-1.68,7.01-2.43.03.02-.07-.06-.03-.03-4.62,4.31-8.9,9.15-14.05,12.74-6.15,4.3-13.55,5-20.85,3.45-2.18-.46-4.02-2.5-6.01-3.82,0,0-.14.2-.14.2Z"/>
        <path class="cls-3" d="M1617.34,148.29c-7.49,17.42-25.48,25.8-31.62,18.88,15.54,1.65,21.4-12.19,31.62-18.88Z"/>
        <path class="cls-3" d="M1697.47,115.04c-1.12-9.99,15.93-24.25,24.36-20.99-4.69,2.89-9.45,5.1-13.28,8.39-3.94,3.39-6.98,7.84-11.08,12.61Z"/>
        <path class="cls-3" d="M1459.04,227.93c9.44-3.67,21.91.41,25.07,7.95-8.31-2.64-16.42-5.21-25.07-7.95Z"/>
        <path class="cls-3" d="M1510.67,109.8c1.85-2.63,3.2-5.98,5.68-7.72,3.94-2.76,8.57-4.61,13.05-6.48,1.06-.45,2.72.51,4.11,1.54-8.44,1.29-14.07,6.31-19.27,12.14-.62.69-2.46.29-3.73.39,0,0,.16.14.16.14Z"/>
        <path class="cls-3" d="M1682.54,121.75c3.67-2.37,7.34-4.73,11.17-7.21,1.02,5.07-3.46,8.5-11.17,7.21Z"/>
      </g>
    </g>
    <g id="tamponSince">
      <text class="cls-14" transform="translate(27.74 172.31) rotate(-17.55)"><tspan x="0" y="0">BRASSERIE </tspan><tspan x="32.06" y="62.01">AL</tspan><tspan class="cls-15" x="83.27" y="62.01">A</tspan><tspan x="110.73" y="62.01">UNA</tspan></text>
      <path class="cls-4" d="M-57.4,212.81c-9.15-28.95-18.16-57.94-27.58-86.8-1.97-6.03-1.32-10.14,3.2-14.94C-55.43,83.1-24.69,61.29,8.82,42.66,47.5,21.16,88.89,7,131.53-2.84c57.75-13.34,116.04-16.2,174.09.14,6.29,1.77,9.14,5.08,11.01,11.07,16.41,52.57,32.99,105.1,49.83,157.54,2.16,6.72,1.39,11.42-3.19,16.96-24.56,29.73-54.44,52.77-87.36,72.45-39.31,23.49-81.66,39.51-125.8,50.3-54.41,13.3-109.54,17.6-165.15,6.75-8.14-1.59-12.96-4.91-15.49-13.52-8.48-28.82-17.9-57.36-26.96-86.01.03-.01.07-.02.1-.03ZM-49.1,210.65s.03,0,.05-.01c8.49,26.86,17.29,53.62,25.3,80.63,2.48,8.36,6.82,12.12,15.33,13.61,59.43,10.41,117.67,3.56,175.11-12.24,40.59-11.16,78.66-28.41,114.5-50.67,27.8-17.27,52.84-37.56,73.88-62.74,3.85-4.61,4.59-8.66,2.73-14.45-15.73-48.86-31.41-97.74-46.37-146.84-2.7-8.87-7.46-12.58-15.78-14.62-59.15-14.46-117.83-9.15-175.91,5.28C84.83,17.28,51.24,29.96,19.18,46.86c-33.12,17.45-63.28,38.52-89.91,64.78-5.28,5.21-6.68,10.31-4.27,17.59,8.95,27.04,17.32,54.27,25.91,81.43Z"/>
      <path class="cls-4" d="M289.8,104.58c5.38,17,10.59,34.06,16.23,50.97,1.72,5.15.79,8.72-3.1,12.4-23.14,21.86-48.85,40.52-78.07,52.61-32.53,13.46-65.93,25.5-99.91,34.57-33.47,8.94-68.31,11.13-103.08,7.16-2.86-.33-6.91-3.36-7.77-6C1.2,216.72-11.36,177.04-23.56,137.25c-.79-2.58,1.09-7.56,3.35-9.23,15.25-11.26,30.06-23.58,46.68-32.39,23.37-12.38,47.51-24.16,72.59-32.26,27.78-8.97,56.73-15.71,85.68-19.32,25.1-3.14,50.91-.56,76.41-.5,6.81.02,10.63,3.13,12.61,9.99,4.95,17.13,10.62,34.05,15.99,51.06.02,0,.03-.01.05-.02ZM284.72,105.6s.04-.01.05-.02c-5-15.81-10.22-31.56-14.89-47.47-1.77-6.02-5.08-8.76-11.21-9.17-6.19-.41-12.32-1.88-18.5-2.09-38.98-1.27-77.52,2.73-114.82,13.96-24.78,7.46-49.55,16.04-72.75,27.34-22.29,10.86-42.64,25.72-63.63,39.16-4.78,3.06-7.64,7.04-5.31,14.13,11.72,35.67,22.81,71.55,34.03,107.39,1.65,5.27,4.05,7.96,10.39,8.47,37.18,3.01,73.75-1.37,109.43-10.75,25.28-6.65,50.11-15.78,74.22-25.98,30.87-13.06,58.99-31.13,84.02-53.71,4.62-4.17,6.1-8.41,3.85-14.79-5.41-15.33-9.97-30.97-14.88-46.48Z"/>
      <path class="cls-4" d="M297.07,106.87c6.67-6.55,14.12-12.78,10.08-24.64,5.65,10.33,14.08,13.63,25.24,14.77-10.48,2.11-19.42,4.34-10.59,18.47-1.49.02-2.99.03-4.48.05-2.25-3.68-4.49-7.36-7.08-11.59-3.78,1.58-7.61,3.17-11.44,4.77l-1.73-1.84Z"/>
      <g class="cls-13">
        <g>
          <path class="cls-6" d="M70.99,294.82c.29,2.83-.48,5.13-2.33,6.89-1.85,1.76-4.72,2.81-8.6,3.11-2.96.23-5.46-.08-7.5-.92s-3.73-2.25-5.08-4.22c1.36-.96,2.04-1.44,3.39-2.4,2.01,2.92,4.97,4.25,8.81,3.95,2.31-.18,4.09-.79,5.33-1.81,1.24-1.02,1.78-2.31,1.64-3.87-.08-.89-.36-1.62-.84-2.2-.47-.58-1.07-1.04-1.78-1.4-.71-.36-1.52-.63-2.42-.81-.9-.18-1.84-.36-2.8-.51-1.59-.25-3.09-.51-4.46-.81-1.38-.29-2.58-.72-3.61-1.27-1.03-.55-1.85-1.3-2.47-2.22-.62-.93-.97-2.15-1.06-3.66-.15-2.7.62-4.88,2.3-6.56,1.67-1.68,4.25-2.64,7.76-2.91,2.79-.22,5.06.09,6.81.96,1.76.86,3.2,2.04,4.33,3.53-1.23,1.04-1.85,1.56-3.09,2.6-.94-1.24-2.01-2.17-3.24-2.78-1.22-.62-2.73-.85-4.54-.71-2.02.16-3.56.7-4.63,1.65-1.07.95-1.56,2.15-1.46,3.62.05.78.26,1.42.64,1.92.38.5.9.92,1.56,1.23.66.32,1.48.57,2.45.75.97.19,2.09.37,3.32.57,1.45.24,2.86.52,4.19.81,1.33.29,2.52.71,3.55,1.28,1.03.56,1.89,1.34,2.56,2.32.67.98,1.09,2.27,1.26,3.88Z"/>
          <path class="cls-6" d="M90.26,300.92c-5.31.73-7.97,1.06-13.31,1.66-.16-1.4-.23-2.1-.39-3.5,1.79-.2,2.68-.3,4.47-.52-1.12-9.33-1.68-14-2.8-23.33-1.7.2-2.56.3-4.26.49-.15-1.37-.23-2.06-.38-3.43,5.02-.56,7.53-.87,12.53-1.56.19,1.37.28,2.05.47,3.42-1.7.23-2.55.35-4.25.57,1.2,9.32,1.8,13.98,3,23.3,1.78-.23,2.67-.35,4.46-.59.19,1.4.29,2.09.48,3.49Z"/>
          <path class="cls-6" d="M115.64,296.79c-6.42-7.59-12.67-15.38-18.67-23.31,1.64,10.33,2.46,15.5,4.11,25.83-1.66.26-2.5.39-4.16.64-1.51-10.04-3.03-20.09-4.54-30.13,2.39-.36,3.58-.55,5.97-.94,6.58,8.63,9.99,12.89,17.03,21.29-1.79-9.41-2.68-14.11-4.47-23.51,1.56-.3,2.33-.45,3.89-.76,1.98,9.96,3.95,19.93,5.93,29.89-2.03.4-3.05.6-5.08.98Z"/>
          <path class="cls-6" d="M152.13,283.05c-.59,1.77-1.31,3.17-2.15,4.22-.84,1.05-1.9,1.94-3.19,2.69-1.29.75-2.88,1.35-4.76,1.81-4.76,1.15-8.59.66-11.41-1.42-2.82-2.08-4.76-5.73-5.87-10.93-1.1-5.18-.84-9.29.73-12.34,1.57-3.05,4.53-5.06,8.92-6.12,1.74-.42,3.34-.59,4.82-.51,1.47.08,2.78.37,3.91.87,1.14.5,2.27,1.32,3.41,2.46-1.09,1.2-1.64,1.8-2.75,3-.91-.89-1.76-1.52-2.55-1.9-.79-.38-1.68-.62-2.68-.71-.99-.09-2.09,0-3.31.3-3.02.73-5,2.23-5.98,4.53-.98,2.31-1.03,5.46-.14,9.48.88,3.96,2.26,6.78,4.18,8.46,1.91,1.68,4.51,2.15,7.75,1.36,1.79-.43,3.27-1.15,4.42-2.14s2.04-2.44,2.66-4.33c1.6.5,2.4.74,4.01,1.22Z"/>
          <path class="cls-6" d="M159.42,286.59c-2.73-9.78-5.46-19.57-8.19-29.35,7.25-2.02,10.85-3.1,18.01-5.4.45,1.4.67,2.1,1.12,3.5-5.64,1.81-8.47,2.67-14.16,4.31.98,3.42,1.48,5.13,2.46,8.55,4.95-1.42,7.42-2.17,12.33-3.72.45,1.41.67,2.12,1.11,3.53-4.95,1.56-7.43,2.31-12.42,3.75,1.16,4.04,1.74,6.06,2.91,10.09,5.95-1.71,8.92-2.62,14.82-4.51.45,1.41.68,2.11,1.13,3.52-7.61,2.44-11.43,3.58-19.13,5.73Z"/>
          <path class="cls-6" d="M196.8,274.64c-.58-1.62-.88-2.42-1.46-4.04,2.56-4.17,4.31-7.29,5.35-9.32,1.04-2.03,1.85-3.81,2.44-5.33.59-1.51.95-2.91,1.09-4.19.14-1.28-.04-2.54-.54-3.8-.56-1.4-1.48-2.34-2.76-2.82-1.28-.47-2.7-.41-4.27.2-1.49.57-2.58,1.35-3.28,2.35-.7,1-1.19,2.14-1.47,3.44-1.6-.34-2.4-.51-4-.86.39-2.08,1.23-3.79,2.52-5.13,1.29-1.35,2.99-2.42,5.1-3.23,2.78-1.07,5.23-1.26,7.4-.55,2.17.71,3.76,2.28,4.77,4.76.51,1.25.81,2.5.89,3.74.08,1.24-.07,2.52-.46,3.83-.39,1.31-.99,2.87-1.82,4.68-.83,1.81-2.82,5.53-6.14,11.1,6.32-2.35,9.46-3.58,15.7-6.14.56,1.37.84,2.05,1.4,3.42-8.11,3.33-12.2,4.9-20.44,7.88Z"/>
          <path class="cls-6" d="M237.91,240.97c2.35,4.91,3.22,8.94,2.55,12.1-.66,3.15-2.87,5.61-6.61,7.29-3.74,1.68-7.03,1.71-9.81.13-2.78-1.59-5.21-4.9-7.33-9.92-2.12-5.02-2.82-9.06-2.14-12.13.68-3.07,2.77-5.37,6.28-6.95,3.54-1.59,6.66-1.65,9.4-.14,2.75,1.51,5.31,4.71,7.66,9.62ZM233.86,242.89c-1.8-3.84-3.63-6.41-5.49-7.72-1.86-1.31-3.87-1.46-6.08-.47-2.18.98-3.39,2.59-3.64,4.87-.25,2.27.46,5.36,2.14,9.25,1.69,3.89,3.46,6.52,5.34,7.86,1.88,1.34,3.97,1.5,6.26.47,2.32-1.04,3.6-2.72,3.83-5.02.23-2.29-.56-5.37-2.37-9.24Z"/>
          <path class="cls-6" d="M250.08,251.95c-.76-1.54-1.14-2.31-1.9-3.85,2.09-4.43,3.49-7.73,4.31-9.87.81-2.14,1.42-4,1.85-5.57.42-1.57.63-3,.63-4.29,0-1.29-.32-2.53-.96-3.72-.71-1.33-1.73-2.16-3.06-2.49-1.33-.33-2.74-.1-4.24.68-1.42.74-2.43,1.64-3.01,2.71-.59,1.07-.95,2.27-1.08,3.58-1.63-.16-2.45-.24-4.08-.41.16-2.11.81-3.9,1.95-5.39s2.71-2.74,4.73-3.79c2.65-1.37,5.08-1.84,7.31-1.38,2.24.46,4,1.85,5.28,4.2.65,1.19,1.08,2.39,1.29,3.62.21,1.23.2,2.51-.04,3.86-.24,1.35-.67,2.97-1.3,4.86-.63,1.89-2.2,5.81-4.91,11.73,6.04-3.05,9.03-4.62,14.97-7.87.71,1.3,1.06,1.95,1.77,3.25-7.72,4.22-11.63,6.25-19.51,10.13Z"/>
          <path class="cls-6" d="M288.19,223.26c1.41,2.31,2.12,3.46,3.53,5.77-1.44.88-2.17,1.32-3.62,2.19-1.39-2.32-2.09-3.48-3.48-5.8-5.73,3.44-8.62,5.11-14.44,8.36-.76-1.37-1.14-2.05-1.91-3.42,1.99-10.17,2.85-15.25,4.29-25.36,1.3-.78,1.95-1.18,3.25-1.97,4.21,6.89,6.32,10.33,10.53,17.22,1.52-.93,2.28-1.4,3.79-2.34.75,1.2,1.12,1.79,1.86,2.99-1.52.95-2.29,1.42-3.81,2.36ZM275.4,210.07c-1.15,7.4-1.8,11.11-3.25,18.55,4.29-2.44,6.42-3.68,10.65-6.22-2.96-4.93-4.44-7.4-7.4-12.33Z"/>
        </g>
      </g>
      <g class="cls-13">
        <g>
          <path class="cls-6" d="M75.56,66.28c-3.65-9.42-5.48-14.13-9.13-23.55-.86,7.61-1.23,11.4-1.85,18.98-.96.39-1.43.59-2.39.98-5.73-4.97-8.65-7.42-14.57-12.25,4.01,9.27,6.02,13.91,10.03,23.18-1.43.62-2.14.93-3.56,1.56-4.11-9.29-8.21-18.58-12.32-27.87,2.14-.95,3.22-1.41,5.37-2.34,5.77,4.74,8.62,7.14,14.21,12.02.59-7.41.94-11.12,1.75-18.56,2.11-.83,3.17-1.23,5.28-2.04,3.6,9.5,7.2,19,10.8,28.49-1.45.55-2.18.83-3.63,1.39Z"/>
          <path class="cls-6" d="M84,63.09c-.17-10.78-.2-21.53-.09-32.31,2.12-.73,3.19-1.09,5.32-1.8,6.63,8.5,13.13,17.06,19.54,25.73-1.64.51-2.46.77-4.1,1.29-1.97-2.7-2.96-4.05-4.97-6.73-4.81,1.56-7.2,2.37-11.97,4.05.06,3.34.09,5.01.18,8.35-1.57.56-2.35.85-3.92,1.42ZM87.7,49.41c3.83-1.34,5.76-1.99,9.62-3.26-3.78-5.01-5.69-7.5-9.58-12.45-.08,6.29-.08,9.44-.04,15.71Z"/>
          <path class="cls-6" d="M131.07,32.64c.91,3.62,1.15,6.61.75,8.99-.4,2.37-1.45,4.3-3.14,5.8s-4.28,2.71-7.79,3.7c-2.99.84-4.48,1.28-7.45,2.17-2.91-9.73-5.82-19.46-8.73-29.2,3.12-.93,4.68-1.39,7.81-2.27,3.63-1.03,6.64-1.31,9.01-.88,2.37.43,4.32,1.6,5.87,3.49,1.55,1.89,2.76,4.63,3.66,8.2ZM126.76,33.7c-.73-2.81-1.63-4.93-2.7-6.35-1.07-1.42-2.46-2.29-4.16-2.6-1.7-.31-3.91-.09-6.6.67-1.38.39-2.06.59-3.44.99,2.58,8.87,3.86,13.31,6.44,22.18,1.31-.38,1.97-.57,3.29-.94,2.59-.73,4.51-1.64,5.74-2.74,1.23-1.1,1.97-2.52,2.2-4.28.24-1.75-.02-4.07-.77-6.94Z"/>
          <path class="cls-6" d="M141.22,45.84c-2.35-9.88-4.7-19.77-7.05-29.65,7.7-1.83,11.58-2.68,19.35-4.22.29,1.44.43,2.16.72,3.61-6.03,1.2-9.04,1.84-15.03,3.22.79,3.47,1.19,5.2,1.99,8.67,5.03-1.15,7.56-1.7,12.62-2.73.29,1.45.44,2.18.74,3.63-5.03,1.02-7.54,1.56-12.53,2.71.94,4.1,1.41,6.14,2.35,10.24,5.73-1.31,8.61-1.93,14.37-3.08.29,1.45.43,2.18.72,3.63-7.33,1.46-10.98,2.25-18.25,3.98Z"/>
        </g>
      </g>
    </g>
  </g>
</svg>