<?xml version="1.0" encoding="UTF-8"?>
<svg id="Calque_2" data-name="Calque 2" xmlns="http://www.w3.org/2000/svg" viewBox="0 0 261.5 47.58">
  <defs>
    <style>
      .cls-1 {
        fill: #000;
        stroke-width: 0px;
      }
    </style>
  </defs>
  <g id="Calque_1-2" data-name="Calque 1">
    <path class="cls-1" d="M112.5,45.17c-6.63-13.92-13.85-29.58-20.49-43.49-.26-.55-.79-.95-1.33-1.59-7.54,15.83-11.75,24.16-19.21,39.81,3.29.25,3.76-.8,4.14-1.53,1.91-4.02.64-.86,2.59-4.85.47-.95.92-1.98,2.23-1.98,6.96.03,13.91-.03,20.87.08.71.01,1.71.78,2.07,1.51,2.15,4.27,4.18,8.62,6.2,12.96.48,1.03,1.09,1.41,2.15,1.4.36,0,1.39-.58,1.09-1.6M81.04,27.7c3.28-6.89,6.38-13.41,9.63-20.24.53.61,1.06,1.01,1.32,1.55,2.78,5.77,5.52,11.56,8.25,17.35.16.34.19.75.33,1.33h-19.54ZM71.47,39.9c3.23.25,3.76-.8,4.14-1.53,1.91-4.02.64-.86,2.59-4.85"/>
    <path class="cls-1" d="M157.36,14.5c0,3.42.05,6.84,0,10.26-.18,9.98-8.49,18.28-17.04,20.55-10.63,2.82-22.54-2.55-27-13.29-1.19-2.85-1.59-6.17-1.71-9.3-.25-6.78-.11-13.57-.03-20.35,0-.7.58-1.76,1.16-2.02,1.44-.63,2.26.12,2.27,1.84.02,6.55-.05,13.1.07,19.65.04,2.21.58,4.41.84,6.62.19,1.63,1.24,1.92,2.63,1.92,7.37-.02,14.74,0,22.12,0,3.3,0,6.61-.03,9.91,0,1.56.02,2.34-.64,2.64-2.21.86-4.45.91-4.44-3.57-4.44-3.42,0-6.84-.02-10.26,0-1.28.01-1.98-.37-1.99-1.81-.01-1.47.82-1.59,1.94-1.59,4.19.02,8.37-.02,12.56.04,1.54.02,2.2-.43,2.17-2.12-.09-5.25-.02-10.5-.02-15.75,0-1.18,0-2.28,1.68-2.29,1.65-.01,1.75,1.03,1.74,2.24,0,4.01,0,8.02,0,12.04-.04,0-.07,0-.11,0ZM118.86,33.97c2.39,4.44,9.17,8.7,16.03,8.42,6.43-.26,11.4-3.01,15.54-8.42h-31.58Z"/>
    <path class="cls-1" d="M234.16.53c-.27-.05-.55-.1-.82-.15-8.74,14.7-26.14,43.34-26.32,44.23s1.05,2.3,1.99,2.34,1.78-1.46,3.17-3.85c.15-.26.4-.49.51-.76.47-1.12,1.38-1.41,2.69-1.4,5.27.05,10.55,0,15.82.04,1.34,0,2.19-.18,2.17-1.62-.02-1.37-.73-1.71-2.13-1.7-4.19.04-8.39.02-12.58,0-.77,0-1.54-.12-2.9-.23,1.15-2.04,2.01-3.81,3.14-5.43.4-.56,1.46-1.08,2.23-1.09,8.25-.08,16.5-.04,24.75-.05,1.33-.01,2.25.35,2.9,1.49,2.53,4.42,5.15,8.79,7.76,13.16,1.11,1.84,2.23,2.1,4.96,1.15-9.12-15.39-18.23-30.76-27.34-46.13ZM221.56,27.36c4.05-6.77,7.93-13.24,11.81-19.72.24.03.49.07.73.1,3.82,6.41,7.63,12.82,11.67,19.62h-24.21Z"/>
    <path class="cls-1" d="M203.76.43v46.79c-1.71.46-2.95.26-4.18-1.22-10.5-12.65-21.08-25.23-31.64-37.83-.36-.43-.76-.83-1.48-1.61v40.73h-3.57c-.03-.68-.08-1.31-.08-1.93,0-14.34,0-28.68.05-43.02,0-.7.29-1.91.67-2,1.07-.28,2.22-.38,3.16.77,4.98,6.05,10.04,12.04,15.07,18.06,5.63,6.73,11.25,13.47,16.89,20.2.37.44.77.85,1.51,1.66.07-1.06.14-1.7.14-2.34,0-11.88-.01-23.76-.03-35.64,0-3.14.07-3.2,3.49-2.61Z"/>
    <path class="cls-1" d="M95.78,47.19l-35.07.39c-1.02,0-1.87-.69-1.96-1.58-.04-.34-.06-.69-.06-1.03,0-14.08,0-28.16.04-42.24,0-.83.17-2.13.75-2.38,1.35-.57,3.06-.63,3.11,1.35.06,2.42.04,4.84.04,7.26,0,10.76.07,21.53-.05,32.29-.03,2.44,3.3,2.8,5.29,2.8,2.95,0,23.74-.43,26.69-.55,1.64-.06,3.45.71,3.73,1.59.33,1.04-1.28,2.1-2.51,2.1Z"/>
    <path class="cls-1" d="M27.16.91c-.27-.05-.55-.1-.82-.15C17.59,15.45.2,44.1.02,44.99s1.05,2.3,1.99,2.34,1.78-1.46,3.17-3.85c.15-.26.4-.49.51-.76.47-1.12,1.38-1.41,2.69-1.4,5.27.05,10.55,0,15.82.04,1.34,0,2.19-.18,2.17-1.62-.02-1.37-.73-1.71-2.13-1.7-4.19.04-8.39.02-12.58,0-.77,0-1.54-.12-2.9-.23,1.15-2.04,2.01-3.81,3.14-5.43.4-.56,1.46-1.08,2.23-1.09,8.25-.08,16.5-.04,24.75-.05,1.33-.01,2.25.35,2.9,1.49,2.53,4.42,5.15,8.79,7.76,13.16,1.11,1.84,2.23,2.1,4.96,1.15C45.38,31.65,36.27,16.28,27.16.91ZM14.56,27.74c4.05-6.77,7.93-13.24,11.81-19.72.24.03.49.07.73.1,3.82,6.41,7.63,12.82,11.67,19.62H14.56Z"/>
  </g>
</svg>