<?xml version="1.0" encoding="UTF-8"?>
<svg id="Calque_2" data-name="Calque 2" xmlns="http://www.w3.org/2000/svg" viewBox="0 0 160.41 107.56">
  <defs>
    <style>
      .cls-1 {
        fill: #000;
        stroke-width: 0px;
      }
    </style>
  </defs>
  <g id="Calque_1-2" data-name="Calque 1">
    <path class="cls-1" d="M104.7,1.67c1.7-2.47,4.23-1.48,6.41-1.42,2.67.07,5.32.67,7.97,1.03,6.11.84,11.73,3.19,16.85,6.44,3.76,2.39,7.23,5.38,10.39,8.55,6.3,6.33,10.62,13.92,12.39,22.74.89,4.44,1.77,8.99,1.7,13.48-.1,6.3-1.31,12.48-3.71,18.48-3.04,7.58-7.53,14.05-13.57,19.36-5.09,4.48-10.86,7.95-17.45,9.98-5.26,1.63-10.57,2.31-16.08,2.52-3.25.13-6.43,1.71-9.66,2.58-2.77.74-5.56,1.4-8.35,2.07-.33.08-.76.11-1.04-.03-1.98-.99-3.98-1.09-6.14-.6-2.84.64-5.28-.7-7.7-1.96-3.55-1.83-7-3.92-10.72-5.3-5.24-1.94-10.61-1.6-15.66.97-2.57,1.31-5,2.88-7.47,4.38-1.79,1.09-4.11,1.04-5.86-.21-.56-.4-1.1-.82-1.79-1.33.26-.37.44-.9.79-1.08,4.61-2.33,9.12-4.9,13.9-6.83,4.21-1.7,8.64-2.27,13.35-1.39,5.84,1.09,10.81,3.85,15.93,6.56,4.84,2.56,10.02,2.92,15.8,1.05-.89-.6-1.41-1.05-2.01-1.35-3.71-1.86-7.44-3.67-11.14-5.53-4.21-2.11-8.33-4.41-12.62-6.33-6.45-2.89-13.04-3.12-19.49.06-2.59,1.28-4.93,3.07-7.52,4.34-2.99,1.47-6.14,2.59-9.59,1.84-.6-2.27.95-4.03,4.16-4.6,1.17-.21,2.38-.18,3.56-.33.29-.04.65-.32.8-.59,2.21-3.91,6.04-5.43,10.04-6.22,3.98-.78,8.09-.96,12.15-1.23,1.25-.09,2.55.38,3.88.59-1.19-6.7-5.67-9.14-11.98-8.12-5.34.87-8.83,4.69-13.43,6.55-2.51,1.01-5.23,1.75-7.92,2.03-3.35.35-4.13-.78-3.87-4.61.7-.03,1.45-.17,2.17-.08,3.39.4,6.3-1.01,8.96-2.73,4.7-3.03,9.87-4.82,15.2-6.18,1.3-.33,2.83.22,4.44.38-.52-1.85-.99-3.66-1.53-5.46-.68-2.27-1.89-2.96-4.01-2.02-3.64,1.62-7.2,3.41-10.79,5.13-5.64,2.72-11.57,4.29-17.84,3.61-4.78-.52-9.03-2.74-13.31-4.84-2.76-1.35-5.75-2.24-8.52-3.56-1.64-.78-3.06-2.02-4.76-3.18,2.32-2.16,4.19-2.25,6.59-1.24,5.43,2.28,11,4.22,16.52,6.3,1.86.7,3.84,1.21,5.55,2.19,1.99,1.14,3.69.65,5.48-.18,6.25-2.9,12.5-5.82,18.76-8.7,1.44-.66,2.91-1.24,4.42-1.89v-5.55c-3.84-1.23-6.77.87-9.66,2.65-5.18,3.19-10.46,5.63-16.78,5.53-4.92-.07-9.66-.33-14.01-2.96-1.05-.64-1.77-1.14-1.15-2.41.62-1.27,1.53-2.17,3.08-1.77,3.5.91,6.95,2.15,10.5,2.73,1.87.31,4.07-.1,5.87-.81,3.82-1.51,7.49-3.38,11.18-5.2,1.22-.6,2.18-.84,3.11.71,1.53-2.53,3.77-3.45,6.52-3.82,1.53-.21,2.29-1.54,2.78-3.38,1.09-4.13,2.64-8.19,4.49-12.04,1.63-3.39,3.94-6.45,5.94-9.66,2.95-4.73,7.07-8.23,11.66-11.32,4.53-3.05,9.61-4.74,14.69-6.41,2.06-.68,4.27-1.02,6.44-1.27.8-.09,1.67.54,2.72.91ZM115.09,47.93c-1.16.75-2,1.47-2.97,1.89-3.26,1.42-6.62,2.64-9.86,4.11-3.89,1.77-7.63,3.79-12.11,3.81-3.77,0-7.43-.22-10.98-1.7-.61-.25-1.73.59-2.55,1.04-.37.2-.57.7-1.01,1.28-1.41-4.21-4.01-6.76-7.98-8.25-4.94-1.85-4.87-2.05-4.81,3.24.03,2.37.7,4.33,3.31,5.06,1.05.29,2.1.64,3.09,1.09,3.26,1.5,6.94,1.97,9.7,4.79,1.32,1.34,3.66,2.09,5.62,2.29,3.41.36,6.89.1,10.19.1-.08.06-.35.42-.7.53-3.11,1.05-6.27,1.99-9.35,3.14-.62.23-1.44,1.31-1.34,1.85.72,4.03,6.79,7.32,10.79,6.15,1.82-.53,3.77-.62,5.91-.95-1.4,4.04-3.4,5.56-6.9,5.46-1.51-.05-3-.49-4.51-.54-4.87-.18-9.52-1.1-13.8-3.59-.75-.44-1.72-.5-2.81-.8,1.78,5.63,9.69,12.85,14.57,13.32,5.66.54,11.06-.08,15.35-4.74-1.04-1.15-1.99-2.19-3.35-3.69,5.83.32,11.1,1.71,16.27-.29.35,1.97-.49,2.79-2.1,3.45-3.63,1.49-7.2,3.14-10.72,4.88-2.37,1.18-4.59,2.63-7,4.03.33.39.49.73.76.9,3.51,2.16,7.38,1.8,11.14,1.28,2.75-.38,5.46-1.28,8.07-2.27,1.3-.49,1.98-.17,2.63.73.87,1.2,2.11,1.52,3.35,1.1,2.85-.98,5.7-2,8.42-3.29,6.41-3.04,11.75-7.41,16.14-13.05,3.35-4.31,5.98-9.02,7.62-14.12,1.77-5.51,2.53-11.26,2.05-17.19-.31-3.88-.55-7.76-1.96-11.35-1.68-4.26-3.49-8.56-5.92-12.42-2.37-3.76-5.18-7.38-9.07-9.87-2.89-1.85-5.62-4.11-8.74-5.43-4.26-1.81-8.59-3.8-13.39-3.83-5.6-.03-11.28-.54-16.78.22-5.19.72-10.12,2.96-14.63,5.87-4.56,2.95-8.64,6.44-11.96,10.71-3.99,5.13-7.11,10.76-8.87,17.09-.85,3.07-.39,4.59,2.37,5.94,2.16,1.06,4.42,1.93,6.57,3.02,1.44.73,1.85-.09,1.92-1.16.29-4.59,1.96-8.7,4.17-12.64.73-1.3,1.66-2.48,2.49-3.72.15.1.29.2.44.3-1.78,5.3-3.57,10.59-5.33,15.89-.86,2.59-.41,3.7,2.22,4.84,6.72,2.89,13.46,3.27,20.13-.16,3.13-1.61,6.23-3.28,9.32-4.96,2.28-1.24,4.39-.76,6.86.64ZM64.39,62.16c.07.67.08,1.35.23,2,.72,3.14,1.59,6.25,4.88,7.69,3.02,1.32,5.67,3.05,7.94,5.5,1.99,2.15,5.81,2.23,7.94.5-3.49-8.2-15.27-16.37-20.98-15.69Z"/>
    <path class="cls-1" d="M33.99,104.11c.1,2.14-2.26,3.66-3.68,2.99-1.33-.63-2.41-.93-4.12-.46-1.9.52-4.4-.14-6.35-.97-3.41-1.44-6.52-3.56-9.9-5.07-2.22-.99-4.72-1.32-7.03-2.15-.84-.3-1.58-1.11-2.15-1.85-.2-.26.11-1.24.47-1.51.77-.56,1.74-1.22,2.59-1.18,1.54.07,3.1.5,4.56,1.02,1.38.49,2.79,1.13,3.94,2.02,1.06.83,1.94,1.53,3.42,1.66,1.19.11,2.32,1.08,3.44,1.73,3.87,2.25,7.98,3.35,12.49,3.01.82-.06,1.69.54,2.31.75Z"/>
    <path class="cls-1" d="M28.82,83.2c-2.79-.47-5.24-.55-7.43-1.34-3.28-1.18-6.34-2.93-9.55-4.33-2.51-1.1-5.14-1.94-7.63-3.09-1.43-.66-2.67-1.72-4.14-2.69,3.39-3.21,6.8-2.3,9.89-1.08,3.22,1.27,6.19,3.21,9.23,4.91,1.62.9,3.15,1.99,4.79,2.84.4.21,1.16-.1,1.68-.33.98-.43,1.52-.32,1.79.85.27,1.19.73,2.34,1.36,4.28Z"/>
    <path class="cls-1" d="M21.39,94.79c-.26-.88-.52-1.77-.82-2.81-3.5,1.35-5.93-.69-8.2-2.93-1.37-1.35-2.85-2.03-4.81-2.02-1.49.01-3.07-.21-4.45-.74-1.05-.4-1.84-1.46-2.59-2.09,1.9-3.99,4.75-2.08,7.1-1.61,5.12,1.04,9.56,3.78,14.01,6.37,1.13.65,2.3,1.47,1.19,3.17-.49.76-.62,1.75-.92,2.64-.16,0-.33.01-.49.02Z"/>
    <path class="cls-1" d="M.22,45.14c5.1-.2,10,.18,14.36,3.42,1.5,1.11.75,1.91.31,2.96-.44,1.03-.78,1.44-2.16.94-2.94-1.09-6.05-1.74-9.08-2.58C1.35,49.24,0,47.41.22,45.14Z"/>
    <path class="cls-1" d="M27.22,95.56c-1.15-.43-2.07-.7-2.92-1.11-1.32-.63-1.42-1.72-.18-2.42,1.3-.73,2.7-1.29,4.06-1.92.2.09.4.19.6.28-.5,1.65-1,3.3-1.56,5.17Z"/>
    <path class="cls-1" d="M140.45,40.04c.51.52,1.14.96,1.5,1.56,3.13,5.22,2.98,10.87,1.81,16.52-.66,3.2-1.52,6.47-2.96,9.37-3,6.05-7.28,11.11-13.44,14.25-2.12,1.08-4.28,2.14-6.51,2.96-2.81,1.03-2.85.92-4.06-2.11,9.83-1.49,16.15-7.57,20.98-15.79,4.97-8.46,4.12-17.29,2.13-26.27.18-.16.37-.32.55-.49Z"/>
    <path class="cls-1" d="M96.55,19.83c1.27-2.58,3.69-2.52,5.62-2.85,3.19-.54,6.52-.95,9.71-.62,7.12.73,13.95,2.58,19.19,7.94,2.67,2.73,5.37,5.47,7.74,8.46.98,1.24,1.16,3.13,1.62,4.75.06.21-.3.73-.53.77-.33.06-.89-.06-1.07-.3-.68-.94-1.24-1.97-1.87-2.94-4.86-7.43-11.4-12.83-20.04-15-5.51-1.39-11.26-1.29-16.93-.25-1.05.19-2.16.03-3.44.03Z"/>
    <path class="cls-1" d="M118.56,59.45c-.81,2.04-2.52,2.16-4.06,1.74-1.15-.32-1.75-.12-2.74.46-4.16,2.43-8.43,4.68-12.71,6.9-.59.31-1.47.05-2.22.05.09-.74-.03-1.58.29-2.2,1.55-3,4.52-4.36,7.31-5.72,2.99-1.46,6.2-2.53,9.39-3.53,2.03-.64,3.65.31,4.74,2.29Z"/>
    <path class="cls-1" d="M103.36,77.43q-1.03-2.85,1.65-4.2c2.11-1.06,4.12-2.45,6.35-3.12,1.87-.56,3.98-.37,5.99-.33.41,0,1.02.74,1.15,1.23.12.48-.12,1.47-.44,1.59-4.47,1.7-8.98,3.3-13.49,4.88-.36.13-.82-.03-1.21-.05Z"/>
    <path class="cls-1" d="M94.71,19.21c.59.86,1.05,1.54,1.71,2.52-2.93,1.55-5.82,3.13-8.76,4.58-.32.16-1.22-.22-1.42-.59-.2-.37-.03-1.31.29-1.52,2.65-1.71,5.37-3.3,8.17-5Z"/>
  </g>
</svg>