<?xml version="1.0" encoding="UTF-8"?>
<svg id="Calque_2" data-name="Calque 2" xmlns="http://www.w3.org/2000/svg" viewBox="0 0 151.22 109.36">
  <defs>
    <style>
      .cls-1 {
        font-family: ClearSans, 'Clear Sans';
        font-size: 16.29px;
      }

      .cls-1, .cls-2 {
        fill: #1d1d1b;
      }

      .cls-3, .cls-2 {
        stroke-width: 0px;
      }

      .cls-4 {
        letter-spacing: -.02em;
      }
    </style>
  </defs>
  <g id="MadeSince">
    <g id="MadeSince-2" data-name="MadeSince">
      <text class="cls-1" transform="translate(33.86 49.69)"><tspan x="0" y="0">BRASSERIE </tspan><tspan x="11.58" y="22.4">AL</tspan><tspan class="cls-4" x="30.08" y="22.4">A</tspan><tspan x="40" y="22.4">UNA</tspan></text>
      <path class="cls-3" d="M.12,54.37c0-10.97.06-21.93-.05-32.9-.02-2.29.65-3.64,2.73-4.8C14.93,9.9,27.89,5.74,41.47,2.98,57.13-.22,72.92-.58,88.68.67c21.35,1.7,41.73,7.06,59.95,19.01,1.97,1.29,2.59,2.75,2.59,5.01-.07,19.9-.09,39.79,0,59.69.01,2.55-.77,4.08-2.95,5.49-11.7,7.56-24.5,12.25-37.98,15.44-16.1,3.81-32.43,4.71-48.81,3.62-20.19-1.35-39.65-5.87-57.62-15.66C1.23,91.84-.06,90.17,0,86.93c.22-10.85.08-21.71.08-32.56.01,0,.02,0,.04,0ZM3.22,54.53s.01,0,.02,0c0,10.18.11,20.35-.07,30.53-.06,3.15,1.03,4.92,3.8,6.36,19.33,10.06,40.14,14.04,61.65,14.86,15.19.58,30.19-1.22,44.96-4.98,11.46-2.92,22.29-7.18,32.28-13.56,1.83-1.17,2.52-2.48,2.51-4.68-.09-18.54-.17-37.09.02-55.63.04-3.35-1.2-5.15-3.84-6.75-18.8-11.42-39.59-15.99-61.16-17.34-12.97-.82-25.92-.11-38.8,2.22-13.31,2.4-25.99,6.37-38.03,12.52-2.39,1.22-3.42,2.82-3.39,5.59.14,10.29.05,20.58.05,30.87Z"/>
      <path class="cls-3" d="M131.5,54.91c0,6.44-.06,12.88.04,19.32.03,1.96-.68,3.09-2.42,3.93-10.35,5.01-21.24,8.64-32.62,9.62-12.67,1.09-25.49,1.6-38.18,1.02-12.5-.57-24.74-3.61-36.29-8.76-.95-.42-2.01-1.91-2.02-2.91-.13-15.03-.14-30.07,0-45.1,0-.97,1.2-2.49,2.16-2.82,6.48-2.22,12.92-4.85,19.61-6.07,9.4-1.72,19-3.15,28.52-3.2,10.55-.06,21.25.77,31.61,2.68,8.99,1.65,17.6,5.35,26.37,8.15,2.35.75,3.32,2.23,3.26,4.81-.16,6.44-.05,12.89-.05,19.33,0,0,.01,0,.02,0ZM129.64,54.7s.01,0,.02,0c0-5.99-.08-11.98.04-17.97.05-2.27-.8-3.57-2.86-4.38-2.09-.81-4.04-1.99-6.14-2.73-13.29-4.68-27-7.5-41.07-7.7-9.35-.13-18.81.13-28.03,1.49-8.86,1.31-17.49,4.21-26.18,6.56-1.98.53-3.4,1.59-3.37,4.29.15,13.56.06,27.13.02,40.69,0,2,.53,3.18,2.66,4.05,12.48,5.09,25.55,7.56,38.86,8.22,9.43.46,18.98.02,28.39-.86,12.06-1.13,23.71-4.3,34.79-9.35,2.05-.93,3.02-2.23,2.94-4.67-.19-5.87-.06-11.75-.06-17.63Z"/>
      <path class="cls-3" d="M133.75,56.49c3.01-1.53,6.25-2.86,6.15-7.39.82,4.17,3.37,6.23,7.08,7.84-3.84-.42-7.16-.62-5.66,5.21-.52-.16-1.03-.31-1.55-.47-.37-1.51-.75-3.02-1.17-4.76-1.47.13-2.97.26-4.46.4l-.4-.82Z"/>
      <path class="cls-3" d="M11.26,48.84c.08,4.74,3.58,6.02,6.75,8.18-3.36.04-7.58-1.07-5.41,4.6q-1.49-.29-2.59-4.82c-1.67.2-3.36.41-5.05.62,2.34-2.7,6.99-3.17,6.3-8.58Z"/>
      <g>
        <path class="cls-2" d="M35.41,96.6c-.21,1.01-.72,1.72-1.55,2.12-.83.4-1.93.45-3.3.14-1.04-.24-1.87-.62-2.48-1.13-.61-.51-1.04-1.18-1.29-2.01.57-.18.86-.27,1.43-.46.38,1.22,1.25,2.01,2.61,2.32.81.19,1.49.17,2.03-.04.54-.22.87-.6.99-1.16.07-.32.05-.6-.05-.85-.1-.25-.25-.48-.46-.68-.21-.2-.46-.38-.75-.54-.29-.16-.59-.32-.91-.48-.52-.26-1.01-.51-1.45-.76-.44-.25-.81-.53-1.1-.83-.29-.3-.5-.65-.61-1.03-.11-.39-.1-.84.03-1.37.24-.95.75-1.61,1.51-2.01.76-.4,1.75-.45,2.99-.16.99.23,1.73.58,2.24,1.07.51.49.88,1.05,1.11,1.69-.54.23-.81.34-1.35.56-.19-.53-.46-.97-.81-1.31-.35-.35-.85-.59-1.49-.74-.71-.17-1.3-.15-1.77.07-.47.21-.77.57-.9,1.09-.07.27-.06.52.01.73.07.21.21.41.4.59.19.18.45.36.76.53.31.17.68.36,1.08.56.47.24.93.49,1.36.73.43.24.79.52,1.08.83.29.31.5.67.63,1.08.12.41.13.9,0,1.47Z"/>
        <path class="cls-2" d="M41.38,100.8c-1.91-.33-2.86-.5-4.76-.88.1-.5.15-.75.25-1.25.64.13.96.19,1.59.31.63-3.34.94-5,1.57-8.34-.61-.12-.91-.17-1.52-.29.1-.49.15-.73.24-1.22,1.79.35,2.69.52,4.49.83-.08.49-.13.74-.21,1.23-.61-.1-.92-.16-1.53-.27-.6,3.34-.9,5.01-1.51,8.35.64.12.96.17,1.6.28-.09.5-.13.75-.21,1.25Z"/>
        <path class="cls-2" d="M50.57,102.14c-1.67-4.01-2.44-6.02-3.89-10.06-.56,3.74-.84,5.61-1.4,9.35-.6-.09-.9-.14-1.5-.23.69-4.35,1.03-6.52,1.72-10.87.86.14,1.29.2,2.16.33,1.33,3.69,2.04,5.53,3.55,9.19.41-3.43.61-5.15,1.02-8.59.57.07.85.1,1.42.16-.49,4.38-.73,6.56-1.21,10.94-.74-.08-1.11-.13-1.86-.22Z"/>
        <path class="cls-2" d="M64.64,101.38c-.4.54-.8.95-1.2,1.22-.4.27-.87.46-1.39.58-.53.12-1.14.15-1.84.11-1.77-.12-3.03-.71-3.78-1.73-.75-1.02-1.02-2.49-.83-4.4.18-1.91.72-3.29,1.59-4.17.87-.88,2.11-1.25,3.74-1.14.65.04,1.22.16,1.71.35.5.19.92.43,1.25.73.34.3.64.7.91,1.22-.51.29-.76.44-1.27.73-.22-.4-.44-.72-.67-.93-.23-.22-.51-.4-.84-.54-.33-.14-.72-.23-1.17-.26-1.12-.08-1.97.22-2.55.91-.59.69-.95,1.77-1.08,3.25-.13,1.46.04,2.58.52,3.37.48.79,1.32,1.23,2.52,1.31.67.05,1.25-.04,1.76-.26.5-.22.97-.62,1.39-1.2.5.34.75.52,1.25.86Z"/>
        <path class="cls-2" d="M66.77,103.4c.15-4.4.23-6.6.38-11,2.72.09,4.07.11,6.79.1,0,.53,0,.8,0,1.33-2.14,0-3.21,0-5.35-.06-.03,1.28-.05,1.93-.08,3.21,1.86.05,2.79.06,4.65.06,0,.53,0,.8,0,1.34-1.87,0-2.81-.01-4.69-.06-.04,1.52-.06,2.28-.1,3.79,2.24.06,3.36.07,5.59.06,0,.53,0,.8,0,1.34-2.88.01-4.33-.01-7.21-.11Z"/>
        <path class="cls-2" d="M80.94,103.35c-.03-.62-.04-.93-.06-1.55,1.34-1.16,2.28-2.04,2.86-2.63.58-.59,1.05-1.11,1.42-1.57.37-.46.65-.9.83-1.32.19-.43.26-.88.23-1.37-.04-.54-.25-.97-.64-1.27-.39-.3-.89-.43-1.49-.4-.58.03-1.04.18-1.39.45-.35.27-.64.61-.88,1.02-.52-.29-.77-.44-1.28-.73.36-.67.84-1.17,1.43-1.49.59-.32,1.29-.51,2.11-.56,1.07-.07,1.94.14,2.61.62.67.48,1.05,1.2,1.12,2.16.04.49,0,.95-.1,1.38-.11.44-.3.86-.58,1.27-.28.41-.65.88-1.14,1.41-.48.53-1.57,1.6-3.33,3.15,2.43-.12,3.65-.2,6.08-.4.04.53.07.8.11,1.33-3.16.26-4.74.36-7.9.49Z"/>
        <path class="cls-2" d="M98.77,96.23c.27,1.95.13,3.43-.44,4.44-.57,1.01-1.6,1.62-3.07,1.79-1.47.17-2.61-.18-3.39-1.02-.78-.85-1.26-2.26-1.44-4.22-.18-1.96.02-3.43.58-4.41.57-.98,1.54-1.55,2.92-1.71,1.39-.16,2.47.16,3.25.98.78.82,1.32,2.2,1.59,4.15ZM97.16,96.45c-.2-1.52-.55-2.6-1.05-3.26-.5-.65-1.18-.92-2.04-.82-.86.1-1.45.52-1.78,1.28-.33.76-.43,1.89-.27,3.42.16,1.52.48,2.62.98,3.29.5.67,1.21.95,2.11.85.91-.11,1.54-.55,1.87-1.31.33-.76.39-1.91.19-3.44Z"/>
        <path class="cls-2" d="M101.76,101.34c-.09-.61-.14-.92-.23-1.53,1.2-1.3,2.04-2.28,2.56-2.93s.93-1.22,1.24-1.72c.32-.5.54-.97.68-1.41.14-.44.16-.91.08-1.38-.1-.54-.36-.93-.78-1.19-.42-.26-.93-.33-1.53-.23-.57.1-1.01.3-1.33.6-.32.31-.57.68-.76,1.12-.55-.23-.82-.35-1.36-.58.29-.71.7-1.26,1.26-1.64.55-.39,1.23-.65,2.04-.79,1.06-.18,1.95-.08,2.67.32.72.4,1.18,1.07,1.36,2.02.09.48.11.94.05,1.39-.06.45-.2.89-.43,1.33-.23.44-.56.95-.98,1.53-.42.58-1.39,1.76-2.97,3.5,2.41-.39,3.61-.61,6.01-1.08.1.52.15.79.26,1.31-3.12.61-4.68.88-7.82,1.36Z"/>
        <path class="cls-2" d="M118.01,95.61c.23.95.35,1.42.59,2.37-.59.15-.89.22-1.48.36-.23-.95-.34-1.43-.57-2.38-2.35.56-3.52.82-5.88,1.31-.11-.55-.17-.83-.28-1.39,1.79-3.29,2.64-4.94,4.24-8.27.53-.13.8-.19,1.34-.33.7,2.83,1.05,4.25,1.75,7.08.62-.15.94-.23,1.56-.39.13.49.19.74.32,1.23-.63.16-.94.24-1.57.4ZM115.05,89.67c-1.2,2.42-1.83,3.63-3.14,6.04,1.74-.37,2.61-.57,4.35-.98-.48-2.02-.72-3.03-1.21-5.05Z"/>
      </g>
      <g>
        <path class="cls-2" d="M61.88,18.38c-.23-3.64-.35-5.46-.58-9.1-1.12,2.53-1.66,3.79-2.7,6.34-.37.03-.56.05-.93.08-1.43-2.34-2.17-3.5-3.68-5.8.37,3.63.56,5.45.93,9.08-.56.06-.84.09-1.4.15-.48-4.38-.72-6.57-1.21-10.94.84-.09,1.26-.14,2.1-.22,1.47,2.26,2.19,3.4,3.59,5.69,1.01-2.49,1.53-3.73,2.62-6.2.82-.05,1.22-.08,2.04-.13.25,4.4.37,6.59.62,10.99-.56.03-.84.05-1.4.08Z"/>
        <path class="cls-2" d="M65.13,18.2c1.3-4.47,2-6.7,3.49-11.14.81-.02,1.22-.03,2.03-.04,1.66,4.38,2.45,6.58,3.93,10.99-.62,0-.93,0-1.55,0-.39-1.14-.58-1.72-.98-2.86-1.83.01-2.74.03-4.56.09-.34,1.16-.51,1.74-.85,2.89-.6.02-.9.04-1.5.06ZM67.9,13.89c1.47-.04,2.2-.06,3.67-.07-.76-2.14-1.14-3.2-1.94-5.33-.71,2.16-1.06,3.24-1.73,5.41Z"/>
        <path class="cls-2" d="M84.66,12.84c-.08,1.34-.32,2.4-.72,3.18-.4.77-.97,1.32-1.71,1.65-.74.33-1.77.47-3.09.43-1.12-.03-1.68-.05-2.8-.07.07-4.4.1-6.6.17-11.01,1.18.02,1.76.03,2.94.07,1.36.04,2.43.27,3.2.68.77.41,1.32,1.02,1.64,1.84.33.82.45,1.9.37,3.22ZM83.06,12.73c.05-1.05-.02-1.88-.24-2.48-.21-.61-.6-1.06-1.15-1.35-.55-.29-1.34-.46-2.35-.49-.52-.02-.77-.02-1.29-.04-.08,3.34-.12,5.01-.2,8.34.49.01.74.02,1.24.03.97.03,1.73-.07,2.28-.32.54-.24.95-.65,1.22-1.23.27-.58.44-1.4.49-2.47Z"/>
        <path class="cls-2" d="M86.72,18.49c.32-4.39.48-6.59.8-10.98,2.85.21,4.28.34,7.12.65-.06.53-.09.79-.15,1.32-2.21-.24-3.31-.35-5.53-.53-.1,1.28-.16,1.92-.26,3.2,1.86.15,2.79.24,4.65.43-.06.53-.08.8-.14,1.33-1.84-.2-2.77-.28-4.61-.43-.12,1.51-.18,2.27-.31,3.78,2.12.17,3.17.27,5.29.51-.06.53-.09.8-.15,1.33-2.68-.3-4.03-.42-6.72-.62Z"/>
      </g>
    </g>
  </g>
</svg>