<?xml version="1.0" encoding="UTF-8"?>
<svg id="Calque_2" data-name="Calque 2" xmlns="http://www.w3.org/2000/svg" viewBox="0 0 429.45 179.35">
  <defs>
    <style>
      .cls-1 {
        fill: #adb4bc;
      }

      .cls-1, .cls-2, .cls-3 {
        stroke-width: 0px;
      }

      .cls-4 {
        stroke: #1d1d1b;
        stroke-width: .25px;
      }

      .cls-4, .cls-5, .cls-6 {
        fill: none;
      }

      .cls-4, .cls-5, .cls-6, .cls-7, .cls-8 {
        stroke-miterlimit: 10;
      }

      .cls-2 {
        fill: #d01a1f;
      }

      .cls-5, .cls-7 {
        stroke: #f3942c;
      }

      .cls-9 {
        opacity: .5;
      }

      .cls-10 {
        fill: #f3942c;
        font-family: ClearSans, 'Clear Sans';
        font-size: 26.08px;
      }

      .cls-6 {
        stroke: #e2925b;
      }

      .cls-7, .cls-8 {
        fill: #fcf6de;
      }

      .cls-11 {
        letter-spacing: -.04em;
      }

      .cls-8 {
        stroke: #000;
        stroke-width: .75px;
      }

      .cls-12 {
        letter-spacing: -.02em;
      }
    </style>
  </defs>
  <g id="Calque_3" data-name="Calque 3">
    <g id="TamponNevada">
      <rect class="cls-6" x="272.62" y="19.04" width="134.73" height="141.27" rx="5.54" ry="5.54"/>
      <g>
        <path class="cls-8" d="M421.84,79.18c.21-3.76,3.1-5.5,7.09-6.39v-6.16c-7.28-2.77-9.19-6.67-5.3-10.65,1.57-1.16,3.15-2.32,5.28-3.89v-5.07c-1.74-1.12-3.15-2.03-4.56-2.94l.14.11c-5.11-3.53-3.27-8.33,4.47-11.48v-6.03c-4.2-1.08-7.39-3-7.1-7.29.26-3.78,3.17-5.46,7.05-6.36l-2.4-5.23c-1.27-2.36-2.36-4.43-4.53-6.19-.92-.74-2.51-1.25-3.77-1.23-1.26.02-3.23.59-3.61,1.37-1.46,2.99-3.82,4.66-7.57,4.64-3.74-.03-6.08-1.71-7.48-4.73-.35-.75-2.41-1.28-3.67-1.27-1.25.01-3.24.57-3.62,1.35-1.45,2.99-3.8,4.71-7.54,4.67-3.69-.04-6.11-1.68-7.53-4.7-.36-.76-2.38-1.32-3.64-1.32-1.26,0-3.26.55-3.64,1.32-1.46,2.98-3.76,4.69-7.54,4.67-3.74-.02-6.12-1.64-7.54-4.66-.36-.76-2.36-1.31-3.61-1.31-1.26,0-3.28.53-3.65,1.29-1.44,2.99-3.76,4.67-7.52,4.68-3.76.01-6.08-1.65-7.59-4.62-.42-.82-2.59-1.36-3.96-1.36-1.18,0-2.96.73-3.41,1.56-1.52,2.77-3.73,4.36-7.37,4.39-3.64.03-5.85-1.54-7.48-4.26-.54-.9-2.41-1.67-3.69-1.69-1.3-.02-3.32.67-3.82,1.55-1.56,2.75-3.71,4.35-7.36,4.39-3.67.05-5.84-1.55-7.48-4.25-.55-.91-2.42-1.67-3.7-1.69-1.3-.02-3.32.68-3.82,1.55-1.56,2.76-3.75,4.39-7.37,4.42-3.8.03-6.15-1.61-7.56-4.61-.33-.71-1.87-1.38-2.86-1.39-1.49-.02-3.41.18-4.4.97-2.27,1.8-3.52,3.83-4.7,6.84l-2.39,4.92c4.23.76,6.92,2.8,7.13,6.63.18,3.21-1.89,5.18-7.09,6.92,0,1.98,0,4.03,0,6.07,7.66,3.23,9.44,7.88,4.39,11.48l.14-.12c-1.43.91-2.86,1.83-4.7,3v5.64c5.19,1.64,7.53,3.86,7.29,7.11-.27,3.62-2.75,5.74-7.07,6.46v6.43c3.98,1.04,7.23,2.93,6.99,7.17-.22,3.76-3,5.58-7.09,6.39v6.19c7.31,2.92,9.14,6.66,5.31,10.67-1.6,1.18-3.2,2.36-5.32,3.92v5.06c1.71,1.09,3.15,2.01,4.58,2.92l-.14-.11c5.1,3.63,3.29,8.37-4.47,11.46v6.09c4.14,1.02,7.39,2.91,7.12,7.17-.24,3.75-3.03,5.56-7.09,6.38v6.18c7.38,2.99,9.2,6.79,5.22,10.74l.11-.11c-1.07,1.53-1.46,1.81-2.49,4.86l-1.36,3.86c1.95,2.14,3.31,4.13,5.51,5.97.82.69,2.28,1.16,3.43,1.15,1.32-.01,2.76-.49,3.9-1.1.97-.52,1.53-1.59,2.3-2.37.06-.04.12-.08.18-.13,1.7-.81,3.63-2.51,5.05-2.24,2.47.47,5.47,1.72,6.67,3.44,1.32,1.89,2.36,2.52,4.79,2.55,2.36.03,3.45-.66,4-2.55.22-.74,1.25-1.3,1.9-1.95,3.24-.92,6.5-2.22,9.56.34.69.39,1.64.64,2.04,1.18,3.08,4.16,6.19,4.12,9.18-.13.38-.54,1.04-.93,1.57-1.39,3.24-.92,6.5-2.22,9.56.34.69.38,1.63.62,2.04,1.16,3.19,4.18,5.97,4.17,9.12-.01.4-.54,1.35-.77,2.05-1.15,3.05-1.61,6.1-2.16,9.15,0,.7.38,1.64.62,2.05,1.16,3.18,4.16,5.96,4.16,9.11,0,.41-.54,1.35-.78,2.05-1.16,3.05-1.55,6.1-2.39,9.15,0,.69.39,1.64.64,2.04,1.18,3.07,4.15,6.28,4.12,9.23-.12.37-.54,1.01-.94,1.52-1.41,3.26-1.27,6.48-1.74,9.57.34.76.49,2.02.88,2.19,1.5.65,2.3,2.3,2.62,4.77,2.66,2.46.04,3.09-.95,4-2.6,2.29-4.17,8.38-4.81,11.89-1.47l-.14-.11c.62.48,1.63.87,1.81,1.45.67,2.14,2.08,2.72,4.68,2.76,2.67.05,3.14-1.27,4.3-2.74,1.33-1.67,3.58-2.81,6.08-4.67v-5.2c-7.28-3.05-9.17-6.96-5.17-10.64l-.12.13c1.53-1.23,3.05-2.47,5.25-4.25v-4.29c-2.29-2.03-4.13-3.67-5.97-5.31-2.1-3.51-.62-7.11,6.01-9.41v-6.07c-7.7-3.16-9.51-7.92-4.4-11.47l-.14.12c1.31-.89,2.63-1.78,4.49-3.03v-5.02c-2.03-1.5-3.64-2.68-5.25-3.87l.12.12c-2.71-1.93-2.39-4.36-1.13-6.65,1.21-2.19,3.2-3.75,6.41-3.29v-6.93c-4.32-.98-7.39-3-7.16-7.21Z"/>
        <g>
          <path class="cls-4" d="M383.49,20.42h0s.02.02.02.02h0s-.01-.02-.02-.02ZM383.49,20.42h0s.01,0,.02.01h0s-.01-.01-.02-.01Z"/>
          <path class="cls-4" d="M369.37,19.65c0,.18-.09.4-.2.54-.51.66-1.04,1.31-1.56,1.96-.05-.05-.1-.1-.14-.15.11.27.22.54.33.81-.07.08-.14.16-.21.24-.21-1.31-.85.11-1.17-.38-.24.74-.48,1.45-.79,2.39-.84.5-.99,1.52-.07,2.43.44.43.98.75,1.63,1.23-1.25-.41-1.1.85-1.81,1.04.04.09.08.18.12.27.29-.06.57-.12.86-.18-.15,1.02-1.07,1.36-1.76,1.9-.07.05-.22.02-.33,0-.4-.1-.68.02-.79.43-.14.54-.26,1.09-.4,1.62-.29-.3-.55-.58-.81-.85.46-.59.92-1.17,1.38-1.76-1.2.45-1.04-.91-1.65-1.04-.28.04-.56.08-.93.13.1.67-.44.64-1.03.54.2.34.37.6.52.87-.04.06-.08.12-.12.19-.37-.12-.73-.27-1.1-.33-.4-.06-.82-.04-1.23-.03-.26.01-.6.21-.76.11-.4-.27-.71-.66-1.05-1.01-.16-.15-.3-.35-.5-.45-.29-.14-.62-.2-.9-.29-.06-.68-.15-1.26-.17-1.85-.02-.65-.24-.88-.89-.82-.41.04-.83.21-1.23.16-.67-.07-1.12.15-1.42.71.07.16.09.39.2.45.21.1.47.15.71.14.35-.02.7-.12,1.06-.19.02.12.04.23.06.35-.46.14-.93.27-1.38.44-.42.15-.77.26-.87.87-.14.82-.15,1.78-1.27,2.35.21-.44.43-.72.48-1.03.05-.34-.04-.71-.06-.98.17-.04.37-.1.56-.15,0-.08-.01-.16-.01-.24-1.21.3-1.19-.7-1.46-1.36-1.66.61-3.23.68-4.7-.4-.18-.13-.32-.32-.48-.48.23-.19.43-.45.69-.56.24-.09.56.02.83-.02.18-.02.43-.12.49-.25.29-.6.03-1.13-.31-1.63-.32-.45-.71-.68-1.27-.45-.09.04-.26.02-.32-.04-1.11-1.01-2.76-1.46-3.12-3.24-.15-.7-1.57-.88-2-.3-.38.51-.79.63-1.37.24.24-.36.82-.43.65-1.09-.1-.37.24-.87.4-1.39-.85.78-1.57,1.45-2.3,2.11-.07-.04-.15-.08-.22-.12.09-1.46.19-2.92.28-4.37-.12-.02-.24-.04-.36-.05-.13.52-.27,1.04-.4,1.5-.74.97-1.87.51-2.95.81.43-.49,1.54-.24,1.15-1.27-.46.06-.87.09-1.27.17-.66.15-1.32.34-1.98.49-.26.07-.66.01-.75.16-.39.63-.99.33-1.62.55.31-.24.48-.37.65-.5-.2-.3-.33-.49-.47-.7-.25.21-.48.4-.75.62-.11-.23-.18-.37-.21-.46-.16.23-.4.66-.48.63-1.02-.32-1.01.53-1.26,1.07-1.26-.45-1.5-1.58-1.81-2.66,0-.04.03-.08.05-.15M295.94,19.1c.32.17.59.32.81.43-.51.23-.9.4-1.48.66-.26-.13-.71-.41-1.21-.61-.48-.19-.46-.38-.17-.74.17-.21.4-.57.33-.73-.19-.43-.58-.39-1.01-.23-.32.12-.71.02-1.04.11-.2.05-.34.29-.57.51-.75-.34-1.49.04-2.23.49-.06.04-.13.07-.19.11-.3.18-.61.35-.91.52.3.37.6.73.9,1.1.04.05.11.09.24.2-.13.15-.26.29-.48.55v-.61c-.12.04-.24.04-.24.07-.19.65-.45,1.29-.52,1.95-.07.6,1,1.26,1.56,1.07.54-.2,1.02-.1,1.41.36.12.14.28.26.32.29.9-.36,1.71-.69,2.54-1.03q.1.48-.57.75c-.1.47-.16.79-.25,1.12-.07.25-.23.49-.26.74-.09.89-1.1,1.46-1.82.99-.16-.12-.2-.4-.34-.58-.09-.12-.26-.17-.51-.12.09.18.18.35.28.55-.52.5-.99,1.08-1.74.87-.07-.29-.06-.6-.17-.64-.24-.1-.68-.18-.79-.06-.4.48-1.31.57-1.14,1.48.01.06-.11.21-.18.21-.85.09-1.22.8-1.73,1.33-.18.18-.47.25-.66.42-.41.36-.76,1.64-.45,2.04.57.73,0,.93-.47,1.24.13.73.26,1.46.41,2.4h1.99c.04.65.18,1.28-.53,1.69-.1.06-.16.38-.1.52.3.65.1.99-.6,1.26.55.09,1.09.18,1.68.28-.04-.27-.06-.44-.09-.6.06-.04.12-.07.18-.1.41.53.82,1.07,1.25,1.63.1-.23.25-.59.45-1.06.43,1.36,1.24.2,1.84.43-.02.06-.04.17-.08.18-1.04.37-1.26,1.39-1.78,2.17-.64.96-1.57,1.56-2.57,2.08-.79.41-1.59.82-2.34,1.3-.26.16-.38.53-.57.61-.54.05-1.18-.07-1.58.19-.82.54-1.68,1.07-2.49,1.86.85-.04,1.49-.08,2.17-.11.13-.26.32-.62.54-1.03.14.4.26.74.43,1.2.62-.52,1.15-.99,1.83-1.57-.1.35-.15.53-.17.59.64-.23,1.3-.47,1.96-.72.08-.03.16-.13.2-.21.25-.67.98-.66,1.39-.99.66-.53,1.78-.34,2.08-1.46.1-.37.75-.64,1.2-.85.46-.21.99-.27,1.46-.46.28-.11.51-.35.74-.55.25-.21.46-.49.74-.64,1.18-.61,1.23-.77.3-1.67.48-.41.85-.85,1.64-.64.29.08.78-.4,1.09-.71.24-.25.32-.64.48-.97.05.08.11.15.16.23.2-.05.56-.14.56-.15-.14-.7.57-.74.87-1.07.28-.32.77-.47,1.2-.63.46-.17.81-.08.76.54-.01.14.02.28.03.47-.12.02-.3.09-.34.04-.52-.63-1.03-.14-1.53.02-.16.05-.3.21-.41.36-.34.48-.61,1.02-1,1.46-.34.37-.59.66-.18,1.12-.37.18-.7.34-1.03.51.08.67.42.72.93.51.69-.28,1.39-.54,2.09-.81.15-.06.28-.18.43-.26.15-.09.33-.26.43-.23.76.26,1.04-.23,1.51-.68.34-.34.43-.54.32-.92-.04-.16-.15-.3-.21-.43.6.09,1.31.2,1.94.29.13.37.26.76.41,1.19,1.13.22,1.54.64,1.38,1.56.27.03.54.13.79.09.85-.15,1.41.3,1.96.82.4.38.74.88,1.43.61.07-.02.23.16.35.25-.14.11-.28.23-.54.43.32.38.68.8,1.18,1.38.04.88.19,1.92,1.46,2.27-.63.59-.77,1.43-.32,2.23.2.36.2.63.02,1.05-.2.46-.05,1.07-.05,1.62.07,0,.14.01.21.01.13-.33.26-.66.4-1,.07.02.14.05.21.07-.13.46-.26.92-.38,1.38.06.05.12.09.18.13.26-.26.51-.52.77-.77.03.02.07.04.1.06-.18.29-.36.58-.54.87.6.18.54.93-.12,1.57-.13-.12-.27-.23-.52-.45.17.73.3,1.29.44,1.86.06,0,.12-.01.18-.02v-.94c.34.45.56.73.84,1.09.2-.52.35-.95.6-1.58.08.51.13.82.21,1.26.34.06.76.13,1.24.22-.66.43-.74,1.12-.55,1.79-.27-.11-.51-.2-.82-.32.21.54.35.89.57,1.43-.32-.27-.48-.41-.63-.54-.06.05-.12.1-.18.15.24.34.51.65.73,1,.15.23.63.37.25.81-.07.08.1.47.26.63.23.23.56.35.79.57.12.11.13.33.18.5-.05.03-.11.06-.16.09-.1-.1-.21-.2-.31-.3-.07.02-.15.05-.21.07.16.48.32.96.49,1.45-.52.21-.49.9.2,1.47.15.13.23.34.45.68-.99-.13-1.2-1.34-2.11-.92.04.43.07.84.11,1.24,0,.1,0,.22.05.28.57.6,1.17,1.17,1.71,1.79.27.3.48.66.65,1.03.27.57,1.16,1.12,1.82,1.02-.28-.76.12-1.68-.8-2.3-.27-.19-.18-.9-.27-1.45-.18-.09-.47-.24-.76-.4.02-.06.04-.12.07-.18.47.15.95.3,1.26.4-.03.6-.19,1.13-.02,1.52.11.26.7.3,1.13.46,0,.11-.14.47-.02.6.65.73.3,1.33-.22,1.99-.61-.27-1.26-.56-2.08-.92-.04.71-.13,1.42-.1,2.13.06,1.38-.23,2.66-.81,3.9-.29.63-.41,1.35-.65,2.01-.16.45-.36.91-.63,1.31-.55.81-.65,1.69-.55,2.63.07.78-.04,1.52-.6,2.14-.11.12-.18.44-.1.54.54.68.27,1.46.26,2.18-.02.98.54,1.68.79,2.51.13.47.26.94.4,1.42.02.07.1.15.08.19-.5.96.27,1.62.57,2.4.09.24.31.54.24.73-.22.64.1.7.6.9.85.34,1.65.86,2.41,1.39.26.18.4.6.49.95.29,1.06.52,2.12.78,3.19.07.27.18.55.18.82.02.98.93,1.36,1.37,2.07.35.57.55,1.06.07,1.63-.24-.01-.5-.02-.84-.04.3.83.88,1.32,1.59,1.6,1.11.44,1.59,1.31,1.27,2.47-.04.15,0,.4.1.5.76.78,1.76,1.35,2.17,2.45.03.07.43.12.47.06.15-.24.39-.63.3-.77-.32-.46-.37-1.23-1.18-1.21-.02,0-.05-.36-.04-.55.01-.16.16-.43.12-.46-.59-.44-.55-1.09-.66-1.71-.05-.31-.39-.57-.54-.87-.28-.55-.51-1.12-.77-1.68-.12-.27-.25-.55-.4-.81-.36-.62-.77-1.2-1.08-1.84-.42-.9-.34-1.84-.08-2.78.4.2.78.37,1.15.57.23.13.35.24.4.62.18,1.57.79,3.03,1.76,4.29.12.16.35.23.58.37-.35.9.58,1.1,1.01,1.53.31.3.54.41.22.84-.28.37-.26.71.27.91.34.13.66.32.93.57.16.15.2.45.21.48.85,1.17,1.65,2.16,2.33,3.23.3.47.4,1.09.46,1.66.04.29-.22.6-.36.9-.34.71.17,1.82.91,2.11.41.16.76.48,1.13.73.37.24.7.58,1.1.71.58.18,1.09.42,1.59.77.69.46,1.46.82,2.23,1.13.86.35,1.81.53,2.64.94.76.38,1.42.22,2.09-.09.81-.37,1.49-.27,2.13.37.5.51,1.05.98,1.58,1.46h.15c.05-.23.12-.46.14-.7.06-.84.62-1.36,1.43-1.38.3,0,.61-.06,1.09-.11-.54-.51-.9-.85-1.23-1.15.16-.3.29-.54.46-.84,1.2.12,2.42.16,3.2-1.06.26.21.43.36.63.52.11-.2.24-.34.27-.49.2-1.2.28-2.41,1.25-3.34.27-.26-.07-.91-.43-.88-.49.04-.97.13-1.45.21-.46.08-.93.21-1.39.24-.9.05-1.2.28-1.35,1.17-.15.87-.4,1.68-1.2,2-.1.32-.15.54-.24.74,0,.02-.23-.05-.35-.08.11-.46-.21-.34-.43-.29-.58.13-1.15.33-1.74.43-.4.07-.85.12-1.23,0-.41-.12-.76-.46-1.15-.66-.46-.23-1.91-2.74-1.85-3.25.02-.16.07-.36.01-.49-.58-1.24-.19-2.47.09-3.68.21-.9.52-1.77.76-2.66.17-.65.16-1.38.46-1.95.27-.51.49-1.16,1.35-1.25.64-.07,1.41-.38,1.49-1.38.14.21.24.35.35.51.64-.61,1.29-.73,2.06-.37.24.12.66.16.84.02.46-.35.65.01.82.24.45.6,1.28.72,1.84.23.29.14.56.27.83.41.04-.08.08-.16.12-.24-.23-.16-.45-.32-.73-.51.15-.15.27-.29.38-.42-.09-.12-.19-.24-.34-.43.41-.15.75-.37,1.09-.38.71-.03,1.42.04,2.12.07.79.03,1.58,0,2.04.85.05.09.43.13.52.04.9-.79,1.38-.35,1.77.53.05.13.24.2.29.32.1.26.3.63.2.8-.41.68-.13,1.28.11,1.89.11.29.29.56.43.83.26.51.48,1.03.79,1.5.14.21.45.41.7.43.17.01.42-.27.53-.48.48-.88.75-1.76.24-2.77-.21-.41-.02-1.02-.2-1.46-.47-1.18-.51-2.38-.4-3.61.02-.25.14-.55.31-.72.59-.6,1.13-1.24,2.03-1.43.3-.06.65-.31.79-.57.59-1.06,1.79-1.28,2.59-2.06.07-.07.23-.1.34-.1.62.04.88-.17.63-.62.38-.34.69-.61,1.08-.95-.37-.16-.58-.26-.85-.38.73-.24.61-.76.55-1.27-.09-.68-.18-1.37-.28-2.15.99.44.36,1.11.54,1.63.43-.98,1.7-1.62,1.14-3.01.13.14.27.29.44.46.66-.81,1.43-1.49,1.29-2.57.86-.16,1.71-.32,2.55-.48,0-.07-.01-.15-.02-.23h-1.44s-.02-.09-.02-.13c1.02-.14,2.03-.28,3.04-.42,0,.03,0,.13-.01.22.07.04.15.08.22.12.25-.42.51-.85.76-1.28,0-.01-.07-.05-.13-.1-.09.14-.18.28-.3.46-.2-.32-.35-.59-.48-.79.11-.23.24-.41.28-.61.2-.88.63-1.54,1.54-1.79.23-.07.43-.22.64-.33.32-.16.63-.38.98-.46.68-.14,1.39-.2,2.22-.3-.24-.28-.34-.4-.47-.56.77-.16,1.49-.3,2.21-.44.02.05.04.12.07.17-.21.11-.45.18-.62.33-.38.32-.87.61-1.06,1.02-.13.29.15.78.32,1.15.04.1.4.2.48.13.62-.48,1.2-.99,1.7-1.42,1.24-.36,2.45-.71,3.68-1.06-.09-.13-.16-.24-.18-.28.46-.16.93-.31,1.38-.5.16-.06.28-.22.42-.34-.15-.13-.29-.27-.43-.39-.09-.07-.18-.12-.18-.12.02-.42.03-.75.05-1.08-.09-.02-.18-.04-.27-.07-.49.65-.99,1.31-1.52,2-.03-.01-.23-.13-.44-.16-.29-.04-.58,0-.87-.03-.45-.06-.77-.28-1.15-.56-.43-.33-.67-.6-.64-1.09.03-.52.13-1.03.2-1.59-.3-.05-.71-.12-1.12-.18.01-.08.02-.16.02-.23.73.41,1.2-.15,1.71-.46.13-.08.18-.52.09-.71-.28-.61-.87-.72-1.48-.73-.1,0-.2-.02-.29,0-.7.2-1.43.33-2.1.62-.79.34-1.52.81-2.28,1.22.52-.64,1.12-1.21,1.81-1.67.4-.27,1.02-.25,1.38-.56.54-.46.93-1.1,1.34-1.62.33.1.54.23.74.21,1.88-.12,3.7.51,5.59.35.95-.08,1.62-.37,2.21-1.08.24-.28.66-.52,1.02-.55.79-.06,1.49-.32,2.17-.68.71-.38.87-.96.38-1.49.1-.13.21-.26.29-.41.32-.68.23-1.13-.45-1.43-.38-.17-.67-.27-.75-.74-.02-.11-.35-.23-.55-.24-.25-.02-.51.05-.76.09-.01-.05-.03-.1-.05-.16.48-.13.95-.27,1.4-.4-.21-.31-.38-.57-.57-.86-.52.3-.96.37-.93-.43-.5-.13-.94-.25-1.42-.38.45-.48,0-.68-.25-.94-.41-.43-.84-.85-1.2-1.22.43-.37.76-.66,1.08-.94-.23-.39-.48-.67-.59-1.01-.13-.4-.13-.84-.23-1.24-.02-.13-.23-.21-.24-.34-.1-.54-.14-1.09-.24-1.63-.16-.88-.34-1.75-.53-2.62-.04-.19-.13-.36-.2-.54-.15.14-.34.26-.44.43-.41.67-.77,1.37-1.2,2.03-.63.96-1.65,1.38-2.63,1.83-.27-.45-.5-.89-.79-1.27-.46-.6-.56-1.95-.32-2.66.16-.49.23-.98.62-1.37.1-.1,0-.41-.02-.77-.24.3-.35.43-.46.57.02-.08.04-.16.05-.23-.6-.28-1.21-.56-1.82-.83.07-.04.14-.08.21-.12-.02-.18,0-.4-.08-.54-.15-.24-.4-.42-.55-.66-.21-.34-.36-.71-.56-1.06-.34-.59-.77-.06-1.17-.08-.17-.01-.34-.02-.5-.08-.98-.3-1.96-.63-2.93-.94-.41.73-1.21,1.39-.26,2.29-.4.51-.77.99-1.15,1.48.12.15.38.38.35.42-.44.65.76,1.87-.72,2.15-.04,0-.05.08-.08.12-.29.38-.53.84-.9,1.14-.53.45-.53.79-.05,1.24,1.01.95.68,2.19.7,3.35,0,.35-.04.7-.05,1.06-.16.12-.42.29-.68.46-.54.37-1.06.79-1.63,1.08-.66.34-1.38.57-1.86.76-.09,1.14-.26,2.15-.23,3.14.04,1.01.09,1.97-.57,2.85-.07-.09-.18-.22-.32-.4-.21.31-.4.59-.7,1.03-.24-.41-.43-.73-.6-1.06-.1-.19-.13-.43-.26-.59-.7-.81-1.32-1.57-.71-2.78.41-.83.54-1.8.81-2.71.12-.39-.02-.51-.42-.54-.77-.05-1.54-.15-2.3-.26-.12-.01-.23-.15-.34-.24-.51-.4-1.02-.81-1.52-1.21-.26-.22-.58-.41-.72-.7-.46-.93-1.34-1.32-2.1-1.92-1.04-.81-1.86-.35-2.8-.08-.02.01-.07-.03-.03-.01.19-.4.49-.79.53-1.2.07-.71-.06-1.43-.03-2.15.01-.42-.15-.54-.5-.51-.25.02-.49.1-.93.2.15-.87.21-1.68.45-2.43.46-1.49,1.79-2.4,2.61-3.67.15-.23.31-.44.49-.68.02.01.15.08.18.09.68-.49,1.29-.94,1.92-1.39-.11-.28-.21-.52-.32-.81.63.18,1.21.66,1.81.13.66-.59-.07-1.07-.25-1.64,1.07.71,1.35.6,2.11-.8.52.68,1.09.75,1.7.2.67-.6,1.35-1.19,1.99-1.82.11-.11.05-.4.07-.66.6-.49,1.28-1.04,1.93-1.65.08-.07-.09-.4-.15-.6-.03-.13-.15-.29-.11-.36.05-.1.23-.17.35-.16.28.02.56.09.85.13-.02.14-.07.4-.04.41.75.23.54,1.04.92,1.47.16.17.41.25.62.37.02-.05.05-.11.07-.16-.27-.42-.55-.84-.87-1.32.57.07,1.03.12,1.49.18.02-.09.04-.34.12-.35.81-.21,1.16-1.15,2.04-1.23.09,0,.16-.14.24-.23.68-.72.3-1.41-.07-2.01.13-.26.28-.45.29-.65.02-.24-.09-.48-.15-.77.81.37,1.76.01,1.53-.45-.29-.58.46-.73.3-1.06-.16-.34-.52-.58-.79-.87,0,0,.01-.04.03-.09.09.02.17.03.19.04-.02-.21-.01-.45-.07-.68-.03-.13-.2-.34-.26-.33-.38.09-.7-.03-1.05-.18-.46-.2-.99-.23-1.49-.34-.08.8-.84,1.47-.24,2.24-.61.35-1.3.5-1.59,1.29-.16.46-.57.84-.86,1.25-.05-.04-.09-.07-.14-.1.04-.3.07-.61.1-.91-.09-.03-.18-.05-.27-.09-.15.38-.48.8-.42,1.15.16.94.23.93-.82,1.01-.07-.27-.18-.54-.22-.82-.09-.7-.3-1.45.59-1.85.09-.04.16-.27.13-.39-.13-.73-.28-1.46-.43-2.2-.08.01-.16.02-.24.04-.5.74-1,1.48-1.51,2.21-.04-.04-.09-.07-.14-.1.12-.72.24-1.44.35-2.12.09.02.27.09.44.06.09-.02.21-.25.18-.34-.05-.17-.18-.38-.32-.45-.53-.23-1.08-.41-1.63-.62.43-.46.77-.81,1.13-1.2.07,0,.29.02.51.04-.03-.21-.09-.43-.09-.63.03-.78-.45-1.57.05-2.34.09-.13.12-.34.09-.48-.2-.82-.41-1.62-.62-2.39.68.11,1.65-.62,1.81-1.49.1-.53.37-.64.76-.26.51.51.98.34,1.39-.08M367.29,38.01c.39.57.75,1.1,1.13,1.66-.91,0-1.5-.83-1.13-1.66ZM298.25,19.83c-.45-.41-1.23-.02-1.25-1.02.44.07.83.13,1.29.2-.01.24-.02.46-.04.82ZM313.2,44.81c-.05.88-.1,1.77-.15,2.65-.76-.84.11-1.75.15-2.65ZM311.5,47.15c.1-.09.19-.19.29-.29.4.17.81.35.73.93-.07.47-.23.93-.49,1.36.1-.48.21-.96.3-1.35-.27-.21-.54-.43-.82-.65ZM313.16,54.05c0-.2.02-.4,0-.59-.02-.23-.02-.5-.14-.69-.37-.62-.35-.88.24-1.33-.41.54-.14.98.14,1.43.05.09.04.25-.01.34-.34.55-.02.57.44.62-.22.07-.45.15-.66.22ZM313.96,51.33c-.14-.25-.27-.5-.42-.74-.32-.52-.83-.54-1.88-.18.12-.09.24-.18.35-.28.6-.54,1.46-.88,1.41-1.92,0-.1.24-.21.37-.32.07.06.15.12.22.18-.25.62-.49,1.24-.73,1.81.29.46.56.9.84,1.35-.05.03-.11.07-.16.1ZM329.3,20.12c.91-.81,1.99-.95,3.14-.84-1.03.27-2.06.55-3.14.84Z"/>
          <path class="cls-4" d="M280.54,34.47c0,.16.02.3.05.41-.02-.12-.03-.26-.04-.41h0Z"/>
          <path class="cls-4" d="M396.32,40.24c-.43.29-.84.57-1.32.89.07.43-.76,1.1-1.71,1.1-.04.32-.07.65-.13.98-.09.45-.1.7-.72.3-.74-.46-1-1.07-.97-1.79.02-.47-.35-.52-.49-.78-.2-.37-.45-.72-.74-1.2-.14.41-.27.77-.45,1.29-.12,0-.42.02-.57.03.07.48.1,1.09.29,1.65.12.34.46.81.74.84.96.09.63.84.78,1.32.12.35.06.77.2,1.11.27.71.1,1.12-.37,1.12-.26.32-.52.52-.6.79-.06.2.1.48.18.71.04.12.13.23.13.34,0,.05-.21.16-.27.13-.12-.06-.27-.18-.3-.3-.17-.69-.49-1.24-1.23-1.43-.07-.02-.15-.03-.2-.07-.55-.57-1.1-1.14-1.65-1.71-.17.24.08.88.34,1.21.54.68,1.06,1.38,1.51,2.12.12.2-.03.57-.07.98-1.53-.6-2.93-1.31-3.98-2.59-.09.3-.14.46-.2.63-.15-.13-.35-.23-.43-.38-.26-.52-.48-1.06-.74-1.63.15-.07.33-.15.35-.16-.32-.63-.57-1.25-.93-1.81-.2-.32-.54-.65-1.06-.1.04-.31.06-.48.08-.66-.02-.01-.05-.04-.06-.04-.68.62-1.56-.11-2.31.35-.22.13-.77-.05-1.05-.25-.78-.56-.71-1.2.11-1.67.16-.1.3-.27.42-.43.1-.15.16-.33.19-.39.65.25,1.23.57,1.85.68.42.07.89-.15,1.34-.24.23-.04.47-.05.84-.1-.07-.21-.14-.52-.27-.8-.18-.38-.16-.63.24-.91.61-.42,1.13-.96,1.72-1.42.24-.2.56-.29.94-.48.04-.63.13-1.37.09-2.1-.01-.27-.34-.52-.61-.9.02-.09.07-.35.1-.57-.23.07-.43.12-.63.2-.21.08-.42.18-.63.27-.16-.29-.23-.51-.19-.66.02-.11.1-.18.23-.23.05-.02.12-.03.19-.04.05,0,.11,0,.17,0q-.34-.45-1.46-.2c-.03-.4-.17-.81.51-.73.13.02.28-.13.43-.2-.09-.13-.16-.27-.26-.4-.21-.26-.45-.5-.62-.78-.06-.1.07-.32.13-.55-.18-.02-.37-.06-.7-.11.21-.48.41-.94.52-1.19-.52-.45-.94-.8-1.36-1.15-.04.04-.09.08-.13.12.12.16.26.33.37.51.42.68.13,1.15-.62,1.27-.37.05-.69.37-.85.46-.49-.37-.91-.68-1.37-1.02-.1.04-.27.18-.4.15-.79-.24-1.59-.47-2.34-.8-.34-.15-.57-.5-1.03-.31-.1.04-.4-.15-.46-.29-.3-.81-.99-.74-1.65-.76-.57-.76-.77-1.58-.41-2.58.62.28,1.22.56,1.82.83.07-.12.13-.24.19-.37-.45-.26-.87-.56-1.34-.75-.93-.39-1.02-.6-.52-1.43.39-.64.7-1.34,1.15-1.93.65-.82,1.38-1.59,2.13-2.34.66-.68,1.4-1.33,2.43-1.29.57.02,1.14.16,1.68.34.4.12.37.36.02.62-.88.63-1.78,1.24-2.58,1.96-.25.23-.22.77-.23,1.2-1.05,1.11-.83,2.53.07,3.12.42-.32.15-.57-.02-.9-.16-.29-.17-.66-.24-.97.26-.21.51-.4.86-.67.05.02.22.1.52.23-.67-1.03-.22-1.88.56-2.62.94-.9,2.17-.58,3.15-1.13.29-.16.79.04,1.33.09-.12.43-.23.78-.3,1.15-.03.13.03.27.06.41h0s-.02,0-.02,0h0s0,0,0,0c0,.02.01.04.01.06h0c-.12.61-.24,1.21-.38,1.88.42.22.91.47,1.4.73,1.15-.77,2.01-.68,3.01.46.26.29.33.81.37,1.23.04.38-.09.77-.12,1.05.5.1,1.21.1,1.77.4.7.38.88,1.3.52,1.85.18-.02.33-.05.51-.07.02.27.03.5.04.73.71.07,1.28.4,1.65,1.01.07.12-.04.49-.07.49-.78-.02-.6.65-.66,1.14.21-.31.43-.62.63-.92.47.35.84,1.26.62,1.54-.29.37-.63.7-1.16.29.31.55,1.56.24,1.23,1.42-.45-.13-.88-.26-1.29-.37.13.65-.1,1.08-.74,1.18.43.32.79.59,1.21.9-.04.09-.1.25-.21.48.23-.04.37-.07.52-.1-.02.21-.07.53-.05.53.38.09.76.13,1.23.19-.1.18-.23.4-.35.62.28.07.57.1.84.21.08.04.1.3.08.45-.02.12-.16.22-.24.32.15.11.29.27.46.3.32.07.65.08,1.12.12-.27.25-.41.38-.74.7,1.16-.38,1.25.4,1.63,1.02Z"/>
          <path class="cls-4" d="M360.22,17.68c-.17.37-.34.75-.45,1.15-.08.3-.02.65-.12.96-.15.45-.39.88-.57,1.32-.09.24-.21.51-.19.74.04.3.19.6.35.87.09.16.3.24.6.46-.12.56.1,1.14.68,1.56.58.42.32.91.1,1.34-.19.37-.73.52-.67,1.06,0,.02-.16.05-.35.12.1-.37.18-.66.28-1.01-.41.06-.77.03-.56-.66-.46.34-.95.29-.53,1,.46.79-.38,1.71-1.36,1.63-.26-.02-.52-.05-.77-.12-.56-.17-1.11-.37-1.73-.57.58-.87-.35-.69-.66-.95.09-.25.16-.48.3-.9-.51.34-.87.59-1.23.81-.18.11-.43.29-.59.24-.77-.21-1.38.1-1.99.46-.42.25-.82.19-1.29.1-.86-.17-1.76-.16-2.63-.23,0-.23.05-.46-.01-.65-.15-.38-.09-.63.2-.96.49-.54.25-1.01-.51-1.02-1.69-.01-1.88-1.8-1.34-2.87.1-.19.5-.31.76-.31,1.26-.02,2.48.15,3.62.81.41.24.96.23,1.63.38-.42-.53-.7-.9-.99-1.26-.57-.67-1.34-.71-2.15-.76-.74-.05-1.48-.33-2.26-.52,0-.13,0-.29,0-.46-.04-1.28-.04-1.27,1.24-1.35.52-.04,1.04-.15,1.55-.22,0-.07,0-.15,0-.22-.43-.02-.88-.13-1.31-.07"/>
          <path class="cls-4" d="M356.52,18.29c-.16.42-.18.91-.27,1.39.87-.21.82-.9,1.03-1.43"/>
          <path class="cls-4" d="M363.2,17.48c0,.34-.14.68-.15,1.02,0,.16.12.34.23.48.23.3.59.53.7.86.23.69.31,1.43.51,2.13.07.25.26.51.48.65.09.05.43-.15.56-.31.27-.34.48-.6,1.03-.57.4.02.99-.24,1.18-.56.32-.56.73-1.12.95-1.69"/>
          <path class="cls-4" d="M396.54,78.14c-.06-.16-.12-.34-.18-.51-.18.07-.34.15-.61.26.18-.63.32-1.15.46-1.67-.74.62-1.29,1.36-2.26,1.42-.05-.07-.1-.13-.15-.2.3-.24.59-.48.99-.8-1.11-.15-2.09-.31-3.07-.41-.32-.04-.66.09-1,.08-.17,0-.34-.13-.51-.2.08-.18.12-.4.24-.54.21-.23.46-.4.81-.69-.31-.06-.48-.1-.76-.16.18-.19.29-.41.43-.43.93-.15,1.13-.96,1.52-1.6.63-1.02,1.17-2.14,2.37-2.65.21-.09.49-.05.73-.07-.1.16-.21.32-.32.48-.49.73-.98,1.47-1.48,2.21.06.04.12.08.19.12.13-.2.27-.41.39-.59.34.18.59.31.81.43-.18.23-.37.47-.59.76.47.08.8.13,1.11.18.24-.22.52-.46.73-.66,1.15.61.52,1.34.18,2.15.41-.2.66-.32.91-.43.04.04.07.09.11.13-.37.48-.73.97-1.09,1.46.03.03.07.07.1.1.33-.22.66-.44.99-.65.03.04.06.07.09.12-.18.23-.36.45-.54.68.04.04.08.08.12.12.15-.11.3-.22.46-.34.1,1.02-.35,1.78-1.18,1.92Z"/>
          <path class="cls-4" d="M374.97,43.68c0,.2-.09.43-.21.6-.33.47-.74.52-1.24.22-.21-.13-.49-.18-.81-.28.08-.21.15-.41.2-.55-.21-.18-.4-.33-.59-.48,0-.1,0-.21-.01-.32-.2.22-.4.43-.59.65-.06.07-.07.2-.13.25-.52.37-1.02.74-1.57,1.05-.2.12-.51.05-.76.07.01-.23.01-.45.03-.68,0-.14.04-.28.08-.48h-.96c-.07-.53-.01-.97.64-1.08.09-.02.18-.15.23-.24.43-1.04.82-2.1,1.29-3.14.15-.32.51-.56.77-.84.07.04.15.08.23.12v1.31c.35-.21.68-.27.69.34,0,.08.09.23.14.23.57.01.59.54.85.84.46.52.91,1.02.88,1.8,0,.12.28.26.45.37.13.09.4.16.4.24Z"/>
          <path class="cls-4" d="M365.46,27.86c-.12.82-.21.87-.85.43.08.56.15,1.06.24,1.63-.81.87-1.58.87-2.55-.04-.35-.33-.79-.55-1.17-.85-.12-.09-.26-.3-.23-.43.04-.15.24-.38.36-.38,1.01.02,1.34-.81,1.87-1.4.16-.18.41-.29.65-.46.34,1.21.14,1.3,1.69,1.5Z"/>
          <path class="cls-4" d="M383.49,20.43s.01,0,.02,0h0s-.02,0-.02,0Z"/>
          <path class="cls-4" d="M387.44,22.34s-.34.25-.49.22c-.4-.08-.78-.27-1.18-.37-.22-.05-.51-.09-.69.01-.46.24-.82.16-1.18-.19-.42-.41-.24-.78.02-1.16.02-.04.02-.1.05-.21-.15-.06-.3-.14-.46-.21.05-.13.09-.27.16-.4.21-.4.43-.79.56-1.03.72.22,1.38.38,2.01.62.27.1.62.31.71.56.24.7.37,1.43.5,2.15Z"/>
          <path class="cls-4" d="M383.53,35.3c-.6,1.22-1.17,1.55-2.41,1.26-.24-1.11.55-1.69,1.19-2.27.21-.2.83-.12,1.18.04.48.21.23.6.04.97Z"/>
          <path class="cls-4" d="M372.85,45.8c-.53,1.02-1.4,1.39-2.48,1.54-.07-1.34.66-1.8,2.48-1.54Z"/>
          <path class="cls-4" d="M388.15,73.87c-1.38.04-2.24-.63-2.98-1.55.82-.45,2.49.57,2.98,1.55Z"/>
          <path class="cls-4" d="M371.99,59.96c-.38.3-.88.45-1.41.69-.04-.49-.06-.73-.1-1.17.29-.1.77-.29,1.29-.48.08.34.32.87.21.96Z"/>
          <path class="cls-4" d="M374.88,47.69c-.21.42-.48.81-.76,1.26-.6-.66-.58-1.34.07-1.8.17-.12.46-.08.7-.12,0,.22.08.48,0,.65Z"/>
          <path class="cls-4" d="M386.7,77.98c-.21.26-.5.77-.6.74-.45-.16-.87-.46-1.27-.74-.21-.15-.37-.37-.61-.63.18-.16.35-.31.6-.55.02.3.04.5.06.78.59.13,1.2.26,1.81.39Z"/>
          <path class="cls-4" d="M381.73,31.31c-.16.81-.88,1.3-1.6,1.16.23-.85,1.16-.68,1.6-1.16Z"/>
          <path class="cls-4" d="M368.42,65.94c-.06.06-.12.12-.18.18-.47-.09-.95-.17-1.42-.26-.02-.11-.03-.21-.05-.32.35-.11.71-.33,1.03-.28.23.04.41.44.61.67Z"/>
          <path class="cls-4" d="M385.09,35.86c-.59-.01-1.18.13-1.21-.68.63-.37,1.11-.13,1.21.68Z"/>
          <path class="cls-4" d="M377.5,45.39s-.16.38-.24.58c-.33-.24-.66-.48-.99-.71.08-.13.16-.27.23-.4.34.17.69.32,1,.54Z"/>
          <path class="cls-4" d="M360.69,27.93c-.32.38-.63.77-1.05,1.29-.23-.97.34-1.18.87-1.43.06.04.12.09.18.13Z"/>
          <path class="cls-4" d="M389.44,51.21c-.2-.23-.38-.42-.46-.52.2-.34.34-.57.49-.84.32.43.49.85-.03,1.36Z"/>
          <path class="cls-4" d="M378.71,45.19s-.15.23-.24.35c-.24-.24-.49-.48-.74-.73.09-.09.19-.18.28-.27.24.21.49.41.7.65Z"/>
          <path class="cls-4" d="M314.01,48.07c-.25.62-.49,1.24-.72,1.8.28.46.56.9.83,1.35-.05.03-.11.07-.16.1-.14-.25-.27-.5-.42-.74-.33-.52-.83-.54-1.88-.18.12-.09.25-.18.36-.28.6-.54,1.46-.88,1.41-1.92,0-.1.24-.21.37-.32.07.06.14.12.21.19Z"/>
          <path class="cls-4" d="M332.43,19.28c-1.03.27-2.06.55-3.13.83.92-.81,1.99-.95,3.13-.83Z"/>
          <path class="cls-4" d="M368.42,39.67c-.91,0-1.5-.83-1.14-1.66.39.57.75,1.1,1.14,1.66Z"/>
          <path class="cls-4" d="M313.83,53.83c-.22.07-.44.15-.67.22,0-.2.02-.4,0-.59-.03-.24-.03-.5-.14-.69-.37-.62-.35-.89.24-1.33-.41.54-.13.98.14,1.43.05.08.04.25,0,.33-.34.55-.02.57.44.62Z"/>
          <path class="cls-4" d="M297,18.81c.44.07.83.13,1.29.2-.01.24-.02.46-.04.82-.44-.41-1.23-.03-1.25-1.02Z"/>
          <path class="cls-4" d="M313.05,47.47c-.76-.83.11-1.75.15-2.65-.05.88-.1,1.77-.15,2.65Z"/>
          <path class="cls-4" d="M312.31,47.8c-.27-.21-.54-.43-.82-.65.1-.1.19-.19.29-.29.39.17.81.35.72.93-.07.47-.22.93-.49,1.36.11-.48.21-.96.3-1.35Z"/>
          <path class="cls-4" d="M293.74,43.7c-.15.37-.26.64-.3.76-1.07.66-2.03,1.26-3.1,1.93.18-.27.29-.43.29-.43-.18-.21-.44-.37-.45-.55-.02-.32,0-.75.19-.95.31-.32.73-.74,1.31-.28.19-.37.09-1.24.84-.46.43-.61.78.15,1.23-.02Z"/>
          <path class="cls-4" d="M311.84,60.85c-.04.06-.09.12-.13.18-.16-.12-.38-.21-.46-.37-.38-.75-.65-1.53-.48-2.41.06-.34-.11-.72-.07-1.07.07-.66.48-.85,1.07-.54.23.12.48.21.62.27-.18.63-.18,1.51-.61,2.03-.64.77-.15,1.29.07,1.92Z"/>
          <path class="cls-4" d="M283.6,25.99c-.46.11-.92.23-1.38.34-.09-.45-.14-.9-.3-1.32-.05-.13-.4-.16-.62-.23-.18-.06-.47-.06-.52-.18-.07-.14,0-.41.1-.57.18-.27.43-.51.71-.83.09.58.3.98.95.82.09-.02.27.07.31.15.27.6.51,1.22.76,1.82Z"/>
          <path class="cls-4" d="M282.06,35.54c-.27,0-.5,0-.68-.01-.05,0-.1-.01-.15-.02-.01,0-.02,0-.04,0-.08-.02-.15-.04-.21-.06-.12-.06-.21-.13-.27-.24-.03-.05-.06-.12-.08-.19-.01-.03-.02-.07-.03-.11-.02-.12-.04-.26-.05-.41h0c.49-.04.98-.09,1.56-.13.56.34.25.76-.05,1.2Z"/>
          <path class="cls-4" d="M294.44,43.16q-1.09.37-1.51-.25c.41-.15.79-.33,1.2-.41.07,0,.21.43.32.66Z"/>
          <path class="cls-4" d="M301.98,39.37c.12.52-.76,1.34-1.7,1.37.66-.54,1.17-.95,1.7-1.37Z"/>
        </g>
        <line class="cls-4" x1="324.05" y1="17.46" x2="307.41" y2="41.96"/>
        <polyline class="cls-4" points="315.13 62.91 354.48 69.97 365.35 77.11 381.9 72.97"/>
        <polyline class="cls-4" points="318.72 96.55 333.88 99.83 342.51 104.04"/>
        <rect class="cls-5" x="272.62" y="19.04" width="134.73" height="141.27" rx="5.54" ry="5.54"/>
        <rect class="cls-7" x="273.31" y="117.45" width="133.44" height="43.85" rx="5.29" ry="5.29"/>
        <text class="cls-10" transform="translate(291.35 147.8)"><tspan x="0" y="0">NE</tspan><tspan class="cls-11" x="32.34" y="0">V</tspan><tspan x="46.77" y="0">A</tspan><tspan class="cls-12" x="63.17" y="0">D</tspan><tspan x="79.1" y="0">A</tspan></text>
        <g>
          <path class="cls-2" d="M324.23,69.61c-1.62-.12-3.1-.63-4.38-1.66-1.98-1.61-2.94-3.7-2.9-6.25.01-.85.17-1.68.49-2.46.63-1.58,1.62-2.89,3.08-3.77,2.48-1.48,5.04-1.57,7.64-.3.24.12.4.35.64.45.53.21.86.67,1.28,1.01.16.13.22.41.34.48.3.17.37.47.56.7.52.63.79,1.37,1,2.14,1.11,4-1.23,8.19-5.22,9.35-.05.02-.11.03-.16.05-.53.14-1.05.31-1.62.26-.25-.02-.51,0-.76.01Z"/>
          <path class="cls-1" d="M324.23,69.61c.25,0,.51-.04.76-.01.57.05,1.09-.12,1.62-.26-.1.66-.07,1.32-.11,1.98-.07,1.27-.06,2.54-.16,3.8-.06.77-.02,1.54-.14,2.3-.05.3,0,.62,0,.93-.03.98-.06,1.97-.12,2.95-.06.97-.07,1.94-.12,2.91-.02.35.04.69,0,1.03-.01.11.02.19.1.28.24.29.15.71-.18.89-.72.41-1.49.4-2.24.16-.23-.07-.55-.19-.6-.54-.02-.14-.01-.25.1-.33.16-.13.15.05.2.12.03.03.07.05.09,0,.05-.07.04-.16,0-.22-.23-.34-.14-.71-.13-1.07,0-.43.11-.86.09-1.29-.12-4.16-.02-8.31-.05-12.47,0-.33.03-.66.13-.98.04-.13.08-.21.26-.16.15.05.33.07.49-.03Z"/>
        </g>
      </g>
      <g class="cls-9">
        <path class="cls-3" d="M42.48,129.8c13.9,2.11,22.71-6.07,31.76-14.3,11.41-10.37,31.09-10.46,43.38,2.23,5.57,5.74,11.67,10.4,19.9,12.11,7.83,1.62,14.28-1.14,20.26-5.23,4.36-2.99,8.02-7.01,12.02-10.53,10.78-9.48,32.77-7.07,41.11,3.86,11.31,14.82,30.28,15.88,44.42,3.53,6.23-5.45,11.98-11.7,20.83-12.83,1.85-.24,3.76-.03,6.74-.03-1.37,1.8-1.67,2.6-2.06,2.65-10.76,1.3-18,8.43-25.4,15.28-10.76,9.95-31.9,9.31-39.89-.76-3.08-3.88-8.03-6.25-12.01-9.46-9.92-7.99-26.73-4.85-33.7,2.67-1.47,1.59-3.35,2.81-4.79,4.42-12.05,13.41-34.69,13.86-48.32-1.02-5.47-5.98-12.04-10.02-20.53-10.6-9.54-.65-16.76,3.63-23.15,9.93-6.81,6.71-14.38,11.83-24.32,12.03-2.17.04-4.36-.81-6.54-1.25.1-.9.19-1.79.29-2.69Z"/>
        <path class="cls-3" d="M129.72,102.3c-4.44-3.28-9.28-6.14-13.24-9.92-7.97-7.59-17.02-12.28-27.89-9.15-5.56,1.6-10.83,5.36-15.35,9.19-6.92,5.86-13.78,11.13-23.31,11.63-8.47.44-16.09-1.47-22.54-7.19-7.37-6.53-14.18-13.98-24.91-14.94-.39-.04-.72-.84-2.47-3.01,4.55.46,8.01-.09,10.44,1.24,5.48,3,10.69,6.62,15.57,10.54,5.77,4.63,11.39,8.72,19.15,9.85,10.84,1.58,18.03-4.04,24.91-10.78,15.08-14.8,32.19-15.17,47.94-1.06,3.64,3.26,7.68,6.08,11.43,9.22.78.66,1.11,1.86,1.65,2.8-.46.53-.92,1.05-1.38,1.58Z"/>
        <path class="cls-3" d="M125.15,67.99c-2.37-1.05-4.91-1.84-7.08-3.21-6.27-3.97-11.94-10.24-18.69-11.67-6.07-1.28-13.48,2.04-19.84,4.51-3.64,1.41-6.44,5.09-9.5,7.88-13.25,12.1-30.3,12.7-43.95.95-7.04-6.06-13.34-13.01-23.35-14.05-.36-.04-.63-.89-1.67-2.45,2.81,0,4.94-.36,6.89.06,8.29,1.82,14.16,7.44,20.19,12.94,11.98,10.91,25.4,11.06,37.93.76,1.83-1.51,3.7-2.98,5.43-4.59,7.88-7.32,16.83-11.68,27.87-9.63,11.45,2.13,19.87,8.59,25.59,18.66l.16-.17Z"/>
        <path class="cls-3" d="M110.39,25.26c1.56.92,3.2,1.72,4.66,2.77,7.24,5.21,13.09,12.48,23.07,13.39,8.24.75,15.23-1.33,21.44-6.48,3.49-2.9,6.68-6.19,10.28-8.93,11.18-8.5,26.38-8.44,37.48.08,5.47,4.2,10.77,8.63,16.08,13.04.66.54.92,1.57,2.11,3.72-2.64-.64-4.22-.61-5.26-1.34-3.23-2.25-6.59-4.47-9.33-7.27-15.41-15.8-31.36-13.72-46.01.79-13.53,13.41-31.47,14.01-45.62,1.32-3.42-3.07-6.68-6.32-10.01-9.48.37-.53.73-1.07,1.1-1.6Z"/>
        <path class="cls-3" d="M36.91,159.21c1.56-.19,3.21-.81,4.66-.5,12.06,2.64,21.15-2.47,29.12-10.77,7.78-8.1,17.28-12.03,28.42-10,4.9.89,10.26,2.6,14.06,5.64,8.86,7.08,16.37,16.09,29.37,15.97-.1.82-.2,1.64-.3,2.47-2.51.14-5.47,1.2-7.45.24-5.94-2.88-11.89-6.05-17.11-10.05-5.81-4.45-10.94-9.63-18.7-10.69-10.54-1.45-18.96,2.27-26.07,9.81-8.08,8.55-17.78,13.08-29.77,11.41-2.16-.3-4.24-1.15-6.36-1.75.04-.59.09-1.18.13-1.76Z"/>
        <path class="cls-3" d="M173,84.34c7.43-6.81,16.47-7.44,24.59-4.11,7.4,3.03,13.94,8.6,20.21,13.82,7.07,5.89,15.4,7.93,23.61,6.48,5.31-.94,9.91-6.01,14.78-9.3,5.51-3.72,10.79-7.84,16.56-11.11,2.37-1.35,5.74-.94,8.66-1.34.18.62.36,1.24.54,1.86-.96.63-1.86,1.7-2.88,1.82-7.5.88-13.02,5.13-18.42,9.95-6.16,5.49-12.37,11.23-21.37,11.53-9.93.33-18.18-2.15-25.91-9.63-9.43-9.12-20.89-15.97-35.33-10.06-1.45.59-3.34.08-5.03.08Z"/>
        <path class="cls-3" d="M145.01,162.42c7.59-5.74,14.54-10.44,20.85-15.88,10.01-8.63,21.14-11.5,33.58-7.19,3.87,1.34,7.1,4.61,10.56,7.08,6.75,4.83,13.45,9.71,19.89,15.78-3.8-1.38-8.03-2.13-11.32-4.3-4.91-3.23-8.98-7.69-13.72-11.22-10.95-8.16-24.32-7.2-34.84,1.56-5.84,4.86-12.29,9.02-18.68,13.17-1.51.98-3.86.65-6.33.99Z"/>
        <path class="cls-3" d="M71.55,30.82c.02,7.56-6.61,9.58-11.39,11.58-13.13,5.47-25.28,3.57-35.76-7.16-5.62-5.76-12.04-10.95-20.72-11.77-.85-.08-1.64-.81-2.45-1.23.08-.62.16-1.25.23-1.87,2.99.27,6.37-.26,8.88.97,4.9,2.4,9.8,5.24,13.84,8.86,16.73,14.99,26.01,15.61,44.34,2.29.93-.68,2.11-1.01,3.18-1.5l-.14-.17Z"/>
        <path class="cls-3" d="M230,42.67c1.84-.32,3.67-.91,5.51-.92,9.36-.09,16.34-4.74,22.71-11.06,5.51-5.47,11.67-10.06,19.88-10.55,1.18-.07,2.39.34,3.87,1.96-1.22.57-2.47,1.07-3.65,1.72-5.93,3.27-11.93,6.42-17.72,9.91-5.34,3.22-10.08,7.71-15.76,9.98-4.41,1.76-9.84.97-14.81,1.32-.01-.79-.02-1.58-.03-2.37Z"/>
        <path class="cls-3" d="M167.62,62.8c-2.04-4,.29-6.32,3.26-8.33,9.99-6.77,25.98-8.57,39.93,4.19,2.82,2.58,5.46,5.35,8.18,8.03-.64.7-1.27,1.4-1.91,2.1-2.4-2.02-5.1-3.77-7.16-6.09-11.72-13.13-31.06-13.52-42.34.05-.03-.03.05.06.05.06Z"/>
        <path class="cls-3" d="M234.62,162.22c1.02-1.1,1.24-1.56,1.53-1.61,12.26-2.32,20.29-11.3,29.56-18.43,4.47-3.43,9.92-5.14,16.83-3.5-1.42,1.26-2.13,2.44-2.92,2.51-9.19.73-15.35,6.59-21.46,12.5-6.34,6.13-13.68,9.34-23.53,8.54Z"/>
        <path class="cls-3" d="M1.54,109.74c5.9-4.45,30.65,9.45,35.58,21.41-8.04-1.63-12.02-7.86-17.58-11.67-5.65-3.88-12.09-6.6-18.01-9.73Z"/>
        <path class="cls-3" d="M124.99,68.16c2.08.33,4.28.36,6.24,1.05,10.71,3.77,20.25,2.17,29.05-5.23,1.63-1.37,4.82-.87,7.32-1.21.03.03-.06-.07-.02-.04-5.29,3.46-10.32,7.51-16,10.18-6.79,3.19-14.2,2.64-21.14-.14-2.07-.83-3.53-3.15-5.28-4.78,0,0-.17.17-.17.17Z"/>
        <path class="cls-3" d="M170.3,87c-10.33,15.9-29.48,21.11-34.36,13.25,15.04,4.26,23.16-8.39,34.36-13.25Z"/>
        <path class="cls-3" d="M254.9,67.81c.59-10.03,19.81-21.2,27.57-16.56-5.11,2.06-10.18,3.42-14.51,6.01-4.46,2.67-8.21,6.54-13.06,10.54Z"/>
        <path class="cls-3" d="M.79,138.65c9.93-2.02,21.52,4.12,23.36,12.09-7.74-4.01-15.3-7.92-23.36-12.09Z"/>
        <path class="cls-3" d="M71.7,30.99c2.27-2.28,4.17-5.36,6.9-6.65,4.35-2.06,9.22-3.09,13.96-4.18,1.12-.26,2.59.96,3.79,2.22-8.54-.16-14.93,3.83-21.05,8.7-.72.58-2.47-.13-3.75-.25,0,0,.14.16.14.16Z"/>
        <path class="cls-3" d="M239.05,71.9c4.02-1.71,8.04-3.42,12.23-5.21.14,5.17-4.85,7.79-12.23,5.21Z"/>
      </g>
    </g>
  </g>
</svg>