<?xml version="1.0" encoding="UTF-8"?>
<svg id="Calque_2" data-name="Calque 2" xmlns="http://www.w3.org/2000/svg" viewBox="0 0 308.28 231.83">
  <defs>
    <style>
      .cls-1 {
        fill: none;
        stroke: #000;
        stroke-miterlimit: 10;
        stroke-width: 5px;
      }
    </style>
  </defs>
  <g id="valise">
    <path class="cls-1" d="M248.32,37.21c0,.73-.01,13.12-.02,31.28-.24-.02-.48-.03-.72-.03h-22.11c-.22,0-.45.01-.66.03v-31.28s-1.38-2.71,6.48-2.79c7.87-.08,12.55,0,12.55,0,0,0,4.48-.12,4.48,2.79Z"/>
    <path class="cls-1" d="M248.3,68.49c-.24-.02-.48-.03-.72-.03h-22.11c-.22,0-.45.01-.66.03-3.7.27-6.61,2.78-6.61,5.83v17.83c0,3.06,2.9,5.56,6.59,5.83.22.02.45.03.68.03h22.11c.24,0,.48-.01.71-.03,3.68-.28,6.56-2.78,6.56-5.83v-17.83c0-3.04-2.88-5.53-6.55-5.83ZM248.67,88.9c0,.56-.14,1.09-.38,1.57-.77,1.5-2.6,2.57-4.74,2.57h-14.05c-2.11,0-3.92-1.03-4.7-2.5-.27-.5-.42-1.06-.42-1.64v-11.32c0-.59.15-1.14.42-1.64.79-1.47,2.59-2.49,4.7-2.49h3.59v-1.45c0-1.47,1.47-2.65,3.28-2.65h.4c1.82,0,3.29,1.18,3.29,2.65v1.45h3.49c2.15,0,3.99,1.07,4.75,2.58.24.48.37,1,.37,1.55v11.32Z"/>
    <path class="cls-1" d="M248.67,77.58v11.32c0,.56-.14,1.09-.38,1.57-.77,1.5-2.6,2.57-4.74,2.57h-14.05c-2.11,0-3.92-1.03-4.7-2.5-.27-.5-.42-1.06-.42-1.64v-11.32c0-.59.15-1.14.42-1.64.79-1.47,2.59-2.49,4.7-2.49h3.59v6.66c0,1.46,1.47,2.65,3.28,2.65h.4c1.82,0,3.29-1.19,3.29-2.65v-6.66h3.49c2.15,0,3.99,1.07,4.75,2.58.24.48.37,1,.37,1.55Z"/>
    <path class="cls-1" d="M240.06,72v8.11c0,1.46-1.47,2.65-3.29,2.65h-.4c-1.81,0-3.28-1.19-3.28-2.65v-8.11c0-1.47,1.47-2.65,3.28-2.65h.4c1.82,0,3.29,1.18,3.29,2.65Z"/>
    <path class="cls-1" d="M305.78,80.84v103.55c-28.85,1.26-38.63,20.72-41.94,33.61-1.31,5.08-1.62,9.14-1.69,10.67-.02.43-.02.66-.02.66h-13.91s.04-75.06.07-131.35c3.68-.28,6.56-2.78,6.56-5.83v-17.83c0-3.04-2.88-5.53-6.55-5.83.01-18.16.02-30.55.02-31.28h13.51c.01.08.02.22.04.43.48,4.8,5.46,43.2,43.91,43.2Z"/>
    <path class="cls-1" d="M52.74,74.32v17.83c0,3.06,2.89,5.56,6.59,5.83l-.07,131.35h-13.53s0-.08-.01-.12h.01c-1.35-46.88-43.23-44.69-43.23-44.69v-103.68c39.64-1.86,43.19-37.81,43.5-43.05.02-.29.03-.48.03-.58h13.33l-.02,31.28c-3.71.27-6.6,2.79-6.6,5.83Z"/>
    <path class="cls-1" d="M218.2,74.32v17.83c0,3.06,2.9,5.56,6.59,5.83l-.06,131.35H82.91s.04-75.06.06-131.35c3.68-.28,6.57-2.78,6.57-5.83v-17.83c0-3.04-2.88-5.53-6.55-5.83.01-18.16.02-30.55.02-31.28h141.81v31.28c-3.71.27-6.62,2.78-6.62,5.83Z"/>
    <path class="cls-1" d="M248.29,97.98c-.03,56.29-.07,131.35-.07,131.35h-23.49l.06-131.35c.22.02.45.03.68.03h22.11c.24,0,.48-.01.71-.03Z"/>
    <path class="cls-1" d="M82.97,97.98c-.02,56.29-.06,131.35-.06,131.35h-23.5l.07-131.35c.22.02.45.03.68.03h22.11c.24,0,.47-.01.7-.03Z"/>
    <path class="cls-1" d="M83.01,37.21c0,.73-.01,13.12-.02,31.28-.23-.02-.48-.03-.72-.03h-22.11c-.23,0-.45.01-.67.03l.02-31.28s-1.39-2.71,6.47-2.79c7.87-.08,12.55,0,12.55,0,0,0,4.48-.12,4.48,2.79Z"/>
    <path class="cls-1" d="M82.99,68.49c-.23-.02-.48-.03-.72-.03h-22.11c-.23,0-.45.01-.67.03-3.71.27-6.6,2.79-6.6,5.83v17.83c0,3.06,2.89,5.56,6.59,5.83.22.02.45.03.68.03h22.11c.24,0,.47-.01.7-.03,3.68-.28,6.57-2.78,6.57-5.83v-17.83c0-3.04-2.88-5.53-6.55-5.83ZM83.36,88.9c0,.56-.14,1.1-.39,1.58-.76,1.5-2.59,2.56-4.74,2.56h-14.04c-2.1,0-3.91-1.03-4.71-2.49-.27-.5-.42-1.06-.42-1.65v-11.32c0-.59.15-1.15.43-1.66.79-1.45,2.6-2.47,4.7-2.47h3.59v-1.45c0-1.47,1.47-2.65,3.28-2.65h.4c1.82,0,3.29,1.18,3.29,2.65v1.45h3.48c2.15,0,3.99,1.06,4.75,2.57.25.48.38,1.01.38,1.56v11.32Z"/>
    <path class="cls-1" d="M83.36,77.58v11.32c0,.56-.14,1.1-.39,1.58-.76,1.5-2.59,2.56-4.74,2.56h-14.04c-2.1,0-3.91-1.03-4.71-2.49-.27-.5-.42-1.06-.42-1.65v-11.32c0-.59.15-1.15.43-1.66.79-1.45,2.6-2.47,4.7-2.47h3.59v6.66c0,1.46,1.47,2.65,3.28,2.65h.4c1.82,0,3.29-1.19,3.29-2.65v-6.66h3.48c2.15,0,3.99,1.06,4.75,2.57.25.48.38,1.01.38,1.56Z"/>
    <path class="cls-1" d="M74.75,72v8.11c0,1.46-1.47,2.65-3.29,2.65h-.4c-1.81,0-3.28-1.19-3.28-2.65v-8.11c0-1.47,1.47-2.65,3.28-2.65h.4c1.82,0,3.29,1.18,3.29,2.65Z"/>
    <path class="cls-1" d="M46.03,37.15v.06c0,.1-.01.29-.03.58-.31,5.24-3.86,41.19-43.5,43.05v-21.03c0-12.52,10.14-22.66,22.66-22.66h20.87Z"/>
    <path class="cls-1" d="M305.78,59.81v21.03c-38.45,0-43.43-38.4-43.91-43.2-.02-.21-.03-.35-.04-.43v-.06h21.29c12.51,0,22.66,10.14,22.66,22.66Z"/>
    <path class="cls-1" d="M45.73,229.21h-20.57c-12.52,0-22.66-10.14-22.66-22.65v-22.04s41.88-2.19,43.23,44.69Z"/>
    <path class="cls-1" d="M305.78,184.39v22.29c0,4.13-1.1,7.99-3.04,11.32-2.72,4.73-7.12,8.38-12.38,10.14l-7.24,1.19h-20.99s0-.23.02-.66c.07-1.53.38-5.59,1.69-10.67,3.31-12.89,13.09-32.35,41.94-33.61Z"/>
    <g>
      <path class="cls-1" d="M118.47,9.06v12.84c-2.14,0-3.23,4.48-3.77,8.69-.37,2.76-.5,5.41-.55,6.62h-10.8c-.04-1.13-.07-3.6.18-6.62.71-8.48,3.64-21.34,14.94-21.53Z"/>
      <path class="cls-1" d="M204.97,37.21h-10.54c-.07-2.58-.22-4.76-.43-6.62-.93-8.02-3.08-9.81-5.43-10.15-.16-.02-.33-.04-.49-.05v-11.32c.15,0,.3-.01.46-.01,13.15.2,16.02,13.05,16.49,21.53.17,3.02.03,5.48-.06,6.62Z"/>
      <g>
        <path class="cls-1" d="M183.27,2.62c-3.92-.02-15.96-.07-28.28-.1,13.24-.04,25.94-.03,28.28.1Z"/>
        <path class="cls-1" d="M154.99,2.52c-13.54.02-27.64.08-31.8.11,2.21-.15,17.19-.15,31.8-.11Z"/>
        <path class="cls-1" d="M184.19,26.98h-61.82c-4.03,0-3.9-3.88-3.9-3.88V5.62c0-3.44,3.5-2.99,3.5-2.99h1.22c4.16-.03,18.26-.09,31.8-.11,12.32.03,24.36.08,28.28.1h.02c.84.01,1.3.01,1.3.01,0,0,3.49-.45,3.49,2.99v17.48s.14,3.88-3.89,3.88Z"/>
        <path class="cls-1" d="M194.43,37.21h-80.28c.05-1.21.18-3.86.55-6.62.54-4.21,1.63-8.69,3.77-8.69v1.2s-.13,3.88,3.9,3.88h61.82c4.03,0,3.89-3.88,3.89-3.88v-2.71c.16.01.33.03.49.05,2.35.34,4.5,2.13,5.43,10.15.21,1.86.36,4.04.43,6.62Z"/>
      </g>
    </g>
  </g>
</svg>