<?xml version="1.0" encoding="UTF-8"?>
<svg id="Calque_2" data-name="Calque 2" xmlns="http://www.w3.org/2000/svg" xmlns:xlink="http://www.w3.org/1999/xlink" viewBox="0 0 466.09 230.3">
  <defs>
    <style>
      .cls-1 {
        stroke-dasharray: 0 9;
      }

      .cls-1, .cls-2, .cls-3 {
        stroke: #000;
        stroke-miterlimit: 10;
      }

      .cls-1, .cls-3 {
        fill: none;
      }

      .cls-4 {
        fill: #1d1d1b;
      }

      .cls-4, .cls-5, .cls-6, .cls-7, .cls-8 {
        stroke-width: 0px;
      }

      .cls-2, .cls-8 {
        fill: #fef6ce;
      }

      .cls-5 {
        fill: #e2925a;
      }

      .cls-6 {
        fill: #000;
      }

      .cls-7 {
        fill: #e4ae5d;
      }

      .cls-9 {
        opacity: .65;
      }
    </style>
    <image id="image" width="602" height="532" xlink:href="../Documents/punaise.png"/>
  </defs>
  <g id="Calque_2-2" data-name="Calque 2">
    <rect class="cls-7" x="1.09" width="465" height="199.49" rx="12" ry="12"/>
    <g>
      <path class="cls-6" d="M413.51,26.03c-.51-.92-1.05-1.47-1.03-2,.01-.37.93-1.09,1.2-.99.52.19,1.11.81,1.21,1.33.06.35-.67.85-1.38,1.65Z"/>
      <g>
        <path class="cls-4" d="M417.41,18.13c.25.19.35.43.3.7-.04.27-.2.58-.47.94-.29.39-.43.59-.69,1-1.07-.62-1.6-.93-2.67-1.56.28-.44.43-.65.73-1.07.31-.43.59-.69.82-.81s.45-.09.65.06c.16.12.25.27.26.42.01.16-.02.32-.1.48.19-.19.38-.31.58-.36.2-.05.39.01.59.16ZM415.8,17.91c-.13-.09-.26-.11-.39-.04-.14.07-.31.24-.51.52-.15.21-.23.32-.38.54.31.19.47.29.78.48.14-.2.21-.3.35-.49.19-.26.3-.47.32-.63.02-.16-.03-.28-.17-.38ZM417.06,18.52c-.1-.08-.2-.11-.3-.11-.1,0-.2.05-.31.14-.11.09-.26.25-.43.49-.16.22-.24.33-.39.56.36.22.54.34.9.56.12-.17.18-.26.3-.42.19-.26.32-.45.38-.59.06-.13.08-.25.06-.35-.02-.1-.08-.19-.19-.27Z"/>
        <path class="cls-4" d="M418.3,15.72c-.05.02-.11.07-.19.14-.11.1-.19.22-.25.35-.06.13-.1.31-.12.53.48.43.72.64,1.19,1.07-.13.13-.19.19-.31.32-.71-.6-1.06-.9-1.77-1.51.14-.15.21-.22.35-.36.11.1.17.15.28.25.02-.17.05-.34.1-.5.05-.16.14-.31.28-.44.09-.09.18-.14.26-.17.07.13.11.2.18.33Z"/>
        <path class="cls-4" d="M421.3,15.76c-.07-.09-.11-.13-.18-.22-.05.16-.1.31-.17.44s-.17.26-.3.36c-.2.16-.4.24-.6.23-.2,0-.37-.08-.52-.24-.11-.11-.17-.23-.19-.36-.01-.13.01-.26.09-.4.07-.14.21-.31.41-.5.21-.19.32-.28.53-.47-.03-.03-.04-.05-.07-.09-.11-.14-.24-.2-.38-.17-.14.03-.3.11-.48.24-.16.12-.26.24-.31.35-.05.11-.07.2-.06.28-.17.05-.26.07-.43.12-.02-.15.02-.32.12-.49.1-.17.26-.35.48-.52.34-.27.63-.4.86-.41.23-.01.43.1.61.34.38.5.57.75.95,1.24-.14.1-.22.15-.36.25ZM420.57,14.85c-.14.12-.21.18-.34.3-.23.2-.37.38-.42.51-.05.14-.02.26.08.36.09.1.19.15.3.14.1,0,.22-.06.35-.16.05-.04.1-.09.14-.15.04-.06.07-.12.1-.18.03-.06.06-.13.08-.19.02-.07.05-.13.07-.2-.14-.18-.21-.26-.35-.44Z"/>
        <path class="cls-4" d="M423.64,13.62c.1.19.11.37,0,.56-.1.19-.28.35-.56.51-.19.11-.38.18-.57.21-.19.03-.36.02-.5-.05.08-.14.12-.21.2-.34.22.08.46.05.72-.1.17-.1.28-.19.33-.29.05-.1.05-.2,0-.29-.03-.06-.08-.09-.13-.11-.05-.02-.12-.02-.2-.01-.08,0-.24.04-.46.12-.32.1-.57.16-.75.14-.18-.02-.32-.1-.43-.25-.12-.17-.13-.35-.04-.55.09-.2.28-.39.58-.55.23-.13.44-.2.63-.21.19-.01.35.01.48.07-.1.13-.15.2-.25.33-.22-.08-.46-.06-.71.08-.14.08-.24.17-.31.27-.06.1-.06.2,0,.3.06.09.14.12.25.11.11,0,.26-.05.45-.11.31-.1.54-.15.68-.16.14,0,.25.02.34.06.09.05.17.13.23.24Z"/>
        <path class="cls-4" d="M426,12.62c.08.2.05.38-.07.55-.12.17-.32.31-.62.43-.2.08-.4.13-.59.13-.19,0-.35-.03-.49-.11.09-.12.14-.19.24-.31.21.11.44.11.72,0,.18-.07.3-.15.37-.25.06-.09.08-.19.04-.29-.02-.06-.06-.1-.11-.13-.05-.02-.11-.04-.19-.04-.08,0-.24.01-.47.06-.33.06-.58.09-.75.05-.17-.04-.3-.14-.39-.31-.09-.18-.08-.36.03-.55.12-.19.33-.35.64-.47.24-.1.46-.14.65-.13.19.01.35.06.46.13-.12.12-.17.18-.29.3-.21-.11-.45-.12-.7-.01-.15.06-.26.14-.34.23-.08.09-.09.19-.04.3.05.09.12.14.23.15.11,0,.26-.02.46-.05.32-.06.55-.08.69-.07.13.01.25.05.33.11.08.06.15.15.2.27Z"/>
        <path class="cls-4" d="M426.83,11.85c.09.28.22.47.37.56.15.09.36.1.62.03.11-.03.21-.07.29-.14.08-.06.14-.15.2-.26.16.04.24.06.4.11-.07.15-.17.27-.29.37-.12.1-.3.18-.54.24-.38.1-.68.08-.93-.04-.25-.13-.44-.38-.58-.75-.14-.39-.15-.71-.01-.96s.41-.43.82-.54c.37-.1.67-.08.9.05.22.12.37.36.45.7.02.08.03.12.05.2-.71.14-1.06.23-1.75.43ZM428.08,11.23c-.05-.2-.15-.34-.28-.42-.13-.08-.31-.1-.54-.04-.22.06-.37.15-.45.28-.08.13-.1.3-.06.53.53-.16.79-.22,1.33-.35Z"/>
        <path class="cls-4" d="M430.69,10.28c-.05-.01-.13-.01-.22,0-.14.02-.27.06-.4.12-.12.07-.26.18-.41.34.1.62.15.92.26,1.54-.17.02-.25.04-.42.07-.17-.89-.25-1.33-.42-2.22.19-.03.28-.05.48-.08.02.14.04.22.06.36.11-.12.24-.23.37-.33.14-.1.29-.16.48-.18.12-.01.22,0,.3.02-.03.15-.04.22-.06.36Z"/>
        <path class="cls-4" d="M431.86,9.26c0,.09-.02.15-.07.18-.05.03-.13.05-.24.06-.12,0-.2,0-.25-.04-.05-.04-.08-.09-.08-.16,0-.08.01-.13.06-.17.05-.04.13-.06.24-.07.12,0,.2,0,.25.04.05.03.08.09.08.16ZM431.5,12.11c-.07-.9-.1-1.35-.17-2.25.19-.01.29-.02.48-.03.05.9.07,1.35.12,2.25-.17,0-.26.01-.43.02Z"/>
        <path class="cls-4" d="M433.1,10.98c0,.3.06.51.17.64.12.13.31.2.57.21.12,0,.22,0,.31-.05.09-.04.18-.1.28-.19.14.09.21.13.34.22-.11.12-.25.21-.39.27-.15.06-.34.08-.59.07-.39-.02-.67-.12-.87-.31-.2-.2-.3-.49-.3-.88,0-.41.09-.72.3-.92s.53-.29.95-.28c.38.02.66.12.84.3.17.18.24.45.2.8,0,.08-.01.12-.02.21-.72-.07-1.08-.08-1.8-.09ZM434.48,10.75c.01-.2-.03-.36-.13-.48-.1-.12-.26-.18-.5-.19-.23,0-.4.04-.51.14-.11.1-.19.26-.23.48.55,0,.82.02,1.37.05Z"/>
        <path class="cls-4" d="M436.54,12.39c.7-1.09,1.09-1.62,1.94-2.64.27.07.41.1.67.17.18,1.29.23,1.93.26,3.21-.18-.06-.28-.09-.46-.15-.01-.33-.02-.5-.04-.83-.56-.17-.85-.24-1.42-.36-.19.28-.29.41-.47.69-.19-.04-.28-.06-.46-.09ZM437.71,11.46c.47.11.7.16,1.16.3-.05-.62-.09-.93-.17-1.56-.41.5-.61.75-.98,1.26Z"/>
        <path class="cls-4" d="M439.94,13.32c.49-1.19.74-1.79,1.23-2.98.19.07.28.11.47.18-.52,1.18-.78,1.77-1.3,2.96-.16-.06-.24-.09-.4-.15Z"/>
        <path class="cls-4" d="M442.49,14.48c.06-.1.09-.15.15-.24-.17.02-.34.03-.49.03s-.31-.04-.46-.12c-.23-.11-.37-.25-.44-.42-.07-.17-.05-.35.04-.54.07-.14.16-.24.27-.31.11-.06.25-.09.41-.08.16,0,.37.06.63.16.26.11.39.16.64.28.02-.04.03-.06.06-.1.09-.15.1-.28.02-.4-.08-.11-.22-.22-.41-.32-.18-.09-.33-.13-.45-.13-.12,0-.22.02-.29.06-.11-.13-.16-.2-.27-.33.14-.08.3-.11.5-.09.2.02.42.09.67.21.38.19.62.39.72.58.1.19.06.41-.09.66-.33.53-.5.79-.84,1.31-.15-.09-.23-.13-.38-.21ZM443.09,13.48c-.17-.07-.25-.11-.41-.18-.28-.12-.5-.17-.64-.16-.15.01-.25.08-.32.21-.06.12-.07.22-.03.31.04.09.14.16.28.24.06.03.12.05.19.06.07.01.14.02.21.02.07,0,.14,0,.22,0,.07,0,.14-.01.21-.02l.29-.48Z"/>
        <path class="cls-4" d="M444.94,16.07c.09-.1.13-.16.22-.26-.19,0-.37-.01-.55-.05-.18-.03-.33-.1-.46-.18-.15-.1-.25-.2-.31-.31-.06-.11-.08-.22-.05-.34.02-.12.09-.27.21-.44.35-.5.53-.75.88-1.26.17.1.25.16.41.27-.32.44-.48.66-.8,1.09-.13.18-.21.3-.23.38-.02.07-.02.14.01.2.03.06.09.12.18.18.09.06.22.11.39.14.17.03.34.05.53.06.42-.5.63-.75,1.05-1.25.16.12.23.18.39.31-.61.69-.92,1.04-1.53,1.73-.14-.11-.21-.17-.35-.27Z"/>
        <path class="cls-4" d="M447.18,18.1c.42-.36.62-.53,1.04-.89.17-.14.27-.25.31-.32.04-.07.05-.14.02-.21-.02-.07-.07-.15-.16-.24-.09-.09-.22-.17-.39-.24s-.36-.12-.54-.15c-.47.46-.7.69-1.17,1.14-.13-.12-.2-.18-.33-.3.65-.66.97-.99,1.61-1.66.15.13.22.2.37.34-.1.1-.15.14-.25.24.18.02.37.07.56.14.19.07.36.18.5.32.21.21.31.42.3.6,0,.18-.13.37-.36.56-.48.39-.72.59-1.2.98-.12-.13-.18-.2-.3-.33Z"/>
        <path class="cls-4" d="M449.01,20.39c.1-.06.15-.09.25-.15-.17-.07-.33-.14-.47-.22s-.27-.19-.38-.34c-.16-.21-.23-.41-.21-.61.02-.19.11-.35.28-.48.13-.1.26-.15.39-.15.13,0,.27.04.42.12.14.08.32.24.51.46.19.23.29.35.48.59.04-.02.06-.04.1-.06.15-.09.22-.21.2-.36-.02-.15-.1-.32-.24-.51-.13-.17-.25-.28-.36-.34-.11-.06-.21-.09-.29-.09-.04-.17-.06-.26-.1-.43.16,0,.33.05.51.16s.36.29.53.53c.27.37.4.68.41.9,0,.23-.13.42-.38.57-.55.32-.82.48-1.37.8-.1-.16-.15-.24-.26-.39ZM450.02,19.77c-.12-.15-.18-.23-.31-.38-.21-.25-.39-.41-.53-.47-.14-.06-.27-.05-.39.04-.11.08-.17.17-.17.28,0,.1.06.22.16.36.04.06.09.11.15.15.06.04.12.09.19.12.07.04.13.07.21.1.07.03.14.06.21.09.19-.12.29-.18.49-.3Z"/>
      </g>
      <g>
        <path class="cls-4" d="M411.81,33.38c.16-.05.24-.07.39-.12.44.5.78.83,1,1.02.22.19.41.34.57.45.16.11.31.18.44.22.13.04.26.03.38-.02.13-.06.21-.17.24-.35.03-.17,0-.37-.08-.6-.08-.22-.17-.39-.27-.51-.11-.12-.23-.21-.36-.28.02-.23.03-.34.06-.56.21.1.39.26.53.47.15.21.27.47.38.78.14.4.19.74.16,1.03-.04.29-.17.49-.4.6-.12.06-.24.08-.36.08-.13,0-.26-.04-.4-.11-.14-.07-.31-.18-.51-.33-.2-.15-.61-.49-1.21-1.13.31,1.01.49,1.5.89,2.43-.13.06-.19.09-.32.16-.52-1.22-.75-1.87-1.12-3.23Z"/>
        <path class="cls-4" d="M415.2,39.54c-.21.15-.32.23-.53.38-.13-.2-.19-.31-.31-.51.22-.15.33-.22.54-.37-.48-.81-.7-1.23-1.11-2.12.13-.07.2-.11.34-.18,1.08.53,1.62.73,2.69,1.03.1.17.15.26.26.42-.64.46-.96.69-1.6,1.14.13.21.2.31.33.51-.11.08-.16.12-.27.21-.14-.21-.21-.31-.34-.52ZM416.33,38.07c-.79-.24-1.19-.39-1.99-.75.31.64.48.94.83,1.53.46-.31.69-.47,1.16-.78Z"/>
        <path class="cls-4" d="M418.6,42.51c-.36.4-.71.6-1.07.6-.35,0-.72-.22-1.09-.65-.36-.43-.53-.85-.5-1.22.03-.37.26-.73.67-1.06.41-.34.79-.48,1.12-.45.33.03.65.23.96.6.32.37.47.72.46,1.07-.01.35-.19.72-.55,1.12ZM418.2,42.1c.29-.3.45-.57.49-.82.04-.24-.04-.48-.24-.71-.2-.23-.41-.34-.64-.33-.24.01-.51.15-.83.42-.31.27-.5.54-.54.79-.05.25.04.52.26.78.22.26.46.38.7.36.24-.02.51-.19.8-.49Z"/>
        <path class="cls-4" d="M422,44.77s-.09-.09-.17-.15c-.12-.08-.25-.14-.39-.17-.14-.03-.32-.05-.54-.04-.36.52-.53.78-.89,1.31-.17-.13-.26-.19-.42-.32.53-.74.8-1.12,1.33-1.86.15.12.23.18.38.29-.08.12-.12.18-.21.31.17,0,.34,0,.5.01.17.02.32.07.47.17.1.07.17.13.22.2-.11.1-.16.15-.27.25Z"/>
        <path class="cls-4" d="M423.38,47.75c.06-.12.08-.19.14-.31-.19.04-.39.05-.6.03-.21-.02-.39-.07-.56-.16-.19-.1-.33-.21-.41-.33-.09-.12-.13-.24-.12-.38,0-.13.06-.29.16-.47.3-.53.45-.8.75-1.34.16.1.24.15.41.24-.25.48-.38.72-.64,1.2-.1.19-.16.33-.16.41,0,.08.01.15.05.21.04.06.12.12.24.19.11.06.27.1.45.11.19.01.38,0,.56-.02.27-.59.4-.89.67-1.48.17.08.25.12.42.2-.36.85-.54,1.27-.9,2.12-.19-.09-.28-.13-.47-.22Z"/>
        <path class="cls-4" d="M425.52,47.47c-.1.29-.11.52-.02.69.09.17.28.31.58.41.13.04.25.06.37.05.11-.01.23-.05.35-.12.14.12.21.18.35.3-.15.1-.31.16-.5.18-.18.02-.42-.01-.7-.11-.45-.15-.74-.37-.89-.64-.15-.27-.14-.6,0-.97.15-.39.36-.65.62-.76s.58-.1.96.03c.35.12.59.28.72.49.13.22.16.5.07.85-.02.08-.03.12-.05.2-.75-.2-1.12-.32-1.85-.6ZM426.99,47.65c.05-.2.04-.37-.03-.51-.07-.14-.22-.25-.44-.32-.21-.07-.39-.08-.53-.02-.14.06-.27.19-.38.39.54.2.82.29,1.37.46Z"/>
        <path class="cls-4" d="M431.48,49.85c0-.09,0-.14.01-.23-.12.08-.27.14-.43.18-.17.04-.35.06-.53.04-.37-.04-.65-.18-.83-.42-.17-.24-.23-.55-.17-.93.06-.37.2-.65.43-.85.23-.19.52-.27.87-.23.28.03.53.13.76.32.03-.46.04-.69.06-1.16.18.01.26.01.44.02-.04,1.31-.06,1.97-.11,3.28-.21,0-.31-.01-.52-.02ZM431.57,48.06c-.24-.18-.48-.28-.72-.31-.21-.02-.39.03-.54.16-.15.13-.25.34-.29.65-.07.58.13.9.62.95.16.02.32,0,.47-.05.15-.05.28-.11.39-.18.03-.49.04-.73.07-1.22Z"/>
        <path class="cls-4" d="M433.35,48.76c0,.31.08.52.23.65.14.12.37.18.68.16.14,0,.26-.04.36-.09.1-.05.19-.13.28-.24.17.06.26.09.43.15-.1.15-.23.26-.4.35-.16.09-.39.15-.68.17-.46.03-.82-.06-1.05-.25-.23-.2-.34-.5-.35-.9,0-.42.1-.74.3-.94s.5-.32.9-.34c.36-.02.64.03.84.19.2.15.32.4.37.76,0,.08.01.13.02.21-.77.09-1.16.12-1.93.15ZM434.77,48.37c-.02-.21-.09-.36-.21-.46-.12-.1-.29-.15-.52-.13-.22.01-.39.07-.49.18s-.18.28-.21.51c.57-.02.86-.04,1.43-.09Z"/>
        <path class="cls-4" d="M437.86,49.27c-.29-1.28-.44-1.92-.73-3.2.17-.04.26-.06.43-.11.32,1.27.48,1.91.81,3.18-.2.05-.3.08-.5.13Z"/>
        <path class="cls-4" d="M441.04,48.23c-.04-.11-.06-.16-.1-.27-.11.16-.23.3-.36.42-.13.12-.29.22-.48.29-.28.1-.53.11-.72.03-.19-.08-.32-.22-.38-.42-.04-.15-.04-.29,0-.41.05-.13.13-.24.26-.35.13-.11.32-.22.58-.35.27-.12.4-.18.66-.31-.02-.04-.02-.06-.04-.1-.06-.16-.17-.25-.3-.27-.14-.01-.31.02-.51.1-.18.07-.31.14-.4.23-.08.09-.14.17-.16.24-.17-.02-.26-.03-.43-.06.05-.15.15-.28.29-.4.15-.12.34-.23.59-.32.38-.14.67-.2.88-.16.21.04.37.2.48.47.24.58.36.87.6,1.44-.19.08-.29.13-.48.21ZM440.62,47.14c-.17.09-.26.13-.43.21-.3.14-.5.26-.6.38-.1.12-.13.24-.09.38.04.13.11.21.22.24.11.03.25,0,.42-.06.07-.03.14-.06.2-.11s.12-.1.18-.16c.06-.06.11-.12.16-.18.05-.06.1-.13.14-.19-.08-.21-.12-.31-.2-.52Z"/>
        <path class="cls-4" d="M446.91,44.55c-.34-.42-.51-.63-.84-1.05-.14-.18-.24-.28-.31-.32-.06-.04-.12-.05-.19-.04-.06.02-.13.06-.22.14-.08.06-.14.16-.21.28-.06.12-.13.3-.21.54.37.53.56.79.94,1.32-.17.13-.25.2-.42.32-.3-.45-.45-.67-.76-1.12-.12-.18-.21-.29-.27-.34-.06-.05-.12-.07-.18-.06-.06,0-.14.04-.23.11-.09.06-.17.16-.25.29-.08.13-.16.3-.23.48.33.56.5.84.83,1.39-.18.11-.27.17-.45.28-.45-.8-.68-1.2-1.13-2,.16-.1.24-.15.4-.25.07.12.1.18.17.29.05-.16.12-.32.21-.48.09-.16.2-.28.34-.39.16-.11.3-.18.44-.19s.26.03.38.13c.05-.2.11-.38.18-.55.07-.17.18-.31.33-.44.14-.12.26-.19.38-.22s.23-.02.34.03c.11.05.23.15.37.31.39.46.59.7.98,1.16-.16.15-.24.22-.4.36Z"/>
        <path class="cls-4" d="M449.01,40.58c.3.25.45.54.45.87,0,.33-.16.7-.48,1.07-.32.37-.64.57-.95.61-.31.04-.6-.1-.87-.39-.27-.3-.4-.61-.37-.92.02-.31.18-.62.46-.95.28-.33.56-.53.86-.58.29-.05.59.04.9.3ZM448.68,41.02c-.23-.2-.44-.29-.63-.28-.19.02-.37.13-.55.34-.18.22-.27.42-.27.62,0,.2.11.41.33.64.2.21.4.32.6.32.2,0,.4-.12.61-.37.2-.23.29-.46.28-.67-.01-.21-.13-.41-.35-.61Z"/>
        <path class="cls-4" d="M451.36,39.02c-.08.22-.17.43-.29.62-.19.31-.38.49-.56.55-.18.06-.37,0-.58-.15-.4-.3-.6-.46-1-.76-.1.15-.15.23-.26.38-.1-.08-.15-.12-.24-.19.1-.15.15-.22.25-.37-.2-.15-.3-.23-.5-.38.11-.17.17-.25.27-.42.2.15.3.22.51.36.17-.27.26-.41.42-.69.1.07.15.1.26.17-.17.29-.25.43-.43.7.39.28.58.42.96.69.15.11.27.16.36.16.09,0,.19-.09.3-.26.09-.14.15-.29.19-.44.13.01.2.02.33.03Z"/>
        <path class="cls-4" d="M452.46,36.81c-.06.24-.13.46-.23.67-.16.34-.33.55-.51.63-.18.08-.37.05-.59-.08-.43-.26-.64-.39-1.07-.65-.09.17-.13.25-.22.42-.1-.07-.16-.1-.26-.16.09-.16.13-.24.22-.41-.21-.13-.32-.19-.53-.32.1-.18.14-.28.24-.46.22.12.32.18.54.31.15-.3.22-.45.36-.76.11.06.16.08.27.14-.14.32-.21.47-.36.77.41.23.62.35,1.03.58.16.09.28.13.38.11.09-.01.19-.11.27-.3.07-.16.13-.32.15-.48.13,0,.2,0,.33-.01Z"/>
        <path class="cls-4" d="M451.91,35.35c.27.12.49.12.66.01.17-.11.33-.34.45-.71.05-.16.08-.31.08-.45s-.03-.28-.08-.42c.13-.18.19-.27.32-.45.08.18.12.39.13.62,0,.23-.05.52-.17.86-.18.55-.43.91-.7,1.09-.28.18-.59.18-.94.01-.37-.17-.59-.42-.68-.73-.09-.31-.04-.69.12-1.16.15-.43.32-.73.54-.9.22-.17.5-.21.82-.11.08.02.12.04.19.06-.26.95-.41,1.41-.75,2.29ZM452.22,33.55c-.19-.06-.36-.04-.5.05-.14.09-.26.27-.35.55-.09.26-.11.47-.07.64.04.17.16.32.34.45.25-.65.37-.99.57-1.68Z"/>
      </g>
      <path class="cls-5" d="M432.62,54.45c-14.49-.02-26.01-11.07-25.97-24.9.04-13.65,11.75-24.73,26.17-24.6,14.3.13,25.3,10.71,25.83,23.64.63,15.4-12.39,26.02-26.03,25.86ZM419.45,9.12c-.31.3-.6.71-1,.98-4.93,3.36-8.31,7.76-9.96,13.34-.16.56-.49,1.07-.75,1.61.02.5.13,1.06.07,1.61-.78,6.56.87,12.49,5.16,17.71,3.99,4.85,9.23,7.91,15.58,8.88,5.62.86,11.1.09,16.16-2.66,4.36-2.37,7.75-5.6,10.12-9.81,1.9-3.38,2.99-7.72,2.91-11.49,0-.21.17-.42.22-.63.05-.21.11-.44.06-.63-.18-.66-.49-1.29-.59-1.95-.49-3.15-1.6-6.14-3.36-8.78-3.28-4.91-7.83-8.44-13.73-10.27-.43-.13-.79-.45-1.1-.64-.55,0-1.07.08-1.55-.01-5.85-1.1-11.41-.34-16.71,2.26-.47.23-1.02.33-1.54.49Z"/>
      <path class="cls-6" d="M454.73,21.69c-5.44-12.53-18.78-16-27.13-13.62-13.92,3.97-19.19,13.29-17.49,26.6-1.77-2.95-1.02-12.25,3.09-17.79,6.23-8.4,16.9-11.95,27.13-8.81,6.61,2.03,14.48,9.31,14.4,13.62Z"/>
      <path class="cls-6" d="M418.33,22.55c1.17-4.37,7.88-8.45,13.77-8.6,7.33-.19,14.03,4.37,16.36,10.97,1.92,5.43-.35,12.67-3.54,15.1,6.07-9.45,5.36-17.69-5.04-23.84-3.7-2.19-7.99-2.27-12.18-.95-4.09,1.29-7.2,3.76-9.37,7.33Z"/>
      <path class="cls-3" d="M455.71,34.47c-1.57,6.93-5.74,12.08-12.42,15.38-7.4,3.66-15.79,2.57-18.86.76,15.39,3.48,25.84-1.85,31.28-16.14Z"/>
      <path class="cls-6" d="M417.42,24.16c-2.48,9.81,1.12,16.61,10.89,20.39-1.19.56-5.38-1.67-7.81-4.15-5.02-5.11-5.24-12.49-3.08-16.24Z"/>
      <path class="cls-6" d="M423.7,50.2c-4.85-.17-13.92-10-13.53-14.65,2.27,6.76,6.73,11.67,13.53,14.65Z"/>
      <path class="cls-6" d="M455.27,23.54c1.09,3,1.39,6.07.69,9.2-.23-3.07-.46-6.13-.69-9.2Z"/>
      <path class="cls-6" d="M428.96,44.77h7.56c-1.07.9-6.28.95-7.56,0Z"/>
      <path class="cls-6" d="M437.55,44.55c2.2-1.28,4.49-2.62,6.64-3.87-.22,1.19-4.86,3.98-6.64,3.87Z"/>
      <path class="cls-6" d="M452.56,23.73c-.57.37-.89.73-1.21.73-.27,0-.54-.41-.81-.64.29-.26.54-.65.87-.74.22-.06.57.31,1.15.66Z"/>
      <path class="cls-6" d="M439.49,24.76c.14-.03.29-.06.43-.08.02.11.04.23.04.34.04,1.35.07,2.71.1,4.06.03,1.22.08,2.43.1,3.65,0,.26.08.43.29.58.23.17.43.37.64.55-.38-.27-.76-.54-1.17-.83-.12.12-.24.24-.36.36.01.01.03.03.04.04.09-.11.18-.21.27-.31.88.7,1.68,1.34,2.49,1.99,0-.01.02-.03.03-.04l-.46-.48c.13.08.28.14.39.24.28.24.58.22,1.02.11-.27-.21-.48-.37-.69-.53.02-.02.04-.04.06-.06.1.09.23.16.31.27.36.51.89.31,1.37.3.13,0,.26-.01.34-.02-.05.32-.12.58-.12.84-.01.92,0,1.84,0,2.82-2.58.28-5.14.55-7.63.82.1-1.35,0-2.63.04-3.9-.03,0-.06,0-.09,0-.02.13-.04.27-.07.5-.03-.23-.05-.37-.07-.51-.03,0-.05,0-.08,0v3.85c-.33-.05-.61-.09-.89-.13,0-.03,0-.05,0-.08.25.03.5.05.79.08v-3.34c-.29-.02-.61-.03-.95-.05,0,1.02,0,2.03,0,3.04,0,.11-.05.23-.13.32.15-.53.04-1.07.04-1.6,0-.51.13-1.06-.1-1.55-.05,0-.11.01-.16.02v3.03c-.79.06-1.55.12-2.31.18,0,.03,0,.06,0,.08.68-.05,1.35-.1,2.03-.15,0,.02,0,.05,0,.07-.73.08-1.46.16-2.2.24,0-.04-.02-.15-.03-.26-.01,0-.03,0-.04,0,0,.11-.01.22-.02.33-.01,0-.02,0-.03,0-.02-.14-.03-.27-.05-.41-.04,0-.07,0-.11,0-.03.17-.06.34-.1.6-.04-.19-.07-.3-.1-.43-.22.4-.21.42-.79.49-1.14.13-2.27.24-3.45.37.1-.13.21-.2.21-.27,0-1.46,0-2.92,0-4.38,0-.02-.02-.03-.09-.12-.03.21-.05.37-.07.52-.01,0-.02,0-.03,0-.01-.15-.03-.3-.04-.46-.16-.02-.31-.04-.46-.06,0,.02-.01.04-.02.06.1.02.2.04.33.06v1.01s-.03,0-.04,0v-.91s-.06-.01-.1-.02c-.03.1-.07.19-.07.29,0,1.14,0,2.28,0,3.42,0,.16-.04.31-.08.47,0-1.21,0-2.41,0-3.62,0-.15-.12-.29-.18-.44,0,0,.01.01.01.01-.04-.21-.07-.42-.1-.58.22.05.49.15.77.17.17.01.4-.04.51-.14.68-.68,1.34-1.38,2.08-2.14-.24,0-.4,0-.56,0-.77-.02-1.54-.03-2.31-.08-.38-.03-.62.11-.85.37-.14.16-.32.3-.48.46v-1.97c-.23-.04-.23-.04-.24.2,0,.54,0,1.07,0,1.61-.03,0-.06,0-.09,0v-.72c-1.08-.07-2.14-.14-3.19-.21.12-.04.25-.09.37-.13,0-.01-.01-.03-.02-.04h-.74s0,.04,0,.06c.08.02.15.03.27.06-.13.06-.21.09-.29.13l.05.1c.12-.06.25-.12.37-.18.06.07.13.14.22.24-.06.03-.18.09-.3.14.01.02.03.04.04.06.03-.07.07-.14.1-.21-.02-.02-.04-.04-.07-.07-.17.15-.35.31-.53.46,0-.43,0-.85,0-1.27,0-.09-.08-.18-.12-.27-.05.1-.13.19-.14.29-.02.37,0,.73-.06,1.11-.03-.16-.06-.31-.09-.46-.32-.09-.55.01-.77.24-.35.37-.72.72-1.09,1.08-.03-.03-.06-.06-.09-.08.46-.44.91-.89,1.4-1.3.12-.1.37-.05.58-.07.01-.27.03-.54.04-.83.21-.02.4-.02.59-.05.15-.02.29-.08.44-.12-.11-.09-.22-.17-.34-.27.03-.02.09-.05.16-.09.07.04.13.11.2.11.77.03,1.54.05,2.31.07.08,0,.17-.02.22-.07.22-.21.42-.43.64-.65h0c.09.02.21,0,.27.05.15.11.3.24.41.38.07.08.07.2.11.31.03.1.06.2.09.29.05-.08.14-.17.14-.25.06-1.47.11-2.94.16-4.41.04-1.15.07-2.3.11-3.45,0-.18,0-.37,0-.59-.16.02-.31.04-.46.06,0-.01-.01-.03-.02-.04.14-.04.28-.08.42-.13,0-.02,0-.03,0-.05-.09,0-.18.01-.26.02,0-.01-.01-.02-.02-.04.11-.04.23-.08.34-.13,0-.01,0-.03-.01-.04h-.19c.06-.12.18-.27.16-.39-.01-.09.26-.4-.07-.32.02-.07.06-.15.07-.24.09-1.11.17-2.22.25-3.39.22,0,.41-.01.6,0,.07,0,.17.09.19.16.06.26.13.52.14.78.05.99.07,1.98.1,2.98.23.01.45.02.66.03,0,0,0,0,0,.01-.2.01-.4.02-.63.04v.29h.67v.04c-.23.02-.45.03-.68.05,0,.03,0,.05,0,.08.05.01.1.02.1.02-.05.17-.1.35-.16.55.12,0,.18,0,.24,0,.05,0,.09,0,.15.04-.11.03-.22.06-.35.1.1,3.14.21,6.28.31,9.43h1.41v-3.87c-.13-.03-.27-.06-.42-.09-.01-.04-.03-.08-.04-.12.31-.14.62-.28.94-.42-.24.14-.48.29-.76.45h3.79c-.16-.14-.27-.23-.38-.32l.63.32s0,.06,0,.09c-.14.01-.28.03-.45.05v3.04c.31.02.6.04.91.06.03-.64.08-1.23.09-1.82.06-2.19.11-4.39.15-6.58,0-.12-.06-.24-.1-.37-.03,0,.03,0,.02,0,.03-.11.09-.2.07-.27-.03-.11-.11-.22-.17-.32.02,0,.1-.01.17-.02,0-.02,0-.03,0-.05-.09-.02-.17-.04-.32-.07.14-.04.23-.06.34-.09-.07-.54.18-1.1-.07-1.67-.04.02.02,0,.06-.04.02-.02.04-.05.07-.11-.09,0-.15,0-.27.01.11-.09.18-.14.26-.19,0-.02-.02-.03-.02-.05-.11.03-.22.07-.33.1.23-.1.36-.27.37-.51.02-.25.2-.28.4-.27-.28.06-.34.25-.34.49-.02,1.08-.05,2.16-.08,3.24-.07,2.6-.14,5.2-.21,7.79,0,.25,0,.51,0,.76.04,0,.07,0,.11,0,.02-.36.04-.71.06-1.07.03,0,.07,0,.1,0v1.06s.06,0,.09,0l.08-.64s.03,0,.04,0c.02.22.03.43.05.65.05,0,.09,0,.14,0v-1.25h.14v1.24s.06,0,.09,0c-.05-2.89-.1-5.79-.16-8.68.03,0,.06,0,.09,0,.06,2.89.13,5.78.19,8.67.04,0,.07,0,.11,0-.05-2.4-.11-4.79-.16-7.19.03,0,.05,0,.08,0,.07,2.41.14,4.81.21,7.22h.12c-.02-.49-.06-.98-.07-1.47-.08-3.42-.16-6.85-.23-10.27,0-.33-.09-.52-.46-.54.17.05.47.08.49.16.06.29.24.39.5.46-.13-.02-.27-.04-.5-.07.06.83.12,1.63.19,2.42,0,.1.12.2.18.29-.05,0-.14-.02-.23-.03-.02.02-.04.04-.06.06.05.04.11.08.14.11-.01.03-.07.09-.07.16.01,1.43.03,2.85.06,4.28,0,.45.04.9.04,1.34,0,1.03,0,2.06,0,3.15.62,0,1.15,0,1.67,0,.34,0,.68-.01,1.01-.01.21,0,.29-.08.29-.29.04-1.92.1-3.84.15-5.76.01-.44.02-.87.04-1.31.03.22.09.44.08.67-.06,2.11-.12,4.23-.21,6.34-.02.41.19.62.5.83-.05-2.55-.1-5.07-.15-7.58.03,0,.05,0,.08,0,.07,2.64.13,5.27.2,7.91.04,0,.07,0,.11,0-.09-2.72-.17-5.44-.26-8.19-.12.01-.24.03-.36.04ZM431.39,33.85c-.19-.21-.38-.42-.55-.61-.16.11-.3.18-.4.28-.37.37-.73.75-1.09,1.14-.17.18-.33.38-.49.57-.49.27-.58.99-.2,1.26.26-.03.47-.05.68-.07,0,.05,0,.09.01.14-.28.03-.57.06-.89.1v2.72c.14.01.29.03.4.04-.1-.09-.27-.17-.28-.26-.03-.57-.01-1.14-.01-1.71.03.02.06.04.08.05.11-.1.29-.18.33-.3.08-.24.21-.39.47-.39.26,0,.4.14.44.37-.1-.07-.19-.13-.35-.24.06.29.11.52.16.75-.12.1-.32.19-.33.3-.05.41-.03.83-.04,1.25,0,.02.08.05.12.07-.2.13-.26.03-.26-.15,0-.35-.02-.69,0-1.04,0-.28-.08-.62.38-.67-.11-.16-.21-.29-.37-.5-.08.32-.2.58-.21.85-.03.64,0,1.29,0,1.93,0,.09.08.17.13.26.03-.09.08-.17.1-.26.02-.06,0-.13,0-.2.22-.02.42-.04.65-.07-.07-.11-.11-.18-.15-.25l.5.11s.01-.05.02-.08c-.1-.02-.2-.03-.35-.06v-2.02c.07.06.13.13.2.19.07-.08.17-.14.2-.23.14-.39.39-.48.75-.25-.05.11-.14.22-.13.32.02.2.09.41.13.61-.09-.05-.16-.09-.23-.13-.05.08-.13.15-.14.23-.02.37,0,.73,0,1.1,0,.05-.02.1-.03.16.09,0,.15-.01.22-.02-.04-.07-.07-.12-.09-.17.03-.02.05-.04.08-.06.1.11.19.22.29.32-.2-.01-.4-.02-.64-.04,0-.5-.01-.99.01-1.48,0-.1.16-.19.25-.28.04-.04.11-.08.11-.11-.01-.16-.04-.32-.07-.48-.41.14-.46.46-.46.78,0,.68.01,1.37.03,2.05,0,.05.04.11.06.16.03,0,.05,0,.08,0,.02-.13.04-.25.05-.34.21-.09.4-.17.58-.26.12-.04.24-.07.37-.11-.35.04-.28-.18-.3-.38-.05-.63-.1-1.26-.16-1.89.04.03.08.05.1.09.08.11.16.23.23.34.06-.12.1-.25.19-.34.12-.11.28-.25.42-.25.14,0,.29.16.4.28.12.12.2.26.3.39.04-.02.07-.03.11-.05v1.47s.03,0,.04,0v-2.5c-.1.1-.16.17-.21.23,0-.03-.01-.07-.02-.1-.51.03-1.02.06-1.64.1.02,0-.07.03-.15.02-.07,0-.14-.05-.21-.07h0c.1-.06.21-.12.31-.19.01.03.02.06.04.09.13-.03.25-.07.38-.08.21-.02.42,0,.64-.01.17,0,.38-.06.52,0,.24.11.32-.06.36-.17.22-.65-.04-1.19-.72-1.56-.24-.23-.48-.46-.73-.69ZM437.19,35.64c-.02.11-.06.22-.06.33,0,.96-.01,1.93-.02,2.89,0,.1,0,.21,0,.31.03,0,.05,0,.08,0l.04-.64s.05,0,.08,0v.66c.37-.03.7-.05,1.03-.07.49-.02.57-.17.35-.68-.08.2.06.49-.28.49-.31,0-.62,0-.96,0v-3.55s-.04-.02-.06-.03c-.07.1-.14.19-.21.29h.01ZM440.9,34.12c-.22-.2-.44-.4-.7-.64.03.21.05.34.07.48.08-.05.16-.1.27-.17.04.18.07.33.09.46.09-.05.18-.09.27-.14.03.16.06.33.09.49.08-.05.14-.1.23-.17.05.13.09.23.12.32.34-.18.22.14.31.25.37-.23.15.19.32.2.1.01.22.06.22.12.01,1.07,0,2.13,0,3.25-.27.02-.53.04-.78.05-.05-.13-.08-.23-.11-.32-.01,0-.03,0-.04,0v.5c.3-.04.6-.15.87-.11.25.04.29,0,.29-.21,0-1.01-.01-2.02-.03-3.03,0-.1-.03-.23-.1-.28-.46-.36-.94-.71-1.41-1.06ZM434.44,36.47c-.06.02-.11.03-.17.05.1.2-.13.47.14.63.18.12.37.23.58.36.07.64,0,.72-.45.62-.1.13-.2.25-.37.45.33.17.64.34,1.05.56,0-1.04.02-1.94-.02-2.85,0-.14-.27-.27-.41-.41-.24-.06-.36,0-.33.26.01.11-.02.22-.03.33ZM430.92,32.98c.33.27.72.33,1.14.39h-.55v.08c.11.02.23.05.35.06.14.01.27,0,.44,0v-4.49c-.14.01-.26.02-.46.04.12.09.17.13.24.18-.34.15-.65.24-.98.02-.07-.04-.21.02-.32.04,0,.04.01.07.02.11.1.02.21.04.32.06-.12.03-.23.06-.31.08v2.34c.09.02.18.03.32.06-.15.04-.25.06-.37.09.11.25-.17.58.24.75.02.07-.48-.03-.08.19.05.12.08.27.17.36.56.54,1.13,1.06,1.7,1.59.04.04.11.06.16.09.02-.03.05-.06.07-.08-.1-.07-.21-.12-.29-.2-.61-.58-1.21-1.17-1.81-1.76ZM438.73,34.59c-.04-.09-.09-.19-.13-.28-.09.04-.2.06-.27.12-.21.19-.46.39-.25.72-.08.14-.16.27-.25.43-.07-.03-.15-.06-.22-.09v3.39h.07c.02-.12.04-.24.06-.4.03.16.06.29.08.42.03,0,.06,0,.09-.01.01-.1.03-.2.05-.37.04.17.06.27.09.36.02,0,.05,0,.07,0,.02-.13.03-.26.06-.44.04.17.06.29.09.41.02,0,.04,0,.06,0,.02-.07.05-.14.07-.21.04.07.07.13.1.19.02,0,.04-.01.06-.02v-.43c.09-.01.18-.02.27-.03q.55-.04.55-.56c0-.52,0-1.03,0-1.55.02,0,.05,0,.07,0v2.46c-.08-.55.35-.41.65-.45.14-.02.26-.09.42-.14,0,.12.02.31.02.49,0-.38.21-.45.55-.44.14,0,.29-.09.48-.15.06.14.13.32.2.5.02,0,.04,0,.06-.01.02-.13.03-.25.05-.35.05.1.11.2.17.31.03-.12.1-.24.1-.36,0-.9,0-1.79,0-2.72-.35.24-.24-.1-.31-.2-.03.03-.06.05-.09.08-.09-.1-.17-.19-.27-.3-.29.17-.15-.19-.26-.27-.4.19-.28-.16-.35-.33-.06.05-.15.08-.15.11,0,.47,0,.95,0,1.42-.04,0-.08,0-.12,0v-1.86c-.5.26-.38-.11-.42-.25h-.46c-.02.11-.04.24-.08.41-.12-.08-.2-.14-.31-.2-.02.18-.03.33-.05.53-.13-.06-.22-.11-.29-.14-.05.16-.1.32-.15.48-.04,0-.07-.02-.11-.03v-.25ZM428.74,32.9c.05,0,.11,0,.16,0-.12-4.59-.24-9.17-.36-13.79-.05.07-.08.11-.13.18-.05-.15-.08-.24-.11-.33.11-.01.21-.02.32-.03v-.4s-.03,0-.05,0c0,.1-.02.2-.02.29-.01,0-.03,0-.04,0-.04-.14-.08-.27-.12-.41-.04.04-.07.08-.1.11-.3-.31-.31-.05-.32.15-.05.91-.11,1.83-.14,2.74-.11,3.31-.21,6.62-.31,9.93,0,.12,0,.23,0,.35h.12c.02-.29.04-.59.06-.88.01,0,.02,0,.04,0,.08.68.16,1.37.24,2.05.02,0,.05,0,.07,0v-1.12s.06,0,.09,0c.02.39.04.78.06,1.18.04,0,.08,0,.13,0v-2.23s.07,0,.11,0c0,.25,0,.5,0,.75,0,.26,0,.53.01.79,0,.22.02.45.03.67.04,0,.09,0,.13,0v-4.2h.14v4.22ZM436.36,33.74c.03-.06.08-.14.12-.21-.02-.02-.04-.05-.06-.07-.21.09-.43.19-.63.27.04-.06.08-.13.13-.21-1.08-.04-2.13.01-3.23-.18-.17.14-.42.34-.67.55.4.39.78.76,1.17,1.11.07.06.19.1.29.1,1.11.07,2.22.13,3.33.18.12,0,.27-.03.37-.09.56-.38,1-.88,1.64-1.19.4-.19.65-.67,1-1.06-.83-.06-1.15.62-1.76.97.13-.15.2-.23.36-.4-.55.15-1.05-.16-1.47.22.04-.06.08-.12.11-.18-.02-.03-.04-.06-.05-.09-.21.09-.43.18-.65.27ZM432.97,32.72c1.7.03,3.33.04,4.95.11.57.03.84-.25,1.16-.64-.18,0-.31,0-.44,0-1.45,0-2.9.02-4.35-.01-.53-.01-.93.12-1.32.55ZM425.77,32.76v-1.35c-.09.12-.14.18-.19.25-.05-.06-.08-.11-.15-.21-.03.2-.05.33-.07.46-.03.01-.06.03-.09.04-.1-.16-.21-.31-.33-.5-.13.19.06.49-.31.45v-.41s-.07-.03-.1-.04c-.06.09-.11.17-.17.26-.04.07-.09.13-.14.2-.05-.07-.1-.15-.15-.22-.05-.08-.09-.16-.17-.31-.1.28.07.6-.34.52v.75h.07s.07-.11.06-.09c.12.04.22.1.31.09.07,0,.13-.1.14-.11.49.28,1.05.1,1.62.23ZM442.97,38.07c.03.22.05.38.07.55.03,0,.06,0,.09,0,.02-.09.04-.17.06-.26.04.09.08.17.16.34v-3.4s-.05,0-.07,0c-.03.08-.06.15-.09.23-.03-.08-.06-.16-.12-.33-.12.33,0,.49.1.7.13.28.06.64.08.97-.02,0-.05,0-.07,0-.01-.17-.02-.35-.03-.52-.03,0-.06,0-.09,0-.02.18-.04.36-.06.51-.07-.22-.16-.45-.21-.69-.02-.12.05-.25.06-.38.02-.15.03-.31.04-.46-.04,0-.07,0-.11,0-.03.11-.07.22-.11.35-.02-.14-.04-.25-.06-.36-.02,0-.04,0-.06,0v3.35s.08,0,.11,0c.01-.22.03-.44.04-.65h.08v.62s.07,0,.11,0c.02-.17.03-.35.05-.57ZM429.02,32.88s.09,0,.14,0c-.14-4.58-.28-9.16-.42-13.73-.03,0-.07,0-.1,0,.13,4.58.26,9.16.39,13.74ZM444.32,35.23s-.1,0-.15,0c.06,1.07-.1,2.15.04,3.22.04,0,.08,0,.11,0v-2.01s.06,0,.09,0v1.98s.06,0,.08,0v-3.2s-.05,0-.08,0c-.02.23-.05.45-.07.67-.01-.22-.02-.44-.04-.66ZM443.72,38.53s.08,0,.13,0v-1.58c.09,0,.21,0,.21,0,0-.23,0-.45,0-.7-.11.05-.16.07-.27.12v-1.12s-.05,0-.07,0v3.29ZM431.72,37.29c-.02-.06-.04-.14-.09-.3v2.73s.06,0,.09,0v-.38c.23-.04.43-.08.63-.11,0-.03,0-.05-.01-.08h-.59c0-.53,0-1.03,0-1.53,0-.14.04-.29.27-.26.02,0,.06-.07.09-.11-.01-.02-.03-.04-.04-.07-.12.03-.23.07-.35.1ZM443.49,38.58s.06,0,.08,0v-3.32s-.06,0-.08,0v3.32ZM432.42,38.94c0-.37.03-.72,0-1.06-.03-.31-.12-.61-.21-.91-.02-.07-.2-.15-.28-.13-.09.02-.14.15-.18.2.19.08.4.11.42.19.07.26.09.53.1.8.01.34,0,.68,0,1.06.2-.03.33-.05.47-.07,0-.02,0-.04,0-.06-.09-.01-.18-.02-.3-.04ZM432.21,37.62s-.1-.01-.15-.02c-.36.45-.05.99-.14,1.49.13-.09.27-.2.28-.32.03-.38.01-.77.01-1.16ZM433.58,29.65s0,.1,0,.14h-1.12s0,.08,0,.13h1.29v-.43c-.26.02-.5.04-.75.06v.1h.56ZM433.57,31.29s0,.06,0,.1c-.27.02-.54.05-.81.07,0,.04,0,.07,0,.11.33.02.67.04,1,.05v-.43h-1.33s0,.06,0,.1h1.12ZM432.67,30.33c.05.09.06.15.07.15.32.02.64.04.96.05.03,0,.06-.09.09-.14-.25-.08.06-.2-.03-.3h-.77l-.02.09c.15.04.3.08.45.12,0,.01,0,.03,0,.04h-.76ZM432.46,30.6c0,.06,0,.12,0,.17.12,0,.24,0,.36,0,.27,0,.56-.09.71.24.02.04.12.04.18.06,0-.06,0-.12.01-.18,0-.03.03-.06.03-.09-.02-.07-.04-.19-.07-.19-.41-.01-.82,0-1.23,0ZM426.64,32.98c.33.11,1.06-.15,1.18-.34q-1.02,0-1.05.15c.1,0,.2.02.3.02,0,.01,0,.03,0,.04-.11.03-.23.07-.43.13ZM436.96,33.44c.13,0,.21,0,.3,0,.09,0,.18-.01.27-.02q.07-.5-.54-.5c0,.15-.02.31-.03.52ZM437.82,33.48c.22-.02.38-.03.55-.04-.02-.21-.03-.37-.05-.55-.18,0-.31.02-.47.02,0,.17-.02.33-.03.57ZM436.17,33.4h.5v-.51c-.16,0-.29.01-.46.02-.01.16-.02.31-.04.49ZM435.4,32.89v.49h.49c-.01-.18-.02-.33-.04-.49h-.46ZM434.63,32.88c-.01.15-.03.3-.05.47h.48c.08-.45.06-.47-.43-.47ZM434.29,32.85c-.15-.01-.28-.02-.41-.03v.52h.41v-.49ZM423.4,32.14s0-.05,0-.07c-.15-.02-.29-.04-.44-.06,0-.02,0-.05,0-.07.15-.02.31-.04.46-.06,0-.02,0-.04,0-.06h-.91c.18.08.26.11.42.18-.17.04-.24.06-.32.08v.07h.79ZM433.14,33.31c.21.02.42.11.44-.2.02-.34-.21-.29-.44-.27v.48ZM440.18,38.94c.28-.03.53-.06.77-.08v-.56c-.14.47-.15.47-.65.41-.02-.1-.05-.21-.07-.32h-.05v.55ZM439.87,38.54c-.11.09-.23.22-.37.28-.35.14-.28-.21-.4-.41v.62c.28-.03.53-.06.78-.09v-.4ZM433.8,32.01h-.98v.1c.31.12.62.11.98-.1ZM426.15,32.67s.01,0,.02,0c.02-.52.05-1.03.07-1.55-.03,0-.06,0-.09,0v1.55ZM433.04,36.35s-.03.02-.05.03c.29.26.59.52.88.78,0,0,.01,0,.02-.01-.28-.27-.57-.53-.85-.8ZM425.97,31.35s-.02-.01-.03-.02c-.02.46-.05.92-.07,1.37.03,0,.06,0,.09,0v-1.36ZM432.49,29.29s0,.08.01.12h1.27q.01-.33-.23-.3s.08.07.12.1c0,.03,0,.06,0,.08h-1.17ZM442.69,35.11s0,.05,0,.07c.63-.03,1.25-.07,1.88-.1v-.07c-.63.04-1.26.07-1.89.11ZM433.9,31.74h-.79c.25.23.41.24.79,0ZM444.07,37.68s-.06,0-.09,0v.84s.06,0,.09,0v-.84ZM430.19,37.81s-.06-.02-.08-.03c-.03.09-.09.18-.09.27,0,.13.04.26.07.38,0,0,.08.01.1,0,.02-.03.03-.08.03-.12,0-.17-.02-.34-.03-.51ZM428.91,39.55c-.06-.01-.13-.03-.19-.04-.02.14-.04.28-.05.42,0,.02.09.04.13.07.04-.15.07-.29.11-.44Z"/>
      <path class="cls-6" d="M423.02,31.21c.34-.6.87-.81,1.63-.64,0-.38,0-.71,0-1.04.04-2.48.09-4.97.13-7.45,0-.17,0-.32.25-.33.29-.01.27.17.27.34.03,2.21.05,4.41.08,6.62,0,.53.05,1.06.05,1.59,0,.22.11.27.3.29.22.02.44.05.65.08,0,0,0,0,0,0-.61-.01-1.23,0-1.84-.05-.55-.05-1.02.02-1.36.47-.04.05-.11.09-.17.13ZM424.86,21.99c-.05,2.89-.11,5.71-.16,8.54h.35c.14-1.17.03-8.35-.19-8.54ZM425.22,23.52v6.99s.08,0,.13,0c-.05-2.78-.1-5.57-.13-6.99Z"/>
      <path class="cls-6" d="M420.97,35.14c-.03-.09-.04-.14-.08-.27-.07.11-.1.16-.13.22-.01-.05-.03-.11-.06-.23-.05.11-.07.17-.11.25-.04-.08-.07-.15-.11-.24-.07.07-.12.13-.21.22-.06-.19-.11-.35-.15-.5,1.21.11,2.38.22,3.58.33.04.08.1.2.15.32-.04-.04-.08-.07-.13-.11-.04.07-.09.13-.13.2.02.02.05.05.07.07-.02-.08-.05-.16-.09-.33-.05.16-.08.23-.08.24-.09-.05-.19-.13-.3-.15-.05-.01-.12.09-.16.13-.04-.03-.1-.1-.18-.12-.07-.02-.16.01-.27.03,0,.01-.03-.1-.07-.1-.17,0-.35.03-.54.05,0,.01-.03-.1-.03-.1-.31.06-.6-.05-.9-.08-.01,0-.03.1-.06.17Z"/>
      <path class="cls-6" d="M424.04,35.3c-.04-.16-.07-.32-.1-.47,1.02.34,2.12.23,3.17.41.12.15.25.32.39.48,0,0-.01-.01-.01-.01.02.14.05.28.07.42-.01,0-.02,0-.03,0-.11-.21-.21-.41-.37-.71-.03.2-.05.3-.07.42-.03-.13-.05-.23-.06-.33-.02,0-.04,0-.07-.01-.03.08-.06.17-.09.25,0,0-.03-.02-.03-.03.09-.27-.26-.13-.3-.28-.29.08-.58-.03-.87-.05-.05,0-.1.07-.1.06-.21-.05-.41-.09-.62-.14-.01.06-.03.12-.03.13-.11-.05-.23-.12-.35-.15-.02,0-.08.1-.06.07h-.3c-.06-.02-.11-.04-.17-.06Z"/>
      <path class="cls-6" d="M422.82,38.45c-.36.06-.5-.04-.49-.36.02-.46,0-.91,0-1.37.43-.09.48-.05.48.31,0,.47,0,.94,0,1.42Z"/>
      <path class="cls-6" d="M420.98,38.17c-.31.04-.47-.03-.47-.33.01-.47,0-.94,0-1.4.37-.07.48.05.47.36-.02.46,0,.91,0,1.38Z"/>
      <path class="cls-6" d="M421.84,36.62v1.69c-.3.04-.44-.04-.43-.32,0-.47,0-.94,0-1.45.17.03.3.05.43.08Z"/>
      <path class="cls-6" d="M427.31,39.21c-.4.08-.52-.07-.5-.42.03-.51,0-1.02,0-1.57.19.04.33.06.49.09v1.9ZM427.01,37.43s-.06,0-.1,0v1.55s.06,0,.1,0v-1.55Z"/>
      <path class="cls-6" d="M423.82,38.64c-.37.03-.48-.1-.47-.41.02-.46,0-.92,0-1.42.2.04.33.07.46.09v1.74ZM423.57,37.08s-.04,0-.06,0v1.23s.04,0,.06,0c0-.21,0-.41,0-.62s0-.41,0-.61Z"/>
      <path class="cls-6" d="M424.45,36.95c.19.03.32.06.46.08v1.78c-.33.06-.49-.03-.47-.37.03-.48,0-.97,0-1.49ZM424.51,38.49s.07.01.1.02v-1.31s-.07,0-.1,0v1.3Z"/>
      <path class="cls-6" d="M425.6,37.08c.2.04.34.06.48.09v1.84c-.34.06-.5-.04-.49-.39.02-.5,0-1,0-1.54ZM425.68,38.73s.06,0,.09.01v-1.5s-.06,0-.09,0v1.49Z"/>
      <path class="cls-6" d="M420.07,34.11c-.11.12-.21.24-.32.36.03,0,.06,0,.1-.01.03.15.07.3.09.45.01.11-.03.23-.03.34,0,1.09,0,2.18-.07,3.28,0-.12-.03-.25-.03-.37,0-1.01,0-2.02,0-3.03,0-.1.04-.24-.02-.3-.29-.36-.03-.55.28-.7Z"/>
      <path class="cls-6" d="M440.71,39.25c1.31-.13,2.63-.26,3.94-.4,0,.03,0,.05,0,.08-2.05.23-4.1.45-6.15.68,0-.03,0-.06-.01-.08.74-.1,1.48-.19,2.22-.29h-.01Z"/>
      <path class="cls-6" d="M429.53,40.17c1.78-.21,3.55-.41,5.33-.62,0,.03,0,.06.01.09-1.78.21-3.56.42-5.34.62,0-.03,0-.07,0-.1Z"/>
      <path class="cls-6" d="M442.49,33.94c.42.17.87-.16,1.18.17-.22-.01-.45-.03-.69-.04-.23,0-.49-.05-.65.27.14.1.29.22.45.34-.04.04-.08.08-.12.12-.08-.11-.14-.23-.24-.33-.35-.35-.35-.35-.81-.38.05-.02.08-.04.1-.04.56,0,.49,0,.48-.51,0-.14.06-.29.1-.43.06.14.13.28.16.42.03.13.02.27.03.4Z"/>
      <path class="cls-6" d="M440.72,39.25c-.71.04-1.41.08-2.12.12v-.04c1.97-.22,3.94-.44,5.91-.66,0,.02,0,.05,0,.07-1.17.14-2.34.28-3.51.43-.1.01-.2.05-.31.08,0,0,.01,0,.01,0Z"/>
      <path class="cls-6" d="M435.22,39.8c-1.37.16-2.74.32-4.11.48,0-.03,0-.06-.01-.09,1.37-.16,2.74-.32,4.11-.47v.09Z"/>
      <path class="cls-6" d="M435.59,18.67c-1.5.08-2.99.16-4.43.24.5-.18,1.09-.29,1.68-.17.64.12,1.24-.04,1.85-.12.3-.04.6,0,.9,0,0,.02,0,.04,0,.05Z"/>
      <path class="cls-6" d="M435.9,37.51h.49v.75c-.16-.01-.32-.03-.49-.04v-.71Z"/>
      <path class="cls-6" d="M431.22,23.95c.66-.01,1.22-.45,1.95-.27.35.08.77-.06,1.16-.11.2-.03.39-.07.59-.08-.27.08-.53.2-.8.23-.36.05-.74.03-1.11.04-.28.01-.56.03-.84.07-.31.05-.62.14-.93.21,0-.03-.01-.06-.02-.1Z"/>
      <path class="cls-6" d="M424.04,35.3c.06.02.11.04.17.06.02.32.07.64.07.95,0,.88,0,1.77,0,2.65,0,.14-.09.28-.19.39.04-.17.12-.34.12-.51.01-.94.02-1.89,0-2.83,0-.24-.11-.48-.17-.72Z"/>
      <path class="cls-6" d="M432.67,27.98c-.11-.02-.23-.04-.41-.06.24.26.45.47.66.69-.01.01-.03.03-.04.04-.18-.16-.36-.32-.54-.48l-.05.03.17.25c-.27.16.07.21.04.33q-.23-.04-.33-.88c-.15.07-.28.13-.42.19.29-.35.46-.37.92-.11Z"/>
      <path class="cls-6" d="M433.69,19.09h-2.53c.7-.23,1.61-.2,2.53,0Z"/>
      <path class="cls-6" d="M425.67,36.05c.15.03.28.05.41.07v.38c-.49.04-.52,0-.41-.46Z"/>
      <path class="cls-6" d="M427.31,36.66h-.46v-.46c.16.03.3.05.46.08v.38Z"/>
      <path class="cls-6" d="M433.15,40.18c.74-.1,1.48-.19,2.22-.29,0,.03,0,.06.01.08l-2.22.28s0-.05-.01-.08Z"/>
      <path class="cls-6" d="M435.37,19c.76.12,1.51.53,2.3.07-.78.52-1.54.18-2.3-.07Z"/>
      <path class="cls-6" d="M424.51,35.93c.12.02.25.05.39.08,0,.12,0,.23,0,.34-.47.05-.52,0-.39-.42Z"/>
      <path class="cls-6" d="M422.81,35.7v.35c-.13,0-.28.03-.35-.03-.08-.07-.1-.21-.18-.4.24.04.38.06.52.08Z"/>
      <path class="cls-6" d="M431.16,23.02c-.59-.06-1.19-.11-1.78-.17,0-.02,0-.05,0-.07.59.04,1.19.09,1.78.13,0,.03,0,.07,0,.1Z"/>
      <path class="cls-6" d="M429,17.98c.69.1,1.38.29,2.06-.05-.67.39-1.37.21-2.06.05Z"/>
      <path class="cls-6" d="M436.03,36.8c0-.27,0-.48,0-.68,0-.03.16-.1.19-.08.15.1.07.58-.2.76Z"/>
      <path class="cls-6" d="M431.32,23.54c-.57-.03-1.14-.07-1.72-.1,0-.02,0-.05,0-.07.57.03,1.15.05,1.72.08,0,.03,0,.06,0,.09Z"/>
      <path class="cls-6" d="M423.82,36.17h-.42v-.38c.16.03.29.05.42.07v.31Z"/>
      <path class="cls-6" d="M429.01,34.05c.26-.27.53-.54.79-.82-.02-.02-.05-.04-.07-.07h.49s-.04-.04-.06-.06c-.38.32-.75.64-1.13.97,0,0-.02-.02-.02-.03Z"/>
      <path class="cls-6" d="M431.05,23.14q1.39-.39,1.68-.28c-.54.09-1.11.18-1.68.28Z"/>
      <path class="cls-6" d="M421.03,35.81c-.21-.02-.33-.03-.48-.05v-.32c.11,0,.26-.04.31,0,.08.07.1.21.17.36Z"/>
      <path class="cls-6" d="M430.07,17.77c-.54.03-1.08-.27-1.62,0,.53-.34,1.08-.08,1.62,0Z"/>
      <path class="cls-6" d="M426.68,34.84c.39-.32.78-.65,1.16-.97,0,0-.01-.01-.02-.02-.39.32-.77.65-1.16.97h.01Z"/>
      <path class="cls-6" d="M439.69,39.6c.52-.05,1.04-.1,1.55-.15,0,.03,0,.05.01.08-.52.05-1.03.1-1.55.16,0-.03-.01-.05-.02-.08Z"/>
      <path class="cls-6" d="M421.84,35.91h-.4c0-.11-.01-.22-.02-.35.27,0,.51-.02.42.35Z"/>
      <path class="cls-6" d="M434.46,19.51c-.31.07-.62.17-.93.21-.17.02-.34-.04-.44-.05.41-.05.9-.1,1.38-.15h0Z"/>
      <path class="cls-6" d="M444.43,39.16c-.44.06-.87.11-1.31.17,0-.03,0-.06-.01-.09.44-.06.88-.11,1.32-.17,0,.03,0,.06,0,.09Z"/>
      <path class="cls-6" d="M434.23,39.53c-.4.04-.79.07-1.19.11,0-.03,0-.06-.01-.09.4-.04.8-.09,1.2-.13,0,.04,0,.07,0,.11Z"/>
      <path class="cls-6" d="M443.21,39.71c-.45.05-.9.1-1.34.15,0-.02,0-.05,0-.07.45-.05.9-.11,1.34-.16v.08Z"/>
      <path class="cls-6" d="M435.73,18.84c-.49.03-.98.07-1.47.1,0-.02,0-.05,0-.07.49-.03.98-.06,1.47-.08,0,.02,0,.04,0,.06Z"/>
      <path class="cls-6" d="M433.62,17.84c-.52-.03-1.04-.07-1.56-.1,0-.02,0-.05,0-.07.52.04,1.04.07,1.56.11,0,.02,0,.05,0,.07Z"/>
      <path class="cls-6" d="M443.85,39.43c-.4.05-.8.1-1.19.15,0-.03,0-.05-.01-.08.39-.05.79-.1,1.18-.15,0,.03.02.05.02.08Z"/>
      <path class="cls-6" d="M430.82,23.82l1.14-.2s0,.05.01.08c-.38.07-.76.14-1.15.21,0-.03,0-.06,0-.08Z"/>
      <path class="cls-6" d="M429.31,23.53c.5.03.99.07,1.49.1,0,.02,0,.05,0,.07-.5-.03-.99-.06-1.49-.09,0-.03,0-.06,0-.08Z"/>
      <path class="cls-6" d="M424.01,38.25v-1.57s.03,0,.05,0v1.58s-.03,0-.05-.01Z"/>
      <path class="cls-6" d="M429.99,18.51c.44-.08.89-.16,1.33-.24,0,.02,0,.05.01.07-.44.08-.89.15-1.33.23,0-.02,0-.04-.01-.06Z"/>
      <path class="cls-6" d="M434.47,19.52c.46-.1.91-.2,1.37-.3,0,.03.02.07.02.1-.47.06-.93.13-1.4.19,0,0,0,0,0,0Z"/>
      <path class="cls-6" d="M438.73,34.59c-.05.08-.14.15-.14.23-.02.28-.12.32-.34.14-.03.13-.05.25-.08.38-.02,0-.04,0-.06,0-.01-.06-.03-.12-.04-.18-.2-.33.04-.53.25-.72.07-.06.18-.08.27-.12.04.09.09.19.13.28Z"/>
      <path class="cls-6" d="M434.8,35.88c.02.31.03.63.05.94-.05.01-.09.02-.14.03-.09-.13-.18-.25-.27-.38,0-.11.04-.22.03-.33-.03-.26.09-.32.33-.26Z"/>
      <path class="cls-6" d="M435.88,24.53v-4.43s.04,0,.06,0v4.43s-.04,0-.06,0Z"/>
      <path class="cls-6" d="M439.23,38.18h-.66c0-.57-.02-1.14.02-1.71,0-.1.23-.26.34-.26.11,0,.28.19.29.3.03.54.01,1.08.01,1.66ZM439.13,37.91v-1.39c-.06.08-.13.19-.16.23.04.11.1.2.09.29-.01.09-.1.17-.13.23.38.07,0,.45.2.64Z"/>
      <path class="cls-6" d="M440.72,38.03c0-.58-.02-1.11.02-1.65,0-.11.21-.21.32-.31.1.11.27.22.27.34.03.51.01,1.03.01,1.57-.22.02-.4.03-.63.05ZM441.23,36.33s-.03,0-.04.01v1.4s.03,0,.04,0v-1.41Z"/>
      <path class="cls-6" d="M439.68,36.28s.05-.03.07-.04q.56-.08.57.45c0,.33-.02.67,0,1,.03.33-.08.48-.44.42-.06,0-.12,0-.21,0v-1.83ZM440.18,36.75v1.09s.03,0,.05,0v-1.45s-.05,0-.07,0c0,.1-.01.19-.02.3-.09,0-.19.02-.28.03,0,0,0,.02,0,.03.09,0,.18.01.32.02Z"/>
      <path class="cls-6" d="M440.18,34.7c.01.32.06.64.04.95-.02.34-.31.11-.51.25,0-.51-.02-.93.01-1.35,0-.12.15-.24.24-.36.08.12.17.23.24.35.02.04,0,.11,0,.17-.04-.09-.07-.17-.14-.34,0,.36.01.63,0,.9,0,.17-.03.17.14.27v-.85Z"/>
      <path class="cls-6" d="M438.28,36.31c-.08.15-.17.42-.25.42-.33,0-.14-.28-.18-.45-.03-.11-.03-.23,0-.34.02-.07.09-.14.14-.2.07.06.18.12.2.19.04.1,0,.22,0,.34.02.01.05.02.07.04Z"/>
      <path class="cls-6" d="M439.09,35.82h-.43c0-.19-.03-.36,0-.52.02-.1.14-.18.22-.27.07.09.17.18.19.28.03.15,0,.32,0,.52Z"/>
      <path class="cls-6" d="M440.83,35.77c0-.17-.03-.32,0-.47.02-.1.13-.19.19-.29.07.09.18.18.2.28.1.43,0,.54-.4.47Z"/>
      <path class="cls-6" d="M441.6,36.52c0-.23-.01-.45,0-.68,0-.07.1-.12.16-.19.05.07.13.13.14.2.02.17.03.34,0,.51-.01.08-.11.16-.17.23-.04-.03-.09-.05-.13-.08Z"/>
      <path class="cls-6" d="M437.89,38.19c-.13-.61-.07-.89.18-.95v.78s.04,0,.06,0v-.55c.13.67.11.72-.24.72Z"/>
      <path class="cls-6" d="M441.82,37.92s-.09.02-.22.06c0-.28,0-.52,0-.77,0-.06.06-.12.11-.16.03-.02.1.03.15.05-.03.04-.08.08-.08.13,0,.22.02.44.04.69Z"/>
      <path class="cls-6" d="M439.5,35.78v-1.39s.02,0,.03,0c.02.46.04.93.06,1.39-.03,0-.06,0-.09,0Z"/>
      <path class="cls-6" d="M440.49,37.77v-1.6s.02,0,.03,0v1.6s-.02,0-.03,0Z"/>
      <path class="cls-6" d="M440.37,35.78v-1.49s.02,0,.03,0v1.48s-.02,0-.03,0Z"/>
      <path class="cls-6" d="M438.37,36.81v1.13s-.02,0-.03,0v-1.13s.02,0,.03,0Z"/>
      <path class="cls-6" d="M431.4,33.84c.02.12.03.24.04.27.21.18.37.31.54.46.02,0,.08-.02.15-.04.07.15.11.39.23.43.38.15.33.45.36.73,0,.07,0,.13-.03.21.02-.8-.7-1.07-1.17-1.51-.23-.22-.5-.39-.8-.53-.04-.03-.08-.05-.06-.04-.59.56-1.19,1.1-1.75,1.66-.13.13-.16.36-.2.57.24-.04.49.21.64-.11.12.18.3.12.46.08.1-.02.19-.07.24-.09.18.05.36.09.55.14,0,.01,0,.03,0,.04h-1.93c0-.25-.16-.55.19-.77.02-.01,0-.09,0-.13.07.02.13.04.18.05.04-.09.08-.18.12-.26.03.02.06.03.09.05l.15-.27s.03.03.05.04c.36-.39.72-.79,1.13-1.23h.33s.05.15.1.31c.07-.08.1-.13.16-.2.02.13.03.23.05.38.08-.11.13-.18.18-.24Z"/>
      <path class="cls-6" d="M430.58,35.83c-.12,0-.21.01-.35.02,0-.28-.01-.54,0-.79,0-.06.11-.11.16-.17.06.06.17.13.18.19.02.24,0,.49,0,.75Z"/>
      <path class="cls-6" d="M432.07,35.77c.04.32.3.16.48.27-.61.03-1.22.07-1.86.1.02-.13.04-.23.05-.32.01,0,.02,0,.04,0,.01.08.03.15.04.23.21-.01.4-.02.63-.03v-.54s.04,0,.06,0v.52c.18-.16.58.24.58-.22h0Z"/>
      <path class="cls-6" d="M431.28,35.72c-.29.16-.36.14-.38-.12,0-.14-.02-.28,0-.41.02-.11.09-.21.16-.3,0,0,.16.04.17.07.01.13.04.36-.03.38-.44.19-.06.25.07.38Z"/>
      <path class="cls-6" d="M430.93,34.51c-.46.07-.51.04-.53-.2.15-.09.29-.17.5-.3.01.24.02.37.03.5Z"/>
      <path class="cls-6" d="M429.82,35.57c-.07.12-.13.23-.2.35-.06-.07-.19-.16-.17-.22.03-.09.14-.16.22-.24.05.04.1.07.15.11Z"/>
      <path class="cls-6" d="M430.6,36.47c-.28.11-.56.13-.85.07.19-.05.35-.28.57-.09,0,0,.12-.1.21-.18.03.08.04.14.06.2,0,0,0,0,0,0Z"/>
      <path class="cls-6" d="M432.08,35.76c-.11.01-.23.03-.36.04-.01-.08-.05-.16-.03-.21.03-.08.1-.14.15-.21.06.07.13.13.18.2.03.05.04.12.05.18,0,0,.01,0,.01,0Z"/>
      <path class="cls-6" d="M439.69,32.24v-1.77s.03,0,.05,0v1.79h-.05Z"/>
      <path class="cls-6" d="M443.27,37.87c-.21-.11-.45-.16-.46-.24-.02-.21-.13-.49.29-.66.05.29.1.55.16.9Z"/>
      <path class="cls-6" d="M437.18,35.65c.05.04.15.07.15.11.01.32,0,.64-.08.96-.02-.36-.04-.72-.06-1.09,0,0-.01,0-.01,0Z"/>
    </g>
    <path class="cls-8" d="M1.09,27.93l154.29-.07,73.45,122.63,237.26.73v36.05s.15,13.38-12,13.36c-18-.03-441-1.15-441-1.15-3.03-.03-10.78-1.42-12-10.85-2.45-18.86,0-160.7,0-160.7Z"/>
    <path class="cls-2" d="M12.85,20.93c2.37-.52,4.78-1.61,7.11-1.46,9.76.59,19.49,1.64,29.25,2.28,1.64.11,3.6-.64,4.99-1.61,4.14-2.9,8.04-6.14,12.07-9.19,1.48-1.12,3.45-2.08,4.6-.15.69,1.15.58,3.53-.19,4.66-2.9,4.28-6.31,8.21-9.33,12.42-.85,1.19-1.48,2.93-1.38,4.36.67,9.99,1.69,19.96,2.28,29.96.13,2.19-1.01,4.45-1.57,6.67-.42-.04-.83-.09-1.25-.13-2.94-9.75-5.87-19.5-8.94-29.7-5.04,4.24-9.43,8.52-14.42,11.94-4.18,2.86-6.04,6.02-5.18,11.06.33,1.94-.36,4.06-1.46,6.4-3.36-7.45-8.09-12.95-16.18-15,.08-.45.16-.9.25-1.35,1.34-.46,2.82-1.53,3.99-1.26,7.21,1.64,11.48-1.83,15.23-7.48,2.77-4.18,6.46-7.75,10.04-11.94-10.12-3.12-19.95-6.15-29.79-9.18-.03-.43-.07-.86-.1-1.29Z"/>
    <g class="cls-9">
      <path class="cls-8" d="M308.94,29.28c-.38-.37-.8-.7-1.12-1.11-.62-.8-1.19-1.64-1.95-2.38.4,1.01,1.56,1.73.88,3.04-.44.84,0,2.5-1.86,1.96-.25.66-.48,1.27-.67,1.77.56.72,1.12,1.38,1.58,2.11.05.09-.5.55-.77.84-1.16-1.15-1.52-3.08-3.77-2.9-.07-.12-.25-.43-.49-.83-.44.4-.8.73-1.47,1.33,1.02.28,1.74.47,2.56.7-.21.37-.41.72-.65,1.14.16.2.33.42.52.62,1.85,1.99,1.96,3.67.38,5.86-.19.26-.55.65-.73.6-1.31-.35-2.2,1.41-3.59.69-.06-.03-.69.73-.76,1.17-.05.31.36.74.63,1.05,1.9,2.16,1.8,2.95-.49,4.37-.86-.78-1.7-1.55-2.58-2.35-.71,1.41-.47,2.74.52,3.61.94.83,2.15,1.58.81,3.04-.1.11.15.61.32.87.3.48.75.89.98,1.4.18.41.12.92.17,1.39-.48-.18-1.14-.21-1.42-.55-.86-1.07-1.57-2.27-2.35-3.41-.41-.61-.86-1.19-1.29-1.78.1-.11.2-.22.3-.33.88.69,1.75,1.38,2.63,2.07l.35-.25c-.63-.97-1.28-1.94-1.89-2.93-.16-.25-.23-.57-.28-.87-.14-.93-.25-1.87-.36-2.8-.1-.86-.53-1.17-1.12-.9-.82-1.1-1.43-2.24-2.35-3.02-.38-.33-1.41.06-2.14.2-.17.03-.26.39-.43.55-1.58,1.46-3.29,2.8-3.11,5.33.03.4-.64.85-1,1.3-1.17-1.32-2.6-5.58-2.53-7.52-.38.15-.69.35-1.02.37-.29.02-.75-.06-.86-.25-1.14-2.07-1.36-2.11-3.52-2.02-.91.04-1.85-.41-2.77-.66-.18-.05-.35-.25-.5-.23-1.29.17-2.2-.31-2.83-1.46-.11-.21-.64-.19-.97-.27-.08.13-.15.25-.23.38.71.92,1.33,1.94,2.18,2.71.27.24,1.16-.22,2.01-.41-.08-.1.06.12.23.31.47.49,1.43,1.27,1.35,1.4-.65,1.01-1.42,1.97-2.29,2.78-.68.63-1.53,1.1-2.37,1.5-.93.44-1.93.7-3.04,1.09,1.18,1.69,2.59.55,4.13.12-.53,2.06-.9,3.95-2.49,5.3-.51.43-1.07.81-1.54,1.27-1.68,1.66-2.81,3.37-1.53,5.92.76,1.5.26,2.91-1.41,3.83-1.03.56-2.05,1.38-1.16,2.86.08.13.07.47-.01.53-1,.65-1.32,1.66-1.77,2.71-.43.99-1.43,1.76-2.27,2.52-.36.32-.96.43-1.47.53-2.33.46-3.37-.92-4.01-2.87-.72-2.16-1.52-4.29-2.18-6.47-.16-.53-.03-1.31.26-1.79,1.27-2.09.34-3.87-.72-5.58-.55-.89-1.02-1.59-.66-2.74.31-.99.24-2.12-1.4-1.84-.13.02-.35-.02-.39-.1-.83-1.74-1.96-.79-3.13-.47-1.27.35-2.62.45-3.94.56-.37.03-.89-.22-1.13-.52-1.04-1.3-2.52-2.54-2.84-4.02-.41-1.86-.08-3.99.4-5.88.29-1.13,1.47-2.02,2.25-3.03.86-1.11,1.75-2.2,2.55-3.35.13-.19,0-.68-.17-.94-.22-.35-.82-.59-.84-.91-.04-.9.08-1.81.27-2.69.03-.14.74-.14,1.14-.18.69-.06,1.76.18,2.01-.18.61-.85.11-1.7-.8-2.22-.05-.03-.04-.17-.04-.17.85-.39,1.68-.77,2.52-1.15l-.03.04c.5-.35,1-.72,1.52-1.04.47-.3.98-.55,1.59-.89.04-.37.09-.94.15-1.52.71,1.39,1.67,1.8,3.17,1.41.91-.24,2.04,0,2.12-1.46,0-.07.56-.12.9-.19-.06-.28-.13-.57-.22-.95.67-.03,1.25-.06,1.83-.09,0-.04,0-.08,0-.12l-2.53-.45c.15-.81.3-1.62.48-2.55-.81.66-1.56,1.27-2.29,1.86.19.51.61,1.08.47,1.4-.32.7-.81,1.52-1.45,1.8-.35.15-1.14-.7-1.73-1.1.05-.11.09-.22.14-.33-.26.06-.56.24-.78.17-.46-.15-1.22-.39-1.25-.67-.06-.53.14-1.26.51-1.63.75-.75,1.65-1.35,2.54-1.93.95-.62,1.89-1.4,2.95-1.68,2.63-.7,4.88.76,7.28,1.36-.04.22-.07.45-.11.67-.85-.1-1.7-.2-2.82-.34.54.6.97,1.06,1.4,1.54,1.02-.63,1.97-1.22,3.15-1.95,1.36-.11,3.15-.25,4.93-.39.02-.08.04-.16.06-.25-.97-.28-1.94-.55-2.95-.84.61-2.52,2.55-2.01,4.4-2.27-1.24.65-2.24,1.19-3.25,1.72.04.16.07.31.11.47,1.57.39,3.14.78,5.01,1.24-.36-.32-.63-.44-.68-.62-.1-.37-.08-.78-.11-1.17.38,0,.95-.14,1.12.06.63.73,1.14,1.58,1.76,2.47q.43-.14-.7-2.25c2.3-.79,4.59-1.57,6.84-2.34-.17-.05-.49-.15-.8-.24.02-.11.04-.22.06-.33,1.92.35,3.84.7,5.97,1.1-.38.42-.58.65-.86.97,2.04,0,4.01-.18,5.94.05,1.83.22,3.6.87,5.53,1.36.34-1.47,1.27-1.46,2.21-1.06,2.79,1.17,5.76,1.07,8.68,1.24,3.24.19,6.43.48,9.55,1.48.76.24,1.62.02,2.1,1.01-1.27.48-2.57-1.55-3.64.28.62.21,1.27.42,2.36.79-1.82.6-3.23,1.07-4.93,1.63.5.35.81.58,1.13.78.78.49,1.41,2.23,1,3.01-.08.16-.75.22-.94.07-.59-.47-1.23-.98-1.57-1.62-.34-.64-.41-1.46-.5-2.21-.06-.44.06-.91.08-1.11h-2.53c-.07.25-.18.68-.32,1.18-1.83.42-4.89-1.71-5.1,2.48,3.44-.29,5.58,1.35,6.6,4.54h0ZM258.96,28.65c-.42.46-.98.8-1.06,1.22-.29,1.5-.94,2.44-2.61,2.3-.04,0-.1.15-.17.26.12.28.33.58.34.88,0,.33-.19.66-.29.99-.27-.21-.71-.38-.78-.65-.58-2.12-2.22-3.14-4.2-4.26.38,1.83,2.09,1.79,3.03,2.91-1.43-.39-.81,2.45-2.92,1.38.65-.21,1.02-.34,1.63-.54-1.13-1.12-2.12-2.1-3.12-3.08-.04-.04-.19-.02-.27.02-1.57.73-3.55.91-4.09,3.06-.06.25-.44.47-.72.61-.54.28-1.11.5-1.67.74.02.14.04.28.06.42,2.38-.35,4.75-.7,7.23-1.06.19.74.15,1.76.59,2.06,1.17.79,2.55,1.26,3.93,1.89.19-.52.34-.95.55-1.54,1.07.3,2.09.63,3.14.87,3.04.68,4.28-.29,3.72-2.85-2.52.3-3.46.74-4.63-1.81.32-.07.68-.05.94-.2,1.37-.8,2.71-1.23,4.29-.45.48.24,1.21-.02,2.22-.07-1.06-1.28-2.82-1.37-2.13-3.56-.68.53-.99.71-1.21.97-.15.18-.17.46-.25.7-.29-.1-.63-.14-.86-.31-.25-.19-.39-.5-.68-.9ZM268.59,29.06c-1.32-.92-1.97,0-2.58.74.3,1.38,2.05,1.97,1.56,3.66-.04.14,1.1.61,1.69.93.1-.52.24-1.03.3-1.56.05-.39,0-.79,0-1.02-.64-.56-1.27-1.07-1.81-1.65-.05-.05.46-.62.82-1.1ZM265.59,46.82c-.02-2.08-3.84-7.84-5.78-8.24,2.72,2.44,2.66,6.34,5.78,8.24Z"/>
      <path class="cls-8" d="M204.48,49.53c-1.73.63-2.74.24-3.67-1.19-.27-.41-.73-.7-1.14-.99-.56-.41-1.14-.78-1.74-1.14-.35-.21-.79-.57-1.11-.5-1.81.41-2.94-.87-4.28-1.6-.24-.13-.58-.42-.56-.6.26-2.6-2.44-3.88-2.56-6.29-.19.06-.38.11-.56.17.43,1.28.86,2.55,1.29,3.83-.14.05-.28.1-.42.15-.76-1.21-1.33-2.5-1.56-3.98-.09-.58-.39-1.18-.76-1.65-.94-1.17-.78-2.45-.28-3.63.59-1.39,1.42-2.68,2.04-3.83.53-.23.93-.41,1.34-.59-.64-.47-1.74.3-1.13-1.27.42-1.09.73-2.51-.16-3.57-1.11-1.32-2.62-.97-4.19-.96-2.53,0-4.38,1.72-6.85,1.82.65-.32,1.3-.65,2.04-1.02-.44-.27-.77-.47-1.08-.67.9-1.29,1.76-2.53,3.58-2.38-.41-.09-.81-.18-1.22-.27-.01-.14-.03-.28-.04-.41.86-.15,1.72-.3,2.22-.39.59-.5.94-.95,1.39-1.14,2.8-1.19,5.65-1.06,8.57-.37,1.25.29,2.63.16,3.94.05,1.87-.16,3.6-.1,5.34.83.63.34,1.77.96,2.56.15-.74-.7-1.38-1.3-2.25-2.12-.21.04-.84.17-1.55.31.84-1.5,2.53-1.77,4.23-.92.67.33,1.47.39,2.22.57.07-.13.15-.26.22-.4.03.56.07,1.12.11,1.84h-2.23c0,.16,0,.32-.01.48,1.5.11,3,.22,4.33.32.26-.88.4-1.37.58-1.95-.2-.03-.62-.09-1.11-.16,1.2-1.03,2.39-1.11,3.57-.2-1.48.39-1.42,1.25-.65,2.33.74-.29,1.54-.6,2.33-.91.09.16.19.31.28.47l-1.96,1.52c-.04-.08-.07-.15-.11-.23-.12.39-.25.77-.37,1.16-.47-.29-.94-.57-1.51-.92-1.41.72-3.12,1.58-4.92,2.49.38,1.71,1.99,1.87,3.23,2.55-.06.24-.18.47-.16.68.03.41.13.81.2,1.22.37-.22.77-.4,1.11-.66.39-.31.77-.65,1.06-1.04.39-.52.89-1.06,1.01-1.65.34-1.78,2-2.89,3.28-1.97.5.36.69,1.14,1.08,1.81.55-.29,1.12-.58,1.91-.99.06.64.11,1.13.15,1.62.04.47.07.95.11,1.46.43.15.86.3,1.46.51-1.52,1.14-.62,1.98.76,2.94h-3.57c.47-.57.83-1.01,1.47-1.8-2.02.28-3.7.52-5.38.76.01.12.03.25.04.37.5-.04,1-.09,1.64-.15-.14.51-.24.89-.37,1.37.36.17.72.35,1.22.59-.72.35-1.34.65-2.1,1.02v-.88c-.08-.02-.2-.08-.25-.05-2,1.31-4.34,2.32-5.87,4.05-.96,1.09-1.88,2.09-3.05,2.94-.43.32-.59,1.12-.7,1.73-.12.68-.03,1.39-.03,2.09l-.44.13c-.17-.45-.43-.88-.51-1.35-.21-1.19-1.94-1.89-2.94-1.19-.28.19-.74.32-1.06.24-1.64-.42-3.39.58-3.74,2.31-.15.74-.21,1.55-.05,2.27.12.54.58,1.18,1.06,1.41.71.33,1.45.14,1.91-.72.51-.97.58-.94,2-.74-.37.93-.73,1.83-1.13,2.85h2.32c-.08.81-.15,1.5-.21,2.19-.11,1.24.61,1.82,1.82,1.51.34-.08.72.02,1.06-.04.39-.06.8-.16,1.15-.34.23-.12.34-.47.57-.62.38-.26.8-.45,1.31-.72v1.44c.19-.28.22-.4.3-.45.32-.2.77-.64.98-.54,1.92.88,4.43.59,5.69,2.81.08.14.33.28.47.25,2.07-.39,2.73,1.08,3.41,2.65-.28.4-.6.86-.9,1.3.11.11.19.25.23.23,1.63-.45,3.14.18,4.63.65,1.2.38,2.42.85,3.44,1.55.31.22.28,1.6-.09,2.02-1.09,1.24-1.51,2.59-1.54,4.19-.01.7-.29,1.4-.46,2.09-.21.88-.67,1.37-1.68,1.42-1.32.06-1.86.82-2.11,2.21-.24,1.34-1.03,2.62-1.78,3.8-.22.35-1.14.25-1.76.36.17.46.7,1.16.54,1.62-.15.43-1.03.61-1.75.98-.06.42.2,1.44-.75,1.03-.1.64-.2,1.23-.27,1.81-.04.3-.15.75,0,.89.7.65.62,1.35.28,2.08-.2.42-.5,1.13-.73,1.12-.5-.02-1.11-.31-1.43-.7-.62-.75-1.07-1.64-1.54-2.4v-2.35c-.12,0-.23-.01-.35-.02-.07.28-.13.57-.23.96-.12-.16-.24-.24-.24-.33-.31-3.85-.66-7.7-.89-11.56-.1-1.66-.96-2.59-2.23-3.56-1.1-.85-1.82-2.21-2.66-3.38-.41-.58-.71-1.23-1.07-1.85-.07-.12-.27-.26-.24-.34.47-1.24-.56-2.73.68-3.84,1.32-1.18,1.18-2.58.53-4.13Z"/>
      <path class="cls-8" d="M299.74,73.43c.07-1.44.26-2.54.14-3.6-.3-2.57.93-4.2,3.52-4.61.49-.08,1.05-.48,1.33-.9.51-.76,2.55-1.86,3.41-2.06.82-.19,1.51-.9,2.32-1.24.42-.18.98-.13,1.44-.02.11.03.14.69.09,1.05-.1.68.88,1.91,1.74,1.83.4-.04.86-.71,1.09-1.19.31-.66.42-1.42.7-2.45,1.68,2.71,1.69,5.62,3.49,7.79.65.78-.39,3.93-1.29,4.6-.7.51-1.63.93-1.98,1.64-.56,1.13-1.66,1.04-2.5,1.49-.44.23-1.16-.03-1.75-.12-.72-.11-1.33-.34-.97-1.3.04-.1-.05-.31-.14-.38-.87-.68-1.68-1.71-2.66-1.91-1.06-.21-2.29.32-3.43.6-1.2.29-2.37.71-3.57.98-.4.09-.88-.14-.99-.16Z"/>
      <path class="cls-8" d="M241.38,12.21c-1.28.32-2.15.79-2.45,2.23-.11.53-1.2.86-1.94,1.34.08.13.28.45.57.91-.57-.11-1.01-.19-1.76-.33.41.52.63.79.9,1.13-.32.13-.66.41-.92.35-2.05-.45-3.67.83-5.46,1.34-.67.19-1.21.87-1.8,1.34-.47.38-1.19,1.18-1.33,1.09-.65-.43-1.36-1.03-1.62-1.72-.31-.84-.11-1.78.86-2.33.31-.17.5-.55.66-.74-.73-2.08-2.19-3.01-4.36-3.03,6.1-2.51,12.34-2.15,18.65-1.58Z"/>
      <path class="cls-8" d="M312.49,55.95c.83-1.06,1.79-.73,2.79-.06,1.01.68,2.17,1.18,3.03,2.01.66.63.95,1.65,1.46,2.59-1.37.15-1.74-1.4-2.81-1.95-.28.4-.53.76-.79,1.12-.89-.3-1.72-.58-2.58-.86.74-1.11-.02-1.73-.91-1.89-1.23-.22-1.85-.88-1.92-2.3.53.41,1.06.81,1.74,1.34Z"/>
      <path class="cls-8" d="M221.61,18.82c-1.07.58-2.02,1.11-3,1.61-.33.17-.93.41-1.03.3-.31-.36-.57-.87-.6-1.34-.01-.27.44-.59.73-.83.16-.13.42-.13.71-.21-.27-1.21-.75-1.83-2.08-1.54-.68.15-1.44-.05-2.17-.09-.06-.16-.11-.33-.17-.49.39-.26.76-.69,1.19-.75,3.04-.48,5.14.79,6.41,3.36Z"/>
      <path class="cls-8" d="M302.22,56.87c-1.04-.63-2.07-1.1-2.91-1.81-.66-.56-.68-1.11.39-1.61,1.03-.48,1.81-1.49,2.75-2.21.28-.21.73-.22,1.1-.31.07.38.15.75.19,1.14.18,1.67-.61,3.05-1.51,4.81Z"/>
      <path class="cls-8" d="M268.82,61.23c.2,2.33-.45,4.43-1.31,6.48-.12.28-1.03.57-1.08.5-.35-.49-.76-1.06-.79-1.63-.04-.86.16-1.74.35-2.59.07-.32.31-.64.56-.87.68-.62,1.41-1.18,2.26-1.89Z"/>
      <path class="cls-8" d="M308.93,29.29c.63.47,1.26.95,2.09,1.58-.56.15-1.02.27-1.4.37.38.69.93,1.37,1.14,2.15.47,1.69.27,1.92-1.36,2.34-.95.24-1.27.47-1.92,1.39-.15-.2-.31-.37-.42-.57-.11-.19-.17-.41-.28-.69.37.04.6.07,1.28.14-.59-.34-.81-.47-1.23-.71.48-.23.81-.47,1.17-.54,1.88-.39,2.22-1.31,1.33-2.93-.39-.7-.28-1.68-.4-2.54,0,0,0,0,0,0Z"/>
      <path class="cls-8" d="M217.43,13.63c1.12-.45,2.24-.9,3.25-1.3-.11-.03-.44-.11-.77-.2,0-.1,0-.2.01-.3h5.78c.03.08.06.16.1.24-2.69.76-5.37,1.52-8.06,2.28-.1-.24-.2-.48-.3-.72Z"/>
      <path class="cls-8" d="M305.1,46.48c2.33.35,2.28,2.49,3.14,3.98-.48.32-.85.56-1.22.81-.5-.4-.99-.79-1.5-1.19,1.63-.85,1.84-1.39.88-2.41-.22-.23-.71-.2-.96-.42-.54-.48-1.15-.97-1.44-1.59-.19-.39.14-1.03.24-1.56.22.02.43.03.65.05.07.74.13,1.48.21,2.33Z"/>
      <path class="cls-8" d="M245.38,26.68c-.79.09-1.57.17-2.6.29.29-.84.52-1.51.77-2.24-1.07-1.05-1.08-1.09.09-1.9.58,1.31,1.14,2.6,1.7,3.89,0,0,.03-.04.03-.04Z"/>
      <path class="cls-8" d="M305.3,54.03c.3,1.1.53,1.92.76,2.75-.2.13-.39.26-.59.39-.12-.34-.23-.69-.44-1.32-.24.77-.35,1.13-.46,1.48-.15-.02-.31-.03-.46-.05.13-.98.17-1.99.4-2.95.41-1.72,1.94.16,2.71-1.2-.18,2.19-1.67.43-1.92.91Z"/>
      <path class="cls-8" d="M319.65,79.44c1.68-.85,3.37-1.7,5.06-2.56-.23,1.31-3.42,3.25-5.06,2.56Z"/>
      <path class="cls-8" d="M326.83,73.59c.36.63.7,1.24,1.13,1.99-.67.49-1.45,1.07-2.23,1.64-.11-.08-.22-.15-.34-.23.32-.52.71-1,.94-1.56.23-.55.31-1.17.48-1.84Z"/>
      <path class="cls-8" d="M240.01,18.68c-.78,1.46-1.74,1.46-2.72,1.32-.16-.02-.37-.32-.38-.5-.01-.18.18-.51.32-.53.82-.13,1.65-.18,2.79-.29Z"/>
      <path class="cls-8" d="M242.46,24.05c-.05.83-.08,1.38-.12,2-.59.04-1.18.08-1.8.12-.27-1.49.81-1.63,1.92-2.13Z"/>
      <path class="cls-8" d="M207.04,43.49c-1.43-.56-2.87-1.12-4.5-1.76,1.88-.5,3.2.66,4.67,1.2-.06.19-.11.37-.17.56Z"/>
      <path class="cls-8" d="M297.45,57.82c1.5.22,3,.44,4.5.66-.02.17-.05.35-.07.52-1.5-.18-2.99-.36-4.49-.54.02-.21.05-.42.07-.64Z"/>
      <path class="cls-8" d="M311.38,77.1c.84-.12,1.47-.2,2.56-.35-1,.78-1.72,1.35-2.44,1.92-.13-.09-.26-.18-.4-.27.1-.46.2-.92.28-1.3Z"/>
      <path class="cls-8" d="M217.1,84.46c-.6-.04-1.21,0-1.78-.14-.25-.06-.42-.45-.62-.69.35-.13.76-.43,1.04-.34.52.17.97.58,1.44.89l-.08.29Z"/>
      <path class="cls-8" d="M207.33,43.81c.82-.07,1.64-.15,2.46-.22.02.22.04.45.06.67-.82.05-1.64.11-2.46.16-.02-.21-.03-.41-.05-.62Z"/>
      <path class="cls-8" d="M268.59,29.06c-.37.48-.87,1.05-.82,1.1.54.58,1.17,1.09,1.81,1.65,0,.23.04.63,0,1.02-.07.52-.2,1.04-.3,1.56-.59-.32-1.73-.8-1.69-.93.49-1.69-1.27-2.27-1.56-3.66.62-.74,1.26-1.66,2.58-.74Z"/>
    </g>
    <rect class="cls-8" x="362.08" y="68.86" width="91.08" height="29.31"/>
    <rect class="cls-8" x="362.08" y="105.6" width="91.08" height="29.31"/>
    <g>
      <path class="cls-6" d="M442.98,191.57h-2.45v-32.97h2.45v32.97Z"/>
      <path class="cls-6" d="M416.88,158.55h2.46v32.97h-2.46v-32.97Z"/>
      <path class="cls-6" d="M395.69,191.56h-2.45v-32.97h2.45v32.97Z"/>
      <path class="cls-6" d="M389.19,191.56h-2.46v-32.99h2.46v32.99Z"/>
      <path class="cls-6" d="M369.61,158.57h2.43v32.99h-2.43v-32.99Z"/>
      <path class="cls-6" d="M422.97,158.56h2.37v32.98h-2.37v-32.98Z"/>
      <path class="cls-6" d="M378.12,191.55h-2.42v-32.97h2.42v32.97Z"/>
      <path class="cls-6" d="M401.74,191.56h-2.38v-32.98h2.38v32.98Z"/>
      <path class="cls-6" d="M412.82,191.55h-2.44v-32.98h2.44v32.98Z"/>
      <path class="cls-6" d="M446.59,158.55h2.39v33h-2.39v-33Z"/>
      <path class="cls-6" d="M436.44,191.55h-2.42v-32.97h2.42v32.97Z"/>
      <path class="cls-6" d="M427.52,191.57h-1.23v-32.97h1.23v32.97Z"/>
      <path class="cls-6" d="M402.64,158.56h1.23v32.97h-1.23v-32.97Z"/>
      <path class="cls-6" d="M380.22,191.57h-1.18v-33h1.18v33Z"/>
      <path class="cls-6" d="M391.05,191.57h-1.16v-32.99h1.16v32.99Z"/>
      <path class="cls-6" d="M367.43,191.57h-1.17v-33h1.17v33Z"/>
      <path class="cls-6" d="M414.68,191.55h-1.19v-32.97h1.19v32.97Z"/>
      <path class="cls-6" d="M437.13,158.55h1.15v32.99h-1.15v-32.99Z"/>
      <path class="cls-6" d="M382.3,158.56c0,.36,0,.73,0,1.09,0,10.29,0,20.58,0,30.88,0,.37-.13.73-.2,1.1-.13-.02-.26-.04-.38-.06-.02-.29-.05-.59-.05-.88,0-10.39,0-20.79,0-31.18,0-.34.12-.68.19-1.01.15.03.29.05.44.08Z"/>
      <path class="cls-6" d="M429.44,191.68c-.69-.66-.68-32.58,0-33.21v33.21Z"/>
      <path class="cls-6" d="M430.52,158.25c.37.35.58.46.62.61.07.26.03.54.03.82,0,10.29,0,20.59,0,30.88,0,.24.03.49-.03.71-.03.12-.2.21-.3.32-.1-.11-.26-.19-.3-.32-.05-.19-.02-.41-.02-.61,0-10.36,0-20.72,0-31.09,0-.33,0-.66,0-1.32Z"/>
      <path class="cls-6" d="M383.51,191.64c-.08-.29-.22-.59-.23-.88-.02-2.43-.01-4.86-.01-7.28,0-7.9,0-15.8,0-23.7,0-.4,0-.8,0-1.37.31.18.55.23.6.35.08.21.04.47.04.71,0,10.39,0,20.79,0,31.18,0,.3-.03.6-.05.9-.12.03-.24.05-.36.08Z"/>
      <path class="cls-6" d="M420.45,174.96c0-5.1,0-10.19,0-15.29,0-.27-.02-.55.03-.82.02-.12.19-.21.3-.32.1.11.27.2.3.32.05.23.03.48.03.71,0,10.33,0,20.66,0,30.99,0,.24.03.49-.03.71-.03.12-.19.21-.3.32-.1-.11-.28-.2-.3-.32-.05-.27-.02-.54-.02-.82,0-5.16,0-10.33,0-15.49Z"/>
      <path class="cls-6" d="M373.79,158.58v32.97c-.11.03-.23.06-.34.08-.08-.29-.23-.59-.23-.88-.02-2.43-.01-4.86-.01-7.28,0-7.97,0-15.93,0-23.9,0-.36.15-.71.22-1.07.12.03.23.05.35.08Z"/>
      <path class="cls-6" d="M439.5,191.56c-.69-.78-.62-32.52,0-33.12v33.12Z"/>
      <path class="cls-6" d="M368.74,158.58c0,.37,0,.73,0,1.1,0,10.29,0,20.59,0,30.88,0,.24.03.49-.03.71-.03.12-.19.21-.3.32-.1-.1-.27-.19-.3-.32-.05-.23-.02-.48-.02-.71,0-10.33,0-20.66,0-30.98,0-.36.15-.72.23-1.08.14.03.28.05.41.08Z"/>
      <path class="cls-6" d="M444.49,158.49c.08.3.22.59.23.89.02,2.77.01,5.54.01,8.31,0,7.52,0,15.04,0,22.57,0,.21.04.42-.01.61-.07.25-.21.48-.32.72-.1-.24-.29-.49-.29-.73-.01-10.57-.01-21.13,0-31.7,0-.2.05-.39.07-.59l.32-.08Z"/>
      <path class="cls-6" d="M415.9,158.57v32.99c-.07.03-.14.06-.2.08-.1-.16-.25-.3-.3-.47-.05-.19-.02-.41-.02-.61,0-10.32,0-20.65,0-30.97,0-.36.09-.71.13-1.07.13.02.25.03.38.05Z"/>
      <path class="cls-6" d="M408.72,191.66c-.47-1.6-.26-32.71.19-33.11.41,1,.3,32.52-.19,33.11Z"/>
      <path class="cls-6" d="M406.9,174.96c0-5.1,0-10.19,0-15.29,0-.27-.02-.55.03-.82.02-.12.19-.21.3-.32.1.11.27.2.3.32.05.23.02.48.02.71,0,10.33,0,20.66,0,30.99,0,.24.03.49-.02.71-.03.12-.19.21-.3.32-.1-.1-.28-.2-.3-.32-.05-.27-.03-.54-.03-.82,0-5.16,0-10.33,0-15.49Z"/>
      <path class="cls-6" d="M405.92,191.75c-.35-.18-.55-.24-.55-.3-.01-10.96-.01-21.92-.01-32.87.16-.14.32-.28.48-.43.03.24.06.48.07.71.01.27.01.55.01.82,0,10.25,0,20.51,0,30.76,0,.37,0,.73,0,1.3Z"/>
      <path class="cls-6" d="M396.83,174.96c0-5.13,0-10.26,0-15.39,0-.27,0-.55.04-.82.01-.09.19-.2.29-.2.1,0,.27.11.29.2.05.27.04.54.04.82,0,10.33,0,20.66,0,30.99,0,.24.03.49-.02.71-.03.12-.19.21-.3.32-.1-.1-.28-.2-.3-.32-.05-.27-.03-.54-.03-.82,0-5.16,0-10.33,0-15.49Z"/>
      <path class="cls-6" d="M391.79,158.32c.29.28.5.39.55.54.07.22.03.47.03.71,0,10.33,0,20.65,0,30.98,0,.36-.15.73-.22,1.09-.11-.03-.23-.06-.34-.09v-33.23Z"/>
      <path class="cls-6" d="M384.98,191.55v-32.98c.07-.03.14-.05.22-.08.1.16.24.31.28.49.05.23.01.48.01.71,0,10.25,0,20.5,0,30.75,0,.39-.09.77-.14,1.16-.12-.02-.24-.04-.36-.05Z"/>
      <path class="cls-6" d="M432.38,191.64c-.08-.29-.22-.59-.23-.88-.02-2.22-.01-4.44-.01-6.67,0-8.17,0-16.34.01-24.52,0-.36.15-.72.22-1.07.11.03.23.05.34.08v32.97c-.11.03-.23.06-.34.08Z"/>
    </g>
    <line class="cls-1" x1="342.09" x2="342.09" y2="199.49"/>
    <use transform="translate(68.65 170.97) scale(.11)" xlink:href="#image"/>
    <use transform="translate(214.39 171.15) scale(.11)" xlink:href="#image"/>
    <use transform="translate(352.83 170.97) scale(.11)" xlink:href="#image"/>
  </g>
</svg>